<svg width="28" height="20" viewBox="0 0 28 20" fill="none" xmlns="http://www.w3.org/2000/svg">
  <path
    d="M12.3533 4.99302C12.5475 4.7938 12.8107 4.6819 13.0851 4.6819C13.3595 4.6819 13.6226 4.7938 13.8168 4.99302L17.2269 8.49657L20.637 4.99302C20.7318 4.8885 20.8461 4.80467 20.9732 4.74652C21.1002 4.68838 21.2373 4.65711 21.3763 4.65459C21.5154 4.65207 21.6535 4.67835 21.7824 4.73186C21.9113 4.78536 22.0284 4.865 22.1268 4.96602C22.2251 5.06704 22.3026 5.18737 22.3547 5.31983C22.4068 5.4523 22.4323 5.59418 22.4299 5.73703C22.4274 5.87987 22.397 6.02074 22.3404 6.15123C22.2838 6.28173 22.2022 6.39918 22.1005 6.49657L18.6904 10.0001L22.1005 13.5037C22.2834 13.7053 22.383 13.9721 22.3782 14.2477C22.3735 14.5233 22.2648 14.7862 22.0751 14.9811C21.8854 15.1761 21.6295 15.2877 21.3612 15.2926C21.0929 15.2974 20.8333 15.1951 20.637 15.0072L17.2269 11.5037L13.8168 15.0072C13.722 15.1117 13.6077 15.1956 13.4807 15.2537C13.3536 15.3119 13.2165 15.3431 13.0775 15.3456C12.9385 15.3482 12.8004 15.3219 12.6714 15.2684C12.5425 15.2149 12.4254 15.1352 12.327 15.0342C12.2287 14.9332 12.1512 14.8129 12.0991 14.6804C12.0471 14.5479 12.0215 14.406 12.0239 14.2632C12.0264 14.1204 12.0568 13.9795 12.1134 13.849C12.17 13.7185 12.2516 13.6011 12.3533 13.5037L15.7635 10.0001L12.3533 6.49657C12.1594 6.2971 12.0505 6.02671 12.0505 5.7448C12.0505 5.46288 12.1594 5.19249 12.3533 4.99302Z"
    fill="currentColor" />
  <path fill-rule="evenodd" clip-rule="evenodd"
    d="M9.50388 8.08031e-08C8.71938 -0.000140397 7.9451 0.182888 7.23953 0.53526C6.53397 0.887631 5.91557 1.40013 5.43106 2.03404L0.516068 8.46667C0.181735 8.90396 0 9.44393 0 10C0 10.5561 0.181735 11.096 0.516068 11.5333L5.43106 17.966C5.91557 18.5999 6.53397 19.1124 7.23953 19.4647C7.9451 19.8171 8.71938 20.0001 9.50388 20H24.2033C25.2103 20 26.176 19.589 26.888 18.8575C27.6 18.126 28 17.1338 28 16.0993V3.90071C28 2.86618 27.6 1.87402 26.888 1.14249C26.176 0.410967 25.2103 8.08031e-08 24.2033 8.08031e-08H9.50388ZM7.06019 3.34752C7.35095 2.96727 7.72201 2.65988 8.14535 2.44856C8.56868 2.23724 9.03322 2.12751 9.50388 2.12766H24.2033C25.1559 2.12766 25.9291 2.92199 25.9291 3.90071V16.0993C25.9291 17.078 25.1559 17.8723 24.2033 17.8723H9.50388C9.03322 17.8725 8.56868 17.7628 8.14535 17.5514C7.72201 17.3401 7.35095 17.0327 7.06019 16.6525L2.14382 10.2184C2.096 10.156 2.07001 10.0788 2.07001 9.99929C2.07001 9.91981 2.096 9.84263 2.14382 9.78014L7.06019 3.34752Z"
    fill="currentColor" />
</svg>