<svg width="18" height="20" viewBox="0 0 18 20" fill="none" xmlns="http://www.w3.org/2000/svg">
<path fill-rule="evenodd" clip-rule="evenodd" d="M9 1.53846C6.01407 1.53846 3.59482 3.94969 3.59482 6.92308V11.0256C3.59482 12.2701 3.0291 13.4477 2.05477 14.2276L1.737 14.482C1.737 14.482 1.73701 14.482 1.737 14.482C1.36321 14.7812 1.57403 15.3846 2.05636 15.3846H15.9436C16.426 15.3846 16.6368 14.7812 16.263 14.482C16.263 14.482 16.263 14.482 16.263 14.482L15.9452 14.2276C14.9727 13.4481 14.4052 12.2705 14.4052 11.0256V6.92308C14.4052 3.94969 11.9859 1.53846 9 1.53846ZM17.2286 13.2822C18.7408 14.4927 17.8801 16.9231 15.9436 16.9231H2.05636C0.119945 16.9231 -0.7408 14.4927 0.771446 13.2822L1.08922 13.0278C1.6986 12.54 2.05225 11.8038 2.05225 11.0256V6.92308C2.05225 3.09852 5.16364 0 9 0C12.8364 0 15.9478 3.09852 15.9478 6.92308V11.0256C15.9478 11.8032 16.3019 12.5396 16.9108 13.0278L17.2286 13.2822ZM6.68616 19.2308C6.68616 18.8059 7.03148 18.4615 7.45745 18.4615H10.5426C10.9686 18.4615 11.3139 18.8059 11.3139 19.2308C11.3139 19.6556 10.9686 20 10.5426 20H7.45745C7.03148 20 6.68616 19.6556 6.68616 19.2308Z" fill="#028780"/>
</svg>
