<svg width="24" height="20" viewBox="0 0 24 20" fill="none" xmlns="http://www.w3.org/2000/svg">
  <path fill-rule="evenodd" clip-rule="evenodd"
    d="M9.60309 15.6701C9.99534 15.6701 10.3133 15.9898 10.3133 16.3841V16.8794C10.3133 17.3283 10.4907 17.7588 10.8064 18.0762C11.1222 18.3937 11.5504 18.572 11.9969 18.572H11.9989C12.4457 18.5722 12.8745 18.3939 13.1906 18.0764C13.5066 17.759 13.6842 17.3284 13.6845 16.8794V16.8794V16.3841C13.6845 15.9898 14.0024 15.6701 14.3947 15.6701C14.7869 15.6701 15.1049 15.9898 15.1049 16.3841V16.8794C15.1046 17.7073 14.7771 18.5014 14.1946 19.0866C13.6121 19.6717 12.8223 20.0003 11.9989 20V20H11.9969C11.1737 20 10.3841 19.6712 9.80202 19.086C9.21989 18.5008 8.89286 17.707 8.89286 16.8794V16.3841C8.89286 15.9898 9.21084 15.6701 9.60309 15.6701Z"
    fill="currentColor" />
  <path fill-rule="evenodd" clip-rule="evenodd"
    d="M11.9997 2.45988C9.20359 2.45988 6.9369 4.73862 6.9369 7.54959V11.4007C6.9369 11.5901 6.862 11.7718 6.7287 11.9058L5.41701 13.2234V13.2234C5.15857 13.484 5.01293 13.8372 5.01256 14.2051C5.01271 14.9074 5.57906 15.4767 6.27767 15.4767H17.7217C18.4202 15.4767 18.9865 14.9076 18.9868 14.2054M3.5921 14.2049C3.5921 15.6959 4.79447 16.9047 6.27767 16.9047H17.7217C19.2049 16.9047 20.4073 15.6959 20.4073 14.2049C20.4067 13.4588 20.112 12.7428 19.5879 12.2148L18.4829 11.1048V7.54959C18.4829 3.94995 15.5803 1.03186 11.9997 1.03186C8.4191 1.03186 5.51644 3.94995 5.51644 7.54959V11.1048L4.41154 12.2148C3.88735 12.7428 3.59269 13.4588 3.5921 14.2049ZM18.9868 14.2054C18.9865 13.8374 18.8412 13.4845 18.5828 13.2239V13.2239L17.2707 11.9058C17.1374 11.7718 17.0625 11.5901 17.0625 11.4007V7.54959C17.0625 4.73862 14.7958 2.45988 11.9997 2.45988"
    fill="currentColor" />
  <path fill-rule="evenodd" clip-rule="evenodd"
    d="M22.8761 0.318028C23.0937 0.646137 23.0055 1.08944 22.6791 1.30818L20.6265 2.68385C20.3001 2.90259 19.8591 2.81392 19.6415 2.48581C19.424 2.1577 19.5122 1.7144 19.8385 1.49566L21.8912 0.11999C22.2175 -0.0987453 22.6585 -0.0100806 22.8761 0.318028Z"
    fill="currentColor" />
  <path fill-rule="evenodd" clip-rule="evenodd"
    d="M20.5488 6.90473C20.5488 6.51039 20.8668 6.19072 21.259 6.19072H23.2898C23.682 6.19072 24 6.51039 24 6.90473C24 7.29906 23.682 7.61873 23.2898 7.61873H21.259C20.8668 7.61873 20.5488 7.29906 20.5488 6.90473Z"
    fill="currentColor" />
  <path fill-rule="evenodd" clip-rule="evenodd"
    d="M1.12373 0.318039C1.34131 -0.0100697 1.78227 -0.0987344 2.10864 0.120001L4.16128 1.49568C4.48765 1.71441 4.57584 2.15772 4.35827 2.48582C4.14069 2.81393 3.69973 2.9026 3.37336 2.68386L1.32072 1.30819C0.994352 1.08945 0.906156 0.646148 1.12373 0.318039Z"
    fill="currentColor" />
  <path fill-rule="evenodd" clip-rule="evenodd"
    d="M0 6.90474C0 6.5104 0.317981 6.19073 0.71023 6.19073H2.741C3.13325 6.19073 3.45123 6.5104 3.45123 6.90474C3.45123 7.29907 3.13325 7.61874 2.741 7.61874H0.71023C0.317981 7.61874 0 7.29907 0 6.90474Z"
    fill="currentColor" />
  <path fill-rule="evenodd" clip-rule="evenodd"
    d="M14.2427 8.24944C14.5201 8.5282 14.5202 8.98029 14.2429 9.2592L12.0685 11.4463C11.7913 11.7252 11.3416 11.7254 11.0642 11.4467L9.75769 10.1344C9.48021 9.85569 9.48001 9.40361 9.75725 9.12465C10.0345 8.84569 10.4842 8.84549 10.7617 9.1242L11.5658 9.93193L13.2383 8.24971C13.5155 7.9708 13.9652 7.97068 14.2427 8.24944Z"
    fill="currentColor" />
</svg>