<svg width="22" height="20" viewBox="0 0 22 20" fill="none" xmlns="http://www.w3.org/2000/svg">
  <path fill-rule="evenodd" clip-rule="evenodd"
    d="M4.18979 7.34509C3.99693 7.34509 3.84059 7.50357 3.84059 7.69907V18.407H9.07868V7.69907C9.07868 7.50357 8.92234 7.34509 8.72948 7.34509H4.18979ZM2.26916 7.69907C2.26916 6.62383 3.12906 5.75217 4.18979 5.75217H8.72948C9.79021 5.75217 10.6501 6.62383 10.6501 7.69907V19.2035C10.6501 19.6434 10.2983 20 9.8644 20H3.05487C2.62094 20 2.26916 19.6434 2.26916 19.2035V7.69907Z"
    fill="currentColor" />
  <path fill-rule="evenodd" clip-rule="evenodd"
    d="M10.9993 1.59292C10.8065 1.59292 10.6501 1.7514 10.6501 1.9469V18.4071H18.1581V1.9469C18.1581 1.7514 18.0017 1.59292 17.8088 1.59292H10.9993ZM9.07868 1.9469C9.07868 0.871658 9.93858 0 10.9993 0H17.8088C18.8696 0 19.7295 0.871658 19.7295 1.9469V19.2035C19.7295 19.6434 19.3777 20 18.9438 20L9.8644 20C9.43046 20 9.07868 19.6434 9.07868 19.2035V1.9469Z"
    fill="currentColor" />
  <path fill-rule="evenodd" clip-rule="evenodd"
    d="M0 19.2035C0 18.7636 0.351776 18.407 0.785714 18.407H21.2143C21.6482 18.407 22 18.7636 22 19.2035C22 19.6434 21.6482 20 21.2143 20H0.785714C0.351776 20 0 19.6434 0 19.2035Z"
    fill="currentColor" />
</svg>