<svg width="22" height="18" viewBox="0 0 22 18" fill="none" xmlns="http://www.w3.org/2000/svg">
<path fill-rule="evenodd" clip-rule="evenodd" d="M9.67036 1.52113C9.27674 1.52113 8.89925 1.67248 8.62092 1.94191L7.34831 3.17378C6.98812 3.52243 6.4996 3.71831 5.99023 3.71831H3.05556C2.23589 3.71831 1.57143 4.36151 1.57143 5.15493V15.0423C1.57143 15.8357 2.23589 16.4789 3.05556 16.4789H18.9444C19.7641 16.4789 20.4286 15.8357 20.4286 15.0423V5.15493C20.4286 4.36151 19.7641 3.71831 18.9444 3.71831H16.0098C15.5004 3.71831 15.0119 3.52244 14.6517 3.17378L13.3791 1.94191C13.1008 1.67249 12.7233 1.52113 12.3296 1.52113H9.67036ZM7.50975 0.866309C8.08278 0.31162 8.85998 -1.14844e-06 9.67036 0H12.3296C13.14 -1.14844e-06 13.9172 0.31162 14.4903 0.866309L15.7629 2.09818C15.8283 2.16157 15.9172 2.19718 16.0098 2.19718H18.9444C20.632 2.19718 22 3.52141 22 5.15493V15.0423C22 16.6758 20.632 18 18.9444 18H3.05556C1.36802 18 0 16.6758 0 15.0423V5.15493C0 3.52141 1.36802 2.19718 3.05556 2.19718H5.99022C6.08283 2.19718 6.17166 2.16157 6.23714 2.09818L7.50975 0.866309Z" fill="#018780"/>
<path fill-rule="evenodd" clip-rule="evenodd" d="M10.9993 5.91545C8.92606 5.91545 7.24535 7.54236 7.24535 9.54925C7.24535 11.5561 8.92606 13.1831 10.9993 13.1831C13.0726 13.1831 14.7533 11.5561 14.7533 9.54925C14.7533 7.54236 13.0726 5.91545 10.9993 5.91545ZM5.67392 9.54925C5.67392 6.70227 8.05818 4.39432 10.9993 4.39432C13.9405 4.39432 16.3247 6.70227 16.3247 9.54925C16.3247 12.3962 13.9405 14.7042 10.9993 14.7042C8.05818 14.7042 5.67392 12.3962 5.67392 9.54925Z" fill="#018780"/>
<path fill-rule="evenodd" clip-rule="evenodd" d="M18.6527 6.2547C18.653 6.03805 18.5642 5.83019 18.406 5.67698C18.2477 5.52377 18.033 5.43781 17.8092 5.43807C17.3442 5.43861 16.9676 5.80373 16.9677 6.25383C16.9679 6.70394 17.3448 7.06881 17.8098 7.06905C18.2747 7.06929 18.652 6.70481 18.6527 6.2547Z" fill="#018780"/>
</svg>
