<svg width="24" height="24" viewBox="0 0 24 24" fill="none" xmlns="http://www.w3.org/2000/svg">
  <path
    d="M0 12C0 5.37258 5.37258 0 12 0C18.6274 0 24 5.37258 24 12C24 18.6274 18.6274 24 12 24C5.37258 24 0 18.6274 0 12Z"
    fill="currentColor" />
  <path
    d="M7.13807 12.1953C6.87772 11.9349 6.45561 11.9349 6.19526 12.1953C5.93491 12.4556 5.93491 12.8777 6.19526 13.1381L9.5286 16.4714C9.78895 16.7318 10.2111 16.7318 10.4714 16.4714L17.8047 9.13807C18.0651 8.87772 18.0651 8.45561 17.8047 8.19526C17.5444 7.93491 17.1223 7.93491 16.8619 8.19526L10 15.0572L7.13807 12.1953Z"
    fill="white" />
</svg>