<svg width="24" height="24" viewBox="0 0 24 24" fill="none" xmlns="http://www.w3.org/2000/svg">
  <path
    d="M0 12C0 5.37258 5.37258 0 12 0C18.6274 0 24 5.37258 24 12C24 18.6274 18.6274 24 12 24C5.37258 24 0 18.6274 0 12Z"
    fill="currentColor" />
  <path fill-rule="evenodd" clip-rule="evenodd"
    d="M10.2177 8.34467C9.92482 8.63756 9.92482 9.11244 10.2177 9.40533L12.8124 12L10.2177 14.5947C9.92482 14.8876 9.92482 15.3624 10.2177 15.6553C10.5106 15.9482 10.9855 15.9482 11.2784 15.6553L14.4034 12.5303C14.6963 12.2374 14.6963 11.7626 14.4034 11.4697L11.2784 8.34467C10.9855 8.05178 10.5106 8.05178 10.2177 8.34467Z"
    fill="white" />
</svg>