<svg width="25" height="20" viewBox="0 0 25 20" fill="none" xmlns="http://www.w3.org/2000/svg">
  <path fill-rule="evenodd" clip-rule="evenodd"
    d="M12.5 1.85567C10.7405 1.85568 9.06762 2.60505 7.9148 3.90961C6.76199 5.21416 6.24272 6.94549 6.49155 8.65497L6.5032 8.73542C6.54175 9.0016 6.46075 9.27111 6.28119 9.47415C6.10164 9.6772 5.84117 9.79382 5.56723 9.79382C3.53677 9.79382 1.89076 11.4093 1.89076 13.4021C1.89076 15.3948 3.53677 17.0103 5.56723 17.0103H7.87815C8.40027 17.0103 8.82353 17.4257 8.82353 17.9381C8.82353 18.4506 8.40027 18.866 7.87815 18.866H5.56723C2.49253 18.866 0 16.4197 0 13.4021C0 10.7279 1.95745 8.50238 4.54284 8.03044C4.48748 6.08635 5.17383 4.17913 6.48642 2.69377C7.99836 0.982831 10.1924 1.58536e-05 12.5 0C14.8076 1.58536e-05 17.0016 0.982831 18.5136 2.69377C19.8262 4.17913 20.5125 6.08636 20.4572 8.03045C23.0425 8.50239 25 10.7279 25 13.4021C25 16.4197 22.5075 18.866 19.4328 18.866H17.1218C16.5997 18.866 16.1765 18.4506 16.1765 17.9381C16.1765 17.4257 16.5997 17.0103 17.1218 17.0103H19.4328C21.4632 17.0103 23.1092 15.3948 23.1092 13.4021C23.1092 11.4093 21.4632 9.79382 19.4328 9.79382C19.1588 9.79382 18.8984 9.6772 18.7188 9.47415C18.5392 9.27111 18.4583 9.0016 18.4968 8.73542L18.5084 8.65563C18.7572 6.94615 18.238 5.21416 17.0852 3.90961C15.9324 2.60505 14.2595 1.85568 12.5 1.85567ZM8.36513 12.746L11.8315 9.34392C12.2007 8.98158 12.7993 8.98158 13.1685 9.34392L16.6349 12.746C17.0041 13.1083 17.0041 13.6958 16.6349 14.0581C16.2657 14.4205 15.6671 14.4205 15.2979 14.0581L13.4454 12.24V19.0722C13.4454 19.5846 13.0221 20 12.5 20C11.9779 20 11.5546 19.5846 11.5546 19.0722V12.24L9.7021 14.0581C9.3329 14.4205 8.73432 14.4205 8.36513 14.0581C7.99594 13.6958 7.99594 13.1083 8.36513 12.746Z"
    fill="currentColor" />
</svg>