<svg width="20" height="20" viewBox="0 0 20 20" fill="none" xmlns="http://www.w3.org/2000/svg">
  <path
    d="M10 0L12.7617 1.916L16.1805 1.91L17.2304 5.004L20 6.91L18.9375 10L20 13.09L17.2304 14.996L16.1805 18.09L12.7617 18.084L10 20L7.23832 18.084L3.81946 18.09L2.76957 14.996L0 13.09L1.06251 10L0 6.91L2.76957 5.004L3.81946 1.91L7.23832 1.916L10 0Z"
    fill="currentColor" />
  <path fill-rule="evenodd" clip-rule="evenodd"
    d="M15.0641 6.68411C15.5379 7.13471 15.5379 7.86529 15.0641 8.31589L9.80675 13.3159C9.33295 13.7665 8.56478 13.7665 8.09098 13.3159L5.4623 10.8159C4.98851 10.3653 4.98851 9.63471 5.4623 9.18411C5.9361 8.7335 6.70428 8.7335 7.17808 9.18411L8.94887 10.8682L13.3483 6.68411C13.8221 6.2335 14.5903 6.2335 15.0641 6.68411Z"
    fill="#00D656" />
</svg>