<svg width="23" height="23" viewBox="0 0 23 23" fill="none" xmlns="http://www.w3.org/2000/svg">
  <path fill-rule="evenodd" clip-rule="evenodd"
    d="M17.354 2.42283C17.1724 2.24122 16.8792 2.24122 16.6976 2.42283L13.5581 5.56233C13.3765 5.74393 13.3765 6.03714 13.5581 6.21875L16.6976 9.35825C16.8792 9.53986 17.1724 9.53986 17.354 9.35825L20.4929 6.21936V6.21936C20.674 6.03765 20.6742 5.74359 20.4931 5.56189V5.56189L17.354 2.42283ZM21.5548 7.2788C22.3203 6.51155 22.3203 5.26953 21.5548 4.50227L18.4147 1.36217C17.6473 0.594773 16.4043 0.594773 15.6369 1.36217L12.4974 4.50167C11.73 5.26906 11.73 6.51202 12.4974 7.27941L15.6369 10.4189C16.4043 11.1863 17.6473 11.1863 18.4147 10.4189L21.5548 7.2788Z"
    fill="currentColor" />
  <path fill-rule="evenodd" clip-rule="evenodd"
    d="M2.67731 15.5027C2.4205 15.5027 2.21289 15.7101 2.21289 15.9671V20.4066C2.21289 20.663 2.42094 20.871 2.67731 20.871H7.11681C7.37318 20.871 7.58122 20.663 7.58122 20.4066V15.9671C7.58122 15.7107 7.37318 15.5027 7.11681 15.5027H2.67731ZM2.67731 14.0027C1.59295 14.0027 0.712891 14.8808 0.712891 15.9671V20.4066C0.712891 21.4914 1.59251 22.371 2.67731 22.371H7.11681C8.2016 22.371 9.08122 21.4914 9.08122 20.4066V15.9671C9.08122 14.8823 8.2016 14.0027 7.11681 14.0027H2.67731Z"
    fill="currentColor" />
  <path fill-rule="evenodd" clip-rule="evenodd"
    d="M4.5 3.38462C4.09088 3.38462 3.68577 3.4652 3.30779 3.62176C2.92982 3.77832 2.58638 4.0078 2.29709 4.29709C2.0078 4.58638 1.77832 4.92982 1.62176 5.30779C1.4652 5.68577 1.38462 6.09088 1.38462 6.5C1.38462 6.90912 1.4652 7.31423 1.62176 7.69221C1.77832 8.07018 2.0078 8.41362 2.29709 8.70291C2.58638 8.9922 2.92982 9.22168 3.30779 9.37824C3.68577 9.5348 4.09088 9.61539 4.5 9.61539C5.32625 9.61539 6.11866 9.28716 6.70291 8.70291C7.28716 8.11866 7.61539 7.32625 7.61539 6.5C7.61539 5.67375 7.28716 4.88134 6.70291 4.29709C6.11866 3.71284 5.32625 3.38462 4.5 3.38462ZM0 6.5C0 5.30653 0.474106 4.16193 1.31802 3.31802C2.16193 2.47411 3.30653 2 4.5 2C5.69347 2 6.83807 2.47411 7.68198 3.31802C8.52589 4.16193 9 5.30653 9 6.5C9 7.69347 8.52589 8.83807 7.68198 9.68198C6.83807 10.5259 5.69347 11 4.5 11C3.30653 11 2.16193 10.5259 1.31802 9.68198C0.474106 8.83807 0 7.69347 0 6.5Z"
    fill="currentColor" />
  <path fill-rule="evenodd" clip-rule="evenodd"
    d="M17.5 14.3846C17.0909 14.3846 16.6858 14.4652 16.3078 14.6218C15.9298 14.7783 15.5864 15.0078 15.2971 15.2971C15.0078 15.5864 14.7783 15.9298 14.6218 16.3078C14.4652 16.6858 14.3846 17.0909 14.3846 17.5C14.3846 17.9091 14.4652 18.3142 14.6218 18.6922C14.7783 19.0702 15.0078 19.4136 15.2971 19.7029C15.5864 19.9922 15.9298 20.2217 16.3078 20.3782C16.6858 20.5348 17.0909 20.6154 17.5 20.6154C18.3263 20.6154 19.1187 20.2872 19.7029 19.7029C20.2872 19.1187 20.6154 18.3263 20.6154 17.5C20.6154 16.6737 20.2872 15.8813 19.7029 15.2971C19.1187 14.7128 18.3263 14.3846 17.5 14.3846ZM13 17.5C13 16.3065 13.4741 15.1619 14.318 14.318C15.1619 13.4741 16.3065 13 17.5 13C18.6935 13 19.8381 13.4741 20.682 14.318C21.5259 15.1619 22 16.3065 22 17.5C22 18.6935 21.5259 19.8381 20.682 20.682C19.8381 21.5259 18.6935 22 17.5 22C16.3065 22 15.1619 21.5259 14.318 20.682C13.4741 19.8381 13 18.6935 13 17.5Z"
    fill="currentColor" />
</svg>