<svg width="18" height="20" viewBox="0 0 18 20" fill="none" xmlns="http://www.w3.org/2000/svg">
  <path fill-rule="evenodd" clip-rule="evenodd"
    d="M0 2.64148C0 1.18221 1.17975 0 2.63598 0H9.65792C10.3568 0 11.0275 0.278723 11.5216 0.773881L14.2905 3.54849C14.7846 4.04365 15.0627 4.71575 15.0627 5.41609V10.4718C15.0627 10.8469 14.7593 11.151 14.3849 11.151C14.0106 11.151 13.7071 10.8469 13.7071 10.4718V5.41609C13.7071 5.07645 13.5721 4.74976 13.3319 4.50908L10.563 1.73447C10.3229 1.49379 9.99686 1.35848 9.65792 1.35848H2.63598C1.92845 1.35848 1.35565 1.93247 1.35565 2.64148V16.3772C1.35565 17.0862 1.92845 17.6602 2.63598 17.6602H10.3394C10.7137 17.6602 11.0172 17.9643 11.0172 18.3394C11.0172 18.7146 10.7137 19.0187 10.3394 19.0187H2.63598C1.17975 19.0187 0 17.8365 0 16.3772V2.64148Z"
    fill="currentColor" />
  <path fill-rule="evenodd" clip-rule="evenodd"
    d="M9.48952 0C9.86387 0 10.1673 0.304105 10.1673 0.679238V4.60372C10.1673 4.77017 10.3025 4.90561 10.4686 4.90561H14.3849C14.7593 4.90561 15.0627 5.20971 15.0627 5.58484C15.0627 5.95998 14.7593 6.26408 14.3849 6.26408H10.4686C9.5538 6.26408 8.8117 5.52043 8.8117 4.60372V0.679238C8.8117 0.304105 9.11517 0 9.48952 0Z"
    fill="currentColor" />
  <path fill-rule="evenodd" clip-rule="evenodd"
    d="M14.4295 13.1723C14.6942 13.4376 14.6942 13.8676 14.4295 14.1329L12.5252 16.0412C12.2605 16.3064 11.8313 16.3064 11.5666 16.0412L10.424 14.8962C10.1593 14.631 10.1593 14.2009 10.424 13.9356C10.6887 13.6704 11.1179 13.6704 11.3826 13.9356L12.0459 14.6003L13.4709 13.1723C13.7356 12.9071 14.1648 12.9071 14.4295 13.1723Z"
    fill="currentColor" />
  <path fill-rule="evenodd" clip-rule="evenodd"
    d="M11.2191 9.24044C11.932 8.6943 12.9224 8.69434 13.6353 9.24057L14.342 9.78234L15.2243 9.9006C16.1156 10.0198 16.8149 10.7226 16.9335 11.6144L17.0507 12.4959L17.5912 13.2048V13.2048C18.1362 13.9192 18.1363 14.9118 17.5912 15.6262L17.0505 16.3349L16.9326 17.2185V17.2185C16.8136 18.1117 16.1123 18.8124 15.2224 18.9313L14.3428 19.0486L13.6353 19.5904V19.5904C12.9223 20.1365 11.9318 20.1366 11.2189 19.5904L10.5122 19.0486L9.62987 18.9303V18.9303C8.7386 18.8111 8.03932 18.1083 7.92066 17.2166L7.80348 16.335L7.26285 15.626C6.71847 14.911 6.71765 13.9195 7.26298 13.2048V13.2048L7.80369 12.496L7.92164 11.6124V11.6124C8.04061 10.7193 8.74191 10.0185 9.63183 9.89962L10.5114 9.78232L11.2191 9.24044V9.24044ZM11.2155 10.9528C11.1202 11.0328 11.0019 11.0874 10.8702 11.1049L9.811 11.2462V11.2462C9.52621 11.2843 9.30319 11.5079 9.2654 11.7919L9.12339 12.8558C9.10639 12.9831 9.05503 13.0979 8.97967 13.1916L8.974 13.199L8.93323 13.2522L8.33991 14.0299C8.16664 14.257 8.16607 14.5726 8.3402 14.8014V14.8014L8.99014 15.6538C9.06189 15.7479 9.10784 15.8591 9.12344 15.9765L9.26442 17.037V17.037C9.30243 17.3225 9.52559 17.5459 9.80904 17.5838L10.8706 17.7261C10.9878 17.7418 11.0988 17.7879 11.1926 17.8598L12.0423 18.5112V18.5112C12.2692 18.685 12.585 18.685 12.8119 18.5112L13.6387 17.8781C13.734 17.7981 13.8523 17.7436 13.984 17.726L15.0432 17.5847C15.3281 17.5467 15.551 17.3231 15.5888 17.039L15.7308 15.9752C15.7478 15.8478 15.7992 15.733 15.8745 15.6393L15.8802 15.632L15.921 15.5787L16.5143 14.8011C16.6878 14.5736 16.6878 14.2573 16.5143 14.0299L15.864 13.1771C15.7923 13.083 15.7464 12.9718 15.7308 12.8544L15.5898 11.7939V11.7939C15.5518 11.5085 15.3286 11.285 15.0452 11.2472L13.9835 11.1049C13.8664 11.0892 13.7554 11.0431 13.6616 10.9711L12.8119 10.3197V10.3197C12.5849 10.146 12.2692 10.1459 12.0423 10.3197L11.2155 10.9528Z"
    fill="currentColor" />
</svg>