<svg width="18" height="18" viewBox="0 0 18 18" fill="none" xmlns="http://www.w3.org/2000/svg">
  <path
    d="M9 0C13.9707 0 18 4.02881 18 8.9989C18 13.969 13.9707 17.9978 9 17.9978C7.54401 17.9997 6.10946 17.647 4.82041 16.9701L0.959408 17.9753C0.830398 18.0089 0.694847 18.0082 0.566189 17.9733C0.437532 17.9384 0.320234 17.8704 0.225922 17.7762C0.131609 17.682 0.0635565 17.5648 0.0285081 17.4362C-0.00654026 17.3076 -0.00736746 17.172 0.0261085 17.043L1.03051 13.1834C0.351728 11.8931 -0.00199769 10.4568 8.48616e-06 8.9989C8.48616e-06 4.02881 4.02931 0 9 0ZM10.1268 9.89879H6.07501L5.98321 9.90509C5.82164 9.92732 5.6736 10.0073 5.56643 10.1302C5.45926 10.2531 5.40021 10.4106 5.40021 10.5737C5.40021 10.7368 5.45926 10.8943 5.56643 11.0172C5.6736 11.1401 5.82164 11.2201 5.98321 11.2423L6.07501 11.2486H10.1268L10.2177 11.2423C10.3793 11.2201 10.5273 11.1401 10.6345 11.0172C10.7417 10.8943 10.8007 10.7368 10.8007 10.5737C10.8007 10.4106 10.7417 10.2531 10.6345 10.1302C10.5273 10.0073 10.3793 9.92732 10.2177 9.90509L10.1268 9.89879ZM11.925 6.74918H6.07501L5.98321 6.75548C5.82164 6.7777 5.6736 6.85766 5.56643 6.98057C5.45926 7.10348 5.40021 7.26103 5.40021 7.42409C5.40021 7.58716 5.45926 7.74471 5.56643 7.86762C5.6736 7.99053 5.82164 8.07049 5.98321 8.09271L6.07501 8.09901H11.925L12.0168 8.09271C12.1784 8.07049 12.3264 7.99053 12.4336 7.86762C12.5408 7.74471 12.5998 7.58716 12.5998 7.42409C12.5998 7.26103 12.5408 7.10348 12.4336 6.98057C12.3264 6.85766 12.1784 6.7777 12.0168 6.75548L11.925 6.74918Z"
    fill="currentColor" />
</svg>