<svg width="25" height="25" viewBox="0 0 25 25" fill="none" xmlns="http://www.w3.org/2000/svg">
  <path fill-rule="evenodd" clip-rule="evenodd"
    d="M3.34967 1.47059C2.31132 1.47059 1.47059 2.31132 1.47059 3.34967V9.88562C1.47059 10.924 2.31132 11.7647 3.34967 11.7647H6.94444C7.9828 11.7647 8.82353 10.924 8.82353 9.88562V3.34967C8.82353 2.31132 7.9828 1.47059 6.94444 1.47059H3.34967ZM0 3.34967C0 1.49914 1.49914 0 3.34967 0H6.94444C8.79498 0 10.2941 1.49914 10.2941 3.34967V9.88562C10.2941 11.7362 8.79498 13.2353 6.94444 13.2353H3.34967C1.49914 13.2353 0 11.7362 0 9.88562V3.34967ZM18.0556 1.47059C17.0172 1.47059 16.1765 2.31132 16.1765 3.34967V4.00327C16.1765 5.04162 17.0172 5.88235 18.0556 5.88235H21.6503C22.6887 5.88235 23.5294 5.04162 23.5294 4.00327V3.34967C23.5294 2.31132 22.6887 1.47059 21.6503 1.47059H18.0556ZM14.7059 3.34967C14.7059 1.49914 16.205 0 18.0556 0H21.6503C23.5009 0 25 1.49914 25 3.34967V4.00327C25 5.8538 23.5009 7.35294 21.6503 7.35294H18.0556C16.205 7.35294 14.7059 5.8538 14.7059 4.00327V3.34967ZM18.0556 13.2353C17.0172 13.2353 16.1765 14.076 16.1765 15.1144V21.6503C16.1765 22.6887 17.0172 23.5294 18.0556 23.5294H21.6503C22.6887 23.5294 23.5294 22.6887 23.5294 21.6503V15.1144C23.5294 14.076 22.6887 13.2353 21.6503 13.2353H18.0556ZM14.7059 15.1144C14.7059 13.2638 16.205 11.7647 18.0556 11.7647H21.6503C23.5009 11.7647 25 13.2638 25 15.1144V21.6503C25 23.5009 23.5009 25 21.6503 25H18.0556C16.205 25 14.7059 23.5009 14.7059 21.6503V15.1144ZM3.34967 19.1176C2.31132 19.1176 1.47059 19.9584 1.47059 20.9967V21.6503C1.47059 22.6887 2.31132 23.5294 3.34967 23.5294H6.94444C7.9828 23.5294 8.82353 22.6887 8.82353 21.6503V20.9967C8.82353 19.9584 7.9828 19.1176 6.94444 19.1176H3.34967ZM0 20.9967C0 19.1462 1.49914 17.6471 3.34967 17.6471H6.94444C8.79498 17.6471 10.2941 19.1462 10.2941 20.9967V21.6503C10.2941 23.5009 8.79498 25 6.94444 25H3.34967C1.49914 25 0 23.5009 0 21.6503V20.9967Z"
    fill="currentColor" />
</svg>