<svg width="20" height="21" viewBox="0 0 20 21" fill="none" xmlns="http://www.w3.org/2000/svg">
  <path fill-rule="evenodd" clip-rule="evenodd"
    d="M19.2146 10C19.6483 10 20 10.3517 20 10.7854C20 16.4268 15.4268 21 9.78543 21C9.35165 21 9 20.6483 9 20.2146C9 19.7808 9.35165 19.4291 9.78543 19.4291C14.5592 19.4291 18.4291 15.5592 18.4291 10.7854C18.4291 10.3517 18.7808 10 19.2146 10Z"
    fill="currentColor" />
  <path fill-rule="evenodd" clip-rule="evenodd"
    d="M10.2146 1.57087C5.44078 1.57087 1.57087 5.44078 1.57087 10.2146C1.57087 10.6483 1.21922 11 0.785434 11C0.351651 11 0 10.6483 0 10.2146C0 4.57322 4.57322 0 10.2146 0C10.6483 0 11 0.351651 11 0.785434C11 1.21922 10.6483 1.57087 10.2146 1.57087Z"
    fill="currentColor" />
  <path fill-rule="evenodd" clip-rule="evenodd"
    d="M2.73634 8.03549C3.40311 7.92564 4.08906 8.07322 4.63727 8.44447C5.18547 8.81571 5.54904 9.37887 5.6448 10.0051L5.97459 12.162C6.16532 13.4095 5.26243 14.5734 3.93421 14.7922C3.93421 14.7922 3.93421 14.7922 3.93421 14.7922L2.83559 14.9732C1.90415 15.1235 0.991096 14.6298 0.666389 13.8006C0.225806 12.6884 0.000169208 11.5119 7.55426e-09 10.3259C-3.74601e-05 10.0632 0.139305 9.83082 0.352732 9.68988C0.226933 9.57899 0.136878 9.43068 0.104539 9.25931C0.0246584 8.83603 0.327163 8.43238 0.780202 8.35775L2.73634 8.03549C2.73634 8.03549 2.73634 8.03549 2.73634 8.03549ZM1.47015 9.82459C1.59228 9.95998 1.66588 10.1348 1.66591 10.3257C1.66605 11.3279 1.85682 12.3221 2.22933 13.2618L2.23077 13.2655C2.27865 13.3881 2.41343 13.4613 2.55112 13.4395C2.55144 13.4395 2.5508 13.4396 2.55112 13.4395L3.64491 13.2593C4.0879 13.1863 4.38904 12.7982 4.32543 12.3821M4.32543 12.3821L3.99564 10.2252C3.99564 10.2252 3.99564 10.2252 3.99564 10.2252C3.9637 10.0164 3.84244 9.82856 3.65961 9.70475C3.47677 9.58093 3.24799 9.53171 3.02561 9.56834L1.47015 9.82459"
    fill="currentColor" />
  <path fill-rule="evenodd" clip-rule="evenodd"
    d="M9 0.785434C9 0.351651 9.35165 0 9.78543 0C15.4268 0 20 4.57322 20 10.2146C20 10.6483 19.6483 11 19.2146 11C18.7808 11 18.4291 10.6483 18.4291 10.2146C18.4291 5.44078 14.5592 1.57087 9.78543 1.57087C9.35165 1.57087 9 1.21922 9 0.785434Z"
    fill="currentColor" />
  <path fill-rule="evenodd" clip-rule="evenodd"
    d="M17.4787 9.56834C17.2933 9.53171 17.1027 9.58093 16.9503 9.70475C16.798 9.82856 16.6969 10.0164 16.6703 10.2252M16.6703 10.2252L16.3955 12.3821C16.3955 12.3821 16.3955 12.3821 16.3955 12.3821C16.3425 12.7982 16.5934 13.1863 16.9626 13.2593L17.8733 13.4394C17.8735 13.4394 17.873 13.4393 17.8733 13.4394C17.988 13.4612 18.1011 13.3881 18.141 13.2655L18.1422 13.2618C18.4526 12.322 18.6116 11.3279 18.6117 10.3257C18.6118 10.1348 18.6731 9.95998 18.7749 9.82459L17.4787 9.56834M19.7061 9.68988C19.8839 9.83082 20 10.0632 20 10.326C19.9999 11.5125 19.8116 12.6897 19.4441 13.8024L18.7932 13.5321L19.4453 13.7987C19.1752 14.6291 18.4138 15.1236 17.637 14.9732L17.6346 14.9727L16.7215 14.7922C16.7215 14.7922 16.7215 14.7922 16.7215 14.7922C15.6146 14.5734 14.8622 13.4095 15.0212 12.162L15.296 10.0051C15.3758 9.37888 15.6788 8.81571 16.1356 8.44447C16.5925 8.07322 17.1641 7.92564 17.7197 8.03549C17.7197 8.03549 17.7197 8.03549 17.7197 8.03549L19.3498 8.35775C19.7274 8.43238 19.9795 8.83603 19.9129 9.25931C19.8859 9.43068 19.8109 9.57899 19.7061 9.68988Z"
    fill="currentColor" />
</svg>