<svg width="21" height="18" viewBox="0 0 21 18" fill="none" xmlns="http://www.w3.org/2000/svg">
  <path
    d="M5.23907 0.0851881C6.16797 -0.0655175 7.12054 -0.0158034 8.02658 0.230666C8.93262 0.477135 9.76901 0.914075 10.4741 1.50928L10.513 1.54226L10.5486 1.51228C11.2216 0.949932 12.0128 0.530699 12.8693 0.282545C13.7259 0.0343901 14.6282 -0.0369798 15.5161 0.0731959L15.7742 0.109173C16.8934 0.293165 17.9394 0.761912 18.8016 1.46578C19.6638 2.16964 20.31 3.08242 20.6718 4.10745C21.0337 5.13249 21.0977 6.23162 20.857 7.28846C20.6164 8.34529 20.0801 9.32049 19.3049 10.1108L19.1159 10.2957L19.0656 10.3366L11.2466 17.7109C11.0661 17.881 10.8271 17.983 10.5737 17.9981C10.3203 18.0131 10.0698 17.9402 9.86854 17.7929L9.76989 17.7109L1.90576 10.2937C1.07266 9.52182 0.480183 8.54546 0.193933 7.47274C-0.0923162 6.40001 -0.0611635 5.27277 0.283941 4.21586C0.629046 3.15896 1.27464 2.21363 2.14921 1.48457C3.02379 0.755505 4.09322 0.271166 5.23907 0.0851881Z"
    fill="currentColor" />
</svg>