<svg width="20" height="18" viewBox="0 0 20 18" fill="none" xmlns="http://www.w3.org/2000/svg">
<path fill-rule="evenodd" clip-rule="evenodd" d="M6.20923 1.54286C3.4894 1.54286 1.53846 4.14116 1.53846 6.69086C1.53846 7.93477 2.02572 9.16787 2.82478 10.3484C3.62313 11.528 4.70407 12.6118 5.81497 13.5397C6.92289 14.465 8.03934 15.2176 8.88923 15.7386C9.31365 15.9988 9.66825 16.1992 9.91793 16.3327C9.94691 16.3482 9.97428 16.3627 10 16.3762C10.0257 16.3627 10.0531 16.3482 10.0821 16.3327C10.3318 16.1992 10.6863 15.9988 11.1108 15.7386C11.9607 15.2176 13.0771 14.465 14.185 13.5397C15.2959 12.6118 16.3769 11.528 17.1752 10.3484C17.9743 9.16787 18.4615 7.93477 18.4615 6.69086C18.4615 4.14116 16.5106 1.54286 13.7908 1.54286C12.2171 1.54286 11.1918 2.32036 10.5847 3.03257C10.4386 3.20403 10.2249 3.30274 10 3.30274C9.77509 3.30274 9.56144 3.20403 9.41529 3.03257C8.80819 2.32036 7.78289 1.54286 6.20923 1.54286ZM0 6.69086C0 3.53198 2.41624 0 6.20923 0C7.91094 0 9.15534 0.679589 10 1.43206C10.8447 0.679589 12.0891 0 13.7908 0C17.5838 0 20 3.53198 20 6.69086C20 8.34391 19.354 9.87651 18.4481 11.2149C17.5415 12.5544 16.3457 13.7429 15.1696 14.7252C13.9905 15.71 12.8095 16.5055 11.9132 17.055C11.4645 17.3301 11.0837 17.5456 10.806 17.6941C10.6678 17.768 10.5513 17.8274 10.4625 17.87C10.4191 17.8907 10.3754 17.9108 10.3358 17.9273C10.3169 17.9352 10.2894 17.9462 10.2584 17.9566C10.2431 17.9618 10.218 17.9698 10.1872 17.9773L10.1868 17.9774C10.1671 17.9822 10.0941 18 10 18C9.9059 18 9.83293 17.9822 9.8132 17.9774L9.8128 17.9773C9.78199 17.9698 9.75688 17.9618 9.74162 17.9566C9.71056 17.9462 9.68305 17.9352 9.66419 17.9273C9.62458 17.9108 9.58091 17.8907 9.53752 17.87C9.44868 17.8274 9.33222 17.768 9.19398 17.6941C8.91628 17.5456 8.53553 17.3301 8.08683 17.055C7.19047 16.5055 6.00955 15.71 4.83042 14.7252C3.65426 13.7429 2.45847 12.5544 1.55186 11.2149C0.645951 9.87651 0 8.34391 0 6.69086Z" fill="#028780"/>
</svg>
