<svg width="25" height="25" viewBox="0 0 25 25" fill="none" xmlns="http://www.w3.org/2000/svg">
  <path fill-rule="evenodd" clip-rule="evenodd"
    d="M16.1237 2.74171C14.0052 1.04688 10.9948 1.04688 8.87633 2.74171L3.40228 7.12098C2.18133 8.09775 1.47059 9.57656 1.47059 11.1401V20.3431C1.47059 22.1029 2.89713 23.5294 4.65686 23.5294H7.84314V17.402C7.84314 15.0105 9.78177 13.0719 12.1732 13.0719H12.8268C15.2182 13.0719 17.1569 15.0105 17.1569 17.402V23.5294H20.3431C22.1029 23.5294 23.5294 22.1029 23.5294 20.3431V11.1401C23.5294 9.57655 22.8187 8.09774 21.5977 7.12097L16.1237 2.74171ZM15.6863 23.5294V17.402C15.6863 15.8227 14.406 14.5425 12.8268 14.5425H12.1732C10.594 14.5425 9.31373 15.8227 9.31373 17.402V23.5294H15.6863ZM4.65686 25C2.08495 25 0 22.9151 0 20.3431V11.1401C-3.68145e-06 9.12983 0.913812 7.2285 2.4836 5.97265L7.95766 1.59338C10.6133 -0.531128 14.3867 -0.531128 17.0423 1.59338L22.5164 5.97264C24.0862 7.22849 25 9.12981 25 11.1401V20.3431C25 22.9151 22.9151 25 20.3431 25H4.65686Z"
    fill="currentColor" />
</svg>