<svg width="16" height="16" viewBox="0 0 16 16" fill="none" xmlns="http://www.w3.org/2000/svg">
  <path fill-rule="evenodd" clip-rule="evenodd"
    d="M9.10689e-09 5.5C9.10689e-09 2.46243 2.46243 0 5.5 0H10.5C13.139 0 15.3439 1.85864 15.8771 4.33829C16.0041 4.48391 16.0327 4.68559 15.9627 4.8564C15.9873 5.06752 16 5.28228 16 5.5V10.5C16 13.5376 13.5376 16 10.5 16H5.5C2.86099 16 0.65609 14.1414 0.122916 11.6617C-0.00414234 11.5161 -0.0326955 11.3144 0.0372566 11.1436C0.0126505 10.9325 9.10689e-09 10.7177 9.10689e-09 10.5V5.5ZM1.0987 11.4417C1.53162 13.4749 3.33771 15 5.5 15H10.5C12.9853 15 15 12.9853 15 10.5V5.87377L11.1987 9.67505C10.3526 10.5212 8.98074 10.5212 8.13461 9.67505L6.32496 7.8654C5.86934 7.40979 5.13066 7.40979 4.67504 7.8654L1.0987 11.4417ZM14.9013 4.55826L10.4916 8.96794C10.036 9.42355 9.29732 9.42355 8.84171 8.96794L7.03206 7.15829C6.18593 6.31216 4.81407 6.31216 3.96794 7.15829L1 10.1262V5.5C1 3.01472 3.01472 1 5.5 1H10.5C12.6623 1 14.4684 2.52507 14.9013 4.55826ZM10.1251 4.66667C10.1248 4.41389 9.91988 4.2085 9.66702 4.20834C9.66682 4.20834 9.66722 4.20834 9.66702 4.20834C9.41428 4.2085 9.20872 4.41326 9.20839 4.66608L9.66657 4.66667L9.70839 4.66673L9.20839 4.66738C9.20872 4.9185 9.412 5.12485 9.66643 5.125C9.66663 5.125 9.66623 5.125 9.66643 5.125C9.91924 5.12484 10.1247 4.91941 10.1251 4.66667ZM9.12506 4.66667C9.12506 4.36766 9.36735 4.1252 9.66637 4.125C9.96708 4.12481 10.208 4.36875 10.2084 4.66608V4.66738C10.208 4.96639 9.96539 5.20853 9.66637 5.20834C9.36735 5.20814 9.12506 4.96568 9.12506 4.66667Z"
    fill="currentColor" />
</svg>