<svg width="18" height="18" viewBox="0 0 18 18" fill="none" xmlns="http://www.w3.org/2000/svg">
  <path fill-rule="evenodd" clip-rule="evenodd"
    d="M9 1.63636C4.93278 1.63636 1.63636 4.93278 1.63636 9C1.63636 13.0672 4.93278 16.3636 9 16.3636C13.0672 16.3636 16.3636 13.0672 16.3636 9C16.3636 4.93278 13.0672 1.63636 9 1.63636ZM0 9C0 4.02904 4.02904 0 9 0C13.971 0 18 4.02904 18 9C18 13.971 13.971 18 9 18C4.02904 18 0 13.971 0 9ZM7.72728 5.59392C7.72467 5.0122 8.19663 4.5455 8.77182 4.5455C9.34792 4.5455 9.81819 5.0115 9.81819 5.59095C9.81819 6.16828 9.35005 6.63641 8.77273 6.63641C8.19639 6.63641 7.72888 6.16988 7.72728 5.59392ZM8.18183 5.59359L7.7273 5.59688C7.72729 5.59589 7.72729 5.59491 7.72728 5.59392C7.72728 5.59293 7.72728 5.59194 7.72728 5.59095H8.18182C8.18182 5.59183 8.18182 5.59271 8.18183 5.59359ZM7.27415 9C7.27415 8.54813 7.64046 8.18182 8.09233 8.18182H9.00142C9.45329 8.18182 9.8196 8.54813 9.8196 9V13.5455C9.8196 13.9973 9.45329 14.3636 9.00142 14.3636C8.54955 14.3636 8.18324 13.9973 8.18324 13.5455V9.81818H8.09233C7.64046 9.81818 7.27415 9.45187 7.27415 9Z"
    fill="currentColor" />
</svg>