<svg width="22" height="20" viewBox="0 0 22 20" fill="none" xmlns="http://www.w3.org/2000/svg">
  <path fill-rule="evenodd" clip-rule="evenodd"
    d="M5.61432 0C6.07186 0 6.44276 0.356585 6.44276 0.796456V4.24776C6.44276 4.68763 6.07186 5.04422 5.61432 5.04422C5.15679 5.04422 4.78588 4.68763 4.78588 4.24776V0.796456C4.78588 0.356585 5.15679 0 5.61432 0Z"
    fill="currentColor" />
  <path fill-rule="evenodd" clip-rule="evenodd"
    d="M16.3848 8.05297C16.7122 8.05297 17.0089 8.23833 17.1418 8.52595L21.9284 18.8799C22.1142 19.2818 21.9259 19.7525 21.5078 19.9312C21.0897 20.1098 20.6001 19.9288 20.4143 19.5268L16.3848 10.8105L12.3553 19.5268C12.1695 19.9288 11.6799 20.1098 11.2618 19.9312C10.8437 19.7525 10.6554 19.2818 10.8412 18.8799L15.6278 8.52595C15.7607 8.23833 16.0574 8.05297 16.3848 8.05297Z"
    fill="currentColor" />
  <path fill-rule="evenodd" clip-rule="evenodd"
    d="M11.8356 16.9026C11.8356 16.4627 12.2065 16.1061 12.664 16.1061H20.1071C20.5646 16.1061 20.9355 16.4627 20.9355 16.9026C20.9355 17.3424 20.5646 17.699 20.1071 17.699H12.664C12.2065 17.699 11.8356 17.3424 11.8356 16.9026Z"
    fill="currentColor" />
  <path fill-rule="evenodd" clip-rule="evenodd"
    d="M0.00123883 4.24776C0.00123883 3.80789 0.372145 3.45131 0.829681 3.45131H10.4028C10.6339 3.45131 10.8545 3.54412 11.0113 3.70732C11.1681 3.87053 11.2469 4.08929 11.2286 4.31078C10.8075 9.41192 6.20008 13.8416 0.893828 14.2452C0.437717 14.2799 0.0387111 13.9526 0.00262316 13.5141C-0.0334647 13.0756 0.307031 12.692 0.763142 12.6573C4.9567 12.3383 8.68763 8.9999 9.45786 5.04422H0.829681C0.372145 5.04422 0.00123883 4.68763 0.00123883 4.24776Z"
    fill="currentColor" />
  <path fill-rule="evenodd" clip-rule="evenodd"
    d="M4.35321 6.90509C4.80933 6.87047 5.20827 7.19789 5.24428 7.6364C5.45394 10.1899 7.81068 12.4557 10.4668 12.6573C10.9229 12.6919 11.2635 13.0754 11.2275 13.5139C11.1915 13.9524 10.7925 14.2799 10.3364 14.2452C6.86811 13.982 3.86631 11.0961 3.59253 7.76175C3.55652 7.32324 3.89709 6.9397 4.35321 6.90509Z"
    fill="currentColor" />
</svg>