<svg width="16" height="20" viewBox="0 0 16 20" fill="none" xmlns="http://www.w3.org/2000/svg">
  <path fill-rule="evenodd" clip-rule="evenodd"
    d="M8 1.86052C4.61122 1.86052 1.86408 4.60241 1.86408 7.98472C1.86408 10.2746 3.42867 12.8223 5.18116 14.915C6.03533 15.935 6.89213 16.7981 7.5363 17.4066C7.70774 17.5685 7.86368 17.712 8 17.8352C8.13632 17.712 8.29226 17.5685 8.4637 17.4066C9.10787 16.7981 9.96466 15.935 10.8188 14.915C12.5713 12.8223 14.1359 10.2746 14.1359 7.98472C14.1359 4.60241 11.3888 1.86052 8 1.86052ZM8 19.0703C7.4084 19.7891 7.40821 19.789 7.408 19.7888L7.40073 19.7828L7.38297 19.7681L7.31847 19.714C7.26302 19.6671 7.18322 19.599 7.08255 19.5111C6.88126 19.3353 6.5961 19.0801 6.25496 18.7578C5.57389 18.1145 4.66369 17.1982 3.75088 16.1082C1.96939 13.9808 0 10.9856 0 7.98472C0 3.57487 3.58172 0 8 0C12.4183 0 16 3.57487 16 7.98472C16 10.9856 14.0306 13.9808 12.2491 16.1082C11.3363 17.1982 10.4261 18.1145 9.74504 18.7578C9.4039 19.0801 9.11873 19.3353 8.91745 19.5111C8.81678 19.599 8.73698 19.6671 8.68153 19.714L8.61703 19.7681L8.59927 19.7828L8.59256 19.7883C8.59234 19.7885 8.5916 19.7891 8 19.0703ZM8 19.0703L8.59256 19.7883C8.24872 20.0702 7.75184 20.0707 7.408 19.7888L8 19.0703ZM8.00243 5.89156C6.84409 5.89156 5.90534 6.82852 5.90534 7.98464C5.90534 9.14077 6.84409 10.0777 8.00243 10.0777C9.16076 10.0777 10.0995 9.14077 10.0995 7.98464C10.0995 6.82852 9.16076 5.89156 8.00243 5.89156ZM4.04126 7.98464C4.04126 5.80098 5.81459 4.03104 8.00243 4.03104C10.1903 4.03104 11.9636 5.80098 11.9636 7.98464C11.9636 10.1683 10.1903 11.9382 8.00243 11.9382C5.81459 11.9382 4.04126 10.1683 4.04126 7.98464Z"
    fill="currentColor" />
</svg>