<svg width="17" height="20" viewBox="0 0 17 20" fill="none" xmlns="http://www.w3.org/2000/svg">
  <path fill-rule="evenodd" clip-rule="evenodd"
    d="M0 7.93623C0 3.50754 3.85321 0 8.5 0C13.1468 0 17 3.50754 17 7.93623C17 10.4557 15.5753 12.9791 14.0141 15.0097C12.4346 17.0642 10.6195 18.7363 9.65379 19.5705C8.99043 20.1431 8.01081 20.1432 7.34745 19.5706C6.38116 18.7364 4.56567 17.0643 2.98604 15.0097C1.42473 12.9791 0 10.4557 0 7.93623ZM8.5 1.42852C4.55165 1.42852 1.43662 4.38774 1.43662 7.93623C1.43662 9.96768 2.61305 12.1726 4.12733 14.1421C5.62325 16.0878 7.35778 17.6877 8.2892 18.4919C8.41231 18.5981 8.58873 18.5981 8.71184 18.4919C9.64288 17.6876 11.3771 16.0877 12.8728 14.1421C14.3869 12.1726 15.5634 9.96768 15.5634 7.93623C15.5634 4.38774 12.4483 1.42852 8.5 1.42852Z"
    fill="currentColor" />
  <path fill-rule="evenodd" clip-rule="evenodd"
    d="M8.50249 4.6427C8.89921 4.6427 9.2208 4.96248 9.2208 5.35696V11.5472C9.2208 11.9417 8.89921 12.2615 8.50249 12.2615C8.10578 12.2615 7.78418 11.9417 7.78418 11.5472V5.35696C7.78418 4.96248 8.10578 4.6427 8.50249 4.6427Z"
    fill="currentColor" />
  <path fill-rule="evenodd" clip-rule="evenodd"
    d="M4.66901 8.45213C4.66901 8.05765 4.99061 7.73787 5.38732 7.73787H11.6127C12.0094 7.73787 12.331 8.05765 12.331 8.45213C12.331 8.8466 12.0094 9.16639 11.6127 9.16639H5.38732C4.99061 9.16639 4.66901 8.8466 4.66901 8.45213Z"
    fill="currentColor" />
</svg>