<svg width="18" height="20" viewBox="0 0 18 20" fill="none" xmlns="http://www.w3.org/2000/svg">
  <path fill-rule="evenodd" clip-rule="evenodd"
    d="M12.4248 11.0318C12.4248 10.6373 12.7457 10.3175 13.1416 10.3175H15.2124C16.7524 10.3175 18 11.5607 18 13.0953C18 14.6298 16.7524 15.873 15.2124 15.873H2.78761C2.03938 15.873 1.43363 16.4767 1.43363 17.2222C1.43363 17.9678 2.03938 18.5714 2.78761 18.5714H6.9292C7.32509 18.5714 7.64602 18.8912 7.64602 19.2857C7.64602 19.6802 7.32509 20 6.9292 20H2.78761C1.24761 20 0 18.7568 0 17.2222C0 15.6877 1.24761 14.4445 2.78761 14.4445H15.2124C15.9606 14.4445 16.5664 13.8409 16.5664 13.0953C16.5664 12.3497 15.9606 11.7461 15.2124 11.7461H13.1416C12.7457 11.7461 12.4248 11.4263 12.4248 11.0318Z"
    fill="currentColor" />
  <path fill-rule="evenodd" clip-rule="evenodd"
    d="M3.10619 4.72671C3.10619 2.0972 5.30071 0 7.9646 0C10.6285 0 12.823 2.0972 12.823 4.72671C12.823 5.63711 12.512 6.52481 12.0928 7.31525C11.6713 8.11007 11.1179 8.84878 10.5789 9.47344C10.0382 10.1001 9.49966 10.6263 9.09706 10.9954C8.89528 11.1804 8.72645 11.327 8.60699 11.4283C8.54723 11.4789 8.49974 11.5183 8.46656 11.5455L8.42775 11.5771L8.41685 11.5859L8.41361 11.5884L8.41256 11.5893C8.4124 11.5894 8.41188 11.5898 7.9646 11.0317C7.51732 11.5898 7.51719 11.5897 7.51703 11.5896L7.51559 11.5884L7.51235 11.5859L7.50145 11.5771L7.46264 11.5455C7.42946 11.5183 7.38197 11.4789 7.32221 11.4283C7.20275 11.327 7.03392 11.1804 6.83214 10.9954C6.42954 10.6263 5.89097 10.1001 5.35026 9.47344C4.81131 8.84878 4.25787 8.11007 3.83637 7.31525C3.41719 6.52481 3.10619 5.63711 3.10619 4.72671ZM7.9646 11.0317L7.51703 11.5896C7.77863 11.7977 8.15096 11.7974 8.41256 11.5893L7.9646 11.0317ZM7.9646 10.0905C8.01525 10.0453 8.06934 9.99639 8.12639 9.94408C8.50034 9.60125 8.99716 9.11547 9.49185 8.54211C9.9883 7.96673 10.4703 7.31731 10.8253 6.6478C11.1827 5.97391 11.3894 5.3211 11.3894 4.72671C11.3894 2.92387 9.8751 1.42856 7.9646 1.42856C6.05411 1.42856 4.53982 2.92387 4.53982 4.72671C4.53982 5.3211 4.74653 5.97391 5.1039 6.6478C5.45895 7.31731 5.94091 7.96673 6.43735 8.54211C6.93204 9.11547 7.42887 9.60125 7.80281 9.94408C7.85987 9.99639 7.91395 10.0453 7.9646 10.0905Z"
    fill="currentColor" />
  <path fill-rule="evenodd" clip-rule="evenodd"
    d="M7.9645 3.84002C7.42749 3.84002 6.94907 4.2664 6.95156 4.84245C6.95156 4.84166 6.95156 4.84088 6.95156 4.8401H7.30737C7.30771 4.84088 7.30806 4.84167 7.30841 4.84246L6.95158 4.8448C6.95157 4.84401 6.95157 4.84323 6.95156 4.84245C6.95285 5.4111 7.42144 5.8412 7.96346 5.8412C8.50121 5.8412 8.9764 5.41478 8.9764 4.84113C8.9764 4.274 8.50897 3.84002 7.9645 3.84002ZM7.54277 4.84092L7.30841 4.84246C7.41944 5.09313 7.67092 5.26817 7.96346 5.26858C7.74657 5.26803 7.54277 5.09194 7.54277 4.84092C7.54277 4.84099 7.54277 4.84085 7.54277 4.84092Z"
    fill="currentColor" />
</svg>