<svg width="18" height="18" viewBox="0 0 18 18" fill="none" xmlns="http://www.w3.org/2000/svg">
  <path fill-rule="evenodd" clip-rule="evenodd"
    d="M17.8019 0.198103C17.9873 0.383516 18.0488 0.659395 17.9598 0.90602L12.0535 17.2618C12.0471 17.2795 12.04 17.2968 12.0322 17.3139C11.9384 17.5186 11.7878 17.6921 11.5983 17.8137C11.4087 17.9353 11.1883 18 10.9631 18C10.7379 18 10.5174 17.9353 10.3279 17.8137C10.1423 17.6946 9.99398 17.5257 9.89981 17.3265L6.82437 11.1756L0.67352 8.1002C0.474275 8.00603 0.305406 7.85772 0.186282 7.6721C0.0646551 7.48257 0 7.26211 0 7.03692C0 6.81172 0.0646551 6.59126 0.186282 6.40173C0.307909 6.21221 0.481394 6.06158 0.686117 5.96777C0.703162 5.95996 0.720525 5.95286 0.73816 5.94649L17.094 0.0402225C17.3406 -0.0488368 17.6165 0.01269 17.8019 0.198103ZM1.62575 7.06406L7.63091 10.0666C7.76179 10.1321 7.86792 10.2382 7.93336 10.3691L10.9359 16.3743L16.1982 1.80178L1.62575 7.06406Z"
    fill="currentColor" />
</svg>