<svg width="20" height="20" viewBox="0 0 20 20" fill="none" xmlns="http://www.w3.org/2000/svg">
  <path fill-rule="evenodd" clip-rule="evenodd"
    d="M3.09738 3.80934C3.09738 1.7055 4.80268 0 6.90626 0H16.1911C18.2947 0 20 1.7055 20 3.80934V16.1907C20 18.2945 18.2947 20 16.1911 20H6.90626C4.80268 20 3.09738 18.2945 3.09738 16.1907V13.0953C3.09738 12.701 3.41702 12.3813 3.81131 12.3813C4.20559 12.3813 4.52523 12.701 4.52523 13.0953V16.1907C4.52523 17.5058 5.59125 18.572 6.90626 18.572H16.1911C17.5061 18.572 18.5722 17.5058 18.5722 16.1907V3.80934C18.5722 2.49417 17.5061 1.42802 16.1911 1.42802H6.90626C5.59125 1.42802 4.52523 2.49417 4.52523 3.80934V6.90467C4.52523 7.29901 4.20559 7.61868 3.81131 7.61868C3.41702 7.61868 3.09738 7.29901 3.09738 6.90467V3.80934Z"
    fill="currentColor" />
  <path fill-rule="evenodd" clip-rule="evenodd"
    d="M9.49382 6.39977C9.77262 6.12093 10.2247 6.12093 10.5035 6.39977L13.5984 9.4951C13.8772 9.77394 13.8772 10.226 13.5984 10.5049L10.5035 13.6002C10.2247 13.879 9.77262 13.879 9.49382 13.6002C9.21501 13.3214 9.21501 12.8693 9.49382 12.5904L12.084 9.99998L9.49382 7.40953C9.21501 7.13069 9.21501 6.67861 9.49382 6.39977Z"
    fill="currentColor" />
  <path fill-rule="evenodd" clip-rule="evenodd"
    d="M0 9.99999C0 9.60565 0.319634 9.28598 0.713923 9.28598H13.0937C13.488 9.28598 13.8077 9.60565 13.8077 9.99999C13.8077 10.3943 13.488 10.714 13.0937 10.714H0.713923C0.319634 10.714 0 10.3943 0 9.99999Z"
    fill="currentColor" />
</svg>