<svg width="16" height="16" viewBox="0 0 16 16" fill="none" xmlns="http://www.w3.org/2000/svg">
  <path
    d="M14.625 15.5C12.8889 15.5 11.1736 15.1214 9.47917 14.3642C7.78472 13.6069 6.24306 12.5342 4.85417 11.1458C3.46528 9.75694 2.3925 8.21528 1.63583 6.52083C0.879167 4.82639 0.500556 3.11111 0.5 1.375C0.5 1.125 0.583333 0.916667 0.75 0.75C0.916667 0.583333 1.125 0.5 1.375 0.5H4.75C4.94444 0.5 5.11806 0.566111 5.27083 0.698333C5.42361 0.830555 5.51389 0.986667 5.54167 1.16667L6.08333 4.08333C6.11111 4.30556 6.10417 4.49306 6.0625 4.64583C6.02083 4.79861 5.94444 4.93056 5.83333 5.04167L3.8125 7.08333C4.09028 7.59722 4.42 8.09361 4.80167 8.5725C5.18333 9.05139 5.60361 9.51333 6.0625 9.95833C6.49306 10.3889 6.94444 10.7883 7.41667 11.1567C7.88889 11.525 8.38889 11.8617 8.91667 12.1667L10.875 10.2083C11 10.0833 11.1633 9.98944 11.365 9.92667C11.5667 9.86389 11.7644 9.84667 11.9583 9.875L14.8333 10.4583C15.0278 10.5139 15.1875 10.6147 15.3125 10.7608C15.4375 10.9069 15.5 11.07 15.5 11.25V14.625C15.5 14.875 15.4167 15.0833 15.25 15.25C15.0833 15.4167 14.875 15.5 14.625 15.5Z"
    fill="currentColor" />
</svg>