<svg width="20" height="20" viewBox="0 0 20 20" fill="none" xmlns="http://www.w3.org/2000/svg">
  <path fill-rule="evenodd" clip-rule="evenodd"
    d="M4.43812 11.3462C4.72027 11.6218 4.72556 12.0741 4.44993 12.3563L1.85664 15.0113L3.6607 16.0938C3.76123 16.1542 3.84536 16.2383 3.90567 16.3388L4.9704 18.1136L8.34573 14.5682C8.61772 14.2825 9.06979 14.2714 9.35545 14.5434C9.64112 14.8154 9.6522 15.2675 9.38021 15.5532L5.35792 19.7783C5.20415 19.9398 4.98376 20.0202 4.76211 19.9957C4.54046 19.9711 4.343 19.8445 4.22826 19.6532L2.7727 17.227L0.346752 15.7712C0.159423 15.6588 0.0338392 15.4668 0.00587926 15.2501C-0.0220806 15.0334 0.0506593 14.8159 0.203317 14.6596L3.42816 11.358C3.70379 11.0758 4.15596 11.0705 4.43812 11.3462Z"
    fill="currentColor" />
  <path fill-rule="evenodd" clip-rule="evenodd"
    d="M15.5619 11.3462C15.844 11.0705 16.2962 11.0758 16.5718 11.358L19.7967 14.6596C19.9493 14.8159 20.0221 15.0334 19.9941 15.2501C19.9662 15.4668 19.8406 15.6588 19.6532 15.7712L17.2273 17.227L15.7717 19.6532C15.657 19.8445 15.4595 19.9711 15.2379 19.9957C15.0162 20.0202 14.7959 19.9398 14.6421 19.7783L10.6198 15.5532C10.3478 15.2675 10.3589 14.8154 10.6446 14.5434C10.9302 14.2714 11.3823 14.2825 11.6543 14.5682L15.0296 18.1136L16.0943 16.3388C16.1546 16.2383 16.2388 16.1542 16.3393 16.0938L18.1434 15.0113L15.5501 12.3563C15.2744 12.0741 15.2797 11.6218 15.5619 11.3462Z"
    fill="currentColor" />
  <path fill-rule="evenodd" clip-rule="evenodd"
    d="M14.5975 3.33471C12.0563 0.793196 7.93625 0.793196 5.39506 3.33471C2.85386 5.87622 2.85386 9.99682 5.39506 12.5383C7.93625 15.0798 12.0563 15.0798 14.5975 12.5383C17.1387 9.99682 17.1387 5.87622 14.5975 3.33471ZM15.6076 2.32455C12.5085 -0.774851 7.48405 -0.774851 4.38503 2.32455C1.28601 5.42396 1.28601 10.4491 4.38503 13.5485C7.48405 16.6479 12.5085 16.6479 15.6076 13.5485C18.7066 10.4491 18.7066 5.42396 15.6076 2.32455Z"
    fill="currentColor" />
  <path fill-rule="evenodd" clip-rule="evenodd"
    d="M11.0817 4.19635L11.8419 5.73816L13.5428 5.9854C14.5326 6.12972 14.9259 7.34618 14.211 8.04347L12.9798 9.24267L13.2701 10.9366C13.4393 11.9226 12.405 12.6739 11.5202 12.2089L10.0006 11.4105L8.47913 12.2098C7.59433 12.6748 6.55983 11.9239 6.72898 10.9379L7.01936 9.2437L5.7885 8.04486C5.07361 7.34757 5.46628 6.13079 6.4561 5.98648L8.15818 5.73833L8.91849 4.19635C9.36092 3.29892 10.6393 3.29892 11.0817 4.19635ZM10.3418 9.97608C10.3305 9.96995 10.3191 9.96411 10.3075 9.95858C10.0909 9.85463 9.83579 9.86639 9.62918 9.99124C9.62662 9.9928 9.62406 9.99436 9.62152 9.99594L8.21281 10.7361L8.49069 9.11477C8.53042 8.88297 8.45351 8.64646 8.28504 8.48237L7.10725 7.33522L8.73571 7.09781C8.96828 7.0639 9.16928 6.91773 9.27323 6.70691L10.0001 5.23276L10.727 6.70691C10.831 6.91782 11.0321 7.06403 11.2648 7.09785L12.8917 7.33435L11.7141 8.48134C11.5457 8.64543 11.4687 8.88194 11.5085 9.11374L11.7864 10.735L10.3418 9.97608Z"
    fill="currentColor" />
</svg>