<svg width="20" height="20" viewBox="0 0 20 20" fill="none" xmlns="http://www.w3.org/2000/svg">
<path d="M0 10C0 4.47715 4.47715 0 10 0C15.5228 0 20 4.47715 20 10C20 15.5228 15.5228 20 10 20C4.47715 20 0 15.5228 0 10Z" fill="#018780"/>
<path fill-rule="evenodd" clip-rule="evenodd" d="M9.86979 6.64062C10.215 6.64062 10.4948 6.92045 10.4948 7.26562V9.24479H12.474C12.8191 9.24479 13.099 9.52461 13.099 9.86979C13.099 10.215 12.8191 10.4948 12.474 10.4948H10.4948V12.474C10.4948 12.8191 10.215 13.099 9.86979 13.099C9.52461 13.099 9.24479 12.8191 9.24479 12.474V10.4948H7.26562C6.92045 10.4948 6.64062 10.215 6.64062 9.86979C6.64062 9.52461 6.92045 9.24479 7.26562 9.24479H9.24479V7.26562C9.24479 6.92045 9.52461 6.64062 9.86979 6.64062Z" fill="white"/>
</svg>
