<svg width="25" height="25" viewBox="0 0 25 25" fill="none" xmlns="http://www.w3.org/2000/svg">
  <path fill-rule="evenodd" clip-rule="evenodd"
    d="M12.5 1.47059C6.40805 1.47059 1.47059 6.40805 1.47059 12.5C1.47059 18.5919 6.40805 23.5294 12.5 23.5294C18.5919 23.5294 23.5294 18.5919 23.5294 12.5C23.5294 6.40805 18.5919 1.47059 12.5 1.47059ZM0 12.5C0 5.59587 5.59587 0 12.5 0C19.4041 0 25 5.59587 25 12.5C25 19.4041 19.4041 25 12.5 25C5.59587 25 0 19.4041 0 12.5ZM12.5 6.53595C12.9061 6.53595 13.2353 6.86515 13.2353 7.27124V11.7647H17.7288C18.1349 11.7647 18.4641 12.0939 18.4641 12.5C18.4641 12.9061 18.1349 13.2353 17.7288 13.2353H13.2353V17.7288C13.2353 18.1349 12.9061 18.4641 12.5 18.4641C12.0939 18.4641 11.7647 18.1349 11.7647 17.7288V13.2353H7.27124C6.86515 13.2353 6.53595 12.9061 6.53595 12.5C6.53595 12.0939 6.86515 11.7647 7.27124 11.7647H11.7647V7.27124C11.7647 6.86515 12.0939 6.53595 12.5 6.53595Z"
    fill="currentColor" />
</svg>