<svg width="20" height="20" viewBox="0 0 20 20" fill="none" xmlns="http://www.w3.org/2000/svg">
<path fill-rule="evenodd" clip-rule="evenodd" d="M16.0628 3.93722C12.919 0.793424 7.89363 0.574342 4.48817 3.43262C1.08271 6.2909 0.427129 11.2781 2.9782 14.9194C3.09301 15.0833 3.13368 15.2878 3.09028 15.4832L2.68271 17.3173L4.51683 16.9097C4.71215 16.8663 4.91672 16.907 5.08059 17.0218C8.72187 19.5729 13.7091 18.9173 16.5674 15.5118C19.4257 12.1064 19.2066 7.08102 16.0628 3.93722ZM3.57144 2.34039C7.54328 -0.993263 13.4044 -0.737745 17.0711 2.92891C20.7377 6.59557 20.9933 12.4567 17.6596 16.4286C14.3945 20.3188 8.74732 21.1322 4.5262 18.3684L1.89834 18.9523C1.66038 19.0052 1.41189 18.9328 1.23952 18.7605C1.06716 18.5881 0.994795 18.3396 1.04767 18.1017L1.63162 15.4738C-1.13223 11.2527 -0.318769 5.60553 3.57144 2.34039ZM11.4896 7.97443C11.4271 7.16983 10.7328 6.55993 9.92412 6.60471C9.90114 6.60599 9.87812 6.60615 9.85513 6.60519C9.11853 6.57462 8.46445 7.07255 8.29782 7.7907C8.20882 8.17428 7.82572 8.41308 7.44214 8.32408C7.05857 8.23509 6.81976 7.85199 6.90876 7.46841C7.22773 6.09365 8.47231 5.13705 9.87977 5.17923C11.4639 5.10994 12.8156 6.32231 12.9144 7.9091C12.9154 7.92385 12.9158 7.93862 12.9158 7.9534C12.9158 9.10226 12.0793 9.8124 11.5451 10.2467C11.4761 10.3028 11.4116 10.3546 11.3512 10.403C11.1401 10.5724 10.9788 10.7018 10.849 10.8375C10.7728 10.9171 10.7336 10.9735 10.7144 11.0101C10.7056 11.027 10.7024 11.037 10.7014 11.0409L10.7007 11.044L10.7007 11.0443C10.7007 11.438 10.3815 11.7573 9.98772 11.7573C9.59395 11.7573 9.27474 11.438 9.27474 11.0443C9.27474 10.5128 9.56439 10.1174 9.81871 9.85162C10.0204 9.64081 10.2793 9.43378 10.5 9.25729C10.5509 9.21656 10.5998 9.17747 10.6455 9.14032C11.2088 8.68235 11.4802 8.3653 11.4896 7.97443ZM9.98604 14.4618C9.98638 14.4618 9.98671 14.4618 9.98704 14.4618C10.3092 14.4614 10.5701 14.2003 10.5705 13.8784C10.5705 13.878 10.5705 13.8777 10.5705 13.8774C10.5704 13.7161 10.505 13.5702 10.3994 13.4645L10.5815 13.2824C10.7396 13.4405 10.8283 13.6551 10.8281 13.8787C10.8275 14.3433 10.4506 14.7196 9.98593 14.7194C9.52132 14.7192 9.14473 14.3426 9.14453 13.878C9.14433 13.4134 9.5206 13.0364 9.98522 13.0358C10.2088 13.0356 10.4234 13.1243 10.5815 13.2824L10.3994 13.4645C10.2937 13.3589 10.1478 13.2935 9.98654 13.2934C9.98621 13.2934 9.98588 13.2934 9.98555 13.2934C9.66355 13.2938 9.40251 13.5547 9.4021 13.8769C9.4021 13.8772 9.4021 13.8775 9.4021 13.8779C9.40217 14.0327 9.4637 14.1812 9.5732 14.2907L9.98629 13.8776L9.57321 14.2907C9.68272 14.4002 9.83122 14.4617 9.98604 14.4618ZM9.98629 13.8776V13.8778V13.8776L9.98631 13.8776L9.98629 13.8776Z" fill="#018780"/>
</svg>
