<svg width="20" height="20" viewBox="0 0 20 20" fill="none" xmlns="http://www.w3.org/2000/svg">
<path fill-rule="evenodd" clip-rule="evenodd" d="M1.42857 4.86378C3.17444 1.95361 6.35512 0 9.99971 0C15.523 0 19.9997 4.4767 19.9997 10C19.9997 10.3945 19.6799 10.7143 19.2854 10.7143C18.8909 10.7143 18.5711 10.3945 18.5711 10C18.5711 5.26568 14.734 1.42857 9.99971 1.42857C6.95577 1.42857 4.28562 3.01951 2.76578 5.41667H4.58333C4.97782 5.41667 5.29762 5.73646 5.29762 6.13095C5.29762 6.52544 4.97782 6.84524 4.58333 6.84524H1.58146C1.57102 6.84547 1.56057 6.84547 1.5501 6.84524H0.714286C0.319797 6.84524 0 6.52544 0 6.13095V2.2619C0 1.86742 0.319797 1.54762 0.714286 1.54762C1.10877 1.54762 1.42857 1.86742 1.42857 2.2619V4.86378ZM0.714286 9.28571C1.10877 9.28571 1.42857 9.60551 1.42857 10C1.42857 14.7343 5.26568 18.5714 10 18.5714C13.0439 18.5714 15.7141 16.9805 17.2339 14.5833H15.4167C15.0222 14.5833 14.7024 14.2635 14.7024 13.869C14.7024 13.4746 15.0222 13.1548 15.4167 13.1548H18.4183C18.4287 13.1545 18.4391 13.1545 18.4496 13.1548H19.2857C19.6802 13.1548 20 13.4746 20 13.869V17.7381C20 18.1326 19.6802 18.4524 19.2857 18.4524C18.8912 18.4524 18.5714 18.1326 18.5714 17.7381V15.1357C16.8256 18.0462 13.6448 20 10 20C4.4767 20 0 15.5233 0 10C0 9.60551 0.319797 9.28571 0.714286 9.28571Z" fill="#018780"/>
</svg>
