<svg width="20" height="20" viewBox="0 0 20 20" fill="none" xmlns="http://www.w3.org/2000/svg">
  <path fill-rule="evenodd" clip-rule="evenodd"
    d="M0 9.15723C0.000369677 4.09999 4.09991 0.000369683 9.15707 0H9.15715C14.2145 0 18.3143 4.09987 18.3143 9.15731C18.3143 11.3216 17.5635 13.3106 16.3081 14.8779L19.7038 18.2737C20.0987 18.6686 20.0987 19.3089 19.7038 19.7038C19.3089 20.0987 18.6686 20.0987 18.2737 19.7038L14.878 16.308C13.3107 17.5636 11.3216 18.3146 9.15715 18.3146C4.0998 18.3146 0 14.2148 0 9.15731V9.15723ZM14.2136 14.1909C14.2098 14.1946 14.206 14.1983 14.2022 14.2021C14.1984 14.2059 14.1947 14.2097 14.191 14.2136C12.9007 15.4982 11.1217 16.2921 9.15715 16.2921C5.21676 16.2921 2.02244 13.0978 2.02244 9.15731C2.02273 5.21695 5.21687 2.0228 9.15715 2.02247M14.2136 14.1909C15.498 12.9007 16.2919 11.1217 16.2919 9.15731C16.2919 5.21687 13.0976 2.02251 9.15722 2.02247M1.01122 9.15731H2.02244H1.01122Z"
    fill="currentColor" />
</svg>