<svg width="16" height="20" viewBox="0 0 16 20" fill="none" xmlns="http://www.w3.org/2000/svg">
<path fill-rule="evenodd" clip-rule="evenodd" d="M8 1.42857C6.10028 1.42857 4.56 2.95663 4.56 4.84127V6.19048H11.44V4.84127C11.44 2.95663 9.89971 1.42857 8 1.42857ZM12.88 6.19048V4.84127C12.88 2.16765 10.695 0 8 0C5.30499 0 3.12 2.16765 3.12 4.84127V6.19048H2.8C1.25315 6.19048 0 7.43369 0 8.96825V17.2222C0 18.7568 1.25316 20 2.8 20H13.2C14.7468 20 16 18.7568 16 17.2222V8.96825C16 7.43369 14.7468 6.19048 13.2 6.19048H12.88ZM2.8 7.61905C2.04844 7.61905 1.44 8.22266 1.44 8.96825V17.2222C1.44 17.9678 2.04844 18.5714 2.8 18.5714H13.2C13.9516 18.5714 14.56 17.9678 14.56 17.2222V8.96825C14.56 8.22266 13.9516 7.61905 13.2 7.61905H2.8ZM8.04305 11.7636C8.01962 11.7404 7.98163 11.7404 7.9582 11.7636C7.93477 11.7869 7.93477 11.8246 7.9582 11.8478C7.98163 11.871 8.01962 11.871 8.04305 11.8478C8.06648 11.8246 8.06648 11.7869 8.04305 11.7636ZM6.93996 10.7535C7.52575 10.1723 8.4755 10.1723 9.06128 10.7535C9.64707 11.3346 9.64707 12.2768 9.06128 12.858C8.95741 12.961 8.84208 13.0458 8.71937 13.1123V15.2517C8.71937 15.6462 8.39702 15.966 7.99937 15.966C7.60173 15.966 7.27937 15.6462 7.27937 15.2517V13.1109C7.1576 13.0446 7.04314 12.9603 6.93996 12.858C6.35418 12.2768 6.35418 11.3346 6.93996 10.7535Z" fill="#018780"/>
</svg>
