<svg width="24" height="23" viewBox="0 0 24 23" fill="none" xmlns="http://www.w3.org/2000/svg">
  <path
    d="M8.79177 0.0302658C9.17508 -0.0752268 9.58014 0.101961 9.76089 0.454194C10.1773 1.26572 11.0245 1.81851 12 1.81851C12.9755 1.81851 13.8227 1.26572 14.2391 0.454194C14.4199 0.101961 14.8249 -0.0752268 15.2082 0.0302658C17.0885 0.547744 18.7824 1.5082 20.1694 2.79041C20.4402 3.04081 20.5138 3.43824 20.3502 3.76805C20.1858 4.09954 20.093 4.47305 20.093 4.87047C20.093 6.24955 21.2175 7.36753 22.6047 7.36753L22.6397 7.36728C23.0098 7.36202 23.3395 7.59903 23.4504 7.95012C23.8077 9.08104 24 10.2836 24 11.5293C24 12.3515 23.9162 13.1551 23.7564 13.9318C23.6705 14.3495 23.281 14.635 22.8543 14.5934C22.7725 14.5854 22.6893 14.5813 22.6047 14.5813C21.2175 14.5813 20.093 15.6992 20.093 17.0783C20.093 17.6922 20.3147 18.2524 20.6838 18.6873C20.9604 19.0132 20.9445 19.4941 20.6472 19.8012C19.2309 21.2644 17.4414 22.3696 15.4293 22.9652C14.9924 23.0945 14.5318 22.8526 14.393 22.4209C14.069 21.4132 13.1189 20.6852 12 20.6852C10.8811 20.6852 9.93103 21.4132 9.60702 22.4209C9.46822 22.8526 9.00756 23.0945 8.57067 22.9652C6.55864 22.3696 4.76907 21.2644 3.35278 19.8012C3.05543 19.4941 3.03962 19.0132 3.31615 18.6873C3.68527 18.2524 3.90698 17.6922 3.90698 17.0783C3.90698 15.6992 2.78248 14.5813 1.39535 14.5813C1.31077 14.5813 1.22749 14.5854 1.14568 14.5934C0.718946 14.635 0.329511 14.3495 0.243583 13.9318C0.0837761 13.1551 0 12.3515 0 11.5293C0 10.2836 0.192306 9.08104 0.549616 7.95011C0.660539 7.59903 0.99019 7.36203 1.3603 7.36728L1.39535 7.36753C2.78248 7.36753 3.90698 6.24955 3.90698 4.87047C3.90698 4.47305 3.8142 4.09954 3.64981 3.76805C3.48625 3.43824 3.55975 3.04081 3.83061 2.79041C5.21761 1.5082 6.91148 0.547744 8.79177 0.0302658ZM5.39472 3.63848C5.51611 4.02838 5.5814 4.44235 5.5814 4.87047C5.5814 6.96739 4.02152 8.7021 1.99248 8.99021C1.7849 9.80153 1.67442 10.6521 1.67442 11.5293C1.67442 12.0058 1.70702 12.4744 1.77005 12.933C3.90639 13.1214 5.5814 14.9054 5.5814 17.0783C5.5814 17.8185 5.38649 18.5145 5.04526 19.1173C6.00162 19.9842 7.12189 20.6745 8.35381 21.1369C9.07207 19.8739 10.435 19.0205 12 19.0205C13.565 19.0205 14.9279 19.8739 15.6462 21.1369C16.8781 20.6745 17.9984 19.9842 18.9547 19.1173C18.6135 18.5145 18.4186 17.8185 18.4186 17.0783C18.4186 14.9054 20.0936 13.1214 22.2299 12.933C22.293 12.4744 22.3256 12.0058 22.3256 11.5293C22.3256 10.6521 22.2151 9.80153 22.0075 8.99021C19.9785 8.7021 18.4186 6.96739 18.4186 4.87047C18.4186 4.44235 18.4839 4.02839 18.6053 3.63849C17.6503 2.8474 16.5502 2.22485 15.3509 1.816C14.588 2.82728 13.3715 3.48322 12 3.48322C10.6285 3.48322 9.412 2.82728 8.64915 1.816C7.44984 2.22485 6.34965 2.8474 5.39472 3.63848Z"
    fill="currentColor" />
  <path
    d="M7.25581 11.5293C7.25581 8.92435 9.37985 6.81262 12 6.81262C14.6201 6.81262 16.7442 8.92435 16.7442 11.5293C16.7442 14.1342 14.6201 16.246 12 16.246C9.37985 16.246 7.25581 14.1342 7.25581 11.5293ZM12 8.47733C10.3046 8.47733 8.93023 9.84374 8.93023 11.5293C8.93023 13.2149 10.3046 14.5813 12 14.5813C13.6954 14.5813 15.0698 13.2149 15.0698 11.5293C15.0698 9.84374 13.6954 8.47733 12 8.47733Z"
    fill="currentColor" />
</svg>