<svg width="21" height="21" viewBox="0 0 21 21" fill="none" xmlns="http://www.w3.org/2000/svg">
  <path fill-rule="evenodd" clip-rule="evenodd"
    d="M15.4146 1.59773C13.7404 1.25409 11.891 1.6789 10.5753 3.00738C9.07244 4.52478 8.62274 6.67967 9.3573 8.53387C9.46654 8.80963 9.40252 9.12458 9.19453 9.33459L1.97217 16.627C1.30343 17.3022 1.30343 18.3335 1.97217 19.0087C2.64092 19.6839 3.6623 19.6839 4.33105 19.0087L11.5534 11.7163C11.7531 11.5147 12.0496 11.4463 12.3162 11.5406C14.1861 12.2013 16.335 11.8281 17.9339 10.3143C19.3012 8.92842 19.8136 7.02482 19.3753 5.36456L16.0911 8.59105C15.8028 8.87422 15.3427 8.87104 15.0584 8.5839L12.2969 5.79564C12.0097 5.5057 12.0097 5.03562 12.2969 4.74568L15.4146 1.59773ZM16.1202 0.885319L16.1165 0.888979C16.1183 0.887111 16.1196 0.885891 16.1202 0.885319ZM16.8375 0.476031C14.488 -0.440157 11.5529 -0.0796145 9.53539 1.95742C7.76028 3.74974 7.11031 6.29935 7.82656 8.61589L0.932291 15.577C-0.310764 16.8321 -0.310764 18.8036 0.932291 20.0587C2.17535 21.3138 4.12787 21.3138 5.37093 20.0587L12.2789 13.0837C14.544 13.7158 17.064 13.18 18.95 11.3878C18.9554 11.3827 18.9607 11.3775 18.9659 11.3722C20.9673 9.35141 21.5988 6.33112 20.3782 3.86623C20.2537 3.6147 19.9991 3.45582 19.7205 3.45582H19.509C19.3175 3.45582 19.1326 3.53127 18.9953 3.66613L15.5854 7.0161L13.8567 5.27066L17.1604 1.93497C17.2699 1.82434 17.4554 1.59148 17.4554 1.26254C17.4554 1.0698 17.3857 0.833094 17.1844 0.655204C17.0709 0.554986 16.9481 0.502189 16.8375 0.476031Z"
    fill="currentColor" />
</svg>