<svg width="22" height="20" viewBox="0 0 22 20" fill="none" xmlns="http://www.w3.org/2000/svg">
  <path fill-rule="evenodd" clip-rule="evenodd"
    d="M6.04242 2.37051C5.01962 1.33372 3.36133 1.33372 2.33853 2.37051C1.31573 3.40729 1.31573 5.08826 2.33853 6.12505C3.36133 7.16183 5.01962 7.16183 6.04242 6.12505C7.06522 5.08826 7.06522 3.40729 6.04242 2.37051ZM1.22736 1.24414C2.86384 -0.414715 5.51711 -0.414715 7.15359 1.24414C7.77104 1.87004 8.15553 2.64267 8.30704 3.4513H20.0794C20.5133 3.4513 20.8651 3.80789 20.8651 4.24776C20.8651 4.68763 20.5133 5.04422 20.0794 5.04422H8.30705C8.15554 5.85286 7.77105 6.6255 7.15359 7.25141C5.51711 8.91027 2.86384 8.91027 1.22736 7.25141C-0.40912 5.59255 -0.40912 2.903 1.22736 1.24414ZM19.6615 13.875C18.6387 12.8382 16.9804 12.8382 15.9576 13.875C14.9348 14.9117 14.9348 16.5927 15.9576 17.6295C16.9804 18.6663 18.6387 18.6663 19.6615 17.6295C20.6843 16.5927 20.6843 14.9117 19.6615 13.875ZM14.8464 12.7486C16.4829 11.0897 19.1362 11.0897 20.7726 12.7486C22.4091 14.4074 22.4091 17.097 20.7726 18.7559C19.1362 20.4147 16.4829 20.4147 14.8464 18.7559C14.2289 18.13 13.8445 17.3573 13.6929 16.5487H1.92029C1.48636 16.5487 1.13458 16.1921 1.13458 15.7522C1.13458 15.3123 1.48636 14.9557 1.92029 14.9557H13.693C13.8445 14.1471 14.229 13.3745 14.8464 12.7486Z"
    fill="currentColor" />
</svg>