<svg width="36" height="36" viewBox="0 0 36 36" fill="none" xmlns="http://www.w3.org/2000/svg">
  <path
    d="M18 0.5C22.6413 0.5 27.0925 2.34374 30.3744 5.62563C33.6563 8.90752 35.5 13.3587 35.5 18C35.5 22.6413 33.6563 27.0925 30.3744 30.3744C27.0925 33.6563 22.6413 35.5 18 35.5C13.3587 35.5 8.90752 33.6563 5.62563 30.3744C2.34374 27.0925 0.5 22.6413 0.5 18C0.5 13.3587 2.34374 8.90752 5.62563 5.62563C8.90752 2.34374 13.3587 0.5 18 0.5ZM15.82 21.4525L11.9325 17.5625C11.7931 17.4231 11.6277 17.3126 11.4456 17.2372C11.2635 17.1617 11.0683 17.1229 10.8713 17.1229C10.6742 17.1229 10.479 17.1617 10.2969 17.2372C10.1148 17.3126 9.94937 17.4231 9.81 17.5625C9.52854 17.844 9.37042 18.2257 9.37042 18.6238C9.37042 19.0218 9.52854 19.4035 9.81 19.685L14.76 24.635C14.899 24.7751 15.0643 24.8862 15.2464 24.9621C15.4286 25.038 15.6239 25.077 15.8212 25.077C16.0186 25.077 16.2139 25.038 16.3961 24.9621C16.5782 24.8862 16.7435 24.7751 16.8825 24.635L27.1325 14.3825C27.2737 14.2437 27.3861 14.0783 27.4631 13.8959C27.5401 13.7135 27.5802 13.5176 27.5811 13.3196C27.582 13.1216 27.5437 12.9254 27.4684 12.7422C27.3931 12.5591 27.2823 12.3927 27.1424 12.2526C27.0025 12.1125 26.8362 12.0015 26.6531 11.926C26.4701 11.8505 26.2739 11.812 26.0759 11.8126C25.8779 11.8133 25.682 11.8532 25.4995 11.93C25.317 12.0068 25.1515 12.1189 25.0125 12.26L15.82 21.4525Z"
    fill="currentColor" />
</svg>