<svg width="25" height="24" viewBox="0 0 25 24" fill="none" xmlns="http://www.w3.org/2000/svg">
  <path fill-rule="evenodd" clip-rule="evenodd"
    d="M6.48185 3.46849C6.48185 1.55289 8.01558 0 9.90753 0H15.0929C16.9848 0 18.5185 1.55289 18.5185 3.46849V5.25023H21.5743C23.4663 5.25023 25 6.80313 25 8.71872V20.5315C25 22.4471 23.4663 24 21.5743 24H3.42567C1.53373 24 0 22.4471 0 20.5315V8.71872C0 6.80313 1.53373 5.25023 3.42567 5.25023H6.48185V3.46849ZM6.48185 6.93707H3.42567C2.45384 6.93707 1.66602 7.73474 1.66602 8.71872V20.5315C1.66602 21.5155 2.45384 22.3132 3.42567 22.3132H6.48185V6.93707ZM8.14787 22.3132V6.93707H16.8525V22.3132H8.14787ZM18.5185 22.3132H21.5743C22.5462 22.3132 23.334 21.5155 23.334 20.5315V8.71872C23.334 7.73474 22.5462 6.93707 21.5743 6.93707H18.5185V22.3132ZM16.8525 5.25023H8.14787V3.46849C8.14787 2.48451 8.9357 1.68684 9.90753 1.68684H15.0929C16.0647 1.68684 16.8525 2.48451 16.8525 3.46849V5.25023Z"
    fill="currentColor" />
</svg>