<svg width="18" height="18" viewBox="0 0 18 18" fill="none" xmlns="http://www.w3.org/2000/svg">
  <path fill-rule="evenodd" clip-rule="evenodd"
    d="M0 2.4375C0 1.0909 1.0909 0 2.4375 0H15.5625C16.9091 0 18 1.0909 18 2.4375V13.6875C18 15.0341 16.9091 16.125 15.5625 16.125H11.108L9.39775 17.8352C9.29226 17.9407 9.14918 18 9 18C8.85082 18 8.70774 17.9407 8.60225 17.8352L6.892 16.125H2.4375C1.0909 16.125 0 15.0341 0 13.6875V2.4375ZM2.4375 1.125C1.71222 1.125 1.125 1.71222 1.125 2.4375V13.6875C1.125 14.4128 1.71222 15 2.4375 15H7.125C7.27418 15 7.41726 15.0593 7.52275 15.1648L9 16.642L10.4773 15.1648C10.5827 15.0593 10.7258 15 10.875 15H15.5625C16.2878 15 16.875 14.4128 16.875 13.6875V2.4375C16.875 1.71222 16.2878 1.125 15.5625 1.125H2.4375ZM10.3033 5.58754C10.3033 4.87762 9.37077 4.61461 9.0001 5.22094L7.35352 7.91559V10.431L8.16293 11.102C8.2718 11.1924 8.41029 11.2425 8.55205 11.2425H11.9111C12.0806 11.2425 12.2308 11.1298 12.2779 10.9655L12.964 8.56426C13.0225 8.36037 12.9884 8.13952 12.8707 7.96267C12.7383 7.76357 12.5171 7.64535 12.2814 7.64535H10.8658C10.5551 7.64535 10.3033 7.39351 10.3033 7.08285V5.58754ZM6.22852 10.6529C6.22654 10.6802 6.22655 10.7075 6.22852 10.7347V11.2424H5.00977V7.21115H6.22851C6.22851 7.21084 6.22851 7.21146 6.22851 7.21115L6.22852 7.71754C6.22645 7.74538 6.22646 7.77324 6.22852 7.80088V10.6529ZM6.98531 6.36057C6.79754 6.19023 6.54919 6.08615 6.26695 6.08615H4.97133C4.37098 6.08615 3.88477 6.57237 3.88477 7.17271V11.2808C3.88477 11.8812 4.37098 12.3674 4.97133 12.3674H6.26695C6.67225 12.3674 7.04897 12.1371 7.23394 11.7932L7.44458 11.9678C7.44455 11.9678 7.44462 11.9678 7.44458 11.9678C7.75569 12.2261 8.14823 12.3675 8.55205 12.3675H11.9111C12.5835 12.3675 13.174 11.9215 13.3593 11.2759L14.0456 8.87387C14.1952 8.35223 14.1076 7.79077 13.8073 7.33953M6.98531 6.36057L8.04019 4.63424C9.00264 3.05994 11.4283 3.73996 11.4283 5.58754V6.52035H12.2814C12.8951 6.52035 13.4672 6.82816 13.8073 7.33953"
    fill="currentColor" />
</svg>