<svg width="20" height="20" viewBox="0 0 20 20" fill="none" xmlns="http://www.w3.org/2000/svg">
  <path fill-rule="evenodd" clip-rule="evenodd"
    d="M9.20748 0.714286C9.20748 0.319797 9.52962 0 9.92699 0C15.4906 0 20 4.4767 20 10C20 15.5233 15.4906 20 9.92699 20C9.52962 20 9.20748 19.6802 9.20748 19.2857C9.20748 18.8912 9.52962 18.5714 9.92699 18.5714C14.6959 18.5714 18.561 14.7343 18.561 10C18.561 5.26568 14.6959 1.42857 9.92699 1.42857C9.52962 1.42857 9.20748 1.10877 9.20748 0.714286ZM7.40862 1.03879C7.54436 1.40955 7.35164 1.81935 6.97817 1.95411C6.02028 2.29973 5.14218 2.80089 4.38095 3.43602C4.07675 3.68984 3.62289 3.65078 3.36723 3.34878C3.11156 3.04679 3.1509 2.59622 3.4551 2.3424C4.34841 1.59706 5.37427 1.01282 6.48662 0.611464C6.86009 0.47671 7.27288 0.668031 7.40862 1.03879ZM2.18851 4.74182C2.53257 4.93919 2.65032 5.37608 2.45151 5.71765C1.95676 6.56766 1.60577 7.50907 1.42827 8.51206C1.35951 8.90059 0.986495 9.16023 0.59512 9.09197C0.203744 9.02371 -0.0577868 8.6534 0.0109734 8.26486C0.218007 7.09499 0.627767 5.9956 1.20555 5.00292C1.40436 4.66135 1.84444 4.54445 2.18851 4.74182ZM9.63469 5.14428C10.0321 5.14428 10.3542 5.46407 10.3542 5.85856V10.2561L13.8088 12.3471C14.1481 12.5525 14.2555 12.992 14.0486 13.3288C13.8418 13.6656 13.399 13.7722 13.0597 13.5668L9.26014 11.2671C9.04591 11.1374 8.91519 10.9063 8.91519 10.6572V5.85856C8.91519 5.46407 9.23732 5.14428 9.63469 5.14428ZM0.59512 10.907C0.986495 10.8387 1.35951 11.0984 1.42827 11.4869C1.60577 12.4899 1.95676 13.4313 2.45151 14.2813C2.65032 14.6229 2.53257 15.0598 2.18851 15.2572C1.84444 15.4545 1.40436 15.3376 1.20555 14.9961C0.627767 14.0034 0.218007 12.904 0.0109734 11.7341C-0.0577868 11.3456 0.203744 10.9753 0.59512 10.907ZM3.36688 16.6516C3.62233 16.3494 4.07616 16.31 4.38055 16.5636C5.14198 17.198 6.02042 17.6993 6.97877 18.0461C7.35212 18.1812 7.54447 18.5911 7.4084 18.9618C7.27233 19.3324 6.85937 19.5234 6.48602 19.3883C5.37413 18.986 4.34861 18.402 3.45551 17.6579C3.15112 17.4043 3.11144 16.9538 3.36688 16.6516Z"
    fill="currentColor" />
</svg>