<svg width="20" height="20" viewBox="0 0 20 20" fill="none" xmlns="http://www.w3.org/2000/svg">
  <path fill-rule="evenodd" clip-rule="evenodd"
    d="M0.0798396 8.74397C0.712766 3.74186 4.9707 -0.00649621 10.0125 8.45281e-06C10.4068 0.000517126 10.726 0.320577 10.7255 0.714883C10.725 1.10919 10.405 1.42842 10.0107 1.42791C5.68884 1.42234 2.03894 4.63542 1.4964 8.92323C0.953857 13.211 3.68841 17.232 7.87542 18.3031C12.0624 19.3743 16.3919 17.1604 17.9749 13.1388C19.558 9.1172 17.8993 4.54606 14.1057 2.47553C13.7596 2.28663 13.6322 1.85291 13.8211 1.5068C14.0099 1.16069 14.4436 1.03324 14.7897 1.22214C19.2153 3.63761 21.1503 8.97026 19.3035 13.6618C17.4568 18.3534 12.4061 20.9361 7.52155 19.6865C2.63702 18.4369 -0.553086 13.7461 0.0798396 8.74397Z"
    fill="currentColor" />
  <path fill-rule="evenodd" clip-rule="evenodd"
    d="M5.17045 7.86769C5.17045 7.47338 5.49009 7.15374 5.88438 7.15374H14.1376C14.5319 7.15374 14.8516 7.47338 14.8516 7.86769C14.8516 8.262 14.5319 8.58164 14.1376 8.58164H5.88438C5.49009 8.58164 5.17045 8.262 5.17045 7.86769Z"
    fill="currentColor" />
  <path fill-rule="evenodd" clip-rule="evenodd"
    d="M9.05843 4.57639C9.07534 4.57518 9.09229 4.57458 9.10924 4.57458H10.9146C10.9316 4.57458 10.9485 4.57518 10.9655 4.57639C11.8808 4.64171 12.5746 5.42578 12.5313 6.33939V7.86777C12.5313 8.26208 12.2116 8.58173 11.8173 8.58173C11.4231 8.58173 11.1034 8.26208 11.1034 7.86777V6.32023C11.1034 6.3055 11.1039 6.29077 11.1048 6.27607C11.1132 6.13955 11.0147 6.02094 10.8811 6.00249H9.14274C9.00917 6.02094 8.91064 6.13955 8.9191 6.27607C8.92001 6.29077 8.92047 6.3055 8.92047 6.32023V7.86777C8.92047 8.26208 8.60083 8.58173 8.20654 8.58173C7.81225 8.58173 7.49261 8.26208 7.49261 7.86777V6.33939C7.44932 5.42578 8.14311 4.64171 9.05843 4.57639Z"
    fill="currentColor" />
  <path fill-rule="evenodd" clip-rule="evenodd"
    d="M6.78794 7.15383C7.18224 7.15383 7.50187 7.47348 7.50187 7.86778V13.8C7.50187 13.9755 7.64412 14.1178 7.8196 14.1178H12.2042C12.3796 14.1178 12.5219 13.9755 12.5219 13.8V7.86778C12.5219 7.47348 12.8415 7.15383 13.2358 7.15383C13.6301 7.15383 13.9497 7.47348 13.9497 7.86778V13.8C13.9497 14.7641 13.1682 15.5457 12.2042 15.5457H7.8196C6.85554 15.5457 6.07402 14.7641 6.07402 13.8V7.86778C6.07402 7.47348 6.39365 7.15383 6.78794 7.15383Z"
    fill="currentColor" />
  <path fill-rule="evenodd" clip-rule="evenodd"
    d="M13.7377 1.30822C13.7377 0.913916 14.0573 0.594268 14.4516 0.594268H17.4362C17.8305 0.594268 18.1501 0.913916 18.1501 1.30822C18.1501 1.70253 17.8305 2.02218 17.4362 2.02218H15.1655V4.29292C15.1655 4.68722 14.8459 5.00687 14.4516 5.00687C14.0573 5.00687 13.7377 4.68722 13.7377 4.29292V1.30822Z"
    fill="currentColor" />
</svg>