<svg width="18" height="20" viewBox="0 0 18 20" fill="none" xmlns="http://www.w3.org/2000/svg">
  <path fill-rule="evenodd" clip-rule="evenodd"
    d="M1.19217 4.35513C1.3278 4.20964 1.51808 4.12697 1.71737 4.12697H16.2481C16.4471 4.12697 16.6372 4.20939 16.7728 4.3545C16.9083 4.49961 16.9773 4.69435 16.9631 4.89213L16.0654 17.4196C15.9609 18.8733 14.7472 20 13.2848 20H4.71174C3.25203 20 2.03995 18.8776 1.93129 17.4271L1.0025 4.89386C0.987823 4.69582 1.05654 4.50063 1.19217 4.35513ZM13.2848 18.5714C13.9947 18.5714 14.5846 18.0245 14.6355 17.3179V17.3179L15.4783 5.55554H2.48907L3.36094 17.3207V17.3207C3.41394 18.0264 4.00341 18.5714 4.71174 18.5714H13.2848Z"
    fill="currentColor" />
  <path fill-rule="evenodd" clip-rule="evenodd"
    d="M9 8.25399C9.39588 8.25399 9.71681 8.57379 9.71681 8.96828V15.1588C9.71681 15.5533 9.39588 15.873 9 15.873C8.60411 15.873 8.28319 15.5533 8.28319 15.1588V8.96828C8.28319 8.57379 8.60411 8.25399 9 8.25399Z"
    fill="currentColor" />
  <path fill-rule="evenodd" clip-rule="evenodd"
    d="M0 4.84129C0 4.4468 0.320929 4.12701 0.716814 4.12701H17.2832C17.6791 4.12701 18 4.4468 18 4.84129C18 5.23578 17.6791 5.55558 17.2832 5.55558H0.716814C0.320929 5.55558 0 5.23578 0 4.84129Z"
    fill="currentColor" />
  <path fill-rule="evenodd" clip-rule="evenodd"
    d="M4.20073 1.8026C4.60901 0.718148 5.64879 0 6.81117 0H11.1888C12.3512 0 13.391 0.718148 13.7993 1.8026L14.8482 4.59053C14.9872 4.95991 14.7993 5.37162 14.4286 5.5101C14.0579 5.64859 13.6448 5.46141 13.5058 5.09202L12.457 2.30439C12.2585 1.77725 11.7535 1.42857 11.1888 1.42857H6.81117C6.24655 1.42857 5.74156 1.77719 5.54306 2.30424L4.4942 5.09202C4.35523 5.46141 3.94206 5.64859 3.57137 5.5101C3.20068 5.37162 3.01284 4.95991 3.15181 4.59053L4.20073 1.8026Z"
    fill="currentColor" />
  <path fill-rule="evenodd" clip-rule="evenodd"
    d="M12.604 8.25582C12.9989 8.28402 13.2961 8.62586 13.2678 9.01934L12.8226 15.2098C12.7943 15.6033 12.4512 15.8994 12.0563 15.8712C11.6615 15.843 11.3643 15.5012 11.3926 15.1077L11.8378 8.91722C11.8661 8.52374 12.2092 8.22762 12.604 8.25582Z"
    fill="currentColor" />
  <path fill-rule="evenodd" clip-rule="evenodd"
    d="M5.39595 8.25582C5.79082 8.22762 6.13387 8.52374 6.16217 8.91722L6.60739 15.1077C6.63569 15.5012 6.33852 15.843 5.94365 15.8712C5.54878 15.8994 5.20573 15.6033 5.17743 15.2098L4.73221 9.01934C4.70391 8.62586 5.00108 8.28402 5.39595 8.25582Z"
    fill="currentColor" />
</svg>