<svg width="19" height="20" viewBox="0 0 19 20" fill="none" xmlns="http://www.w3.org/2000/svg">
  <path fill-rule="evenodd" clip-rule="evenodd"
    d="M17.5715 11.6711C17.857 11.9568 17.8573 12.4201 17.572 12.7059L11.7184 18.5723C11.4331 18.8582 10.9704 18.8584 10.6849 18.5727C10.3994 18.2871 10.3992 17.8238 10.6845 17.5379L16.5381 11.6716C16.8233 11.3857 17.286 11.3855 17.5715 11.6711Z"
    fill="currentColor" />
  <path fill-rule="evenodd" clip-rule="evenodd"
    d="M14.1282 11.7073C12.2448 11.7073 10.7179 13.2361 10.7179 15.122C10.7179 17.0078 12.2448 18.5366 14.1282 18.5366C16.0116 18.5366 17.5385 17.0078 17.5385 15.122C17.5385 13.2361 16.0116 11.7073 14.1282 11.7073ZM9.25641 15.122C9.25641 12.4279 11.4376 10.2439 14.1282 10.2439C16.8188 10.2439 19 12.4279 19 15.122C19 17.816 16.8188 20 14.1282 20C11.4376 20 9.25641 17.816 9.25641 15.122Z"
    fill="currentColor" />
  <path fill-rule="evenodd" clip-rule="evenodd"
    d="M0 16.3415C0 13.7821 2.07212 11.7073 4.62821 11.7073H7.55128C7.95487 11.7073 8.28205 12.0349 8.28205 12.439C8.28205 12.8431 7.95487 13.1707 7.55128 13.1707H4.62821C2.8793 13.1707 1.46154 14.5903 1.46154 16.3415V17.3171C1.46154 17.7212 1.13436 18.0488 0.730769 18.0488C0.327177 18.0488 0 17.7212 0 17.3171V16.3415Z"
    fill="currentColor" />
  <path fill-rule="evenodd" clip-rule="evenodd"
    d="M8.52564 1.46341C6.77674 1.46341 5.35897 2.883 5.35897 4.63415C5.35897 6.38529 6.77674 7.80488 8.52564 7.80488C10.2745 7.80488 11.6923 6.38529 11.6923 4.63415C11.6923 2.883 10.2745 1.46341 8.52564 1.46341ZM3.89744 4.63415C3.89744 2.07478 5.96955 0 8.52564 0C11.0817 0 13.1538 2.07478 13.1538 4.63415C13.1538 7.19351 11.0817 9.26829 8.52564 9.26829C5.96955 9.26829 3.89744 7.19351 3.89744 4.63415Z"
    fill="currentColor" />
</svg>