<svg width="20" height="20" viewBox="0 0 20 20" fill="none" xmlns="http://www.w3.org/2000/svg">
  <path fill-rule="evenodd" clip-rule="evenodd"
    d="M5.65765 12.9187C6.28758 12.3356 7.11466 12.0106 7.97458 12.0106H12.0221C12.8802 12.0106 13.7088 12.334 14.3396 12.9192C14.7114 13.2638 15.002 13.6876 15.1898 14.1585L15.4829 14.8944C15.6288 15.2609 15.4501 15.6763 15.0837 15.8223C14.7173 15.9683 14.302 15.7895 14.1561 15.4231L13.8632 14.6877C13.754 14.4139 13.5846 14.167 13.3687 13.967C13.0031 13.6277 12.5214 13.4391 12.0221 13.4391H7.97458C7.47513 13.4391 6.99439 13.6278 6.62795 13.967M5.65765 12.9187C5.28571 13.2633 4.99469 13.6875 4.80688 14.1585L4.51381 14.8944C4.36787 15.2609 4.54658 15.6763 4.91297 15.8223C5.27936 15.9683 5.69469 15.7895 5.84063 15.4231L6.13343 14.6877C6.24265 14.414 6.41215 14.167 6.62795 13.967"
    fill="currentColor" />
  <path fill-rule="evenodd" clip-rule="evenodd"
    d="M11.5007 6.17741C10.6718 5.34832 9.32793 5.34832 8.49906 6.17741C7.67019 7.0065 7.67019 8.35073 8.49906 9.17981C9.32793 10.0089 10.6718 10.0089 11.5007 9.17981C12.3295 8.35073 12.3295 7.0065 11.5007 6.17741ZM12.5106 5.16726C11.1239 3.78028 8.87579 3.78028 7.48917 5.16726C6.10255 6.55424 6.10255 8.80299 7.48917 10.19C8.87579 11.5769 11.1239 11.5769 12.5106 10.19C13.8972 8.80299 13.8972 6.55424 12.5106 5.16726Z"
    fill="currentColor" />
  <path fill-rule="evenodd" clip-rule="evenodd"
    d="M0 2.77778C0 1.24321 1.24288 0 2.77705 0H5.44651C5.8409 0 6.16061 0.319797 6.16061 0.714286C6.16061 1.10878 5.8409 1.42857 5.44651 1.42857H2.77705C2.03166 1.42857 1.4282 2.03219 1.4282 2.77778V5.44794C1.4282 5.84243 1.10849 6.16222 0.714099 6.16222C0.319713 6.16222 0 5.84243 0 5.44794V2.77778Z"
    fill="currentColor" />
  <path fill-rule="evenodd" clip-rule="evenodd"
    d="M19.2859 13.8378C19.6803 13.8378 20 14.1576 20 14.5521V17.2222C20 18.7568 18.7571 20 17.2229 20H14.5535C14.1591 20 13.8394 19.6802 13.8394 19.2857C13.8394 18.8912 14.1591 18.5714 14.5535 18.5714H17.2229C17.9683 18.5714 18.5718 17.9678 18.5718 17.2222V14.5521C18.5718 14.1576 18.8915 13.8378 19.2859 13.8378Z"
    fill="currentColor" />
  <path fill-rule="evenodd" clip-rule="evenodd"
    d="M0.714099 13.8378C1.10849 13.8378 1.4282 14.1576 1.4282 14.5521V17.2222C1.4282 17.9678 2.03166 18.5714 2.77705 18.5714H5.44651C5.8409 18.5714 6.16061 18.8912 6.16061 19.2857C6.16061 19.6802 5.8409 20 5.44651 20H2.77705C1.24288 20 0 18.7568 0 17.2222V14.5521C0 14.1576 0.319713 13.8378 0.714099 13.8378Z"
    fill="currentColor" />
  <path fill-rule="evenodd" clip-rule="evenodd"
    d="M13.8394 0.714286C13.8394 0.319797 14.1591 0 14.5535 0H17.2229C18.7571 0 20 1.24321 20 2.77778V5.44794C20 5.84243 19.6803 6.16222 19.2859 6.16222C18.8915 6.16222 18.5718 5.84243 18.5718 5.44794V2.77778C18.5718 2.03219 17.9683 1.42857 17.2229 1.42857H14.5535C14.1591 1.42857 13.8394 1.10878 13.8394 0.714286Z"
    fill="currentColor" />
</svg>