<svg width="20" height="20" viewBox="0 0 20 20" fill="none" xmlns="http://www.w3.org/2000/svg">
  <path fill-rule="evenodd" clip-rule="evenodd"
    d="M13.4135 11.2779C13.4135 10.0482 14.3884 9.05201 15.5916 9.05201H19.2858C19.6802 9.05201 20 9.37878 20 9.78188C20 10.185 19.6802 10.5117 19.2858 10.5117H15.5916C15.1772 10.5117 14.8419 10.8544 14.8419 11.2779V12.5029C14.8419 12.9263 15.1772 13.269 15.5916 13.269H19.2858C19.6802 13.269 20 13.5958 20 13.9989C20 14.402 19.6802 14.7287 19.2858 14.7287H15.5916C14.3884 14.7287 13.4135 13.7325 13.4135 12.5029V11.2779Z"
    fill="currentColor" />
  <path fill-rule="evenodd" clip-rule="evenodd"
    d="M2.77743 5.24055C2.03194 5.24055 1.42839 5.85733 1.42839 6.61918V17.1616C1.42839 17.9235 2.03194 18.5403 2.77743 18.5403H17.2201C17.9656 18.5403 18.5691 17.9235 18.5691 17.1616V6.61918C18.5691 5.85733 17.9656 5.24055 17.2201 5.24055H2.77743ZM0 6.61918C0 5.05114 1.24306 3.78082 2.77743 3.78082H17.2201C18.7545 3.78082 19.9975 5.05114 19.9975 6.61918V17.1616C19.9975 18.7297 18.7545 20 17.2201 20H2.77743C1.24306 20 0 18.7297 0 17.1616V6.61918Z"
    fill="currentColor" />
  <path fill-rule="evenodd" clip-rule="evenodd"
    d="M6.7009 0.523191C7.38268 -0.174895 8.48811 -0.173811 9.16989 0.52293L12.567 3.99456C12.8459 4.27959 12.8459 4.74172 12.567 5.02675C12.2881 5.31178 11.8359 5.31178 11.557 5.02675L8.15986 1.55511C8.03506 1.42757 7.83475 1.42852 7.71183 1.55445L4.31407 5.02675C4.03515 5.31178 3.58295 5.31178 3.30404 5.02675C3.02513 4.74172 3.02513 4.27959 3.30404 3.99456L6.7009 0.523191V0.523191Z"
    fill="currentColor" />
  <path fill-rule="evenodd" clip-rule="evenodd"
    d="M12.2857 1.55445C12.1628 1.42852 11.9625 1.42757 11.8377 1.55511L10.5038 2.91825C10.2249 3.20328 9.77266 3.20328 9.49375 2.91825C9.21484 2.63322 9.21484 2.1711 9.49375 1.88607L10.8276 0.52293C11.5094 -0.173811 12.6148 -0.174895 13.2966 0.523191V0.523191L16.6935 3.99456C16.9724 4.27959 16.9724 4.74172 16.6935 5.02675C16.4146 5.31178 15.9624 5.31178 15.6835 5.02675L12.2857 1.55445Z"
    fill="currentColor" />
</svg>