<svg width="350" height="525" viewBox="0 0 350 525" fill="none" xmlns="http://www.w3.org/2000/svg">
<path d="M337.92 126.598C337.92 119.928 343.33 114.518 350 114.518V11.9998C350 5.3999 344.6 0 338 0H12C5.4 0 0 5.3999 0 11.9998V114.528C6.67 114.528 12.08 119.938 12.08 126.608C12.08 133.277 6.67 138.687 0 138.687V513C0 519.6 5.4 525 12 525H338C344.6 525 350 519.6 350 513V138.677C343.33 138.677 337.92 133.267 337.92 126.598Z" fill="#EEEEEE"/>
<rect y="235" width="350" height="290" fill="url(#paint0_linear_1963_4365)"/>
<path d="M26 125.74H38V127.86H26V125.74Z" fill="#E1E1E1"/>
<path d="M51.9961 125.74H63.9961V127.86H51.9961V125.74Z" fill="#E1E1E1"/>
<path d="M77.9922 125.74H89.9922V127.86H77.9922V125.74Z" fill="#E1E1E1"/>
<path d="M103.988 125.74H115.988V127.86H103.988V125.74Z" fill="#E1E1E1"/>
<path d="M129.984 125.74H141.984V127.86H129.984V125.74Z" fill="#E1E1E1"/>
<path d="M155.98 125.74H167.98V127.86H155.98V125.74Z" fill="#E1E1E1"/>
<path d="M181.977 125.74H193.977V127.86H181.977V125.74Z" fill="#E1E1E1"/>
<path d="M207.973 125.74H219.973V127.86H207.973V125.74Z" fill="#E1E1E1"/>
<path d="M233.969 125.74H245.969V127.86H233.969V125.74Z" fill="#E1E1E1"/>
<path d="M259.965 125.74H271.965V127.86H259.965V125.74Z" fill="#E1E1E1"/>
<path d="M285.961 125.74H297.961V127.86H285.961V125.74Z" fill="#E1E1E1"/>
<path d="M311.957 125.74H323.957V127.86H311.957V125.74Z" fill="#E1E1E1"/>
<defs>
<linearGradient id="paint0_linear_1963_4365" x1="175" y1="525" x2="175" y2="380" gradientUnits="userSpaceOnUse">
<stop stop-color="white"/>
<stop offset="1" stop-color="white" stop-opacity="0"/>
</linearGradient>
</defs>
</svg>
