<svg width="62" height="64" viewBox="0 0 62 64" fill="none" xmlns="http://www.w3.org/2000/svg">
<path d="M33.2609 61.99C37.2009 62.01 41.1309 62.04 45.0709 62.06C45.6209 62.06 46.1909 62.06 46.4409 62.68C46.6609 63.23 46.3509 63.63 45.9509 63.97H15.0909C14.4609 62.51 14.7609 62.07 16.4009 62.06C19.9509 62.03 23.5009 62.01 27.0509 61.99C27.3309 61.72 27.6909 61.59 28.0609 61.62C29.7909 61.74 31.5809 61.18 33.2609 61.99Z" fill="#7FAB40"/>
<path d="M27.5109 51.06C23.2309 51.88 19.7009 50.39 16.6609 47.49C16.0809 46.94 15.5608 46.77 14.7908 46.86C7.95085 47.65 1.10085 42.25 0.150849 35.36C-0.709151 29.07 2.14085 23.62 7.86085 20.73C8.36085 20.48 8.62085 20.29 8.55085 19.64C7.31085 8.96 17.1409 0.850003 27.3708 4.13C28.1509 4.38 28.5109 4.27 28.9708 3.63C30.1609 2.01 31.7808 0.980003 33.7608 0.550003C35.5909 1.14 37.0908 2.21 38.1508 3.82C38.5608 4.44 39.0808 4.71 39.8108 4.68C41.0208 4.62 42.2108 4.75 43.3708 5.08C47.1308 5.98 50.0209 8.07 51.9309 11.45C52.1609 11.85 52.7209 12.34 51.9309 12.78C51.3809 12.63 51.0709 12.15 50.6708 11.8C49.2509 10.55 47.6409 9.79 45.7209 9.8C45.3209 9.8 44.7808 9.8 44.7608 10.35C44.7608 10.8 45.2409 10.85 45.6109 10.91C47.3609 11.21 48.9709 11.77 50.2009 13.16C51.1309 14.21 51.8609 15.34 51.9809 16.77C52.0709 17.76 52.4309 18.51 53.5009 18.73C53.7009 19.96 53.3708 21.12 52.9809 22.24C52.7108 23.01 52.7509 23.63 53.2209 24.33C57.7709 31.16 57.3808 40.48 51.4908 46.72C48.4008 50 44.5909 52.11 39.9809 52.47C37.4709 52.33 35.0909 51.65 32.7509 50.79C31.8909 49.4 31.9109 47.3 32.8708 46.14C34.2208 44.51 35.5108 42.84 36.8708 41.22C37.4208 40.56 38.0508 40.23 38.9008 40.24C39.7708 40.26 40.6508 40.19 41.5108 40.26C42.6409 40.35 43.2909 39.86 43.7009 38.85C44.4809 36.89 45.4909 35.03 46.4109 33.18C45.2409 34.43 44.0008 35.65 42.7408 36.86C42.2908 37.29 41.7408 37.41 41.1409 37.42C40.0608 37.43 38.9809 37.46 37.9109 37.42C36.8609 37.37 36.1008 37.73 35.4608 38.58C34.6708 39.64 33.7909 40.64 32.9109 41.64C32.6908 41.89 32.4408 42.19 32.0808 42.07C31.7208 41.94 31.7009 41.54 31.7009 41.22C31.6709 37.32 31.6409 33.43 31.7108 29.53C31.7208 28.88 32.0608 28.35 32.4608 27.86C33.3909 26.71 34.2309 25.49 35.2509 24.24C34.2808 24.5 33.4809 24.8 32.6908 25.15C31.6908 25.59 30.8708 25.43 30.1108 24.63C28.3408 22.77 26.3808 21.09 24.8909 19.14C25.9508 21.61 27.2208 24.11 28.4708 26.62C28.7509 27.19 28.8508 27.8 28.8508 28.43C28.8508 31.79 28.8508 35.15 28.8508 38.5C28.8508 38.71 28.8509 38.92 28.8209 39.12C28.7709 39.4 28.7708 39.73 28.4408 39.85C28.1208 39.96 27.8709 39.74 27.6809 39.53C27.0309 38.78 26.3109 38.08 25.6809 37.31C24.9409 36.41 24.0909 35.62 23.4009 34.68C22.8909 33.98 22.2208 33.71 21.3608 33.72C19.4708 33.72 17.5808 33.77 15.7708 33.7C17.2908 34.26 18.8309 34.97 20.4109 35.61C20.9209 35.82 21.3309 36.17 21.6709 36.6C23.5909 39.05 25.5308 41.47 27.4408 43.92C27.6409 44.18 27.9208 44.44 27.9508 44.76C28.1208 46.89 28.4409 49.04 27.5009 51.09L27.5109 51.06Z" fill="#A2C668"/>
<path d="M27.5107 51.06C27.5807 50.4 27.6407 49.74 27.7207 49.08C28.0507 46.49 27.8107 44.16 25.7507 42.16C24.2807 40.73 23.1207 38.96 21.8807 37.31C21.2407 36.45 20.4907 35.85 19.4607 35.49C17.8707 34.92 16.3307 34.22 14.4707 33.44C16.0107 33.17 17.2607 33.3 18.4907 33.29C22.7907 33.27 22.7807 33.29 25.5207 36.56C26.4207 37.63 27.3707 38.66 28.3107 39.72C28.7407 39.45 28.5607 39.09 28.5607 38.79C28.5707 35.31 28.5607 31.82 28.5807 28.34C28.5807 27.7 28.4407 27.13 28.1507 26.56C26.7607 23.79 25.3907 21.01 24.2107 18.04C24.6407 18.47 25.0707 18.9 25.5007 19.34C27.2007 21.09 28.9207 22.84 30.6007 24.62C31.0607 25.11 31.4807 25.24 32.1207 24.97C33.3307 24.47 34.5707 24.05 35.9507 23.8C34.8607 25.23 33.7907 26.68 32.6607 28.08C32.1607 28.7 31.9507 29.32 31.9607 30.12C31.9907 34.02 31.9707 37.91 31.9707 42.17C33.1607 40.79 34.2307 39.68 35.1207 38.45C35.8807 37.4 36.7407 36.86 38.0307 37.09C40.9507 37.62 43.2307 36.63 44.9707 34.23C45.5207 33.47 46.2807 32.86 47.1307 32.29C45.8807 34.92 44.6307 37.55 43.3807 40.18C43.1807 40.6 42.7907 40.57 42.4207 40.57C41.1307 40.57 39.8507 40.59 38.5607 40.56C38.0007 40.55 37.6407 40.74 37.3007 41.17C35.9107 42.92 34.5007 44.66 33.0607 46.37C32.6407 46.88 32.4107 47.4 32.4807 48.07C32.5807 48.97 32.6507 49.88 32.7307 50.79C32.9007 54.52 33.0707 58.25 33.2307 61.98C31.1607 61.98 29.0807 61.98 27.0107 61.98C27.1707 58.34 27.3207 54.69 27.4807 51.05L27.5107 51.06Z" fill="#8C5A45"/>
<path d="M51.9307 12.71C52.3507 12.25 51.8807 11.96 51.7007 11.65C50.0007 8.66001 47.5107 6.64001 44.2207 5.62001C43.9607 5.54001 43.6307 5.54001 43.4607 5.25001C43.5107 5.14001 43.5907 5.07001 43.7007 5.04001C50.0907 4.77001 54.8307 7.38001 57.2207 12.53C58.7407 15.8 58.8507 19.16 57.6207 22.54C57.3807 23.21 57.4407 23.65 57.8407 24.23C65.4707 35.4 59.0407 49.93 45.4507 52.29C43.6407 52.6 41.8307 52.64 40.0107 52.47C43.0307 51.75 45.9407 50.77 48.4807 48.91C53.2007 45.46 55.7707 40.91 55.9407 34.98C56.0607 30.85 54.9207 27.17 52.5107 23.86C52.2907 23.55 52.2207 23.32 52.3907 22.97C53.0507 21.62 53.1807 20.13 53.4207 18.67C53.3007 17.07 53.3107 15.46 52.4307 14.02C52.1807 13.62 51.7607 13.25 51.9407 12.68L51.9307 12.71Z" fill="#93BE53"/>
<path d="M43.7007 5.04001C43.6207 5.11001 43.5407 5.18001 43.4607 5.25001C41.9807 5.20001 40.5107 4.87001 39.0207 4.99001C38.7107 5.02001 38.4507 4.88001 38.2907 4.60001C37.3107 2.82001 35.7607 1.70001 33.9807 0.840005C33.8807 0.790005 33.8307 0.650005 33.7607 0.550005C37.2007 -0.379995 40.9107 1.02 42.9807 4.04C43.2107 4.38 43.4607 4.70001 43.6907 5.04001H43.7007Z" fill="#93BE53"/>
<path d="M51.931 12.71C52.981 14.14 53.691 15.68 53.671 17.5C53.671 17.92 53.631 18.32 53.411 18.7C52.541 19.13 52.111 18.78 51.901 17.91C51.621 16.8 51.621 15.64 50.961 14.61C49.661 12.59 47.861 11.46 45.491 11.24C44.851 11.18 44.251 11.03 44.271 10.32C44.301 9.62 44.911 9.47 45.561 9.47C48.231 9.47 50.311 10.65 51.941 12.71H51.931Z" fill="#7EAB40"/>
</svg>
