<svg width="25" height="25" viewBox="0 0 25 25" fill="none" xmlns="http://www.w3.org/2000/svg">
  <path fill-rule="evenodd" clip-rule="evenodd"
    d="M12.5 1.5625C6.45882 1.5625 1.5625 6.45882 1.5625 12.5C1.5625 18.5412 6.45882 23.4375 12.5 23.4375C18.5412 23.4375 23.4375 18.5412 23.4375 12.5C23.4375 6.45882 18.5412 1.5625 12.5 1.5625ZM0 12.5C0 5.59587 5.59587 0 12.5 0C19.4041 0 25 5.59587 25 12.5C25 19.4041 19.4041 25 12.5 25C5.59587 25 0 19.4041 0 12.5ZM12.5 6.51042C12.9315 6.51042 13.2812 6.86019 13.2812 7.29167V11.7187H17.7083C18.1398 11.7187 18.4896 12.0685 18.4896 12.5C18.4896 12.9315 18.1398 13.2812 17.7083 13.2812H13.2812V17.7083C13.2812 18.1398 12.9315 18.4896 12.5 18.4896C12.0685 18.4896 11.7187 18.1398 11.7187 17.7083V13.2812H7.29167C6.86019 13.2812 6.51042 12.9315 6.51042 12.5C6.51042 12.0685 6.86019 11.7187 7.29167 11.7187H11.7187V7.29167C11.7187 6.86019 12.0685 6.51042 12.5 6.51042Z"
    fill="currentColor" />
</svg>