<svg width="27" height="30" viewBox="0 0 27 30" fill="none" xmlns="http://www.w3.org/2000/svg">
  <path fill-rule="evenodd" clip-rule="evenodd"
    d="M10.6479 0.312334C11.3507 0.106974 12.0856 -1.4494e-06 12.8317 0C13.5778 -1.4494e-06 14.3127 0.106974 15.0155 0.312334C15.0524 0.320647 15.0883 0.33148 15.1231 0.344638C16.3039 0.708275 17.39 1.35104 18.2806 2.23159C19.7257 3.66046 20.5376 5.59842 20.5376 7.61914V8.72247C20.5376 8.92219 20.5096 9.11545 20.4572 9.29862C20.7652 9.40933 20.9851 9.70129 20.9851 10.0441C20.9851 10.482 20.6261 10.837 20.1832 10.837H18.9802V12.6866C18.9802 14.6613 18.028 16.4161 16.5528 17.5265L16.9513 19.1028C17.0587 19.5277 16.7975 19.9582 16.3678 20.0644C15.9381 20.1706 15.5026 19.9123 15.3952 19.4875L15.1044 18.3371C14.4013 18.6138 13.6345 18.7659 12.8317 18.7659C12.03 18.7659 11.2642 18.6142 10.562 18.3383L9.98795 20.6088C11.2354 21.1964 12.6469 21.3831 14.0205 21.1284C14.4558 21.0477 14.8749 21.3312 14.9566 21.7616C15.0382 22.192 14.7515 22.6064 14.3161 22.6871C12.226 23.0747 10.0655 22.6409 8.29373 21.4781L8.29238 21.4772C8.20262 21.418 8.09266 21.3965 7.98682 21.4175L4.18274 22.1696C4.18273 22.1696 4.18275 22.1696 4.18274 22.1696C2.68328 22.4662 1.60394 23.768 1.60396 25.2799V25.9031C1.60396 26.341 1.2449 26.696 0.80198 26.696C0.359059 26.696 4.61092e-10 26.341 4.61092e-10 25.9031V25.28C-3.15487e-05 23.012 1.61895 21.0594 3.86815 20.6145L7.67219 19.8624C7.95525 19.8064 8.24423 19.8118 8.52017 19.875L9.11339 17.5286C7.63659 16.4183 6.68317 14.6625 6.68317 12.6866V10.837H5.4802C5.03728 10.837 4.67822 10.482 4.67822 10.0441C4.67822 9.70129 4.89817 9.40933 5.20612 9.29862C5.15378 9.11546 5.12578 8.92219 5.12578 8.72247V7.61914C5.12578 5.59842 5.93765 3.66046 7.38279 2.23159C8.27337 1.35104 9.35949 0.708275 10.5402 0.344637C10.575 0.331479 10.611 0.320648 10.6479 0.312334ZM10.0248 2.26212C9.47348 2.54448 8.9641 2.91089 8.51696 3.35299C7.37262 4.48445 6.72974 6.01903 6.72974 7.61914V8.72247C6.72974 9.01442 6.96911 9.2511 7.26439 9.2511H18.399C18.6943 9.2511 18.9336 9.01442 18.9336 8.72247V7.61914C18.9336 6.01903 18.2907 4.48445 17.1464 3.35299C16.6993 2.91089 16.1899 2.54448 15.6386 2.26212V2.90822C15.6386 4.44099 14.3819 5.68355 12.8317 5.68355C11.2815 5.68355 10.0248 4.44099 10.0248 2.90822V2.26212ZM14.0347 1.70428V2.90822C14.0347 3.56512 13.4961 4.09764 12.8317 4.09764C12.1673 4.09764 11.6287 3.56512 11.6287 2.90822V1.70428C12.0219 1.6261 12.4247 1.5859 12.8317 1.5859C13.2387 1.5859 13.6415 1.6261 14.0347 1.70428ZM17.3762 10.837H8.28713V12.6866C8.28713 14.2938 9.14056 15.7039 10.4238 16.4981C10.4401 16.5073 10.4561 16.5171 10.4717 16.5273C11.1595 16.9414 11.9674 17.18 12.8317 17.18C15.3416 17.18 17.3762 15.1682 17.3762 12.6866V10.837ZM21.5198 20.7489C19.379 20.7489 17.6436 22.4648 17.6436 24.5815C17.6436 26.6982 19.379 28.4141 21.5198 28.4141C23.6606 28.4141 25.396 26.6982 25.396 24.5815C25.396 22.4648 23.6606 20.7489 21.5198 20.7489ZM16.0396 24.5815C16.0396 21.5889 18.4932 19.163 21.5198 19.163C24.5464 19.163 27 21.5889 27 24.5815C27 27.5741 24.5464 30 21.5198 30C18.4932 30 16.0396 27.5741 16.0396 24.5815ZM23.6461 23.2498C23.9594 23.5594 23.9595 24.0614 23.6464 24.3712L21.6982 26.2984C21.3851 26.6081 20.8774 26.6083 20.5641 26.2988L19.3935 25.1424C19.0802 24.8329 19.08 24.3308 19.393 24.021C19.7061 23.7112 20.2139 23.711 20.5272 24.0206L21.1306 24.6166L22.512 23.2501C22.8251 22.9403 23.3329 22.9402 23.6461 23.2498Z"
    fill="currentColor" />
</svg>