<svg width="25" height="25" viewBox="0 0 25 25" fill="none" xmlns="http://www.w3.org/2000/svg">
  <path
    d="M15.3318 1.58709C15.3578 1.4899 15.4026 1.39877 15.4637 1.31892C15.5249 1.23906 15.6012 1.17204 15.6882 1.1217C15.7753 1.07135 15.8714 1.03866 15.9712 1.02549C16.0709 1.01233 16.1722 1.01895 16.2694 1.04497C18.1178 1.52716 19.8043 2.49345 21.1552 3.84429C22.506 5.19514 23.4722 6.88169 23.9544 8.73022C23.9804 8.82738 23.987 8.92871 23.9739 9.02843C23.9607 9.12814 23.928 9.22429 23.8777 9.31136C23.8273 9.39843 23.7603 9.47473 23.6805 9.53588C23.6006 9.59703 23.5095 9.64185 23.4123 9.66776C23.3478 9.68493 23.2813 9.69351 23.2146 9.69327C23.046 9.69337 22.882 9.63778 22.7483 9.53514C22.6145 9.4325 22.5183 9.28854 22.4748 9.12565C22.0608 7.53781 21.2309 6.08909 20.0707 4.92879C18.9104 3.7685 17.4617 2.93859 15.8739 2.52462C15.7768 2.49871 15.6856 2.4539 15.6058 2.39274C15.5259 2.33159 15.4589 2.2553 15.4086 2.16822C15.3582 2.08115 15.3255 1.98501 15.3124 1.88529C15.2992 1.78557 15.3058 1.68424 15.3318 1.58709ZM14.8535 6.60641C16.7094 7.10133 17.8982 8.29015 18.3931 10.1461C18.4367 10.309 18.5328 10.4529 18.6666 10.5556C18.8004 10.6582 18.9643 10.7138 19.1329 10.7137C19.1996 10.714 19.2661 10.7054 19.3306 10.6882C19.4278 10.6623 19.5189 10.6175 19.5988 10.5563C19.6786 10.4952 19.7456 10.4189 19.796 10.3318C19.8463 10.2447 19.879 10.1486 19.8922 10.0489C19.9054 9.94916 19.8987 9.84782 19.8727 9.75067C19.235 7.3641 17.6354 5.76454 15.2489 5.12676C15.1518 5.1008 15.0505 5.09423 14.9508 5.10742C14.8511 5.12061 14.755 5.15331 14.6679 5.20365C14.4921 5.30532 14.3639 5.47266 14.3114 5.66888C14.259 5.86509 14.2866 6.0741 14.3883 6.24992C14.49 6.42574 14.6573 6.55398 14.8535 6.60641ZM24.9863 18.9793C24.7678 20.6468 23.9495 22.1776 22.6845 23.2856C21.4194 24.3937 19.7942 25.0031 18.1125 25C8.12512 25 1.27198e-05 16.8747 1.27198e-05 6.88704C-0.00320895 5.2059 0.605658 3.58109 1.71288 2.31609C2.8201 1.0511 4.34996 0.232441 6.01667 0.0130445C6.40035 -0.0335829 6.78879 0.0455315 7.12367 0.238506C7.45855 0.43148 7.72178 0.727897 7.87384 1.08324L10.5652 7.09113C10.684 7.36311 10.7332 7.66043 10.7083 7.95619C10.6833 8.25195 10.585 8.53683 10.4223 8.78507C10.4059 8.81034 10.388 8.83462 10.3688 8.85778L7.68123 12.0543C7.66492 12.0875 7.65643 12.1239 7.65643 12.1608C7.65643 12.1978 7.66492 12.2342 7.68123 12.2673C8.65829 14.2674 10.7553 16.3491 12.7833 17.3249C12.8172 17.3404 12.8542 17.3477 12.8914 17.3464C12.9286 17.3451 12.965 17.3351 12.9976 17.3173L16.1469 14.6386C16.1694 14.619 16.1933 14.6011 16.2183 14.585C16.4655 14.4203 16.7498 14.3198 17.0456 14.2926C17.3413 14.2654 17.6392 14.3124 17.9122 14.4294L23.9378 17.1298C24.2884 17.2852 24.5797 17.5493 24.7685 17.8831C24.9573 18.2169 25.0337 18.6026 24.9863 18.9832V18.9793ZM23.4697 18.7906C23.474 18.7372 23.4614 18.6839 23.4337 18.6381C23.406 18.5923 23.3646 18.5564 23.3154 18.5355L17.2885 15.8351C17.2556 15.8224 17.2203 15.8169 17.1851 15.8191C17.1498 15.8214 17.1155 15.8311 17.0844 15.8478L13.9364 18.5265C13.9135 18.5457 13.8892 18.5635 13.865 18.5801C13.6082 18.7513 13.3114 18.8531 13.0036 18.8754C12.6958 18.8978 12.3874 18.84 12.1086 18.7077C9.76672 17.5762 7.43251 15.2636 6.30111 12.9434C6.16804 12.6662 6.10881 12.3593 6.12914 12.0525C6.14948 11.7457 6.2487 11.4493 6.41719 11.1921C6.43361 11.1665 6.45195 11.1422 6.47203 11.1193L9.15829 7.92279C9.17364 7.88938 9.18159 7.85305 9.18159 7.81628C9.18159 7.77952 9.17364 7.74318 9.15829 7.70977L6.47203 1.69678C6.45431 1.64853 6.42241 1.60675 6.38053 1.57693C6.33865 1.54711 6.28874 1.53064 6.23734 1.52969H6.208C4.91072 1.70226 3.72059 2.34112 2.85986 3.32698C1.99914 4.31285 1.52665 5.5783 1.53064 6.88704C1.53064 16.0303 8.96952 23.4693 18.1125 23.4693C19.4214 23.4733 20.687 23.0006 21.6728 22.1396C22.6587 21.2786 23.2974 20.0881 23.4697 18.7906Z"
    fill="currentColor" />
</svg>