<svg width="30" height="30" viewBox="0 0 30 30" fill="none" xmlns="http://www.w3.org/2000/svg">
<path fill-rule="evenodd" clip-rule="evenodd" d="M14.9998 1.88176C7.69106 1.88176 1.87498 7.2568 1.87498 13.7698C1.87498 17.6276 3.90723 21.0566 7.09002 23.2409C7.34586 23.4165 7.4987 23.7076 7.49834 24.0187C7.49744 24.7913 7.4981 25.7184 7.49882 26.7293C7.499 26.9946 7.4992 27.2657 7.49937 27.5412L11.6616 25.4703C11.8852 25.3591 12.1318 25.3457 12.353 25.4138C13.2107 25.5733 14.0943 25.6594 15.0002 25.6594C22.2984 25.6594 28.1085 20.2982 28.125 13.7975C28.1248 13.7888 28.1246 13.7801 28.1246 13.7714C28.1246 7.25822 22.3084 1.88176 14.9998 1.88176ZM29.9996 13.7412C29.9818 6.03322 23.1554 0 14.9998 0C6.83375 0 0 6.04727 0 13.7698C0 18.1532 2.22559 22.0018 5.623 24.5036C5.62273 25.1693 5.62327 25.9254 5.62384 26.7339C5.62436 27.4684 5.62492 28.2461 5.62493 29.0385C5.62406 29.0798 5.62591 29.1214 5.63056 29.1629C5.68202 29.6337 6.07959 30 6.56241 30C6.7313 30 6.88976 29.9552 7.02663 29.8767L12.207 27.2993C13.1119 27.4564 14.0443 27.5412 15.0002 27.5412C23.1664 27.5412 30 21.4922 30 13.7698C30 13.7602 29.9999 13.7507 29.9996 13.7412ZM7.81078 13.155C8.32944 12.6345 9.17035 12.6345 9.689 13.155C10.2077 13.6755 10.2077 14.5195 9.689 15.04C9.17035 15.5606 8.32944 15.5606 7.81078 15.04C7.29212 14.5195 7.29212 13.6755 7.81078 13.155ZM8.3632 14.4856C8.57676 14.6999 8.92302 14.6999 9.13659 14.4856C9.35015 14.2713 9.35015 13.9237 9.13659 13.7094C8.92302 13.4951 8.57676 13.4951 8.3632 13.7094C8.14963 13.9237 8.14963 14.2713 8.3632 14.4856ZM14.0607 13.155C14.5794 12.6345 15.4203 12.6345 15.939 13.155C16.4576 13.6755 16.4576 14.5195 15.939 15.04C15.4203 15.5606 14.5794 15.5606 14.0607 15.04C13.5421 14.5195 13.5421 13.6755 14.0607 13.155ZM14.6131 14.4856C14.8267 14.6999 15.173 14.6999 15.3865 14.4856C15.6001 14.2713 15.6001 13.9237 15.3865 13.7094C15.173 13.4951 14.8267 13.4951 14.6131 13.7094C14.3996 13.9237 14.3996 14.2713 14.6131 14.4856ZM20.3106 13.155C20.8293 12.6345 21.6702 12.6345 22.1889 13.155C22.7075 13.6755 22.7075 14.5195 22.1889 15.04C21.6702 15.5606 20.8293 15.5606 20.3106 15.04C19.792 14.5195 19.792 13.6755 20.3106 13.155ZM20.8631 14.4856C21.0766 14.6999 21.4229 14.6999 21.6365 14.4856C21.85 14.2713 21.85 13.9237 21.6365 13.7094C21.4229 13.4951 21.0766 13.4951 20.8631 13.7094C20.6495 13.9237 20.6495 14.2713 20.8631 14.4856Z" fill="white"/>
</svg>
