<svg width="20" height="20" viewBox="0 0 20 20" fill="none" xmlns="http://www.w3.org/2000/svg">
  <path fill-rule="evenodd" clip-rule="evenodd"
    d="M14.7924 3.1273C11.4833 0.81945 6.99938 1.19757 4.12352 4.02699C1.24765 6.8564 0.796543 11.3336 3.05017 14.6798C5.30379 18.0261 9.62213 19.2911 13.3251 17.6898C17.028 16.0885 19.064 12.0755 18.1694 8.14159C18.0701 7.70514 18.3435 7.27086 18.7799 7.1716C19.2164 7.07234 19.6506 7.3457 19.7499 7.78215C20.8176 12.4772 18.3878 17.2664 13.9684 19.1775C9.54913 21.0887 4.39535 19.5789 1.70574 15.5853C-0.983864 11.5917 -0.445485 6.24833 2.98674 2.87153C6.41897 -0.505261 11.7703 -0.956532 15.7196 1.7978C16.0867 2.05384 16.1768 2.55903 15.9207 2.92616C15.6647 3.2933 15.1595 3.38335 14.7924 3.1273ZM18.6461 3.68285C18.9621 3.99993 18.9611 4.51308 18.6441 4.82901L10.5751 12.8688C10.2585 13.1843 9.74613 13.1839 9.43003 12.8678L6.1469 9.58461C5.8304 9.26811 5.8304 8.75496 6.1469 8.43845C6.4634 8.12195 6.97654 8.12195 7.29304 8.43845L10.0041 11.1496L17.5 3.68078C17.8171 3.36485 18.3302 3.36578 18.6461 3.68285Z"
    fill="currentColor" />
</svg>