<svg width="25" height="25" viewBox="0 0 25 25" fill="none" xmlns="http://www.w3.org/2000/svg">
  <path fill-rule="evenodd" clip-rule="evenodd"
    d="M11.5688 0.833333C11.5688 0.373096 11.9446 0 12.4083 0C19.3631 0 25 5.59587 25 12.5C25 19.4041 19.3631 25 12.4083 25C11.9446 25 11.5688 24.6269 11.5688 24.1667C11.5688 23.7064 11.9446 23.3333 12.4083 23.3333C18.4358 23.3333 23.3211 18.4837 23.3211 12.5C23.3211 6.51635 18.4358 1.66667 12.4083 1.66667C11.9446 1.66667 11.5688 1.29357 11.5688 0.833333ZM9.18267 1.26292C9.34104 1.69547 9.11619 2.17357 8.68047 2.33079C7.46999 2.76754 6.36005 3.40092 5.39768 4.20386C5.04276 4.49997 4.51324 4.4544 4.21495 4.10208C3.91667 3.74975 3.96257 3.22408 4.31748 2.92797C5.43396 1.99646 6.71627 1.26614 8.10697 0.764373C8.5427 0.60716 9.0243 0.830367 9.18267 1.26292ZM2.65287 5.94901C3.05429 6.17927 3.19168 6.68898 2.95972 7.08748C2.33437 8.16185 1.89072 9.35173 1.66638 10.6194C1.58615 11.0727 1.15095 11.3756 0.694332 11.2959C0.237711 11.2163 -0.0674204 10.7843 0.0128028 10.331C0.271606 8.86863 0.783815 7.49444 1.50605 6.25363C1.73801 5.85513 2.25145 5.71875 2.65287 5.94901ZM12.041 6.46334C12.5046 6.46334 12.8804 6.83643 12.8804 7.29667V12.8578L17.252 15.5037C17.6479 15.7433 17.7731 16.256 17.5318 16.649C17.2904 17.042 16.7739 17.1663 16.3781 16.9267L11.604 14.0373C11.3541 13.886 11.2015 13.6164 11.2015 13.3257V7.29667C11.2015 6.83643 11.5774 6.46334 12.041 6.46334ZM0.694333 13.7027C1.15095 13.6231 1.58615 13.926 1.66638 14.3793C1.89072 15.647 2.33437 16.8368 2.95972 17.9112C3.19168 18.3097 3.05429 18.8194 2.65287 19.0497C2.25145 19.2799 1.73801 19.1436 1.50605 18.7451C0.783815 17.5042 0.271606 16.1301 0.0128028 14.6677C-0.0674204 14.2144 0.237711 13.7824 0.694333 13.7027ZM4.21456 20.8984C4.51258 20.5458 5.04207 20.4999 5.3972 20.7957C6.35982 21.5977 7.47015 22.2313 8.68116 22.6694C9.11675 22.827 9.34117 23.3053 9.18242 23.7377C9.02366 24.1702 8.54186 24.3929 8.10627 24.2353C6.71611 23.7324 5.43419 23.0023 4.31796 22.0724C3.96282 21.7765 3.91653 21.2509 4.21456 20.8984Z"
    fill="currentColor" />
</svg>