<svg width="16" height="16" viewBox="0 0 16 16" fill="none" xmlns="http://www.w3.org/2000/svg">
  <path fill-rule="evenodd" clip-rule="evenodd"
    d="M0.288881 0.288881C0.674056 -0.0962937 1.29855 -0.0962937 1.68372 0.288881L8 6.60516L14.3163 0.288881C14.7015 -0.0962937 15.3259 -0.0962937 15.7111 0.288881C16.0963 0.674056 16.0963 1.29855 15.7111 1.68372L9.39484 8L15.7111 14.3163C16.0963 14.7015 16.0963 15.3259 15.7111 15.7111C15.3259 16.0963 14.7015 16.0963 14.3163 15.7111L8 9.39484L1.68372 15.7111C1.29855 16.0963 0.674056 16.0963 0.288881 15.7111C-0.0962937 15.3259 -0.0962937 14.7015 0.288881 14.3163L6.60516 8L0.288881 1.68372C-0.0962937 1.29855 -0.0962937 0.674056 0.288881 0.288881Z"
    fill="currentColor" />
</svg>