<svg width="16" height="8" viewBox="0 0 16 8" fill="none" xmlns="http://www.w3.org/2000/svg">
  <path fill-rule="evenodd" clip-rule="evenodd"
    d="M8 1.49753C5.65162 1.49753 3.25062 2.61312 1.38224 4.94561C1.12062 5.27221 0.635467 5.33134 0.298611 5.07769C-0.0382449 4.82404 -0.0992383 4.35365 0.162378 4.02705C2.28584 1.37612 5.11661 0 8 0C10.8834 0 13.7142 1.37612 15.8376 4.02705C16.0992 4.35365 16.0382 4.82404 15.7014 5.07769C15.3645 5.33134 14.8794 5.27221 14.6178 4.94561C12.7494 2.61312 10.3484 1.49753 8 1.49753Z"
    fill="currentColor" />
  <path fill-rule="evenodd" clip-rule="evenodd"
    d="M9.95708 2.34824C8.9769 1.3979 7.38773 1.3979 6.40756 2.34824C5.42738 3.29858 5.42738 4.83938 6.40756 5.78971C7.38773 6.74005 8.9769 6.74005 9.95708 5.78971C10.9373 4.83938 10.9373 3.29858 9.95708 2.34824ZM11.0492 1.28933C9.46588 -0.245834 6.89875 -0.245834 5.3154 1.28933C3.73204 2.82449 3.73204 5.31347 5.3154 6.84863C6.89875 8.38379 9.46588 8.38379 11.0492 6.84863C12.6326 5.31347 12.6326 2.82449 11.0492 1.28933Z"
    fill="currentColor" />
</svg>