<svg width="20" height="20" viewBox="0 0 20 20" fill="none" xmlns="http://www.w3.org/2000/svg">
  <path fill-rule="evenodd" clip-rule="evenodd"
    d="M13.6669 2.2048C13.6512 2.22179 13.6346 2.238 13.6173 2.25336C12.4807 3.39292 12.4807 5.23747 13.6172 6.37706C13.6346 6.39247 13.6512 6.40874 13.667 6.42579C14.8105 7.52002 16.6246 7.50474 17.7494 6.37994C18.8897 5.23964 18.8897 3.39087 17.7494 2.25057C16.6246 1.12574 14.8104 1.11048 13.6669 2.2048ZM12.8823 7.59691C14.5777 9.04796 17.1315 8.97119 18.7361 7.3666C20.4213 5.68138 20.4213 2.94913 18.7361 1.26391C17.1315 -0.340673 14.5777 -0.417446 12.8823 1.03359H3.28166C1.46895 1.03359 1.02853e-05 2.50254 1.02853e-05 4.31525C1.02853e-05 6.12795 1.46895 7.59691 3.28166 7.59691H12.8823ZM11.8023 6.20156H3.28166C2.23959 6.20156 1.39536 5.35733 1.39536 4.31525C1.39536 3.27317 2.23959 2.42894 3.28166 2.42894H11.8023C11.2252 3.61654 11.2252 5.01396 11.8023 6.20156ZM6.31453 13.5566C5.17001 12.4802 3.36932 12.5013 2.25057 13.6201C1.11028 14.7604 1.11028 16.6091 2.25057 17.7494C3.3694 18.8683 5.17027 18.8893 6.31478 17.8126C6.34027 17.7831 6.36817 17.7558 6.3982 17.731C7.51402 16.5955 7.51412 14.7744 6.39848 13.6388C6.36825 13.6138 6.34016 13.5863 6.31453 13.5566ZM7.11776 12.4031C5.42235 10.952 2.8685 11.0288 1.26391 12.6334C-0.421302 14.3186 -0.421302 17.0509 1.26391 18.7361C2.86848 20.3407 5.42229 20.4174 7.1177 18.9664H16.7155C18.5282 18.9664 19.9972 17.4975 19.9972 15.6848C19.9972 13.8721 18.5282 12.4031 16.7155 12.4031H7.11776ZM8.19769 13.7985C8.77476 14.9861 8.77475 16.3835 8.19767 17.5711H16.7155C17.7576 17.5711 18.6018 16.7268 18.6018 15.6848C18.6018 14.6427 17.7576 13.7985 16.7155 13.7985H8.19769Z"
    fill="currentColor" />
</svg>