<svg width="44" height="40" viewBox="0 0 44 40" fill="none" xmlns="http://www.w3.org/2000/svg">
  <path
    d="M40.8028 21.5287L40.8274 21.5576L22.0022 40L3.17704 21.5576L3.20407 21.5287C1.01957 19.0314 -0.121209 15.8178 0.0102141 12.5315C0.141638 9.24521 1.53556 6.12888 3.9128 3.80667C6.29004 1.48447 9.47506 0.127875 12.8299 0.00858901C16.1848 -0.110697 19.4619 1.01614 22.0047 3.1634C24.548 1.01971 27.8238 -0.104127 31.1767 0.0167194C34.5295 0.137566 37.7121 1.49419 40.0878 3.81517C42.4635 6.13615 43.857 9.25033 43.9896 12.5346C44.1222 15.819 42.984 19.0312 40.8028 21.5287ZM6.79708 6.65927C5.94104 7.49768 5.26198 8.49309 4.79868 9.58864C4.33538 10.6842 4.09692 11.8584 4.09692 13.0443C4.09692 14.2301 4.33538 15.4044 4.79868 16.4999C5.26198 17.5955 5.94104 18.5909 6.79708 19.4293L22.0022 34.3252L37.2098 19.4269C38.0806 18.5918 38.7736 17.5959 39.2489 16.4967C39.7242 15.3975 39.9723 14.2169 39.9788 13.0232C39.9853 11.8294 39.7501 10.6463 39.2867 9.54221C38.8234 8.43812 38.1412 7.435 37.2796 6.5909C36.418 5.7468 35.394 5.07847 34.267 4.62458C33.14 4.17069 31.9323 3.94026 30.7138 3.94662C29.4953 3.95298 28.2902 4.196 27.1682 4.66162C26.0462 5.12724 25.0296 5.80622 24.1772 6.65927L15.4871 15.1726L12.5896 12.3316L19.0654 5.98754C17.2945 4.60217 15.0647 3.90457 12.802 4.02804C10.5393 4.15151 8.40239 5.08739 6.79954 6.65686L6.79708 6.65927Z"
    fill="currentColor" />
</svg>