<svg width="28" height="25" viewBox="0 0 28 25" fill="none" xmlns="http://www.w3.org/2000/svg">
  <path fill-rule="evenodd" clip-rule="evenodd"
    d="M8.58886 1.64234C4.51496 1.64234 1.64706 5.49577 1.64706 9.22263C1.64706 11.0607 2.37091 12.864 3.53059 14.5676C4.68952 16.2701 6.253 17.8269 7.8504 19.1535C9.4446 20.4774 11.0498 21.5532 12.2713 22.2977C12.8814 22.6696 13.3923 22.9567 13.7537 23.1489C13.847 23.1985 13.9293 23.2413 14 23.2772C14.0707 23.2413 14.153 23.1985 14.2463 23.1489C14.6077 22.9567 15.1186 22.6696 15.7287 22.2977C16.9502 21.5532 18.5554 20.4774 20.1496 19.1535C21.747 17.8269 23.3105 16.2701 24.4694 14.5676C25.6291 12.864 26.3529 11.0607 26.3529 9.22263C26.3529 5.49577 23.485 1.64234 19.4111 1.64234C17.0621 1.64234 15.5281 2.80026 14.626 3.85256C14.4695 4.03506 14.2408 4.14015 14 4.14015C13.7592 4.14015 13.5305 4.03506 13.374 3.85256C12.4719 2.80026 10.9379 1.64234 8.58886 1.64234ZM0 9.22263C0 4.8473 3.36604 0 8.58886 0C11.0619 0 12.8331 1.03234 14 2.12973C15.1669 1.03234 16.9381 0 19.4111 0C24.634 0 28 4.8473 28 9.22263C28 11.4962 27.1063 13.6183 25.8322 15.4899C24.5573 17.3627 22.8709 19.0309 21.2037 20.4155C19.5332 21.8027 17.859 22.9241 16.5878 23.699C15.9516 24.0867 15.4128 24.3899 15.0214 24.598C14.8263 24.7018 14.6639 24.784 14.5418 24.8422C14.4819 24.8707 14.4244 24.8969 14.3741 24.9177C14.35 24.9277 14.3174 24.9407 14.2817 24.9526C14.2641 24.9585 14.2362 24.9673 14.2024 24.9755L14.2021 24.9756C14.1804 24.9809 14.1014 25 14 25C13.8986 25 13.8196 24.9809 13.7979 24.9756L13.7976 24.9755C13.7638 24.9673 13.7359 24.9585 13.7183 24.9526C13.6826 24.9407 13.65 24.9277 13.6259 24.9177C13.5756 24.8969 13.5181 24.8707 13.4582 24.8422C13.3361 24.784 13.1737 24.7018 12.9786 24.598C12.5872 24.3899 12.0484 24.0867 11.4122 23.699C10.141 22.9241 8.4668 21.8027 6.79635 20.4155C5.12909 19.0309 3.44265 17.3627 2.16782 15.4899C0.893747 13.6183 0 11.4962 0 9.22263Z"
    fill="currentColor" />
</svg>