<svg width="28" height="25" viewBox="0 0 28 25" fill="none" xmlns="http://www.w3.org/2000/svg">
  <path
    d="M13.3927 24.8465L13.384 24.8411L13.3507 24.8233C12.6602 24.4399 11.982 24.0337 11.3173 23.6055C9.73239 22.5879 8.22223 21.454 6.79875 20.2127C3.57875 17.3789 0 13.1273 0 8.03464C0.000154557 6.37303 0.505136 4.75232 1.44541 3.39569C2.38569 2.03906 3.71502 1.01322 5.25035 0.459426C6.78569 -0.0943704 8.45152 -0.148886 10.0185 0.303385C11.5854 0.755656 12.9765 1.69247 14 2.98483C15.0235 1.69247 16.4146 0.755656 17.9815 0.303385C19.5485 -0.148886 21.2143 -0.0943704 22.7496 0.459426C24.285 1.01322 25.6143 2.03906 26.5546 3.39569C27.4949 4.75232 27.9998 6.37303 28 8.03464C28 13.1273 24.423 17.3789 21.2013 20.2127C19.1788 21.9759 16.9832 23.521 14.6493 24.8233L14.616 24.8411L14.6073 24.8465H14.6038C14.4178 24.947 14.2106 24.9997 14.0002 25C13.7898 25.0003 13.5825 24.9482 13.3962 24.8483L13.3927 24.8465Z"
    fill="currentColor" />
</svg>