<svg width="24" height="20" viewBox="0 0 24 20" fill="none" xmlns="http://www.w3.org/2000/svg">
  <path fill-rule="evenodd" clip-rule="evenodd"
    d="M12.2047 1.83191C13.4149 0.730291 14.9815 0.0841304 16.6276 0.00766361L16.9578 0C18.8341 0 20.6318 0.741529 21.9671 2.07788L22.1921 2.31722C24.6893 5.10101 24.5917 9.32203 21.9479 11.9975L15.3101 18.6343C14.4368 19.508 13.2439 20 11.9989 20C10.7539 20 9.56102 19.508 8.68782 18.6345L2.046 11.9934C-0.685529 9.22929 -0.685529 4.82603 2.06723 2.0411L2.31922 1.80257C3.60834 0.643754 5.29194 0 7.03987 0C8.90156 0 10.686 0.730021 11.9992 2.0275L12.2047 1.83191ZM20.6322 3.33374C19.663 2.36418 18.3393 1.81819 16.9578 1.81819C15.5763 1.81819 14.2526 2.36418 13.2832 3.3339L12.6566 3.96047C12.295 4.32207 11.7027 4.32206 11.3411 3.96046L10.7142 3.33364C9.74506 2.36414 8.42136 1.81819 7.03987 1.81819C5.75286 1.81819 4.51318 2.2922 3.58204 3.12879L3.36927 3.32991C1.33523 5.38822 1.33523 8.6671 3.3654 10.7215L10.0035 17.3588C10.5298 17.8853 11.2487 18.1818 11.9989 18.1818C12.7491 18.1818 13.468 17.8853 13.9945 17.3587L20.6285 10.7255C22.5942 8.73634 22.6668 5.59281 20.8232 3.53721L20.6322 3.33374Z"
    fill="currentColor" />
</svg>