<svg width="20" height="20" viewBox="0 0 20 20" fill="none" xmlns="http://www.w3.org/2000/svg">
  <path fill-rule="evenodd" clip-rule="evenodd"
    d="M0 5.55556C0 2.48731 2.48731 0 5.55556 0H14.4444C17.5127 0 20 2.48731 20 5.55556V14.4444C20 17.5127 17.5127 20 14.4444 20H5.55556C2.48731 20 0 17.5127 0 14.4444V5.55556ZM17.7778 3.33333C17.7778 2.72222 17.2778 2.22222 16.6667 2.22222C16.0556 2.22222 15.5556 2.72222 15.5556 3.33333C15.5556 3.94444 16.0556 4.44444 16.6667 4.44444C17.2778 4.44444 17.7778 3.94444 17.7778 3.33333ZM10 4.44444C13.0682 4.44444 15.5556 6.93175 15.5556 10C15.5556 13.0682 13.0682 15.5556 10 15.5556C6.93175 15.5556 4.44444 13.0682 4.44444 10C4.44444 6.93175 6.93175 4.44444 10 4.44444ZM7.11343 8.33456C7.70873 7.30268 8.80931 6.66677 10.0006 6.66637C11.8422 6.66576 13.3355 8.15814 13.3361 9.9997C13.3368 11.8413 11.8444 13.3346 10.0028 13.3353C8.81153 13.3357 7.71053 12.7005 7.11455 11.669C6.51856 10.6375 6.51814 9.36643 7.11343 8.33456Z"
    fill="currentColor" />
</svg>