<svg width="24" height="24" viewBox="0 0 24 24" fill="none" xmlns="http://www.w3.org/2000/svg">
  <path fill-rule="evenodd" clip-rule="evenodd"
    d="M17.7662 1.73811C15.7971 1.29826 13.5997 1.77944 12.0438 3.3505C10.3015 5.10975 9.77834 7.61055 10.6315 9.76424C10.748 10.0584 10.6797 10.3943 10.4579 10.6183L2.16226 18.9947C1.37058 19.7941 1.37058 21.0173 2.16226 21.8167C2.95395 22.6161 4.16531 22.6161 4.95699 21.8167L13.2526 13.4402C13.4657 13.2251 13.7819 13.1523 14.0663 13.2528C16.2348 14.0192 18.7272 13.5858 20.5807 11.8304C22.1927 10.1969 22.7824 7.93889 22.2252 5.98576L18.3799 9.76363C18.0725 10.0657 17.5818 10.0623 17.2784 9.75601L14.1066 6.55326C13.9595 6.40475 13.8769 6.20333 13.8769 5.99331C13.8769 5.78328 13.9595 5.58186 14.1066 5.43335L17.7662 1.73811ZM19.2615 0.544266C16.5817 -0.50248 13.2342 -0.0912401 10.9347 2.2306C8.90197 4.28315 8.16467 7.20507 8.99784 9.85277L1.05317 17.8748C-0.351055 19.2927 -0.351055 21.5187 1.05317 22.9366C2.45739 24.3545 4.66187 24.3545 6.06609 22.9366L14.0255 14.8996C16.6163 15.635 19.5046 15.028 21.6643 12.9755C21.6701 12.97 21.6758 12.9644 21.6814 12.9588C23.9641 10.6538 24.6812 7.21238 23.2922 4.40733C23.1594 4.13905 22.8878 3.96959 22.5908 3.96959H22.3471C22.1429 3.96959 21.9463 4.05007 21.7999 4.19391L17.8405 8.08378L15.7702 5.99331L19.6075 2.11867C19.7287 1.99627 19.9287 1.7435 19.9287 1.38935C19.9287 1.18212 19.8538 0.928272 19.638 0.73757C19.515 0.628892 19.3815 0.572087 19.2615 0.544266Z"
    fill="currentColor" />
</svg>