<svg width="20" height="25" viewBox="0 0 20 25" fill="none" xmlns="http://www.w3.org/2000/svg">
  <path fill-rule="evenodd" clip-rule="evenodd"
    d="M10 1.66668C5.40622 1.66668 1.68224 5.3562 1.68224 9.90747C1.68224 12.9918 3.78931 16.3562 6.06594 19.0548C7.18434 20.3805 8.30511 21.5011 9.1471 22.2906C9.48251 22.6051 9.77282 22.8663 10 23.0661C10.2272 22.8663 10.5175 22.6051 10.8529 22.2906C11.6949 21.5011 12.8157 20.3805 13.9341 19.0548C16.2107 16.3562 18.3178 12.9918 18.3178 9.90747C18.3178 5.3562 14.5938 1.66668 10 1.66668ZM10 24.1668C9.46611 24.8108 9.46593 24.8106 9.46572 24.8104L9.46329 24.8085L9.45717 24.8035L9.43518 24.7854C9.41626 24.7697 9.38892 24.747 9.35372 24.7175C9.28332 24.6585 9.18144 24.5721 9.05257 24.4604C8.7949 24.237 8.42894 23.912 7.99075 23.5011C7.11545 22.6803 5.9465 21.5121 4.77518 20.1237C2.47237 17.394 0 13.6287 0 9.90747C0 4.43572 4.47714 0 10 0C15.5229 0 20 4.43572 20 9.90747C20 13.6287 17.5276 17.394 15.2248 20.1237C14.0535 21.5121 12.8845 22.6803 12.0092 23.5011C11.5711 23.912 11.2051 24.237 10.9474 24.4604C10.8186 24.5721 10.7167 24.6585 10.6463 24.7175C10.6111 24.747 10.5837 24.7697 10.5648 24.7854L10.5428 24.8035L10.5367 24.8085L10.5349 24.81C10.5347 24.8101 10.5339 24.8108 10 24.1668ZM10 24.1668L10.5339 24.8108C10.2236 25.0633 9.77601 25.063 9.46572 24.8104L10 24.1668ZM10.0015 6.8519C8.29796 6.8519 6.91735 8.21973 6.91735 9.90747C6.91735 11.5952 8.29796 12.963 10.0015 12.963C11.705 12.963 13.0856 11.5952 13.0856 9.90747C13.0856 8.21973 11.705 6.8519 10.0015 6.8519ZM5.2351 9.90747C5.2351 7.29925 7.36888 5.18522 10.0015 5.18522C12.634 5.18522 14.7678 7.29925 14.7678 9.90747C14.7678 12.5157 12.634 14.6297 10.0015 14.6297C7.36888 14.6297 5.2351 12.5157 5.2351 9.90747Z"
    fill="currentColor" />
</svg>