<svg width="25" height="25" viewBox="0 0 25 25" fill="none" xmlns="http://www.w3.org/2000/svg">
  <path fill-rule="evenodd" clip-rule="evenodd"
    d="M3.87173 4.76167C3.87173 2.13187 6.00334 0 8.63283 0H20.2389C22.8684 0 25 2.13187 25 4.76167V20.2383C25 22.8681 22.8684 25 20.2389 25H8.63283C6.00334 25 3.87173 22.8681 3.87173 20.2383V16.3692C3.87173 15.8762 4.27127 15.4767 4.76413 15.4767C5.25699 15.4767 5.65654 15.8762 5.65654 16.3692V20.2383C5.65654 21.8823 6.98907 23.215 8.63283 23.215H20.2389C21.8827 23.215 23.2152 21.8823 23.2152 20.2383V4.76167C23.2152 3.11772 21.8827 1.78502 20.2389 1.78502H8.63283C6.98907 1.78502 5.65654 3.11772 5.65654 4.76167V8.63084C5.65654 9.12376 5.25699 9.52335 4.76413 9.52335C4.27127 9.52335 3.87173 9.12376 3.87173 8.63084V4.76167ZM11.8673 7.99971C12.2158 7.65116 12.7808 7.65116 13.1293 7.99971L16.998 11.8689C17.3465 12.2174 17.3465 12.7825 16.998 13.1311L13.1293 17.0002C12.7808 17.3488 12.2158 17.3488 11.8673 17.0002C11.5188 16.6517 11.5188 16.0866 11.8673 15.738L14.2125 13.3925L0.892403 13.3925C0.399543 13.3925 4.25531e-07 12.9929 0 12.5C-4.25531e-07 12.0071 0.399542 11.6075 0.892403 11.6075L14.2125 11.6075L11.8673 9.26191C11.5188 8.91336 11.5188 8.34826 11.8673 7.99971Z"
    fill="currentColor" />
</svg>