<svg width="24" height="24" viewBox="0 0 24 24" fill="none" xmlns="http://www.w3.org/2000/svg">
  <path fill-rule="evenodd" clip-rule="evenodd"
    d="M17.5921 3.91711C14.5027 0.82763 9.49382 0.82763 6.40443 3.91711C3.74345 6.57816 3.37445 10.6633 5.29741 13.7193C5.34506 13.7748 5.38389 13.8353 5.41387 13.8989C5.69831 14.3248 6.0285 14.7292 6.40443 15.1051C7.60022 16.3009 9.08358 17.0339 10.6319 17.304C10.7142 17.3042 10.7966 17.3171 10.8758 17.3426C11.6221 17.449 12.3806 17.4487 13.1268 17.3418C13.2042 17.3171 13.2844 17.3046 13.3647 17.304C14.913 17.0339 16.3963 16.3009 17.5921 15.1051C17.9738 14.7234 18.3083 14.3125 18.5956 13.8794C18.621 13.8293 18.6519 13.7812 18.6884 13.7363C20.6234 10.6784 20.258 6.58308 17.5921 3.91711ZM20.3172 14.1262C22.3265 10.5082 21.7953 5.8577 18.7234 2.78574C15.0092 -0.92858 8.9873 -0.92858 5.27309 2.78574C2.20057 5.85834 1.66974 10.5102 3.6806 14.1285L0.227736 17.6632C0.0567437 17.8382 -0.0247326 18.0819 0.00658538 18.3246C0.0379034 18.5673 0.178571 18.7823 0.388398 18.9082L3.32792 20.672L5.09164 23.6116C5.22015 23.8258 5.44134 23.9677 5.68961 23.9951C5.93788 24.0226 6.18473 23.9325 6.35698 23.7516L10.9181 18.961C11.6368 19.0427 12.3629 19.0426 13.0815 18.9607L17.643 23.7516C17.8153 23.9325 18.0621 24.0226 18.3104 23.9951C18.5587 23.9676 18.7798 23.8258 18.9084 23.6116L20.6721 20.672L23.6116 18.9082C23.8214 18.7823 23.9621 18.5673 23.9934 18.3246C24.0247 18.0819 23.9433 17.8382 23.7723 17.6632L20.3172 14.1262ZM19.4035 15.4806C19.1927 15.7415 18.966 15.9939 18.7234 16.2365C17.6178 17.3421 16.3078 18.1186 14.915 18.566L18.0771 21.8872L19.403 19.6773C19.4706 19.5647 19.5648 19.4704 19.6774 19.4029L21.9204 18.0571L19.4035 15.4806ZM9.08424 18.5669C7.69043 18.1196 6.37939 17.3428 5.27309 16.2365C5.03115 15.9945 4.80498 15.7428 4.59456 15.4825L2.07963 18.0571L4.32259 19.4029C4.43518 19.4704 4.52942 19.5647 4.59698 19.6773L5.92291 21.8872L9.08424 18.5669ZM13.2501 5.02709C13.2501 5.02712 13.2501 5.02705 13.2501 5.02709L14.1815 6.91578L16.2651 7.21864C17.4086 7.38534 17.863 8.79053 17.0371 9.59602L15.5288 11.065L15.8845 13.1401C15.8845 13.1402 15.8845 13.14 15.8845 13.1401C16.0799 14.279 14.8851 15.1469 13.8629 14.6097L12.0012 13.6317L10.1373 14.6109C9.11505 15.1483 7.91997 14.2807 8.11541 13.1416C8.11543 13.1416 8.1154 13.1417 8.11541 13.1416L8.47116 11.0662L6.96322 9.59767C6.13732 8.79217 6.59102 7.38663 7.73448 7.21993L9.81964 6.91597L10.7511 5.02709C10.7511 5.02705 10.7511 5.02712 10.7511 5.02709C11.2622 3.99041 12.739 3.99041 13.2501 5.02709ZM12.3836 12.0253C12.3708 12.0183 12.3577 12.0116 12.3445 12.0053C12.102 11.8891 11.8163 11.9023 11.585 12.0421C11.5815 12.0442 11.578 12.0463 11.5746 12.0485L9.76295 13.0002L10.1192 10.9218C10.1637 10.6622 10.0776 10.3973 9.88885 10.2136L8.3788 8.74292L10.4665 8.43858C10.727 8.4006 10.9522 8.23689 11.0686 8.00077L12.0006 6.1108L12.9326 8.00077C13.0491 8.23699 13.2744 8.40074 13.535 8.43862L15.621 8.74183L14.1111 10.2123C13.9224 10.3961 13.8363 10.661 13.8808 10.9206L14.237 12.9989L12.3836 12.0253ZM12.1861 5.73464C12.1861 5.73458 12.1861 5.7347 12.1861 5.73464ZM11.8152 5.73481C11.8152 5.73487 11.8152 5.73476 11.8152 5.73481ZM9.39277 13.1947C9.39256 13.1948 9.39297 13.1945 9.39277 13.1947Z"
    fill="currentColor" />
</svg>