<svg width="20" height="20" viewBox="0 0 20 20" fill="none" xmlns="http://www.w3.org/2000/svg">
  <path
    d="M19.9989 14.9111V18.84C19.999 19.1213 19.8924 19.3922 19.7007 19.598C19.5089 19.8038 19.2462 19.9292 18.9656 19.9489C18.4801 19.9822 18.0834 20 17.7768 20C7.95845 20 0 12.0411 0 2.22222C0 1.91556 0.0166657 1.51889 0.0511083 1.03333C0.0707987 0.752716 0.19619 0.490012 0.401982 0.298232C0.607773 0.106452 0.878643 -0.000127148 1.15994 2.85088e-07H5.08861C5.22642 -0.000139261 5.35937 0.0509545 5.46162 0.143356C5.56387 0.235758 5.62813 0.36287 5.64191 0.5C5.66746 0.755556 5.6908 0.958889 5.71302 1.11333C5.93382 2.65436 6.38632 4.15315 7.05516 5.55889C7.16071 5.78111 7.09183 6.04667 6.89184 6.18889L4.49419 7.90222C5.96017 11.3183 8.68235 14.0406 12.0982 15.5067L13.8092 13.1133C13.8792 13.0156 13.9812 12.9454 14.0975 12.9152C14.2139 12.8849 14.3372 12.8965 14.4459 12.9478C15.8513 13.6155 17.3497 14.0669 18.8901 14.2867C19.0445 14.3089 19.2478 14.3322 19.5011 14.3578C19.6381 14.3718 19.7649 14.4362 19.8571 14.5384C19.9492 14.6407 19.9991 14.7735 19.9989 14.9111Z"
    fill="currentColor" />
</svg>