<svg width="14" height="14" viewBox="0 0 14 14" fill="none" xmlns="http://www.w3.org/2000/svg">
  <path
    d="M7 7.76787C6.38116 7.76787 5.78767 8.00978 5.35008 8.44037C4.9125 8.87097 4.66667 9.45497 4.66667 10.0639C4.66667 10.6729 4.9125 11.2569 5.35008 11.6875C5.78767 12.1181 6.38116 12.36 7 12.36C7.61884 12.36 8.21233 12.1181 8.64992 11.6875C9.0875 11.2569 9.33333 10.6729 9.33333 10.0639C9.33333 9.45497 9.0875 8.87097 8.64992 8.44037C8.21233 8.00978 7.61884 7.76787 7 7.76787ZM6 10.0639C6 9.80295 6.10536 9.55266 6.29289 9.36812C6.48043 9.18358 6.73478 9.0799 7 9.0799C7.26522 9.0799 7.51957 9.18358 7.70711 9.36812C7.89464 9.55266 8 9.80295 8 10.0639C8 10.3249 7.89464 10.5752 7.70711 10.7597C7.51957 10.9443 7.26522 11.0479 7 11.0479C6.73478 11.0479 6.48043 10.9443 6.29289 10.7597C6.10536 10.5752 6 10.3249 6 10.0639Z"
    fill="currentColor" />
  <path
    d="M10.684 2.92386L8.56467 0L0.772 6.12586L0.34 6.12127V6.12783H0V14H14V6.12783H13.3587L12.0827 2.45481L10.684 2.92386ZM11.95 6.12783H5.26467L10.244 4.45762L11.2587 4.13814L11.95 6.12783ZM9.36667 3.36601L4.22667 5.09001L8.29733 1.88998L9.36667 3.36601ZM1.33333 11.4868V8.63971C1.6146 8.54163 1.87007 8.38302 2.08113 8.17545C2.29219 7.96788 2.45351 7.71657 2.55333 7.43986H11.4467C11.5464 7.71667 11.7077 7.96809 11.9188 8.17577C12.1299 8.38346 12.3854 8.54218 12.6667 8.64036V11.4875C12.3854 11.5857 12.1299 11.7444 11.9188 11.9521C11.7077 12.1597 11.5464 12.4112 11.4467 12.688H2.55467C2.45479 12.4109 2.29331 12.1593 2.08201 11.9515C1.87072 11.7437 1.61493 11.5849 1.33333 11.4868Z"
    fill="currentColor" />
</svg>