<svg width="25" height="24" viewBox="0 0 25 24" fill="none" xmlns="http://www.w3.org/2000/svg">
  <path fill-rule="evenodd" clip-rule="evenodd"
    d="M8.40088 0.612682C9.23245 -0.204785 10.5808 -0.203571 11.4125 0.612386L12.4993 1.67864L13.5861 0.612386C14.4178 -0.203652 15.7664 -0.204785 16.5979 0.612926C16.598 0.612993 16.5979 0.612859 16.5979 0.612926L20.6218 4.56073H21.5728C23.4654 4.56073 24.9986 6.06495 24.9986 7.92173V11.6883C24.9995 11.7044 25 11.7206 25 11.7369C25 11.7532 24.9995 11.7694 24.9986 11.7855V16.7752C24.9995 16.7913 25 16.8075 25 16.8238C25 16.8401 24.9995 16.8563 24.9986 16.8724V20.639C24.9986 22.4958 23.4654 24 21.5728 24H3.42573C1.53319 24 0 22.4958 0 20.639V7.92173C0 6.06496 1.53319 4.56073 3.42573 4.56073H4.37679L8.40088 0.612682C8.40103 0.612533 8.40073 0.61283 8.40088 0.612682ZM6.73368 4.56073H13.08L10.234 1.76856C10.0522 1.59017 9.7599 1.59124 9.58038 1.76782L6.73368 4.56073ZM13.6777 2.83482L15.4369 4.56073H18.2649L15.4189 1.76856C15.2394 1.59198 14.9463 1.59017 14.7645 1.76856L13.6777 2.83482ZM23.332 16.0063V12.5545H19.5249C18.9689 12.5545 18.5189 12.996 18.5189 13.5415V15.0192C18.5189 15.5648 18.9689 16.0063 19.5249 16.0063H23.332ZM23.332 10.9194H19.5249C18.0485 10.9194 16.8523 12.0929 16.8523 13.5415V15.0192C16.8523 16.4678 18.0485 17.6414 19.5249 17.6414H23.332V20.639C23.332 21.5927 22.5449 22.3649 21.5728 22.3649H3.42573C2.45361 22.3649 1.66657 21.5928 1.66657 20.639V7.92173C1.66657 6.96798 2.45361 6.19581 3.42573 6.19581H21.5728C22.5449 6.19581 23.332 6.96798 23.332 7.92173V10.9194Z"
    fill="currentColor" />
</svg>