<svg width="20" height="20" viewBox="0 0 20 20" fill="none" xmlns="http://www.w3.org/2000/svg">
  <path fill-rule="evenodd" clip-rule="evenodd"
    d="M16.8127 0.152428C18.7057 -0.549465 20.5493 1.29473 19.8476 3.18843L14.1895 18.4593C13.3819 20.6357 10.2488 20.4638 9.68382 18.2126L8.10648 11.9112L1.78552 10.3227C-0.463905 9.75719 -0.634818 6.62461 1.54002 5.81699L16.8127 0.152428ZM17.483 1.96156C17.8299 1.83304 18.1677 2.17093 18.0392 2.51788L12.3812 17.7883C12.2332 18.1871 11.6581 18.1559 11.5545 17.7428L9.8371 10.882C9.75072 10.5369 9.4815 10.2674 9.1366 10.1807L2.25552 8.45146C2.25555 8.45147 2.2555 8.45146 2.25552 8.45146C1.84463 8.34809 1.81193 7.77441 2.21086 7.62592L17.483 1.96156Z"
    fill="currentColor" />
</svg>