<svg width="20" height="22" viewBox="0 0 20 22" fill="none" xmlns="http://www.w3.org/2000/svg">
  <path fill-rule="evenodd" clip-rule="evenodd"
    d="M9.99459 3.89104e-06C12.0405 -0.0020168 14.0034 0.783073 15.451 2.18242C16.8987 3.58186 17.7123 5.48088 17.7127 7.46125V11.5978L19.0171 12.8613C19.0174 12.8616 19.0176 12.8618 19.0179 12.8621C19.6456 13.4668 19.9989 14.2883 20 15.1455L20 15.1492C19.9944 16.8584 18.5612 18.2412 16.7952 18.2412L3.20477 18.2376C3.20469 18.2376 3.20485 18.2376 3.20477 18.2376C1.43888 18.2375 0.00557922 16.8548 2.65191e-06 15.1456L0 15.1413C0.00172252 14.2843 0.355444 13.4631 0.983176 12.8587C0.983601 12.8583 0.984025 12.8578 0.98445 12.8574L2.28857 11.5942V7.4614C2.28934 3.34217 5.73875 0.00247778 9.99459 3.89104e-06ZM14.2417 3.35431C13.1153 2.26546 11.5879 1.6546 9.99598 1.65627C6.68458 1.65801 4.00047 4.25636 3.99979 7.4614C3.99979 7.46144 3.99979 7.46135 3.99979 7.4614V11.937C3.99979 12.1565 3.90974 12.3671 3.74943 12.5224L2.1928 14.0302L2.19066 14.0323C1.88508 14.3262 1.71264 14.7255 1.71122 15.1424C1.71499 15.9381 2.38246 16.5814 3.20476 16.5813L16.7952 16.5849C16.7953 16.5849 16.7952 16.5849 16.7952 16.5849C17.6176 16.5848 18.2852 15.9414 18.2888 15.1457C18.2877 14.7289 18.1156 14.3295 17.8103 14.0356L17.8084 14.0338L16.2518 12.526C16.0915 12.3707 16.0014 12.1601 16.0014 11.9406V7.46154C16.0014 7.46149 16.0014 7.46159 16.0014 7.46154C16.0011 5.92076 15.3681 4.44313 14.2417 3.35431ZM7.31279 21.1719C7.31279 20.7145 7.69586 20.3437 8.16841 20.3437H11.8244C12.297 20.3437 12.68 20.7145 12.68 21.1719C12.68 21.6292 12.297 22 11.8244 22H8.16841C7.69586 22 7.31279 21.6292 7.31279 21.1719Z"
    fill="currentColor" />
</svg>