<svg width="19" height="20" viewBox="0 0 19 20" fill="none" xmlns="http://www.w3.org/2000/svg">
  <path
    d="M5.70051 3.74776C5.70098 3.03287 5.90847 2.333 6.29852 1.73062C6.68857 1.12824 7.24493 0.648455 7.90205 0.347793C8.55918 0.04713 9.28967 -0.0618812 10.0075 0.0336037C10.7253 0.129089 11.4005 0.425091 11.9535 0.886733C12.5065 1.34838 12.9144 1.95642 13.1289 2.63923C13.3435 3.32204 13.3559 4.05115 13.1646 4.74066C12.9733 5.43018 12.5863 6.05136 12.0493 6.53102C11.5122 7.01068 10.8474 7.32882 10.1332 7.44797V9.37308H13.9327C14.4366 9.37308 14.9198 9.57064 15.2761 9.92229C15.6323 10.2739 15.8325 10.7509 15.8325 11.2482V12.5495C16.7722 12.7062 17.6179 13.2057 18.2021 13.9489C18.7863 14.6921 19.0664 15.6248 18.9867 16.5622C18.907 17.4995 18.4735 18.3731 17.772 19.0099C17.0705 19.6466 16.1523 20 15.1992 20C14.2462 20 13.328 19.6466 12.6265 19.0099C11.925 18.3731 11.4915 17.4995 11.4118 16.5622C11.3321 15.6248 11.6121 14.6921 12.1963 13.9489C12.7805 13.2057 13.6263 12.7062 14.566 12.5495V11.2482C14.566 11.0824 14.4993 10.9234 14.3805 10.8062C14.2618 10.689 14.1007 10.6232 13.9327 10.6232H5.06726C4.89931 10.6232 4.73824 10.689 4.61949 10.8062C4.50073 10.9234 4.43401 11.0824 4.43401 11.2482V12.5495C5.37371 12.7062 6.21947 13.2057 6.80367 13.9489C7.38787 14.6921 7.66789 15.6248 7.58822 16.5622C7.50854 17.4995 7.07501 18.3731 6.37352 19.0099C5.67203 19.6466 4.75378 20 3.80076 20C2.84774 20 1.9295 19.6466 1.22801 19.0099C0.526522 18.3731 0.0929826 17.4995 0.0133118 16.5622C-0.0663589 15.6248 0.213654 14.6921 0.797857 13.9489C1.38206 13.2057 2.22782 12.7062 3.16752 12.5495V11.2482C3.16752 10.7509 3.36767 10.2739 3.72394 9.92229C4.08021 9.57064 4.56342 9.37308 5.06726 9.37308H8.86675V7.44797C7.9811 7.29996 7.17719 6.84712 6.59759 6.16978C6.01799 5.49244 5.70018 4.63437 5.70051 3.74776Z"
    fill="currentColor" />
</svg>