<svg width="20" height="20" viewBox="0 0 20 20" fill="none" xmlns="http://www.w3.org/2000/svg">
<path fill-rule="evenodd" clip-rule="evenodd" d="M15.8081 2.02952C15.6828 1.90422 15.4788 1.90422 15.3535 2.02952L13.6275 3.7556L16.2445 6.37273L17.9706 4.64682C17.9706 4.6468 17.9707 4.64678 17.9707 4.64675C18.0959 4.52145 18.0959 4.31746 17.9706 4.19217L15.8081 2.02952ZM16.9466 8.40766L19.3391 6.01552L19.3392 6.01546C20.2203 5.13428 20.2203 3.70472 19.3392 2.82354L17.1766 0.660886C16.2955 -0.220295 14.8661 -0.220295 13.9849 0.660886L11.6171 3.02891C11.6022 3.04207 11.5876 3.05576 11.5734 3.07C11.5592 3.08423 11.5455 3.09879 11.5323 3.11366L0.663315 13.9834C0.662979 13.9837 0.662643 13.984 0.662307 13.9844C0.236763 14.4082 0 14.9829 0 15.5805V19.0322C0 19.5667 0.433259 20 0.967711 20H4.41921C5.01685 20 5.59155 19.7632 6.01537 19.3375C6.01566 19.3372 6.01596 19.3369 6.01625 19.3366L16.9106 8.44372C16.9168 8.43786 16.9229 8.43191 16.9289 8.42586C16.9349 8.41985 16.9408 8.41379 16.9466 8.40766ZM14.8758 7.74124L12.259 5.12424L2.03004 15.3538L2.02821 15.3556C1.96924 15.4143 1.93542 15.4947 1.93542 15.5805V18.0645H4.41921C4.50501 18.0645 4.5854 18.0306 4.64405 17.9717L4.64594 17.9698L14.8758 7.74124Z" fill="#018780"/>
</svg>
