<svg width="21" height="20" viewBox="0 0 21 20" fill="none" xmlns="http://www.w3.org/2000/svg">
  <path
    d="M20.0053 4.49104C19.6212 4.86877 19.2484 5.23538 19.2371 5.602C19.2032 5.95751 19.5873 6.32412 19.9488 6.66852C20.491 7.224 21.0219 7.72393 20.9993 8.2683C20.9767 8.81266 20.4006 9.37925 19.8245 9.93473L15.1593 14.5341L13.5552 12.9565L18.356 8.24608L17.2716 7.17956L15.6676 8.74601L11.4316 4.57992L15.7692 0.324955C16.2098 -0.108318 16.944 -0.108318 17.362 0.324955L20.0053 2.92459C20.4458 3.33565 20.4458 4.05777 20.0053 4.49104ZM0 15.8339L10.799 5.20206L15.035 9.36814L4.23601 20H0V15.8339Z"
    fill="currentColor" />
</svg>