<svg width="20" height="20" viewBox="0 0 20 20" fill="none" xmlns="http://www.w3.org/2000/svg">
  <path fill-rule="evenodd" clip-rule="evenodd"
    d="M1.53846 4.68235C3.3061 1.87282 6.42969 0 9.99817 0C15.5215 0 19.9982 4.4767 19.9982 10C19.9982 10.4248 19.6538 10.7692 19.2289 10.7692C18.8041 10.7692 18.4597 10.4248 18.4597 10C18.4597 5.32637 14.6718 1.53846 9.99817 1.53846C7.03205 1.53846 4.42527 3.06877 2.91543 5.38462H4.61538C5.04022 5.38462 5.38462 5.72901 5.38462 6.15385C5.38462 6.57868 5.04022 6.92308 4.61538 6.92308H1.63099C1.61975 6.92333 1.6085 6.92333 1.59722 6.92308H0.769231C0.344396 6.92308 0 6.57868 0 6.15385V2.30769C0 1.88286 0.344396 1.53846 0.769231 1.53846C1.19407 1.53846 1.53846 1.88286 1.53846 2.30769V4.68235ZM0.769231 9.23077C1.19407 9.23077 1.53846 9.57517 1.53846 10C1.53846 14.6736 5.32637 18.4615 10 18.4615C12.9661 18.4615 15.5729 16.9312 17.0827 14.6154H15.3846C14.9598 14.6154 14.6154 14.271 14.6154 13.8462C14.6154 13.4213 14.9598 13.0769 15.3846 13.0769H18.3672C18.3784 13.0767 18.3897 13.0767 18.401 13.0769H19.2308C19.6556 13.0769 20 13.4213 20 13.8462V17.6923C20 18.1171 19.6556 18.4615 19.2308 18.4615C18.8059 18.4615 18.4615 18.1171 18.4615 17.6923V15.3147C16.6942 18.1259 13.5697 20 10 20C4.4767 20 0 15.5233 0 10C0 9.57517 0.344396 9.23077 0.769231 9.23077Z"
    fill="currentColor" />
</svg>