<svg width="20" height="20" viewBox="0 0 20 20" fill="none" xmlns="http://www.w3.org/2000/svg">
  <path fill-rule="evenodd" clip-rule="evenodd"
    d="M0 9.13714C0.000368782 4.09099 4.09043 0.000368832 9.13589 0H9.13595C14.1816 0 18.2719 4.09086 18.2719 9.13719C18.2719 11.3729 17.469 13.4211 16.136 15.0091L19.7668 18.6404C20.0777 18.9514 20.0777 19.4557 19.7668 19.7667C19.4558 20.0778 18.9515 20.0778 18.6405 19.7667L15.01 16.1357C13.4218 17.4704 11.3728 18.2744 9.13595 18.2744C4.0903 18.2744 0 14.1835 0 9.13719V9.13714ZM9.13595 1.59292C4.97005 1.59326 1.59301 4.97078 1.59271 9.13725C1.59271 13.3038 4.96993 16.6815 9.13595 16.6815C13.302 16.6815 16.6792 13.3038 16.6792 9.13719C16.6792 4.97063 13.302 1.59296 9.13601 1.59292"
    fill="currentColor" />
</svg>