<svg width="25" height="25" viewBox="0 0 25 25" fill="none" xmlns="http://www.w3.org/2000/svg">
  <path fill-rule="evenodd" clip-rule="evenodd"
    d="M18.5238 4.95333C14.7765 1.20603 8.70062 1.20603 4.95333 4.95333C1.20603 8.70062 1.20603 14.7765 4.95333 18.5238C8.70062 22.2711 14.7765 22.2711 18.5238 18.5238C22.2711 14.7765 22.2711 8.70062 18.5238 4.95333ZM3.4381 3.4381C8.02223 -1.14603 15.4549 -1.14603 20.039 3.4381C24.3678 7.76684 24.6089 14.6356 20.7625 19.2473L24.6862 23.171C25.1046 23.5894 25.1046 24.2678 24.6862 24.6862C24.2678 25.1046 23.5894 25.1046 23.171 24.6862L19.2473 20.7625C14.6356 24.6089 7.76684 24.3678 3.4381 20.039C-1.14603 15.4549 -1.14603 8.02223 3.4381 3.4381ZM5.56921 11.7425C5.56556 10.9479 6.21026 10.3101 6.99634 10.3101C7.78386 10.3101 8.42634 10.947 8.42634 11.7386C8.42634 12.5275 7.78665 13.1672 6.99777 13.1672C6.21019 13.1672 5.5713 12.5296 5.56921 11.7425ZM6.28349 11.7412L5.56923 11.7464C5.56922 11.7451 5.56921 11.7438 5.56921 11.7425C5.5692 11.7412 5.5692 11.7399 5.5692 11.7386H6.28349C6.28349 11.7395 6.28349 11.7404 6.28349 11.7412ZM10.3125 11.7425C10.3089 10.9479 10.9536 10.3101 11.7396 10.3101C12.53 10.3101 13.164 10.9496 13.1696 11.7309L13.1696 11.7386C13.1696 12.5275 12.53 13.1672 11.7411 13.1672C10.9535 13.1672 10.3146 12.5296 10.3125 11.7425ZM12.4553 11.7309C12.4553 11.7326 12.4554 11.7343 12.4554 11.736L12.4553 11.7309ZM12.4554 11.7386C12.4541 12.1366 12.131 12.4521 11.7411 12.4529ZM11.7411 12.4529C11.7416 12.4529 11.7406 12.4529 11.7411 12.4529ZM11.7411 12.4529C11.345 12.4529 11.0296 12.1334 11.0268 11.7464ZM11.0268 11.7464L11.7396 11.7412ZM11.7396 11.7412L12.0982 11.7386ZM15.0502 11.7425C15.0466 10.9479 15.6913 10.3101 16.4774 10.3101C17.2649 10.3101 17.9074 10.947 17.9074 11.7386C17.9074 12.5275 17.2677 13.1672 16.4788 13.1672C15.6912 13.1672 15.0523 12.5296 15.0502 11.7425ZM15.7645 11.7412L15.0503 11.7464C15.0502 11.7451 15.0502 11.7438 15.0502 11.7425C15.0502 11.7412 15.0502 11.7399 15.0502 11.7386H15.7645C15.7645 11.7395 15.7645 11.7404 15.7645 11.7412ZM12.0982 11.7386H11.7411ZM11.7411 11.7386H11.3839Z"
    fill="currentColor" />
</svg>