<svg width="25" height="25" viewBox="0 0 25 25" fill="none" xmlns="http://www.w3.org/2000/svg">
  <path fill-rule="evenodd" clip-rule="evenodd"
    d="M19.5597 1.78739C19.3245 1.55305 18.9445 1.55305 18.7092 1.78739L15.0624 5.42003C14.8271 5.65437 14.8271 6.03288 15.0624 6.26722L18.7092 9.89985C18.9445 10.1342 19.3245 10.1342 19.5597 9.89985L23.2059 6.26787C23.2061 6.26768 23.2063 6.26749 23.2065 6.2673C23.4406 6.03296 23.4406 5.65429 23.2065 5.41994C23.2063 5.41975 23.2061 5.41956 23.2059 5.41937L19.5597 1.78739ZM17.5651 0.647793C18.4322 -0.215931 19.8367 -0.215931 20.7038 0.647793L24.3506 4.28043L24.3513 4.28108C25.2162 5.14465 25.2162 6.54259 24.3513 7.40617L24.3506 7.40682L20.7038 11.0395C19.8367 11.9032 18.4322 11.9032 17.5651 11.0395L13.9183 7.40682C13.0512 6.5431 13.0512 5.14415 13.9183 4.28043L17.5651 0.647793ZM7.45928 3.52312C6.12299 2.19205 3.95644 2.19205 2.62016 3.52312L2.04813 2.95332L2.62016 3.52312C1.28387 4.85421 1.28388 7.01231 2.62016 8.34338C3.95645 9.67446 6.123 9.67446 7.45928 8.34339C8.79557 7.0123 8.79556 4.8542 7.45928 3.52312ZM8.60334 2.38352L8.03131 2.95332L8.60334 2.38352C10.5715 4.34398 10.5715 7.52251 8.60334 9.48298L8.03131 8.91319L8.60334 9.48298C6.63521 11.4434 3.44424 11.4434 1.4761 9.48299L2.04813 8.91319L1.4761 9.48298C-0.492034 7.52253 -0.49203 4.34399 1.47609 2.38352L1.4761 2.38352C3.44423 0.423063 6.6352 0.423066 8.60334 2.38352ZM21.5609 17.5698C20.2247 16.2387 18.0581 16.2387 16.7218 17.5698C15.3855 18.9009 15.3855 21.059 16.7218 22.3901C18.0581 23.7211 20.2247 23.7211 21.5609 22.3901C22.8972 21.059 22.8972 18.9009 21.5609 17.5698ZM15.5778 16.4302C17.5459 14.4697 20.7369 14.4697 22.705 16.4302C24.6731 18.3907 24.6731 21.5692 22.705 23.5297C20.7369 25.4901 17.5459 25.4901 15.5778 23.5297L16.1498 22.9599L15.5778 23.5297C13.6096 21.5692 13.6096 18.3907 15.5778 16.4302L16.1498 17L15.5778 16.4302ZM0.247912 17.503C0.247912 16.2803 1.24229 15.292 2.46755 15.292H7.62448C8.85022 15.292 9.84412 16.2821 9.84412 17.503V22.6399C9.84412 23.8608 8.85022 24.8508 7.62448 24.8508H2.46755C1.24182 24.8508 0.247912 23.8608 0.247912 22.6399V17.503ZM2.46755 16.9037C2.13492 16.9037 1.86586 17.1714 1.86586 17.503V22.6399C1.86586 22.9707 2.13539 23.2392 2.46755 23.2392H7.62448C7.95665 23.2392 8.22618 22.9707 8.22618 22.6399V17.503C8.22618 17.1722 7.95665 16.9037 7.62448 16.9037H2.46755Z"
    fill="currentColor" />
</svg>