<svg width="14" height="14" viewBox="0 0 14 14" fill="none" xmlns="http://www.w3.org/2000/svg">
  <path
    d="M7 0L6.6675 0.1575L0.5425 2.73L0 2.9575V3.5C0 6.405 1.1725 8.96 2.5725 10.8325C3.2725 11.76 4.025 12.53 4.76 13.0725C5.495 13.615 6.2125 14 7 14C7.805 14 8.505 13.615 9.24 13.0725C9.975 12.53 10.7275 11.76 11.4275 10.8325C12.8275 8.96 14 6.405 14 3.5V2.9575L13.4575 2.73L7.3325 0.1575L7 0ZM7 1.9075V12.25C6.93 12.25 6.4225 12.1275 5.845 11.7075C5.2675 11.2875 4.6025 10.605 3.99 9.8C2.74712 8.12854 2.00651 6.13739 1.855 4.06L7 1.925V1.9075Z"
    fill="currentColor" />
</svg>