<svg width="14" height="14" viewBox="0 0 14 14" fill="none" xmlns="http://www.w3.org/2000/svg">
  <path
    d="M6.21515 0.510065C6.28736 0.356977 6.39914 0.228065 6.53785 0.137921C6.67656 0.0477763 6.83665 0 7 0C7.16335 0 7.32344 0.0477763 7.46215 0.137921C7.60086 0.228065 7.71264 0.356977 7.78485 0.510065L9.47354 4.08437L13.2508 4.65846C13.4124 4.68298 13.5642 4.75426 13.689 4.86423C13.8139 4.97421 13.9068 5.1185 13.9572 5.28077C14.0077 5.44304 14.0136 5.61682 13.9744 5.78245C13.9353 5.94808 13.8525 6.09895 13.7355 6.21799L11.0021 9.00065L11.6478 12.9315C11.6754 13.0996 11.6574 13.2724 11.5959 13.4304C11.5343 13.5884 11.4317 13.7252 11.2997 13.8255C11.1676 13.9257 11.0113 13.9853 10.8485 13.9976C10.6856 14.0099 10.5228 13.9744 10.3783 13.895L7.00087 12.0393L3.62175 13.895C3.4772 13.9742 3.31434 14.0096 3.15156 13.9971C2.98878 13.9847 2.83257 13.9249 2.70059 13.8246C2.56861 13.7243 2.46612 13.5874 2.40471 13.4294C2.34329 13.2714 2.32539 13.0986 2.35304 12.9306L2.9979 9.00065L0.264494 6.21799C0.147508 6.09895 0.0647422 5.94808 0.0255598 5.78245C-0.0136227 5.61682 -0.00765801 5.44304 0.0427792 5.28077C0.0932163 5.1185 0.186113 4.97421 0.31096 4.86423C0.435806 4.75426 0.58762 4.68298 0.749227 4.65846L4.52646 4.08529L6.21515 0.509151V0.510065ZM7 0.914117L5.31131 4.48934C5.24852 4.62225 5.15574 4.73721 5.04096 4.82432C4.92618 4.91143 4.79285 4.96808 4.65246 4.98938L0.874347 5.56346L3.60775 8.34612C3.70922 8.44961 3.7851 8.57733 3.82884 8.71826C3.87259 8.85919 3.88289 9.00912 3.85886 9.15514L3.21401 13.086L6.59139 11.2302C6.71699 11.1612 6.85677 11.1252 6.99869 11.1252C7.1406 11.1252 7.28038 11.1612 7.40599 11.2302L10.7842 13.086L10.1394 9.15514C10.1154 9.00912 10.1257 8.85919 10.1694 8.71826C10.2132 8.57733 10.289 8.44961 10.3905 8.34612L13.1239 5.56346L9.34666 4.98938C9.20643 4.96794 9.07328 4.91123 8.95866 4.82412C8.84405 4.73702 8.7514 4.62213 8.68869 4.48934L7 0.914117Z"
    fill="currentColor" />
</svg>