<svg width="24" height="20" viewBox="0 0 24 20" fill="none" xmlns="http://www.w3.org/2000/svg">
  <path fill-rule="evenodd" clip-rule="evenodd"
    d="M18.384 19.7792C18.706 20.0072 19.121 20.0642 19.491 19.9242C19.8609 19.7832 20.1329 19.4672 20.2149 19.0842C21.0839 15.0002 23.1919 4.66315 23.9829 0.948149C24.0429 0.668149 23.9429 0.377149 23.7229 0.190148C23.5029 0.00314821 23.1979 -0.0508518 22.9259 0.0501483C18.733 1.60215 5.82027 6.44716 0.542385 8.40016C0.207393 8.52416 -0.0106019 8.84616 0.000397845 9.19916C0.0123976 9.55316 0.250392 9.86016 0.593384 9.96316C2.96033 10.6712 6.06726 11.6562 6.06726 11.6562C6.06726 11.6562 7.51923 16.0412 8.27621 18.2712C8.37121 18.5512 8.5902 18.7712 8.8792 18.8472C9.16719 18.9222 9.47518 18.8432 9.69018 18.6402C10.9061 17.4922 12.7861 15.7172 12.7861 15.7172C12.7861 15.7172 16.358 18.3362 18.384 19.7792ZM7.3737 11.1012L9.05266 16.6392L9.42565 13.1322C9.42565 13.1322 15.9125 7.28115 19.6104 3.94615C19.7184 3.84815 19.7334 3.68415 19.6434 3.56915C19.5544 3.45415 19.3904 3.42715 19.2674 3.50515C14.9815 6.24215 7.3737 11.1012 7.3737 11.1012Z"
    fill="currentColor" />
</svg>