<svg width="20" height="22" viewBox="0 0 20 22" fill="none" xmlns="http://www.w3.org/2000/svg">
<path fill-rule="evenodd" clip-rule="evenodd" d="M6.82692 1.53488C6.44616 1.53488 6.15385 1.83654 6.15385 2.18863V3.97933H13.8462V2.18863C13.8462 1.83654 13.5538 1.53488 13.1731 1.53488H6.82692ZM15.3846 3.97933V2.18863C15.3846 0.970923 14.3854 0 13.1731 0H6.82692C5.61456 0 4.61538 0.970923 4.61538 2.18863V3.97933H1.93378C1.92728 3.97925 1.92077 3.97925 1.91424 3.97933H0.769231C0.344396 3.97933 0 4.32292 0 4.74677C0 5.17062 0.344396 5.51421 0.769231 5.51421H1.23021L2.67464 19.2726C2.83814 20.83 4.16642 22 5.73513 22H14.2649C15.8336 22 17.1619 20.83 17.3254 19.2726L18.7698 5.51421H19.2308C19.6556 5.51421 20 5.17062 20 4.74677C20 4.32292 19.6556 3.97933 19.2308 3.97933H18.0858C18.0792 3.97925 18.0727 3.97925 18.0662 3.97933H15.3846ZM17.2229 5.51421H2.77709L4.20473 19.1127C4.2846 19.8734 4.93871 20.4651 5.73513 20.4651H14.2649C15.0613 20.4651 15.7154 19.8734 15.7953 19.1127L17.2229 5.51421ZM6.34615 10.7158C6.34615 10.2919 6.69055 9.94832 7.11539 9.94832H12.8846C13.3095 9.94832 13.6538 10.2919 13.6538 10.7158C13.6538 11.1396 13.3095 11.4832 12.8846 11.4832H7.11539C6.69055 11.4832 6.34615 11.1396 6.34615 10.7158ZM6.34615 15.2636C6.34615 14.8397 6.69055 14.4961 7.11539 14.4961H12.8846C13.3095 14.4961 13.6538 14.8397 13.6538 15.2636C13.6538 15.6874 13.3095 16.031 12.8846 16.031H7.11539C6.69055 16.031 6.34615 15.6874 6.34615 15.2636Z" fill="#018780"/>
</svg>
