<svg width="23" height="25" viewBox="0 0 23 25" fill="none" xmlns="http://www.w3.org/2000/svg">
  <path fill-rule="evenodd" clip-rule="evenodd"
    d="M11.5026 1.55172C8.95284 1.55172 6.88583 3.67451 6.88583 6.2931C6.88583 8.9117 8.95284 11.0345 11.5026 11.0345C14.0524 11.0345 16.1194 8.9117 16.1194 6.2931C16.1194 3.67451 14.0524 1.55172 11.5026 1.55172ZM5.37489 6.2931C5.37489 2.81752 8.11837 0 11.5026 0C14.8869 0 17.6304 2.81752 17.6304 6.2931C17.6304 9.76869 14.8869 12.5862 11.5026 12.5862C8.11837 12.5862 5.37489 9.76869 5.37489 6.2931ZM0 23.1897C0 19.5236 2.89381 16.5517 6.4635 16.5517H16.5365C20.1062 16.5517 23 19.5236 23 23.1897V24.2241C23 24.6526 22.6618 25 22.2445 25C21.8273 25 21.489 24.6526 21.489 24.2241V23.1897C21.489 20.3806 19.2717 18.1034 16.5365 18.1034H6.4635C3.72828 18.1034 1.51095 20.3806 1.51095 23.1897V24.2241C1.51095 24.6526 1.17271 25 0.755474 25C0.338237 25 0 24.6526 0 24.2241V23.1897Z"
    fill="currentColor" />
</svg>