<svg width="25" height="25" viewBox="0 0 25 25" fill="none" xmlns="http://www.w3.org/2000/svg">
  <path fill-rule="evenodd" clip-rule="evenodd"
    d="M0 3.42593C0 1.53328 1.53294 0 3.42516 0H6.77923C7.23937 0 7.61238 0.373096 7.61238 0.833333C7.61238 1.29357 7.23937 1.66667 6.77923 1.66667H3.42516C2.45321 1.66667 1.6663 2.45376 1.6663 3.42593V6.78074C1.6663 7.24098 1.29328 7.61407 0.833148 7.61407C0.373013 7.61407 0 7.24098 0 6.78074V3.42593ZM17.3876 0.833333C17.3876 0.373096 17.7606 0 18.2208 0H21.5748C23.4671 0 25 1.53328 25 3.42593V6.78074C25 7.24098 24.627 7.61407 24.1669 7.61407C23.7067 7.61407 23.3337 7.24098 23.3337 6.78074V3.42593C23.3337 2.45375 22.5468 1.66667 21.5748 1.66667H18.2208C17.7606 1.66667 17.3876 1.29357 17.3876 0.833333ZM14.4297 7.65197C13.3632 6.58526 11.6341 6.58526 10.5676 7.65197C9.50117 8.71868 9.50117 10.4482 10.5676 11.5149C11.6341 12.5816 13.3632 12.5816 14.4297 11.5149C15.4962 10.4482 15.4962 8.71868 14.4297 7.65197ZM9.38939 6.47346C11.1066 4.75588 13.8907 4.75588 15.6079 6.47346C17.3251 8.19104 17.3251 10.9758 15.6079 12.6934C13.8907 14.411 11.1066 14.411 9.38939 12.6934C7.67219 10.9758 7.67219 8.19104 9.38939 6.47346ZM7.08671 16.2141C7.86637 15.4924 8.89002 15.0902 9.95431 15.0902H15.0398C16.1019 15.0902 17.1275 15.4905 17.9081 16.2148C18.3683 16.6412 18.728 17.1658 18.9604 17.7485L19.3286 18.6731C19.4989 19.1007 19.2904 19.5854 18.8629 19.7557C18.4354 19.926 17.9509 19.7174 17.7806 19.2899L17.4127 18.366C17.2719 18.0129 17.0538 17.695 16.7754 17.4371C16.3041 16.9999 15.6833 16.7569 15.0398 16.7569H9.95431C9.31059 16.7569 8.69102 17.0001 8.21878 17.4371C7.94038 17.695 7.72226 18.0129 7.58146 18.366L7.21355 19.2899C7.04328 19.7174 6.55871 19.926 6.13124 19.7557C5.70377 19.5854 5.49526 19.1007 5.66553 18.6731L6.0336 17.7489C6.26605 17.166 6.62638 16.6406 7.08671 16.2141ZM0.833148 17.3859C1.29328 17.3859 1.6663 17.759 1.6663 18.2193V21.5741C1.6663 22.5462 2.45321 23.3333 3.42516 23.3333H6.77923C7.23937 23.3333 7.61238 23.7064 7.61238 24.1667C7.61238 24.6269 7.23937 25 6.77923 25H3.42516C1.53294 25 0 23.4667 0 21.5741V18.2193C0 17.759 0.373013 17.3859 0.833148 17.3859ZM24.1669 17.3859C24.627 17.3859 25 17.759 25 18.2193V21.5741C25 23.4667 23.4671 25 21.5748 25H18.2208C17.7606 25 17.3876 24.6269 17.3876 24.1667C17.3876 23.7064 17.7606 23.3333 18.2208 23.3333H21.5748C22.5468 23.3333 23.3337 22.5462 23.3337 21.5741V18.2193C23.3337 17.759 23.7067 17.3859 24.1669 17.3859Z"
    fill="currentColor" />
</svg>