<svg width="20" height="20" viewBox="0 0 20 20" fill="none" xmlns="http://www.w3.org/2000/svg">
  <path fill-rule="evenodd" clip-rule="evenodd"
    d="M10 1.53846C5.32637 1.53846 1.53846 5.32637 1.53846 10C1.53846 14.6736 5.32637 18.4615 10 18.4615C14.6736 18.4615 18.4615 14.6736 18.4615 10C18.4615 5.32637 14.6736 1.53846 10 1.53846ZM0 10C0 4.4767 4.4767 0 10 0C15.5233 0 20 4.4767 20 10C20 15.5233 15.5233 20 10 20C4.4767 20 0 15.5233 0 10ZM10 4.61538C10.4248 4.61538 10.7692 4.95978 10.7692 5.38462V10.5128C10.7692 10.9377 10.4248 11.2821 10 11.2821C9.57517 11.2821 9.23077 10.9377 9.23077 10.5128V5.38462C9.23077 4.95978 9.57517 4.61538 10 4.61538ZM8.97436 14.3618C8.97174 13.7913 9.43461 13.3333 9.99898 13.3333C10.5644 13.3333 11.0256 13.7906 11.0256 14.359C11.0256 14.9253 10.5664 15.3846 10 15.3846C9.43456 15.3846 8.97587 14.9269 8.97436 14.3618ZM9.48718 14.3608L8.97438 14.3645C8.97437 14.3636 8.97437 14.3627 8.97436 14.3618C8.97436 14.3608 8.97436 14.3599 8.97436 14.359H9.48718C9.48718 14.3596 9.48718 14.3602 9.48718 14.3608Z"
    fill="currentColor" />
</svg>