<svg width="29" height="20" viewBox="0 0 29 20" fill="none" xmlns="http://www.w3.org/2000/svg">
  <path fill-rule="evenodd" clip-rule="evenodd"
    d="M25.8467 0.611765C27.0888 0.941176 28.0683 1.90588 28.4027 3.12941C29.0238 5.36471 28.9999 10.0235 28.9999 10.0235C28.9999 10.0235 28.9999 14.6588 28.4027 16.8941C28.0683 18.1176 27.0888 19.0824 25.8467 19.4118C23.5773 20 14.4999 20 14.4999 20C14.4999 20 5.44643 20 3.1532 19.3882C1.91103 19.0588 0.931627 18.0941 0.597197 16.8706C0 14.6588 0 10 0 10C0 10 0 5.36471 0.597197 3.12941C0.931627 1.90588 1.93492 0.917647 3.1532 0.588235C5.42255 0 14.4999 0 14.4999 0C14.4999 0 23.5773 0 25.8467 0.611765ZM19.1575 9.99973L11.609 14.2821V5.71738L19.1575 9.99973Z"
    fill="currentColor" />
</svg>