<svg width="22" height="22" viewBox="0 0 22 22" fill="none" xmlns="http://www.w3.org/2000/svg">
  <path fill-rule="evenodd" clip-rule="evenodd"
    d="M6 11C6 10.4477 6.44772 10 7 10H7.00901C7.5613 10 8.00901 10.4477 8.00901 11C8.00901 11.5523 7.5613 12 7.00901 12H7C6.44772 12 6 11.5523 6 11ZM10.0045 11C10.0045 10.4477 10.4522 10 11.0045 10H11.0135C11.5658 10 12.0135 10.4477 12.0135 11C12.0135 11.5523 11.5658 12 11.0135 12H11.0045C10.4522 12 10.0045 11.5523 10.0045 11ZM13.991 11C13.991 10.4477 14.4387 10 14.991 10H15C15.5523 10 16 10.4477 16 11C16 11.5523 15.5523 12 15 12H14.991C14.4387 12 13.991 11.5523 13.991 11Z"
    fill="currentColor" />
  <path fill-rule="evenodd" clip-rule="evenodd"
    d="M11 1.5C5.7533 1.5 1.5 5.7533 1.5 11C1.5 16.2467 5.7533 20.5 11 20.5C16.2467 20.5 20.5 16.2467 20.5 11C20.5 5.7533 16.2467 1.5 11 1.5ZM0.5 11C0.5 5.20101 5.20101 0.5 11 0.5C16.799 0.5 21.5 5.20101 21.5 11C21.5 16.799 16.799 21.5 11 21.5C5.20101 21.5 0.5 16.799 0.5 11Z"
    fill="currentColor" />
</svg>