<svg xmlns="http://www.w3.org/2000/svg" width="15" height="22" fill="none" viewBox="0 0 15 22"><g clip-path="url(#a)"><path fill="#34A853" d="M4.137 16.297q.934 1.218 1.694 2.556c.432.838.612 1.407.928 2.417.193.558.368.724.745.724.41 0 .596-.283.74-.721.298-.954.532-1.682.902-2.37.725-1.327 1.626-2.507 2.51-3.641.24-.321 1.79-2.191 2.487-3.666 0 0 .858-1.62.858-3.884 0-2.117-.846-3.586-.846-3.586l-2.434.667-1.478 3.984-.366.549-.073.1-.097.124-.171.199-.244.25-1.317 1.097-3.29 1.944z"/><path fill="#FBBC04" d="M.738 11.323c.804 1.877 2.353 3.527 3.4 4.975l5.567-6.745s-.784 1.049-2.207 1.049c-1.584 0-2.864-1.295-2.864-2.927 0-1.12.658-1.888.658-1.888L1.513 6.822z"/><path fill="#4285F4" d="M9.768.347a7.5 7.5 0 0 1 4.388 3.778L9.708 9.549s.658-.783.658-1.896c0-1.67-1.375-2.918-2.86-2.918-1.404 0-2.211 1.048-2.211 1.048V2.366z"/><path fill="#1A73E8" d="M1.758 2.743C2.862 1.392 4.805 0 7.484 0c1.3 0 2.278.35 2.278.35L5.29 5.785H2.12z"/><path fill="#EA4335" d="M.739 11.323S0 9.843 0 7.698c0-2.027.77-3.8 1.759-4.955l3.534 3.043z"/></g><defs><clipPath id="a"><path fill="#fff" d="M0 0h15v22H0z"/></clipPath></defs></svg>