<svg xmlns="http://www.w3.org/2000/svg" width="170" height="39" fill="none" viewBox="0 0 170 39"><g clip-path="url(#a)"><path fill="#181818" d="M21.05 17.783q0 1.305-.323 2.33a6.5 6.5 0 0 1-.88 1.816 6 6 0 0 1-1.264 1.333 7.3 7.3 0 0 1-1.513.908 7.3 7.3 0 0 1-1.586.513 7.5 7.5 0 0 1-1.498.16H5.35v-3.808h8.636q.735-.059 1.322-.293a3.3 3.3 0 0 0 1.028-.659q.426-.41.66-.981.237-.586.236-1.319v-1.728a5 5 0 0 0-.309-1.319 3.1 3.1 0 0 0-.646-1.025 2.7 2.7 0 0 0-.97-.66q-.572-.248-1.321-.248H5.379q-.764 0-1.16.395-.397.396-.397 1.143V30H.004V14.34q0-1.464.528-2.49.544-1.025 1.337-1.655a5.3 5.3 0 0 1 1.748-.908q.94-.293 1.733-.293h8.636q1.293 0 2.32.337a6.3 6.3 0 0 1 1.807.879q.793.542 1.337 1.26.558.717.91 1.508.367.777.529 1.582.162.792.162 1.495zm24.322-1.728q0 1.303-.323 2.329a6.5 6.5 0 0 1-.882 1.816 6 6 0 0 1-1.263 1.333q-.72.557-1.512.923a7.3 7.3 0 0 1-1.587.513 7.5 7.5 0 0 1-1.498.16L46.282 30h-5.904l-7.96-6.87H29.67v-3.81h8.636a4.5 4.5 0 0 0 1.307-.293 3.3 3.3 0 0 0 1.029-.659q.44-.41.675-.981.235-.586.235-1.333v-2.403q0-.322-.088-.483a.48.48 0 0 0-.206-.25.5.5 0 0 0-.264-.102 2 2 0 0 0-.25-.014h-12.6V30h-3.819V10.913q0-.396.147-.747.147-.352.396-.615.265-.264.617-.41a2 2 0 0 1 .764-.147h14.496q1.278 0 2.16.469a4.2 4.2 0 0 1 1.424 1.157q.558.69.793 1.494.25.805.25 1.509zm25.938 5.449q0 1.92-.66 3.53a8.4 8.4 0 0 1-1.837 2.783 8.4 8.4 0 0 1-2.79 1.831q-1.602.645-3.496.645h-5.17q-1.895 0-3.51-.645a8.4 8.4 0 0 1-2.79-1.83 8.6 8.6 0 0 1-1.851-2.784q-.66-1.61-.661-3.53V17.49q0-1.904.66-3.515a8.35 8.35 0 0 1 1.852-2.784 8.4 8.4 0 0 1 2.79-1.83q1.615-.66 3.51-.66h5.17q1.894 0 3.496.66a8.4 8.4 0 0 1 2.79 1.83 8.2 8.2 0 0 1 1.837 2.784q.66 1.611.66 3.515zm-3.818-4.014q0-1.127-.368-2.036a4.3 4.3 0 0 0-1.013-1.567 4.3 4.3 0 0 0-1.572-1.011 5.4 5.4 0 0 0-2.012-.366h-5.17q-1.116 0-2.041.366a4.5 4.5 0 0 0-1.572 1.01q-.66.645-1.028 1.568-.352.909-.352 2.036v4.014q0 1.128.352 2.05a4.6 4.6 0 0 0 1.028 1.568q.66.645 1.572 1.01a5.7 5.7 0 0 0 2.041.352h5.14q1.117 0 2.028-.351a4.7 4.7 0 0 0 1.586-1.01 4.5 4.5 0 0 0 1.013-1.568q.368-.924.368-2.051zm25.011 3.926-13.6-.015v-3.823h13.6zm1.704-8.613H78.903V30h-3.819V10.913q0-.396.147-.747.147-.352.397-.615.264-.264.617-.41.352-.147.763-.147h17.2zM101.14 30h-3.818V8.994h3.818z"/><path fill="#018780" d="M107.936 5c0-2.761 2.244-5 5.013-5h52.038A5.006 5.006 0 0 1 170 5v29c0 2.761-2.244 5-5.013 5h-52.038a5.006 5.006 0 0 1-5.013-5z"/><path fill="#fff" d="M137.302 30h-19.339v-7.044q0-.542.117-1.142.133-.615.397-1.216.264-.6.675-1.142a4.7 4.7 0 0 1 1.013-.952 5 5 0 0 1 1.381-.673q.778-.25 1.762-.25h8.605q.777 0 1.145-.38.381-.396.382-1.142v-1.685q0-.776-.382-1.171-.382-.396-1.116-.395h-12.261V9h12.261a5.7 5.7 0 0 1 1.747.249q.778.248 1.366.674.602.41 1.028.951.426.542.69 1.143.279.585.396 1.2.133.6.133 1.128v1.714q0 1.479-.544 2.504a5.1 5.1 0 0 1-1.336 1.655 5.5 5.5 0 0 1-1.747.922 6 6 0 0 1-1.733.278h-8.634q-.47 0-.749.132a1.14 1.14 0 0 0-.441.352 1.6 1.6 0 0 0-.22.498 6 6 0 0 0-.117.556v3.236h15.521zm22.672 0h-3.847v-8.582h-13.568q-.411 0-.764-.146a2.3 2.3 0 0 1-.617-.41 2 2 0 0 1-.396-.615 1.9 1.9 0 0 1-.147-.747V9h3.818v8.582h11.674V9h3.847z"/></g><defs><clipPath id="a"><path fill="#fff" d="M0 0h170v39H0z"/></clipPath></defs></svg>