<svg xmlns="http://www.w3.org/2000/svg" width="430" height="932" fill="none" viewBox="0 0 430 932"><g clip-path="url(#a)"><path fill="#fff" d="M0 0h430v932H0z"/><path fill="#fff" d="M-808-38h2806V970.68H-808z"/><mask id="b" width="2805" height="1009" x="-808" y="-38" maskUnits="userSpaceOnUse" style="mask-type:alpha"><path fill="#000" d="M-808-38h2804.05V970.68H-808z"/></mask><g mask="url(#b)" opacity="0.3"><path stroke="url(#c)" stroke-miterlimit="10" stroke-width="4" d="M2006.57 1699.59-189.518-478.956"/><path stroke="url(#d)" stroke-miterlimit="10" stroke-width="4" d="M2041.4 1667.59-154.605-510.958" opacity="0.9"/><path stroke="url(#e)" stroke-miterlimit="10" stroke-width="4" d="m2076.3 1635.51-2196-2178.469" opacity="0.8"/><path stroke="url(#f)" stroke-miterlimit="10" stroke-width="4" d="M2111.21 1603.51-84.87-575.036" opacity="0.7"/><path stroke="url(#g)" stroke-miterlimit="10" stroke-width="4" d="M2146.13 1571.51-49.957-607.038" opacity="0.6"/><path stroke="url(#h)" stroke-miterlimit="10" stroke-width="4" d="M2180.96 1539.43-15.045-639.039" opacity="0.5"/><path stroke="url(#i)" stroke-miterlimit="10" stroke-width="4" d="M2215.87 1507.43 19.785-671.119" opacity="0.4"/><path stroke="url(#j)" stroke-miterlimit="10" stroke-width="4" d="M2250.77 1475.43 54.69-703.118" opacity="0.3"/><path stroke="url(#k)" stroke-miterlimit="10" stroke-width="4" d="M2285.61 1443.35 89.603-735.119" opacity="0.2"/><g stroke-miterlimit="10" stroke-width="4" opacity="0.6"><path stroke="url(#l)" d="M-772.835-604.208 1423.25 1574.34" opacity="0.6"/><path stroke="url(#m)" d="M-807.672-572.208 1388.33 1606.34" opacity="0.9"/><path stroke="url(#n)" d="M-842.577-540.129 1353.43 1638.34" opacity="0.8"/><path stroke="url(#o)" d="M-877.49-508.129 1318.59 1670.42" opacity="0.7"/><path stroke="url(#p)" d="M-912.319-476.127 1283.69 1702.42" opacity="0.6"/><path stroke="url(#q)" d="M-947.232-444.047 1248.77 1734.42" opacity="0.5"/><path stroke="url(#r)" d="M-982.138-412.048 1213.95 1766.5" opacity="0.4"/><path stroke="url(#s)" d="M-1017.05-380.047 1179.03 1798.5" opacity="0.3"/><path stroke="url(#t)" d="m-1051.88-347.968 2196 2178.468" opacity="0.2"/></g><path fill="url(#u)" d="M-528.313-381.698 1469.71 1604.69l-3.22 3.3L-531.536-378.395z" opacity="0.4"/><path fill="url(#v)" d="M1808.51 1477.08-189.518-509.307l3.224-3.302L1811.81 1473.78z" opacity="0.4"/><path stroke="#E1E1E1" stroke-miterlimit="10" stroke-width="4" d="M-551.033-404.97-61.04 85.022c227.935 227.935 227.935 597.395 0 825.33l-543.929 543.928c-227.935 227.94-597.391 227.94-825.331 0l-489.99-489.991c-227.94-227.935-227.94-597.395 0-825.33l543.93-543.929c227.93-227.935 597.471-227.935 825.327 0Z"/><path stroke="#E1E1E1" stroke-miterlimit="10" stroke-width="4" d="M-562.828-360.705-97.13 104.993c215.04 215.04 215.04 563.822 0 778.862l-509.964 509.965c-215.04 215.04-563.826 215.04-778.866 0l-465.69-465.699c-215.04-215.04-215.04-563.822 0-778.862l509.96-509.964c215.04-215.118 563.822-215.118 778.862 0Z"/><path stroke="#E1E1E1" stroke-miterlimit="10" stroke-width="4" d="M-619.043-348.832-125.59 144.62c193.26 193.261 193.26 506.662 0 699.923l-524.982 524.977c-193.261 193.26-506.658 193.26-699.918 0l-493.46-493.448c-193.26-193.261-193.26-506.662 0-699.923l524.98-524.981c193.27-193.261 506.666-193.261 699.927 0Z" opacity="0.8857"/><path stroke="#00C781" stroke-miterlimit="10" stroke-width="4" d="m-675.256-336.958 521.129 521.129c171.481 171.481 171.481 449.579 0 621.061l-539.999 539.998c-171.482 171.48-449.584 171.48-621.064 0l-521.13-521.128c-171.48-171.482-171.48-449.58 0-621.061l540-539.999c171.56-171.482 449.582-171.482 621.064 0Z" opacity="0.7714"/></g></g><defs><linearGradient id="c" x1="1106.37" x2="710.677" y1="267.653" y2="953.01" gradientUnits="userSpaceOnUse"><stop stop-color="#808081"/><stop offset="0.5552" stop-color="#231F20" stop-opacity="0"/></linearGradient><linearGradient id="d" x1="1141.26" x2="745.566" y1="235.627" y2="920.984" gradientUnits="userSpaceOnUse"><stop stop-color="#808081"/><stop offset="0.5552" stop-color="#231F20" stop-opacity="0"/></linearGradient><linearGradient id="e" x1="1176.14" x2="780.448" y1="203.601" y2="888.958" gradientUnits="userSpaceOnUse"><stop stop-color="#808081"/><stop offset="0.5552" stop-color="#231F20" stop-opacity="0"/></linearGradient><linearGradient id="f" x1="1211.02" x2="815.333" y1="171.578" y2="856.935" gradientUnits="userSpaceOnUse"><stop stop-color="#808081"/><stop offset="0.5552" stop-color="#231F20" stop-opacity="0"/></linearGradient><linearGradient id="g" x1="1245.91" x2="850.223" y1="139.551" y2="824.908" gradientUnits="userSpaceOnUse"><stop stop-color="#808081"/><stop offset="0.5552" stop-color="#231F20" stop-opacity="0"/></linearGradient><linearGradient id="h" x1="1280.8" x2="885.112" y1="107.525" y2="792.882" gradientUnits="userSpaceOnUse"><stop stop-color="#808081"/><stop offset="0.5552" stop-color="#231F20" stop-opacity="0"/></linearGradient><linearGradient id="i" x1="1315.69" x2="919.998" y1="75.4993" y2="760.856" gradientUnits="userSpaceOnUse"><stop stop-color="#808081"/><stop offset="0.5552" stop-color="#231F20" stop-opacity="0"/></linearGradient><linearGradient id="j" x1="1350.57" x2="954.879" y1="43.4754" y2="728.832" gradientUnits="userSpaceOnUse"><stop stop-color="#808081"/><stop offset="0.5552" stop-color="#231F20" stop-opacity="0"/></linearGradient><linearGradient id="k" x1="1385.46" x2="989.769" y1="11.4498" y2="696.807" gradientUnits="userSpaceOnUse"><stop stop-color="#808081"/><stop offset="0.5552" stop-color="#231F20" stop-opacity="0"/></linearGradient><linearGradient id="l" x1="1071.57" x2="-421.139" y1="1777.78" y2="-807.671" gradientUnits="userSpaceOnUse"><stop stop-color="#808081"/><stop offset="0.603" stop-color="#231F20" stop-opacity="0"/></linearGradient><linearGradient id="m" x1="1036.68" x2="-456.031" y1="1809.8" y2="-775.646" gradientUnits="userSpaceOnUse"><stop stop-color="#808081"/><stop offset="0.603" stop-color="#231F20" stop-opacity="0"/></linearGradient><linearGradient id="n" x1="1001.8" x2="-490.913" y1="1841.83" y2="-743.621" gradientUnits="userSpaceOnUse"><stop stop-color="#808081"/><stop offset="0.603" stop-color="#231F20" stop-opacity="0"/></linearGradient><linearGradient id="o" x1="966.908" x2="-525.803" y1="1873.85" y2="-711.596" gradientUnits="userSpaceOnUse"><stop stop-color="#808081"/><stop offset="0.603" stop-color="#231F20" stop-opacity="0"/></linearGradient><linearGradient id="p" x1="932.023" x2="-560.687" y1="1905.88" y2="-679.569" gradientUnits="userSpaceOnUse"><stop stop-color="#808081"/><stop offset="0.603" stop-color="#231F20" stop-opacity="0"/></linearGradient><linearGradient id="q" x1="897.134" x2="-595.577" y1="1937.91" y2="-647.543" gradientUnits="userSpaceOnUse"><stop stop-color="#808081"/><stop offset="0.603" stop-color="#231F20" stop-opacity="0"/></linearGradient><linearGradient id="r" x1="862.251" x2="-630.459" y1="1969.93" y2="-615.52" gradientUnits="userSpaceOnUse"><stop stop-color="#808081"/><stop offset="0.603" stop-color="#231F20" stop-opacity="0"/></linearGradient><linearGradient id="s" x1="827.361" x2="-665.349" y1="2001.96" y2="-583.494" gradientUnits="userSpaceOnUse"><stop stop-color="#808081"/><stop offset="0.603" stop-color="#231F20" stop-opacity="0"/></linearGradient><linearGradient id="t" x1="792.477" x2="-700.233" y1="2033.98" y2="-551.468" gradientUnits="userSpaceOnUse"><stop stop-color="#808081"/><stop offset="0.603" stop-color="#231F20" stop-opacity="0"/></linearGradient><linearGradient id="u" x1="1282.8" x2="-348.245" y1="1323.94" y2="-100.769" gradientUnits="userSpaceOnUse"><stop stop-color="#EFEFEF"/><stop offset="0.1866" stop-color="gray"/><stop offset="0.4313" stop-color="#E3E3E3"/><stop offset="0.6757" stop-color="#969696"/><stop offset="0.9221" stop-color="#333"/></linearGradient><linearGradient id="v" x1="-189.496" x2="1811.78" y1="482.23" y2="482.23" gradientUnits="userSpaceOnUse"><stop stop-color="#00C781"/><stop offset="0.2045" stop-color="#00A99A"/><stop offset="0.4224" stop-color="#7BC60E"/><stop offset="1" stop-color="#006A31"/></linearGradient><clipPath id="a"><path fill="#fff" d="M0 0h430v932H0z"/></clipPath></defs></svg>