<svg xmlns="http://www.w3.org/2000/svg" width="22" height="22" fill="none" viewBox="0 0 22 22"><g clip-path="url(#a)"><path fill="#1EB53A" d="M0 14.667h22V22H0z"/><path fill="#0099B5" d="M0 0h22v7.333H0z"/><path fill="#CE1126" d="M0 7.04h22v7.92H0z"/><path fill="#fff" d="M0 7.48h22v7.04H0zm4.62-1.32c1.094 0 1.98-1.182 1.98-2.64S5.715.88 4.62.88 2.64 2.062 2.64 3.52s.887 2.64 1.98 2.64"/><path fill="#0099B5" d="M5.28 6.16c1.094 0 1.98-1.182 1.98-2.64S6.375.88 5.28.88 3.3 2.062 3.3 3.52s.887 2.64 1.98 2.64"/><path fill="#fff" d="m8.975 5.105-.125.501.191.088"/><path fill="#fff" d="m8.974 5.105.126.501-.192.088"/><path fill="#fff" d="m9.356 5.454-.399.032-.016.25"/><path fill="#fff" d="m9.359 5.461-.335.32-.113-.188"/><path fill="#fff" d="m8.592 5.461.336.32.112-.188"/><path fill="#fff" d="m8.595 5.454.399.032.016.25"/><path fill="#fff" d="m9.201 6.056-.106-.502-.201.091"/><path fill="#fff" d="m9.205 6.053-.32-.291.125-.23"/><path fill="#fff" d="m8.741 6.066.324-.32-.108-.215"/><path fill="#fff" d="m8.74 6.063.13-.506.187.07m-.082-2.634-.125.502.191.088"/><path fill="#fff" d="m8.974 2.993.126.502-.192.088"/><path fill="#fff" d="m9.356 3.342-.399.032-.016.25"/><path fill="#fff" d="m9.359 3.35-.335.318-.113-.187"/><path fill="#fff" d="m8.592 3.35.336.318.112-.187"/><path fill="#fff" d="m8.595 3.342.399.032.016.25"/><path fill="#fff" d="m9.201 3.944-.106-.502-.201.091"/><path fill="#fff" d="m9.205 3.941-.32-.291.125-.23"/><path fill="#fff" d="m8.741 3.954.324-.32-.108-.215"/><path fill="#fff" d="m8.74 3.951.13-.506.187.07M8.975.88l-.125.502.191.088"/><path fill="#fff" d="m8.974.88.126.502-.192.088"/><path fill="#fff" d="m9.356 1.23-.399.032-.016.25"/><path fill="#fff" d="m9.359 1.237-.335.32-.113-.188"/><path fill="#fff" d="m8.592 1.237.336.32.112-.188"/><path fill="#fff" d="m8.595 1.23.399.032.016.25"/><path fill="#fff" d="m9.201 1.832-.106-.502-.201.091"/><path fill="#fff" d="m9.205 1.83-.32-.292.125-.23"/><path fill="#fff" d="m8.741 1.842.324-.32-.108-.215"/><path fill="#fff" d="m8.74 1.839.13-.506.187.07m1.502 3.702-.125.501.191.088"/><path fill="#fff" d="m10.558 5.105.126.501-.192.088"/><path fill="#fff" d="m10.94 5.454-.399.032-.016.25"/><path fill="#fff" d="m10.943 5.461-.335.32-.113-.188"/><path fill="#fff" d="m10.176 5.461.336.32.112-.188"/><path fill="#fff" d="m10.18 5.454.398.032.016.25"/><path fill="#fff" d="m10.785 6.056-.106-.502-.201.091"/><path fill="#fff" d="m10.789 6.053-.32-.291.125-.23"/><path fill="#fff" d="m10.325 6.066.324-.32-.108-.215"/><path fill="#fff" d="m10.324 6.063.13-.506.187.07m-.082-2.634-.125.502.191.088"/><path fill="#fff" d="m10.558 2.993.126.502-.192.088"/><path fill="#fff" d="m10.94 3.342-.399.032-.016.25"/><path fill="#fff" d="m10.943 3.35-.335.318-.113-.187"/><path fill="#fff" d="m10.176 3.35.336.318.112-.187"/><path fill="#fff" d="m10.18 3.342.398.032.016.25"/><path fill="#fff" d="m10.785 3.944-.106-.502-.201.091"/><path fill="#fff" d="m10.789 3.941-.32-.291.125-.23"/><path fill="#fff" d="m10.325 3.954.324-.32-.108-.215"/><path fill="#fff" d="m10.324 3.951.13-.506.187.07M10.559.88l-.125.502.191.088"/><path fill="#fff" d="m10.558.88.126.502-.192.088"/><path fill="#fff" d="m10.94 1.23-.399.032-.016.25"/><path fill="#fff" d="m10.943 1.237-.335.32-.113-.188"/><path fill="#fff" d="m10.176 1.237.336.32.112-.188"/><path fill="#fff" d="m10.18 1.23.398.032.016.25"/><path fill="#fff" d="m10.785 1.832-.106-.502-.201.091"/><path fill="#fff" d="m10.789 1.83-.32-.292.125-.23"/><path fill="#fff" d="m10.325 1.842.324-.32-.108-.215"/><path fill="#fff" d="m10.324 1.839.13-.506.187.07m1.502 3.702-.125.501.191.088"/><path fill="#fff" d="m12.142 5.105.126.501-.192.088"/><path fill="#fff" d="m12.524 5.454-.399.032-.016.25"/><path fill="#fff" d="m12.527 5.461-.335.32-.113-.188"/><path fill="#fff" d="m11.76 5.461.336.32.112-.188"/><path fill="#fff" d="m11.763 5.454.399.032.016.25"/><path fill="#fff" d="m12.37 6.056-.107-.502-.201.091"/><path fill="#fff" d="m12.373 6.053-.32-.291.125-.23"/><path fill="#fff" d="m11.909 6.066.324-.32-.108-.215"/><path fill="#fff" d="m11.908 6.063.13-.506.187.07m-.082-2.634-.125.502.191.088"/><path fill="#fff" d="m12.142 2.993.126.502-.192.088"/><path fill="#fff" d="m12.524 3.342-.399.032-.016.25"/><path fill="#fff" d="m12.527 3.35-.335.318-.113-.187"/><path fill="#fff" d="m11.76 3.35.336.318.112-.187"/><path fill="#fff" d="m11.763 3.342.399.032.016.25"/><path fill="#fff" d="m12.37 3.944-.107-.502-.201.091"/><path fill="#fff" d="m12.373 3.941-.32-.291.125-.23"/><path fill="#fff" d="m11.909 3.954.324-.32-.108-.215"/><path fill="#fff" d="m11.908 3.951.13-.506.187.07M12.143.88l-.125.502.191.088"/><path fill="#fff" d="m12.142.88.126.502-.192.088"/><path fill="#fff" d="m12.524 1.23-.399.032-.016.25"/><path fill="#fff" d="m12.527 1.237-.335.32-.113-.188"/><path fill="#fff" d="m11.76 1.237.336.32.112-.188"/><path fill="#fff" d="m11.763 1.23.399.032.016.25"/><path fill="#fff" d="m12.37 1.832-.107-.502-.201.091"/><path fill="#fff" d="m12.373 1.83-.32-.292.125-.23"/><path fill="#fff" d="m11.909 1.842.324-.32-.108-.215"/><path fill="#fff" d="m11.908 1.839.13-.506.187.07M5.807 5.105l-.125.501.191.088"/><path fill="#fff" d="m5.806 5.105.126.501-.192.088"/><path fill="#fff" d="m6.188 5.454-.399.032-.016.25"/><path fill="#fff" d="m6.191 5.461-.335.32-.113-.188"/><path fill="#fff" d="m5.424 5.461.336.32.112-.188"/><path fill="#fff" d="m5.427 5.454.4.032.015.25"/><path fill="#fff" d="m6.033 6.056-.106-.502-.201.091"/><path fill="#fff" d="m6.037 6.053-.32-.291.125-.23"/><path fill="#fff" d="m5.573 6.066.324-.32-.108-.215"/><path fill="#fff" d="m5.572 6.063.13-.506.187.07m1.502-.522-.125.501.191.088"/><path fill="#fff" d="m7.39 5.105.126.501-.192.088"/><path fill="#fff" d="m7.772 5.454-.399.032-.016.25"/><path fill="#fff" d="m7.775 5.461-.335.32-.113-.188"/><path fill="#fff" d="m7.008 5.461.336.32.112-.188"/><path fill="#fff" d="m7.011 5.454.399.032.016.25"/><path fill="#fff" d="m7.617 6.056-.106-.502-.201.091"/><path fill="#fff" d="m7.62 6.053-.32-.291.126-.23"/><path fill="#fff" d="m7.157 6.066.324-.32-.108-.215"/><path fill="#fff" d="m7.156 6.063.13-.506.187.07m-.082-2.634-.125.502.191.088"/><path fill="#fff" d="m7.39 2.993.126.502-.192.088"/><path fill="#fff" d="m7.772 3.342-.399.032-.016.25"/><path fill="#fff" d="m7.775 3.35-.335.318-.113-.187"/><path fill="#fff" d="m7.008 3.35.336.318.112-.187"/><path fill="#fff" d="m7.011 3.342.399.032.016.25"/><path fill="#fff" d="m7.617 3.944-.106-.502-.201.091"/><path fill="#fff" d="M7.62 3.941 7.3 3.65l.126-.23"/><path fill="#fff" d="m7.157 3.954.324-.32-.108-.215"/><path fill="#fff" d="m7.156 3.951.13-.506.187.07"/></g><defs><clipPath id="a"><rect width="22" height="22" fill="#fff" rx="11"/></clipPath></defs></svg>