<svg xmlns="http://www.w3.org/2000/svg" width="49" height="48" fill="none" viewBox="0 0 49 48"><path stroke="#016FEE" stroke-width="4" d="M2 23.192c0-8.412 0-12.62 2.614-15.231 2.613-2.615 6.82-2.615 15.232-2.615h8.923c8.413 0 12.62 0 15.232 2.615 2.614 2.612 2.614 6.82 2.614 15.231v4.462c0 8.412 0 12.62-2.614 15.232C41.389 45.5 37.18 45.5 28.769 45.5h-8.923c-8.412 0-12.62 0-15.232-2.614C2 40.273 2 36.066 2 27.654z"/><path stroke="#016FEE" stroke-linecap="round" stroke-width="4" d="M13.154 5.346V2M35.46 5.346V2M3.115 16.5H45.5"/><path fill="#016FEE" d="M37.693 34.346a2.23 2.23 0 1 1-4.462 0 2.23 2.23 0 0 1 4.462 0m0-8.923a2.23 2.23 0 1 1-4.461 0 2.23 2.23 0 0 1 4.461 0M26.54 34.346a2.23 2.23 0 1 1-4.46 0 2.23 2.23 0 0 1 4.46 0m0-8.923a2.23 2.23 0 1 1-4.46 0 2.23 2.23 0 0 1 4.46 0m-11.154 8.923a2.23 2.23 0 1 1-4.461 0 2.23 2.23 0 0 1 4.461 0m0-8.923a2.23 2.23 0 1 1-4.461 0 2.23 2.23 0 0 1 4.461 0"/></svg>