<svg xmlns="http://www.w3.org/2000/svg" width="34" height="48" fill="none" viewBox="0 0 34 48"><path stroke="#016FEE" stroke-linecap="round" stroke-linejoin="round" stroke-width="4" d="M17 38.667h.025M14.5 9.333h5M10 46h14c2.8 0 4.2 0 5.27-.533a4.95 4.95 0 0 0 2.185-2.136C32 42.285 32 40.916 32 38.178V9.822c0-2.738 0-4.107-.545-5.153a4.95 4.95 0 0 0-2.185-2.136C28.2 2 26.8 2 24 2H10c-2.8 0-4.2 0-5.27.533a4.95 4.95 0 0 0-2.185 2.136C2 5.715 2 7.084 2 9.822v28.356c0 2.738 0 4.107.545 5.153a4.95 4.95 0 0 0 2.185 2.136C5.8 46 7.2 46 10 46"/></svg>