<svg xmlns="http://www.w3.org/2000/svg" width="50" height="49" fill="none" viewBox="0 0 50 49"><path fill="#016FEE" stroke="#016FEE" stroke-width="0.5" d="M1 24.5c0 4.648 1.408 9.191 4.045 13.056a23.9 23.9 0 0 0 10.77 8.655 24.5 24.5 0 0 0 13.867 1.337 24.16 24.16 0 0 0 12.289-6.431 23.35 23.35 0 0 0 6.568-12.032 23.05 23.05 0 0 0-1.366-13.578 23.6 23.6 0 0 0-8.84-10.547A24.37 24.37 0 0 0 25 1C18.635 1 12.53 3.476 8.03 7.883 3.528 12.29 1 18.267 1 24.5Zm39.686 13.009L11.714 9.14c3.944-3.214 8.973-4.87 14.099-4.64 5.126.229 9.98 2.325 13.608 5.878s5.77 8.306 6.004 13.325-1.456 9.943-4.74 13.805Zm-28.989 2.367c-4.151-3.452-6.735-8.375-7.185-13.69s1.27-10.587 4.785-14.661l28.954 28.35a20.84 20.84 0 0 1-13.277 4.758c-4.86 0-9.564-1.686-13.277-4.757Z"/></svg>