<svg xmlns="http://www.w3.org/2000/svg" width="52" height="44" fill="none" viewBox="0 0 52 44"><path fill="#1E1E1E" d="M0 0h52v44H0z"/><g clip-path="url(#a)"><path fill="#FBFBFB" d="M-395-674h1920v4208H-395z"/><g filter="url(#b)"><rect width="1184" height="113" x="-25" y="-35" fill="#fff" rx="20"/></g><path stroke="#016FEE" stroke-linecap="round" stroke-linejoin="round" stroke-width="4" d="M50 42c0-4.645-4.452-8.596-10.667-10.06M34 42c0-5.89-7.163-10.667-16-10.667S2 36.11 2 42m32-18.667c5.89 0 10.667-4.775 10.667-10.666S39.89 2 34 2M18 23.333c-5.891 0-10.667-4.775-10.667-10.666S12.11 2 18 2s10.667 4.776 10.667 10.667c0 5.89-4.776 10.666-10.667 10.666"/></g><defs><clipPath id="a"><path fill="#fff" d="M-395-674h1920v4208H-395z"/></clipPath><filter id="b" width="1218" height="147" x="-42" y="-51" color-interpolation-filters="sRGB" filterUnits="userSpaceOnUse"><feFlood flood-opacity="0" result="BackgroundImageFix"/><feColorMatrix in="SourceAlpha" result="hardAlpha" values="0 0 0 0 0 0 0 0 0 0 0 0 0 0 0 0 0 0 127 0"/><feOffset dy="1"/><feGaussianBlur stdDeviation="8.5"/><feComposite in2="hardAlpha" operator="out"/><feColorMatrix values="0 0 0 0 0 0 0 0 0 0 0 0 0 0 0 0 0 0 0.02 0"/><feBlend in2="BackgroundImageFix" result="effect1_dropShadow_0_1"/><feBlend in="SourceGraphic" in2="effect1_dropShadow_0_1" result="shape"/></filter></defs></svg>