<svg xmlns="http://www.w3.org/2000/svg" width="56" height="42" fill="none" viewBox="0 0 56 42"><path fill="#016FEE" d="M49.627.689a4.4 4.4 0 0 0-4.075-.344L24.065 8.697a4.3 4.3 0 0 1-1.602.31H8.706a4.38 4.38 0 0 0-3.078 1.258 4.27 4.27 0 0 0-1.275 3.037v.344H0v10.31h4.353v.447a4.27 4.27 0 0 0 1.312 2.972 4.38 4.38 0 0 0 3.041 1.221l5.224 10.93a4.36 4.36 0 0 0 1.607 1.796 4.43 4.43 0 0 0 2.329.678h2.194a4.38 4.38 0 0 0 3.055-1.27 4.27 4.27 0 0 0 1.263-3.026v-8.695l21.174 8.351c.521.205 1.077.31 1.637.31a4.54 4.54 0 0 0 2.438-.757 4.3 4.3 0 0 0 1.378-1.49 4.25 4.25 0 0 0 .537-1.946V4.229a4.25 4.25 0 0 0-.513-2.004A4.3 4.3 0 0 0 49.627.689M20.025 13.302v11.101H8.706v-11.1zm0 24.402H17.83l-4.284-9.108h6.478zm5.642-12.785a8 8 0 0 0-1.289-.516V13.062q.66-.135 1.289-.378l21.522-8.455v29.145zm25.98-10.414v8.592a4.38 4.38 0 0 0 3.078-1.258A4.27 4.27 0 0 0 56 18.801c0-1.14-.459-2.232-1.275-3.037a4.38 4.38 0 0 0-3.078-1.259"/></svg>