<svg width="356" height="276" viewBox="0 0 356 276" fill="none" xmlns="http://www.w3.org/2000/svg">
<g clip-path="url(#clip0_691_38535)">
<path d="M272.526 251.234C282.995 251.234 291.482 233.888 291.482 212.49C291.482 191.092 282.995 173.746 272.526 173.746C262.057 173.746 253.57 191.092 253.57 212.49C253.57 233.888 262.057 251.234 272.526 251.234Z" fill="#3F3D56"/>
<path d="M270.774 275.908C278.366 230.279 270.851 184.815 270.774 184.361L269.297 184.612C269.374 185.063 276.846 230.288 269.297 275.662L270.774 275.908Z" fill="#CACACA"/>
<path d="M255.839 204.159L255.133 205.482L272.274 214.666L272.981 213.343L255.839 204.159Z" fill="#CACACA"/>
<path d="M290.358 208.76L273.219 217.949L273.926 219.272L291.065 210.083L290.358 208.76Z" fill="#CACACA"/>
<path d="M318.067 226.951C338.544 226.951 355.143 193.024 355.143 151.172C355.143 109.321 338.544 75.3933 318.067 75.3933C297.591 75.3933 280.992 109.321 280.992 151.172C280.992 193.024 297.591 226.951 318.067 226.951Z" fill="#E6E6E6"/>
<path d="M313.938 275.092C328.768 185.965 314.088 97.1624 313.938 96.2759L312.461 96.5265C312.611 97.4108 327.247 185.975 312.461 274.846L313.938 275.092Z" fill="#CACACA"/>
<path d="M285.089 135.509L284.383 136.833L317.91 154.796L318.616 153.473L285.089 135.509Z" fill="#CACACA"/>
<path d="M353.295 144.508L319.773 162.481L320.48 163.805L354.002 145.831L353.295 144.508Z" fill="#CACACA"/>
<path d="M231.965 275.33H34.7592C34.0339 275.329 33.3385 275.04 32.8256 274.527C32.3128 274.013 32.0243 273.316 32.0234 272.59V147.764C32.0242 147.038 32.3127 146.341 32.8256 145.827C33.3385 145.314 34.0339 145.025 34.7592 145.024H231.965C232.69 145.025 233.386 145.314 233.898 145.828C234.411 146.341 234.7 147.038 234.701 147.764V272.59C234.7 273.316 234.411 274.013 233.898 274.527C233.385 275.04 232.69 275.329 231.965 275.33Z" fill="#E4E4E4"/>
<path d="M52.8912 160.15C52.5804 160.151 52.2823 160.275 52.0625 160.495C51.8427 160.715 51.7191 161.013 51.7188 161.325V259.03C51.7191 259.341 51.8427 259.64 52.0625 259.86C52.2823 260.08 52.5804 260.204 52.8912 260.204H213.826C214.136 260.204 214.434 260.08 214.654 259.86C214.874 259.64 214.998 259.341 214.998 259.03V161.325C214.998 161.013 214.874 160.715 214.654 160.495C214.434 160.275 214.136 160.151 213.826 160.15H52.8912Z" fill="white"/>
<path d="M215.392 185.315V179.124H192.633V159.759H186.453V179.124H145.934V159.759H139.754V179.124H77.2596V159.759H71.0788V179.124H49.4688V185.315H71.0788V209.393H49.4688V215.584H71.0788V241.382H49.4688V247.573H104.386V260.596H110.567V247.573H139.754V260.596H145.934V247.573H215.392V241.382H145.934V215.584H215.392V209.393H192.633V185.315H215.392ZM139.754 185.315V192.883H77.2596V185.315H139.754ZM77.2596 199.074H139.754V209.393H77.2596V199.074ZM77.2596 241.382V215.584H104.386V241.382H77.2596ZM139.754 241.382H110.567V215.584H139.754V241.382ZM186.453 209.393H145.934V185.315H186.453V209.393Z" fill="#E6E6E6"/>
<path d="M142.843 221.183C147.205 221.183 150.741 217.641 150.741 213.272C150.741 208.902 147.205 205.36 142.843 205.36C138.481 205.36 134.945 208.902 134.945 213.272C134.945 217.641 138.481 221.183 142.843 221.183Z" fill="#F9B42B"/>
<path d="M355.846 276H0V275.146H356L355.846 276Z" fill="#CACACA"/>
<path d="M143.788 166.275C170.694 166.275 192.506 144.426 192.506 117.474C192.506 90.5213 170.694 68.6721 143.788 68.6721C116.882 68.6721 95.0703 90.5213 95.0703 117.474C95.0703 144.426 116.882 166.275 143.788 166.275Z" fill="#F9B42B"/>
<path d="M144.267 196.806L128.876 170.468L113.484 144.131L143.949 143.948L174.415 143.764L159.341 170.285L144.267 196.806Z" fill="#F9B42B"/>
<path d="M144.182 134.676C153.836 134.676 161.661 126.837 161.661 117.167C161.661 107.497 153.836 99.6575 144.182 99.6575C134.529 99.6575 126.703 107.497 126.703 117.167C126.703 126.837 134.529 134.676 144.182 134.676Z" fill="white"/>
<path d="M142.66 0.250759C142.66 0.250759 132.235 -2.6908 129.152 11.5757C126.069 25.8422 128.027 24.0447 128.027 24.0447L151.299 21.3238C151.299 21.3238 158.297 4.58953 142.66 0.250759Z" fill="#2F2E41"/>
<path d="M127.5 62.8384C127.5 62.8384 111.773 63.5676 114.497 69.7516C114.689 70.1887 114.868 70.5983 115.034 70.9803C116.981 75.4594 119.222 79.8045 121.742 83.9868L131.408 100.03L134.926 98.0726L125.028 72.298L133.924 71.5705L127.5 62.8384Z" fill="#FFB6B6"/>
<path d="M168.968 69.3879L174.052 80.4827C174.052 80.4827 177.865 84.3022 182.041 99.5803C186.217 114.858 187.125 114.313 187.125 114.313L182.997 115.69L166.063 84.8479L157.711 74.2987L160.253 68.6604L168.968 69.3879Z" fill="#FFB6B6"/>
<path d="M162.792 56.6562L170.098 70.2768C170.098 70.2768 186.661 102.879 184.949 102.771C183.025 102.649 177.62 104.896 175.96 107.077C175.159 108.13 163.454 82.413 159.343 76.6632L150.446 69.7517C150.446 69.7517 125.185 74.0106 125.154 72.6257C125.139 71.9473 133.517 88.2236 131.798 87.5024C129.839 86.6808 125.231 90.6789 123.2 89.8513C122.362 89.5099 116.439 75.1268 114.042 69.233C113.741 68.4972 113.726 67.6755 113.998 66.9289C114.271 66.1822 114.812 65.5644 115.515 65.1965C117.317 64.2579 142.35 58.532 142.35 58.532L141.912 56.2924L143.728 52.6548L162.792 56.6562Z" fill="#2F2E41"/>
<path d="M147.817 16.5045C148.443 12.6375 145.822 8.99401 141.961 8.36649C138.101 7.73898 134.464 10.3651 133.837 14.2321C133.211 18.0991 135.833 21.7426 139.693 22.3701C143.553 22.9976 147.191 20.3715 147.817 16.5045Z" fill="#FFB6B6"/>
<path d="M163.453 57.749C163.844 58.9241 161.312 59.599 157.782 58.9388C154.728 58.3677 151.386 57.6893 148.749 57.14C145.926 56.5507 143.909 56.1105 143.909 56.1105C143.909 56.1105 143.182 60.6576 140.822 60.1119C138.788 59.6427 132.711 38.3789 131.068 32.5023C130.948 32.0732 130.971 31.6165 131.134 31.2019C131.297 30.7872 131.591 30.4372 131.97 30.2051L140.317 25.0997C140.317 25.0997 146.069 23.1208 148.166 23.0644C150.263 23.0081 153.895 22.4624 153.895 22.4624C153.895 22.4624 158.071 22.8262 158.797 25.9182C159.524 29.0101 162.554 47.3428 162.61 51.7454C162.672 56.5746 162.281 54.2256 163.453 57.749Z" fill="#54C1C1"/>
<path d="M143.47 6.25708C143.47 6.25708 140.533 14.0522 133.339 17.2879L132.164 10.3752L143.47 6.25708Z" fill="#2F2E41"/>
<path d="M147.725 14.5506C148.277 14.5506 148.724 13.6956 148.724 12.6408C148.724 11.5861 148.277 10.7311 147.725 10.7311C147.174 10.7311 146.727 11.5861 146.727 12.6408C146.727 13.6956 147.174 14.5506 147.725 14.5506Z" fill="#FFB6B6"/>
<path d="M137.856 101.849L123.819 108.313L123.737 108.136C123.071 106.684 123.008 105.027 123.561 103.529C124.115 102.03 125.24 100.814 126.689 100.146L126.689 100.146L135.262 96.198L137.856 101.849Z" fill="#2F2E41"/>
<path d="M180.906 114.764L189.517 110.897C190.972 110.244 192.627 110.196 194.117 110.765C195.608 111.334 196.811 112.472 197.464 113.93L197.544 114.109L183.446 120.439L180.906 114.764Z" fill="#2F2E41"/>
<path opacity="0.2" d="M157.597 40.9148L155.953 59.0256L158.875 59.1638L157.597 40.9148Z" fill="#004545"/>
<path d="M146.138 74.7483C146.486 74.3588 146.745 73.8976 146.896 73.3971C147.047 72.8966 147.087 72.369 147.012 71.8515C146.938 71.334 146.751 70.8391 146.465 70.4017C146.179 69.9644 145.8 69.5952 145.356 69.3201L139.041 37.3643L131.789 40.1435L140.277 70.6812C139.865 71.4589 139.752 72.3609 139.96 73.2163C140.168 74.0717 140.682 74.821 141.404 75.3223C142.126 75.8237 143.007 76.0421 143.88 75.9363C144.752 75.8306 145.556 75.4078 146.138 74.7483Z" fill="#FFB6B6"/>
<path d="M140.64 42.75L132.677 44.155C132.45 44.1949 132.218 44.1855 131.995 44.1273C131.772 44.0692 131.565 43.9637 131.387 43.8179C131.208 43.6722 131.064 43.4897 130.962 43.2829C130.861 43.0761 130.805 42.8497 130.799 42.6194L130.579 34.5473C130.381 33.3849 130.652 32.1913 131.331 31.2284C132.011 30.2655 133.043 29.6118 134.203 29.4106C135.363 29.2095 136.555 29.4773 137.519 30.1554C138.482 30.8335 139.137 31.8665 139.341 33.0279L141.881 40.6641C141.954 40.8827 141.978 41.1145 141.954 41.3436C141.929 41.5727 141.855 41.7938 141.737 41.9917C141.619 42.1897 141.46 42.3599 141.271 42.4907C141.082 42.6216 140.866 42.71 140.64 42.75Z" fill="#54C1C1"/>
<path d="M152.242 74.186C152.696 73.929 153.089 73.5752 153.393 73.1497C153.696 72.7242 153.902 72.2372 153.997 71.723C154.093 71.2089 154.074 70.6802 153.943 70.174C153.812 69.6678 153.572 69.1966 153.239 68.7935L157.487 36.4966L149.728 36.7996L147.993 68.4512C147.354 69.0555 146.958 69.8736 146.881 70.7506C146.804 71.6275 147.051 72.5023 147.574 73.2092C148.098 73.9161 148.863 74.406 149.723 74.586C150.583 74.766 151.479 74.6237 152.242 74.186Z" fill="#FFB6B6"/>
<path d="M157.273 42.1112L149.28 40.8841C149.053 40.8492 148.836 40.7656 148.643 40.639C148.451 40.5124 148.288 40.3458 148.166 40.1505C148.044 39.9552 147.965 39.7359 147.935 39.5074C147.906 39.2789 147.925 39.0466 147.993 38.8264L150.369 31.11C150.554 29.9454 151.192 28.9018 152.144 28.208C153.095 27.5142 154.283 27.2268 155.446 27.4089C156.609 27.5909 157.653 28.2276 158.348 29.1792C159.043 30.1308 159.333 31.3197 159.154 32.4853L159.116 40.5341C159.115 40.7646 159.064 40.9921 158.967 41.2011C158.87 41.4101 158.73 41.5958 158.555 41.7455C158.38 41.8951 158.175 42.0053 157.954 42.0684C157.732 42.1315 157.5 42.1461 157.273 42.1112Z" fill="#54C1C1"/>
</g>
<defs>
<clipPath id="clip0_691_38535">
<rect width="356" height="276" fill="white"/>
</clipPath>
</defs>
</svg>
