<svg width="526" height="378" viewBox="0 0 526 378" fill="none" xmlns="http://www.w3.org/2000/svg">
<g clip-path="url(#clip0_635_10584)">
<path d="M513.723 377.574H198.129C194.874 377.57 191.753 376.276 189.452 373.975C187.15 371.674 185.855 368.555 185.852 365.301V12.2729C185.855 9.01908 187.15 5.89954 189.452 3.59871C191.753 1.29788 194.874 0.00366302 198.129 0H513.723C516.978 0.00366302 520.099 1.29788 522.4 3.59871C524.702 5.89954 525.996 9.01908 526 12.2729V365.301C525.996 368.555 524.702 371.674 522.4 373.975C520.099 376.276 516.978 377.57 513.723 377.574ZM198.129 1.44388C195.257 1.44712 192.503 2.58908 190.472 4.61922C188.442 6.64936 187.299 9.4019 187.296 12.2729V365.301C187.299 368.172 188.442 370.924 190.472 372.954C192.503 374.985 195.257 376.126 198.129 376.13H513.723C516.595 376.126 519.348 374.985 521.379 372.954C523.41 370.924 524.552 368.172 524.556 365.301V12.2729C524.552 9.4019 523.41 6.64936 521.379 4.61922C519.348 2.58908 516.595 1.44712 513.723 1.44388H198.129Z" fill="#3F3D56"/>
<path d="M525.278 30.0256H186.574V31.4695H525.278V30.0256Z" fill="#3F3D56"/>
<path d="M203.184 21.6582C206.375 21.6582 208.961 19.0724 208.961 15.8827C208.961 12.693 206.375 10.1072 203.184 10.1072C199.993 10.1072 197.406 12.693 197.406 15.8827C197.406 19.0724 199.993 21.6582 203.184 21.6582Z" fill="#F9B42B"/>
<path d="M221.238 21.6582C224.429 21.6582 227.016 19.0724 227.016 15.8827C227.016 12.693 224.429 10.1072 221.238 10.1072C218.048 10.1072 215.461 12.693 215.461 15.8827C215.461 19.0724 218.048 21.6582 221.238 21.6582Z" fill="#F9B42B"/>
<path d="M239.293 21.6582C242.484 21.6582 245.071 19.0724 245.071 15.8827C245.071 12.693 242.484 10.1072 239.293 10.1072C236.102 10.1072 233.516 12.693 233.516 15.8827C233.516 19.0724 236.102 21.6582 239.293 21.6582Z" fill="#F9B42B"/>
<path d="M468.585 83.0228H243.263C240.773 83.0228 238.385 82.034 236.625 80.274C234.864 78.5139 233.875 76.1267 233.875 73.6376C233.875 71.1485 234.864 68.7614 236.625 67.0013C238.385 65.2412 240.773 64.2524 243.263 64.2524H468.585C471.075 64.2524 473.463 65.2412 475.223 67.0013C476.984 68.7614 477.973 71.1485 477.973 73.6376C477.973 76.1267 476.984 78.5139 475.223 80.274C473.463 82.034 471.075 83.0228 468.585 83.0228ZM243.263 65.6963C241.157 65.6963 239.136 66.533 237.646 68.0223C236.156 69.5116 235.319 71.5315 235.319 73.6376C235.319 75.7438 236.156 77.7637 237.646 79.253C239.136 80.7423 241.157 81.579 243.263 81.579H468.585C470.692 81.579 472.712 80.7423 474.202 79.253C475.692 77.7637 476.529 75.7438 476.529 73.6376C476.529 71.5315 475.692 69.5116 474.202 68.0223C472.712 66.533 470.692 65.6963 468.585 65.6963H243.263Z" fill="#3F3D56"/>
<path d="M412.874 157.087H310.324C308.792 157.087 307.323 156.478 306.239 155.395C305.156 154.312 304.547 152.843 304.547 151.311C304.547 149.78 305.156 148.311 306.239 147.227C307.323 146.144 308.792 145.536 310.324 145.536H412.874C414.407 145.536 415.876 146.144 416.96 147.227C418.043 148.311 418.652 149.78 418.652 151.311C418.652 152.843 418.043 154.312 416.96 155.395C415.876 156.478 414.407 157.087 412.874 157.087Z" fill="#F2F2F2"/>
<path d="M472.094 176.579H310.324C308.792 176.579 307.323 175.971 306.239 174.888C305.156 173.804 304.547 172.335 304.547 170.804C304.547 169.272 305.156 167.803 306.239 166.72C307.323 165.637 308.792 165.028 310.324 165.028H472.094C473.626 165.028 475.095 165.637 476.179 166.72C477.262 167.803 477.871 169.272 477.871 170.804C477.871 172.335 477.262 173.804 476.179 174.888C475.095 175.971 473.626 176.579 472.094 176.579Z" fill="#F2F2F2"/>
<path d="M271.895 177.662H240.841C239.022 177.66 237.278 176.937 235.992 175.651C234.706 174.365 233.983 172.622 233.98 170.804V151.311C233.983 149.493 234.706 147.75 235.992 146.464C237.278 145.178 239.022 144.455 240.841 144.453H271.895C273.714 144.455 275.458 145.178 276.744 146.464C278.03 147.75 278.754 149.493 278.756 151.311V170.804C278.754 172.622 278.03 174.365 276.744 175.651C275.458 176.937 273.714 177.66 271.895 177.662ZM240.841 145.897C239.405 145.898 238.028 146.469 237.013 147.485C235.998 148.5 235.426 149.876 235.425 151.311V170.804C235.426 172.239 235.998 173.616 237.013 174.631C238.028 175.646 239.405 176.217 240.841 176.218H271.895C273.331 176.217 274.708 175.646 275.723 174.631C276.739 173.616 277.31 172.239 277.311 170.804V151.311C277.31 149.876 276.739 148.5 275.723 147.485C274.708 146.469 273.331 145.898 271.895 145.897H240.841Z" fill="#CCCCCC"/>
<path d="M412.874 225.671H310.324C308.792 225.671 307.323 225.063 306.239 223.98C305.156 222.896 304.547 221.427 304.547 219.896C304.547 218.364 305.156 216.895 306.239 215.812C307.323 214.729 308.792 214.12 310.324 214.12H412.874C414.407 214.12 415.876 214.729 416.96 215.812C418.043 216.895 418.652 218.364 418.652 219.896C418.652 221.427 418.043 222.896 416.96 223.98C415.876 225.063 414.407 225.671 412.874 225.671Z" fill="#F2F2F2"/>
<path d="M472.094 245.163H310.324C308.792 245.163 307.323 244.555 306.239 243.472C305.156 242.389 304.547 240.92 304.547 239.388C304.547 237.856 305.156 236.387 306.239 235.304C307.323 234.221 308.792 233.612 310.324 233.612H472.094C473.626 233.612 475.095 234.221 476.179 235.304C477.262 236.387 477.871 237.856 477.871 239.388C477.871 240.92 477.262 242.389 476.179 243.472C475.095 244.555 473.626 245.163 472.094 245.163Z" fill="#F2F2F2"/>
<path d="M271.895 246.246H240.841C239.022 246.244 237.278 245.521 235.992 244.235C234.706 242.949 233.983 241.206 233.98 239.388V219.896C233.983 218.077 234.706 216.334 235.992 215.048C237.278 213.762 239.022 213.039 240.841 213.037H271.895C273.714 213.039 275.458 213.762 276.744 215.048C278.03 216.334 278.754 218.077 278.756 219.896V239.388C278.754 241.206 278.03 242.949 276.744 244.235C275.458 245.521 273.714 246.244 271.895 246.246ZM240.841 214.481C239.405 214.483 238.028 215.054 237.013 216.069C235.998 217.084 235.426 218.46 235.425 219.896V239.388C235.426 240.823 235.998 242.2 237.013 243.215C238.028 244.23 239.405 244.801 240.841 244.802H271.895C273.331 244.801 274.708 244.23 275.723 243.215C276.739 242.2 277.31 240.823 277.311 239.388V219.896C277.31 218.46 276.739 217.084 275.723 216.069C274.708 215.054 273.331 214.483 271.895 214.481H240.841Z" fill="#CCCCCC"/>
<path d="M412.874 294.255H310.324C308.792 294.255 307.323 293.647 306.239 292.564C305.156 291.48 304.547 290.011 304.547 288.48C304.547 286.948 305.156 285.479 306.239 284.396C307.323 283.313 308.792 282.704 310.324 282.704H412.874C414.407 282.704 415.876 283.313 416.96 284.396C418.043 285.479 418.652 286.948 418.652 288.48C418.652 290.011 418.043 291.48 416.96 292.564C415.876 293.647 414.407 294.255 412.874 294.255Z" fill="#F2F2F2"/>
<path d="M472.094 313.748H310.324C308.792 313.748 307.323 313.139 306.239 312.056C305.156 310.973 304.547 309.504 304.547 307.972C304.547 306.44 305.156 304.971 306.239 303.888C307.323 302.805 308.792 302.197 310.324 302.197H472.094C473.626 302.197 475.095 302.805 476.179 303.888C477.262 304.971 477.871 306.44 477.871 307.972C477.871 309.504 477.262 310.973 476.179 312.056C475.095 313.139 473.626 313.748 472.094 313.748Z" fill="#F2F2F2"/>
<path d="M271.895 314.83H240.841C239.022 314.828 237.278 314.105 235.992 312.819C234.706 311.534 233.983 309.79 233.98 307.972V288.48C233.983 286.661 234.706 284.918 235.992 283.632C237.278 282.347 239.022 281.623 240.841 281.621H271.895C273.714 281.623 275.458 282.347 276.744 283.632C278.03 284.918 278.754 286.661 278.756 288.48V307.972C278.754 309.79 278.03 311.534 276.744 312.819C275.458 314.105 273.714 314.828 271.895 314.83Z" fill="#F2F2F2"/>
<path d="M256.368 171.698L254.696 170.19C248.757 164.74 244.837 161.202 244.837 156.796C244.822 155.957 244.976 155.124 245.289 154.346C245.602 153.569 246.068 152.861 246.659 152.267C247.251 151.672 247.955 151.202 248.732 150.884C249.508 150.566 250.34 150.408 251.179 150.417C252.169 150.423 253.146 150.643 254.042 151.064C254.938 151.484 255.731 152.095 256.368 152.853C257.004 152.095 257.798 151.484 258.694 151.064C259.59 150.643 260.567 150.423 261.557 150.417C262.395 150.408 263.227 150.566 264.004 150.884C264.78 151.202 265.485 151.672 266.076 152.267C266.667 152.861 267.133 153.569 267.446 154.346C267.759 155.124 267.913 155.957 267.898 156.796C267.898 161.202 263.978 164.74 258.04 170.19L256.368 171.698Z" fill="#F9B42B"/>
<path d="M256.368 240.282L254.696 238.774C248.757 233.324 244.837 229.786 244.837 225.38C244.822 224.541 244.976 223.708 245.289 222.93C245.602 222.153 246.068 221.445 246.659 220.851C247.251 220.256 247.955 219.786 248.732 219.468C249.508 219.15 250.34 218.992 251.179 219.001C252.169 219.007 253.146 219.227 254.042 219.648C254.938 220.068 255.731 220.679 256.368 221.437C257.004 220.679 257.798 220.068 258.694 219.648C259.59 219.227 260.567 219.007 261.557 219.001C262.395 218.992 263.227 219.15 264.004 219.468C264.78 219.786 265.485 220.256 266.076 220.851C266.667 221.445 267.133 222.153 267.446 222.93C267.759 223.708 267.913 224.541 267.898 225.38C267.898 229.786 263.978 233.324 258.04 238.774L256.368 240.282Z" fill="#F9B42B"/>
<path d="M125.176 228.744H94.1225C92.3035 228.742 90.5597 228.019 89.2735 226.733C87.9873 225.447 87.2638 223.704 87.2617 221.886V202.394C87.2638 200.575 87.9873 198.832 89.2735 197.546C90.5597 196.26 92.3035 195.537 94.1225 195.535H125.176C126.995 195.537 128.739 196.26 130.025 197.546C131.312 198.832 132.035 200.575 132.037 202.394V221.886C132.035 223.704 131.312 225.447 130.025 226.733C128.739 228.019 126.995 228.742 125.176 228.744ZM94.1225 196.979C92.6864 196.981 91.3097 197.552 90.2943 198.567C89.2789 199.582 88.7077 200.958 88.7061 202.394V221.886C88.7077 223.321 89.2789 224.698 90.2943 225.713C91.3097 226.728 92.6864 227.299 94.1225 227.3H125.176C126.612 227.299 127.989 226.728 129.005 225.713C130.02 224.698 130.591 223.321 130.593 221.886V202.394C130.591 200.958 130.02 199.582 129.005 198.567C127.989 197.552 126.612 196.981 125.176 196.979H94.1225Z" fill="#3F3D56"/>
<path d="M109.649 222.78L107.977 221.272C102.039 215.822 98.1182 212.284 98.1182 207.878C98.1034 207.039 98.2571 206.206 98.5702 205.429C98.8832 204.651 99.3492 203.943 99.9405 203.349C100.532 202.754 101.237 202.284 102.013 201.966C102.789 201.648 103.621 201.49 104.46 201.499C105.45 201.505 106.427 201.725 107.323 202.146C108.219 202.566 109.013 203.177 109.649 203.935C110.285 203.177 111.079 202.566 111.975 202.146C112.871 201.725 113.848 201.505 114.838 201.499C115.677 201.49 116.509 201.649 117.285 201.966C118.061 202.284 118.766 202.754 119.357 203.349C119.949 203.943 120.415 204.651 120.728 205.429C121.041 206.206 121.194 207.039 121.18 207.878C121.18 212.284 117.259 215.822 111.321 221.272L109.649 222.78Z" fill="#F9B42B"/>
<path d="M91.6902 369.709L99.7223 367.799L96.175 335.919L84.3203 338.738L91.6902 369.709Z" fill="#F2BAC7"/>
<path d="M116.988 371.571L91.7448 377.574L89.4248 367.824L104.915 364.14C106.196 363.836 107.524 363.786 108.824 363.995C110.124 364.203 111.37 364.666 112.491 365.356C113.612 366.046 114.586 366.95 115.358 368.016C116.13 369.083 116.684 370.29 116.988 371.571Z" fill="#2F2E41"/>
<path d="M83.8078 349.181L66.3633 289.415L88.1624 284.01L100.951 347.306C101.045 347.77 101.036 348.249 100.925 348.709C100.815 349.169 100.605 349.599 100.311 349.969C100.017 350.34 99.6453 350.642 99.2223 350.854C98.7993 351.066 98.335 351.183 97.862 351.197L87.0242 351.519C86.9915 351.52 86.9591 351.52 86.9267 351.52C86.2237 351.52 85.5398 351.292 84.9775 350.87C84.4152 350.449 84.0048 349.856 83.8078 349.181Z" fill="#2F2E41"/>
<path d="M41.9521 369.91L50.2081 369.909L54.1346 338.074L41.9492 338.076L41.9521 369.91Z" fill="#F2BAC7"/>
<path d="M66.1328 377.571L40.185 377.574L40.184 367.552L56.1066 367.55C58.7655 367.55 61.3156 368.606 63.1958 370.485C65.0761 372.364 66.1326 374.913 66.1328 377.571Z" fill="#2F2E41"/>
<path d="M40.5007 357.54C40.1973 357.247 39.9552 356.896 39.7886 356.508C39.6219 356.12 39.5339 355.703 39.5298 355.281L32.0078 295.66C32.0047 294.8 32.3424 293.974 32.947 293.362C33.5515 292.75 34.3738 292.403 35.234 292.395L52.0236 292.273H52.0476C52.9001 292.276 53.7178 292.612 54.3252 293.21C54.9326 293.808 55.2814 294.62 55.2967 295.472L56.1892 354.205C56.2025 355.062 55.8762 355.89 55.2815 356.508C54.6868 357.125 53.8719 357.482 53.0146 357.502L42.8226 358.47C42.8069 358.47 42.7912 358.47 42.7755 358.47C41.9242 358.473 41.1066 358.138 40.5007 357.54Z" fill="#2F2E41"/>
<path d="M44.1009 160.205C53.8971 160.205 61.8384 152.266 61.8384 142.473C61.8384 132.68 53.8971 124.741 44.1009 124.741C34.3047 124.741 26.3633 132.68 26.3633 142.473C26.3633 152.266 34.3047 160.205 44.1009 160.205Z" fill="#F2BAC7"/>
<path d="M20.7311 292.546C9.19031 283.531 9.31247 273.015 13.2504 258.968C14.3598 255.011 15.5572 251.001 16.8247 246.755C22.7141 227.028 29.3892 204.669 26.855 186.207C26.1609 181.151 27.9302 175.832 31.709 171.616C35.4879 167.398 40.5742 165.061 45.6872 165.193C50.7911 165.329 55.7542 167.938 59.3034 172.35C62.8353 176.74 64.5211 192.178 65.0207 194.391C67.3148 204.546 68.6994 210.676 69.6924 220.455C70.8668 232.015 84.9323 266.58 89.4144 272.376C90.6039 273.907 91.4555 275.671 91.9132 277.554C92.3708 279.438 92.4242 281.396 92.0697 283.301C91.7393 285.114 91.0231 286.834 89.9696 288.346C88.916 289.857 87.5498 291.125 85.9634 292.062C78.6896 296.507 70.6969 299.652 62.3436 301.354C58.7201 302.057 55.0378 302.411 51.3469 302.412C39.8953 302.412 28.9532 298.968 20.7311 292.546Z" fill="#54C1C1"/>
<path d="M94.4931 225.743C94.0337 224.866 93.3877 224.101 92.6005 223.5C91.8132 222.9 90.9039 222.48 89.9367 222.269C88.9694 222.058 87.9676 222.062 87.0019 222.28C86.0363 222.498 85.1302 222.926 84.3475 223.532L70.9067 215.865L64.2539 222.894L83.387 233.454C84.4926 234.701 86.0173 235.499 87.6722 235.697C89.3272 235.896 90.9974 235.48 92.3664 234.53C93.7353 233.579 94.7079 232.16 95.0999 230.54C95.4919 228.921 95.276 227.214 94.4931 225.743Z" fill="#F2BAC7"/>
<path d="M74.0064 230.94L49.9164 223.374C46.682 222.351 43.8394 220.361 41.772 217.672C39.7046 214.983 38.5118 211.725 38.3547 208.338L37.3182 184.939C37.2599 183.622 37.4678 182.308 37.9295 181.074C38.3912 179.84 39.0971 178.711 40.005 177.756C40.9129 176.801 42.0043 176.039 43.2137 175.515C44.4231 174.991 45.7257 174.717 47.0437 174.708C48.3617 174.699 49.668 174.956 50.8843 175.464C52.1007 175.971 53.2021 176.718 54.1229 177.661C55.0436 178.604 55.7646 179.723 56.2429 180.951C56.7211 182.178 56.9467 183.49 56.9062 184.807L56.2436 206.335L81.8823 216.788C82.335 216.972 82.7402 217.257 83.0677 217.619C83.3953 217.982 83.6367 218.414 83.774 218.883C83.9113 219.353 83.9409 219.847 83.8607 220.329C83.7806 220.811 83.5926 221.269 83.3108 221.668L77.6365 229.713C77.2405 230.276 76.675 230.699 76.0222 230.92C75.3695 231.141 74.6634 231.147 74.0064 230.94Z" fill="#2F2E41"/>
<path d="M15.5139 164.538C16.3244 159.678 16.2946 154.642 16.2657 149.771C16.2579 148.448 16.25 147.126 16.2581 145.807C16.2958 139.675 16.6765 133.176 19.1842 127.193C21.9135 120.681 26.9678 115.979 32.7043 114.615C39.1719 113.075 46.1897 116.479 48.3025 122.084C49.6992 121.295 51.2535 120.826 52.8534 120.711C54.4533 120.596 56.0589 120.837 57.5542 121.417C59.0496 121.997 60.3974 122.902 61.5005 124.066C62.6037 125.23 63.4345 126.625 63.9332 128.149C64.4319 129.673 64.5859 131.288 64.3843 132.879C64.1826 134.47 63.6301 135.996 62.7669 137.348C61.9036 138.699 60.751 139.842 59.3922 140.694C58.0335 141.547 56.5024 142.087 54.9096 142.276L54.6386 142.3L52.5251 136.809C52.5131 136.905 52.5016 137.002 52.49 137.1C52.3555 138.239 52.2164 139.416 51.2761 140.096C50.1022 140.945 48.6402 143.739 49.0674 146.569C49.3337 148.017 49.7306 149.438 50.2533 150.815C50.8341 152.326 51.2558 153.894 51.5114 155.493C51.7801 157.542 51.2437 159.616 50.0149 161.278C49.6507 161.763 49.1914 162.169 48.6652 162.471C48.1389 162.773 47.5566 162.964 46.9539 163.034L23.1306 165.496L22.0655 157.542L15.2891 165.885L15.5139 164.538Z" fill="#2F2E41"/>
<path d="M139.381 378H0.722184C0.530649 378 0.346958 377.924 0.211522 377.789C0.0760865 377.653 0 377.47 0 377.278C0 377.087 0.0760865 376.903 0.211522 376.768C0.346958 376.632 0.530649 376.556 0.722184 376.556H139.381C139.573 376.556 139.757 376.632 139.892 376.768C140.028 376.903 140.104 377.087 140.104 377.278C140.104 377.47 140.028 377.653 139.892 377.789C139.757 377.924 139.573 378 139.381 378Z" fill="#CCCCCC"/>
</g>
<defs>
<clipPath id="clip0_635_10584">
<rect width="526" height="378" fill="white"/>
</clipPath>
</defs>
</svg>
