<svg width="52" height="80" viewBox="0 0 52 80" fill="none" xmlns="http://www.w3.org/2000/svg">
<path d="M49.2198 4.6875C50.5153 4.6875 51.5636 3.63922 51.5636 2.34375C51.5636 1.04828 50.5153 0 49.2198 0H21.0948C14.6312 0 9.37614 5.41359 9.37614 11.875V47.0312H2.34484C1.43394 47.0312 0.609843 47.5577 0.220843 48.3817C-0.163757 49.2034 -0.0401567 50.1761 0.545843 50.8766L23.9833 79.1578C24.4273 79.6909 25.0866 80 25.7823 80C26.4781 80 27.1373 79.6909 27.5814 79.1577L51.0189 50.8764C51.6048 50.1761 51.7284 49.2033 51.3439 48.3816C50.9548 47.5577 50.1308 47.0312 49.2198 47.0312H42.1886V11.875C42.1886 7.99781 45.3426 4.6875 49.2198 4.6875ZM30.4698 61.0938C29.1755 61.0938 28.1261 60.0444 28.1261 58.75C28.1261 57.4553 29.1755 56.4062 30.4698 56.4062C31.7642 56.4062 32.8136 57.4553 32.8136 58.75C32.8136 60.0444 31.7642 61.0938 30.4698 61.0938ZM32.1269 51.032L22.7519 60.407C21.8364 61.3225 20.3531 61.3225 19.4376 60.407C18.5222 59.4916 18.5222 58.0083 19.4376 57.0928L28.8126 47.7178C29.7281 46.8023 31.2114 46.8023 32.1269 47.7178C33.0423 48.6333 33.0425 50.1166 32.1269 51.032ZM18.7511 49.375C18.7511 48.0803 19.8005 47.0312 21.0948 47.0312C22.3892 47.0312 23.4386 48.0803 23.4386 49.375C23.4386 50.6694 22.3892 51.7188 21.0948 51.7188C19.8005 51.7188 18.7511 50.6694 18.7511 49.375ZM28.2314 36.9306C28.1967 36.9433 28.1608 36.9375 28.1261 36.9495V40C28.1261 41.2955 27.0778 42.3438 25.7823 42.3438C24.4869 42.3438 23.4386 41.2955 23.4386 40V36.865C21.9542 36.3303 20.5289 35.3623 19.3005 33.9003C18.4673 32.9092 18.5955 31.4306 19.5889 30.5975C20.5776 29.7644 22.0562 29.8925 22.8894 30.8836C24.1208 32.3484 25.4711 32.9389 26.6294 32.527C27.522 32.1997 28.1262 31.3094 28.1262 30.3114C28.1262 28.9175 26.9131 28.2812 25.7825 28.2812C21.9694 28.2812 18.7512 24.9167 18.7512 20.9364C18.7512 18.1716 20.4862 15.6492 23.1733 14.5117C23.2591 14.4755 23.3522 14.4783 23.4387 14.4453V11.875C23.4387 10.5795 24.487 9.53125 25.7825 9.53125C27.078 9.53125 28.1262 10.5795 28.1262 11.875V14.2136C29.5508 14.5867 30.9258 15.3137 32.0997 16.4527C33.0289 17.3522 33.0519 18.8377 32.1547 19.7669C31.253 20.6961 29.7697 20.7236 28.8405 19.8172C27.1376 18.1692 25.5766 18.5789 24.9998 18.8284C24.0523 19.2313 23.4389 20.0575 23.4389 20.9364C23.4389 22.3028 24.5787 23.5938 25.7827 23.5938C29.7927 23.5938 32.8139 26.4822 32.8139 30.3114C32.8136 33.2731 30.9734 35.9328 28.2314 36.9306Z" fill="#F06F1E"/>
</svg>
