<svg width="51" height="79" viewBox="0 0 51 79" fill="none" xmlns="http://www.w3.org/2000/svg">
<path d="M13.8867 41.8125V46.4414H18.5156C18.5156 41.5027 18.512 41.9819 18.5235 41.8125H13.8867Z" fill="#F06F1E"/>
<path d="M44.9609 32H5.96094V72H44.9609V32Z" fill="white"/>
<path d="M48.8844 17.8376L33.0804 2.03358C31.7689 0.722061 30.0252 0 28.1706 0H6.9434C3.1149 0 0 3.11487 0 6.94336V72.0566C0 75.8851 3.1149 79 6.9434 79H43.9746C47.8031 79 50.918 75.8851 50.918 72.0566V22.7473C50.918 20.8928 50.1959 19.1491 48.8844 17.8376ZM41.6602 64.959C41.6602 67.5115 39.5838 69.5879 37.0313 69.5879H13.8867C11.3342 69.5879 9.2578 67.5115 9.2578 64.959V41.8145C9.2578 39.2619 11.3342 37.1855 13.8867 37.1855H37.0313C39.5838 37.1855 41.6602 39.2619 41.6602 41.8145V64.959Z" fill="#F06F1E"/>
<path d="M23.1367 41.8125C23.1482 41.9903 23.1446 40.4726 23.1446 64.957H27.7735C27.7735 40.4769 27.7693 41.9897 27.7813 41.8125H23.1367Z" fill="#F06F1E"/>
<path d="M13.8867 60.3281H18.5156V64.957H13.8867V60.3281Z" fill="#F06F1E"/>
<path d="M13.8867 51.0703H18.5156V55.6992H13.8867V51.0703Z" fill="#F06F1E"/>
<path d="M32.4024 55.6992H37.0331L37.0313 41.8125H32.3945C32.406 41.9879 32.4024 40.853 32.4024 55.6992Z" fill="#F06F1E"/>
<path d="M37.0312 60.3281H32.4023V64.957H37.0342L37.0336 60.3281H37.0312Z" fill="#F06F1E"/>
</svg>
