<svg width="71" height="71" viewBox="0 0 71 71" fill="none" xmlns="http://www.w3.org/2000/svg">
<path d="M55.5238 6.37109H16.3828V67.3583H55.5238V6.37109Z" fill="white"/>
<path d="M9.15234 0V71H61.8476V0H9.15234ZM29.4824 11.2866C31.0142 11.2866 32.2558 12.5281 32.2558 14.06C32.2558 15.592 31.0142 16.8335 29.4824 16.8335C27.9505 16.8335 26.7089 15.592 26.7089 14.06C26.7089 12.5281 27.9511 11.2866 29.4824 11.2866ZM41.4331 11.2021L44.375 14.144L29.5668 28.9521L26.625 26.0108L41.4331 11.2021ZM44.2911 26.0947C44.2911 27.6266 43.0495 28.8681 41.5176 28.8681C39.9857 28.8681 38.7441 27.6266 38.7441 26.0947C38.7441 24.5634 39.9857 23.3212 41.5176 23.3212C43.0489 23.3212 44.2911 24.5634 44.2911 26.0947ZM50.2328 60.6965H20.7672V56.5364H50.2328V60.6965ZM50.2328 50.4257H20.7672V46.2655H50.2328V50.4257ZM50.2328 40.1547H20.7672V35.9945H50.2328V40.1547Z" fill="#F06F1E"/>
</svg>
