<svg width="66" height="66" viewBox="0 0 66 66" fill="none" xmlns="http://www.w3.org/2000/svg">
<g clip-path="url(#clip0_69_980)">
<mask id="mask0_69_980" style="mask-type:luminance" maskUnits="userSpaceOnUse" x="0" y="0" width="66" height="66">
<path d="M66 0H0V66H66V0Z" fill="white"/>
</mask>
<g mask="url(#mask0_69_980)">
<path d="M37.1069 0.0111774C36.0438 -0.100198 35.079 0.632377 34.9487 1.6898C34.8165 2.75095 35.5681 3.71595 36.6273 3.84808C39.2519 4.17472 41.8163 5.10401 44.2503 6.13126C45.2452 6.54454 46.3716 6.07841 46.7843 5.10027C47.1978 4.11465 46.7371 2.98157 45.7533 2.56623C42.9907 1.40298 40.0809 0.381267 37.1069 0.0111774Z" fill="#F06F1E"/>
<path d="M58.8209 15.7151C59.6724 15.0693 59.8387 13.8551 59.1929 13.0054C57.382 10.6205 55.2539 8.49242 52.869 6.68155C52.0175 6.03959 50.807 6.20008 50.1593 7.05357C49.5134 7.90332 49.6796 9.11749 50.5313 9.76331C52.6367 11.3608 54.5136 13.2377 56.1111 15.3431C56.759 16.1965 57.9714 16.3578 58.8209 15.7151Z" fill="#F06F1E"/>
<path d="M60.7725 19.0868C59.7887 19.5022 59.328 20.6352 59.7415 21.6208C60.7687 24.0548 61.8228 26.7479 62.1496 29.3727C62.2763 30.3983 63.2036 31.1799 64.3079 31.0513C65.3672 30.9192 66.1187 29.9542 65.9865 28.8931C65.6164 25.9191 64.4696 22.8802 63.3065 20.1178C62.8912 19.134 61.7563 18.6789 60.7725 19.0868Z" fill="#F06F1E"/>
<path d="M20.2491 2.56625C19.2653 2.98172 18.8045 4.11467 19.2181 5.10029C19.6316 6.08049 20.7597 6.54365 21.7521 6.13128C24.1861 5.10403 26.7503 4.17474 29.3751 3.84809C30.4345 3.71597 31.186 2.75097 31.0537 1.68982C30.9216 0.632399 29.9529 -0.100304 28.8955 0.0112001C25.9215 0.38129 23.0117 1.403 20.2491 2.56625Z" fill="#F06F1E"/>
<path d="M32.9999 65.9999C49.5488 65.9999 63.9398 53.5046 65.9848 37.1069C66.1169 36.0475 65.3654 35.0807 64.3062 34.9486C63.2411 34.8296 62.2782 35.568 62.1479 36.6272C60.3427 51.0952 47.602 62.1327 32.9999 62.1327C17.0063 62.1327 3.86718 48.9936 3.86718 32.9999C3.86718 25.951 6.66405 19.091 11.2148 13.8517V14.4919C11.2148 15.5606 12.0797 16.4255 13.1484 16.4255C14.2172 16.4255 15.082 15.5606 15.082 14.4919V9.02343C15.082 7.95467 14.2172 7.08984 13.1484 7.08984H7.67816C6.6094 7.08984 5.74457 7.95467 5.74457 9.02343C5.74457 10.0922 6.6094 10.9557 7.67816 10.9557H8.60937C3.25346 16.9443 0 24.847 0 32.9999C0 51.1254 14.8745 65.9999 32.9999 65.9999Z" fill="#F06F1E"/>
<path d="M9.66797 33.002C9.66797 45.797 20.205 56.334 33 56.334C45.795 56.334 56.332 45.797 56.332 33.002C56.332 20.207 45.795 9.66992 33 9.66992C20.205 9.66992 9.66797 20.207 9.66797 33.002ZM34.9336 25.2676C34.9336 24.1988 35.7984 23.334 36.8672 23.334C37.9359 23.334 38.8008 24.1988 38.8008 25.2676V31.0684H42.668V25.2676C42.668 24.1988 43.5328 23.334 44.6016 23.334C45.6703 23.334 46.5352 24.1988 46.5352 25.2676V40.7364C46.5352 41.8051 45.6703 42.6699 44.6016 42.6699C43.5328 42.6699 42.668 41.8051 42.668 40.7364V34.9356H36.8672C35.7984 34.9356 34.9336 34.0707 34.9336 33.002V25.2676ZM25.2656 27.2012C24.1988 27.2012 23.332 28.068 23.332 29.1348C23.332 30.2036 22.4672 31.0684 21.3984 31.0684C20.3297 31.0684 19.4648 30.2036 19.4648 29.1348C19.4648 25.9361 22.0669 23.334 25.2656 23.334C28.4643 23.334 31.0664 25.9361 31.0664 29.1348C31.0664 33.002 28.4927 34.9318 26.425 36.4821C25.2795 37.3417 24.4638 38.0293 23.9459 38.8028H29.1328C30.2016 38.8028 31.0664 39.6676 31.0664 40.7364C31.0664 41.8051 30.2016 42.6699 29.1328 42.6699H21.3984C20.3297 42.6699 19.4648 41.8051 19.4648 40.7364C19.4648 36.8692 22.0386 34.9393 24.1062 33.3891C26.0815 31.9068 27.1992 30.9778 27.1992 29.1348C27.1992 28.0678 26.3326 27.2012 25.2656 27.2012Z" fill="#F06F1E"/>
</g>
</g>
<defs>
<clipPath id="clip0_69_980">
<rect width="66" height="66" fill="white"/>
</clipPath>
</defs>
</svg>
