<svg width="83" height="43" viewBox="0 0 83 43" fill="none" xmlns="http://www.w3.org/2000/svg">
<path d="M47.7722 12.5618H51.361V8.0758C51.361 7.57337 50.9662 7.17861 50.4638 7.17861H48.6694V4.48704C48.6694 3.98462 48.2746 3.58985 47.7722 3.58985H45.6369L44.0937 0.503524C43.8605 0.0549299 43.3222 -0.124508 42.8915 0.0908175L40.81 1.13156L40.505 0.503524C40.2717 0.0549299 39.7334 -0.124508 39.3028 0.0908175L32.3047 3.58985H27.1369C25.6475 3.58985 24.4453 4.79209 24.4453 6.28142V22.4308C24.4453 23.9202 25.6475 25.1224 27.1369 25.1224H50.4638C50.9662 25.1224 51.361 24.7276 51.361 24.2252V19.7393H47.7722C45.7984 19.7393 44.1835 18.1243 44.1835 16.1505C44.1835 14.1767 45.7984 12.5618 47.7722 12.5618ZM46.875 5.38423V6.0661L46.5341 5.38423H46.875ZM26.2935 6.58646C26.2576 6.49675 26.2397 6.38908 26.2397 6.28142C26.2397 5.779 26.6345 5.38423 27.1369 5.38423H28.7159L26.2935 6.58646ZM29.1466 7.17861L39.3028 2.10052L41.8328 7.17861H29.1466ZM43.8425 7.17861L41.6175 2.72855L42.8915 2.10052L45.4216 7.17861H43.8425Z" fill="#F06F1E"/>
<path d="M7.83784 42.3725H6.54589V37.5923H1.29195V42.3725H0V32.123H1.29195V36.4583H6.54589V32.123H7.83784V42.3725ZM13.3819 34.549C14.3197 34.549 15.0136 34.7548 15.4634 35.1663C15.9131 35.5779 16.1381 36.2333 16.1381 37.1329V42.3725H15.2193L14.9753 41.2816H14.9179C14.583 41.7026 14.2288 42.0137 13.8556 42.2146C13.492 42.4156 12.9847 42.5161 12.334 42.5161C11.6354 42.5161 11.0564 42.3342 10.597 41.9706C10.1377 41.5974 9.90799 41.0184 9.90799 40.2336C9.90799 39.4681 10.2094 38.8795 10.8124 38.468C11.4153 38.0469 12.3436 37.8173 13.5972 37.7789L14.9035 37.7359V37.2765C14.9035 36.6353 14.7647 36.1903 14.4872 35.9415C14.2097 35.6927 13.8173 35.5683 13.3101 35.5683C12.9082 35.5683 12.5254 35.6304 12.1617 35.7549C11.7981 35.8697 11.4583 36.0036 11.1425 36.1568L10.7549 35.2094C11.0899 35.0275 11.487 34.8745 11.9464 34.75C12.4058 34.6161 12.8843 34.549 13.3819 34.549ZM13.7551 38.6546C12.7981 38.6929 12.133 38.8459 11.7598 39.1139C11.3961 39.3819 11.2143 39.7599 11.2143 40.248C11.2143 40.6786 11.3435 40.9945 11.6019 41.1954C11.8699 41.3964 12.2096 41.4969 12.6211 41.4969C13.2718 41.4969 13.8125 41.3199 14.2432 40.9657C14.6738 40.6021 14.8892 40.047 14.8892 39.3006V38.6115L13.7551 38.6546ZM24.3714 42.3725H23.0938V35.7262H20.8257C20.7012 37.3435 20.529 38.6498 20.3089 39.6451C20.0887 40.6308 19.7969 41.3486 19.4333 41.7983C19.0695 42.2481 18.6101 42.473 18.0552 42.473C17.9307 42.473 17.8063 42.4634 17.6819 42.4443C17.5671 42.4347 17.4714 42.4109 17.3948 42.3725V41.4251C17.4523 41.4442 17.5144 41.4585 17.5815 41.4682C17.6483 41.4778 17.7154 41.4825 17.7824 41.4825C18.2992 41.4825 18.7106 40.9323 19.017 39.8317C19.3328 38.7311 19.5719 37.0134 19.7347 34.6782H24.3714V42.3725ZM28.0049 39.3723C28.0049 39.4872 28.0002 39.6594 27.9906 39.8891C27.9811 40.1188 27.9667 40.3485 27.9475 40.5782C27.938 40.8078 27.9284 40.9897 27.9188 41.1236L32.0387 34.6782H33.589V42.3725H32.4119V37.8363C32.4119 37.6832 32.4119 37.4822 32.4119 37.2334C32.4215 36.9847 32.4312 36.7406 32.4406 36.5013C32.4502 36.2526 32.4599 36.0659 32.4693 35.9415L28.3782 42.3725H26.8135V34.6782H28.0049V39.3723ZM37.143 37.4775C37.143 38.3579 37.6359 38.7981 38.6216 38.7981C39.1001 38.7981 39.5356 38.7264 39.9279 38.5828C40.3202 38.4296 40.7222 38.2287 41.1337 37.9799V34.6782H42.397V42.3725H41.1337V38.9417C40.7031 39.2192 40.2772 39.4394 39.8561 39.602C39.4446 39.7552 38.947 39.8317 38.3632 39.8317C37.5784 39.8317 36.966 39.626 36.5258 39.2144C36.0951 38.8029 35.8798 38.2526 35.8798 37.5636V34.6782H37.143V37.4775ZM46.1046 34.6782V37.8794H50.2819V34.6782H51.5451V42.3725H50.2819V38.9417H46.1046V42.3725H44.8414V34.6782H46.1046ZM53.9815 42.3725V34.6782H55.2447V37.8363H57.2401C58.2353 37.8363 58.9723 38.0182 59.4507 38.3818C59.9292 38.7454 60.1685 39.2909 60.1685 40.0183C60.1685 40.7361 59.9341 41.3103 59.4651 41.7409C58.9961 42.1619 58.2353 42.3725 57.1827 42.3725H53.9815ZM61.4461 42.3725V34.6782H62.7093V42.3725H61.4461ZM57.0678 41.3533C57.6133 41.3533 58.0583 41.2625 58.4028 41.0806C58.7473 40.8892 58.9196 40.5591 58.9196 40.0901C58.9196 39.6211 58.7617 39.3053 58.4459 39.1427C58.1301 38.9704 57.6755 38.8843 57.0822 38.8843H55.2447V41.3533H57.0678ZM73.4084 34.6782V42.3725H72.2744V37.4631C72.2744 37.2621 72.2791 37.0516 72.2887 36.8315C72.3078 36.6114 72.3271 36.3961 72.3462 36.1855H72.3031L69.791 42.3725H68.7287L66.2883 36.1855H66.2453C66.274 36.6162 66.2883 37.0564 66.2883 37.5062V42.3725H65.1543V34.6782H66.8338L69.2598 40.8653L71.7289 34.6782H73.4084ZM77.056 39.3723C77.056 39.4872 77.0512 39.6594 77.0417 39.8891C77.0321 40.1188 77.0177 40.3485 76.9986 40.5782C76.989 40.8078 76.9794 40.9897 76.9699 41.1236L81.0898 34.6782H82.6401V42.3725H81.463V37.8363C81.463 37.6832 81.463 37.4822 81.463 37.2334C81.4725 36.9847 81.4821 36.7406 81.4917 36.5013C81.5012 36.2526 81.5108 36.0659 81.5204 35.9415L77.4293 42.3725H75.8646V34.6782H77.056V39.3723Z" fill="#4F4F4F"/>
</svg>
