<svg width="20" height="20" viewBox="0 0 20 20" fill="none" xmlns="http://www.w3.org/2000/svg">
  <path
    d="M14.6504 11.6663C14.8971 11.6663 15.1337 11.5659 15.3082 11.3873C15.4826 11.2087 15.5806 10.9665 15.5806 10.7139C15.5806 10.4613 15.4826 10.2191 15.3082 10.0405C15.1337 9.86185 14.8971 9.76151 14.6504 9.76151C14.4037 9.76151 14.1671 9.86185 13.9926 10.0405C13.8182 10.2191 13.7202 10.4613 13.7202 10.7139C13.7202 10.9665 13.8182 11.2087 13.9926 11.3873C14.1671 11.5659 14.4037 11.6663 14.6504 11.6663ZM14.6504 15.4758C14.8971 15.4758 15.1337 15.3755 15.3082 15.1969C15.4826 15.0182 15.5806 14.776 15.5806 14.5234C15.5806 14.2708 15.4826 14.0286 15.3082 13.85C15.1337 13.6714 14.8971 13.571 14.6504 13.571C14.4037 13.571 14.1671 13.6714 13.9926 13.85C13.8182 14.0286 13.7202 14.2708 13.7202 14.5234C13.7202 14.776 13.8182 15.0182 13.9926 15.1969C14.1671 15.3755 14.4037 15.4758 14.6504 15.4758ZM10.9295 10.7139C10.9295 10.9665 10.8315 11.2087 10.657 11.3873C10.4826 11.5659 10.2459 11.6663 9.99924 11.6663C9.75252 11.6663 9.51591 11.5659 9.34146 11.3873C9.16701 11.2087 9.069 10.9665 9.069 10.7139C9.069 10.4613 9.16701 10.2191 9.34146 10.0405C9.51591 9.86185 9.75252 9.76151 9.99924 9.76151C10.2459 9.76151 10.4826 9.86185 10.657 10.0405C10.8315 10.2191 10.9295 10.4613 10.9295 10.7139ZM10.9295 14.5234C10.9295 14.776 10.8315 15.0182 10.657 15.1969C10.4826 15.3755 10.2459 15.4758 9.99924 15.4758C9.75252 15.4758 9.51591 15.3755 9.34146 15.1969C9.16701 15.0182 9.069 14.776 9.069 14.5234C9.069 14.2708 9.16701 14.0286 9.34146 13.85C9.51591 13.6714 9.75252 13.571 9.99924 13.571C10.2459 13.571 10.4826 13.6714 10.657 13.85C10.8315 14.0286 10.9295 14.2708 10.9295 14.5234ZM5.34807 11.6663C5.59478 11.6663 5.83139 11.5659 6.00585 11.3873C6.1803 11.2087 6.2783 10.9665 6.2783 10.7139C6.2783 10.4613 6.1803 10.2191 6.00585 10.0405C5.83139 9.86185 5.59478 9.76151 5.34807 9.76151C5.10136 9.76151 4.86475 9.86185 4.6903 10.0405C4.51585 10.2191 4.41784 10.4613 4.41784 10.7139C4.41784 10.9665 4.51585 11.2087 4.6903 11.3873C4.86475 11.5659 5.10136 11.6663 5.34807 11.6663ZM5.34807 15.4758C5.59478 15.4758 5.83139 15.3755 6.00585 15.1969C6.1803 15.0182 6.2783 14.776 6.2783 14.5234C6.2783 14.2708 6.1803 14.0286 6.00585 13.85C5.83139 13.6714 5.59478 13.571 5.34807 13.571C5.10136 13.571 4.86475 13.6714 4.6903 13.85C4.51585 14.0286 4.41784 14.2708 4.41784 14.5234C4.41784 14.776 4.51585 15.0182 4.6903 15.1969C4.86475 15.3755 5.10136 15.4758 5.34807 15.4758Z"
    fill="currentColor" />
  <path fill-rule="evenodd" clip-rule="evenodd"
    d="M5.34884 0C5.53387 0 5.71133 0.0752549 5.84217 0.209209C5.97301 0.343164 6.04651 0.524845 6.04651 0.714286V1.44095C6.66233 1.42857 7.34047 1.42857 8.08651 1.42857H11.9126C12.6595 1.42857 13.3377 1.42857 13.9535 1.44095V0.714286C13.9535 0.524845 14.027 0.343164 14.1578 0.209209C14.2887 0.0752549 14.4661 0 14.6512 0C14.8362 0 15.0137 0.0752549 15.1445 0.209209C15.2753 0.343164 15.3488 0.524845 15.3488 0.714286V1.5019C15.5907 1.52095 15.8195 1.54476 16.0363 1.57429C17.1265 1.72476 18.0093 2.04095 18.706 2.75333C19.4019 3.46667 19.7107 4.37048 19.8577 5.48667C20 6.57238 20 7.9581 20 9.70857V11.72C20 13.4705 20 14.8571 19.8577 15.9419C19.7107 17.0581 19.4019 17.9619 18.706 18.6752C18.0093 19.3876 17.1265 19.7038 16.0363 19.8543C14.9758 20 13.6223 20 11.9126 20H8.08744C6.37767 20 5.02326 20 3.96372 19.8543C2.87349 19.7038 1.9907 19.3876 1.29395 18.6752C0.59814 17.9619 0.289302 17.0581 0.142326 15.9419C0 14.8562 0 13.4705 0 11.72V9.70857C0 7.9581 0 6.57143 0.142326 5.48667C0.289302 4.37048 0.59814 3.46667 1.29395 2.75333C1.9907 2.04095 2.87349 1.72476 3.96372 1.57429C4.18047 1.54476 4.41023 1.52095 4.65116 1.5019V0.714286C4.65116 0.524845 4.72467 0.343164 4.85551 0.209209C4.98635 0.0752549 5.1638 0 5.34884 0ZM4.14884 2.99048C3.21395 3.11905 2.67442 3.36095 2.28093 3.76381C1.88744 4.16667 1.65116 4.71905 1.52558 5.67714C1.50419 5.83905 1.48651 6.01048 1.47163 6.19048H18.5284C18.5135 6.00952 18.4958 5.83905 18.4744 5.67619C18.3488 4.71905 18.1126 4.16667 17.7191 3.76381C17.3256 3.36095 16.786 3.11905 15.8502 2.99048C14.8949 2.85905 13.6344 2.85714 11.8605 2.85714H8.13953C6.36558 2.85714 5.10605 2.85905 4.14884 2.99048ZM1.39535 9.76191C1.39535 8.94857 1.39535 8.24095 1.40744 7.61905H18.5926C18.6047 8.24095 18.6047 8.94857 18.6047 9.76191V11.6667C18.6047 13.4829 18.6028 14.7733 18.4744 15.7524C18.3488 16.7095 18.1126 17.2619 17.7191 17.6648C17.3256 18.0676 16.786 18.3095 15.8502 18.4381C14.8949 18.5695 13.6344 18.5714 11.8605 18.5714H8.13953C6.36558 18.5714 5.10605 18.5695 4.14884 18.4381C3.21395 18.3095 2.67442 18.0676 2.28093 17.6648C1.88744 17.2619 1.65116 16.7095 1.52558 15.7514C1.39721 14.7733 1.39535 13.4829 1.39535 11.6667V9.76191Z"
    fill="currentColor" />
</svg>