<svg width="20" height="20" viewBox="0 0 20 20" fill="none" xmlns="http://www.w3.org/2000/svg">
  <path fill-rule="evenodd" clip-rule="evenodd"
    d="M2.77822 0.94411C4.3119 0.351463 6.38203 0 8.63308 0C10.8841 0 12.9543 0.351463 14.4879 0.94411C15.2524 1.23951 15.9203 1.60889 16.4095 2.05568C16.899 2.50269 17.2662 3.08372 17.2662 3.77801V8.65193C17.2662 9.05012 16.9441 9.37292 16.5467 9.37292C16.1494 9.37292 15.8273 9.05012 15.8273 8.65193V5.9453C15.436 6.19904 14.9821 6.42093 14.4879 6.6119C12.9543 7.20455 10.8841 7.55601 8.63308 7.55601C6.38203 7.55601 4.3119 7.20455 2.77822 6.6119C2.28401 6.42093 1.83015 6.19904 1.43885 5.9453V8.65193C1.43885 8.79729 1.51389 9.01942 1.83002 9.30438C2.14557 9.58882 2.64158 9.87703 3.31236 10.1316C4.649 10.639 6.53431 10.9582 8.62349 10.9303C9.02078 10.925 9.34714 11.2435 9.35244 11.6416C9.35773 12.0398 9.03996 12.3669 8.64267 12.3722C6.41531 12.402 4.34379 12.0651 2.80273 11.4801C2.2994 11.2891 1.83687 11.0656 1.43885 10.809V13.5258C1.43885 13.6608 1.4978 13.8471 1.72868 14.0849C1.96369 14.3269 2.34114 14.5817 2.87178 14.822C3.93067 15.3015 5.46123 15.6612 7.24999 15.8006C7.64612 15.8314 7.94228 16.1783 7.91149 16.5753C7.8807 16.9723 7.53461 17.2691 7.13848 17.2382C5.24378 17.0906 3.53694 16.7056 2.27929 16.136C1.65166 15.8518 1.10105 15.5061 0.697574 15.0906C0.28997 14.6709 0 14.1428 0 13.5258V3.77801C0 3.08372 0.367197 2.50269 0.856654 2.05568C1.34587 1.60889 2.01376 1.23951 2.77822 0.94411ZM1.43885 3.77801C1.43885 3.92729 1.51445 4.15016 1.8258 4.43451C2.13739 4.71908 2.62831 5.00851 3.29587 5.26647C4.62622 5.78055 6.51291 6.11403 8.63308 6.11403C10.7532 6.11403 12.6399 5.78055 13.9703 5.26647C14.6378 5.00851 15.1288 4.71908 15.4403 4.43451C15.7517 4.15016 15.8273 3.92729 15.8273 3.77801C15.8273 3.62873 15.7517 3.40585 15.4403 3.1215C15.1288 2.83694 14.6378 2.5475 13.9703 2.28955C12.6399 1.77547 10.7532 1.44199 8.63308 1.44199C6.51291 1.44199 4.62622 1.77547 3.29587 2.28955C2.62831 2.5475 2.13739 2.83694 1.8258 3.1215C1.51445 3.40585 1.43885 3.62873 1.43885 3.77801ZM13.0586 11.3802C13.8986 11.0422 14.8218 10.9701 15.704 11.1737C16.5861 11.3772 17.3849 11.8466 17.9929 12.5188C18.6009 13.1909 18.989 14.0335 19.1048 14.9332C19.1371 15.1839 19.1478 15.4356 19.1375 15.6858C19.4001 15.6326 19.6819 15.7292 19.8544 15.9576C20.094 16.2752 20.0314 16.7274 19.7145 16.9676L18.5044 17.8847C18.1876 18.1248 17.7366 18.0622 17.4969 17.7448L16.5818 16.5336C16.342 16.2161 16.4043 15.7639 16.7211 15.5235C17.0255 15.2926 17.454 15.3412 17.6998 15.627C17.7069 15.4578 17.6997 15.2874 17.6778 15.1178C17.5996 14.5102 17.3375 13.9412 16.9269 13.4873C16.5163 13.0333 15.9769 12.7163 15.3811 12.5789C14.7854 12.4414 14.1619 12.4901 13.5946 12.7183C13.2259 12.8667 12.807 12.6874 12.659 12.3179C12.5109 11.9483 12.6898 11.5285 13.0586 11.3802ZM10.9115 13.1742C11.2281 12.9343 11.6787 12.9968 11.9185 13.3137L12.8351 14.525C13.0752 14.8422 13.0131 15.2945 12.6966 15.5351C12.3917 15.7668 11.9619 15.7177 11.7161 15.4304C11.7088 15.6007 11.716 15.772 11.738 15.9426C11.8162 16.5502 12.0783 17.1193 12.4888 17.5732C12.8994 18.0271 13.4389 18.3441 14.0346 18.4815C14.6304 18.619 15.2538 18.5703 15.8211 18.3421C16.1899 18.1937 16.6088 18.373 16.7568 18.7425C16.9048 19.1121 16.7259 19.5319 16.3572 19.6803C15.5171 20.0182 14.5939 20.0903 13.7118 19.8868C12.8296 19.6832 12.0308 19.2138 11.4228 18.5417C10.8148 17.8695 10.4268 17.0269 10.3109 16.1272C10.2786 15.8757 10.2679 15.6231 10.2784 15.372C10.0161 15.4247 9.73488 15.328 9.56278 15.0998C9.32317 14.7822 9.38588 14.33 9.70283 14.0899L10.9115 13.1742Z"
    fill="currentColor" />
</svg>