<svg width="19" height="15" viewBox="0 0 19 15" fill="none" xmlns="http://www.w3.org/2000/svg">
  <path
    d="M9.49956 0C14.2344 0 18.1737 3.23333 19 7.5C18.1746 11.7667 14.2344 15 9.49956 15C4.76471 15 0.825438 11.7667 0 7.5C0.825438 3.23333 4.76471 0 9.49956 0ZM9.49956 13.3333C11.2906 13.3332 13.0286 12.756 14.4289 11.6962C15.8292 10.6365 16.809 9.15703 17.2077 7.5C16.8079 5.84401 15.8277 4.3658 14.4276 3.30712C13.0275 2.24844 11.2902 1.67196 9.5 1.67196C7.70978 1.67196 5.97253 2.24844 4.5724 3.30712C3.17227 4.3658 2.19212 5.84401 1.79225 7.5C2.19101 9.15689 3.17062 10.6363 4.57077 11.696C5.97091 12.7557 7.70865 13.333 9.49956 13.3333ZM9.49956 11.25C8.45154 11.25 7.44644 10.8549 6.70538 10.1516C5.96432 9.44839 5.548 8.49456 5.548 7.5C5.548 6.50544 5.96432 5.55161 6.70538 4.84835C7.44644 4.14509 8.45154 3.75 9.49956 3.75C10.5476 3.75 11.5527 4.14509 12.2937 4.84835C13.0348 5.55161 13.4511 6.50544 13.4511 7.5C13.4511 8.49456 13.0348 9.44839 12.2937 10.1516C11.5527 10.8549 10.5476 11.25 9.49956 11.25ZM9.49956 9.58333C10.0818 9.58333 10.6402 9.36384 11.0519 8.97314C11.4636 8.58244 11.6949 8.05253 11.6949 7.5C11.6949 6.94747 11.4636 6.41756 11.0519 6.02686C10.6402 5.63616 10.0818 5.41667 9.49956 5.41667C8.91733 5.41667 8.35894 5.63616 7.94724 6.02686C7.53554 6.41756 7.30425 6.94747 7.30425 7.5C7.30425 8.05253 7.53554 8.58244 7.94724 8.97314C8.35894 9.36384 8.91733 9.58333 9.49956 9.58333Z"
    fill="currentColor" />
</svg>