<svg width="25" height="25" viewBox="0 0 25 25" fill="none" xmlns="http://www.w3.org/2000/svg">
  <path fill-rule="evenodd" clip-rule="evenodd"
    d="M13.4049 0.0329251C13.267 -0.000378045 13.1231 -0.00878843 12.9806 0.00939066C12.8208 0.00324624 12.6606 0.000157645 12.5 0.000157645C12.3396 0.000157645 12.1796 0.00323954 12.0199 0.00937054C11.8776 -0.00876943 11.7339 -0.000377673 11.5961 0.0328545C8.61133 0.249133 5.79139 1.53107 3.66116 3.66128C1.31696 6.00545 9.31323e-08 9.18484 0 12.5C0 14.1415 0.323322 15.7669 0.951506 17.2835C1.57969 18.8 2.50043 20.178 3.66116 21.3387C4.8219 22.4994 6.19989 23.4202 7.71646 24.0483C8.95394 24.5609 10.2639 24.8705 11.596 24.9671C11.7338 25.0004 11.8775 25.0088 12.02 24.9906C12.1798 24.9968 12.3398 24.9998 12.5 24.9998C12.6604 24.9998 12.8206 24.9968 12.9806 24.9906C13.1231 25.0088 13.2671 25.0004 13.405 24.967C14.7367 24.8704 16.0464 24.5608 17.2835 24.0483C18.8001 23.4202 20.1781 22.4994 21.3388 21.3387C22.4996 20.178 23.4203 18.8 24.0485 17.2835C24.6767 15.7669 25 14.1415 25 12.5C25 9.18483 23.683 6.00545 21.3388 3.66128C19.2088 1.53131 16.3893 0.249411 13.4049 0.0329251ZM9.67125 2.74574C8.04109 3.21853 6.54017 4.09683 5.31845 5.31854C4.64942 5.98755 4.08337 6.7403 3.6305 7.55215H8.00355C8.37595 5.89484 8.93486 4.28221 9.67125 2.74574ZM10.4128 7.55215C10.8666 5.75357 11.5673 4.01934 12.5003 2.40052C13.4334 4.01934 14.1341 5.75357 14.5879 7.55215H10.4128ZM7.60524 9.89587H2.68327C2.45972 10.7384 2.34375 11.6132 2.34375 12.5C2.34375 13.381 2.45837 14.2563 2.68329 15.1041H7.60524C7.50515 14.2425 7.4545 13.373 7.4545 12.5C7.4545 11.6269 7.50515 10.7575 7.60524 9.89587ZM9.96659 15.1041C9.85486 14.2436 9.79825 13.3738 9.79825 12.5C9.79825 11.6262 9.85486 10.7564 9.96659 9.89587H15.0341C15.1458 10.7564 15.2024 11.6262 15.2024 12.5C15.2024 13.3738 15.1458 14.2436 15.0341 15.1041H9.96659ZM8.00355 17.4479H3.63053C4.08644 18.2651 4.65406 19.0171 5.31845 19.6815C6.26154 20.6245 7.38116 21.3726 8.61337 21.883C8.95957 22.0264 9.31275 22.1503 9.67124 22.2542C8.93485 20.7178 8.37595 19.1051 8.00355 17.4479ZM12.5003 22.5995C11.5673 20.9807 10.8666 19.2464 10.4128 17.4479H14.5879C14.1341 19.2464 13.4334 20.9807 12.5003 22.5995ZM15.3296 22.254C15.6878 22.1501 16.0407 22.0263 16.3866 21.883C17.6188 21.3726 18.7385 20.6245 19.6816 19.6815C20.3459 19.0171 20.9136 18.2651 21.3695 17.4479H16.9971C16.6248 19.1051 16.0659 20.7176 15.3296 22.254ZM17.3954 15.1041H22.3167C22.5416 14.2563 22.6562 13.381 22.6562 12.5C22.6562 11.6132 22.5403 10.7384 22.3167 9.89587H17.3954C17.4955 10.7575 17.5462 11.6269 17.5462 12.5C17.5462 13.373 17.4955 14.2425 17.3954 15.1041ZM16.9971 7.55215H21.3695C20.9166 6.7403 20.3506 5.98756 19.6816 5.31854C18.46 4.09703 16.9594 3.21881 15.3295 2.74597C16.0659 4.28237 16.6247 5.89492 16.9971 7.55215Z"
    fill="currentColor" />
</svg>