<svg width="27" height="25" viewBox="0 0 27 25" fill="none" xmlns="http://www.w3.org/2000/svg">
  <path fill-rule="evenodd" clip-rule="evenodd"
    d="M13.4993 1.41509C13.2934 1.41509 13.0977 1.49552 12.9547 1.63594L4.37247 10.0763V22.8413C4.37247 23.2432 4.70702 23.5849 5.13765 23.5849H9.83806V18.0041C9.83806 16.804 10.8257 15.8454 12.0243 15.8454H14.9757C16.1743 15.8454 17.1619 16.804 17.1619 18.0041V23.5849H21.8623C22.293 23.5849 22.6275 23.2432 22.6275 22.8413V10.0766L14.044 1.63594C13.901 1.49552 13.7053 1.41509 13.4993 1.41509ZM23.8369 9.27708L15.0421 0.628605C14.6313 0.225357 14.076 0 13.4993 0C12.9227 0 12.3678 0.224919 11.9571 0.628167L0.21125 12.1798C-0.0679521 12.4544 -0.0707563 12.9024 0.204987 13.1804C0.480729 13.4584 0.930601 13.4612 1.2098 13.1866L2.95142 11.4738V22.8413C2.95142 24.0415 3.9391 25 5.13765 25H21.8623C23.0609 25 24.0486 24.0415 24.0486 22.8413V11.474L25.7902 13.1867C26.0694 13.4612 26.5193 13.4584 26.795 13.1804C27.0708 12.9023 27.0679 12.4544 26.7887 12.1798L23.8377 9.27784C23.8374 9.27758 23.8372 9.27733 23.8369 9.27708ZM15.7409 23.5849H11.2591V18.0041C11.2591 17.6022 11.5937 17.2605 12.0243 17.2605H14.9757C15.4063 17.2605 15.7409 17.6022 15.7409 18.0041V23.5849Z"
    fill="currentColor" />
</svg>