<svg width="20" height="10" viewBox="0 0 20 10" fill="none" xmlns="http://www.w3.org/2000/svg">
  <path fill-rule="evenodd" clip-rule="evenodd"
    d="M3.39013 0.256584C4.37733 -0.0752697 5.44303 -0.0854686 6.43629 0.227432C7.42955 0.540333 8.30001 1.16047 8.92437 2C8.93277 2.01129 8.94085 2.02281 8.94861 2.03455L12.2977 7.10081C12.7307 7.67606 13.3308 8.10109 14.0147 8.31653C14.7049 8.53397 15.4455 8.52688 16.1315 8.29627C16.8176 8.06566 17.4142 7.62322 17.8371 7.03162C18.2599 6.44002 18.4874 5.72925 18.4874 5C18.4874 4.27075 18.2599 3.55998 17.8371 2.96838C17.4142 2.37678 16.8176 1.93434 16.1315 1.70373C15.4455 1.47312 14.7049 1.46603 14.0147 1.68347C13.3308 1.89891 12.7307 2.32394 12.2977 2.8992L12.0999 3.1985C11.8682 3.54899 11.3986 3.6437 11.0511 3.41004C10.7035 3.17638 10.6096 2.70284 10.8413 2.35235L11.0514 2.03455C11.0592 2.02281 11.0672 2.01129 11.0756 2C11.7 1.16047 12.5704 0.540333 13.5637 0.227432C14.557 -0.0854686 15.6227 -0.0752697 16.6099 0.256584C17.5971 0.588437 18.4557 1.22512 19.0641 2.07645C19.6726 2.92778 20 3.95059 20 5C20 6.04941 19.6726 7.07222 19.0641 7.92355C18.4557 8.77488 17.5971 9.41156 16.6099 9.74342C15.6227 10.0753 14.557 10.0855 13.5637 9.77257C12.5704 9.45967 11.7 8.83953 11.0756 8C11.0672 7.98871 11.0592 7.97719 11.0514 7.96545L7.70227 2.89919C7.26927 2.32394 6.66916 1.89891 5.98528 1.68347C5.29505 1.46603 4.55448 1.47312 3.86846 1.70373C3.18244 1.93434 2.58577 2.37678 2.16295 2.96838C1.74013 3.55998 1.5126 4.27075 1.5126 5C1.5126 5.72925 1.74013 6.44002 2.16295 7.03162C2.58577 7.62322 3.18244 8.06566 3.86846 8.29627C4.55448 8.52688 5.29505 8.53397 5.98528 8.31653C6.66927 8.10106 7.26946 7.67593 7.70247 7.10054L7.9711 6.69498C8.20312 6.34471 8.67277 6.25044 9.0201 6.48442C9.36743 6.7184 9.46091 7.19203 9.22889 7.54231L8.94822 7.96603C8.94058 7.97757 8.93263 7.9889 8.92437 8C8.30001 8.83953 7.42955 9.45967 6.43629 9.77257C5.44303 10.0855 4.37732 10.0753 3.39013 9.74342C2.40294 9.41156 1.5443 8.77488 0.935858 7.92355C0.327412 7.07222 0 6.04941 0 5C0 3.95059 0.327412 2.92778 0.935858 2.07645C1.5443 1.22512 2.40294 0.588437 3.39013 0.256584Z"
    fill="currentColor" />
</svg>