<svg width="20" height="25" viewBox="0 0 20 25" fill="none" xmlns="http://www.w3.org/2000/svg">
  <path fill-rule="evenodd" clip-rule="evenodd"
    d="M2.92893 2.9955C4.8043 1.07751 7.34784 0 10 0C12.6522 0 15.1957 1.07751 17.0711 2.9955C18.9464 4.91348 20 7.51483 20 10.2273C20 11.3825 19.8802 12.4001 19.5677 13.3641C19.2537 14.3331 18.7634 15.1913 18.0892 16.0516C18.0803 16.0629 18.0712 16.0741 18.0619 16.0851L10.8397 24.6079C10.6286 24.8569 10.3222 25 10 25C9.67776 25 9.37139 24.8569 9.16035 24.6079L1.93812 16.0851C1.92879 16.0741 1.91967 16.0629 1.91076 16.0516C1.2366 15.1913 0.746324 14.3331 0.432265 13.3641C0.119848 12.4001 0 11.3825 0 10.2273C0 7.51483 1.05357 4.91348 2.92893 2.9955ZM10 2.27273C7.93721 2.27273 5.9589 3.11079 4.50028 4.60256C3.04166 6.09433 2.22222 8.1176 2.22222 10.2273C2.22222 11.222 2.32571 11.9828 2.54162 12.649C2.75419 13.3048 3.09351 13.9238 3.6318 14.6136L10 22.1285L16.3682 14.6136C16.9065 13.9238 17.2458 13.3048 17.4584 12.649C17.6743 11.9828 17.7778 11.222 17.7778 10.2273C17.7778 8.1176 16.9583 6.09433 15.4997 4.60256C14.0411 3.11079 12.0628 2.27273 10 2.27273ZM10 7.95455C8.7727 7.95455 7.77778 8.97208 7.77778 10.2273C7.77778 11.4825 8.7727 12.5 10 12.5C11.2273 12.5 12.2222 11.4825 12.2222 10.2273C12.2222 8.97208 11.2273 7.95455 10 7.95455ZM5.55556 10.2273C5.55556 7.71689 7.5454 5.68182 10 5.68182C12.4546 5.68182 14.4444 7.71689 14.4444 10.2273C14.4444 12.7377 12.4546 14.7727 10 14.7727C7.5454 14.7727 5.55556 12.7377 5.55556 10.2273Z"
    fill="currentColor" />
</svg>