<svg width="21" height="25" viewBox="0 0 21 25" fill="none" xmlns="http://www.w3.org/2000/svg">
  <path
    d="M15.5368 17.5L14.5846 19.3118L19.2466 18.5405C18.3058 18.063 17.0322 17.7218 15.5368 17.5ZM3.52726 17.895C1.36796 18.4713 0 19.4155 0 20.818C0.000889112 21.1199 0.0661128 21.4181 0.191224 21.6922L7.6734 20.4547L3.52726 17.895ZM20.8246 20L10.4111 21.7175L13.1574 24.879C17.6672 24.4702 21 23.0125 21 20.818C21 20.5255 20.9377 20.2535 20.8246 20ZM8.65151 22.0138L1.61527 23.1775C3.47513 24.3435 6.7578 25 10.5 25C10.7268 25 10.9484 24.9935 11.1718 24.9887L8.65151 22.0138Z"
    fill="currentColor" />
  <path
    d="M10.5005 0C6.47344 0 3.16902 3.333 3.16902 7.39875C3.16902 8.97425 3.66734 10.442 4.50833 11.6447L4.48313 11.605L9.24124 19.9277L9.261 19.9545C9.44877 20.2022 9.63159 20.3975 9.84678 20.5415C10.0617 20.6852 10.3285 20.7717 10.5902 20.7452C11.1134 20.6922 11.4341 20.3182 11.7383 19.901L11.7543 19.8792L17.0006 10.8442L17.0038 10.8382C17.1269 10.6132 17.2175 10.3845 17.2946 10.1615C17.6485 9.28442 17.8306 8.34611 17.8307 7.39875C17.831 3.333 14.5276 0 10.5005 0ZM10.5005 1.0375C13.9692 1.0375 16.8054 3.90125 16.8054 7.39875C16.8054 8.2405 16.6404 9.04375 16.3417 9.78125L16.3363 9.79425L16.3318 9.80725C16.2651 10.0007 16.1927 10.1787 16.1068 10.3362L10.9049 19.2937C10.6648 19.6172 10.4879 19.713 10.4879 19.713C10.4879 19.713 10.4844 19.7242 10.4128 19.676C10.3434 19.6297 10.225 19.5155 10.0872 19.336L5.35846 11.065L5.34537 11.046C4.62099 10.0097 4.19432 8.75375 4.19432 7.399C4.19432 3.9015 7.03179 1.0375 10.5005 1.0375ZM10.5005 3.224C8.21125 3.224 6.36399 5.0865 6.36399 7.39875C6.36399 9.711 8.21125 11.5735 10.5005 11.5735C12.7895 11.5735 14.6363 9.711 14.6363 7.3985C14.6363 5.0865 12.7897 3.224 10.5005 3.224ZM10.5005 4.2615C12.2472 4.2615 13.611 5.63825 13.611 7.39875C13.611 9.15925 12.2474 10.536 10.5005 10.536C8.75329 10.536 7.38928 9.159 7.38928 7.3985C7.38928 5.6385 8.75329 4.2615 10.5005 4.2615Z"
    fill="currentColor" />
</svg>