<svg width="17" height="24" viewBox="0 0 17 24" fill="none" xmlns="http://www.w3.org/2000/svg">
  <path
    d="M16.3175 4.83411C15.8832 3.88527 15.2659 3.03256 14.4779 2.30388C12.8772 0.818605 10.7522 0 8.5 0C6.24781 0 4.12281 0.818605 2.52208 2.30078C1.73412 3.03256 1.11679 3.88217 0.682482 4.83411C0.229562 5.82636 0 6.87752 0 7.96279V8.8C0 8.99225 0.155109 9.14729 0.347445 9.14729H2.02263C2.21496 9.14729 2.37007 8.99225 2.37007 8.8V7.96279C2.37007 4.87752 5.11861 2.36899 8.5 2.36899C11.8814 2.36899 14.6299 4.87752 14.6299 7.96279C14.6299 9.22791 14.1801 10.4186 13.327 11.4109C12.4832 12.3938 11.292 13.0977 9.97354 13.3953C9.21971 13.5659 8.54033 13.9907 8.05949 14.5984C7.58033 15.2041 7.31915 15.9534 7.31807 16.7256V17.6992C7.31807 17.8915 7.47318 18.0465 7.66551 18.0465H9.34069C9.53303 18.0465 9.68814 17.8915 9.68814 17.6992V16.7256C9.68814 16.2388 10.0263 15.8109 10.4947 15.7054C12.3064 15.2961 13.9505 14.3194 15.1263 12.955C15.7188 12.2636 16.181 11.4946 16.5005 10.6605C16.8325 9.79535 17 8.88682 17 7.96279C17 6.87752 16.7704 5.82326 16.3175 4.83411ZM8.5 20.5271C7.54142 20.5271 6.76277 21.3054 6.76277 22.2636C6.76277 23.2217 7.54142 24 8.5 24C9.45858 24 10.2372 23.2217 10.2372 22.2636C10.2372 21.3054 9.45858 20.5271 8.5 20.5271Z"
    fill="currentColor" />
</svg>