<svg width="25" height="25" viewBox="0 0 25 25" fill="none" xmlns="http://www.w3.org/2000/svg">
  <path fill-rule="evenodd" clip-rule="evenodd"
    d="M14.7605 0H14.8256C16.2512 0 17.614 0.57093 18.6186 1.57558L23.4244 6.3814C23.9233 6.87917 24.3192 7.47035 24.5895 8.12117C24.8599 8.77198 24.9994 9.46969 25 10.1744V10.2395C25 12.3767 25 14.0698 24.8221 15.3942C24.6384 16.757 24.2523 17.8605 23.3826 18.7314C22.536 19.5779 21.4686 19.9663 20.1558 20.1558C19.9663 21.4686 19.5779 22.536 18.7314 23.3826C17.8605 24.2523 16.757 24.6384 15.3942 24.8221C14.0686 25 12.3767 25 10.2395 25H10.1093C7.97209 25 6.27907 25 4.95465 24.8221C3.59186 24.6384 2.48837 24.2523 1.61744 23.3826C0.747674 22.5116 0.361628 21.4081 0.177907 20.0453C0 18.7198 0 17.0279 0 14.8907V14.7605C0 12.6233 0 10.9302 0.177907 9.60581C0.361628 8.24302 0.747674 7.13953 1.61744 6.2686C2.46395 5.42209 3.5314 5.03372 4.84419 4.84419C5.03372 3.5314 5.42209 2.46395 6.2686 1.61744C7.13953 0.747674 8.24302 0.361628 9.60581 0.177907C10.9314 0 12.6233 0 14.7605 0ZM6.63837 4.69302C7.63837 4.65116 8.78837 4.65116 10.1093 4.65116H10.1744C11.6 4.65116 12.9628 5.22209 13.9674 6.22674L18.7733 11.0326C19.2721 11.5303 19.668 12.1215 19.9384 12.7723C20.2087 13.4231 20.3482 14.1208 20.3488 14.8256V14.8907C20.3488 16.2116 20.3488 17.3628 20.307 18.3616C21.1814 18.1919 21.7314 17.9163 22.1488 17.4977C22.6407 17.0058 22.936 16.3314 23.093 15.1616C23.2535 13.9674 23.2558 12.3919 23.2558 10.1744C23.2558 9.21628 22.8721 8.29651 22.1907 7.61512L17.3849 2.8093C17.0492 2.47232 16.6504 2.2048 16.2112 2.02204C15.7721 1.83928 15.3012 1.74486 14.8256 1.74419C12.6081 1.74419 11.0337 1.74651 9.83721 1.90698C8.6686 2.06395 7.99419 2.3593 7.50233 2.85116C7.08372 3.26977 6.80814 3.8186 6.63837 4.69302ZM5.18605 6.55814C4.01628 6.71512 3.34186 7.01047 2.84884 7.50233C2.35814 7.99419 2.06279 8.6686 1.90581 9.83837C1.74535 11.0326 1.74302 12.6081 1.74302 14.8256C1.74302 17.043 1.74535 18.6186 1.90581 19.814C2.06279 20.9826 2.35814 21.657 2.85 22.1488C3.34186 22.6407 4.01628 22.936 5.18605 23.093C6.3814 23.2535 7.95581 23.2558 10.1733 23.2558C12.3907 23.2558 13.9651 23.2535 15.1616 23.093C16.3302 22.936 17.0047 22.6407 17.4965 22.1488C17.9884 21.657 18.2837 20.9826 18.4407 19.8128C18.6012 18.6186 18.6035 17.043 18.6035 14.8256C18.6035 13.8674 18.2198 12.9477 17.5384 12.2663L12.7326 7.46046C12.397 7.12362 11.9984 6.85618 11.5594 6.67343C11.1205 6.49067 10.6499 6.39618 10.1744 6.39535C7.95698 6.39535 6.38256 6.39767 5.18605 6.55814ZM8.95814 13.9535H11.3884C11.8919 13.9535 12.3535 13.9535 12.7279 14.0035C13.1419 14.0593 13.5779 14.1895 13.9372 14.55C14.2977 14.9093 14.4279 15.3453 14.4837 15.7593C14.5337 16.1349 14.5337 16.5965 14.5337 17.0988V18.3663C14.5337 18.8698 14.5337 19.3314 14.4837 19.7058C14.4279 20.1198 14.2977 20.5558 13.9372 20.9151C13.5779 21.2756 13.1419 21.4058 12.7279 21.4616C12.3523 21.5116 11.8907 21.5116 11.3884 21.5116H8.95814C8.45465 21.5116 7.99302 21.5116 7.6186 21.4616C7.20465 21.4058 6.7686 21.2756 6.4093 20.9151C6.04884 20.5558 5.9186 20.1198 5.86279 19.7058C5.81279 19.3302 5.81279 18.8686 5.81279 18.3663V17.0988C5.81279 16.5953 5.81279 16.1337 5.86279 15.7593C5.9186 15.3453 6.04884 14.9093 6.4093 14.55C6.7686 14.1895 7.20465 14.0593 7.6186 14.0035C7.99419 13.9535 8.45581 13.9535 8.95814 13.9535ZM7.64535 15.7814L7.64186 15.7826L7.6407 15.786C7.6156 15.8523 7.59918 15.9214 7.59186 15.9919C7.5593 16.236 7.55698 16.5779 7.55698 17.1512V18.314C7.55698 18.8872 7.5593 19.2291 7.59186 19.4733C7.59918 19.5437 7.6156 19.6129 7.6407 19.6791L7.64186 19.6826L7.64535 19.6837C7.71155 19.7088 7.78073 19.7252 7.85116 19.7326C8.09535 19.7651 8.43721 19.7674 9.01046 19.7674H9.30116V15.6977H9.01163C8.43837 15.6977 8.09651 15.7 7.85233 15.7326C7.7819 15.7399 7.71271 15.7563 7.64651 15.7814H7.64535ZM11.0453 15.6977V16.8605H12.7895C12.7952 16.5705 12.7836 16.2804 12.7547 15.9919C12.7474 15.9214 12.731 15.8522 12.7058 15.786L12.7047 15.7826L12.7012 15.7814C12.635 15.7563 12.5658 15.7398 12.4953 15.7326C12.2512 15.7 11.9093 15.6977 11.336 15.6977H11.0453ZM11.0453 18.6047V19.7674H11.3372C11.9105 19.7674 12.2523 19.7651 12.4965 19.7326C12.5669 19.7253 12.6361 19.7089 12.7023 19.6837L12.7058 19.6826L12.707 19.6791C12.7321 19.6129 12.7485 19.5437 12.7558 19.4733C12.7826 19.2733 12.7884 19.0081 12.7907 18.6047H11.0453Z"
    fill="currentColor" />
</svg>