<svg width="23" height="20" viewBox="0 0 23 20" fill="none" xmlns="http://www.w3.org/2000/svg">
  <path fill-rule="evenodd" clip-rule="evenodd"
    d="M2.8422 2.71246C2.11999 3.39002 1.63447 4.49089 1.63447 6.22234V13.7777C1.63447 15.5091 2.11999 16.61 2.8422 17.2875C3.57538 17.9754 4.68148 18.3486 6.15862 18.3486H16.8414C18.3185 18.3486 19.4246 17.9754 20.1578 17.2875C20.88 16.61 21.3655 15.5091 21.3655 13.7777V6.22234C21.3655 4.49089 20.88 3.39002 20.1578 2.71246C19.4246 2.02461 18.3185 1.65138 16.8414 1.65138H6.15862C4.68148 1.65138 3.57538 2.02461 2.8422 2.71246ZM1.73003 1.50233C2.86634 0.436273 4.43092 0 6.15862 0H16.8414C18.5691 0 20.1337 0.436272 21.27 1.50233C22.4172 2.57868 23 4.17614 23 6.22234V13.7777C23 15.8239 22.4172 17.4213 21.27 18.4977C20.1337 19.5637 18.5691 20 16.8414 20H6.15862C4.43092 20 2.86634 19.5637 1.73003 18.4977C0.582753 17.4213 0 15.8239 0 13.7777V6.22234C0 4.17614 0.582753 2.57868 1.73003 1.50233ZM17.4804 6.24718C17.762 6.6035 17.7045 7.12305 17.3518 7.40764L14.0071 10.1068C12.6089 11.2315 10.3813 11.2315 8.98306 10.1068L8.98105 10.1052L5.64803 7.40684C5.29581 7.12169 5.23907 6.60204 5.52129 6.24618C5.80352 5.89031 6.31785 5.83298 6.67007 6.11813L10.0011 8.81484C10.0014 8.81508 10.0017 8.81532 10.002 8.81555C10.8044 9.46018 12.1866 9.46003 12.9888 8.81512C12.9889 8.81502 12.9886 8.81521 12.9888 8.81512L16.3318 6.11733C16.6845 5.83274 17.1987 5.89087 17.4804 6.24718Z"
    fill="currentColor" />
</svg>