<svg width="22" height="22" viewBox="0 0 22 22" fill="none" xmlns="http://www.w3.org/2000/svg">
<g clip-path="url(#clip0_344_5008)">
<path d="M0 14.6666H22V22H0V14.6666Z" fill="#1EB53A"/>
<path d="M0 0H22V7.33333H0V0Z" fill="#0099B5"/>
<path d="M0 7.04004H22V14.96H0V7.04004Z" fill="#CE1126"/>
<path d="M0 7.47998H22V14.52H0V7.47998Z" fill="white"/>
<path d="M4.62062 6.16C5.71415 6.16 6.60063 4.97804 6.60063 3.52C6.60063 2.06197 5.71415 0.880005 4.62062 0.880005C3.5271 0.880005 2.64062 2.06197 2.64062 3.52C2.64062 4.97804 3.5271 6.16 4.62062 6.16Z" fill="white"/>
<path d="M5.28078 6.16C6.37431 6.16 7.26078 4.97804 7.26078 3.52C7.26078 2.06197 6.37431 0.880005 5.28078 0.880005C4.18726 0.880005 3.30078 2.06197 3.30078 3.52C3.30078 4.97804 4.18726 6.16 5.28078 6.16Z" fill="#0099B5"/>
<path d="M8.97501 5.10486L8.84961 5.60646L9.04101 5.69446" fill="white"/>
<path d="M8.97421 5.10486L9.09961 5.60646L8.90821 5.69446" fill="white"/>
<path d="M9.35581 5.45374L8.95714 5.48638L8.94096 5.73557" fill="white"/>
<path d="M9.35903 5.4613L9.02354 5.78008L8.91092 5.59254" fill="white"/>
<path d="M8.59214 5.4613L8.92763 5.78008L9.04025 5.59254" fill="white"/>
<path d="M8.59536 5.45374L8.99403 5.48638L9.01021 5.73557" fill="white"/>
<path d="M9.20131 6.05639L9.09504 5.55439L8.89383 5.64537" fill="white"/>
<path d="M9.20494 6.0531L8.8841 5.76154L9.01038 5.53133" fill="white"/>
<path d="M8.74096 6.06566L9.06488 5.74523L8.95676 5.53133" fill="white"/>
<path d="M8.73951 6.063L8.86957 5.55725L9.05734 5.62621" fill="white"/>
<path d="M8.97501 2.99292L8.84961 3.49452L9.04101 3.58252" fill="white"/>
<path d="M8.97421 2.99292L9.09961 3.49452L8.90821 3.58252" fill="white"/>
<path d="M9.35581 3.3418L8.95714 3.37444L8.94096 3.62364" fill="white"/>
<path d="M9.35903 3.34936L9.02354 3.66814L8.91092 3.4806" fill="white"/>
<path d="M8.59214 3.34936L8.92763 3.66814L9.04025 3.4806" fill="white"/>
<path d="M8.59536 3.3418L8.99403 3.37444L9.01021 3.62364" fill="white"/>
<path d="M9.20131 3.94445L9.09504 3.44245L8.89383 3.53344" fill="white"/>
<path d="M9.20494 3.94117L8.8841 3.6496L9.01038 3.41939" fill="white"/>
<path d="M8.74096 3.95372L9.06488 3.6333L8.95676 3.41939" fill="white"/>
<path d="M8.73951 3.95106L8.86957 3.44531L9.05734 3.51427" fill="white"/>
<path d="M8.97501 0.880859L8.84961 1.38246L9.04101 1.47046" fill="white"/>
<path d="M8.97421 0.880859L9.09961 1.38246L8.90821 1.47046" fill="white"/>
<path d="M9.35581 1.22974L8.95714 1.26238L8.94096 1.51158" fill="white"/>
<path d="M9.35903 1.2373L9.02354 1.55608L8.91092 1.36854" fill="white"/>
<path d="M8.59214 1.2373L8.92763 1.55608L9.04025 1.36854" fill="white"/>
<path d="M8.59536 1.22974L8.99403 1.26238L9.01021 1.51158" fill="white"/>
<path d="M9.20131 1.83239L9.09504 1.33039L8.89383 1.42138" fill="white"/>
<path d="M9.20494 1.82911L8.8841 1.53754L9.01038 1.30733" fill="white"/>
<path d="M8.74096 1.84166L9.06488 1.52124L8.95676 1.30733" fill="white"/>
<path d="M8.73951 1.839L8.86957 1.33325L9.05734 1.40221" fill="white"/>
<path d="M10.559 5.10486L10.4336 5.60646L10.625 5.69446" fill="white"/>
<path d="M10.5582 5.10486L10.6836 5.60646L10.4922 5.69446" fill="white"/>
<path d="M10.9398 5.45374L10.5411 5.48638L10.5249 5.73557" fill="white"/>
<path d="M10.943 5.4613L10.6075 5.78008L10.4949 5.59254" fill="white"/>
<path d="M10.1761 5.4613L10.5116 5.78008L10.6242 5.59254" fill="white"/>
<path d="M10.1793 5.45374L10.578 5.48638L10.5942 5.73557" fill="white"/>
<path d="M10.7853 6.05639L10.679 5.55439L10.4778 5.64537" fill="white"/>
<path d="M10.7889 6.0531L10.4681 5.76154L10.5944 5.53133" fill="white"/>
<path d="M10.3249 6.06566L10.6489 5.74523L10.5407 5.53133" fill="white"/>
<path d="M10.3235 6.063L10.4536 5.55725L10.6413 5.62621" fill="white"/>
<path d="M10.559 2.99292L10.4336 3.49452L10.625 3.58252" fill="white"/>
<path d="M10.5582 2.99292L10.6836 3.49452L10.4922 3.58252" fill="white"/>
<path d="M10.9398 3.3418L10.5411 3.37444L10.5249 3.62364" fill="white"/>
<path d="M10.943 3.34936L10.6075 3.66814L10.4949 3.4806" fill="white"/>
<path d="M10.1761 3.34936L10.5116 3.66814L10.6242 3.4806" fill="white"/>
<path d="M10.1793 3.3418L10.578 3.37444L10.5942 3.62364" fill="white"/>
<path d="M10.7853 3.94445L10.679 3.44245L10.4778 3.53344" fill="white"/>
<path d="M10.7889 3.94117L10.4681 3.6496L10.5944 3.41939" fill="white"/>
<path d="M10.3249 3.95372L10.6489 3.6333L10.5407 3.41939" fill="white"/>
<path d="M10.3235 3.95106L10.4536 3.44531L10.6413 3.51427" fill="white"/>
<path d="M10.559 0.880859L10.4336 1.38246L10.625 1.47046" fill="white"/>
<path d="M10.5582 0.880859L10.6836 1.38246L10.4922 1.47046" fill="white"/>
<path d="M10.9398 1.22974L10.5411 1.26238L10.5249 1.51158" fill="white"/>
<path d="M10.943 1.2373L10.6075 1.55608L10.4949 1.36854" fill="white"/>
<path d="M10.1761 1.2373L10.5116 1.55608L10.6242 1.36854" fill="white"/>
<path d="M10.1793 1.22974L10.578 1.26238L10.5942 1.51158" fill="white"/>
<path d="M10.7853 1.83239L10.679 1.33039L10.4778 1.42138" fill="white"/>
<path d="M10.7889 1.82911L10.4681 1.53754L10.5944 1.30733" fill="white"/>
<path d="M10.3249 1.84166L10.6489 1.52124L10.5407 1.30733" fill="white"/>
<path d="M10.3235 1.839L10.4536 1.33325L10.6413 1.40221" fill="white"/>
<path d="M12.143 5.10486L12.0176 5.60646L12.209 5.69446" fill="white"/>
<path d="M12.1422 5.10486L12.2676 5.60646L12.0762 5.69446" fill="white"/>
<path d="M12.5238 5.45374L12.1251 5.48638L12.1089 5.73557" fill="white"/>
<path d="M12.527 5.4613L12.1915 5.78008L12.0789 5.59254" fill="white"/>
<path d="M11.7601 5.4613L12.0956 5.78008L12.2082 5.59254" fill="white"/>
<path d="M11.7633 5.45374L12.162 5.48638L12.1782 5.73557" fill="white"/>
<path d="M12.3693 6.05639L12.263 5.55439L12.0618 5.64537" fill="white"/>
<path d="M12.3729 6.0531L12.0521 5.76154L12.1783 5.53133" fill="white"/>
<path d="M11.9089 6.06566L12.2329 5.74523L12.1247 5.53133" fill="white"/>
<path d="M11.9075 6.063L12.0375 5.55725L12.2253 5.62621" fill="white"/>
<path d="M12.143 2.99292L12.0176 3.49452L12.209 3.58252" fill="white"/>
<path d="M12.1422 2.99292L12.2676 3.49452L12.0762 3.58252" fill="white"/>
<path d="M12.5238 3.3418L12.1251 3.37444L12.1089 3.62364" fill="white"/>
<path d="M12.527 3.34936L12.1915 3.66814L12.0789 3.4806" fill="white"/>
<path d="M11.7601 3.34936L12.0956 3.66814L12.2082 3.4806" fill="white"/>
<path d="M11.7633 3.3418L12.162 3.37444L12.1782 3.62364" fill="white"/>
<path d="M12.3693 3.94445L12.263 3.44245L12.0618 3.53344" fill="white"/>
<path d="M12.3729 3.94117L12.0521 3.6496L12.1783 3.41939" fill="white"/>
<path d="M11.9089 3.95372L12.2329 3.6333L12.1247 3.41939" fill="white"/>
<path d="M11.9075 3.95106L12.0375 3.44531L12.2253 3.51427" fill="white"/>
<path d="M12.143 0.880859L12.0176 1.38246L12.209 1.47046" fill="white"/>
<path d="M12.1422 0.880859L12.2676 1.38246L12.0762 1.47046" fill="white"/>
<path d="M12.5238 1.22974L12.1251 1.26238L12.1089 1.51158" fill="white"/>
<path d="M12.527 1.2373L12.1915 1.55608L12.0789 1.36854" fill="white"/>
<path d="M11.7601 1.2373L12.0956 1.55608L12.2082 1.36854" fill="white"/>
<path d="M11.7633 1.22974L12.162 1.26238L12.1782 1.51158" fill="white"/>
<path d="M12.3693 1.83239L12.263 1.33039L12.0618 1.42138" fill="white"/>
<path d="M12.3729 1.82911L12.0521 1.53754L12.1783 1.30733" fill="white"/>
<path d="M11.9089 1.84166L12.2329 1.52124L12.1247 1.30733" fill="white"/>
<path d="M11.9075 1.839L12.0375 1.33325L12.2253 1.40221" fill="white"/>
<path d="M5.80704 5.10486L5.68164 5.60646L5.87304 5.69446" fill="white"/>
<path d="M5.80624 5.10486L5.93164 5.60646L5.74024 5.69446" fill="white"/>
<path d="M6.18784 5.45374L5.78917 5.48638L5.77299 5.73557" fill="white"/>
<path d="M6.19106 5.4613L5.85557 5.78008L5.74295 5.59254" fill="white"/>
<path d="M5.42417 5.4613L5.75966 5.78008L5.87228 5.59254" fill="white"/>
<path d="M5.42739 5.45374L5.82607 5.48638L5.84224 5.73557" fill="white"/>
<path d="M6.03335 6.05639L5.92707 5.55439L5.72586 5.64537" fill="white"/>
<path d="M6.03697 6.0531L5.71613 5.76154L5.84241 5.53133" fill="white"/>
<path d="M5.57299 6.06566L5.89691 5.74523L5.78879 5.53133" fill="white"/>
<path d="M5.57154 6.063L5.7016 5.55725L5.88937 5.62621" fill="white"/>
<path d="M7.39102 5.10486L7.26562 5.60646L7.45703 5.69446" fill="white"/>
<path d="M7.39023 5.10486L7.51562 5.60646L7.32422 5.69446" fill="white"/>
<path d="M7.77183 5.45374L7.37315 5.48638L7.35697 5.73557" fill="white"/>
<path d="M7.77505 5.4613L7.43956 5.78008L7.32694 5.59254" fill="white"/>
<path d="M7.00816 5.4613L7.34364 5.78008L7.45627 5.59254" fill="white"/>
<path d="M7.01138 5.45374L7.41005 5.48638L7.42623 5.73557" fill="white"/>
<path d="M7.61733 6.05639L7.51105 5.55439L7.30984 5.64537" fill="white"/>
<path d="M7.62095 6.0531L7.30012 5.76154L7.42639 5.53133" fill="white"/>
<path d="M7.15697 6.06566L7.4809 5.74523L7.37277 5.53133" fill="white"/>
<path d="M7.15553 6.063L7.28559 5.55725L7.47336 5.62621" fill="white"/>
<path d="M7.39102 2.99292L7.26562 3.49452L7.45703 3.58252" fill="white"/>
<path d="M7.39023 2.99292L7.51562 3.49452L7.32422 3.58252" fill="white"/>
<path d="M7.77183 3.3418L7.37315 3.37444L7.35697 3.62364" fill="white"/>
<path d="M7.77505 3.34936L7.43956 3.66814L7.32694 3.4806" fill="white"/>
<path d="M7.00816 3.34936L7.34364 3.66814L7.45627 3.4806" fill="white"/>
<path d="M7.01138 3.3418L7.41005 3.37444L7.42623 3.62364" fill="white"/>
<path d="M7.61733 3.94445L7.51105 3.44245L7.30984 3.53344" fill="white"/>
<path d="M7.62095 3.94117L7.30012 3.6496L7.42639 3.41939" fill="white"/>
<path d="M7.15697 3.95372L7.4809 3.6333L7.37277 3.41939" fill="white"/>
<path d="M7.15553 3.95106L7.28559 3.44531L7.47336 3.51427" fill="white"/>
</g>
<defs>
<clipPath id="clip0_344_5008">
<rect width="22" height="22" rx="11" fill="white"/>
</clipPath>
</defs>
</svg>
