<svg width="185" height="55" viewBox="0 0 185 55" fill="none" xmlns="http://www.w3.org/2000/svg">
<g clip-path="url(#clip0_189_1126)">
<path d="M0 7.33333C0 3.28324 3.27381 0 7.31225 0H177.688C181.726 0 185 3.28325 185 7.33333V47.6667C185 51.7168 181.726 55 177.688 55H7.31225C3.27381 55 0 51.7168 0 47.6667V7.33333Z" fill="white"/>
<path fill-rule="evenodd" clip-rule="evenodd" d="M0 47.6667V7.33333C0 3.28325 3.27381 0 7.31225 0H177.688C181.726 0 185 3.28324 185 7.33333V47.6667C185 51.7168 181.726 55 177.688 55H7.31225C3.27381 55 0 51.7168 0 47.6667ZM1.09684 47.6667V7.33333C1.09684 3.89076 3.87957 1.1 7.31225 1.1H177.688C181.12 1.1 183.903 3.89076 183.903 7.33333V47.6667C183.903 51.1092 181.12 53.9 177.688 53.9H7.31225C3.87957 53.9 1.09684 51.1092 1.09684 47.6667Z" fill="black" fill-opacity="0.1"/>
<path d="M41.8043 28.6201C41.7855 25.3966 43.2418 22.9671 46.1827 21.1758C44.5379 18.8125 42.0494 17.5127 38.7692 17.2622C35.6633 17.0164 32.2653 19.0772 31.0211 19.0772C29.7061 19.0772 26.6993 17.3472 24.3333 17.3472C19.4507 17.4229 14.2617 21.2514 14.2617 29.0408C14.2617 31.3426 14.6812 33.7201 15.5201 36.1684C16.6418 39.3919 20.6855 47.29 24.9036 47.1624C27.1093 47.1104 28.6693 45.5932 31.5395 45.5932C34.3249 45.5932 35.767 47.1624 38.2272 47.1624C42.483 47.101 46.1403 39.9213 47.2054 36.6883C41.498 33.9895 41.8043 28.7855 41.8043 28.6201V28.6201ZM36.851 14.2041C39.2405 11.3587 39.0237 8.76854 38.953 7.8374C36.8416 7.96029 34.4003 9.279 33.0099 10.9002C31.4782 12.6396 30.578 14.7902 30.7713 17.2149C33.0524 17.3898 35.1355 16.2129 36.851 14.2041V14.2041Z" fill="black"/>
<path d="M67.5495 39.8007H65.1288L63.8029 35.6028H59.194L57.9309 39.8007H55.5742L60.1405 25.509H62.9608L67.5495 39.8007ZM63.4032 33.8416L62.204 30.1097C62.0772 29.7285 61.8395 28.8307 61.4888 27.4174H61.4462C61.3066 28.0252 61.0817 28.923 60.7726 30.1097L59.5947 33.8416H63.4032Z" fill="black"/>
<path d="M79.2924 34.5214C79.2924 36.2741 78.8223 37.6594 77.8822 38.6764C77.0401 39.5817 75.9945 40.0338 74.7463 40.0338C73.3991 40.0338 72.4312 39.5463 71.8418 38.5712H71.7992V43.9998H69.5267V32.888C69.5267 31.7862 69.4979 30.6553 69.4425 29.4955H71.441L71.5679 31.1289H71.6105C72.3683 29.8982 73.5184 29.2839 75.0618 29.2839C76.2684 29.2839 77.2757 29.764 78.0815 30.7251C78.8895 31.6874 79.2924 32.9524 79.2924 34.5214ZM76.9772 34.6052C76.9772 33.6021 76.7534 32.7752 76.3036 32.1244C75.8122 31.4457 75.1524 31.1064 74.3253 31.1064C73.7647 31.1064 73.2552 31.2954 72.8 31.668C72.3438 32.0439 72.0454 32.5347 71.9057 33.1425C71.8354 33.426 71.8002 33.658 71.8002 33.8406V35.5588C71.8002 36.3084 72.0283 36.941 72.4845 37.4575C72.9407 37.9741 73.5334 38.2318 74.2624 38.2318C75.1183 38.2318 75.7845 37.8989 76.261 37.2352C76.7385 36.5705 76.9772 35.6941 76.9772 34.6052Z" fill="black"/>
<path d="M91.057 34.5214C91.057 36.2741 90.5869 37.6594 89.6457 38.6764C88.8047 39.5817 87.7591 40.0338 86.5109 40.0338C85.1637 40.0338 84.1958 39.5463 83.6075 38.5712H83.5648V43.9998H81.2924V32.888C81.2924 31.7862 81.2636 30.6553 81.2081 29.4955H83.2067L83.3335 31.1289H83.3762C84.1329 29.8982 85.283 29.2839 86.8275 29.2839C88.033 29.2839 89.0403 29.764 89.8482 30.7251C90.653 31.6874 91.057 32.9524 91.057 34.5214ZM88.7419 34.6052C88.7419 33.6021 88.5169 32.7752 88.0671 32.1244C87.5758 31.4457 86.9181 31.1064 86.0899 31.1064C85.5282 31.1064 85.0198 31.2954 84.5636 31.668C84.1074 32.0439 83.81 32.5347 83.6703 33.1425C83.6011 33.426 83.5648 33.658 83.5648 33.8406V35.5588C83.5648 36.3084 83.7929 36.941 84.247 37.4575C84.7032 37.973 85.2958 38.2318 86.027 38.2318C86.8829 38.2318 87.5491 37.8989 88.0256 37.2352C88.5031 36.5705 88.7419 35.6941 88.7419 34.6052Z" fill="black"/>
<path d="M104.21 35.793C104.21 37.0087 103.791 37.9978 102.95 38.7613C102.026 39.5958 100.74 40.0125 99.0865 40.0125C97.5601 40.0125 96.3365 39.7161 95.4102 39.1222L95.9368 37.2138C96.9345 37.8217 98.0291 38.1267 99.2219 38.1267C100.078 38.1267 100.744 37.9312 101.223 37.5424C101.699 37.1537 101.937 36.6318 101.937 35.981C101.937 35.4011 101.741 34.9124 101.347 34.5162C100.956 34.1199 100.303 33.7515 99.3903 33.4111C96.9068 32.4779 95.6661 31.1108 95.6661 29.313C95.6661 28.1382 96.1009 27.1749 96.9718 26.4253C97.8394 25.6746 98.997 25.2998 100.444 25.2998C101.735 25.2998 102.808 25.5264 103.663 25.9785L103.095 27.845C102.296 27.4068 101.392 27.1878 100.38 27.1878C99.5811 27.1878 98.9565 27.3864 98.5088 27.7816C98.1304 28.1349 97.9407 28.5656 97.9407 29.0757C97.9407 29.6406 98.157 30.1077 98.5919 30.475C98.9703 30.8144 99.6578 31.1816 100.655 31.5779C101.876 32.073 102.772 32.6518 103.349 33.3155C103.924 33.977 104.21 34.805 104.21 35.793Z" fill="black"/>
<path d="M111.723 31.214H109.218V36.2173C109.218 37.4899 109.66 38.1257 110.544 38.1257C110.951 38.1257 111.287 38.0903 111.554 38.0194L111.617 39.758C111.169 39.9267 110.58 40.0115 109.849 40.0115C108.952 40.0115 108.251 39.7355 107.744 39.1846C107.24 38.6326 106.986 37.7069 106.986 36.4064V31.2118H105.494V29.4936H106.986V27.6067L109.218 26.928V29.4936H111.723V31.214Z" fill="black"/>
<path d="M123.025 34.5633C123.025 36.1473 122.575 37.4478 121.678 38.4648C120.737 39.5119 119.487 40.0338 117.93 40.0338C116.429 40.0338 115.234 39.5323 114.343 38.5293C113.452 37.5262 113.007 36.2601 113.007 34.7341C113.007 33.1371 113.465 31.8291 114.385 30.8121C115.303 29.794 116.541 29.285 118.099 29.285C119.599 29.285 120.807 29.7865 121.718 30.7906C122.59 31.7647 123.025 33.0222 123.025 34.5633ZM120.667 34.6374C120.667 33.687 120.466 32.8719 120.058 32.1921C119.581 31.3695 118.9 30.9592 118.018 30.9592C117.104 30.9592 116.41 31.3706 115.934 32.1921C115.525 32.873 115.324 33.701 115.324 34.6804C115.324 35.6308 115.525 36.4459 115.934 37.1246C116.425 37.9472 117.112 38.3575 117.997 38.3575C118.865 38.3575 119.546 37.9386 120.037 37.1031C120.456 36.4104 120.667 35.5868 120.667 34.6374Z" fill="black"/>
<path d="M130.412 31.5091C130.187 31.4672 129.947 31.4457 129.695 31.4457C128.896 31.4457 128.278 31.7496 127.843 32.3586C127.464 32.8955 127.275 33.5742 127.275 34.3936V39.8008H125.003L125.024 32.7409C125.024 31.5531 124.996 30.4717 124.939 29.4966H126.919L127.002 31.4683H127.065C127.304 30.7906 127.683 30.2451 128.201 29.8359C128.707 29.4676 129.254 29.2839 129.843 29.2839C130.053 29.2839 130.243 29.299 130.412 29.3258V31.5091Z" fill="black"/>
<path d="M140.574 34.1607C140.574 34.5709 140.548 34.9167 140.491 35.1991H133.674C133.7 36.2172 134.03 36.9958 134.663 37.5327C135.237 38.0128 135.98 38.2533 136.893 38.2533C137.902 38.2533 138.823 38.0912 139.651 37.7658L140.007 39.3552C139.039 39.7805 137.897 39.992 136.578 39.992C134.992 39.992 133.747 39.5216 132.841 38.582C131.937 37.6423 131.484 36.3804 131.484 34.7975C131.484 33.2435 131.905 31.9495 132.748 30.9174C133.631 29.8156 134.824 29.2647 136.324 29.2647C137.799 29.2647 138.915 29.8156 139.672 30.9174C140.273 31.7927 140.574 32.8752 140.574 34.1607ZM138.407 33.5668C138.422 32.8881 138.274 32.3017 137.966 31.8066C137.573 31.1698 136.968 30.8519 136.155 30.8519C135.412 30.8519 134.808 31.1623 134.346 31.7852C133.968 32.2802 133.743 32.8741 133.674 33.5657H138.407V33.5668Z" fill="black"/>
<path d="M62.9382 15.8987C62.9382 17.4435 62.4784 18.6064 61.5599 19.3873C60.7093 20.1079 59.5004 20.4688 57.9345 20.4688C57.1581 20.4688 56.4938 20.4347 55.9375 20.3665V11.9257C56.6631 11.8076 57.4447 11.7472 58.2889 11.7472C59.7805 11.7472 60.9047 12.074 61.6629 12.7277C62.5122 13.4666 62.9382 14.5232 62.9382 15.8987ZM61.4987 15.9367C61.4987 14.9353 61.2356 14.1675 60.7093 13.632C60.183 13.0978 59.4144 12.83 58.4022 12.83C57.9723 12.83 57.6063 12.8589 57.3027 12.9193V19.3361C57.4708 19.3624 57.7782 19.3742 58.225 19.3742C59.2698 19.3742 60.0762 19.0815 60.6442 18.4961C61.2121 17.9107 61.4987 17.0576 61.4987 15.9367Z" fill="black"/>
<path d="M70.5708 17.2482C70.5708 18.1997 70.3011 18.9794 69.7618 19.591C69.1965 20.2197 68.4474 20.5334 67.5121 20.5334C66.6106 20.5334 65.8928 20.2328 65.3574 19.629C64.8233 19.0266 64.5562 18.2667 64.5562 17.3505C64.5562 16.3924 64.8311 15.6062 65.3835 14.9959C65.9358 14.3856 66.6783 14.0798 67.6137 14.0798C68.5151 14.0798 69.2394 14.3803 69.7879 14.9828C70.309 15.5681 70.5708 16.3242 70.5708 17.2482ZM69.1548 17.2928C69.1548 16.7218 69.0323 16.2323 68.7887 15.8241C68.5021 15.3306 68.0944 15.0838 67.5642 15.0838C67.0157 15.0838 66.5989 15.3306 66.3123 15.8241C66.0674 16.2323 65.9462 16.7297 65.9462 17.3177C65.9462 17.8887 66.0687 18.3782 66.3123 18.7864C66.608 19.2799 67.0196 19.5267 67.5511 19.5267C68.0722 19.5267 68.4813 19.276 68.7757 18.7733C69.0284 18.3572 69.1548 17.8637 69.1548 17.2928Z" fill="black"/>
<path d="M80.8052 14.2057L78.8837 20.3929H77.6331L76.8371 17.7061C76.6352 17.0355 76.4711 16.3687 76.3434 15.7072H76.3187C76.2001 16.3871 76.036 17.0525 75.8249 17.7061L74.9795 20.3929H73.7146L71.9077 14.2057H73.3107L74.0051 17.147C74.1731 17.8427 74.3112 18.5055 74.4219 19.1328H74.4467C74.5483 18.6157 74.7163 17.9568 74.9534 17.1601L75.8249 14.207H76.9374L77.7725 17.0971C77.9744 17.802 78.1385 18.4805 78.2649 19.1342H78.3027C78.3952 18.4976 78.5346 17.819 78.7195 17.0971L79.4647 14.207H80.8052V14.2057Z" fill="black"/>
<path d="M87.8822 20.3929H86.517V16.8491C86.517 15.7571 86.1054 15.2111 85.2794 15.2111C84.8743 15.2111 84.5473 15.3607 84.2933 15.6613C84.0419 15.9619 83.9142 16.3162 83.9142 16.7218V20.3916H82.549V15.9737C82.549 15.4303 82.5321 14.841 82.4995 14.2031H83.6993L83.7631 15.1704H83.8009C83.9598 14.8699 84.1969 14.6218 84.5083 14.4236C84.8782 14.1926 85.2925 14.0758 85.7458 14.0758C86.319 14.0758 86.7958 14.2622 87.1749 14.6362C87.6464 15.0943 87.8822 15.7781 87.8822 16.6864V20.3929Z" fill="black"/>
<path d="M91.6468 20.3928H90.2829V11.3667H91.6468V20.3928Z" fill="black"/>
<path d="M99.6845 17.2482C99.6845 18.1997 99.4148 18.9794 98.8755 19.591C98.3101 20.2197 97.5598 20.5334 96.6257 20.5334C95.723 20.5334 95.0052 20.2328 94.471 19.629C93.9369 19.0266 93.6699 18.2667 93.6699 17.3505C93.6699 16.3924 93.9448 15.6062 94.4971 14.9959C95.0495 14.3856 95.792 14.0798 96.726 14.0798C97.6288 14.0798 98.3518 14.3803 98.9015 14.9828C99.4226 15.5681 99.6845 16.3242 99.6845 17.2482ZM98.2671 17.2928C98.2671 16.7218 98.1447 16.2323 97.9011 15.8241C97.6158 15.3306 97.2067 15.0838 96.6778 15.0838C96.1281 15.0838 95.7112 15.3306 95.4259 15.8241C95.181 16.2323 95.0599 16.7297 95.0599 17.3177C95.0599 17.8887 95.1823 18.3782 95.4259 18.7864C95.7216 19.2799 96.1333 19.5267 96.6648 19.5267C97.1859 19.5267 97.5936 19.276 97.888 18.7733C98.1421 18.3572 98.2671 17.8637 98.2671 17.2928Z" fill="black"/>
<path d="M106.292 20.3929H105.066L104.964 19.6802H104.927C104.507 20.2486 103.909 20.5334 103.133 20.5334C102.553 20.5334 102.084 20.3457 101.731 19.9729C101.411 19.6343 101.25 19.213 101.25 18.7129C101.25 17.9569 101.563 17.3807 102.192 16.9817C102.82 16.5827 103.703 16.3872 104.841 16.3963V16.2808C104.841 15.4658 104.416 15.0589 103.565 15.0589C102.96 15.0589 102.425 15.2125 101.964 15.517L101.687 14.614C102.257 14.2583 102.962 14.0798 103.793 14.0798C105.398 14.0798 106.203 14.9329 106.203 16.6392V18.9177C106.203 19.5359 106.233 20.028 106.292 20.3929ZM104.874 18.2667V17.3125C103.369 17.2862 102.616 17.7023 102.616 18.5594C102.616 18.8822 102.702 19.1237 102.877 19.2852C103.053 19.4466 103.277 19.5267 103.544 19.5267C103.844 19.5267 104.124 19.4309 104.379 19.2405C104.636 19.0489 104.794 18.8061 104.852 18.5082C104.867 18.4412 104.874 18.3599 104.874 18.2667Z" fill="black"/>
<path d="M114.049 20.3928H112.838L112.774 19.3992H112.736C112.349 20.1553 111.69 20.5333 110.764 20.5333C110.024 20.5333 109.408 20.2406 108.919 19.6552C108.431 19.0698 108.187 18.3099 108.187 17.3767C108.187 16.3752 108.452 15.5641 108.983 14.9446C109.498 14.3671 110.128 14.0783 110.878 14.0783C111.703 14.0783 112.28 14.3579 112.608 14.9183H112.634V11.3667H114.001V18.7259C114.001 19.3284 114.017 19.8836 114.049 20.3928ZM112.634 17.7836V16.7519C112.634 16.5734 112.621 16.429 112.597 16.3188C112.52 15.988 112.354 15.7098 112.103 15.4854C111.849 15.2609 111.543 15.148 111.19 15.148C110.68 15.148 110.282 15.3515 109.989 15.7597C109.698 16.1679 109.551 16.6889 109.551 17.3255C109.551 17.9371 109.69 18.4332 109.97 18.8152C110.266 19.2221 110.665 19.4255 111.164 19.4255C111.612 19.4255 111.97 19.2562 112.242 18.9162C112.506 18.6026 112.634 18.2246 112.634 17.7836Z" fill="black"/>
<path d="M125.726 17.2482C125.726 18.1997 125.456 18.9794 124.917 19.591C124.352 20.2197 123.604 20.5334 122.667 20.5334C121.767 20.5334 121.049 20.2328 120.512 19.629C119.978 19.0266 119.711 18.2667 119.711 17.3505C119.711 16.3924 119.986 15.6062 120.539 14.9959C121.091 14.3856 121.833 14.0798 122.77 14.0798C123.67 14.0798 124.396 14.3803 124.943 14.9828C125.464 15.5681 125.726 16.3242 125.726 17.2482ZM124.311 17.2928C124.311 16.7218 124.189 16.2323 123.945 15.8241C123.657 15.3306 123.251 15.0838 122.719 15.0838C122.172 15.0838 121.755 15.3306 121.467 15.8241C121.222 16.2323 121.101 16.7297 121.101 17.3177C121.101 17.8887 121.224 18.3782 121.467 18.7864C121.763 19.2799 122.175 19.5267 122.706 19.5267C123.227 19.5267 123.638 19.276 123.932 18.7733C124.183 18.3572 124.311 17.8637 124.311 17.2928Z" fill="black"/>
<path d="M133.066 20.3929H131.702V16.8491C131.702 15.7571 131.291 15.2111 130.463 15.2111C130.058 15.2111 129.731 15.3607 129.479 15.6613C129.226 15.9619 129.099 16.3162 129.099 16.7218V20.3916H127.733V15.9737C127.733 15.4303 127.717 14.841 127.685 14.2031H128.883L128.947 15.1704H128.985C129.145 14.8699 129.382 14.6218 129.692 14.4236C130.063 14.1926 130.476 14.0758 130.931 14.0758C131.503 14.0758 131.98 14.2622 132.359 14.6362C132.832 15.0943 133.066 15.7781 133.066 16.6864V20.3929Z" fill="black"/>
<path d="M142.254 15.2361H140.75V18.2417C140.75 19.0056 141.018 19.3875 141.546 19.3875C141.791 19.3875 141.995 19.3665 142.155 19.3232L142.19 20.3667C141.92 20.469 141.566 20.5202 141.13 20.5202C140.59 20.5202 140.171 20.3548 139.867 20.0241C139.562 19.6933 139.411 19.1368 139.411 18.3559V15.2361H138.514V14.2057H139.411V13.0717L140.749 12.6649V14.2044H142.252V15.2361H142.254Z" fill="black"/>
<path d="M149.482 20.3928H148.115V16.8753C148.115 15.7662 147.703 15.211 146.879 15.211C146.246 15.211 145.813 15.5326 145.576 16.1757C145.536 16.3109 145.512 16.4763 145.512 16.6705V20.3915H144.148V11.3667H145.512V15.0955H145.538C145.968 14.417 146.584 14.0783 147.383 14.0783C147.948 14.0783 148.416 14.2647 148.787 14.6388C149.25 15.1047 149.482 15.7977 149.482 16.7139V20.3928Z" fill="black"/>
<path d="M156.938 17.0066C156.938 17.2533 156.919 17.4607 156.887 17.63H152.792C152.811 18.2416 153.006 18.7076 153.385 19.0304C153.732 19.3192 154.178 19.4636 154.726 19.4636C155.331 19.4636 155.884 19.3664 156.381 19.1709L156.595 20.1264C156.013 20.381 155.327 20.5083 154.534 20.5083C153.583 20.5083 152.834 20.2261 152.292 19.6618C151.748 19.0974 151.478 18.3401 151.478 17.3898C151.478 16.4566 151.729 15.6796 152.236 15.0601C152.765 14.3986 153.48 14.0678 154.383 14.0678C155.266 14.0678 155.937 14.3986 156.39 15.0601C156.756 15.5851 156.938 16.2348 156.938 17.0066ZM155.635 16.6509C155.645 16.2427 155.555 15.8909 155.37 15.5943C155.133 15.2124 154.772 15.0207 154.284 15.0207C153.838 15.0207 153.475 15.2071 153.197 15.5812C152.971 15.8791 152.837 16.2348 152.792 16.6509H155.635Z" fill="black"/>
</g>
<defs>
<clipPath id="clip0_189_1126">
<rect width="185" height="55" fill="white"/>
</clipPath>
</defs>
</svg>
