<svg width="178" height="53" viewBox="0 0 178 53" fill="none" xmlns="http://www.w3.org/2000/svg">
<g clip-path="url(#clip0_189_1125)">
<path d="M0 7.06667C0 3.16385 3.14993 0 7.03557 0H170.964C174.85 0 178 3.16386 178 7.06667V45.9333C178 49.8361 174.85 53 170.964 53H7.03557C3.14993 53 0 49.8361 0 45.9333V7.06667Z" fill="white"/>
<path fill-rule="evenodd" clip-rule="evenodd" d="M0 45.9333V7.06667C0 3.16385 3.14993 0 7.03557 0H170.964C174.85 0 178 3.16385 178 7.06667V45.9333C178 49.8361 174.85 53 170.964 53H7.03557C3.14993 53 0 49.8361 0 45.9333ZM1.05534 45.9333V7.06667C1.05534 3.74928 3.73278 1.06 7.03557 1.06H170.964C174.267 1.06 176.945 3.74928 176.945 7.06667V45.9333C176.945 49.2507 174.267 51.94 170.964 51.94H7.03557C3.73278 51.94 1.05534 49.2507 1.05534 45.9333Z" fill="black" fill-opacity="0.1"/>
<path d="M90.1888 28.7927C87.0211 28.7927 84.404 31.2774 84.404 34.6842C84.404 38.0632 86.9937 40.5757 90.1891 40.5757C93.3842 40.5757 95.9736 38.091 95.9736 34.6842C95.9736 31.2774 93.3842 28.7927 90.1888 28.7927ZM90.1888 38.2314C88.453 38.2314 86.9388 36.751 86.9388 34.6579C86.9388 32.5358 88.4542 31.0845 90.1888 31.0845C91.9234 31.0845 93.4388 32.5358 93.4388 34.6579C93.4388 36.751 91.9234 38.2314 90.1888 38.2314ZM77.6 28.7927C74.4046 28.7927 71.8148 31.2774 71.8148 34.6842C71.8148 38.0632 74.4046 40.5757 77.6 40.5757C80.7951 40.5757 83.3848 38.091 83.3848 34.6842C83.3848 31.2774 80.7951 28.7927 77.5997 28.7927H77.6ZM77.6 38.2314C75.8638 38.2314 74.35 36.751 74.35 34.6579C74.35 32.5358 75.8653 31.0845 77.6 31.0845C79.3358 31.0845 80.8499 32.5358 80.8499 34.6579C80.8499 36.751 79.3617 38.2314 77.6 38.2314ZM62.6419 30.6079V33.0926H68.4813C68.3154 34.4886 67.8485 35.5216 67.1593 36.2202C66.3057 37.0855 64.9834 38.0354 62.6419 38.0354C59.0327 38.0354 56.2514 35.0759 56.2514 31.4178C56.2514 27.7596 59.0342 24.7442 62.6419 24.7442C64.597 24.7442 66.0029 25.5262 67.0495 26.5318L68.7841 24.772C67.3237 23.3485 65.3686 22.2598 62.6419 22.2598C57.7104 22.2598 53.5781 26.3636 53.5781 31.3621C53.5781 36.3609 57.7104 40.4648 62.6419 40.4648C65.3137 40.4648 67.2977 39.5717 68.8951 37.8954C70.5203 36.2481 71.0161 33.93 71.0161 32.0595C71.0161 31.4734 70.9615 30.9426 70.878 30.4957L62.6419 30.6079V30.6079ZM123.851 32.5343C123.382 31.2218 121.896 28.7927 118.92 28.7927C115.944 28.7927 113.492 31.1664 113.492 34.6842C113.492 37.9785 115.944 40.5757 119.195 40.5757C121.84 40.5757 123.355 38.9284 123.988 37.9785L122.033 36.6385C121.371 37.6162 120.49 38.2577 119.195 38.2577C117.9 38.2577 116.992 37.6716 116.412 36.4703L124.098 33.2039L123.851 32.5343V32.5343ZM116.027 34.5176C115.973 32.2552 117.763 31.083 119.029 31.083C120.049 31.083 120.875 31.5856 121.178 32.3399L116.027 34.5176V34.5176ZM109.774 40.1853H112.309V22.929H109.774V40.1853V40.1853ZM105.643 30.1052H105.561C104.982 29.4066 103.908 28.7927 102.53 28.7927C99.6374 28.7927 97.0205 31.3899 97.0205 34.6842C97.0205 37.9785 99.6649 40.5482 102.53 40.5482C103.907 40.5482 104.981 39.934 105.561 39.2076H105.643V40.0453C105.643 42.3077 104.458 43.5074 102.557 43.5074C101.015 43.5074 100.05 42.3631 99.6649 41.4132L97.4618 42.3631C98.0946 43.9269 99.7759 45.8533 102.557 45.8533C105.532 45.8533 108.039 44.066 108.039 39.7383V29.1553H105.643V30.1052V30.1052ZM102.75 38.2314C101.015 38.2314 99.5554 36.751 99.5554 34.6858C99.5554 32.6205 101.016 31.112 102.75 31.112C104.459 31.112 105.836 32.6205 105.836 34.6858C105.835 36.7232 104.458 38.2314 102.75 38.2314ZM135.669 22.9293H129.608V40.1853H132.143V33.6508H135.669C138.479 33.6508 141.233 31.5841 141.233 28.2901C141.233 24.9958 138.479 22.929 135.669 22.929V22.9293ZM135.751 31.2511H132.169V25.3303H135.751C137.624 25.3303 138.726 26.9219 138.726 28.2898C138.699 29.6301 137.625 31.2511 135.751 31.2511ZM151.343 28.7649C149.525 28.7649 147.624 29.5748 146.853 31.4178L149.085 32.3677C149.581 31.4178 150.462 31.1108 151.4 31.1108C152.722 31.1108 154.044 31.9204 154.071 33.3439V33.512C153.603 33.2329 152.639 32.8413 151.427 32.8413C149.003 32.8413 146.55 34.2094 146.55 36.7232C146.55 39.041 148.534 40.5204 150.738 40.5204C152.446 40.5204 153.382 39.7383 153.96 38.8175H154.043V40.1578H156.494V33.5396C156.466 30.4966 154.236 28.7646 151.343 28.7646V28.7649ZM151.041 38.2035C150.214 38.2035 149.057 37.7841 149.057 36.7522C149.057 35.4119 150.488 34.9093 151.728 34.9093C152.83 34.9093 153.353 35.1606 154.043 35.4953C153.85 37.087 152.5 38.2035 151.041 38.2035V38.2035ZM165.337 29.1568L162.444 36.6119H162.362L159.36 29.1565H156.634L161.151 39.5992L158.588 45.4354H161.233L168.146 29.1565H165.337L165.337 29.1568ZM142.639 40.1853H145.173V22.929H142.639V40.1853Z" fill="black"/>
<path d="M58.5612 17.494C57.7957 17.494 57.0903 17.3093 56.4449 16.94C55.7995 16.5706 55.2854 16.0656 54.9027 15.4249C54.5275 14.7766 54.3398 14.0568 54.3398 13.2653C54.3398 12.4738 54.5275 11.7578 54.9027 11.117C55.2854 10.4688 55.7995 9.96 56.4449 9.59065C57.0903 9.2213 57.7957 9.03662 58.5612 9.03662C59.1691 9.03662 59.7357 9.14592 60.261 9.36451C60.7863 9.58311 61.2253 9.88839 61.578 10.2804L60.7 11.1623C60.4373 10.8683 60.1221 10.6422 59.7544 10.4839C59.3942 10.3256 58.9927 10.2464 58.5499 10.2464C58.0321 10.2464 57.5481 10.3708 57.0978 10.6196C56.6475 10.8683 56.2873 11.2226 56.0171 11.6824C55.747 12.1422 55.6119 12.6698 55.6119 13.2653C55.6119 13.8608 55.747 14.3884 56.0171 14.8482C56.2873 15.3081 56.6475 15.6623 57.0978 15.9111C57.5481 16.1598 58.0359 16.2842 58.5612 16.2842C59.0415 16.2842 59.443 16.2126 59.7657 16.0694C60.0884 15.9262 60.3773 15.7339 60.6325 15.4927C60.7976 15.3269 60.9364 15.1196 61.049 14.8709C61.169 14.6221 61.2478 14.3508 61.2854 14.0568H58.5499V12.9261H62.4786C62.5161 13.1372 62.5349 13.3558 62.5349 13.5819C62.5349 14.0945 62.4561 14.5882 62.2985 15.0631C62.1409 15.5304 61.8895 15.9375 61.5443 16.2842C60.7863 17.0907 59.7919 17.494 58.5612 17.494Z" fill="black"/>
<path d="M63.7089 9.21753H68.6056V10.4273H64.9696V12.6661H68.2454V13.8646H64.9696V16.1033H68.6056V17.3131H63.7089V9.21753Z" fill="black"/>
<path d="M71.5236 10.4273H69.2722V9.21753H75.0358V10.4273H72.7844V17.3131H71.5236V10.4273Z" fill="black"/>
<path d="M78.3319 9.21753H79.5926V17.3131H78.3319V9.21753Z" fill="black"/>
<path d="M82.7827 10.4273H80.5313V9.21753H86.2949V10.4273H84.0435V17.3131H82.7827V10.4273Z" fill="black"/>
<path d="M93.1422 17.494C92.3617 17.494 91.6525 17.3093 91.0146 16.94C90.3767 16.5631 89.8739 16.0505 89.5062 15.4023C89.146 14.754 88.9659 14.0417 88.9659 13.2653C88.9659 12.4889 89.146 11.7804 89.5062 11.1397C89.8739 10.4914 90.3767 9.97884 91.0146 9.60195C91.6525 9.22507 92.3617 9.03662 93.1422 9.03662C93.9227 9.03662 94.6281 9.22507 95.2585 9.60195C95.8964 9.97884 96.3992 10.4914 96.7669 11.1397C97.1346 11.7804 97.3185 12.4889 97.3185 13.2653C97.3185 14.0417 97.1346 14.754 96.7669 15.4023C96.4067 16.0505 95.9076 16.5631 95.2697 16.94C94.6318 17.3093 93.9227 17.494 93.1422 17.494ZM93.1422 16.2842C93.675 16.2842 94.1628 16.1561 94.6056 15.8998C95.0483 15.6435 95.3973 15.2892 95.6525 14.8369C95.9076 14.3771 96.0352 13.8533 96.0352 13.2653C96.0352 12.6774 95.9076 12.1573 95.6525 11.705C95.3973 11.2452 95.0483 10.8871 94.6056 10.6309C94.1628 10.3746 93.675 10.2464 93.1422 10.2464C92.6093 10.2464 92.1215 10.3746 91.6788 10.6309C91.236 10.8871 90.8833 11.2452 90.6206 11.705C90.3655 12.1573 90.2379 12.6774 90.2379 13.2653C90.2379 13.8533 90.3655 14.3771 90.6206 14.8369C90.8833 15.2892 91.236 15.6435 91.6788 15.8998C92.1215 16.1561 92.6093 16.2842 93.1422 16.2842Z" fill="black"/>
<path d="M98.4778 9.21753H99.9749L103.577 15.1083H103.645L103.577 13.548V9.21753H104.827V17.3131H103.51L99.7273 11.117H99.6598L99.7273 12.6774V17.3131H98.4778V9.21753Z" fill="black"/>
<path d="M37.5288 32.1825C41.7433 29.8365 44.9387 28.0492 45.2141 27.9104C46.0949 27.4353 47.0049 26.1784 45.2141 25.2022C44.6359 24.8953 41.5229 23.1633 37.5288 20.9302L31.9922 26.5979L37.5285 32.1825H37.5288Z" fill="#FFD900"/>
<path d="M31.9931 26.5977L14.3633 44.6082C14.7768 44.6639 15.244 44.5526 15.7951 44.2456C16.9515 43.6042 29.2101 36.8181 37.53 32.1834L31.9931 26.5977V26.5977Z" fill="#F43249"/>
<path d="M31.9929 26.5977L37.5292 20.9575C37.5292 20.9575 17.0349 9.62058 15.7946 8.95163C15.328 8.67035 14.8044 8.58719 14.3359 8.67035L31.9929 26.5974V26.5977Z" fill="#00EE76"/>
<path d="M31.9952 26.598L14.3379 8.6709C13.6213 8.83875 13.0156 9.48049 13.0156 10.7924V42.4861C13.0156 43.6877 13.4843 44.5529 14.3651 44.6361L31.9949 26.5977L31.9952 26.598Z" fill="#00D3FF"/>
</g>
<defs>
<clipPath id="clip0_189_1125">
<rect width="178" height="53" fill="white"/>
</clipPath>
</defs>
</svg>
