<svg width="673" height="762" viewBox="0 0 673 762" fill="none" xmlns="http://www.w3.org/2000/svg">
<path d="M132.611 574.569C129.139 564.844 125.771 554.93 120.001 546.411C114.23 537.894 105.62 530.757 95.2288 529.06C85.0186 527.304 72.1864 529.53 72.5689 530.193C90.47 556.027 109.706 573.424 133.758 576.557L132.611 574.569Z" fill="#54C0C0"/>
<path d="M122.406 692.375C132.884 669.008 137.848 655.478 142.811 643.179C146.671 633.339 147.774 625.549 148.878 618.581C149.98 607.102 145.569 576.353 117.443 564.874" stroke="#242424" stroke-miterlimit="1.8889" stroke-linecap="round" stroke-linejoin="round"/>
<path d="M134.031 636.402C104.564 644.391 92.2969 617.581 92.2969 617.581C92.2969 617.581 115.966 612.337 129.772 622.659C135.571 626.757 134.031 636.402 134.031 636.402Z" fill="#54C2C2"/>
<path d="M158.863 614.493C162.649 581.162 210.025 598.737 210.025 598.737C210.025 598.737 190.512 618.897 170.278 617.696C161.387 617.099 158.322 615.929 158.322 615.929L158.863 614.493Z" fill="#54C2C2"/>
<path d="M124.703 628.9C124.703 628.9 138.777 634.973 137.561 655.571" stroke="#242424" stroke-miterlimit="8.8379" stroke-linecap="round" stroke-linejoin="round"/>
<path d="M167.275 606.84C167.275 606.84 147.458 624.068 144.771 636.303" stroke="#242424" stroke-miterlimit="7.6695" stroke-linecap="round" stroke-linejoin="round"/>
<path d="M141.985 580.153C138.883 568.088 135.424 555.955 134.382 543.448C133.339 530.94 134.452 515.489 139.67 504.742C142.88 509.834 148.675 518.5 149.912 524.891C152.468 540.766 150.993 557.267 144.691 572.28C142.98 576.147 141.09 580.539 142.78 584.5L141.985 580.153Z" fill="#54C0C0"/>
<path d="M141.915 546.473C140.739 551.004 140.639 555.739 140.895 560.543C140.959 570.347 141.474 579.956 142.703 589.703" stroke="#232323" stroke-miterlimit="8.3324" stroke-linecap="round" stroke-linejoin="round"/>
<path d="M183.934 682.99H60.2402L69.8473 708.214H77.0527L87.8608 763.467H156.312L167.121 708.214H174.326L183.934 682.99Z" fill="#2B47C2"/>
<path d="M77.0527 708.214H167.12L163.361 727.432L77.0527 708.214Z" fill="#232323"/>
<path fill-rule="evenodd" clip-rule="evenodd" d="M139.866 407.691C138.591 440.862 123.93 490.145 123.93 490.145C123.93 490.145 111.182 457.922 115.007 430.438C119.469 402.479 141.141 374.52 139.866 407.691Z" fill="#242424"/>
<path d="M51.6327 212.275C45.2584 220.331 38.2457 224.122 36.3333 225.544C36.3333 225.544 55.457 262.98 65.6559 281.462C75.8548 299.469 103.264 331.693 121.112 353.965C130.674 365.812 136.41 376.711 136.41 377.185C132.585 383.345 139.597 475.752 125.574 473.856C110.913 471.961 91.1526 442.107 80.9536 426.469C66.2927 404.196 5.73627 257.768 2.54911 246.395C0.636811 241.183 0 235.496 0 229.81C0.637433 223.175 3.18654 216.54 5.73627 209.906C16.5726 183.842 26.7715 158.254 37.6079 132.19C40.7951 124.608 35.0582 116.553 40.7951 111.34C42.0699 110.393 43.3448 109.918 43.9823 110.392C44.6196 110.865 44.6203 111.339 44.6203 111.813C45.8952 114.657 46.5329 118.448 46.5329 121.765C47.1703 131.243 47.8081 135.981 45.2584 143.563C46.5332 142.615 47.1707 141.194 48.4455 139.774C49.7204 138.352 51.6323 137.877 52.9072 138.351C54.8195 139.299 54.8192 141.668 54.1817 144.037C52.9069 150.198 50.3572 156.359 47.8075 162.045C49.0823 160.15 50.3577 159.201 51.6327 158.254C52.9076 157.306 54.8195 157.779 56.0943 158.254C58.0067 159.201 57.3684 162.044 56.7309 163.939C55.456 167.257 53.5449 170.101 51.6327 173.892C50.3577 177.683 49.7204 181.948 48.4455 185.739" fill="#F2BAC7"/>
<path d="M48.7293 187.364C48.7293 186.891 48.73 186.416 49.3675 185.942C53.8295 180.729 66.5781 165.566 71.6775 164.618C72.315 164.618 72.9528 164.144 73.5901 164.618C75.5025 165.091 76.7773 167.462 76.7773 169.831C77.4148 177.887 71.0404 181.204 64.0287 184.522C64.0287 177.888 58.9292 184.995 57.6543 178.362C57.6543 178.835 60.8415 171.727 60.8415 172.2L64.0287 183.1C62.7539 188.313 61.4786 196.842 58.9289 201.58C57.0166 205.371 51.2804 213.429 46.8184 216.271" fill="#F2BAC7"/>
<path d="M72.6218 216.03C75.1717 215.557 77.0829 212.239 76.4455 209.397L47.761 95.6655C47.1237 92.8221 43.9365 90.9264 41.3868 91.8742C38.8369 92.822 36.9256 95.6659 37.5631 98.5092L66.2476 212.239C66.8849 214.61 69.4346 216.505 72.6218 216.03Z" fill="#242424"/>
<path d="M232.815 270.742C228.353 274.533 214.966 301.545 216.242 327.607C216.242 337.085 225.166 341.35 226.44 354.145C230.265 394.425 233.452 412.906 238.551 471.193C302.932 482.566 293.371 491.569 357.752 501.52C369.863 468.822 367.313 388.737 381.337 346.563C389.624 321.921 461.653 348.458 466.752 326.66C468.028 320.499 471.215 270.742 464.203 253.209C457.83 238.044 452.729 226.198 441.255 214.351C431.057 203.926 418.307 196.816 404.284 192.078C384.523 184.496 307.394 184.022 307.394 184.022C250.663 183.549 202.218 193.026 173.533 242.784C155.686 273.111 135.288 322.394 121.902 355.566C121.902 355.566 136.563 411.484 125.09 490.147C164.611 490.622 209.23 369.308 232.176 314.339" fill="#54C1C1"/>
<path d="M407.917 445.53L388.634 472.954C388.634 472.954 354.26 515.337 346.714 502.872C319.047 451.762 278.804 273.505 282.996 273.505C361.806 267.272 347.553 206.814 375.221 187.492C375.221 187.492 429.716 186.247 458.221 242.964C458.221 242.964 486.728 352.661 496.789 372.606C521.94 421.845 508.527 471.084 478.344 478.564C418.818 492.898 407.917 445.53 407.917 445.53Z" fill="#54C1C1"/>
<path d="M315.862 285.453L315.823 283.814L319.602 283.724C320.122 283.712 320.579 283.594 320.974 283.372C321.382 283.148 321.695 282.841 321.912 282.449C322.143 282.057 322.252 281.594 322.239 281.061C322.227 280.528 322.096 280.071 321.847 279.69C321.611 279.309 321.284 279.016 320.865 278.813C320.46 278.609 319.998 278.513 319.478 278.526L315.699 278.615L315.66 276.976L319.559 276.883C320.412 276.863 321.176 277.018 321.851 277.349C322.539 277.679 323.084 278.16 323.486 278.791C323.9 279.408 324.118 280.149 324.139 281.016C324.159 281.869 323.977 282.62 323.592 283.269C323.22 283.905 322.699 284.411 322.028 284.787C321.369 285.149 320.614 285.341 319.761 285.361L315.862 285.453ZM314.73 290.882L314.401 277.006L316.28 276.961L316.61 290.837L314.73 290.882ZM326.536 290.601L326.31 281.104L328.11 281.061L328.335 290.559L326.536 290.601ZM328.207 285.14L327.52 284.856C327.491 283.644 327.748 282.67 328.291 281.937C328.833 281.204 329.631 280.825 330.684 280.8C331.164 280.789 331.599 280.865 331.99 281.029C332.38 281.18 332.747 281.445 333.089 281.823L331.939 283.071C331.734 282.863 331.51 282.714 331.268 282.627C331.026 282.539 330.745 282.499 330.425 282.507C329.758 282.523 329.217 282.749 328.8 283.186C328.384 283.622 328.186 284.274 328.207 285.14ZM338.592 290.515C337.659 290.537 336.814 290.337 336.057 289.915C335.3 289.493 334.693 288.914 334.235 288.178C333.777 287.429 333.537 286.587 333.515 285.654C333.493 284.735 333.694 283.903 334.116 283.159C334.538 282.402 335.117 281.795 335.853 281.338C336.589 280.88 337.424 280.64 338.357 280.618C339.277 280.596 340.115 280.796 340.872 281.218C341.642 281.627 342.256 282.199 342.713 282.935C343.171 283.671 343.411 284.499 343.432 285.419C343.455 286.352 343.255 287.204 342.833 287.974C342.411 288.731 341.825 289.338 341.076 289.796C340.34 290.254 339.512 290.493 338.592 290.515ZM338.551 288.776C339.151 288.761 339.68 288.609 340.14 288.318C340.6 288.027 340.958 287.638 341.213 287.152C341.468 286.652 341.588 286.089 341.573 285.463C341.558 284.85 341.405 284.307 341.114 283.833C340.836 283.36 340.461 282.995 339.988 282.74C339.528 282.471 338.998 282.343 338.398 282.358C337.798 282.372 337.269 282.524 336.809 282.815C336.348 283.093 335.991 283.475 335.736 283.961C335.48 284.447 335.36 284.997 335.375 285.61C335.39 286.237 335.536 286.793 335.814 287.28C336.092 287.754 336.468 288.125 336.941 288.394C337.414 288.663 337.951 288.79 338.551 288.776ZM346.64 290.124L346.374 278.907C346.359 278.281 346.479 277.724 346.734 277.238C347.002 276.738 347.38 276.343 347.866 276.051C348.353 275.746 348.916 275.586 349.555 275.571C350.049 275.559 350.484 275.635 350.861 275.8C351.238 275.951 351.59 276.169 351.917 276.455L350.765 277.663C350.589 277.52 350.406 277.418 350.218 277.355C350.029 277.28 349.822 277.245 349.595 277.25C349.129 277.261 348.772 277.416 348.526 277.716C348.279 278.002 348.162 278.385 348.173 278.864L348.44 290.081L346.64 290.124ZM344.114 282.322L344.075 280.682L353.093 280.468L353.132 282.108L344.114 282.322ZM352.279 289.99L352.053 280.493L353.872 280.45L354.098 289.947L352.279 289.99ZM352.929 279.472C352.609 279.479 352.34 279.379 352.122 279.171C351.903 278.949 351.79 278.672 351.782 278.339C351.774 278.019 351.874 277.75 352.083 277.531C352.291 277.3 352.554 277.18 352.874 277.172C353.221 277.164 353.497 277.271 353.702 277.493C353.921 277.701 354.034 277.965 354.041 278.285C354.049 278.618 353.949 278.901 353.741 279.132C353.546 279.35 353.276 279.463 352.929 279.472ZM356.055 288.76L361.046 283.24C361.553 282.694 361.948 282.225 362.233 281.831C362.516 281.425 362.714 281.053 362.826 280.717C362.952 280.381 363.01 280.032 363.001 279.673C362.985 278.966 362.745 278.418 362.282 278.029C361.82 277.64 361.228 277.454 360.508 277.471C359.802 277.488 359.186 277.676 358.661 278.035C358.136 278.381 357.675 278.912 357.279 279.628L355.933 278.56C356.458 277.641 357.102 276.945 357.864 276.474C358.626 275.989 359.514 275.734 360.527 275.71C361.38 275.69 362.124 275.839 362.758 276.157C363.406 276.475 363.91 276.93 364.271 277.522C364.632 278.113 364.821 278.809 364.84 279.609C364.854 280.182 364.793 280.697 364.657 281.154C364.535 281.61 364.299 282.082 363.951 282.571C363.615 283.046 363.142 283.617 362.531 284.285L358.493 288.642L356.055 288.76ZM356.082 289.9L356.055 288.76L357.642 288.182L365.36 287.999L365.4 289.678L356.082 289.9ZM366.786 284.864L371.629 275.647L373.748 275.596L368.806 284.816L366.786 284.864ZM366.814 286.024L366.786 284.864L367.574 284.325L377.411 284.092L377.451 285.771L366.814 286.024ZM373.678 289.482L373.46 280.304L375.319 280.26L375.537 289.438L373.678 289.482Z" fill="#232323"/>
<path d="M401.133 417.718C401.133 417.718 400.486 490.485 472.449 476.32C492.062 472.403 514.428 444.095 503.783 399.401C492.701 352.869 424.738 365.86 428.137 383.726C431.245 400.37 401.133 417.718 401.133 417.718Z" fill="#242424"/>
<path d="M487.993 389.361C507.766 419.998 501.229 446.557 486.046 457.442C453.729 480.403 422.148 466.647 390.143 442.674C366.36 424.155 281.575 348.6 281.575 348.6C269.029 335.307 241.879 319.651 242.802 294.908C242.911 285.17 238.047 267.992 235.738 262.956C231.415 255.118 233.24 245.946 237.084 248.432C241.462 251.401 257.571 282.666 257.571 282.666C260.577 273.575 258.321 263.669 253.466 255.352C248.61 247.034 241.038 241.182 233.583 234.452C233.051 233.971 231.453 232.53 232.22 231.255C232.871 230.857 232.871 230.857 233.521 230.461C236.653 229.354 240.913 233.2 243.693 234.726C247.538 237.213 256.59 245.384 260.2 249.627C258.477 240.202 241.382 229.689 235.877 221.768C234.812 220.806 235.814 217.776 237.114 216.981C237.764 216.585 237.764 216.585 238.946 216.669C241.31 216.837 242.91 218.28 245.157 219.324C249.534 222.292 264.327 236.631 268.704 239.599C267.694 233.767 248.406 217.339 246.331 210.547C246.558 199.933 272.596 228.356 279.816 236.841C279.22 232.37 271.467 223.403 268.39 219.642C264.364 214.041 268.978 215.254 270.042 216.215C284.772 226.561 293.003 240.877 297.866 258.056C303.912 275.317 308.558 311.971 308.558 311.971C311.4 317.488 315.01 321.731 320.452 325.659C363.586 364.597 374.87 356.094 427.861 379.34C425.911 380.531 464.076 353.999 487.993 389.361Z" fill="#F2BAC7"/>
<path d="M308.285 311.795C311.129 317.312 313.852 321.63 319.295 325.56C362.435 364.5 395.68 363.416 449.355 388.195" stroke="#242424" stroke-miterlimit="3.829" stroke-linecap="round" stroke-linejoin="round"/>
<path d="M287.146 202.75C309.285 204.122 338.064 192.875 359.834 196.44C381.604 200.007 399.317 205.768 425.514 193.149C424.037 188.486 413.337 171.753 411.861 167.09C414.074 170.931 424.406 187.663 428.834 186.566C433.263 185.469 451.341 173.947 454.293 164.621C415.551 167.09 390.46 107.291 388.616 98.2386C387.139 91.6552 387.507 84.7978 387.138 77.9401C386.769 64.2247 385.663 43.3772 377.914 32.4049C370.164 21.1583 356.513 13.4775 342.86 15.1233C342.86 15.1233 341.754 11.5573 339.91 8.26564C335.481 1.40795 309.283 -4.90112 286.037 5.52256C276.813 9.63718 252.83 20.0608 246.557 52.1548C245.081 60.1097 248.032 67.5164 250.984 75.197C251.353 74.6484 248.402 125.121 226.263 141.304C218.884 146.516 202.646 152.552 202.646 152.552C224.416 216.739 258.364 199.733 273.862 201.927" fill="#232323"/>
<path d="M262.193 68.0105C258.872 57.3126 262.932 45.7913 268.835 36.1907C274.371 27.1384 282.118 18.6348 292.081 14.7945C299.091 12.0514 307.21 11.777 314.59 13.9715L265.146 78.4337L262.193 68.0105Z" fill="#232323"/>
<path d="M302.603 153.155C302.234 152.881 312.935 151.51 316.624 149.864C316.624 150.412 316.256 150.687 315.518 150.961C304.08 155.075 288.581 155.075 277.511 150.412C266.441 145.749 257.217 139.165 252.421 127.919C248.362 118.593 248.731 109.266 250.946 99.3913C253.529 89.5163 258.325 80.1896 263.491 71.686C264.228 70.3144 265.336 68.9434 265.705 67.2975C266.443 65.926 266.443 64.2796 266.811 62.6337C269.025 51.1128 274.191 42.6096 284.892 34.1061C284.892 34.1061 300.02 22.5849 314.41 31.9115C323.634 37.9462 325.848 49.4673 329.169 60.1652C331.751 68.9431 328.432 68.3946 329.169 77.4467C329.538 80.7384 336.18 89.7902 336.918 91.4361C336.918 91.4361 340.976 80.4639 351.308 80.7383C355.736 81.0126 360.533 87.8706 359.796 93.3567C359.427 95.8254 359.058 98.2939 357.581 100.488C353.891 105.975 347.988 109.541 341.347 110.364C343.93 140.537 347.62 170.437 352.416 200.336L352.783 199.514C349.094 206.097 343.189 211.035 336.179 214.052C331.751 215.972 327.325 216.794 322.527 217.344C308.137 218.715 288.58 215.697 282.677 204.451C282.308 203.629 281.94 202.256 281.94 201.433C281.94 200.611 282.308 199.513 282.677 198.691C286.367 183.604 290.426 167.968 294.115 152.881L302.603 153.155Z" fill="#F2BBC8"/>
<path d="M312.791 83.9543L326.43 76.5798" stroke="#232323" stroke-width="1.17136" stroke-miterlimit="1.0617" stroke-linecap="round" stroke-linejoin="round"/>
<path d="M284.85 76.7054C282.268 84.1118 276.364 93.4377 270.461 98.1009C275.995 101.118 281.529 102.49 283.006 102.765" stroke="#232323" stroke-width="1.3" stroke-miterlimit="8.4257" stroke-linecap="round" stroke-linejoin="round"/>
<path d="M310.716 24.148C301.491 42.8009 316.988 88.3359 337.651 91.9017C341.341 81.4782 356.838 68.5856 360.528 58.1618C362.004 53.4987 363.85 48.8351 363.112 44.172C362.373 40.606 360.528 37.3143 358.315 34.5712C355.731 31.2795 352.41 28.2622 348.721 25.7934C343.923 22.5018 338.759 20.3072 333.593 18.1127C328.427 15.9183 323.261 13.9982 318.096 12.0781C314.406 10.7066 310.715 9.6092 306.656 9.88349C302.597 10.4321 298.909 12.9009 298.17 16.7412C298.17 16.4669 298.171 15.9186 298.54 15.6442" fill="#232323"/>
<path d="M272.084 59.2596C273.93 57.0651 277.251 56.517 280.203 57.0656C283.155 57.6142 285.738 59.2601 287.951 61.1802" stroke="#232323" stroke-width="1.3" stroke-miterlimit="8.4257" stroke-linecap="round" stroke-linejoin="round"/>
<path d="M301.713 62.8271C304.664 62.0041 307.985 62.278 310.937 63.6494C313.889 65.0211 316.103 67.4902 317.21 70.2332" stroke="#232323" stroke-width="1.3" stroke-miterlimit="8.4257" stroke-linecap="round" stroke-linejoin="round"/>
<path d="M283.646 119.895C289.172 120.63 297.598 117.011 299.171 113.921" stroke="#232323" stroke-width="1.3" stroke-miterlimit="8.4257" stroke-linecap="round" stroke-linejoin="round"/>
<path d="M236.63 468.664C236.63 468.664 228.512 476.345 217.811 490.335C199.362 513.376 181.283 546.018 171.321 611.853C169.107 626.117 168 642.574 167.262 659.307L163.516 763.467C204.346 763.467 246.376 763.467 276.399 763.467C286.303 709.511 298.904 648.715 306.368 650.255C311.965 651.488 313.179 711.349 313.626 763.467C337.044 763.467 406.696 763.467 427.711 763.467C434.282 695.229 440.112 599.995 428.131 563.025C408.576 502.679 389.02 473.602 389.02 473.602L236.63 468.664Z" fill="white"/>
<path d="M275.383 73.7726C275.438 71.6069 274.362 69.8552 272.871 69.685C271.381 69.5149 270.223 71.0114 270.168 73.177C270.113 75.3428 271.188 77.0949 272.678 77.2652C274.176 77.1645 275.335 75.6676 275.383 73.7726Z" fill="#232323"/>
<path d="M299.579 78.4029C299.635 76.2373 298.559 74.4848 297.069 74.3144C295.578 74.1439 294.418 75.6405 294.361 77.8062C294.306 79.9718 295.383 81.7236 296.873 81.8941C298.364 82.0646 299.524 80.5686 299.579 78.4029Z" fill="#232323"/>
<path d="M341.605 94.8376C341.974 91.8203 344.558 89.6253 347.139 88.2538C348.985 87.4309 350.831 86.8826 352.675 86.6084" stroke="#232323" stroke-width="1.3" stroke-miterlimit="8.4257" stroke-linecap="round" stroke-linejoin="round"/>
<path d="M343.547 92.1824C345.731 93.5014 347.099 96.0595 346.799 98.6413" stroke="#232323" stroke-width="1.3" stroke-miterlimit="8.4257" stroke-linecap="round" stroke-linejoin="round"/>
<path d="M265.149 66.4701C257.588 79.5843 250.908 93.6653 249.624 108.819C248.973 115.697 250.074 123.112 252.983 129.398C256.997 137.242 264.052 143.58 272.026 147.821C287.023 155.607 301.77 154.15 311.418 151.942" stroke="#232323" stroke-width="1.39886" stroke-miterlimit="8.4257" stroke-linecap="round" stroke-linejoin="round"/>
<path d="M291.2 158.916C288.985 171.808 286.033 185.523 283.081 197.866C282.343 200.61 281.975 202.256 283.081 204.724C284.189 206.645 286.033 209.388 287.878 210.485C295.626 215.148 304.482 218.715 313.706 218.715C316.289 218.715 318.505 218.441 320.718 218.167C327.36 217.344 334.001 215.971 340.274 212.954C346.178 209.936 351.343 206.371 353.189 199.787" stroke="#232323" stroke-miterlimit="8.4257" stroke-linecap="round" stroke-linejoin="round"/>
<path d="M344.381 113.881C343.479 142.629 347.168 171.572 353.412 199.769" stroke="#232323" stroke-width="1.39573" stroke-miterlimit="8.4257" stroke-linecap="round" stroke-linejoin="round"/>
<path d="M218.168 283.316C211.774 299.813 211.785 318.565 218.67 334.848C220.875 339.64 223.417 344.13 224.909 349.254C226.323 353.831 226.854 362.89 227.554 367.799C231.781 402.77 233.427 432.977 237.653 467.948" stroke="#232323" stroke-miterlimit="8.4257" stroke-linecap="round" stroke-linejoin="round"/>
<path d="M236.311 468.623C283.451 471.366 329.574 471.906 376.78 473.017" stroke="#232323" stroke-miterlimit="8.4257" stroke-linecap="round" stroke-linejoin="round"/>
<path d="M225.445 480.65C273.782 482.844 328.76 486.685 378.942 485.861" stroke="#232323" stroke-miterlimit="8.4257" stroke-linecap="round" stroke-linejoin="round"/>
<path d="M293.444 484.354C290.492 498.893 288.647 566.921 294.183 580.362C295.289 582.832 296.394 585.3 298.609 586.671C301.93 588.865 305.251 588.59 308.203 586.122" stroke="#232323" stroke-miterlimit="8.4257" stroke-linecap="round" stroke-linejoin="round"/>
<path d="M310.657 484.731C309.86 517.92 309.377 552.492 308.189 585.945C307.553 607.613 306.576 628.447 305.574 649.83" stroke="#232323" stroke-miterlimit="8.4257" stroke-linecap="round" stroke-linejoin="round"/>
<path d="M254.368 487.87C249.022 518.002 224.262 543.702 194.117 549.872" stroke="#232323" stroke-miterlimit="8.4257" stroke-linecap="round" stroke-linejoin="round"/>
<path d="M337.475 495.634C341.341 527.391 365.476 556.04 396.265 564.639" stroke="#232323" stroke-miterlimit="8.4257" stroke-linecap="round" stroke-linejoin="round"/>
<path d="M236.621 468.526C197.509 509.124 179.06 545.332 168.73 629.544C167.991 634.208 167.253 654.507 166.145 680.841C165.349 700.958 164.484 724.671 163.602 747.853" stroke="#232323" stroke-miterlimit="8.4257" stroke-linecap="round" stroke-linejoin="round"/>
<path d="M55.6785 261.974C56.4164 261.698 57.523 261.15 58.999 260.876C58.999 260.876 47.5609 281.449 15.0904 289.403C15.0904 289.403 14.7207 288.855 18.0415 285.289" stroke="#232323" stroke-miterlimit="8.4257" stroke-linecap="round" stroke-linejoin="round"/>
<path d="M121.225 353.944C127.613 376.781 135.451 436.649 123.2 489.471" stroke="#232323" stroke-miterlimit="8.4257" stroke-linecap="round" stroke-linejoin="round"/>
<path d="M57.7448 162.976C54.055 168.735 51.8414 175.044 50.7344 181.628C50.3655 184.37 38.1887 213.448 22.6914 218.386" stroke="#232323" stroke-miterlimit="8.4257" stroke-linecap="round" stroke-linejoin="round"/>
<path d="M292.672 683.693C292.672 683.693 303.372 635.414 308.538 654.342C311.209 663.988 312.796 712.072 313.704 756.26" stroke="#232323" stroke-miterlimit="8.4257" stroke-linecap="round" stroke-linejoin="round"/>
<path d="M323.927 146.655C323.927 146.655 301.786 191.642 287.395 184.234C273.005 176.828 289.241 152.69 289.241 152.69C298.096 153.787 315.809 150.77 323.927 146.655Z" fill="#232323"/>
<path d="M288.57 68.6794L312.189 73.8972V88.4665L288.57 83.2487V68.6794Z" stroke="#232323" stroke-width="1.47745" stroke-miterlimit="1.5" stroke-linecap="round" stroke-linejoin="round"/>
<path d="M255.941 61.405L279.558 66.6228V81.1921L255.941 75.9743V61.405Z" stroke="#232323" stroke-width="1.47745" stroke-miterlimit="1.5" stroke-linecap="round" stroke-linejoin="round"/>
<path d="M279.488 71.9346L288.478 73.5481" stroke="#232323" stroke-width="1.17136" stroke-miterlimit="1.0617" stroke-linecap="round" stroke-linejoin="round"/>
<path d="M529.02 570.849C530.774 547.714 532.088 523.927 527.705 501.117C523.321 478.308 511.924 455.823 492.201 443.116C472.915 430.407 444.425 423.564 444.862 425.194C458.889 494.926 483.434 548.366 529.896 576.389L529.02 570.849Z" fill="#54C0C0"/>
<path d="M560.187 464.718C555.805 440.931 566.323 416.493 579.034 395.965C612.347 341.548 669.329 319.389 669.329 319.389C677.657 351.649 664.945 386.84 643.906 412.583C629.004 430.83 611.032 450.708 590.87 458.854L560.187 464.718Z" fill="#54C0C0"/>
<path d="M534.938 404.503C534.938 404.503 510.484 387.571 504.05 362.385C502.115 354.788 499.032 344.241 501.373 338.321C505.423 340.935 508.425 347.046 509.515 348.575C522.14 368.792 523.746 387.722 534.938 404.503Z" fill="#54C0C0"/>
<path d="M578.318 317.166C594.102 305.783 624.325 307.092 637.558 316.826C612.924 318.57 612.377 321.49 585.4 338.818C574.61 345.749 553.786 351.159 549.583 357.908C549.145 357.899 557.565 332.35 578.318 317.166Z" fill="#54C0C0"/>
<path d="M538.183 368.823C533.695 351.368 528.691 333.814 527.183 315.718C525.674 297.621 527.284 275.266 534.833 259.719C539.477 267.085 547.863 279.623 549.652 288.869C553.35 311.839 551.217 335.711 542.097 357.434C539.623 363.029 536.888 369.385 539.334 375.116L538.183 368.823Z" fill="#54C0C0"/>
<path d="M516.969 619.955C510.834 596.82 494.177 576.618 472.7 566.516C451.222 556.415 424.924 556.089 403.008 566.19C416.157 583.134 437.197 592.258 456.922 600.731L496.37 617.348C500.315 618.978 504.259 620.606 508.643 621.259C513.025 621.91 519.162 622.236 520.038 626.798L516.969 619.955Z" fill="#54C0C0"/>
<path d="M572.328 445.657C555.671 467.163 553.041 496.164 552.164 523.209C550.85 562.638 552.166 602.066 556.112 641.494" stroke="#232323" stroke-miterlimit="10.009" stroke-linecap="round" stroke-linejoin="round"/>
<path d="M569.524 340.693C557.033 346.36 547.112 356.554 542.238 369.395C538.233 379.715 537.453 391.326 537.318 402.389C536.601 431.148 535.251 455.081 556.362 487.022" stroke="#232323" stroke-miterlimit="10.009" stroke-linecap="round" stroke-linejoin="round"/>
<path d="M538.063 320.101C536.363 326.655 536.216 333.507 536.587 340.459C536.682 354.643 537.423 368.545 539.201 382.648" stroke="#232323" stroke-miterlimit="12.0558" stroke-linecap="round" stroke-linejoin="round"/>
<path d="M516.275 376.295C519.317 383.425 522.665 390.423 527.425 396.345C530.902 400.675 535.545 404.65 537.365 410.005" stroke="#232323" stroke-miterlimit="5.7392" stroke-linecap="round" stroke-linejoin="round"/>
<path d="M513.459 539.568C520.91 555.209 528.363 570.85 535.375 586.817C543.265 604.738 550.277 622.986 556.852 641.559" stroke="#232323" stroke-miterlimit="10.009" stroke-linecap="round" stroke-linejoin="round"/>
<path d="M529.502 647.034C526.434 637.584 522.926 628.135 517.228 620.314C514.598 616.73 511.53 613.471 508.9 610.213C506.27 606.953 504.078 603.37 501.448 600.112C498.38 596.201 494.875 592.616 491.368 589.358C485.231 583.819 478.657 578.606 472.082 573.717" stroke="#232323" stroke-miterlimit="10.009" stroke-linecap="round" stroke-linejoin="round"/>
<path d="M627.063 640.949H458.939L473.349 680.588H484.157L499.768 763.467H586.233L603.045 680.588H612.652L627.063 640.949Z" fill="#F9B42B"/>
<path d="M485 680.793H603.888L597.46 708.21L485 680.793Z" fill="#232323"/>
</svg>
