<svg width="975" height="834" viewBox="0 0 975 834" fill="none" xmlns="http://www.w3.org/2000/svg">
<path d="M0 738C0 669.517 55.5167 614 124 614H975V834H0V738Z" fill="#018780"/>
<g clip-path="url(#clip0_1199_8324)">
<mask id="mask0_1199_8324" style="mask-type:luminance" maskUnits="userSpaceOnUse" x="104" y="0" width="733" height="615">
<path d="M837 0H104V615H837V0Z" fill="white"/>
</mask>
<g mask="url(#mask0_1199_8324)">
<mask id="mask1_1199_8324" style="mask-type:luminance" maskUnits="userSpaceOnUse" x="104" y="0" width="733" height="733">
<path d="M837 0H104V732.98H837V0Z" fill="white"/>
</mask>
<g mask="url(#mask1_1199_8324)">
<path d="M437.004 194.541C377.677 197.962 104.228 259.687 109.085 565.81C114.126 883.618 402.331 932.423 525.873 914.141C731.563 883.71 845.818 750.951 832.132 509.327C818.445 267.672 661.024 181.591 437.004 194.541Z" fill="#EDECF4" fill-opacity="0.8"/>
<mask id="mask2_1199_8324" style="mask-type:alpha" maskUnits="userSpaceOnUse" x="109" y="193" width="725" height="725">
<path d="M437.004 194.541C377.677 197.962 104.228 259.687 109.085 565.81C114.126 883.618 402.331 932.423 525.873 914.141C731.563 883.71 845.818 750.951 832.132 509.327C818.445 267.672 661.024 181.591 437.004 194.541Z" fill="#EDECF4" fill-opacity="0.8"/>
</mask>
<g mask="url(#mask2_1199_8324)">
<g opacity="0.7">
<path d="M514.627 157.364C514.627 157.364 514.094 315.696 617.541 443.6C623.431 448.207 652.479 432.907 652.479 432.907C652.479 432.907 651.604 476.341 654.464 483.457C671.602 499.634 690.875 514.933 712.494 528.905L720.668 680.701L796.925 680.23C796.925 680.23 859.609 608.231 852.8 516.605C845.992 424.979 830.625 99.9369 514.627 157.364Z" fill="#DFDDEC"/>
<path d="M703.955 522.123H853.993C853.993 522.123 855.823 545.764 852.974 556.01H716.376L703.955 522.123Z" fill="#CFCEE0"/>
<path d="M781.644 546.539C781.644 546.539 733.112 586.867 746.494 649.051L781.644 546.539Z" fill="#CFCEE0"/>
<path d="M722.27 252.139C722.27 255.268 711.364 432.157 809.583 527.661L722.27 252.139Z" fill="#CFCEE0"/>
<path d="M618.992 204.505C618.992 204.505 630.688 412.7 762.436 526.976L618.992 204.505Z" fill="#CFCEE0"/>
<path d="M812.739 547.375C812.739 547.375 775.603 614.831 812.739 660.343V547.375Z" fill="#CFCEE0"/>
<path d="M801.258 291.481C801.258 291.481 787.685 449.663 832.162 522.326L801.258 291.481Z" fill="#CFCEE0"/>
</g>
<g opacity="0.7">
<path d="M390.172 169.589C390.172 169.589 390.68 320.293 292.216 442.036C286.609 446.421 258.961 431.858 258.961 431.858C258.961 431.858 259.794 473.2 257.072 479.971C240.76 495.37 222.416 509.933 201.837 523.231L194.057 667.714L121.474 667.265C121.474 667.265 61.8107 598.736 68.2909 511.524C74.7712 424.312 89.3976 114.929 390.172 169.589Z" fill="#DFDDEC"/>
<path d="M209.978 516.479H93.4144C93.4144 516.479 91.9924 538.833 94.2066 548.521H200.329L209.978 516.479Z" fill="#CFCEE0"/>
<path d="M136.02 540.017C136.02 540.017 182.214 578.401 169.477 637.589L136.02 540.017Z" fill="#CFCEE0"/>
<path d="M192.534 259.799C192.534 262.777 202.914 431.144 109.428 522.047L192.534 259.799Z" fill="#CFCEE0"/>
<path d="M290.836 214.459C290.836 214.459 279.703 412.625 154.303 521.395L290.836 214.459Z" fill="#CFCEE0"/>
<path d="M106.422 540.811C106.422 540.811 141.769 605.017 106.422 648.338V540.811Z" fill="#CFCEE0"/>
<path d="M117.351 297.246C117.351 297.246 130.271 447.807 87.9355 516.969L117.351 297.246Z" fill="#CFCEE0"/>
</g>
</g>
<path d="M404.058 335.454C404.058 335.454 341.392 375.429 340.944 406.347C340.566 431.871 365.977 537.361 365.977 537.361L435.498 555.812L504.552 536.432C504.552 536.432 588.556 452.251 581.61 428.709C574.665 405.186 480.273 336.169 480.273 336.169L404.058 335.454Z" fill="#5A66FF"/>
<path d="M403.088 282.262C403.609 284.316 404.074 335.454 404.074 335.454C404.074 335.454 418.737 361.693 443.07 361.693C467.405 361.693 480.271 336.168 480.271 336.168L482.784 287.996L403.088 282.262Z" fill="#FBBB9D"/>
<path d="M496.1 197.116C496.782 198.134 504.84 231.428 488.509 263.954C472.161 296.48 477.616 207.368 477.616 207.368" fill="#543732"/>
<path d="M402.871 283.048L482.299 292.443C482.299 292.443 483.59 286.173 481.957 302.195C464.766 334.221 426.218 339.026 403.84 315.681L402.871 283.048Z" fill="#E59E85"/>
<path d="M395.283 211.423C395.337 213.726 405.117 235.643 403.054 269.152C400.99 302.659 408.348 316.699 447.074 316.645C484.526 316.592 489.013 285.138 489.013 257.291C489.013 229.445 490.054 167.609 450.178 175.343C410.303 183.077 394.781 190.292 395.283 211.423Z" fill="#FBBB9D"/>
<path d="M391.461 225.659C391.461 225.659 395.894 284.958 403.036 284.619C410.179 284.279 406.446 222.265 406.446 222.265L391.461 225.659Z" fill="#543732"/>
<path d="M393.094 242.216C393.094 242.216 372.043 214.835 384.552 193.525C393.614 178.093 409.836 181.951 409.836 181.951C409.836 181.951 468.824 144.978 496.657 165.804C526.716 188.292 500.407 214.138 483.036 216.513C465.665 218.889 424.139 207.029 424.139 207.029C424.139 207.029 412.17 245.592 393.094 242.216Z" fill="#543732"/>
<path d="M417.461 230.393C416.403 231.125 416.888 232.804 418.179 232.929C423.473 233.465 436.251 234.447 436.43 231.715C436.61 228.785 422.307 227.017 417.461 230.393Z" fill="#543732"/>
<path d="M557.173 383.858L553.996 379.535C564.907 371.623 576.105 352.297 576.41 330.667C576.59 317.467 572.695 298.551 553.027 283.422C521.767 259.363 512.022 236.947 520.42 208.511C522.736 200.652 525.625 193.543 528.065 187.649C524.834 186.38 522.431 184.166 521.03 181.165C517.908 174.449 520.707 167.911 524.602 164.697C528.227 161.714 532.838 161.375 536.32 163.857C541.327 167.412 539.443 173.95 535.548 183.576C535.62 183.576 535.692 183.576 535.745 183.576C543.462 183.576 552.902 179.79 556.724 177.129L559.811 181.523C555.216 184.72 543.211 189.702 533.377 188.828C530.792 195.025 527.922 202.027 525.571 210.011C520.151 228.337 519.559 250.896 556.293 279.189C577.721 295.676 581.973 316.341 581.758 330.756C581.453 355.208 568.802 375.427 557.173 383.858ZM531.188 167.518C529.823 167.518 528.64 168.341 528.065 168.805C525.697 170.752 524.027 174.753 525.948 178.897C526.773 180.664 528.137 181.897 530.128 182.665C533 175.664 535.172 169.591 533.215 168.197C532.533 167.698 531.834 167.518 531.188 167.518Z" fill="#E2BFBF"/>
<path d="M455.096 231.177C455.204 227.605 477.007 229.231 476.577 233.017C476.2 236.287 454.988 234.751 455.096 231.177Z" fill="#543732"/>
<path d="M448.599 254.559C449.497 255.809 454.251 260.934 452.726 264.936C450.95 269.597 443.323 271.991 439.752 271.973C442.425 270.205 445.315 268.151 446.104 265.042C446.661 262.864 446.554 260.739 446.087 258.523C445.494 255.791 443.844 249.414 443.664 248.27C443.467 246.949 444.4 246.109 445.135 247.878C446.158 250.307 446.948 252.272 448.599 254.559Z" fill="#EFA689"/>
<path d="M431.19 280.852C430.993 280.529 441.922 288.478 456.349 280.726C456.349 280.726 444.093 300.927 431.19 280.852Z" fill="#D17D62"/>
<path d="M236.859 287.21L307.044 301.553C307.044 301.553 276.859 397.898 289.816 399.453C326.963 403.899 380.261 352.798 380.261 352.798L322.568 442.784C322.568 442.784 280.449 458.788 258.61 451.09C214.104 435.408 236.859 287.21 236.859 287.21Z" fill="#4759DD"/>
<path d="M187.166 371.391C187.166 372.765 196.031 504.62 242.385 500.923C288.737 497.225 343.884 429.869 343.884 429.869L349.931 388.359C349.931 388.359 272.964 451.553 256.741 445.551C240.518 439.551 232.64 359.745 232.64 359.745L187.166 371.391Z" fill="#4759DD"/>
<path d="M301.125 299.678C301.395 298.696 316.486 280.03 323.234 273.315C326.141 270.421 333.356 262.901 341.79 254.059C350.817 244.611 355.141 238.198 360.758 233.59C362.481 232.161 362.265 229.5 360.346 228.357C356.272 225.927 348.609 224.141 336.98 232.465C318.569 245.629 310.762 256.882 307.998 251.22C306.743 248.629 295.778 233.947 287.128 218.64C283.628 212.442 278.837 206.601 274.908 201.135C267.298 190.526 264.786 186.203 258.863 189.276C252.619 192.526 255.848 199.028 261.447 210.442C267.711 223.212 275.033 236.18 275.033 236.18C275.033 236.18 261.897 217.64 255.616 221.283C249.317 224.927 255.993 236.395 255.993 236.395C255.993 236.395 249.73 230.143 245.601 233.661C241.474 237.163 248.689 246.468 248.689 246.468C248.689 246.468 240.542 240.288 238.029 247.041C235.516 253.792 248.311 265.277 255.4 274.207C260.461 280.584 262.937 292.73 262.937 292.73L301.125 299.678Z" fill="#FBBB9D"/>
<path d="M250.211 268.046C250.211 268.046 253.782 270.474 258.915 268.028C264.029 265.581 258.52 257.954 258.52 257.954C258.52 257.954 263.689 262.205 268.174 259.919C272.662 257.65 269.18 250.22 269.18 250.22C269.18 250.22 273.558 253.685 277.47 251.417C281.382 249.148 278.78 242.772 278.78 242.772C278.78 242.772 297.624 251.613 278.207 268.224C271.513 273.94 261.751 281.37 250.211 268.046Z" fill="#EFA689"/>
<path d="M328.759 266.259C318.172 263.472 311.855 252.629 314.653 242.109C317.454 231.571 328.346 225.285 338.917 228.071C349.504 230.857 355.821 241.699 353.022 252.219C350.222 262.739 339.329 269.045 328.759 266.259ZM336.421 237.359C331.002 235.929 325.421 239.162 323.985 244.557C322.55 249.951 325.798 255.506 331.218 256.934C336.637 258.364 342.218 255.131 343.653 249.736C345.107 244.342 341.86 238.787 336.421 237.359Z" fill="#43464C"/>
<path d="M622.855 253.846C622.855 253.846 622.71 360.354 597.3 371.857C569.574 384.414 513.889 354.674 513.889 354.674C513.889 354.674 516.276 414.671 518.644 414.671C521.032 414.671 658.494 472.453 658.494 472.453C658.494 472.453 682.272 331.221 685.072 286.586C662.891 273.975 622.855 253.846 622.855 253.846Z" fill="#4759DD"/>
<path d="M638.066 514.946C709.202 529.984 750.046 350.548 750.046 350.548L699.027 327.649C699.027 327.649 666.007 442.16 656.011 447.143C646.016 452.127 556.971 385.413 556.971 385.413" fill="#4759DD"/>
<path d="M278.113 249.183C267.651 246.433 261.388 235.698 264.151 225.285C266.914 214.871 277.682 208.619 288.163 211.388C298.624 214.139 304.887 224.874 302.124 235.286C299.36 245.718 288.593 251.952 278.113 249.183ZM285.686 220.712C280.375 219.319 274.918 222.481 273.501 227.767C272.083 233.055 275.277 238.484 280.589 239.895C285.901 241.306 291.357 238.127 292.774 232.84C294.174 227.535 290.998 222.105 285.686 220.712Z" fill="#43464C"/>
<path d="M298.704 242.484L328.475 192.293C328.475 192.293 348.449 177.111 354.406 158.606C356.291 152.73 355.609 145.835 353.348 138.905C353.097 138.119 352.038 137.995 351.644 138.709C347.444 146.406 336.605 170.502 324.869 186.399C310.314 206.1 298.184 222.515 298.184 222.515L298.704 242.484Z" fill="#43464C"/>
<path d="M333.965 133.404C334.97 132.814 336.227 133.653 336.047 134.797C334.557 144.388 329.605 176.664 329.209 181.397C328.744 186.953 327.038 230.249 327.038 230.249L314.961 241.519L321.852 190.132C321.87 190.132 308.734 148.354 333.965 133.404Z" fill="#43464C"/>
<path d="M328.651 192.285C329.167 190.463 328.1 188.569 326.268 188.056C324.437 187.542 322.534 188.605 322.018 190.428C321.503 192.251 322.57 194.145 324.403 194.658C326.234 195.171 328.137 194.109 328.651 192.285Z" fill="#6E737A"/>
<path d="M545.525 410.42L565.337 496.013C565.337 496.013 527.347 524.769 548.181 547.99C556.006 556.706 622.314 587.857 646.397 564.869C689.071 524.127 621.884 430.8 548.307 376.59C520.169 355.853 494.093 341.296 480.652 335.652C459.423 365.392 536.068 468.184 536.068 468.184L596.113 445.571" fill="#5A66FF"/>
<path d="M342.843 229.071C342.843 229.071 329.618 238.233 328.416 239.859C327.196 241.484 333.727 250.023 333.727 250.023L340.815 254.38L355.011 238.949L351.762 233.982L342.843 229.071Z" fill="#FBBB9D"/>
<path d="M265.215 217.639L274.224 234.571L290.482 224.355L279.644 207.583L265.215 217.639Z" fill="#FBBB9D"/>
<path d="M351.819 242.36C351.819 242.36 348.015 240.52 349.558 236.912C351.101 233.305 359.177 227.91 359.177 227.91C359.177 227.91 360.935 227.893 361.922 230.607C363.107 233.822 351.819 242.36 351.819 242.36Z" fill="#FFCCB8"/>
<path d="M392.875 486.116C392.875 486.116 378.123 505.496 355.512 510.14L350.146 524.555C350.146 524.555 164.967 558.045 185.569 628.081C209.921 710.868 424.585 637.69 424.585 637.69C424.585 637.69 611.47 697.972 641.69 642.173C674.332 581.908 504.567 536.414 504.567 536.414C504.567 536.414 490.319 514.803 486.82 495.012" fill="#FF6F43"/>
<path d="M380.246 352.78C380.246 354.655 382.669 418.243 382.669 418.243L400.094 415.832L394.764 341.813L380.246 352.78Z" fill="#FF6F43"/>
<path d="M486.593 338.276L480.957 405.704L497.629 406.205L502.545 346.689L486.593 338.276Z" fill="#FF6F43"/>
<path d="M382.271 404.257C383.995 404.257 497.625 405.043 497.625 405.043L486.534 495.03L382.702 498.906L382.271 404.257Z" fill="#FF6F43"/>
<path d="M417.769 565.225L525.496 591C525.676 591.035 525.855 591.124 526.017 591.232L546.743 605.646C548.144 606.611 549.83 604.932 548.861 603.538L539.619 590.267C538.884 589.195 539.745 587.767 541.038 587.892L562.375 590.195C564.043 590.375 564.726 588.106 563.236 587.338L539.637 575.263C539.548 575.228 539.457 575.192 539.368 575.157L446.607 547.596C446.231 547.489 445.818 547.524 445.459 547.703L417.41 562.421C416.173 563.064 416.405 564.904 417.769 565.225Z" fill="#ED6343"/>
<path d="M324.991 574.228L262.253 597.644C262.11 597.698 261.966 597.734 261.823 597.734L230.455 599.395C228.839 599.484 228.552 601.735 230.096 602.217L252.832 609.273C253.747 609.558 254.143 610.612 253.622 611.415L245.079 624.865C244.272 626.134 245.726 627.634 247.036 626.884L271.89 612.559C272.016 612.487 272.16 612.435 272.303 612.398L364.794 591.429C366.194 591.108 366.319 589.179 364.974 588.678L325.996 574.228C325.673 574.104 325.314 574.104 324.991 574.228Z" fill="#ED6343"/>
<path d="M155.928 313.001C141.536 310.501 133.675 312.215 133.873 319.27C134.142 329.183 151.693 327.629 156.717 328.576C156.502 323.361 156.233 318.181 155.928 313.001Z" fill="#EFA689"/>
<path d="M413.371 476.472L413.946 572.299C413.964 575.764 416.853 578.532 420.317 578.425L567.469 574.228C570.915 574.139 573.607 571.262 573.481 567.833L570 472.006C569.874 468.612 567.021 465.969 563.63 466.058L419.383 470.255C416.009 470.363 413.354 473.113 413.371 476.472Z" fill="#AA693D"/>
<path d="M485.585 577.461C485.082 577.461 484.688 577.068 484.688 576.567C484.688 536.7 484.777 469.63 485.441 468.326C485.656 467.881 486.212 467.701 486.643 467.933C487.038 468.13 487.235 468.595 487.092 468.988C486.589 472.113 486.481 547.632 486.481 576.567C486.481 577.068 486.069 577.461 485.585 577.461Z" fill="#563620"/>
<path d="M414.288 521.16C413.804 521.16 413.391 520.767 413.391 520.285C413.391 519.784 413.767 519.391 414.27 519.374L571.276 516.552C571.778 516.587 572.173 516.926 572.191 517.427C572.191 517.927 571.814 518.319 571.311 518.338L414.288 521.16Z" fill="#563620"/>
<path d="M427.389 563.438V570.583L461.827 570.225V562.581L427.389 563.438Z" fill="#563620"/>
<path d="M431.856 560.117C431.946 559.742 432.376 537.343 432.376 537.343L427.549 538.308L435.265 527.448L442.103 538.308L437.419 537.058L437.043 559.974L431.856 560.117Z" fill="#563620"/>
<path d="M449.317 559.188L454.81 559.277L454.719 538.004L458.811 538.612L451.973 526.858L445.441 538.54L449.802 537.807L449.317 559.188Z" fill="#563620"/>
<path d="M485.943 468.987C485.8 468.987 485.657 468.951 485.531 468.88C485.477 468.88 485.423 468.88 485.352 468.88C485.028 468.862 484.742 468.648 484.615 468.362C481.081 466.361 469.846 459.503 469.757 453.627C469.72 451.769 470.762 450.233 472.808 449.035C474.943 447.803 476.935 447.642 478.73 448.59C482.911 450.75 484.885 458.555 485.746 463.575C487.523 457.841 491.058 448.358 495.347 447.178C496.298 446.911 497.751 446.928 499.259 448.447C500.569 449.768 501.144 451.357 500.964 453.18C500.461 458.021 494.414 463.433 490.538 466.451L512.144 462.504C512.628 462.432 513.095 462.736 513.184 463.218C513.275 463.7 512.951 464.164 512.467 464.254L486.985 468.915C486.786 468.951 486.607 468.916 486.427 468.845C486.267 468.934 486.105 468.987 485.943 468.987ZM496.28 448.84C496.101 448.84 495.939 448.875 495.813 448.911C491.973 449.947 488.097 461.521 486.589 467.111C488.402 465.879 498.577 458.681 499.17 453.002C499.295 451.733 498.919 450.643 497.985 449.714C497.286 449.018 496.728 448.84 496.28 448.84ZM476.288 449.786C475.481 449.786 474.638 450.053 473.704 450.589C472.233 451.448 471.533 452.429 471.552 453.608C471.606 457.645 479.502 463.236 484.329 466.129C483.665 461.092 481.745 452.162 477.904 450.179C477.383 449.912 476.846 449.786 476.288 449.786Z" fill="#563620"/>
<path d="M179.525 359.87L186.757 372.426L224.173 362.353L209.063 315.716C208.543 314.108 208.094 312.502 207.7 310.857C205.546 301.891 198.081 276.814 196.071 265.454C195.586 262.685 192.302 261.399 190.077 263.15C185.806 266.49 183.419 274.724 183.599 281.278C183.868 290.549 187.69 311.823 187.69 311.823C187.69 311.823 185.052 313.268 178.484 312.966C179.005 321.878 170.014 344.223 179.525 359.87Z" fill="#FBBB9D"/>
<path d="M176.994 323.416C177.532 323.416 203.446 340.848 183.598 360.764C163.768 380.68 172.167 328.042 172.167 328.042" fill="#EFA689"/>
<path d="M138.701 310.27C138.701 310.27 142.703 329.238 132.241 344.189C131.541 345.207 129.98 347.44 132.367 349.119C134.143 350.369 136.602 348.191 137.481 347.154C143.08 340.455 149.307 327.631 148.392 312.859C147.656 300.964 138.701 310.27 138.701 310.27Z" fill="#6B8280"/>
<path d="M189.25 372.569C179.164 355.958 177.37 330.202 178.052 329.059L168.594 329.469L157.342 328.773C158.042 329.916 158.599 356.19 148.89 373.016C141.873 385.162 136.257 391.503 136.059 402.381C135.682 423.296 152.102 428.887 167.571 428.708C183.597 428.529 200.771 424.779 201.381 402.131C201.65 392.002 196.518 384.554 189.25 372.569Z" fill="#43464C"/>
<path d="M185.985 297.265L139.309 297.675L138.537 311.465L149.412 313.447C151.978 313.876 155.047 316.537 155.639 319.056L155.998 329.112C156.016 330.344 157.039 331.344 158.277 331.327L176.689 331.041C177.91 331.023 178.932 330.058 179.363 328.933L179.578 315.983C179.632 314.091 181.768 312.876 183.616 312.661L185.608 312.446C189.466 312.018 192.804 308.518 193.02 304.66C193.271 300.533 190.095 297.228 185.985 297.265Z" fill="#F7F7F7"/>
<path d="M138.574 297.678C134.949 297.714 131.97 300.535 131.773 304.144C131.575 307.627 134.034 310.699 137.497 311.27L138.556 311.45L139.328 297.66L138.574 297.678Z" fill="#6B8280"/>
<path d="M380.062 353.335C380.062 353.335 202.94 485.92 242.69 544.918C282.439 603.914 375.146 428.12 375.146 428.12L380.062 353.335Z" fill="#5A66FF"/>
<path d="M133.762 321.576C132.308 317.449 133.492 311.501 138.607 311.592C141.622 311.644 145.336 311.93 149.41 313.324C160.213 316.985 156.427 328.559 147.598 327.756C142.842 327.327 135.772 327.292 133.762 321.576Z" fill="#FBBB9D"/>
<path d="M156.717 328.559C155.82 328.524 146.614 328.256 146.883 334.865C147.152 341.473 160.378 340.169 164.092 339.188C167.807 338.222 170.894 329.006 156.717 328.559Z" fill="#FBBB9D"/>
<path d="M155.083 337.901C155.083 337.901 146.129 336.99 145.321 343.063C144.514 349.137 165.923 354.084 167.268 346.939C168.614 339.795 155.083 337.901 155.083 337.901Z" fill="#FBBB9D"/>
<path d="M153.682 348.118C153.682 348.118 146.36 347.975 146.504 353.245C146.648 358.496 161.291 362.496 162.888 357.692C164.773 352.03 157.074 347.85 153.682 348.118Z" fill="#FBBB9D"/>
<path d="M329.963 415.83C329.963 415.83 221.196 509.407 247.288 551.453C273.381 593.499 413.93 497.332 413.93 497.332L379.673 455.411L329.963 415.83Z" fill="#5A66FF"/>
<path d="M382.646 388.144L414.015 427.583L427.618 414.544L395.729 377.339" fill="#B56523"/>
<path d="M398.493 444.82C399.659 439.907 400.952 412.794 401.257 411.918C401.257 411.918 406.569 417.473 411.108 422.082C414.878 425.904 424.1 418.278 425.662 412.187C426.093 410.472 425.447 404.06 425.447 404.06L433.235 407.311C435.945 408.435 438.062 410.597 439.139 413.311L442.243 421.082L444.972 421.903C449.421 423.243 452.832 426.833 453.926 431.335L454.931 435.495L456.331 436.282C459.992 438.336 462.11 442.337 461.751 446.499C461.284 451.964 459.22 457.18 455.81 461.502L455.146 462.342C449.728 469.201 442.369 474.291 434.007 476.953L405.366 487.419L391.691 448.732L398.493 444.82Z" fill="#FBBB9D"/>
<path d="M425.664 412.187C422.686 408.596 416.764 402.274 414.18 399.219C420.012 395.343 431.927 387.842 433.74 387.609C435.894 387.341 443.162 394.753 425.791 412.08C425.737 412.115 425.701 412.15 425.664 412.187Z" fill="#FBBB9D"/>
<path d="M363.447 455.376C363.447 455.376 398.944 444.57 398.513 444.838C398.082 445.106 418.253 496.315 418.253 496.315L393.434 510.372L363.447 455.376Z" fill="#5A66FF"/>
<path d="M270.851 565.065C270.851 565.065 267.943 556.598 275.767 554.365C283.107 552.275 293.013 555.597 295.472 555.365C297.948 555.15 270.851 565.065 270.851 565.065Z" fill="#EDA58A"/>
<path d="M369.531 590.357C369.531 590.357 314.652 580.158 295.953 578.8C277.254 577.442 274.06 579.408 271.369 575.55C268.3 571.173 266.129 560.974 284.272 557.206C287.125 556.616 289.458 556.313 291.324 556.17C295.272 555.883 299.058 554.581 302.216 552.222C308.57 547.453 320.018 541.898 332.222 542.738C348.354 543.846 354.833 544.684 364.99 540.559C375.362 536.344 387.601 524.429 400.145 527.68C415.489 531.664 413.838 564.296 413.838 564.296L369.531 590.357Z" fill="#FBBB9D"/>
<path d="M287.232 578.067C287.232 578.067 285.294 570.333 269.861 572.834C269.861 572.834 271.01 577.961 275.926 578.175C280.825 578.407 287.232 578.067 287.232 578.067Z" fill="#FFE9E1"/>
<path d="M374.434 400.022L414.937 367.211C416.444 365.979 415.888 363.568 413.986 363.139L394.48 358.62C392.092 358.066 389.562 358.53 387.534 359.906L357.835 379.893C354.928 381.84 354.424 385.895 356.74 388.502L366.43 399.38C368.512 401.684 372.029 401.97 374.434 400.022Z" fill="#3A3632"/>
<path d="M382.004 449.429L275.391 498.71L340.64 439.177L382.004 449.429Z" fill="#4759DD"/>
<path d="M623.07 254.827C623.07 254.827 609 235.662 601.427 221.587C598.413 215.978 600.494 208.923 606.129 205.957C614.348 201.636 621.132 200.241 621.132 200.241C621.132 200.241 619.965 144.8 631.79 145.711C642.128 146.514 641.266 193.204 641.266 193.204C641.266 193.204 643.456 182.72 651.333 185.524C659.319 188.364 657.328 202.118 657.328 202.118C657.328 202.118 661.024 192.954 666.766 195.116C674.699 198.099 671.056 213.871 671.056 213.871C671.056 213.871 676.188 207.261 681.985 211.531C687.404 215.514 682.882 228.16 677.283 242.413C671.684 256.667 664.99 275.564 664.99 275.564L623.07 254.827Z" fill="#FBBB9D"/>
<path d="M621.076 200.225C621.076 200.225 637.191 193.205 638.59 201.404C640.009 209.62 623.086 218.23 623.086 218.23C623.086 218.23 629.851 234.644 642.916 238.377C658.797 242.914 676.33 236.466 681.355 231.554C671.288 235.501 666.37 227.392 668.505 220.998C668.505 220.998 651.691 230.482 653.88 218.015C653.88 218.015 645.822 226.428 641.803 222.427C637.783 218.425 640.601 200.386 640.601 200.386L641.103 189.544L621.076 200.225Z" fill="#EFA689"/>
<path d="M776.736 153.535C777.309 150.285 779.498 147.891 782.281 146.479C774.403 137.139 760.172 128.618 760.172 128.618C760.172 128.618 724.604 126.617 718.395 136.977C724.604 152.588 758.413 161.341 782.334 163.431C782.621 160.948 776.304 156.018 776.736 153.535Z" fill="#6E737A"/>
<path d="M711.125 333.346L705.005 294.443C705.005 294.443 698.312 271.795 702.565 264.258C706.584 257.149 721.048 248.022 731.511 247.79C732.606 247.771 733.486 248.647 733.395 249.719C732.642 260.096 718.608 262.364 718.608 270.384C718.608 278.869 722.467 292.837 735.244 291.425C748.021 290.014 767.06 257.577 760.457 254.934C754.876 252.701 747.788 250.611 749.116 243.771C749.241 243.092 749.834 242.591 750.533 242.628C754.015 242.788 760.241 243.324 768.676 244.913C780.448 247.111 775.01 262.685 768.855 278.708C768.855 278.708 787.303 235.376 792.993 238.68C798.664 241.984 792.526 258.935 792.526 258.935C792.526 258.935 797.73 252.809 801.983 257.989C806.236 263.169 795.558 279.637 795.558 279.637C795.558 279.637 803.777 271.974 807.905 277.886C814.203 286.906 747.105 348.886 747.105 348.886L711.125 333.346Z" fill="#FBBB9D"/>
<path d="M785.115 163.358C785.115 163.358 767.672 150.998 757.91 145.871C742.872 137.976 729.593 134.94 718.395 137.333C722.019 123.133 745.438 106.201 772.841 113.327C804.945 121.651 785.115 163.358 785.115 163.358Z" fill="#D2D1E0"/>
<path d="M774.597 155.98L746.639 217.657L713.331 301.999C712.542 303.982 713.314 306.25 715.144 307.357C717.423 308.733 720.384 307.804 721.479 305.393L785.168 163.161L774.597 155.98ZM717.819 304.464C716.831 304.464 716.041 303.659 716.041 302.695C716.041 301.732 716.848 300.927 717.819 300.927C718.805 300.927 719.595 301.732 719.595 302.695C719.595 303.659 718.805 304.464 717.819 304.464Z" fill="#D2D1E0"/>
<path d="M774.598 155.982C774.598 155.982 725.677 122.206 718.393 136.977C711.161 151.659 766.522 162.93 771.17 163.52" fill="#6E737A"/>
<path d="M573.412 157.896L620.071 130.335L602.771 84.6989L631.914 67.0696C631.914 67.0696 666.298 101.757 669.42 126.316C667.967 126.424 650.345 127.995 631.806 145.017L583.318 173.47C579.047 176.15 573.43 174.917 570.666 170.72C567.813 166.415 569.07 160.646 573.412 157.896Z" fill="#FFB031"/>
<path d="M669.403 126.313C669.582 127.796 669.69 129.243 669.636 130.636C669.241 141.031 655.836 148.248 644.19 149.372C637.496 150.015 631.789 145.014 631.789 145.014C650.326 127.992 667.967 126.403 669.403 126.313Z" fill="#6E737A"/>
<path d="M631.861 66.9237C631.861 66.9237 635.485 86.3393 624.808 90.0723C614.13 93.8054 602.771 84.7138 602.771 84.7138L631.861 66.9237Z" fill="#43464C"/>
<path d="M623.607 71.8363C623.607 71.8363 631.18 84.5716 630.821 84.6786C630.462 84.7858 629.511 86.7327 629.511 86.7327L621.938 73.1045L623.607 71.8363Z" fill="#6E737A"/>
<path d="M616.21 76.3553L624.806 90.0731L622.276 90.5553L614.129 77.6057L616.21 76.3553Z" fill="#6E737A"/>
<path d="M632.56 71.2283L605.857 86.875L609.16 88.4468L632.435 73.8182L632.56 71.2283Z" fill="#6E737A"/>
<path d="M569.065 166.091L555.301 177.184C554.098 178.148 553.793 179.862 554.601 181.166C555.463 182.577 557.293 183.078 558.746 182.273L574.27 173.843L569.065 166.091Z" fill="#43464C"/>
<path d="M570.521 479.757L623.731 527.59L571.598 512.354L570.521 479.757Z" fill="#4759DD"/>
<path d="M553.544 466.324L526.501 439.336L525.926 467.342L553.544 466.324Z" fill="#4759DD"/>
<path d="M560.257 519.429C560.257 519.429 540.122 491.922 526.609 481.491C518.372 475.132 514.747 472.113 508.592 469.023C505.828 471.596 505.523 479.009 515.25 486.046C523.54 492.047 528.188 501.442 528.188 501.442C528.188 501.442 508.754 492.404 492.172 485.617C481.315 481.187 471.229 476.739 469.364 480.348C467.586 483.796 477.941 489.117 487.667 494.422C496.658 499.335 508.198 506.301 508.198 506.301C508.198 506.301 486.25 500.138 472.037 494.03C465.199 491.1 459.098 492.476 458.453 494.101C457.735 495.905 461.719 498.923 467.478 502.228C479.879 509.319 500.57 517.661 500.57 517.661C500.57 517.661 487.739 515.142 475.608 512.284C468.196 510.552 460.731 509.265 459.887 512.98C459.242 515.875 465.235 519.178 472.79 521.858C485.424 526.341 503.961 533.039 502.867 532.79C501.809 532.539 492.261 532.235 483.54 530.967C479.323 530.36 472.271 529.841 471.767 532.968C471.57 534.164 479.412 537.201 484.473 538.701C500.516 543.453 544.088 548.043 544.088 548.043C544.088 548.043 551.123 542.595 555.412 535.004C559.377 528.038 560.257 519.429 560.257 519.429Z" fill="#FBBB9D"/>
<path d="M655.189 551.49C637.063 585.249 604.493 580.801 527.9 560.421L548.645 499.085L623.605 528.198" fill="#5A66FF"/>
<path d="M424.567 637.706L369.528 590.374C369.528 590.374 326.656 597.697 327.859 598.5C329.042 599.286 405.975 643.887 405.975 643.887L424.567 637.706Z" fill="#ED6343"/>
<path d="M398.316 97.3778C399.482 93.0018 402.64 89.4295 406.857 87.7326L423.583 81.4811L415.454 128.564L440.093 128.724L389.791 129.386L398.316 97.3778Z" fill="#D3DDDC"/>
<path d="M423.604 81.3372L450.539 71.406C451.688 70.9774 452.927 70.9417 454.111 71.2632L482.375 79.2831C489.734 81.087 495.314 87.0528 496.607 94.4654L502.438 127.902L440.095 128.723L415.457 128.563L423.604 81.3372Z" fill="#F5F5F5"/>
<path d="M512.914 133.297L529.28 128.742C533.928 125.544 531.936 118.311 526.302 117.9L479.786 113.667C477.221 113.488 474.637 113.935 472.286 114.971L413.693 129.099L512.914 133.297Z" fill="#AEBAB9"/>
<path d="M467.619 248.451C468.567 245.733 467.116 242.762 464.408 241.81C461.952 240.957 459.304 242.083 458.143 244.316C459.304 243.811 460.618 243.713 461.914 244.16C464.622 245.111 466.052 248.063 465.124 250.801C465.027 251.053 464.912 251.285 464.795 251.519C466.052 250.955 467.116 249.888 467.619 248.451Z" fill="white"/>
<path d="M461.894 244.159C460.617 243.712 459.283 243.81 458.123 244.314C458.006 244.548 457.871 244.78 457.794 245.032C456.847 247.751 458.296 250.722 461.004 251.673C462.28 252.119 463.614 252.022 464.775 251.517C464.891 251.284 465.026 251.052 465.104 250.8C466.032 248.081 464.601 245.11 461.894 244.159Z" fill="#262120"/>
<path d="M433.87 247.373C434.817 244.656 433.366 241.685 430.659 240.734C428.204 239.879 425.554 241.005 424.395 243.238C425.554 242.733 426.87 242.636 428.165 243.083C430.872 244.035 432.303 246.985 431.376 249.723C431.279 249.975 431.162 250.208 431.047 250.442C432.322 249.878 433.386 248.81 433.87 247.373Z" fill="white"/>
<path d="M428.163 243.082C426.887 242.635 425.552 242.732 424.393 243.236C424.276 243.47 424.14 243.703 424.064 243.955C423.116 246.673 424.566 249.644 427.273 250.595C428.55 251.042 429.884 250.945 431.045 250.439C431.16 250.207 431.296 249.974 431.374 249.721C432.301 247.003 430.87 244.033 428.163 243.082Z" fill="#262120"/>
</g>
</g>
<path d="M456.582 88.3938C456.859 88.3938 457.104 88.4312 457.318 88.5059C457.532 88.5756 457.714 88.6728 457.864 88.7973C458.015 88.9219 458.129 89.0688 458.207 89.2382C458.284 89.4076 458.323 89.5894 458.323 89.7837C458.323 90.3068 458.034 90.8049 457.456 91.2782L456.502 92.0628H458.25C458.279 92.1176 458.306 92.1873 458.33 92.272C458.36 92.3567 458.374 92.4489 458.374 92.5485C458.374 92.7278 458.335 92.8574 458.257 92.9371C458.18 93.0118 458.078 93.0491 457.952 93.0491H455.424C455.318 92.9745 455.233 92.8798 455.169 92.7652C455.111 92.6457 455.082 92.5062 455.082 92.3468C455.082 92.1774 455.116 92.0354 455.184 91.9208C455.252 91.8013 455.327 91.7066 455.41 91.6369L456.415 90.7551C456.541 90.6455 456.645 90.5484 456.728 90.4637C456.811 90.374 456.876 90.2943 456.925 90.2246C456.978 90.1548 457.014 90.0901 457.034 90.0303C457.058 89.9705 457.07 89.9132 457.07 89.8584C457.07 89.719 457.01 89.6093 456.888 89.5296C456.772 89.4499 456.626 89.4101 456.451 89.4101C456.257 89.4101 456.082 89.4425 455.927 89.5072C455.776 89.567 455.65 89.6317 455.548 89.7015C455.466 89.6417 455.398 89.567 455.344 89.4773C455.291 89.3877 455.264 89.283 455.264 89.1635C455.264 88.9044 455.383 88.7126 455.621 88.5881C455.859 88.4586 456.179 88.3938 456.582 88.3938Z" fill="#002120"/>
<path d="M460.68 88.5583C460.772 88.5283 460.877 88.5034 460.993 88.4835C461.115 88.4636 461.224 88.4536 461.321 88.4536C461.433 88.4536 461.539 88.4661 461.641 88.491C461.748 88.5109 461.843 88.5483 461.926 88.6031C462.008 88.6529 462.074 88.7226 462.122 88.8123C462.171 88.902 462.195 89.0141 462.195 89.1485V91.1362H462.843C462.872 91.191 462.901 91.2633 462.931 91.353C462.96 91.4426 462.974 91.5373 462.974 91.6369C462.974 91.8262 462.933 91.9607 462.85 92.0404C462.768 92.1201 462.664 92.16 462.537 92.16H462.195V93.0417C462.142 93.0517 462.061 93.0642 461.955 93.0791C461.848 93.099 461.746 93.109 461.649 93.109C461.542 93.109 461.447 93.104 461.365 93.094C461.282 93.0841 461.212 93.0617 461.153 93.0268C461.1 92.9869 461.059 92.9322 461.03 92.8624C461.001 92.7926 460.986 92.698 460.986 92.5784V92.16H459.158C459.046 92.1002 458.949 92.013 458.867 91.8984C458.789 91.7789 458.75 91.6344 458.75 91.465C458.75 91.3704 458.762 91.2657 458.786 91.1512C458.811 91.0366 458.852 90.937 458.91 90.8523L460.68 88.5583ZM461.052 89.7314H461.03L460.061 91.1362H461.052V89.7314Z" fill="#002120"/>
<path d="M445.777 98.8738C445.777 94.6908 449.219 91.2998 453.465 91.2998V99.1874H445.777V98.8738Z" fill="#038681"/>
<path d="M445.777 100.018H453.465V106.143C453.465 110.326 450.023 113.717 445.777 113.717V100.018Z" fill="#038681"/>
<path fill-rule="evenodd" clip-rule="evenodd" d="M454.273 92.8788V99.1874H459.62C464.042 99.1874 467.626 95.656 467.626 91.2998H463.563C463.358 93.8568 461.27 95.8663 458.724 95.8663C456.734 95.8663 455.023 94.6374 454.273 92.8788Z" fill="#038681"/>
<path fill-rule="evenodd" clip-rule="evenodd" d="M467.625 90.1559C467.625 85.9729 464.183 82.5819 459.938 82.5819V86.06C461.906 86.5797 463.391 88.3336 463.562 90.4696H467.625V90.1559Z" fill="#038681"/>
<path fill-rule="evenodd" clip-rule="evenodd" d="M459.13 82.5819H445.777C445.777 86.9381 449.362 90.4696 453.784 90.4696H453.886C454.092 87.9125 456.18 85.903 458.725 85.903C458.862 85.903 458.997 85.9088 459.13 85.9201V82.5819Z" fill="#038681"/>
</g>
<defs>
<clipPath id="clip0_1199_8324">
<rect width="733" height="615" fill="white" transform="translate(104)"/>
</clipPath>
</defs>
</svg>
