<svg width="136" height="31" viewBox="0 0 136 31" fill="none" xmlns="http://www.w3.org/2000/svg">
  <path
    d="M16.8415 14.1354C16.8415 14.8262 16.7553 15.4433 16.5829 15.9867C16.4106 16.5301 16.1756 17.0113 15.8779 17.4305C15.5881 17.8419 15.2513 18.1951 14.8675 18.4901C14.4837 18.7851 14.0802 19.0257 13.6572 19.212C13.2421 19.3983 12.8191 19.5341 12.3882 19.6195C11.9653 19.7049 11.5658 19.7476 11.1898 19.7476H4.28085V16.7203H11.1898C11.5814 16.6892 11.9339 16.6116 12.2473 16.4874C12.5684 16.3554 12.8426 16.1808 13.0698 15.9634C13.2969 15.7461 13.4731 15.486 13.5985 15.1833C13.7238 14.8728 13.7865 14.5235 13.7865 14.1354V12.7614C13.7473 12.381 13.6651 12.0317 13.5397 11.7135C13.4144 11.3952 13.2421 11.1236 13.0228 10.8985C12.8112 10.6733 12.5527 10.4987 12.2473 10.3745C11.9418 10.2425 11.5893 10.1765 11.1898 10.1765H4.30435C3.89702 10.1765 3.58761 10.2813 3.37611 10.4909C3.16462 10.7005 3.05887 11.0032 3.05887 11.3991V23.8462H0.00390625V11.3991C0.00390625 10.6229 0.144904 9.96309 0.426902 9.41971C0.716729 8.87634 1.07314 8.43777 1.49614 8.10396C1.92696 7.77019 2.39304 7.52955 2.89437 7.38206C3.3957 7.22682 3.85786 7.1492 4.28085 7.1492H11.1898C11.8791 7.1492 12.4979 7.23846 13.0463 7.41699C13.5946 7.58777 14.0763 7.82063 14.4915 8.11561C14.9145 8.40283 15.2709 8.7366 15.5607 9.11699C15.8584 9.49733 16.1012 9.89707 16.2892 10.3162C16.485 10.7277 16.626 11.1468 16.7122 11.5738C16.7983 11.993 16.8415 12.3888 16.8415 12.7614V14.1354Z"
    fill="#181818" />
  <path
    d="M36.2985 12.7614C36.2985 13.4523 36.2123 14.0694 36.04 14.6128C35.8676 15.1561 35.6326 15.6374 35.335 16.0566C35.0451 16.468 34.7083 16.8212 34.3245 17.1161C33.9407 17.4111 33.5372 17.6556 33.1142 17.8497C32.6991 18.036 32.2761 18.1718 31.8453 18.2572C31.4223 18.3426 31.0228 18.3853 30.6468 18.3853L37.027 23.8462H32.3035L25.9351 18.3853H23.7379V15.358H30.6468C31.0306 15.3269 31.3792 15.2493 31.6925 15.1251C32.0137 14.9931 32.2878 14.8185 32.515 14.6011C32.75 14.3838 32.9301 14.1237 33.0555 13.821C33.1808 13.5105 33.2435 13.1573 33.2435 12.7614V10.8519C33.2435 10.6811 33.22 10.553 33.173 10.4676C33.1338 10.3745 33.079 10.3085 33.0085 10.2697C32.9458 10.2231 32.8753 10.1959 32.797 10.1882C32.7265 10.1804 32.6599 10.1765 32.5973 10.1765H22.5159V23.8462H19.4609V8.67452C19.4609 8.46491 19.5001 8.26699 19.5784 8.08067C19.6567 7.89439 19.7625 7.73136 19.8956 7.59167C20.0367 7.45193 20.2012 7.34327 20.3892 7.26561C20.5772 7.18799 20.7808 7.1492 21.0002 7.1492H32.5973C33.2788 7.1492 33.8545 7.2734 34.3245 7.5218C34.7945 7.7624 35.1744 8.06903 35.4642 8.44162C35.7619 8.80647 35.9734 9.20235 36.0987 9.62928C36.2319 10.0562 36.2985 10.456 36.2985 10.8286V12.7614Z"
    fill="#181818" />
  <path
    d="M57.0492 17.0928C57.0492 18.1097 56.8731 19.0451 56.5206 19.899C56.1681 20.7528 55.6784 21.4903 55.0515 22.1113C54.425 22.7323 53.6811 23.2174 52.8192 23.5667C51.9653 23.9082 51.0333 24.079 50.0226 24.079H45.8868C44.8762 24.079 43.9401 23.9082 43.0786 23.5667C42.2171 23.2174 41.4728 22.7323 40.8463 22.1113C40.2194 21.4903 39.726 20.7528 39.3657 19.899C39.0132 19.0451 38.8369 18.1097 38.8369 17.0928V13.9025C38.8369 12.8934 39.0132 11.9619 39.3657 11.108C39.726 10.2464 40.2194 9.50897 40.8463 8.89573C41.4728 8.27474 42.2171 7.78958 43.0786 7.44028C43.9401 7.09097 44.8762 6.9163 45.8868 6.9163H50.0226C51.0333 6.9163 51.9653 7.09097 52.8192 7.44028C53.6811 7.78958 54.425 8.27474 55.0515 8.89573C55.6784 9.50897 56.1681 10.2464 56.5206 11.108C56.8731 11.9619 57.0492 12.8934 57.0492 13.9025V17.0928ZM53.9943 13.9025C53.9943 13.3048 53.8964 12.7653 53.7003 12.284C53.5126 11.795 53.2423 11.3797 52.8898 11.0381C52.5449 10.6888 52.1262 10.421 51.6325 10.2348C51.1468 10.0407 50.6101 9.94365 50.0226 9.94365H45.8868C45.2917 9.94365 44.747 10.0407 44.2537 10.2348C43.768 10.421 43.3489 10.6888 42.9964 11.0381C42.6439 11.3797 42.3695 11.795 42.1738 12.284C41.9857 12.7653 41.8919 13.3048 41.8919 13.9025V17.0928C41.8919 17.6905 41.9857 18.2339 42.1738 18.723C42.3695 19.2042 42.6439 19.6195 42.9964 19.9688C43.3489 20.3104 43.768 20.5782 44.2537 20.7722C44.747 20.9585 45.2917 21.0517 45.8868 21.0517H49.9993C50.5945 21.0517 51.1351 20.9585 51.6208 20.7722C52.1141 20.5782 52.5372 20.3104 52.8898 19.9688C53.2423 19.6195 53.5126 19.2042 53.7003 18.723C53.8964 18.2339 53.9943 17.6905 53.9943 17.0928V13.9025Z"
    fill="#181818" />
  <path
    d="M74.0036 17.023L63.1232 17.0113V13.9723H74.0036V17.023ZM75.3669 10.1765H63.1232V23.8462H60.0684V8.67452C60.0684 8.46491 60.1077 8.26699 60.1859 8.08067C60.2645 7.89439 60.37 7.73136 60.5031 7.59167C60.6443 7.45193 60.8087 7.34327 60.9968 7.26561C61.1845 7.18799 61.3883 7.1492 61.6076 7.1492H75.3669V10.1765Z"
    fill="#181818" />
  <path d="M80.9132 23.8462H77.8583V7.1492H80.9132V23.8462Z" fill="#181818" />
  <path
    d="M86.3495 3.97436C86.3495 1.77938 88.1451 0 90.3602 0H131.99C134.205 0 136.001 1.77938 136.001 3.97436V27.0256C136.001 29.2206 134.205 31 131.99 31H90.3602C88.1451 31 86.3495 29.2206 86.3495 27.0256V3.97436Z"
    fill="#018780" />
  <path
    d="M109.842 23.8461H94.3711V18.2471C94.3711 17.96 94.4024 17.6574 94.4649 17.3392C94.5355 17.0132 94.6414 16.6912 94.7822 16.373C94.9234 16.0549 95.1034 15.7522 95.3228 15.4651C95.5498 15.1779 95.8197 14.9257 96.1334 14.7085C96.4542 14.4834 96.8224 14.3049 97.2375 14.173C97.6526 14.041 98.1222 13.9751 98.6472 13.9751H105.531C105.946 13.9751 106.251 13.8742 106.447 13.6725C106.651 13.4629 106.753 13.1603 106.753 12.7645V11.4259C106.753 11.0146 106.651 10.7042 106.447 10.4946C106.244 10.2851 105.946 10.1804 105.555 10.1804H95.7455V7.15384H105.555C106.071 7.15384 106.537 7.21981 106.952 7.35172C107.367 7.48363 107.732 7.66212 108.045 7.88719C108.366 8.10447 108.64 8.35668 108.867 8.64383C109.094 8.93093 109.279 9.23358 109.419 9.55177C109.568 9.86217 109.674 10.1804 109.737 10.5063C109.807 10.8244 109.842 11.1232 109.842 11.4026V12.7645C109.842 13.5483 109.697 14.2118 109.408 14.755C109.126 15.2905 108.769 15.7289 108.338 16.0704C107.908 16.4041 107.442 16.6485 106.941 16.8037C106.447 16.9512 105.985 17.0249 105.555 17.0249H98.6472C98.3966 17.0249 98.1968 17.0598 98.048 17.1296C97.8992 17.1995 97.7817 17.2926 97.6955 17.409C97.6173 17.5254 97.5583 17.6574 97.5194 17.8048C97.4801 17.9523 97.4488 18.0997 97.4256 18.2471V20.8196H109.842V23.8461Z"
    fill="white" />
  <path
    d="M127.98 23.8461H124.902V17.0249H114.048C113.829 17.0249 113.625 16.9861 113.437 16.9085C113.249 16.8231 113.085 16.7145 112.944 16.5825C112.81 16.4429 112.705 16.2799 112.626 16.0936C112.548 15.9074 112.509 15.7095 112.509 15.5V7.15384H115.563V13.9751H124.902V7.15384H127.98V23.8461Z"
    fill="white" />
</svg>