<svg width="24" height="22" viewBox="0 0 24 22" fill="none" xmlns="http://www.w3.org/2000/svg">
<path d="M10.3886 22C7.25299 22 4.1181 22 0.98253 22C0.292626 22 0 21.7107 0 21.0275C0 16.9607 0 12.8933 0 8.82657C0 8.14791 0.294626 7.85864 0.988529 7.85798C2.24436 7.85733 3.50018 7.85209 4.75601 7.86322C4.98464 7.86518 5.10463 7.8089 5.19595 7.58835C5.5139 6.81741 5.86252 6.05956 6.19047 5.29254C6.35778 4.90118 6.63841 4.71335 7.07702 4.71466C9.28071 4.7212 11.4844 4.7212 13.6888 4.71466C14.1434 4.71335 14.4407 4.89725 14.6153 5.31152C14.9393 6.07984 15.2879 6.83835 15.6072 7.60798C15.6905 7.80956 15.7971 7.86453 16.0111 7.86257C17.2749 7.85209 18.5394 7.85668 19.8033 7.85733C20.5012 7.85733 20.8004 8.1551 20.8004 8.84489C20.8004 12.9038 20.8004 16.9627 20.8004 21.0216C20.8004 21.7081 20.5012 21.9987 19.7946 21.9987C16.659 21.9987 13.5241 21.9987 10.3886 21.9987V22ZM1.60978 9.42277V20.4143H19.178V9.42277C19.066 9.42277 18.9754 9.42277 18.8847 9.42277C17.6955 9.42277 16.5057 9.41558 15.3165 9.4267C14.8679 9.43063 14.5826 9.24869 14.4107 8.84293C14.0794 8.05955 13.7281 7.28534 13.3941 6.50327C13.3281 6.34882 13.2535 6.28076 13.0695 6.28207C11.2811 6.28992 9.49335 6.28861 7.70493 6.28338C7.54829 6.28338 7.47296 6.32788 7.41164 6.47251C7.08968 7.23298 6.73973 7.98167 6.42977 8.74673C6.23447 9.22775 5.92318 9.44175 5.38525 9.43063C4.22141 9.40641 3.05691 9.42343 1.8924 9.42343L1.60978 9.42277Z" fill="#A1A1A1"/>
<path d="M14.3947 14.1335C14.4013 16.2893 12.6029 18.0674 10.4066 18.0753C8.22153 18.0825 6.39911 16.301 6.39311 14.1531C6.38711 12.0026 8.1922 10.2225 10.3872 10.2153C12.5836 10.2081 14.3873 11.9712 14.3947 14.1335ZM12.7902 14.1302C12.7822 12.8187 11.7244 11.784 10.3959 11.788C9.05941 11.7919 7.98156 12.8534 7.99289 14.1558C8.00422 15.4542 9.07474 16.4987 10.3966 16.502C11.729 16.5052 12.7982 15.4457 12.7902 14.1302Z" fill="#A1A1A1"/>
<path d="M21.5643 0H20.0372V6.28141H21.5643V0Z" fill="#A1A1A1"/>
<path d="M24 3.89005V2.39071H17.6022V3.89005H24Z" fill="#A1A1A1"/>
</svg>
