<svg width="18" height="18" viewBox="0 0 18 18" fill="none" xmlns="http://www.w3.org/2000/svg">
  <path
    d="M18 18H9.00461C7.24712 17.9992 5.52825 17.4848 4.05972 16.5202C2.59119 15.5557 1.43713 14.1831 0.739707 12.5715C0.0422797 10.9599 -0.168062 9.17968 0.13459 7.45015C0.437241 5.72062 1.23967 4.11729 2.44303 2.83766C3.6464 1.55802 5.19815 0.657969 6.90715 0.248354C8.61614 -0.161261 10.4078 -0.0625467 12.0613 0.532339C13.7148 1.12722 15.1581 2.1923 16.2133 3.59638C17.2685 5.00045 17.8896 6.68221 18 8.4345V18ZM9.00461 1.5C7.01352 1.5 5.10398 2.29018 3.69607 3.6967C2.28816 5.10322 1.4972 7.01088 1.4972 9C1.4972 10.9891 2.28816 12.8968 3.69607 14.3033C5.10398 15.7098 7.01352 16.5 9.00461 16.5H16.4985V8.50575C16.3698 6.60699 15.5246 4.82777 14.1336 3.52742C12.7427 2.22707 10.9096 1.50249 9.00461 1.5Z"
    fill="currentColor" />
  <path d="M9.74184 5.25H5.23739V6.75H9.74184V5.25Z" fill="currentColor" />
  <path d="M12.7448 8.25H5.23739V9.75H12.7448V8.25Z" fill="currentColor" />
  <path d="M12.7448 11.25H5.23739V12.75H12.7448V11.25Z" fill="currentColor" />
</svg>