<svg width="18" height="18" viewBox="0 0 18 18" fill="none" xmlns="http://www.w3.org/2000/svg">
  <path fill-rule="evenodd" clip-rule="evenodd"
    d="M0.23964 0.23964C0.55916 -0.07988 1.0772 -0.07988 1.39672 0.23964L9 7.84292L16.6033 0.23964C16.9228 -0.07988 17.4408 -0.07988 17.7604 0.23964C18.0799 0.55916 18.0799 1.0772 17.7604 1.39672L10.1571 9L17.7604 16.6033C18.0799 16.9228 18.0799 17.4408 17.7604 17.7604C17.4408 18.0799 16.9228 18.0799 16.6033 17.7604L9 10.1571L1.39672 17.7604C1.0772 18.0799 0.55916 18.0799 0.23964 17.7604C-0.07988 17.4408 -0.07988 16.9228 0.23964 16.6033L7.84292 9L0.23964 1.39672C-0.07988 1.0772 -0.07988 0.55916 0.23964 0.23964Z"
    fill="currentColor" />
</svg>