<svg width="17" height="17" viewBox="0 0 17 17" fill="none" xmlns="http://www.w3.org/2000/svg">
  <path
    d="M8.43914 0L8.07399 0.22315L0.28401 5.41647L0 5.61933V17H16.8783V5.61933L16.5943 5.41647L8.8043 0.22315L8.43914 0ZM8.43914 1.56205L15.0931 6.00477L9.08831 10.5084V5.92363L10.5692 7.40453L11.5024 6.47136L8.90573 3.8747L8.43914 3.4284L7.97255 3.8747L5.3759 6.47136L6.30907 7.40453L7.78998 5.92363V10.5084L1.7852 6.00477L8.43914 1.56205ZM1.29833 7.26253L8.0537 12.3341L8.43914 12.6181L8.82458 12.3341L15.58 7.26253V15.7017H1.29833V7.26253Z"
    fill="currentColor" />
</svg>