<svg width="22" height="20" viewBox="0 0 22 20" fill="none"
  xmlns="http://www.w3.org/2000/svg">
  <path d="M11.0018 1.65583C12.2585 0.549295 13.8983 -0.0417638 15.5842 0.00411269C17.2702 0.0499892 18.8743 0.729317 20.0668 1.9025C21.2583 3.07436 21.949 4.65017 21.9973 6.30688C22.0456 7.96359 21.4477 9.57571 20.3264 10.8128L10.9996 20L1.67505 10.8128C0.552381 9.57507 -0.045998 7.96157 0.00276204 6.30352C0.0515221 4.64548 0.743722 3.0687 1.93725 1.8969C3.13078 0.725106 4.73508 0.0472049 6.42077 0.00237367C8.10647 -0.0424575 9.74566 0.549183 11.0018 1.65583V1.65583ZM18.5094 3.43118C17.7149 2.6502 16.6466 2.19793 15.5238 2.16715C14.401 2.13637 13.3088 2.52942 12.4712 3.26565L11.0029 4.56173L9.53351 3.26673C8.69547 2.52962 7.60228 2.13614 6.4785 2.16713C5.35472 2.19811 4.28566 2.65121 3.49091 3.43334C2.7037 4.20764 2.24418 5.24671 2.20499 6.34108C2.16581 7.43545 2.54986 8.50375 3.27974 9.33061L11.0007 16.9372L18.7217 9.33169C19.4524 8.5045 19.8368 7.43544 19.7974 6.34029C19.758 5.24515 19.2977 4.20549 18.5094 3.43118Z" fill="currentColor"/>
</svg>
