<svg width="17" height="17" viewBox="0 0 17 17" fill="none" xmlns="http://www.w3.org/2000/svg">
  <path fill-rule="evenodd" clip-rule="evenodd"
    d="M3.5 1.75C2.53921 1.75 1.75 2.53921 1.75 3.5V13.5C1.75 14.4608 2.53921 15.25 3.5 15.25H13.5C14.4608 15.25 15.25 14.4608 15.25 13.5V3.5C15.25 2.53921 14.4608 1.75 13.5 1.75H3.5ZM0.25 3.5C0.25 1.71079 1.71079 0.25 3.5 0.25H13.5C15.2892 0.25 16.75 1.71079 16.75 3.5V13.5C16.75 15.2892 15.2892 16.75 13.5 16.75H3.5C1.71079 16.75 0.25 15.2892 0.25 13.5V3.5ZM4 6C4 5.58579 4.33579 5.25 4.75 5.25H12.25C12.6642 5.25 13 5.58579 13 6C13 6.41421 12.6642 6.75 12.25 6.75H4.75C4.33579 6.75 4 6.41421 4 6ZM4 8.5C4 8.08579 4.33579 7.75 4.75 7.75H12.25C12.6642 7.75 13 8.08579 13 8.5C13 8.91421 12.6642 9.25 12.25 9.25H4.75C4.33579 9.25 4 8.91421 4 8.5ZM4 11C4 10.5858 4.33579 10.25 4.75 10.25H12.25C12.6642 10.25 13 10.5858 13 11C13 11.4142 12.6642 11.75 12.25 11.75H4.75C4.33579 11.75 4 11.4142 4 11Z"
    fill="currentColor" />
</svg>