<svg width="15" height="18" viewBox="0 0 15 18" fill="none" xmlns="http://www.w3.org/2000/svg">
  <path
    d="M7.5 18L6.97974 17.5518C6.26252 16.9483 0 11.513 0 7.53716C0 3.37451 3.35787 0 7.5 0C11.6421 0 15 3.37451 15 7.53716C15 11.513 8.73748 16.9484 8.02323 17.5548L7.5 18ZM7.5 1.62975C4.25506 1.63345 1.62543 4.2761 1.62175 7.53712C1.62175 10.0348 5.4747 14.0249 7.5 15.8511C9.52534 14.0241 13.3782 10.0318 13.3782 7.53712C13.3746 4.2761 10.745 1.63348 7.5 1.62975Z"
    fill="currentColor" />
  <path
    d="M7.5 10.5248C5.85809 10.5248 4.52706 9.1872 4.52706 7.53716C4.52706 5.88712 5.85809 4.54949 7.5 4.54949C9.1419 4.54949 10.4729 5.88712 10.4729 7.53716C10.4729 9.1872 9.14194 10.5248 7.5 10.5248ZM7.5 6.04329C6.67904 6.04329 6.01353 6.7121 6.01353 7.53712C6.01353 8.36214 6.67904 9.03096 7.5 9.03096C8.32095 9.03096 8.98646 8.36214 8.98646 7.53712C8.98646 6.7121 8.32098 6.04329 7.5 6.04329Z"
    fill="currentColor" />
</svg>