<svg width="20" height="20" viewBox="0 0 20 20" fill="none" xmlns="http://www.w3.org/2000/svg">
  <path
    d="M1.1109 6.05C0.376106 4.69783 -0.00594452 3.18224 6.99278e-05 1.64333C-0.000113513 1.32213 0.0949939 1.0081 0.273356 0.740972C0.451717 0.473846 0.705315 0.265636 1.00206 0.142694C1.29879 0.0197511 1.62534 -0.0123979 1.94035 0.0503155C2.25537 0.113029 2.54471 0.267786 2.77174 0.495L7.0634 5.06917C6.80247 5.61879 6.66562 6.21909 6.66257 6.8275C6.66257 6.92167 6.6834 7.0125 6.68924 7.10583L1.66674 1.75083C1.67737 2.97209 1.98725 4.17211 2.56924 5.24583C3.5271 7.08712 4.78454 8.75628 6.29007 10.185L5.1109 11.3683C3.4856 9.83523 2.13297 8.0368 1.1109 6.05ZM10.7517 12.7933L9.4659 14.0808C10.8805 14.7181 12.4305 14.9963 13.9784 14.8908L18.7684 19.9817L19.9817 18.84L14.5892 13.09C13.3083 13.3646 11.9752 13.2615 10.7517 12.7933ZM11.4134 10.9525C11.8821 11.4204 12.5174 11.6832 13.1797 11.6832C13.842 11.6832 14.4772 11.4204 14.9459 10.9525L20.0001 5.89333L18.8251 4.71417L13.7709 9.77417C13.6146 9.93039 13.4027 10.0182 13.1817 10.0182C12.9608 10.0182 12.7488 9.93039 12.5926 9.77417L12.0017 9.185L17.6459 3.53583L16.4684 2.35667L10.8251 8.00667L10.2367 7.4175C10.1593 7.34011 10.0978 7.2482 10.0559 7.14703C10.0139 7.04587 9.99233 6.93743 9.99233 6.82792C9.99233 6.7184 10.0139 6.60996 10.0559 6.5088C10.0978 6.40763 10.1593 6.31573 10.2367 6.23833L15.2909 1.17833L14.1126 0L9.0584 5.06C8.59049 5.52939 8.32774 6.16514 8.32774 6.82792C8.32774 7.49069 8.59049 8.12644 9.0584 8.59583L9.64674 9.185L0.0200699 18.8217L1.19757 20L10.8251 10.3633L11.4134 10.9525Z"
    fill="currentColor" />
</svg>