<svg width="20" height="20" viewBox="0 0 20 20" fill="none" xmlns="http://www.w3.org/2000/svg">
<path d="M10 20C15.5228 20 20 15.5228 20 10C20 4.47715 15.5228 0 10 0C4.47715 0 0 4.47715 0 10C0 15.5228 4.47715 20 10 20Z" fill="black"/>
<path d="M10.7534 12.644C10.779 13.1721 10.8051 13.6772 10.8272 14.1825C10.8431 14.5488 11.1079 14.7084 11.3929 14.8142C11.5992 14.8909 11.8351 14.8853 12.0545 14.9315C12.1185 14.9449 12.1715 15.0101 12.2294 15.0516C12.2158 15.078 12.2024 15.1044 12.1888 15.1308H8.23503C8.19254 15.1308 8.14676 15.1407 8.10799 15.1287C8.02797 15.1037 7.95145 15.0672 7.87349 15.0355C7.94712 14.9994 8.01724 14.9464 8.09499 14.9301C8.30659 14.8857 8.52726 14.8777 8.7335 14.8179C9.17712 14.689 9.34747 14.4384 9.34726 13.9674C9.34726 13.5506 9.34623 13.134 9.3452 12.7172C9.3452 12.7009 9.33901 12.6846 9.33963 12.6885C8.80218 12.5485 8.2639 12.4408 7.7481 12.267C6.76209 11.9345 5.93466 11.3496 5.48321 10.4005C4.83006 9.02718 4.9406 7.69221 5.92373 6.48098C6.53894 5.72307 7.37853 5.33988 8.29277 5.06538C8.36392 5.24872 8.30577 5.31534 8.13892 5.39041C7.29067 5.77132 6.73878 6.42551 6.54347 7.33047C6.24051 8.73412 6.68392 9.93957 7.59384 11.0132C8.01559 11.5109 8.53201 11.8605 9.11669 12.1253C9.18413 12.1558 9.25693 12.1746 9.34747 12.2057V11.838C9.34747 9.87337 9.34747 7.90876 9.34747 5.94436C9.34747 5.37989 9.59536 5.04764 10.1423 4.92142C10.3438 4.87502 10.5663 4.84553 10.7664 4.881C11.2974 4.97484 11.8421 5.05176 12.3443 5.23635C13.7133 5.73956 14.6005 6.6998 14.8622 8.16119C15.093 9.44935 14.7086 10.5498 13.7391 11.4274C13.0801 12.0236 12.276 12.3416 11.4162 12.527C11.2077 12.572 10.9961 12.6015 10.7534 12.644ZM10.7777 12.395C10.8592 12.3868 10.9178 12.3808 10.9763 12.375C11.7679 12.2975 12.4361 11.9526 12.9048 11.3253C13.6279 10.3576 13.7477 9.27054 13.4 8.11892C13.1868 7.41235 12.8312 6.7856 12.3575 6.23041C12.0473 5.86681 11.6856 5.54921 11.1966 5.43145C10.8029 5.33658 10.7777 5.35617 10.7777 5.75874V12.395Z" fill="white"/>
</svg>
