<svg width="20" height="15" viewBox="0 0 20 15" fill="none" xmlns="http://www.w3.org/2000/svg">
  <path
    d="M4.58333 11.6667C5.27369 11.6667 5.83333 11.107 5.83333 10.4167C5.83333 9.72631 5.27369 9.16667 4.58333 9.16667C3.89298 9.16667 3.33333 9.72631 3.33333 10.4167C3.33333 11.107 3.89298 11.6667 4.58333 11.6667Z"
    fill="currentColor" />
  <path
    d="M17.5 0H2.5C1.83696 0 1.20107 0.263392 0.732233 0.732233C0.263392 1.20107 0 1.83696 0 2.5V15H20V2.5C20 1.83696 19.7366 1.20107 19.2678 0.732233C18.7989 0.263392 18.163 0 17.5 0ZM2.5 1.66667H17.5C17.721 1.66667 17.933 1.75446 18.0893 1.91074C18.2455 2.06702 18.3333 2.27899 18.3333 2.5V4.16667H1.66667V2.5C1.66667 2.27899 1.75446 2.06702 1.91074 1.91074C2.06702 1.75446 2.27899 1.66667 2.5 1.66667ZM1.66667 13.3333V5.83333H18.3333V13.3333H1.66667Z"
    fill="currentColor" />
</svg>