<svg width="20" height="20" viewBox="0 0 20 20" fill="none" xmlns="http://www.w3.org/2000/svg">
<path fill-rule="evenodd" clip-rule="evenodd" d="M0.55412 0.554123C0.908917 0.199324 1.39012 0 1.89188 0H4.59457C4.8931 0 5.13511 0.242008 5.13511 0.540541C5.13511 0.839073 4.8931 1.08108 4.59457 1.08108H1.89188C1.67684 1.08108 1.47061 1.16651 1.31856 1.31856C1.1665 1.47062 1.08108 1.67685 1.08108 1.89189V4.5946C1.08108 4.89313 0.839069 5.13514 0.540538 5.13514C0.242007 5.13514 0 4.89313 0 4.5946V1.89189C0 1.39013 0.199323 0.908921 0.55412 0.554123ZM14.8649 0.540541C14.8649 0.242008 15.1069 0 15.4054 0H18.1081C18.6099 0 19.0911 0.199324 19.4459 0.554123C19.8007 0.908922 20 1.39013 20 1.89189V4.5946C20 4.89313 19.758 5.13514 19.4595 5.13514C19.1609 5.13514 18.9189 4.89313 18.9189 4.5946V1.89189C18.9189 1.67685 18.8335 1.47062 18.6814 1.31856C18.5294 1.16651 18.3232 1.08108 18.1081 1.08108H15.4054C15.1069 1.08108 14.8649 0.839073 14.8649 0.540541ZM4.05404 4.59459C4.05404 4.29605 4.29604 4.05405 4.59457 4.05405H8.64861C8.94714 4.05405 9.18915 4.29605 9.18915 4.59459V8.64864C9.18915 8.94717 8.94714 9.18918 8.64861 9.18918H4.59457C4.29604 9.18918 4.05404 8.94717 4.05404 8.64864V4.59459ZM5.13511 5.13513V8.1081H8.10807V5.13513H5.13511ZM10.8109 4.59459C10.8109 4.29605 11.0529 4.05405 11.3514 4.05405H15.4054C15.704 4.05405 15.946 4.29605 15.946 4.59459C15.946 4.89312 15.704 5.13513 15.4054 5.13513H11.8919V6.75675H15.4054C15.704 6.75675 15.946 6.99876 15.946 7.29729C15.946 7.59582 15.704 7.83783 15.4054 7.83783H11.3514C11.0529 7.83783 10.8109 7.59582 10.8109 7.29729V4.59459ZM9.45951 10C9.45951 9.70146 9.70151 9.45945 10 9.45945H15.4054C15.704 9.45945 15.946 9.70146 15.946 10C15.946 10.2985 15.704 10.5405 15.4054 10.5405H10.5406V15.4054C10.5406 15.7039 10.2986 15.9459 10 15.9459H7.29735C6.99882 15.9459 6.75682 15.7039 6.75682 15.4054V11.3513C6.75682 11.0528 6.99882 10.8108 7.29735 10.8108C7.59589 10.8108 7.83789 11.0528 7.83789 11.3513V14.8649H9.45951V10ZM4.59457 10.8108C4.8931 10.8108 5.13511 11.0528 5.13511 11.3513V15.4054C5.13511 15.7039 4.8931 15.9459 4.59457 15.9459C4.29604 15.9459 4.05404 15.7039 4.05404 15.4054V11.3513C4.05404 11.0528 4.29604 10.8108 4.59457 10.8108ZM12.1621 12.7027C12.1621 12.4042 12.4041 12.1622 12.7026 12.1622H15.4053C15.7039 12.1622 15.9459 12.4042 15.9459 12.7027V15.4054C15.9459 15.7039 15.7039 15.9459 15.4053 15.9459H12.7026C12.4041 15.9459 12.1621 15.7039 12.1621 15.4054V12.7027ZM13.2432 13.2432V14.8649H14.8648V13.2432H13.2432ZM0.540538 14.8649C0.839069 14.8649 1.08108 15.1069 1.08108 15.4054V18.1081C1.08108 18.3231 1.1665 18.5294 1.31856 18.6814C1.47061 18.8335 1.67684 18.9189 1.89188 18.9189H4.59457C4.8931 18.9189 5.13511 19.1609 5.13511 19.4595C5.13511 19.758 4.8931 20 4.59457 20H1.89188C1.39013 20 0.908918 19.8007 0.55412 19.4459C0.199323 19.0911 0 18.6099 0 18.1081V15.4054C0 15.1069 0.242007 14.8649 0.540538 14.8649ZM19.4595 14.8649C19.758 14.8649 20 15.1069 20 15.4054V18.1081C20 18.6099 19.8007 19.0911 19.4459 19.4459C19.0911 19.8007 18.6099 20 18.1081 20H15.4054C15.1069 20 14.8649 19.758 14.8649 19.4595C14.8649 19.1609 15.1069 18.9189 15.4054 18.9189H18.1081C18.3232 18.9189 18.5294 18.8335 18.6814 18.6814C18.8335 18.5294 18.9189 18.3231 18.9189 18.1081V15.4054C18.9189 15.1069 19.1609 14.8649 19.4595 14.8649Z" fill="white"/>
</svg>
