<svg width="30" height="20" viewBox="0 0 30 20" fill="none"
  xmlns="http://www.w3.org/2000/svg">
  <path d="M0 18.5183C0.117187 17.8688 0.241406 17.2209 0.349999 16.5699C0.86953 13.4585 1.38515 10.3463 1.90312 7.23411C2.16406 5.6642 2.43046 4.09428 2.68828 2.52437C2.94062 0.989002 4.0953 0.012508 5.69061 0.010205C8.36561 0.00559886 11.0406 0.0086696 13.7164 0.00943728C17.1234 0.00943728 20.5312 0.0378416 23.9382 0.000225075C25.5742 -0.0174317 26.8445 1.00512 27.1093 2.58886C27.5062 4.96253 27.9539 7.327 28.3703 9.69761C28.4859 10.3555 28.0664 10.9382 27.4374 11.038C26.7664 11.1455 26.1937 10.7539 26.0718 10.083C25.6398 7.70547 25.214 5.32718 24.7867 2.9489C24.7078 2.50978 24.5109 2.31479 24.1335 2.31402C23.7554 2.31402 23.5601 2.50057 23.4859 2.94813C22.8804 6.6192 22.2757 10.2895 21.6711 13.9606C21.4 15.6065 21.1281 17.2532 20.8554 18.8991C20.757 19.4971 20.3453 19.874 19.732 19.9239C19.6156 19.9331 19.4976 19.9331 19.3812 19.9331C13.4156 19.9331 7.45077 19.9278 1.48515 19.9408C0.767186 19.9424 0.257031 19.7167 0 19.0373C0 18.8645 0 18.691 0 18.5183ZM18.6914 17.6155C19.5312 12.5173 20.3687 7.43217 21.2093 2.32784C21.1093 2.32093 21.0429 2.31249 20.9765 2.31249C15.8789 2.31249 10.7812 2.31095 5.68436 2.31249C5.25702 2.31249 5.06874 2.47601 4.99686 2.90207C4.81483 3.9799 4.63827 5.05926 4.45858 6.13786C3.89687 9.51567 3.33437 12.8927 2.77343 16.2705C2.69999 16.7119 2.63281 17.1549 2.55937 17.6155H18.6914Z" fill="currentColor"/>
  <path d="M30 19.0948C29.7359 19.7865 29.2125 20.016 28.4852 19.9991C27.1969 19.9692 25.9078 19.9938 24.6188 19.9876C24.4156 19.9869 24.2039 19.9776 24.0117 19.9216C23.4766 19.7658 23.1422 19.2353 23.2102 18.6948C23.2813 18.1329 23.75 17.7022 24.3484 17.6922C25.2461 17.6777 26.1445 17.6876 27.043 17.6869C27.1594 17.6869 27.275 17.6869 27.4281 17.6869C27.3406 17.1817 27.2578 16.7035 27.1734 16.2252C27.1305 15.9795 27.0844 15.7347 27.0367 15.4898C26.8953 14.7528 27.2758 14.1363 27.9422 14.0227C28.6516 13.9022 29.2117 14.3213 29.3461 15.0752C29.5453 16.1891 29.743 17.303 29.9437 18.4162C29.9539 18.4707 29.9805 18.5221 30 18.5743V19.0948Z" fill="currentColor"/>
  <path d="M11.8281 8.81936C13.3406 8.81936 14.8523 8.81322 16.3648 8.82166C17.2156 8.82627 17.7781 9.56709 17.5156 10.3256C17.3656 10.7601 17.0507 11.0249 16.5835 11.0978C16.4593 11.117 16.3312 11.1216 16.2046 11.1216C13.2874 11.1232 10.3703 11.124 7.45386 11.1216C6.73355 11.1216 6.29527 10.8292 6.13668 10.258C5.95152 9.59012 6.41636 8.90534 7.11714 8.83472C7.38745 8.80785 7.66245 8.82013 7.93589 8.81936C9.23354 8.81783 10.5304 8.81936 11.8281 8.81936Z" fill="currentColor"/>
</svg>
