<svg width="24" height="19" viewBox="0 0 24 19" fill="none" xmlns="http://www.w3.org/2000/svg">
  <path
    d="M2.77878 5.9375H21.2212L20.2 2.375H3.83006L2.77878 5.9375ZM5.93262 10.6875H18.0674L17.767 8.3125H6.26302L5.93262 10.6875ZM3.73995 19C3.37951 19 3.08395 18.8666 2.85327 18.5998C2.62339 18.3322 2.52848 18.0203 2.56852 17.6641L3.8601 8.3125H1.18684C0.786356 8.3125 0.471173 8.15417 0.241293 7.8375C0.0106123 7.52083 -0.054667 7.17448 0.0454549 6.79844L1.75754 0.860937C1.83764 0.603646 1.97781 0.395833 2.17805 0.2375C2.37829 0.0791664 2.61859 0 2.89893 0H21.1011C21.3814 0 21.6217 0.0791664 21.8219 0.2375C22.0222 0.395833 22.1624 0.603646 22.2425 0.860937L23.9545 6.79844C24.0547 7.17448 23.9894 7.52083 23.7587 7.8375C23.5288 8.15417 23.2136 8.3125 22.8132 8.3125H20.1699L21.4315 17.6641C21.4715 18.0203 21.3766 18.3322 21.1467 18.5998C20.916 18.8666 20.6205 19 20.26 19C19.9597 19 19.6946 18.9058 19.4647 18.7174C19.234 18.5297 19.0986 18.2875 19.0586 17.9906L18.3978 13.0625H5.60222L4.94141 17.9906C4.90136 18.2875 4.766 18.5297 4.53532 18.7174C4.30544 18.9058 4.04032 19 3.73995 19Z"
    fill="currentColor" />
</svg>