<svg width="24" height="20" viewBox="0 0 24 20" fill="none" xmlns="http://www.w3.org/2000/svg">
<path d="M2.18294 6.51341C2.18294 10.0958 5.13861 13.0268 8.75109 13.0268C12.3636 13.0268 15.3192 10.0958 15.3192 6.51341C15.3192 2.93103 12.3636 0 8.75109 0C5.13861 0 2.18294 2.93103 2.18294 6.51341ZM13.7738 6.51341C13.7738 9.25287 11.5136 11.4943 8.75109 11.4943C5.9886 11.4943 3.72839 9.25287 3.72839 6.51341C3.72839 3.77395 5.9886 1.53257 8.75109 1.53257C11.5136 1.53257 13.7738 3.77395 13.7738 6.51341Z" fill="black"/>
<path d="M1.10113 20C3.14885 17.9693 5.85338 16.8582 8.75109 16.8582C11.6488 16.8582 14.3533 17.9693 16.401 20L17.5022 18.908C15.1647 16.6092 12.0545 15.3257 8.75109 15.3257C5.4477 15.3257 2.33749 16.6092 0 18.908L1.10113 20Z" fill="black"/>
<path d="M19.916 14.245H17.1933V12.955H19.916V10.195H21.2773V12.955H24V14.245H21.2773V17.005H19.916V14.245Z" fill="black"/>
</svg>
