<svg width="24" height="20" viewBox="0 0 24 20" fill="none"
  xmlns="http://www.w3.org/2000/svg">
  <path fill-rule="evenodd" clip-rule="evenodd" d="M8.30769 1.81818C7.24683 1.81818 6.22941 2.23322 5.47927 2.972C4.72912 3.71078 4.30769 4.71278 4.30769 5.75758C4.30769 6.80237 4.72912 7.80437 5.47927 8.54315C6.22941 9.28193 7.24683 9.69697 8.30769 9.69697C9.36856 9.69697 10.386 9.28193 11.1361 8.54315C11.8863 7.80437 12.3077 6.80237 12.3077 5.75758C12.3077 4.71278 11.8863 3.71078 11.1361 2.972C10.386 2.23322 9.36856 1.81818 8.30769 1.81818ZM4.17384 1.68635C5.2702 0.6066 6.7572 0 8.30769 0C9.85819 0 11.3452 0.6066 12.4415 1.68635C13.5379 2.76611 14.1538 4.23057 14.1538 5.75758C14.1538 7.28458 13.5379 8.74904 12.4415 9.8288C11.3452 10.9086 9.85819 11.5152 8.30769 11.5152C6.7572 11.5152 5.2702 10.9086 4.17384 9.8288C3.07747 8.74904 2.46154 7.28458 2.46154 5.75758C2.46154 4.23057 3.07747 2.76611 4.17384 1.68635ZM14.7692 0.909091C14.7692 0.407014 15.1825 0 15.6923 0C17.2428 0 18.7298 0.6066 19.8262 1.68635C20.9225 2.76611 21.5385 4.23057 21.5385 5.75758C21.5385 7.28458 20.9225 8.74904 19.8262 9.8288C18.7298 10.9086 17.2428 11.5152 15.6923 11.5152C15.1825 11.5152 14.7692 11.1081 14.7692 10.6061C14.7692 10.104 15.1825 9.69697 15.6923 9.69697C16.7532 9.69697 17.7706 9.28193 18.5207 8.54315C19.2709 7.80437 19.6923 6.80237 19.6923 5.75758C19.6923 4.71278 19.2709 3.71078 18.5207 2.972C17.7706 2.23322 16.7532 1.81818 15.6923 1.81818C15.1825 1.81818 14.7692 1.41117 14.7692 0.909091ZM2.57386 14.9057C4.0817 13.9158 6.11159 13.3333 8.30769 13.3333C10.5038 13.3333 12.5337 13.9158 14.0415 14.9057C15.543 15.8914 16.6154 17.3531 16.6154 19.0909C16.6154 19.593 16.2021 20 15.6923 20C15.1825 20 14.7692 19.593 14.7692 19.0909C14.7692 18.1499 14.1887 17.1874 13.0175 16.4186C11.8528 15.6539 10.1904 15.1515 8.30769 15.1515C6.42502 15.1515 4.7626 15.6539 3.59784 16.4186C2.42671 17.1874 1.84615 18.1499 1.84615 19.0909C1.84615 19.593 1.43288 20 0.923077 20C0.413276 20 0 19.593 0 19.0909C0 17.3531 1.07237 15.8914 2.57386 14.9057ZM17.2555 14.3087C17.3726 13.8201 17.8697 13.5175 18.3659 13.6328C21.3932 14.3366 24 16.3438 24 19.0909C24 19.593 23.5867 20 23.0769 20C22.5671 20 22.1538 19.593 22.1538 19.0909C22.1538 17.615 20.6499 16.0319 17.9418 15.4024C17.4456 15.287 17.1383 14.7974 17.2555 14.3087Z" fill="currentColor"/>
</svg>
