<svg width="17" height="20" viewBox="0 0 17 20" fill="none" xmlns="http://www.w3.org/2000/svg">
  <path
    d="M2.12031 6.51341C2.12031 10.0958 4.99117 13.0268 8.5 13.0268C12.0088 13.0268 14.8797 10.0958 14.8797 6.51341C14.8797 2.93103 12.0088 0 8.5 0C4.99117 0 2.12031 2.93103 2.12031 6.51341ZM13.3786 6.51341C13.3786 9.25287 11.1832 11.4943 8.5 11.4943C5.81678 11.4943 3.62141 9.25287 3.62141 6.51341C3.62141 3.77395 5.81678 1.53257 8.5 1.53257C11.1832 1.53257 13.3786 3.77395 13.3786 6.51341Z"
    fill="currentColor" />
  <path
    d="M1.06954 20C3.0585 17.9693 5.68543 16.8582 8.5 16.8582C11.3146 16.8582 13.9415 17.9693 15.9305 20L17 18.908C14.7296 16.6092 11.7086 15.3257 8.5 15.3257C5.29139 15.3257 2.27042 16.6092 0 18.908L1.06954 20Z"
    fill="currentColor" />
</svg>