<svg xmlns="http://www.w3.org/2000/svg" width="351" height="295" fill="none" viewBox="0 0 351 295"><g clip-path="url(#a)"><mask id="b" width="351" height="295" x="0" y="0" maskUnits="userSpaceOnUse" style="mask-type:luminance"><path fill="#fff" d="M351 0H0v295h351z"/></mask><g mask="url(#b)"><mask id="c" width="351" height="352" x="0" y="0" maskUnits="userSpaceOnUse" style="mask-type:luminance"><path fill="#fff" d="M351 0H0v351.592h351z"/></mask><g mask="url(#c)"><path fill="#5486E0" d="M143.684 160.909s-30.008 19.175-30.223 34.005c-.181 12.243 11.988 62.844 11.988 62.844l33.29 8.851 33.067-9.296s40.225-40.38 36.899-51.672c-3.325-11.284-48.525-44.389-48.525-44.389z"/><path fill="#FBBB9D" d="M143.219 135.394c.25.985.473 25.515.473 25.515s7.021 12.586 18.673 12.586c11.653 0 17.814-12.244 17.814-12.244l1.203-23.107z"/><path fill="#353338" d="M187.759 94.552c.326.488 4.185 16.458-3.635 32.06-7.829 15.602-5.217-27.143-5.217-27.143"/><path fill="#E59E85" d="m143.115 135.771 38.034 4.506s.619-3.007-.163 4.678c-8.233 15.362-26.691 17.667-37.407 6.469z"/><path fill="#FBBB9D" d="M139.534 101.444c.026 1.105 4.709 11.618 3.721 27.691s2.535 22.807 21.079 22.782c17.934-.026 20.083-15.113 20.083-28.471 0-13.357.498-43.018-18.597-39.308-19.094 3.71-26.527 7.17-26.286 17.306"/><path fill="#353338" d="M137.651 108.243s2.123 28.444 5.543 28.282c3.421-.163 1.633-29.91 1.633-29.91z"/><path fill="#353338" d="M138.433 116.185s-10.08-13.134-4.09-23.356c4.339-7.402 12.108-5.552 12.108-5.552s28.246-17.735 41.574-7.745c14.394 10.787 1.796 23.185-6.523 24.324s-28.203-4.55-28.203-4.55-5.731 18.498-14.866 16.879"/><path fill="#543732" d="M150.102 110.514c-.507.351-.275 1.156.344 1.216 2.535.257 8.653.728 8.739-.582.086-1.406-6.763-2.254-9.083-.634"/><path fill="#E2BFBF" d="m217.003 184.127-1.521-2.073c5.224-3.796 10.587-13.066 10.733-23.441.086-6.332-1.779-15.405-11.197-22.662-14.97-11.541-19.636-22.293-15.614-35.933 1.108-3.77 2.492-7.18 3.66-10.007-1.547-.61-2.698-1.671-3.368-3.11-1.495-3.222-.155-6.358 1.71-7.9 1.736-1.431 3.944-1.594 5.611-.403 2.398 1.705 1.496 4.841-.369 9.459h.094c3.695 0 8.216-1.816 10.046-3.093l1.478 2.108c-2.2 1.533-7.949 3.924-12.658 3.504-1.238 2.973-2.612 6.332-3.738 10.161-2.595 8.791-2.879 19.612 14.712 33.183 10.26 7.908 12.297 17.821 12.194 24.735-.146 11.729-6.205 21.428-11.773 25.472M204.56 80.354c-.654 0-1.22.395-1.496.618-1.134.933-1.933 2.853-1.014 4.84.396.848 1.049 1.44 2.003 1.808 1.375-3.358 2.414-6.272 1.477-6.94a1.6 1.6 0 0 0-.97-.326"/><path fill="#543732" d="M168.124 110.89c.051-1.713 10.492-.934 10.286.883-.181 1.568-10.338.831-10.286-.883"/><path fill="#EFA689" d="M165.013 122.105c.429.6 2.706 3.059 1.976 4.978-.851 2.236-4.503 3.384-6.213 3.376 1.28-.849 2.664-1.834 3.042-3.325.267-1.045.215-2.064-.008-3.127-.284-1.31-1.075-4.369-1.16-4.918-.095-.634.352-1.037.704-.188.49 1.165.868 2.107 1.659 3.204"/><path fill="#D17D62" d="M156.676 134.717c-.095-.154 5.139 3.658 12.047-.06 0 0-5.869 9.69-12.047.06"/><path fill="#537CC7" d="m63.62 137.767 33.608 6.881s-14.454 46.213-8.25 46.959c17.788 2.133 43.31-22.379 43.31-22.379l-27.627 43.164s-20.169 7.677-30.627 3.985c-21.311-7.523-10.415-78.61-10.415-78.61"/><path fill="#537CC7" d="M39.824 178.147c0 .659 4.245 63.907 26.442 62.133s48.603-34.083 48.603-34.083l2.896-19.911S80.909 216.599 73.14 213.72 61.6 172.561 61.6 172.561z"/><path fill="#FBBB9D" d="M94.394 143.748c.129-.471 7.356-9.425 10.587-12.646 1.392-1.388 4.847-4.995 8.885-9.236 4.323-4.532 6.394-7.608 9.083-9.819a1.536 1.536 0 0 0-.197-2.51c-1.951-1.165-5.62-2.022-11.189 1.971-8.816 6.314-12.555 11.712-13.878 8.996-.601-1.243-5.852-8.285-9.994-15.628-1.676-2.973-3.97-5.775-5.852-8.397-3.644-5.089-4.846-7.162-7.682-5.688-2.99 1.56-1.444 4.678 1.237 10.153 3 6.125 6.506 12.346 6.506 12.346s-6.29-8.894-9.298-7.146c-3.017 1.748.18 7.249.18 7.249s-3-2.999-4.976-1.312c-1.976 1.68 1.479 6.144 1.479 6.144s-3.902-2.965-5.105.274 4.924 8.748 8.318 13.031c2.424 3.059 3.61 8.885 3.61 8.885z"/><path fill="#EFA689" d="M70.014 128.575s1.71 1.165 4.168-.009c2.448-1.174-.19-4.832-.19-4.832s2.475 2.039 4.624.943c2.148-1.089.481-4.653.481-4.653s2.096 1.662 3.97.574c1.873-1.088.627-4.146.627-4.146s9.023 4.24-.274 12.208c-3.206 2.742-7.88 6.306-13.406-.085"/><path fill="#43464C" d="M107.627 127.718c-5.07-1.337-8.095-6.538-6.755-11.584 1.341-5.055 6.557-8.071 11.619-6.734 5.069 1.336 8.094 6.537 6.754 11.583-1.341 5.046-6.557 8.071-11.618 6.735m3.669-13.863c-2.595-.686-5.267.865-5.955 3.453s.868 5.252 3.463 5.937 5.267-.865 5.955-3.453c.696-2.587-.859-5.252-3.463-5.937"/><path fill="#537CC7" d="M248.455 121.763s-.069 51.09-12.237 56.607c-13.276 6.024-39.942-8.242-39.942-8.242s1.144 28.779 2.278 28.779c1.143 0 66.967 27.717 66.967 27.717s11.386-67.745 12.727-89.156c-10.621-6.049-29.793-15.705-29.793-15.705"/><path fill="#537CC7" d="M255.74 247.007c34.063 7.213 53.621-78.858 53.621-78.858l-24.43-10.984s-15.812 54.928-20.599 57.318c-4.786 2.391-47.425-29.61-47.425-29.61"/><path fill="#43464C" d="M83.375 119.527c-5.01-1.319-8.01-6.469-6.686-11.464s6.48-7.994 11.498-6.666c5.01 1.32 8.009 6.469 6.685 11.464-1.323 5.004-6.479 7.994-11.497 6.666M87 105.87a4.786 4.786 0 0 0-5.835 3.384c-.679 2.537.85 5.141 3.394 5.818s5.157-.849 5.835-3.384A4.76 4.76 0 0 0 87 105.87"/><path fill="#43464C" d="m93.235 116.314 14.256-24.076s9.565-7.282 12.417-16.159c.903-2.818.576-6.125-.507-9.45-.12-.377-.627-.436-.816-.094-2.011 3.693-7.201 15.25-12.821 22.876l-12.778 17.324z"/><path fill="#43464C" d="M110.12 63.99c.481-.283 1.083.12.997.669-.714 4.6-3.085 20.082-3.275 22.353-.223 2.664-1.039 23.432-1.039 23.432l-5.783 5.407 3.299-24.65c.009 0-6.281-20.04 5.801-27.21"/><path fill="#6E737A" d="M107.575 92.235a1.644 1.644 0 0 0-1.141-2.03 1.65 1.65 0 0 0-2.036 1.139 1.65 1.65 0 0 0 3.177.891"/><path fill="#5486E0" d="m210.525 198.06 9.487 41.057s-18.192 13.793-8.216 24.932c3.747 4.18 35.499 19.123 47.031 8.096 20.435-19.543-11.738-64.309-46.971-90.313-13.473-9.947-25.96-16.929-32.396-19.636-10.166 14.265 26.536 63.572 26.536 63.572l28.753-10.847"/><path fill="#FBBB9D" d="M114.371 109.88s-6.333 4.395-6.909 5.174c-.584.78 2.543 4.876 2.543 4.876l3.394 2.09 6.798-7.402-1.555-2.383zm-37.173-5.484 4.314 8.122 7.785-4.901-5.19-8.045z"/><path fill="#FFCCB8" d="M118.669 116.254s-1.822-.883-1.083-2.613c.739-1.731 4.606-4.318 4.606-4.318s.842-.009 1.314 1.294c.568 1.541-4.837 5.637-4.837 5.637"/><path fill="#FF6F43" d="M138.329 233.178s-7.064 9.296-17.892 11.523l-2.569 6.915s-88.674 16.064-78.809 49.658c11.661 39.712 114.454 4.61 114.454 4.61s89.491 28.916 103.962 2.15c15.631-28.907-65.662-50.73-65.662-50.73s-6.823-10.366-8.498-19.859m-51.034-68.225c0 .899 1.16 31.401 1.16 31.401l8.344-1.157-2.552-35.505zm50.924-6.957-2.698 32.343 7.983.24 2.354-28.548z"/><path fill="#FF6F43" d="M133.251 193.912c.825 0 55.237.377 55.237.377l-5.31 43.164-49.721 1.859z"/><path fill="#ED6343" d="m150.249 271.124 51.586 12.364a.7.7 0 0 1 .249.111l9.925 6.914c.671.463 1.478-.343 1.014-1.011l-4.426-6.366c-.352-.514.061-1.199.68-1.139l10.217 1.105c.799.086 1.126-1.003.412-1.371l-11.3-5.792-.129-.051-44.419-13.22a.77.77 0 0 0-.55.051l-13.431 7.06c-.592.309-.481 1.191.172 1.345m-44.427 4.319L75.78 286.675a.6.6 0 0 1-.206.043l-15.021.797c-.774.043-.911 1.122-.172 1.353l10.888 3.385a.684.684 0 0 1 .378 1.028l-4.09 6.451c-.387.609.309 1.328.936.969l11.902-6.872a.8.8 0 0 1 .197-.077l44.29-10.058c.67-.154.73-1.08.086-1.32l-18.665-6.931a.67.67 0 0 0-.481 0"/><path fill="#EFA689" d="M24.866 150.139c-6.892-1.199-10.656-.377-10.562 3.007.13 4.755 8.533 4.01 10.94 4.463a427 427 0 0 0-.378-7.47"/><path fill="#AA693D" d="m148.144 228.552.275 45.965a2.96 2.96 0 0 0 3.051 2.939l70.464-2.013a2.957 2.957 0 0 0 2.879-3.068l-1.667-45.965a2.97 2.97 0 0 0-3.05-2.854l-69.073 2.014a2.965 2.965 0 0 0-2.879 2.982"/><path fill="#563620" d="M182.723 276.994a.425.425 0 0 1-.43-.429c0-19.123.043-51.295.361-51.921a.424.424 0 0 1 .576-.188.42.42 0 0 1 .215.506c-.241 1.499-.293 37.723-.293 51.603a.43.43 0 0 1-.429.429"/><path fill="#563620" d="M148.582 249.987a.428.428 0 0 1-.009-.857l75.183-1.353c.24.017.43.18.438.42a.43.43 0 0 1-.421.437zm6.274 20.28v3.427l16.491-.171v-3.667zm2.139-1.593c.043-.18.249-10.924.249-10.924l-2.312.463 3.695-5.21 3.275 5.21-2.243-.6-.181 10.992zm8.361-.445 2.631.042-.044-10.204 1.96.292-3.275-5.638-3.128 5.603 2.088-.351zm17.538-43.268a.4.4 0 0 1-.197-.051h-.086a.42.42 0 0 1-.352-.249c-1.693-.959-7.073-4.249-7.115-7.068-.018-.891.481-1.628 1.461-2.202 1.022-.591 1.976-.668 2.835-.214 2.002 1.036 2.948 4.78 3.36 7.188.851-2.75 2.544-7.299 4.597-7.865.456-.128 1.152-.12 1.874.609.627.634.903 1.396.817 2.27-.241 2.322-3.137 4.918-4.993 6.366l10.346-1.893a.434.434 0 0 1 .498.342.43.43 0 0 1-.344.497l-12.202 2.236a.5.5 0 0 1-.267-.034.5.5 0 0 1-.232.068m4.951-9.664a.8.8 0 0 0-.224.034c-1.839.497-3.695 6.049-4.417 8.731.868-.592 5.74-4.044 6.024-6.769a1.86 1.86 0 0 0-.567-1.576c-.335-.334-.602-.42-.816-.42m-9.574.454c-.386 0-.79.128-1.237.385-.705.412-1.04.883-1.031 1.448.026 1.937 3.807 4.618 6.119 6.006-.318-2.416-1.238-6.699-3.077-7.651a1.7 1.7 0 0 0-.774-.188"/><path fill="#FBBB9D" d="m36.165 172.621 3.463 6.023 17.917-4.832-7.235-22.371a31 31 0 0 1-.653-2.331c-1.032-4.301-4.606-16.329-5.569-21.778-.232-1.328-1.805-1.946-2.87-1.106-2.045 1.602-3.188 5.552-3.102 8.696.129 4.447 1.959 14.651 1.959 14.651s-1.263.694-4.408.549c.249 4.275-4.056 14.993.498 22.499"/><path fill="#EFA689" d="M34.953 155.135c.258 0 12.667 8.361 3.162 17.914-9.495 9.554-5.473-15.695-5.473-15.695"/><path fill="#6B8280" d="M16.616 148.829s1.917 9.098-3.093 16.27c-.335.488-1.083 1.559.06 2.365.85.599 2.028-.446 2.449-.943 2.681-3.213 5.663-9.365 5.225-16.45-.353-5.706-4.64-1.242-4.64-1.242"/><path fill="#43464C" d="M40.822 178.712c-4.83-7.968-5.689-20.322-5.362-20.871l-4.529.197-5.388-.334c.335.548.602 13.152-4.047 21.223-3.36 5.825-6.05 8.867-6.144 14.085-.18 10.032 7.682 12.714 15.09 12.628 7.673-.085 15.897-1.884 16.19-12.748.128-4.858-2.33-8.431-5.81-14.18"/><path fill="#F7F7F7" d="m39.258 142.59-22.35.197-.37 6.615 5.207.95c1.23.206 2.699 1.483 2.982 2.691l.172 4.824a1.08 1.08 0 0 0 1.091 1.062l8.817-.137c.584-.009 1.074-.472 1.28-1.011l.103-6.212c.026-.908 1.049-1.49 1.934-1.593l.954-.103c1.847-.206 3.446-1.885 3.549-3.735.12-1.98-1.4-3.565-3.369-3.548"/><path fill="#6B8280" d="M16.555 142.788a3.287 3.287 0 0 0-3.257 3.102 3.276 3.276 0 0 0 2.742 3.419l.507.086.37-6.615z"/><path fill="#5486E0" d="M132.193 169.486s-84.816 63.598-65.781 91.897 63.427-56.024 63.427-56.024z"/><path fill="#FBBB9D" d="M14.251 154.252c-.696-1.98-.129-4.833 2.32-4.789 1.444.025 3.223.162 5.173.83 5.174 1.757 3.36 7.309-.868 6.923-2.277-.206-5.663-.222-6.625-2.964m10.992 3.35c-.43-.017-4.838-.146-4.709 3.024s6.462 2.545 8.241 2.074c1.779-.463 3.257-4.884-3.532-5.098"/><path fill="#FBBB9D" d="M24.46 162.083s-4.287-.437-4.674 2.476 9.865 5.286 10.51 1.859-5.835-4.335-5.835-4.335"/><path fill="#FBBB9D" d="M23.79 166.983s-3.506-.068-3.437 2.46c.068 2.519 7.08 4.437 7.845 2.133.903-2.716-2.784-4.721-4.408-4.593"/><path fill="#5486E0" d="M108.202 199.463s-52.083 44.887-39.589 65.055 79.798-25.961 79.798-25.961l-16.405-20.108z"/><path fill="#B56523" d="m133.431 186.183 15.02 18.918 6.514-6.255L139.695 181"/><path fill="#FBBB9D" d="M141.019 213.369c.558-2.357 1.177-15.362 1.324-15.782 0 0 2.543 2.664 4.717 4.875 1.805 1.833 6.221-1.825 6.969-4.746.207-.823-.103-3.899-.103-3.899l3.729 1.56a5.17 5.17 0 0 1 2.828 2.878l1.486 3.727 1.307.394a6.28 6.28 0 0 1 4.287 4.524l.482 1.996.67.378a5.12 5.12 0 0 1 2.595 4.9 13.5 13.5 0 0 1-2.844 7.197l-.318.403a21.03 21.03 0 0 1-10.123 7.008l-13.715 5.021-6.548-18.558z"/><path fill="#FBBB9D" d="M154.03 197.716c-1.427-1.723-4.262-4.755-5.5-6.221 2.793-1.859 8.499-5.457 9.367-5.569 1.031-.128 4.511 3.427-3.807 11.738a.3.3 0 0 0-.06.052"/><path fill="#5486E0" d="M124.237 218.432s16.997-5.183 16.791-5.054c-.207.128 9.452 24.692 9.452 24.692l-11.884 6.743z"/><path fill="#EDA58A" d="M79.896 271.047s-1.392-4.061 2.355-5.132c3.514-1.003 8.258.591 9.435.48 1.186-.103-11.79 4.652-11.79 4.652"/><path fill="#FBBB9D" d="M127.15 283.18s-26.278-4.893-35.232-5.544-10.484.291-11.773-1.559c-1.47-2.1-2.509-6.992 6.179-8.799a27 27 0 0 1 3.377-.497c1.89-.138 3.704-.763 5.216-1.894 3.042-2.288 8.524-4.952 14.368-4.549 7.725.531 10.827.933 15.691-1.046 4.967-2.021 10.827-7.736 16.834-6.177 7.348 1.911 6.557 17.564 6.557 17.564z"/><path fill="#FFE9E1" d="M87.741 277.284s-.928-3.709-8.318-2.51c0 0 .55 2.459 2.904 2.562 2.346.112 5.414-.052 5.414-.052"/><path fill="#3A3632" d="m129.498 191.881 19.395-15.739c.722-.591.456-1.748-.455-1.954l-9.341-2.167a4.23 4.23 0 0 0-3.326.617l-14.222 9.587a2.763 2.763 0 0 0-.524 4.129l4.64 5.218a2.793 2.793 0 0 0 3.833.309"/><path fill="#537CC7" d="m133.123 215.58-51.052 23.639 31.245-28.557z"/><path fill="#FBBB9D" d="M248.559 122.234s-6.738-9.193-10.364-15.944c-1.444-2.691-.447-6.075 2.251-7.498 3.936-2.072 7.185-2.741 7.185-2.741s-.559-26.594 5.103-26.157c4.951.385 4.538 22.781 4.538 22.781s1.048-5.029 4.82-3.684c3.825 1.363 2.871 7.96 2.871 7.96s1.77-4.396 4.52-3.359c3.798 1.431 2.054 8.996 2.054 8.996s2.458-3.17 5.233-1.122c2.595 1.91.43 7.977-2.251 14.813-2.681 6.838-5.887 15.902-5.887 15.902z"/><path fill="#EFA689" d="M247.604 96.043s7.716-3.367 8.386.565c.679 3.941-7.424 8.071-7.424 8.071s3.239 7.874 9.495 9.664c7.605 2.177 16.001-.916 18.407-3.272-4.82 1.893-7.175-1.997-6.153-5.064 0 0-8.051 4.549-7.003-1.431 0 0-3.859 4.036-5.783 2.117-1.925-1.92-.576-10.573-.576-10.573l.241-5.2z"/><path fill="#6E737A" d="M322.142 73.647c.275-1.56 1.323-2.707 2.656-3.385-3.773-4.48-10.587-8.567-10.587-8.567s-17.032-.96-20.006 4.01c2.974 7.487 19.163 11.686 30.618 12.689.137-1.191-2.887-3.556-2.681-4.747"/><path fill="#FBBB9D" d="m290.724 159.898-2.931-18.661s-3.205-10.864-1.168-14.479c1.924-3.41 8.85-7.788 13.86-7.9.525-.009.946.412.903.926-.361 4.977-7.081 6.065-7.081 9.912 0 4.07 1.847 10.77 7.966 10.093s15.235-16.236 12.073-17.504c-2.672-1.071-6.066-2.073-5.431-5.354a.66.66 0 0 1 .679-.549c1.667.077 4.649.334 8.688 1.097 5.637 1.054 3.033 8.524.086 16.21 0 0 8.834-20.785 11.558-19.2 2.716 1.584-.223 9.716-.223 9.716s2.491-2.939 4.528-.454-3.076 10.384-3.076 10.384 3.935-3.676 5.912-.84c3.016 4.327-29.114 34.057-29.114 34.057z"/><path fill="#D2D1E0" d="M326.155 78.359s-8.353-5.93-13.028-8.389c-7.2-3.786-13.559-5.243-18.922-4.095 1.736-6.811 12.95-14.933 26.072-11.515 15.373 3.993 5.878 23.999 5.878 23.999"/><path fill="#D2D1E0" d="m321.118 74.82-13.388 29.585-15.949 40.456a2.1 2.1 0 0 0 .868 2.57 2.123 2.123 0 0 0 3.033-.942l30.498-68.225zm-27.189 71.224a.85.85 0 0 1-.851-.849c0-.462.387-.848.851-.848.473 0 .851.386.851.848a.85.85 0 0 1-.851.849"/><path fill="#6E737A" d="M321.118 74.82s-23.426-16.201-26.914-9.116c-3.464 7.043 23.047 12.45 25.272 12.732"/><path fill="#FFB031" d="m224.78 75.739 22.342-13.22-8.284-21.891 13.955-8.456s16.465 16.638 17.96 28.419c-.696.051-9.134.805-18.011 8.97l-23.219 13.648a4.43 4.43 0 0 1-6.059-1.319 4.4 4.4 0 0 1 1.316-6.151"/><path fill="#6E737A" d="M270.745 60.59c.086.71.137 1.405.112 2.073-.19 4.986-6.609 8.448-12.186 8.987-3.205.308-5.938-2.09-5.938-2.09 8.877-8.166 17.324-8.928 18.012-8.97"/><path fill="#43464C" d="M252.768 32.102s1.735 9.313-3.378 11.103c-5.113 1.791-10.552-2.57-10.552-2.57z"/><path fill="#6E737A" d="M248.816 34.458s3.626 6.109 3.454 6.16-.627.985-.627.985l-3.627-6.537zm-3.543 2.168 4.117 6.58-1.212.231-3.901-6.212z"/><path fill="#6E737A" d="m253.103 34.166-12.787 7.506 1.581.754 11.146-7.017z"/><path fill="#43464C" d="m222.698 79.67-6.591 5.32a1.47 1.47 0 0 0-.335 1.911 1.486 1.486 0 0 0 1.985.531l7.434-4.044z"/><path fill="#537CC7" d="m223.395 230.127 25.48 22.944-24.964-7.308zm-8.13-6.443-12.95-12.946-.275 13.434z"/><path fill="#FBBB9D" d="M218.48 249.157s-9.642-13.194-16.112-18.198c-3.945-3.05-5.681-4.498-8.628-5.98-1.323 1.234-1.469 4.789 3.189 8.165 3.969 2.878 6.195 7.385 6.195 7.385s-9.306-4.335-17.247-7.591c-5.198-2.124-10.028-4.258-10.921-2.527-.852 1.654 4.107 4.206 8.764 6.751 4.305 2.356 9.831 5.698 9.831 5.698s-10.509-2.956-17.315-5.886c-3.275-1.406-6.196-.746-6.505.034-.344.865 1.564 2.313 4.322 3.898 5.938 3.402 15.846 7.403 15.846 7.403s-6.144-1.208-11.953-2.579c-3.549-.831-7.124-1.448-7.528.334-.309 1.388 2.561 2.973 6.178 4.258 6.05 2.151 14.927 5.364 14.403 5.244-.507-.121-5.079-.266-9.255-.874-2.019-.292-5.396-.54-5.637.959-.095.574 3.66 2.031 6.084 2.75 7.682 2.28 28.547 4.481 28.547 4.481s3.368-2.613 5.422-6.254c1.899-3.342 2.32-7.471 2.32-7.471"/><path fill="#5486E0" d="M263.939 264.536c-8.68 16.193-24.276 14.06-60.953 4.284l9.934-29.421 35.895 13.965"/><path fill="#ED6343" d="m153.505 305.892-26.356-22.705s-20.529 3.513-19.953 3.899c.566.376 37.406 21.771 37.406 21.771z"/><path fill="#D3DDDC" d="M140.934 46.71a6.9 6.9 0 0 1 4.09-4.627l8.01-2.998-3.893 22.584 11.799.077-24.088.317z"/><path fill="#F5F5F5" d="m153.043 39.015 12.898-4.763a2.78 2.78 0 0 1 1.711-.069l13.534 3.847a9.12 9.12 0 0 1 6.815 7.283l2.792 16.039-29.853.393-11.798-.077z"/><path fill="#AEBAB9" d="m195.81 63.94 7.837-2.186c2.225-1.534 1.272-5.003-1.426-5.2l-22.274-2.03a7.6 7.6 0 0 0-3.592.625l-28.057 6.776z"/><path fill="#fff" d="M174.12 119.176a2.51 2.51 0 0 0-1.537-3.186 2.47 2.47 0 0 0-3.001 1.202 2.46 2.46 0 0 1 1.806-.075 2.513 2.513 0 0 1 1.537 3.186 4 4 0 0 1-.157.344 2.52 2.52 0 0 0 1.352-1.471"/><path fill="#262120" d="M171.378 117.117a2.46 2.46 0 0 0-1.805.074c-.056.112-.121.224-.158.345a2.51 2.51 0 0 0 1.537 3.185c.611.214 1.25.168 1.806-.074.055-.112.12-.224.158-.345a2.516 2.516 0 0 0-1.538-3.185"/><path fill="#fff" d="M157.959 118.659a2.51 2.51 0 0 0-1.537-3.185 2.47 2.47 0 0 0-3 1.201 2.46 2.46 0 0 1 1.805-.074 2.513 2.513 0 0 1 1.538 3.185 4 4 0 0 1-.158.345 2.47 2.47 0 0 0 1.352-1.472"/><path fill="#262120" d="M155.227 116.6a2.46 2.46 0 0 0-1.806.074c-.056.112-.121.224-.157.345a2.51 2.51 0 0 0 1.537 3.185c.611.214 1.25.168 1.806-.075.055-.111.12-.223.157-.344a2.517 2.517 0 0 0-1.537-3.185"/></g></g><path fill="#002120" d="M168.835 42.4q.199 0 .353.054a.8.8 0 0 1 .261.14.6.6 0 0 1 .22.473q0 .376-.415.717l-.457.376h.837q.021.04.038.1.021.061.021.133 0 .129-.055.187a.2.2 0 0 1-.147.053h-1.21a.4.4 0 0 1-.122-.136.45.45 0 0 1-.042-.2.4.4 0 0 1 .049-.205.5.5 0 0 1 .108-.136l.481-.423q.091-.08.15-.14a1 1 0 0 0 .094-.114.3.3 0 0 0 .053-.094.2.2 0 0 0 .017-.082.18.18 0 0 0-.087-.158.36.36 0 0 0-.209-.057.7.7 0 0 0-.251.046 1 1 0 0 0-.182.094.4.4 0 0 1-.098-.108.3.3 0 0 1-.038-.15q0-.187.171-.277a.96.96 0 0 1 .46-.093m1.963.08a1 1 0 0 1 .307-.051q.08 0 .153.018.076.014.136.054.06.036.094.1a.34.34 0 0 1 .035.161v.954h.31a1 1 0 0 1 .042.104.4.4 0 0 1 .021.136q0 .135-.059.194a.2.2 0 0 1-.15.057h-.164v.423a3 3 0 0 1-.262.032q-.076 0-.136-.007a.3.3 0 0 1-.101-.032.2.2 0 0 1-.059-.08.4.4 0 0 1-.021-.136v-.2h-.875a.4.4 0 0 1-.14-.126.4.4 0 0 1-.056-.208q0-.068.018-.15a.4.4 0 0 1 .059-.143zm.178.562h-.011l-.464.674h.475z"/><path fill="#038681" d="M163.661 47.427c0-2.006 1.649-3.633 3.682-3.633v3.784h-3.682zm0 .549h3.682v2.938c0 2.007-1.648 3.633-3.682 3.633z"/><path fill="#038681" fill-rule="evenodd" d="M167.73 44.552v3.026h2.56c2.117 0 3.834-1.694 3.834-3.784h-1.946c-.098 1.227-1.098 2.19-2.317 2.19a2.32 2.32 0 0 1-2.131-1.432m6.393-1.306c0-2.007-1.648-3.634-3.681-3.634v1.669c.942.25 1.654 1.09 1.736 2.115h1.945zm-4.068-3.633h-6.394c0 2.09 1.717 3.783 3.834 3.783h.049c.099-1.227 1.099-2.19 2.318-2.19q.097 0 .193.008z" clip-rule="evenodd"/></g><defs><clipPath id="a"><path fill="#fff" d="M0 0h351v295H0z"/></clipPath></defs></svg>