<svg xmlns="http://www.w3.org/2000/svg" width="321" height="264" fill="none" viewBox="0 0 321 264"><g clip-path="url(#a)"><path fill="#54C0C0" d="M63.251 273.158c-1.656-4.624-3.262-9.337-6.014-13.387-2.753-4.049-6.86-7.442-11.816-8.249-4.87-.834-10.99.224-10.808.539 8.538 12.282 17.713 20.552 29.185 22.042zm4.472 2.654c-1.48-5.735-3.13-11.504-3.627-17.45s.033-13.292 2.522-18.401c1.531 2.421 4.295 6.541 4.886 9.579 1.219 7.547.515 15.392-2.491 22.529-.816 1.839-1.717 3.927-.911 5.81z"/><path stroke="#232323" stroke-linecap="round" stroke-linejoin="round" stroke-miterlimit="8.3324" d="M67.689 259.801c-.56 2.153-.608 4.405-.486 6.689.03 4.661.276 9.229.862 13.863"/><path fill="#242424" fill-rule="evenodd" d="M66.712 193.822c-.608 15.77-7.6 39.199-7.6 39.199s-6.081-15.319-4.257-28.385c2.128-13.292 12.465-26.584 11.857-10.814" clip-rule="evenodd"/><path fill="#FBBB9D" d="M24.627 100.918c-3.04 3.83-6.385 5.633-7.297 6.309 0 0 9.121 17.797 13.986 26.584 4.864 8.56 17.938 23.88 26.45 34.469 4.561 5.632 7.297 10.814 7.297 11.039-1.824 2.928 1.52 46.86-5.168 45.959-6.993-.902-16.418-15.095-21.283-22.529-6.992-10.589-35.876-80.203-37.396-85.61C.304 114.662 0 111.958 0 109.255c.304-3.155 1.52-6.309 2.736-9.463 5.169-12.391 10.033-24.556 15.202-36.947 1.52-3.605-1.216-7.434 1.52-9.912.608-.45 1.216-.677 1.52-.451.304.225.304.45.304.676.609 1.351.913 3.154.913 4.73.304 4.507.608 6.76-.608 10.364.608-.451.912-1.126 1.52-1.802s1.52-.902 2.128-.676c.912.45.912 1.577.608 2.703-.608 2.93-1.824 5.858-3.04 8.561.608-.9 1.216-1.352 1.824-1.802s1.52-.226 2.128 0c.912.45.608 1.802.304 2.703-.608 1.577-1.52 2.93-2.432 4.732-.608 1.802-.912 3.83-1.52 5.632"/><path fill="#FBBB9D" d="M23.242 89.076c0-.226 0-.451.304-.676 2.129-2.479 8.21-9.687 10.642-10.138.304 0 .608-.226.912 0 .912.225 1.52 1.352 1.52 2.478.304 3.83-2.736 5.407-6.08 6.984 0-3.154-2.433.225-3.041-2.928 0 .225 1.52-3.155 1.52-2.93l1.52 5.182c-.608 2.478-1.216 6.533-2.432 8.786-.912 1.802-3.648 5.633-5.776 6.984"/><path fill="#242424" d="M34.639 102.704c1.216-.225 2.128-1.803 1.824-3.154L22.78 45.48c-.304-1.351-1.824-2.252-3.04-1.802s-2.128 1.803-1.824 3.155L31.599 100.9c.303 1.127 1.52 2.028 3.04 1.803"/><path fill="#5486E0" d="M111.046 128.715c-2.129 1.802-8.514 14.643-7.905 27.034 0 4.506 4.256 6.533 4.864 12.616 1.824 19.15 3.345 27.936 5.777 55.646 30.707 5.407 26.147 9.687 56.855 14.418 5.776-15.545 4.56-53.618 11.249-73.668 3.953-11.716 38.308.901 40.74-9.462.609-2.93 2.129-26.584-1.215-34.92-3.04-7.209-5.473-12.842-10.946-18.474-4.864-4.956-10.945-8.336-17.634-10.589-9.425-3.604-46.213-3.83-46.213-3.83-27.06-.225-50.166 4.281-63.848 27.937-8.513 14.418-18.242 37.848-24.626 53.618 0 0 6.993 26.584 1.52 63.981 18.85.226 40.132-57.448 51.077-83.581"/><path fill="#5486E0" d="m194.563 211.811-9.197 13.038s-16.395 20.149-19.995 14.223c-13.196-24.298-32.39-109.044-30.391-109.044 37.59-2.963 30.792-31.706 43.988-40.892 0 0 25.993-.592 39.589 26.373 0 0 13.597 52.151 18.395 61.633 11.997 23.409 5.599 46.817-8.797 50.374-28.392 6.814-33.592-15.705-33.592-15.705"/><path fill="#fff" d="m156.523 140.463-.021-.831 2.023-.046q.417-.01.734-.179.328-.17.502-.468a1.24 1.24 0 0 0 .175-.704 1.24 1.24 0 0 0-.21-.695 1.23 1.23 0 0 0-.525-.445 1.6 1.6 0 0 0-.742-.145l-2.023.045-.021-.831 2.087-.047q.685-.015 1.227.236.552.252.874.731.333.47.35 1.129.016.648-.293 1.142a2.14 2.14 0 0 1-.837.77 2.7 2.7 0 0 1-1.213.291zm-.605 2.753-.177-7.037 1.006-.023.177 7.037zm6.318-.142-.121-4.817.963-.021.121 4.816zm.894-2.77-.368-.144q-.022-.922.413-1.48.436-.558 1.281-.577.386-.008.699.116.314.115.588.403l-.616.633a.95.95 0 0 0-.359-.225 1.3 1.3 0 0 0-.451-.061q-.535.012-.869.344-.335.332-.318.991m5.558 2.726a2.7 2.7 0 0 1-1.356-.304 2.6 2.6 0 0 1-.975-.881 2.43 2.43 0 0 1-.386-1.28 2.3 2.3 0 0 1 .322-1.265q.339-.576.93-.924.59-.348 1.339-.365.739-.017 1.346.304a2.5 2.5 0 0 1 .986.871q.367.56.385 1.259.018.711-.321 1.296a2.55 2.55 0 0 1-.94.924 2.7 2.7 0 0 1-1.33.365m-.022-.882q.482-.012.851-.232.369-.222.574-.592.204-.38.193-.856a1.55 1.55 0 0 0-.246-.826 1.5 1.5 0 0 0-.603-.555 1.64 1.64 0 0 0-.85-.194 1.7 1.7 0 0 0-.851.232 1.5 1.5 0 0 0-.574.581 1.6 1.6 0 0 0-.194.836q.012.477.236.847.224.36.603.565.38.204.861.194m4.33.683-.143-5.688a1.63 1.63 0 0 1 .193-.846q.215-.38.606-.602.39-.232.904-.243.396-.01.699.116.302.114.565.332l-.617.612a.9.9 0 0 0-.293-.155.9.9 0 0 0-.333-.054q-.374.01-.572.236-.198.217-.189.583l.143 5.688zm-1.352-3.956-.021-.831 4.826-.109.021.831zm4.369 3.889-.121-4.816.974-.022.121 4.816zm.348-5.334a.6.6 0 0 1-.432-.153.6.6 0 0 1-.182-.422.53.53 0 0 1 .161-.409.58.58 0 0 1 .424-.182.57.57 0 0 1 .443.162q.175.159.182.402a.58.58 0 0 1-.161.43.6.6 0 0 1-.435.172m1.674 4.71 2.67-2.799q.407-.415.635-.715.228-.309.318-.565.101-.255.094-.529-.013-.538-.385-.834t-.949-.283a1.86 1.86 0 0 0-.989.286q-.422.264-.74.808l-.72-.542q.421-.698 1.033-1.058.612-.368 1.426-.387.684-.015 1.194.227.52.242.809.692t.305 1.058q.012.436-.098.784a2.2 2.2 0 0 1-.378.718q-.27.362-.76.87l-2.161 2.209zm.014.578-.014-.578.849-.293 4.13-.093.022.852zm5.729-2.554 2.591-4.674 1.134-.025-2.645 4.675zm.014.588-.014-.588.421-.273 5.265-.118.021.851zm3.674 1.754-.117-4.654.995-.022.117 4.654z"/><path fill="#242424" d="M191.328 198.589s-.309 34.594 34.015 27.86c9.355-1.863 20.023-15.321 14.946-36.568-5.286-22.123-37.703-15.947-36.081-7.453 1.482 7.913-12.88 16.161-12.88 16.161"/><path fill="#FBBB9D" d="M232.757 185.107c9.431 14.565 6.313 27.192-.929 32.367-15.414 10.916-30.477 4.376-45.743-7.021-11.343-8.804-51.783-44.724-51.783-44.724-5.984-6.32-18.934-13.763-18.493-25.526.052-4.629-2.268-12.796-3.37-15.19-2.062-3.726-1.191-8.087.642-6.905 2.088 1.412 9.772 16.275 9.772 16.275 1.434-4.322.358-9.031-1.958-12.985-2.316-3.955-5.928-6.737-9.484-9.937-.253-.228-1.015-.913-.65-1.519l.621-.378c1.494-.526 3.525 1.303 4.851 2.028 1.835 1.182 6.152 5.067 7.874 7.084-.822-4.481-8.976-9.479-11.601-13.245-.509-.457-.031-1.897.59-2.275.31-.189.31-.189.873-.149 1.128.08 1.891.766 2.963 1.263 2.087 1.411 9.144 8.227 11.231 9.638-.482-2.772-9.681-10.582-10.671-13.811.108-5.046 12.527 8.467 15.971 12.501-.284-2.126-3.982-6.389-5.45-8.177-1.92-2.663.281-2.086.788-1.63 7.026 4.919 10.952 11.725 13.271 19.892 2.884 8.206 5.1 25.632 5.1 25.632 1.356 2.623 3.078 4.64 5.673 6.508 20.574 18.511 25.956 14.469 51.231 25.52-.93.567 17.274-12.047 28.681 4.764"/><path stroke="#242424" stroke-linecap="round" stroke-linejoin="round" stroke-miterlimit="3.829" d="M147.042 148.231c1.357 2.623 2.656 4.676 5.252 6.545 20.576 18.512 36.433 17.997 62.034 29.777"/><path fill="#353338" d="M136.959 96.39c10.56.652 24.287-4.695 34.67-3s18.832 4.435 31.328-1.564c-.705-2.217-5.808-10.172-6.512-12.39 1.055 1.827 5.983 9.782 8.095 9.26s10.736-6 12.144-10.433c-18.479 1.174-30.447-27.256-31.326-31.56-.705-3.129-.53-6.389-.706-9.65-.175-6.52-.703-16.43-4.399-21.647-3.696-5.347-10.208-8.999-16.72-8.216 0 0-.527-1.695-1.407-3.26-2.112-3.26-14.608-6.26-25.696-1.304-4.399 1.956-15.838 6.911-18.83 22.17-.704 3.781.703 7.302 2.111 10.954.176-.261-1.231 23.734-11.791 31.428-3.519 2.478-11.264 5.347-11.264 5.347 10.383 30.516 26.575 22.43 33.967 23.474"/><path fill="#302E34" d="M125.058 32.333c-1.584-5.086.353-10.563 3.168-15.127 2.64-4.304 6.335-8.347 11.087-10.172 3.344-1.305 7.217-1.435 10.736-.392l-23.583 30.646z"/><path fill="#FBBB9D" d="M144.333 72.812c-.176-.13 4.927-.782 6.687-1.565 0 .26-.176.392-.527.522-5.456 1.956-12.848 1.956-18.129-.261-5.28-2.217-9.679-5.347-11.967-10.694-1.936-4.434-1.76-8.867-.703-13.562 1.232-4.695 3.519-9.129 5.983-13.172.352-.652.88-1.303 1.056-2.086.352-.652.352-1.435.528-2.217 1.056-5.477 3.52-9.52 8.624-13.562 0 0 7.215-5.478 14.079-1.044 4.4 2.87 5.456 8.346 7.04 13.432 1.231 4.173-.352 3.913 0 8.216.176 1.565 3.344 5.868 3.696 6.65 0 0 1.935-5.215 6.863-5.085 2.112.13 4.4 3.39 4.049 5.999-.176 1.174-.352 2.347-1.057 3.39-1.76 2.609-4.575 4.304-7.743 4.695a582 582 0 0 0 5.28 42.774l.175-.39c-1.76 3.13-4.576 5.477-7.92 6.911-2.112.913-4.223 1.304-6.511 1.565-6.864.652-16.192-.783-19.007-6.13-.176-.39-.352-1.043-.352-1.434 0-.39.176-.913.352-1.304 1.759-7.172 3.695-14.606 5.455-21.778z"/><path stroke="#232323" stroke-linecap="round" stroke-linejoin="round" stroke-miterlimit="1.0617" stroke-width="1.17136" d="m149.191 39.913 6.506-3.506"/><path stroke="#232323" stroke-linecap="round" stroke-linejoin="round" stroke-miterlimit="8.4257" stroke-width="1.3" d="M135.864 36.467c-1.231 3.52-4.047 7.955-6.863 10.172 2.64 1.434 5.279 2.086 5.984 2.217"/><path fill="#302E34" d="M148.202 11.48c-4.401 8.868 2.991 30.516 12.847 32.211 1.76-4.955 9.151-11.085 10.911-16.04.704-2.217 1.585-4.434 1.233-6.651-.353-1.695-1.233-3.26-2.288-4.564-1.233-1.565-2.817-3-4.576-4.173-2.289-1.565-4.752-2.609-7.216-3.652s-4.928-1.956-7.392-2.869c-1.76-.652-3.52-1.174-5.456-1.043-1.936.26-3.695 1.434-4.048 3.26 0-.13.001-.391.177-.522"/><path stroke="#232323" stroke-linecap="round" stroke-linejoin="round" stroke-miterlimit="8.4257" stroke-width="1.3" d="M129.775 28.173c.881-1.043 2.465-1.304 3.873-1.043 1.408.26 2.64 1.043 3.695 1.956m6.565.783c1.407-.391 2.991-.261 4.399.39a5.95 5.95 0 0 1 2.992 3.13M135.291 57c2.635.349 6.654-1.372 7.404-2.84"/><path fill="#fff" d="M112.865 222.809s-3.872 3.652-8.976 10.303c-8.8 10.954-17.422 26.472-22.174 57.771-1.056 6.781-1.585 14.605-1.936 22.56l-1.787 49.519h53.842c4.724-25.651 10.734-54.555 14.294-53.822 2.67.586 3.249 29.045 3.462 53.822h54.415c3.134-32.441 5.915-77.717.2-95.292-9.327-28.69-18.655-42.514-18.655-42.514z"/><path fill="#232323" d="M131.349 35.073c.026-1.03-.487-1.863-1.198-1.944s-1.263.63-1.29 1.66c-.026 1.03.487 1.863 1.198 1.944.714-.048 1.267-.76 1.29-1.66m11.541 2.201c.027-1.03-.487-1.863-1.198-1.944s-1.264.63-1.291 1.66.487 1.862 1.198 1.944c.711.08 1.264-.63 1.291-1.66"/><path stroke="#232323" stroke-linecap="round" stroke-linejoin="round" stroke-miterlimit="8.4257" stroke-width="1.3" d="M162.935 45.087c.176-1.434 1.408-2.478 2.64-3.13q1.32-.587 2.64-.782"/><path stroke="#232323" stroke-linecap="round" stroke-linejoin="round" stroke-miterlimit="8.4257" stroke-width="1.3" d="M163.861 43.825c1.042.627 1.694 1.843 1.551 3.07"/><path stroke="#232323" stroke-linecap="round" stroke-linejoin="round" stroke-miterlimit="8.4257" stroke-width="1.39886" d="M126.468 31.6c-3.606 6.235-6.792 12.93-7.405 20.134-.31 3.27.215 6.795 1.602 9.783 1.915 3.73 5.28 6.743 9.083 8.759 7.154 3.702 14.187 3.01 18.789 1.96"/><path stroke="#232323" stroke-linecap="round" stroke-linejoin="round" stroke-miterlimit="8.4257" d="M138.893 75.55c-1.056 6.13-2.464 12.65-3.872 18.518-.352 1.305-.528 2.087 0 3.26.528.914 1.408 2.218 2.288 2.74 3.695 2.216 7.92 3.912 12.319 3.912 1.232 0 2.289-.13 3.345-.261 3.168-.391 6.335-1.044 9.327-2.478 2.816-1.435 5.28-3.13 6.16-6.26"/><path stroke="#232323" stroke-linecap="round" stroke-linejoin="round" stroke-miterlimit="8.4257" stroke-width="1.39573" d="M164.259 54.14c-.43 13.667 1.329 27.428 4.307 40.833"/><path stroke="#232323" stroke-linecap="round" stroke-linejoin="round" stroke-miterlimit="8.4257" d="M104.06 134.692c-3.05 7.843-3.045 16.758.239 24.499 1.052 2.278 2.264 4.413 2.976 6.849.674 2.176.928 6.483 1.262 8.817 2.016 16.625 2.801 30.986 4.817 47.612m-.642.32c22.485 1.305 44.484 1.561 67 2.089m-72.182 3.629c23.055 1.043 49.278 2.869 73.213 2.478m-40.779-.717c-1.408 6.913-2.288 39.254.352 45.644.528 1.174 1.055 2.347 2.112 2.999 1.584 1.043 3.168.912 4.576-.261"/><path stroke="#232323" stroke-linecap="round" stroke-linejoin="round" stroke-miterlimit="8.4257" d="M148.173 230.448c-.38 15.778-.61 32.214-1.177 48.118-.303 10.301-.769 20.206-1.247 30.372m-24.423-76.998c-2.55 14.325-14.36 26.543-28.738 29.476m68.377-25.785c1.844 15.098 13.356 28.718 28.041 32.806"/><path stroke="#232323" stroke-linecap="round" stroke-linejoin="round" stroke-miterlimit="8.4257" d="M112.861 222.744c-18.655 19.3-27.455 36.514-32.382 76.55-.352 2.217-.704 11.867-1.233 24.387-.38 9.564-.792 20.837-1.213 31.858M26.557 124.546c.352-.131.88-.392 1.583-.522 0 0-5.455 9.781-20.943 13.562 0 0-.176-.26 1.408-1.956m49.215 32.64c3.047 10.857 6.786 39.319.942 64.431M27.542 77.48c-1.76 2.739-2.815 5.738-3.343 8.868-.176 1.304-5.984 15.128-13.376 17.475"/><path fill="#302E34" d="M154.503 69.722s-10.56 21.387-17.424 17.865c-6.864-3.52.88-14.996.88-14.996 4.224.521 12.672-.913 16.544-2.87"/><path stroke="#232323" stroke-linecap="round" stroke-linejoin="round" stroke-miterlimit="1.5" stroke-width="1.47745" d="m137.639 32.651 11.265 2.48v6.927l-11.265-2.48zm-15.563-3.458 11.264 2.48V38.6l-11.264-2.48z"/><path stroke="#232323" stroke-linecap="round" stroke-linejoin="round" stroke-miterlimit="1.0617" stroke-width="1.17136" d="m133.307 34.199 4.288.767"/><path fill="#54C0C0" d="M252.326 271.389c.837-10.999 1.464-22.307-.627-33.152-2.091-10.843-7.527-21.533-16.934-27.574-9.199-6.042-22.788-9.295-22.579-8.52 6.69 33.151 18.397 58.558 40.558 71.88zm14.865-50.456c-2.09-11.309 2.927-22.927 8.99-32.686 15.889-25.871 43.068-36.405 43.068-36.405 3.972 15.337-2.091 32.067-12.126 44.306-7.108 8.674-15.68 18.124-25.297 21.997zm-12.042-28.627s-11.664-8.05-14.732-20.023c-.923-3.612-2.394-8.626-1.277-11.441 1.932 1.243 3.363 4.148 3.883 4.875 6.022 9.611 6.788 18.611 12.126 26.589m20.69-41.521c7.529-5.412 21.945-4.789 28.256-.162-11.749.829-12.011 2.217-24.878 10.456-5.146 3.295-15.079 5.867-17.083 9.075-.209-.004 3.807-12.151 13.705-19.369m-19.142 24.558c-2.141-8.298-4.528-16.643-5.247-25.247s.049-19.231 3.649-26.622c2.215 3.502 6.215 9.462 7.068 13.858 1.764 10.92.746 22.269-3.603 32.597-1.18 2.66-2.485 5.681-1.318 8.406z"/><path stroke="#232323" stroke-linecap="round" stroke-linejoin="round" stroke-miterlimit="10.009" d="M272.983 211.871c-7.945 10.225-9.2 24.012-9.618 36.87a421 421 0 0 0 1.883 56.234"/><path stroke="#232323" stroke-linecap="round" stroke-linejoin="round" stroke-miterlimit="10.009" d="M271.645 161.97c-5.957 2.694-10.69 7.54-13.014 13.645-1.91 4.906-2.283 10.427-2.347 15.686-.342 13.672-.986 25.051 9.083 40.236"/><path stroke="#232323" stroke-linecap="round" stroke-linejoin="round" stroke-miterlimit="12.0558" d="M256.639 152.18c-.811 3.116-.881 6.374-.704 9.679.046 6.743.399 13.352 1.247 20.057"/><path stroke="#232323" stroke-linecap="round" stroke-linejoin="round" stroke-miterlimit="5.7392" d="M246.248 178.896c1.45 3.389 3.048 6.716 5.318 9.532 1.658 2.058 3.873 3.948 4.741 6.494"/><path stroke="#232323" stroke-linecap="round" stroke-linejoin="round" stroke-miterlimit="10.009" d="M244.904 256.518c3.554 7.436 7.109 14.871 10.453 22.462 3.763 8.521 7.108 17.196 10.244 26.026"/></g><defs><clipPath id="a"><path fill="#fff" d="M0 0h321v264H0z"/></clipPath></defs></svg>