<svg xmlns="http://www.w3.org/2000/svg" width="362" height="338" fill="none" viewBox="0 0 362 338"><g clip-path="url(#a)"><path fill="#E0C166" d="M276.094 124.974c4.06-4.403 29.209-11.07 30.519-8.68s5.894 37.862 3.406 40.252c-2.62 2.39-26.721 9.812-29.734 8.428-2.882-1.383-6.025-38.114-4.191-40"/><path fill="#353338" d="M209.247 105.344s39.47-16.639 44.044 19.814c3.006 24.386-12.808 46.995-17.905 68.587s11.109 40.772 11.109 40.772-54.027 99.321-102.123 88.271c-38.032-8.764-27.264-58.042-27.264-58.042s-36.594.381-26.139-34.293 47.965-39.248 63.387-45.091c63.386-24.132 54.891-80.018 54.891-80.018"/><path fill="#49474B" d="M168.05 166.958c3.141.637 5.628-2.423 6.675-5.355.916-2.932 1.178-6.248 3.141-8.67 1.833-2.295 4.843-3.442 6.152-5.992 1.44-2.678.262-5.993.524-9.053.523-5.993 6.152-10.327 7.984-16.192.654-2.295.131-5.61-2.356-5.865-1.44-.255-2.749.765-3.796 1.785-5.236 4.972-8.115 12.112-7.853 19.125 0 2.167.392 4.462-.524 6.502-1.701 3.952-7.46 5.355-8.377 9.562-.654 2.55.786 5.101 1.44 7.778.654 2.55-.262 5.992-3.01 6.375"/><path fill="#6C9FFB" d="M161.202 196.513c5.601-5.231 22.012 11.903 41.548 10.464s32.692-11.51 37.641-8.24c5.731 3.924-16.671 25.766-37.641 25.243-30.998-.915-45.976-23.412-41.548-27.467"/><path fill="#FBBB9D" d="m244.155 205.538-41.727 25.095-41.989-25.348s19.289-2.155 25.062-11.028c7.48-11.28 6.43-20.785 6.692-22.94.263-1.394.263-2.155.263-2.155l7.61-5.196 22.176-14.956s-10.235 22.18-4.855 37.643c.393 1.014.656 1.901 1.181 2.788 7.216 13.562 25.587 16.097 25.587 16.097"/><path fill="#5486E0" d="M275.268 302.484c-39.331 2.296-43.002-36.994-43.002-36.994s-4.72 8.802-6.424 21.431c-2.229 15.946 42.347 70.458 49.426 77.857-15.732.638-69.676 4.243-79.378 4.243-11.537 0-61.039 6.334-72.445 5.569 3.277-6.889 48.644-49.853 48.644-83.46-1.311-11.098-11.931-26.15-11.931-26.15s-13.766 31.636-40.905 28.064c-27.138-3.572-20.059-38.015-4.326-57.788s46.673-39.035 46.673-39.035 2.622 4.848 12.849 11.864c8.39 5.74 28.974 12.119 28.974 12.119s8.784-1.914 18.224-6.123c16.388-7.272 19.665-15.691 19.665-15.691s12.324 2.296 28.45 22.452c16.126 20.155 44.838 79.346 5.506 81.642"/><path fill="#537CC7" d="M103.79 203.109s.264 20.357-3.572 42.367c-3.705 22.011-6.35 44.277 14.023 47.076 20.374 2.799 25.269-3.436 25.269-3.436V207.18s-6.482 7.38-19.448 5.471c-12.964-1.908-16.272-9.542-16.272-9.542m161.448 18.617s0 24.108-2.359 44.156-4.455 35.02-4.455 35.02 15.199 5.202 31.576-1.777c16.377-6.978 9.171-31.213 8.516-51.134s3.669-31.594 3.669-31.594-4.586 8.628-18.736 9.897c-14.15 1.268-18.211-4.568-18.211-4.568"/><path fill="#6C9FFB" d="M302.057 216.727c-1.333 7.037-8.934 9.706-14.135 10.555-1.6.243-2.933.364-3.866.486-2.401.121-8.534-.364-13.335-1.699-3.333-.97-6-2.305-6.4-4.125-1.067-4.731 2.533-4.367 7.333-4.004 2.401.243 5.334.364 8.001 0 1.733-.242 3.867-.97 6.134-1.698 8.267-2.79 17.601-6.794 16.268.485"/><path fill="#FBBB9D" d="M310.955 195.013c-4.805 2.804-10.387 3.951-10.387 3.951s2.466.127 5.063-.255c3.376-.383 7.142-2.04 7.142-.51 0 3.059-8.96 6.245-17.01 7.264s-12.464.765-12.464.765l1.428 9.304 1.817 11.725c-1.298.255-2.466.382-3.245.51-2.078.127-7.401-.382-11.556-1.784.26-2.039.519-5.098.779-8.539.649-6.628 1.298-14.657 1.168-18.48-.13-10.579 9.219-12.745 12.595-15.931s6.492-9.941 8.18-9.304c1.688.509 2.077 3.823.259 7.264-1.687 3.442-5.972 8.412-5.972 8.412s6.232-1.147 10.907-3.186c8.829-3.951 11.945-9.432 13.243-8.03 1.298 1.53-1.298 3.824-4.155 6.501-2.856 2.548-6.492 4.715-6.881 4.97.389-.128 3.246-1.275 6.881-3.314 3.766-2.167 8.31-7.392 8.83-4.588.389 2.039-3.117 5.225-6.882 7.902-2.857 2.039-5.713 3.186-7.141 3.569a46 46 0 0 0 6.881-2.677c4.155-1.912 7.92-6.373 8.829-3.569.52 1.657-3.635 5.353-8.309 8.03"/><path fill="#6C9FFB" d="M139.463 206.968c-.39 2.122-2.604 4.112-5.728 5.439-3.385 1.592-7.811 2.388-11.847 1.99-1.432-.133-2.994-.398-4.557-.928-6.508-1.858-13.018-6.368-13.018-10.879-.13-4.909 8.071-.796 16.534.928.39.133.781.133 1.171.266 4.426.663 8.983.398 12.238.398 3.515 0 5.598.398 5.207 2.786"/><path fill="#FDDA73" d="M272.194 131.373c3.956-4.467 29.144-11.788 30.462-9.431s7.122 37.102 4.616 39.584-26.638 10.423-29.671 9.183-7.253-37.227-5.407-39.336"/><path fill="#fff" d="M284.262 150.796c2.043-3.295 4.902 2.788 4.902 2.788s3.812-10.898 5.853-9.124c2.043 1.647-2.586 12.799-4.765 13.939-2.041 1.014-7.079-5.829-5.99-7.603"/><path stroke="#fff" stroke-linecap="round" stroke-miterlimit="10" stroke-width="1.2947" d="M282.207 139.519c.551-1.45 1.79-2.636 3.305-2.9 1.514-.263 2.891 0 3.855-.264 1.239-.263 2.616-.527 3.304-1.582m-8.561 8.542c.501-1.45 1.627-2.504 3.004-2.9 1.127-.264 2.253-.131 3.505-.263s2.378-.528 3.004-1.582"/><path fill="#3580F3" d="M101.569 103.225c15.211-9.696 30.813-6.124 34.974 7.781 4.03 13.905-4.681 29.978-4.681 29.978s2.081 8.547 1.3 9.185c-.91.638-8.191-3.827-8.191-3.827s-21.452 15.818-33.023-6.123c-11.57-21.942 6.631-35.081 9.621-36.994"/><path stroke="#fff" stroke-linecap="round" stroke-linejoin="round" stroke-miterlimit="10" stroke-width="0.8478" d="M100.506 124.333a95 95 0 0 1 5.48-13.287 30 30 0 0 0-1.37 7.781 46.5 46.5 0 0 0 4.452-7.183 147 147 0 0 0-2.74 10.176m5.129-7.554c-1.061 2.365-1.858 4.73-2.389 7.22.398-1.245.797-2.614 1.062-3.859-.531.373 0 1.245.664 1.245.663 0 1.194-.373 1.593-.872.929-.996 1.725-2.24 2.124-3.609-1.195 1.867-1.859 3.858-2.124 5.975 0 .124 0 .373.132.498h.399c2.256-1.121 4.247-2.615 5.707-4.606.266-.374.531-.871.664-1.37.133-.497-.398-.995-.929-.995s-.93.498-1.195.871c-.796 1.369-1.46 2.739-1.858 4.232-.133.498-.266 1.121 0 1.619.531.746 1.725.746 2.655.373.796-.373 1.593-1.12 2.522-1.369m-18.562 7.561c-1.035 2.712-1.923 5.695-2.367 8.542.296-1.491.74-2.847 1.036-4.339 0 .272-.148.543 0 .814.147.271.296.543.592.543.444 0 .739-.272 1.036-.543 1.183-1.22 2.071-2.847 2.515-4.474-1.036 1.627-1.628 3.525-1.628 5.423 0 .272 0 .407.149.543.295.135.591 0 .887-.271l2.072-1.899"/><path stroke="#fff" stroke-linecap="round" stroke-linejoin="round" stroke-miterlimit="10" stroke-width="0.8478" d="M107.386 127.311c-.598 1.436-.957 3.001-1.316 4.567-.12.522-.12 1.044.239 1.305.479.261 1.077-.131 1.317-.652a12.56 12.56 0 0 0 2.393-5.351c-1.077 3.393-2.154 6.916-3.471 10.179-.359 1.044-.837 2.088-1.675 2.74-.359.261-.718.522-1.077.261-.599-.261-.479-1.175-.24-1.827.599-1.696 1.796-3.132 3.351-3.784m4.354-6.91c.436-.581.871-1.162 1.161-1.743.29-.117.58 0 .726.232.145.233.29.465.29.697.145 1.511-.871 3.138-2.467 3.952 1.451-1.627 3.047-3.371 4.498-4.998-.725 1.163-1.16 2.441-1.451 3.603 1.161-1.278 2.467-2.673 3.628-3.951.145-.116.29-.349.581-.349.29 0 .435.233.29.349 0-.116-.145-.233-.145-.349-1.016 1.046-1.742 2.324-2.032 3.603 0 .348-.145.697.145.93.435.348 1.016.232 1.596 0 .581-.233.871-.582 1.452-.698m1.78-5.078c-.636 2.036-1.144 3.953-1.781 5.989.509-1.078.764-2.156.891-3.234-.127.359.254.719.636.719.381 0 .763-.24 1.018-.599.89-.959 1.526-2.036 2.034-3.114a14.9 14.9 0 0 0-1.526 5.629c1.908-1.318 3.434-3.234 4.325-5.27a6.6 6.6 0 0 0-1.399 3.473c0 .479 0 .959.508 1.198.382.12.891-.12 1.272-.479 1.018-.958 1.908-2.156 2.417-3.473.127-.48.382-.959.254-1.318-.127-.359-.381-.958-.763-1.078-.381-.12-.89 0-1.272.239q-.573.36-.763 1.079"/><path fill="#FF9978" d="M21.642 209.5c-1.312-12.6 11.154-21.708 24.145-22.457 19.028-1.122 24.933 11.852 24.933 11.852s6.955.998 6.955 1.997c0 .998-6.168 4.865-6.168 4.865s-2.887 17.466-25.85 18.215c-16.666.499-23.49-9.731-24.015-14.472"/><path stroke="#fff" stroke-linecap="round" stroke-linejoin="round" stroke-miterlimit="10" stroke-width="1.0176" d="M37.72 199.313a70 70 0 0 0 .95 10.44"/><path stroke="#fff" stroke-linecap="round" stroke-linejoin="round" stroke-miterlimit="10" stroke-width="1.0176" d="M41.525 198.364c-3.396 4.413-5.972 9.604-7.61 15.185m8.192-4.745c.29 0 .436-.286.727-.428 2.037-2.142 3.055-4.711 2.182-6.281-.145-.285-.145-.856-.436-.856-.437-.143-.728.285-.873.713-.873 1.713-1.6 3.568-2.037 5.424-.145.286-.145.714-.145 1 0 .142.29.428.582.428m6.147-9.313c-.639 1.252-.894 2.63-1.021 4.008 0 .376.127.877.51 1.002.255 0 .51-.125.638-.375 1.404-1.378 2.425-3.007 2.935-4.885-1.148 2.003-2.041 4.258-2.297 6.513-.127.375 0 1.002.383 1.127.255.125.638-.125.766-.375 2.297-2.005 3.828-4.76 4.466-7.767-1.403 1.754-2.041 4.134-1.659 6.263 2.17-1.628 3.829-4.008 4.722-6.638-1.404 2.129-1.914 4.759-2.552 7.139s-1.532 5.01-3.573 6.639c-.383.25-.894.626-1.277.376-.638-.376-.382-1.253 0-1.754 1.404-2.38 3.701-4.384 6.381-5.261"/><path fill="#FDDA73" d="M60.327 233.064c14.836-8.611 25.672 7.669 8.772 17.491-16.77 9.956-23.995-8.611-8.772-17.491"/><path stroke="#fff" stroke-linecap="round" stroke-linejoin="round" stroke-miterlimit="10" stroke-width="0.9542" d="m60.115 244.87 1.164-.695c.193-.347.387-.695 0-.926-.194-.232-.97-.348-1.358-.232-.388.232-.388.579-.194.926s.388.695.388.927m4.835-3.797c-.633.5-.76 1.299-.38 1.899.759-.4 1.012-1.399.38-1.899m6.066-.542c0-.271 0-.542-.147-.814-.146-.27-.439-.542-.732-.542-.439 0-.731.542-.731 1.085 0 .407 0 .949-.293 1.355.146.136.146.272.293.408.731-.136 1.317-.814 1.61-1.492"/><path fill="#FDDA73" d="M272.69 101.353c-.13.499-4.289.374-4.289.374s-1.561 3.624-2.081 3.624c-.519 0-1.689-3.749-1.689-3.749s-4.03-.249-4.29-.749 3.25-2.75 3.25-2.75-1.04-3.873-.52-4.123c.519-.25 3.769 2.124 3.769 2.124s3.38-2.25 3.901-1.749c.52.375-.91 4.124-.91 4.124s2.989 2.374 2.859 2.874m11.449 4.93c-.297-.255 1.778-2.546 1.778-2.546s-1.63-2.42-1.482-2.675 3.261.637 3.261.637 2.074-2.165 2.519-2.037c.444.127.296 2.929.296 2.929s3.112 1.019 3.112 1.4c0 .382-3.112 1.274-3.112 1.274s-.148 2.801-.592 2.928c-.445.128-2.372-2.165-2.372-2.165s-3.26.637-3.408.255m-21.884 21.093c-.262-.226 1.576-2.264 1.576-2.264s-1.445-2.15-1.313-2.376c.131-.227 3.021.566 3.021.566s1.838-1.925 2.232-1.811c.394.113.263 2.603.263 2.603s2.758.905 2.758 1.245c0 .339-2.758 1.132-2.758 1.132s-.132 2.49-.526 2.603-2.101-1.924-2.101-1.924-2.889.566-3.152.226"/><path fill="#EFA689" d="M218.365 187.047c-1.313.256-2.758.385-4.597.64-12.084 1.281-18.783-2.945-21.936-5.634 1.314-3.843.788-8.325 1.183-10.503l8.012-7.427 22.199-15.113c-.132 0-10.246 22.413-4.861 38.037"/><path fill="#FBBB9D" d="M225.745 141.097c2.138-8.284 1.871-17.587-2.806-24.851-4.678-7.263-14.567-11.851-22.987-9.175-6.147 2.039-10.557 7.264-13.23 12.871s-3.876 11.852-5.613 17.714c-2.806 9.175-5.48 16.057-4.143 25.487.668 4.461 2.94 11.979 7.617 12.362 18.31 1.529 37.153-19.116 41.162-34.408"/><path fill="#353338" d="M209.289 132.87c-.82-.75-1.777-1.376-2.734-1.626-1.093-.375-2.187-.375-3.28.125-.547.25-1.094.625-.957 1.251 0 .5.546.75.957.875.546.125.957.125 1.503.125 2.324.125 4.648 1.375 5.604 3.376.137.25.274.625.684.625.273 0 .683-.125.683-.5.137-.25 0-.625 0-.876q-.82-2.062-2.46-3.375m-21.583-4.132c.268-.322.403-.806.268-1.129-.134-.483-.403-.806-.671-.967-.807-.645-2.016-.484-2.823.161s-1.209 1.935-1.209 3.225c.672-.968 1.746-1.612 2.822-1.29.537 0 1.209.322 1.613 0"/><path fill="#162042" d="M185.484 135.406c-.28.886-.701 1.898-.982 2.784-.14.506-.28 1.012-.28 1.392s.561.886 1.123.886c.42 0 .701-.38.841-.633.982-1.266 1.123-3.037.562-4.429-.141-.253-.421-.633-.702-.633-.281.127-.421.38-.562.633m16.173 4.64c-.281.738-.702 1.582-.982 2.32-.14.422-.281.844-.281 1.16.141.422.561.738 1.123.738.421 0 .701-.316.842-.527a3.3 3.3 0 0 0 .561-3.691c-.141-.211-.421-.527-.702-.527s-.421.316-.561.527"/><path fill="#EFA689" d="M188 152.862c-2.831 2.036-5.427.119-5.663-1.078-.118-1.198.354-2.516 1.18-3.355.826-.838 2.124-1.317 3.303-1.317-.118.718-.826 1.197-1.416 1.677-.707.719-1.179 1.677-.943 2.635.708 2.277 3.893 1.198 3.539 1.438"/><path fill="#FBBB9D" d="M133.723 200.942c-.265 1.294-.396 2.588-.528 3.881a59 59 0 0 0-.528 7.764c-3.168 1.424-7.391 2.2-11.086 1.812a26.5 26.5 0 0 1-4.224-.777l3.3-9.316 3.563-10.093s-7.654-.905-12.537-1.423c-4.883-.517-15.97-1.682-15.837-4.27.132-1.164 1.056-1.811 5.411-1.164 4.487.647 8.578-.259 8.578-.259s-3.959-.259-8.974-1.553-9.634-3.364-8.974-5.564c.395-1.294 2.507-.388 7.522.777 6.203 1.423 8.974 1.423 8.974 1.423s-5.807-2.329-10.162-4.788c-6.203-3.623-7.918-6.081-6.994-7.116 1.32-1.423 2.639-.13 9.37 3.493 5.675 3.106 9.898 3.106 10.03 3.106 0-.129-.528-.776-6.335-4.529-6.07-4.011-6.862-6.211-5.939-6.987 1.188-1.035 1.188-1.035 8.842 4.27s10.427 5.175 10.427 5.175.791-.517 0-2.846c-.66-1.941-3.564-4.011-5.28-7.634-1.187-2.459-.659-5.694 2.112-5.823 1.188 0 3.959 7.117 8.974 11.128 4.883 3.752 10.03 7.893 11.614 12.292 1.584 3.623 0 11.775-1.319 19.021"/><path fill="#FFD0D4" d="M224.723 141.771s6.254-5.249 9.172-2.304c3.892 4.097.556 8.579-4.586 11.524-4.586 2.689-10.84 3.714-10.84 3.714z"/><path fill="#DEB5B9" d="M232.988 142.551c.707.374.849 1.372.566 2.121-.566 1.87-2.264 3.242-4.245 4.24-1.981.874-4.102 1.372-6.083 1.996 1.839-3.118 4.102-6.361 7.498-8.107.707-.374 1.556-.624 2.264-.25"/><path fill="#5486E0" d="M222.274 158.501c2.102 0 3.806-1.488 3.806-3.322s-1.704-3.322-3.806-3.322c-2.101 0-3.805 1.488-3.805 3.322s1.704 3.322 3.805 3.322"/><path fill="#fff" d="M201.554 142.359c.217.065.514-.305.661-.825s.09-.994-.127-1.059c-.218-.064-.513.305-.661.825-.147.52-.09.994.127 1.059m-16.172-4.742c.218.032.513-.152.661-.412.147-.26.09-.497-.127-.53-.217-.032-.514.153-.661.412-.147.261-.09.498.127.53"/><path fill="#F5774E" d="M45.86 158.392c2.246-7.999 10.702-10.249 17.572-6.999 6.87 3.249 5.681 9.498 5.681 9.498l4.757 2.625-5.021 1.374s-2.246 10.124-14.666 7.374c-7.663-1.624-10.04-7.749-8.323-13.872"/><path stroke="#fff" stroke-linecap="round" stroke-miterlimit="10" stroke-width="0.8684" d="M51.99 165.145c4.383-.627 8.484-3.134 10.464-6.644"/><path fill="#fff" d="M53.892 161.348c.525 0 .951-.212.951-.474s-.426-.475-.951-.475c-.526 0-.952.213-.952.475s.426.474.952.474m4.281-2.847a.475.475 0 1 0 .002-.95.475.475 0 0 0-.002.95"/><path fill="#49474B" d="M221.461 147.501c1.407-3.965 4.476-7.163 6.394-10.999 2.685-5.373 2.685-12.023.128-17.523-2.174-4.476-10.614-16.499-20.587-1.791 10.869-3.197 17.262 14.965 12.02 23.406-2.942 4.732-7.928 8.825-7.928 14.453 0 3.709 2.174 7.162 1.79 10.744-.384 4.859-4.987 8.185-9.079 10.743 7.289-1.151 13.682-7.035 15.345-14.325 1.15-4.86.255-9.976 1.917-14.708"/><path fill="#353338" d="M197.256 99.75c-4.991-3.1-11.558-3.844-17.206-1.736-5.647 1.985-9.982 6.698-11.558 12.155-1.445 5.334.657 12.155 6.173 13.767 3.153.993 6.699 0 9.457-1.612s4.991-4.217 7.092-6.573c-2.233 1.364-1.839 4.837.263 6.325 1.97 1.613 4.86 1.737 7.486 1.364 7.356-.992 14.185-5.457 17.732-11.659-.657.869.394 2.233 1.576 2.109 1.182 0 2.102-.992 2.758-1.86 4.335-5.954 1.97-15.132-4.597-18.605-6.698-3.349-16.155-.248-19.176 6.326"/><path fill="#162042" d="M202.297 139.598c.692-.145 1.383-.072 1.96.072.346.072.577.216.923.288s.692.072.922-.072c-.461.289-1.038.577-1.614.577-.808.073-1.384-.721-2.191-.865m-16.172-3.876c-.254-.781-1.142-1.116-1.903-1.116-.381 0-.761 0-1.142-.112s-.761-.334-.761-.67c.127.67.254 1.34.888 1.675.761.446 2.03 0 2.918.223"/><path stroke="#EFA689" stroke-linecap="round" stroke-miterlimit="10" stroke-width="2" d="M185.173 160.496c3.67 2.096 8.698.149 10.465-3.893"/></g><defs><clipPath id="a"><path fill="#fff" d="M0 0h362v338H0z"/></clipPath></defs></svg>