<svg xmlns="http://www.w3.org/2000/svg" width="283" height="211" fill="none" viewBox="0 0 283 211"><g clip-path="url(#a)"><mask id="b" width="283" height="277" x="0" y="-17" maskUnits="userSpaceOnUse" style="mask-type:luminance"><path fill="#fff" d="M283-16.23H0v275.922h283z"/></mask><g mask="url(#b)"><path fill="#5486E0" d="M279.602 261.532s.944-77.76-32.658-106.419c-12.272-10.508-28.696-19.105-50.784-22.926-37.757-4.012-52.86-1.529-52.86-1.529s-62.488 16.813-71.55 64.386c-3.964 21.399-.566 59.227 12.65 85.211 18.878 37.257 53.803 27.513 68.528 19.679 6.419-3.438 13.215-8.407 21.333-14.711 69.285-6.877 105.341-23.691 105.341-23.691"/><path fill="#353338" d="M130.651 57.483s-10.572 42.797 10.384 54.642c20.955 11.846 19.256-30.95 19.256-30.95z"/><path fill="#537CC7" d="M125.177 137.728s19.633 81.008 22.465 106.036c27.562-29.041 40.966-55.597 40.966-55.597l11.705 2.865 11.138-12.227-7.362-45.281s-22.277-7.642-38.89-7.26-40.022 11.464-40.022 11.464"/><path fill="#FBBB9D" d="M135.182 51.37c.188 1.146 4.153 67.443 47.385 61.138s33.981-49.484 32.661-66.68c-1.322-17.194-17.747-44.897-41.534-38.21S133.105 28.06 135.182 51.37"/><path fill="#FBBB9D" d="M145.565 90.727s-.755 35.919-2.266 39.931c-1.51 4.203 8.496 31.333 29.451 31.715s23.409-30.378 23.409-30.378l3.021-36.683z"/><path fill="#EFA689" d="M198.236 106.967s-33.603 14.329-52.671-12.801l-.566 24.455s35.68 19.488 53.237-11.654"/><path fill="#353338" d="M189.174 27.105s-16.047 17.387-41.344 25.029c0 0 8.118 26.175-3.02 39.357 0 0-15.103-5.922-13.971-42.987 1.133-37.447 43.232-43.943 43.232-43.943s29.45.573 39.644 18.15 3.022 36.492 3.022 36.492-6.042-27.512-27.563-32.098"/><path fill="#E8E8E8" d="m210.32 24.43-9.252-29.995c-1.699-5.54-7.174-9.362-12.837-8.789l-19.634 1.337c-3.02.192-5.852 1.338-8.306 3.057l-7.929 5.541c.944 5.159 5.097 32.098 6.607 41.842z"/><path fill="#D8D8D8" d="m128.574 20.61 2.454 23.69 28.129-7.069c-1.51-9.743-5.663-36.682-6.607-41.841L134.426 7.809c-4.153 2.866-6.418 7.833-5.852 12.8"/><path fill="#B2ACAB" d="m131.029 44.3 86.275-15.475 11.704-9.171c4.154-2.293 3.398-8.789-1.322-9.935l-14.724-3.44c-12.461-2.865-25.675-.381-36.247 6.879z"/><path fill="#353338" d="M163.689 52.898c-.755 0-1.51-.19-2.077-.573-.566-.382-.944-1.528-.566-2.102.189-.382.755-.573 1.322-.764 4.908-1.337 10.005-1.337 15.102-1.528 1.133 0 2.266 0 3.399.573.755.382 1.321 1.337 1.132 2.293-.189 1.146-1.51 1.528-2.454 1.528a73.5 73.5 0 0 1-15.858.573m33.981-5.349c3.776-.191 7.739.19 11.515.764.944.191 2.266.573 2.266 1.528s-1.132 1.529-1.888 1.72c-4.53.955-9.061.955-13.592.382-.944-.191-1.888-.382-2.265-1.146s0-1.91.755-2.484c.755-.573 1.699-.573 2.643-.764s-.378.19.566 0"/><path fill="#EFA689" d="M191.817 67.036c-1.132-1.72-1.699-4.013-1.699-6.114 0-.764.378-.764.567 0 .377.955.755 1.91 1.321 2.675 1.133 1.528 2.454 2.674 3.965 3.63 1.132.764 2.454 1.528 3.02 2.675 1.133 1.91.567 4.585-1.132 6.113-1.322 1.338-3.21 1.91-5.098 2.102-.377 0-.566-.382-.188-.573 1.132-1.147 2.265-2.484 2.454-4.203 0-1.147-.567-2.484-1.133-3.44-.566-.764-1.51-1.719-2.077-2.865m-6.23 27.13c-4.53 0-9.439-1.528-13.592-6.878-.378-.573-.378-1.528.189-1.91.566-.383 1.51-.383 1.888.19 5.474 6.879 12.082 6.305 17.179 5.16.755-.192 1.51.19 1.699.954.189.765-.189 1.529-.944 1.72-2.077.382-4.153.764-6.419.764"/><path fill="#353338" d="M131.029 44.3s-17.368 21.781-1.888 47.765 11.327-41.268 11.327-41.268z"/><path fill="#FBBB9D" d="M135.56 65.89s-3.398-5.54-7.174-2.293c-4.342 3.821 2.454 14.902 6.23 14.902 1.51-5.158.944-12.61.944-12.61m134.226 91.325s11.892-3.057 11.326-8.597c-.566-5.541-11.326-5.541-11.326-5.541s9.438-3.439 8.872-8.406c-.754-8.598-36.624-3.057-36.624-3.057s3.02-16.049 3.964-22.545c1.888-12.228-.754-17.195-3.208-18.915v.192s-.756 13.756-7.552 13.374h-.378c-.188.573-.378 1.337-.566 1.91-1.698 5.35-10.572 23.5-12.461 26.939-2.076 3.439-10.95 26.748-15.668 36.874-3.966 8.406-12.649 25.602-12.649 25.602s6.608 5.731 14.159 9.553c6.984 3.439 17.179 3.63 17.179 3.63l11.894-22.163s35.68-4.012 37.002-10.699c.944-4.586-7.552-5.35-7.552-5.35s13.782-.764 13.782-7.833c-.188-5.732-10.194-4.968-10.194-4.968"/><path fill="#FFE1D7" d="M242.978 90.345c-1.322-1.147-2.454-1.147-2.832-.956-3.02 2.675-3.588 8.598-5.098 14.138h.378c6.796.574 7.552-13.182 7.552-13.182"/><path fill="#325B96" d="M196.726 188.739s-6.608-2.484-8.118-.573 4.908 6.878 4.908 6.878zm30.961 13.947s5.287 3.248 4.909 4.968-7.741.573-7.741.573z"/><path fill="#99CE65" d="M95.081 75.197c2.433-1.008-23.568 4.903-42.07-19.312h-.127C34.282 80.021 8.309 74.003 10.736 75.023c-9.287 72.232 30.021 63.03 41.635 83.609 0 0 .24.925.368.682.128.248.367-.676.367-.676 11.698-20.535 50.967-11.169 41.975-83.44"/><path fill="#F7F9A7" d="M28.308 102.778c-2.681 2.146 12.21 26.969 20.25 25.126 8.038-1.847 28.98-37.921 25.742-40.504s-26.84 27.033-26.84 27.033-16.407-13.847-19.151-11.655"/><path fill="#fff" d="M203.418 67.594c2.865 0 5.186-2.346 5.186-5.24 0-2.893-2.321-5.238-5.186-5.238s-5.186 2.345-5.186 5.239 2.322 5.239 5.186 5.239"/><mask id="c" width="11" height="11" x="198" y="57" maskUnits="userSpaceOnUse" style="mask-type:alpha"><path fill="#fff" d="M203.418 67.594c2.865 0 5.186-2.346 5.186-5.24 0-2.893-2.321-5.238-5.186-5.238s-5.186 2.345-5.186 5.239 2.322 5.239 5.186 5.239"/></mask><g mask="url(#c)"><path fill="#302735" d="M206.877 67.594c2.864 0 5.186-2.346 5.186-5.24 0-2.893-2.322-5.238-5.186-5.238s-5.186 2.345-5.186 5.239 2.322 5.239 5.186 5.239"/></g><path fill="#fff" d="M172.303 67.594c2.864 0 5.186-2.346 5.186-5.24 0-2.893-2.322-5.238-5.186-5.238s-5.186 2.345-5.186 5.239 2.322 5.239 5.186 5.239"/><mask id="d" width="11" height="11" x="167" y="57" maskUnits="userSpaceOnUse" style="mask-type:alpha"><path fill="#fff" d="M172.303 67.594c2.864 0 5.186-2.346 5.186-5.24 0-2.893-2.322-5.238-5.186-5.238s-5.186 2.345-5.186 5.239 2.322 5.239 5.186 5.239"/></mask><g mask="url(#d)"><path fill="#302735" d="M175.761 67.594c2.864 0 5.186-2.346 5.186-5.24 0-2.893-2.322-5.238-5.186-5.238s-5.186 2.345-5.186 5.239 2.322 5.239 5.186 5.239"/></g></g></g><defs><clipPath id="a"><path fill="#fff" d="M0 0h283v211H0z"/></clipPath></defs></svg>