<svg width="373" height="513" viewBox="0 0 373 513" fill="none" xmlns="http://www.w3.org/2000/svg">
<path fill-rule="evenodd" clip-rule="evenodd" d="M109.986 160.193H276.811C329.59 160.193 372.864 203.534 372.864 256.395V416.798C372.864 469.659 329.59 513 276.811 513H109.986C57.208 513 13.9343 469.659 13.9343 416.798V256.395C13.7321 203.534 57.0057 160.193 109.986 160.193Z" fill="#DEDEDE" fill-opacity="0.33"/>
<path fill-rule="evenodd" clip-rule="evenodd" d="M333.038 335.188C330.612 409.313 267.117 468.857 189.063 468.857C111.21 468.857 47.7147 409.515 45.0859 335.188H333.038Z" fill="#F06F1E"/>
<path fill-rule="evenodd" clip-rule="evenodd" d="M157.715 289.402C156.907 262.669 133.854 241.201 105.746 241.201C77.6386 241.201 54.5862 262.669 53.7773 289.402H157.715Z" fill="#F06F1E"/>
<path fill-rule="evenodd" clip-rule="evenodd" d="M330.851 287.724C330.042 260.991 306.991 239.521 278.882 239.521C250.774 239.521 227.723 260.991 226.914 287.724H330.851Z" fill="#F06F1E"/>
<path fill-rule="evenodd" clip-rule="evenodd" d="M158.927 0L80.4688 1.01271L126.776 136.506L158.927 0Z" fill="#DEDEDE" fill-opacity="0.33"/>
<path fill-rule="evenodd" clip-rule="evenodd" d="M48.1267 49.8008L0 80.9904L98.4779 139.521L48.1267 49.8008Z" fill="#DEDEDE" fill-opacity="0.33"/>
<path fill-rule="evenodd" clip-rule="evenodd" d="M208.882 44.7422L213.332 47.1726L256.201 71.2737L158.734 134.665L206.658 48.9954L208.882 44.7422Z" fill="#DEDEDE" fill-opacity="0.33"/>
</svg>
