<svg width="1919" height="726" viewBox="0 0 1919 726" fill="none" xmlns="http://www.w3.org/2000/svg">
<path d="M1919 697.582H0V725.678H1919V697.582Z" fill="#F48B4A"/>
<path fill-rule="evenodd" clip-rule="evenodd" d="M240.475 566.219V714.402L248.774 725.679H159.181L165.994 714.402H166.209V624.763L161.748 612.43H166.425C165.731 603.562 161.718 595.282 155.189 589.242C148.659 583.203 140.093 579.848 131.2 579.848C122.306 579.848 113.74 583.203 107.211 589.242C100.681 595.282 96.6686 603.562 95.974 612.43H100.771L96.3098 624.763V714.402H96.5257L104.61 725.679H15.1121L21.7087 714.402V549.616L2.39876 534.524H1.70312V533.012H21.7087V508.539H240.475V533.012H260.696V534.524H259.641L240.451 549.616V566.219H240.475Z" fill="#F48B4A"/>
<path fill-rule="evenodd" clip-rule="evenodd" d="M246.663 598.155V625.412H248.15V725.68H504.169V625.412H506.927V594.964H503.329V367.627H508.535V361.245H498.22V351.648H494.598V348.673H493.518L489.488 341.475L485.219 333.797L481.189 341.475L477.135 348.673H476.079V351.648H415.631V361.245H405.196V367.627H410.953V471.303H385.838L381.785 440.855L380.945 432.769V389.341H387.757V384.063H380.945V378.305H375.188V384.063H368.4V389.389H375.188V431.738L373.917 440.903L369.887 471.351H341.582V367.627H346.691V361.245H336.472V351.648H277.295V348.673H276.24L272.186 341.475L268.156 333.797L263.886 341.475L260.072 348.673H258.777V351.648H253.979V361.245H243.473V367.627H249.206V594.964H246.663V598.155ZM341.582 480.876H370.103V498.751L368.4 501.51L358.613 516.842H341.582V480.852V480.876ZM385.838 480.876H410.953V516.866H397.328L387.733 501.534L385.814 498.775L385.838 480.876ZM346.043 559.214C346.4 551.873 349.433 544.917 354.568 539.66C359.704 534.404 366.587 531.211 373.917 530.686C366.6 531.246 359.737 534.45 354.608 539.699C349.48 544.949 346.435 551.885 346.043 559.214ZM488.001 518.977H426.281V472.142H488.001V518.977ZM465.861 479.604C467.996 479.604 469.915 480.876 469.915 482.364V514.083H461.807V482.436C461.807 480.948 463.51 479.676 465.861 479.676V479.604ZM449.909 479.604C452.02 479.604 453.939 480.876 453.939 482.364V514.083H445.855V482.436C445.855 480.948 447.558 479.676 449.909 479.676V479.604ZM474.952 534.525H483.252V526.223H474.952V534.525ZM431.319 534.525H439.834V526.223H431.319V534.525ZM304.041 479.604C306.176 479.604 308.095 480.876 308.095 482.364V514.083H300.083V482.436C300.083 480.948 301.786 479.676 304.113 479.676L304.041 479.604ZM288.089 479.604C290.224 479.604 291.927 480.876 291.927 482.364V514.083H284.036V482.436C284.036 480.948 285.739 479.676 288.089 479.676V479.604ZM313.204 534.525H321.504V526.223H313.276L313.204 534.525ZM269.571 534.525H277.871V526.223H269.571V534.525ZM488.625 719.489H482.892V663.297C482.892 646.07 457.561 632.106 457.561 632.106C457.561 632.106 432.23 646.166 432.23 663.297V719.489H423.931V625.412H488.697V719.489H488.625ZM408.387 719.489H401.814V663.297C401.814 646.07 376.483 632.106 376.483 632.106C376.483 632.106 351.153 646.166 351.153 663.297V719.489H343.956V625.412H408.435V719.489H408.387ZM328.173 719.489H320.976V663.297C320.976 646.07 295.645 632.106 295.645 632.106C295.645 632.106 270.339 646.166 270.339 663.297V719.489H263.862V625.412H328.149V719.489H328.173Z" fill="#F48B4A"/>
<path fill-rule="evenodd" clip-rule="evenodd" d="M1314.15 710.562H1318.42L1286.28 648.395C1269.6 632.46 1247.64 623.235 1224.59 622.486C1201.54 621.738 1179.02 629.52 1161.35 644.341L1127.1 710.562H1133.26V725.678H1052.4V710.562H1063.02L1129.64 581.766V562.403H1143.91L1167.51 494.694V493.207H1167.95L1174.54 474.012H1172V456.113H1179.44V452.73H1168.38V433.343H1185.17C1197.71 334.971 1203.69 165.986 1205.61 111.833H1205.17V107.586H1205.8L1206.01 97.1489H1203.04V79.8258H1210.72V58.2318H1219.64V27.8803H1222.61V0H1226.02V27.8803H1229.21V58.3278H1237.94V79.9218H1245.81V97.3649H1242.55L1242.98 107.802H1243.41V112.049H1243.2C1244.25 142.496 1246.39 209.774 1250.66 280.434L1250.85 281.082L1250.66 281.298C1253.2 324.078 1256.39 367.674 1260.25 405.175C1261.31 415.396 1262.65 424.562 1263.44 433.487H1280.45V452.874H1269.39V456.257H1276.59V474.156H1274.88L1281.48 493.351L1305.47 562.547H1312.9V580.638L1314.39 579.99L1382.06 710.706H1394.84V725.822H1314.15V710.562ZM1149.86 557.917L1171.45 545.368L1158.9 533.228L1149.86 557.917ZM1162 523.222L1181.19 510.674L1170.34 499.805L1162 523.222ZM1173.27 491.311L1187.38 482.434L1178.86 475.236L1173.27 491.311ZM1270.32 474.06H1269.68L1261.59 481.714L1275.84 490.016L1270.32 474.06ZM1279.46 500.021L1269.46 510.242L1286.71 521.087L1279.46 500.021ZM1290.74 532.388L1277.14 545.368L1299.9 558.565L1290.74 532.388ZM1222.01 97.2689L1216.9 101.54L1211.8 97.2689H1222.01ZM1215.42 103.027L1209.44 107.706L1209.88 98.1087L1215.42 103.027ZM1212.23 107.706L1216.47 104.083L1220.31 107.706H1212.23ZM1218.18 102.907L1222.42 99.5003V106.698L1218.18 102.907ZM1222.42 112.505L1216.16 118.983L1209.56 111.953H1222.54L1222.42 112.505ZM1214.34 120.806L1209.01 126.565L1209.23 115.072L1214.34 120.806ZM1208.96 129.204L1215.78 122.174L1221.97 129.204H1208.96ZM1217.26 120.47L1222.37 115.168V126.013L1217.26 120.47ZM1222.37 133.451L1215.56 140.265L1209.4 133.259H1222.37V133.451ZM1213.76 141.729L1208.22 147.703L1208.63 135.562L1213.76 141.729ZM1208.01 150.678L1215.47 143.48L1221.63 150.918H1208.01V150.678ZM1216.95 141.729L1222.47 136.21V148.207L1216.95 141.729ZM1222.47 155.357L1215.47 162.171L1208.84 154.973H1222.47V155.357ZM1213.55 163.874L1207.36 169.849V168.553L1207.79 157.492L1213.55 163.874ZM1207.79 172.176L1214.99 165.362L1221.15 172.176H1207.79ZM1216.52 163.874L1222.47 158.356V170.353L1216.52 163.874ZM1222.47 177.719L1215.47 183.885L1207.79 176.231H1222.06L1222.47 176.447V177.719ZM1213.55 185.372L1206.57 191.371L1207.21 178.798L1213.55 185.372ZM1206.73 193.89L1215.03 186.86L1221.85 193.89H1206.73ZM1216.52 185.372L1222.47 180.574V191.227L1216.52 185.372ZM1226.52 177.071L1227.17 176.231H1241.42L1234.22 183.885L1226.55 177.287L1226.52 177.071ZM1222.47 198.161L1214.39 204.951L1207.36 197.945H1222.47V198.161ZM1212.63 206.511L1205.63 212.461L1206.04 199.912L1212.63 206.511ZM1205.2 215.22L1214.12 208.022L1221.32 215.676H1205.15L1205.2 215.22ZM1215.83 206.511L1222.01 200.968V213.109L1215.83 206.511ZM1221.8 219.923L1213.76 226.905L1206.57 219.467H1221.89L1221.8 219.923ZM1212.01 228.416L1204.55 235.039L1204.98 221.41L1212.01 228.416ZM1205.2 236.934L1213.5 229.928L1220.53 236.934H1205.2ZM1215.42 228.416L1221.8 222.682V229.496L1221.58 232.903V235.039L1215.42 228.416ZM1205.63 219.491L1204.98 221.41L1205.2 219.491H1205.63ZM1220.93 241.085L1213.28 247.899L1206.57 240.965L1220.93 241.085ZM1211.34 249.602L1203.26 256.8L1203.9 242.404L1211.34 249.602ZM1204.74 258.744L1213.04 251.09L1220.91 258.744H1204.74ZM1214.96 249.387L1221.56 243.628L1221.34 247.251V252.794L1221.13 255.337L1214.96 249.387ZM1219.64 262.799L1212.2 268.965L1206.01 262.799H1219.64ZM1210.04 271.101L1201.96 277.699L1203.02 263.639L1210.04 271.101ZM1203.23 280.242L1211.96 272.804L1218.99 280.242H1203.23ZM1214.29 271.101L1220.89 265.126V267.909L1220.48 277.507L1214.29 271.101ZM1220.26 284.297L1212.18 291.111L1205.77 284.297H1220.26ZM1210.04 292.814L1200.67 300.9L1201.74 284.297L1210.04 292.814ZM1203.88 301.74L1211.96 294.95L1218.78 301.74H1203.88ZM1214.29 292.814L1220.26 288.016V288.856L1220.05 289.911V295.286L1219.83 298.693L1214.29 292.814ZM1218.34 305.795L1210.69 311.961L1204.72 305.795H1218.34ZM1208.53 314.097L1199.18 321.966L1200.45 305.795L1208.53 314.097ZM1201.96 323.238L1210.48 316.04L1217.67 323.238H1201.96ZM1212.8 314.097L1219.62 308.146L1219.4 310.545V312.081L1218.99 320.167L1212.8 314.097ZM1216.86 327.293L1208.8 333.675L1202.44 327.077L1216.86 327.293ZM1206.57 335.475L1197.83 342.505L1199.11 327.389L1206.57 335.475ZM1199.37 344.64L1208.51 337.61L1214.91 344.64H1199.37ZM1210.45 335.691L1218.54 329.524C1218.32 333.987 1218.1 338.882 1217.67 343.344L1210.45 335.691ZM1216.19 348.887L1208.1 355.053L1201.94 348.887H1216.19ZM1205.97 356.973L1196.04 364.866C1196.47 359.732 1196.9 354.213 1197.33 348.887H1198.17L1205.97 356.973ZM1198.94 366.138L1207.67 358.94L1214.48 366.138H1198.94ZM1210.02 357.189L1217.22 351.43C1217 355.701 1216.81 359.948 1216.38 364.003L1210.02 357.189ZM1212.78 370.169L1205.75 375.927L1200.43 370.169H1212.78ZM1203.42 377.847L1194.07 385.045C1194.69 380.366 1195.12 375.256 1195.34 370.145H1196.4L1203.42 377.847ZM1195.34 387.852L1205.13 379.766L1212.99 387.852H1195.34ZM1207.33 378.039L1215.85 371.249C1215.42 375.927 1215.23 381.038 1214.58 385.501L1207.33 378.039ZM1213.09 391.883L1203.74 399.081L1197.14 391.883H1213.09ZM1201.77 400.856L1192.61 408.51H1191.98C1192.39 403.208 1192.82 397.665 1193.47 392.123L1201.77 400.856ZM1196.97 408.51L1203.78 402.992L1208.87 408.51H1196.97ZM1206.11 401.312L1214.19 394.906C1213.57 399.393 1213.14 404.071 1212.71 408.102L1206.11 401.312ZM1211.65 412.589L1201.22 421.107L1193.35 412.589H1211.65ZM1199.08 422.81L1189.49 430.464C1189.92 425.354 1190.76 420.027 1191.19 414.725L1199.08 422.81ZM1189.77 433.391L1200.62 424.874L1207.81 432.552V432.767L1207.6 433.391H1189.77ZM1202.97 422.978L1211.27 416.356C1210.43 421.155 1209.78 425.522 1208.87 429.36L1202.97 422.978ZM1227.24 97.2689L1232.54 101.54L1237.34 97.2689H1227.24ZM1234.06 103.027L1239.14 107.058L1238.93 98.5406L1234.06 103.027ZM1236.81 107.706L1232.95 104.083L1228.92 107.706H1236.81ZM1231.06 102.907L1226.38 98.8525V107.154L1231.06 102.907ZM1226.38 112.049L1233.41 119.079L1239.36 112.265V112.049H1226.38ZM1234.9 120.782L1239.57 125.893L1239.36 115.888L1234.9 120.782ZM1239.69 128.868L1233.53 122.27L1226.93 129.3H1239.69V128.868ZM1231.82 120.566L1226.28 114.832V126.829L1231.82 120.566ZM1226.72 133.355L1233.74 140.361L1239.48 133.355H1226.72ZM1235.35 141.729L1240.46 146.839L1240.24 136.21L1235.35 141.729ZM1240.65 149.838L1234.08 143.456L1227.89 150.894H1240.65V149.838ZM1232.42 141.729L1226.48 135.778V149.19L1232.42 141.729ZM1226.48 154.949L1234.15 162.147L1240.72 154.949H1226.48ZM1235.85 163.874L1241.37 168.985L1240.94 158.14L1235.85 163.874ZM1241.37 172.176L1234.34 165.362L1228.39 172.176H1241.37ZM1232.64 163.874L1226.48 157.924V170.904L1232.64 163.874ZM1235.85 185.468L1242.24 191.011L1241.8 179.302L1235.85 185.468ZM1242.45 193.77L1234.34 186.956L1227.34 193.986H1242.55L1242.45 193.77ZM1232.64 185.468L1226.48 180.118V191.635L1232.64 185.468ZM1226.91 198.041L1235.21 205.047L1242.24 198.041H1226.91ZM1236.91 206.558L1243.29 212.077L1242.64 200.8L1236.91 206.558ZM1243.29 214.86L1235.35 207.974L1228.15 215.628H1243.48L1243.29 214.86ZM1233.7 206.558L1226.67 200.584V213.565L1233.7 206.558ZM1226.88 219.539L1235.61 226.977L1243.05 219.539H1226.88ZM1237.51 228.464L1244.32 234.439L1243.7 222.082L1237.51 228.464ZM1244.32 236.982L1235.83 229.976L1228.8 236.982H1244.32ZM1234.13 228.464L1226.93 222.082V229.544L1227.15 232.951V235.494L1234.13 228.464ZM1228.59 241.037L1235.78 247.851L1242.57 241.037H1228.59ZM1237.94 249.555L1245.4 256.153L1244.75 242.956L1237.94 249.555ZM1244.75 258.696L1236.45 251.042L1228.59 258.696H1244.75ZM1234.32 249.339L1227.12 242.956L1227.34 247.203V252.746L1227.56 255.937L1234.32 249.339ZM1229.52 262.751L1236.98 268.917L1243.15 262.751H1229.52ZM1239.12 271.053L1246.31 277.003L1245.67 264.238L1239.12 271.053ZM1245.93 280.194L1237.41 272.756L1229.98 280.194H1245.93ZM1235.09 271.053L1227.44 264.67L1227.84 267.861L1228.06 278.083L1235.09 271.053ZM1229.11 284.249L1236.79 291.063L1243.6 284.249H1229.11ZM1239.12 292.767L1247.85 300.42L1246.79 285.113L1239.12 292.767ZM1245.31 301.692L1237.41 294.902L1230.6 301.692H1245.31ZM1235.09 292.767L1228.27 287.224V288.712L1228.49 289.767V295.286L1228.71 299.341L1235.09 292.767ZM1231.03 305.747L1238.23 311.913L1244.61 305.747H1231.03ZM1240.63 314.049L1249.36 321.247L1248.52 306.131L1240.63 314.049ZM1247.44 323.19L1238.93 315.992L1231.49 323.19H1247.44ZM1236.6 314.049L1229.14 307.666L1229.35 310.426V312.081L1229.57 321.031L1236.6 314.049ZM1232.33 327.245L1240.63 333.843L1246.6 327.245H1232.33ZM1242.98 335.547L1250.66 342.145L1249.58 328.301L1242.98 335.547ZM1249.58 344.712L1240.84 337.682L1234.06 344.712H1249.58ZM1238.52 335.763L1230 328.732C1230.22 334.059 1230.63 339.17 1230.84 344.064L1238.52 335.763ZM1232.98 348.959L1241.06 355.125L1247.22 348.959H1232.98ZM1243.41 357.045L1252.77 364.507C1252.14 359.18 1251.71 354.285 1251.49 348.959H1251.28L1243.41 357.045ZM1250.44 366.21L1241.28 359.012L1234.68 366.21H1250.44ZM1239.14 357.26L1231.27 350.878C1231.49 355.557 1231.92 360.236 1232.14 364.722L1239.14 357.26ZM1236.6 370.241L1243.63 375.999L1248.93 370.241H1236.6ZM1245.95 377.919L1254.47 384.733C1254.04 379.934 1253.41 375.136 1253.2 370.337H1252.98L1245.95 377.919ZM1254.04 387.924L1243.84 379.838L1236.38 387.924H1254.04ZM1241.71 378.111L1232.54 370.457C1232.76 375.999 1233.41 381.326 1233.84 386.412L1241.71 378.111ZM1236.17 391.955L1245.11 399.153L1252.14 391.955H1236.17ZM1247.44 400.904L1256.82 408.558C1256.17 403.448 1255.74 398.145 1255.12 393.035L1247.44 400.904ZM1252.24 408.558L1245.83 403.04L1240.53 408.558H1252.24ZM1243.51 401.36L1234.78 394.33C1235.21 399.129 1235.64 404.119 1236.48 408.582L1243.51 401.36ZM1237.75 412.637L1248.18 421.155L1256.05 412.637H1237.75ZM1250.54 422.858L1259.24 429.864C1258.83 425.186 1257.97 420.267 1257.54 415.468L1250.54 422.858ZM1259.24 433.487L1248.62 424.85L1240.72 433.151L1240.94 433.367L1259.24 433.487ZM1246.27 423.074L1237.53 415.876C1238.18 421.203 1239.02 425.881 1239.93 429.912L1246.27 423.074ZM1176.03 493.303H1199.87L1189.77 484.689L1176.03 493.303ZM1200.28 474.108L1189.77 480.658L1182.31 474.06L1200.28 474.108ZM1192.41 483.058L1206.25 474.108H1208.17L1205.63 493.303H1204.77L1192.41 483.058ZM1259.05 483.897L1249.02 493.255H1275.22L1259.05 483.897ZM1248.18 474.108L1258.83 480.274L1265.43 474.108H1248.18ZM1256.27 482.41L1241.37 474.108L1244.56 493.303L1256.27 482.41ZM1164.54 526.893H1197.52L1184.33 513.913L1164.54 526.893ZM1201.58 497.31L1184.33 508.586L1173.06 497.31H1201.58ZM1187.74 511.706L1204.34 501.076L1200.5 524.686L1187.74 511.706ZM1266.06 513.409L1252.65 526.821H1287.98L1266.06 513.409ZM1248.62 497.238L1266.06 508.083L1276.92 497.238H1248.62ZM1262.86 511.274L1245.43 500.429L1249.02 523.198L1249.24 524.902L1262.86 511.274ZM1273.73 548.559L1259.67 562.403H1296.5L1273.73 548.559ZM1253.29 530.9L1273.52 543.017L1286.06 530.9H1253.29ZM1269.89 546.64L1250.94 535.219L1255 560.988L1269.89 546.64ZM1151.99 562.403H1189.22L1174.83 548.559L1151.99 562.403ZM1195.17 530.9L1175.17 543.017L1162.41 530.9H1195.17ZM1178.57 546.64L1198.99 534.523L1194.74 561.971L1178.57 546.64ZM1262.84 603.048V609.598C1264.33 610.246 1265.84 610.894 1267.11 611.302L1262.84 603.048ZM1261.14 609.022V599.641L1258.38 594.339V607.943L1261.14 609.022ZM1256.34 607.535V590.931L1254.64 587.524H1253.58V606.455L1256.34 607.535ZM1251.66 605.831V587.524H1249.1V605.183L1251.66 605.831ZM1247.18 604.968V587.524H1244.42V604.128L1247.18 604.968ZM1242.38 603.912V587.524H1239.62V603.48L1242.38 603.912ZM1237.92 603.048V587.524H1235.35V602.64L1237.92 603.048ZM1233.46 602.424V587.524H1230.67V602.208L1233.46 602.424ZM1228.97 602.208V587.524H1226.48V601.92L1228.97 602.208ZM1224.17 601.992V587.596H1221.41V601.992H1224.17ZM1219.5 601.992V587.596H1216.93V601.992H1219.5ZM1215.03 601.992V587.596H1212.25V602.28L1215.03 601.992ZM1210.36 602.424V587.524H1207.57V602.64L1210.36 602.424ZM1205.87 602.856V587.524H1203.11V603.048L1205.87 602.856ZM1201.41 603.696V587.524H1198.63V604.128L1201.41 603.696ZM1196.95 604.344V587.548H1194.57V605.207L1196.95 604.344ZM1192.15 605.615V587.524H1190.23L1189.39 589.012V606.455L1192.15 605.615ZM1187.47 606.887V592.611L1184.93 597.938V607.751L1187.47 606.887ZM1325.64 705.572L1336.72 691.511L1312.88 680.882L1325.64 705.572ZM1340.75 686.833L1351.62 673.42H1310.84L1340.75 686.833ZM1355.65 677.475L1346.29 689.472L1366.51 698.182L1355.65 677.475ZM1342.24 694.079L1329.26 710.466H1372.68L1370.76 706.627L1342.24 694.079ZM1305.66 667.182L1317.99 658.449L1297.55 651.251L1305.66 667.182ZM1322.88 655.186L1334.37 647.316H1301.6L1322.88 655.186ZM1340.54 648.156L1327.99 656.889L1348.84 664.351L1340.54 648.156ZM1322.88 660.296L1309.9 669.582H1348.09L1322.88 660.296ZM1297.55 643.189H1333.53L1309.9 634.671L1297.55 643.189ZM1292.44 641.485L1304.79 632.968L1284.14 625.53L1292.44 641.485ZM1309.9 629.369L1322.04 621.067H1286.71L1309.9 629.369ZM1327.13 622.747L1315.13 631.264L1335.55 638.726L1327.13 622.747ZM1279.9 617.228H1324.37L1320.31 609.334H1275.84L1279.9 617.228ZM1119.42 706.003L1108.15 691.607L1132.61 680.978L1119.42 706.003ZM1104.09 686.809L1093.47 673.396H1134.1L1104.09 686.809ZM1089.7 677.667L1098.62 689.496L1079.24 697.99L1089.7 677.667ZM1102.7 694.055L1115.89 710.442H1072.81L1074.73 706.387L1102.7 694.055ZM1139.71 667.23L1127.17 658.281L1148.01 650.843L1139.71 667.23ZM1122.13 655.09L1110.86 647.22H1143.48L1122.13 655.09ZM1105.1 648.275L1117.24 656.793L1096.8 664.255L1105.1 648.275ZM1122.13 660.272L1135.32 669.414H1096.94L1122.13 660.272ZM1147.68 643.237H1111.7L1135.32 634.719L1147.68 643.237ZM1318.35 605.351H1273.73L1264.57 587.476H1309.04L1318.35 605.351ZM1152.83 641.749L1140.29 633.016L1161.57 625.578L1152.83 641.749ZM1135.4 629.417L1123.26 621.115H1158.38L1135.4 629.417ZM1118.15 623.01L1130.29 631.312L1110.06 638.51L1118.15 623.01ZM1165.84 617.276H1120.91L1124.96 609.382H1169.65L1165.84 617.276ZM1171.78 605.279H1127.1L1136.45 587.404H1180.92L1171.78 605.279ZM1211.36 485.649H1239.24L1250.97 562.283H1199.01L1204.98 523.222L1211.36 485.649ZM1238.4 481.594H1211.58L1212.85 473.94H1236.84L1238.4 481.594ZM1183.71 608.255V601.225L1179.03 610.174C1180.53 609.405 1182.1 608.763 1183.71 608.255ZM1276.71 629.129L1274.31 624.642C1258.93 615.645 1241.5 610.744 1223.69 610.408C1205.88 610.072 1188.28 614.312 1172.58 622.723L1170.44 626.993C1186.68 617.713 1205.13 613.01 1223.83 613.386C1242.53 613.762 1260.78 619.203 1276.63 629.129H1276.71Z" fill="#F48B4A"/>
<path fill-rule="evenodd" clip-rule="evenodd" d="M830.206 544.097V559.213H832.125V561.972H831.477C885.761 596.259 855.321 606.888 861.702 613.702C851.291 613.486 840.856 613.486 830.206 613.702H798.279C802.332 606.24 770.837 596.45 827.064 561.972H826.416V559.213H828.335V544.937H827.064C825.892 544.924 824.752 544.552 823.8 543.869C822.847 543.187 822.127 542.228 821.738 541.122C822.243 541.618 822.844 542.006 823.504 542.261C824.164 542.517 824.869 542.635 825.576 542.609C827.125 542.623 828.617 542.026 829.73 540.949C830.843 539.871 831.487 538.4 831.525 536.851C831.505 536.192 831.366 535.542 831.117 534.932C831.711 535.427 832.188 536.048 832.516 536.748C832.843 537.449 833.013 538.213 833.012 538.987C833.023 540.002 832.775 541.004 832.293 541.898C831.81 542.792 831.109 543.549 830.254 544.097H830.206ZM724.229 626.898C724.853 625.626 719.767 624.139 729.027 618.38C737.95 624.139 733.057 625.842 734.136 626.898H724.229ZM723.797 636.687H734.016V631.193H723.797V636.687ZM725.716 635.416H727.635V632.225H725.716V635.416ZM730.394 635.416H732.097V632.225H730.394V635.416ZM727.995 635.416H729.674V632.225H727.995V635.416ZM722.454 630.617H735.431V629.561H722.454V630.617ZM722.454 628.698H735.431V627.642H722.454V628.698ZM722.454 638.487H735.431V637.647H722.454V638.487ZM722.454 639.758H735.431V638.919H722.454V639.758ZM723.509 639.974H734.16V666.367H723.509V639.974ZM734.16 668.095V690.864H723.509V668.095H734.16ZM734.16 692.568V706.604H746.705V641.39L767.79 637.119V706.508H768.63V625.626H771.389V624.763H796.096V617.325H862.493V623.491V624.763H888.016V625.626H890.151V706.508H891.422V635.991L911.859 641.75V706.532H925.7V692.496H936.111V706.532H955.061V683.738H972.092V706.508H993.801V712.266H665.172V706.508H687.528V683.738H704.751V706.508H723.485V692.472L734.16 692.568ZM703.936 577.184C702.856 575.264 711.132 572.937 696.068 563.772C681.387 572.721 689.471 575.48 687.768 577.184H703.936ZM704.368 593.139H687.984V584.214H704.368V593.139ZM701.369 591.244H698.61V586.133H701.369V591.244ZM693.717 591.244H690.958V586.133H693.717V591.244ZM697.555 591.244H694.773V586.133H697.555V591.244ZM706.91 583.782H685.633V581.383H706.91V583.782ZM706.91 580.375H685.633V578.264H706.91V580.375ZM706.91 595.923H685.633V593.787H706.91V595.923ZM706.91 598.034H685.633V596.546H706.91V598.034ZM993.801 725.775H665.172V714.282H993.801V725.775ZM704.847 598.37H687.624V641.15H704.847V598.37ZM955.781 577.088C957.052 575.168 948.584 572.841 963.864 563.676C978.545 572.625 970.461 575.384 972.164 577.088H955.781ZM971.948 593.043V584.118H974.347V581.335H953.046V584.118H955.445V593.043H953.046V598.37H955.181V641.15H972.212V598.37H974.347V593.043H971.948ZM958.539 591.148H961.298V586.037H958.539V591.148ZM965.999 591.148H969.094V586.037H966.119L965.999 591.148ZM962.377 591.148H965.136V586.037H962.377V591.148ZM952.998 580.927H974.299V578.168H952.998V580.927ZM972.188 643.933V680.763H955.157V643.933H972.188ZM800.222 706.508H858.751V629.249H800.222V706.508ZM935.799 626.898C935.151 625.626 940.261 624.139 931.001 618.38C921.838 624.139 926.947 625.842 925.892 626.898H935.799ZM936.207 636.687H925.916V631.193H936.111L936.207 636.687ZM934.096 635.416H932.393V632.225H934.096V635.416ZM929.61 635.416H927.907V632.225H929.61V635.416ZM931.745 635.416H930.042V632.225H931.745V635.416ZM937.478 630.737H924.477V629.465H937.454L937.478 630.737ZM937.478 628.602H924.477V627.546H937.454L937.478 628.602ZM937.478 638.391H924.477V637.335H937.454L937.478 638.391ZM937.478 639.878H936.207V666.271H925.796V639.878H924.501V638.823H937.478V639.878ZM925.796 667.999V690.768H936.207V667.999H925.796ZM687.648 644.005V680.835H704.871V643.933L687.648 644.005ZM762.009 684.458V700.198L751.167 700.414V685.658C751.167 682.874 756.252 678.46 756.468 678.46C756.684 678.46 762.009 681.651 762.009 684.434V684.458ZM762.009 658.065V673.613L751.167 674.885V659.265C751.167 656.266 756.252 651.803 756.468 651.803C756.684 651.803 762.009 654.778 762.009 657.969V658.065ZM897.563 684.458V700.198L908.429 700.414V685.658C908.429 682.874 903.104 678.46 902.888 678.46C902.672 678.46 897.563 681.651 897.563 684.434V684.458ZM897.563 658.065V673.613L908.429 674.885V659.265C908.429 656.266 903.104 651.803 902.888 651.803C902.672 651.803 897.563 654.778 897.563 657.969V658.065ZM865.659 623.587C866.931 621.188 856.712 618.476 875.446 607.2H874.583V606.336H875.23V602.401H874.583C874.21 602.354 873.856 602.209 873.557 601.982C873.258 601.754 873.025 601.452 872.88 601.105C873.261 601.372 873.71 601.522 874.175 601.537C874.649 601.551 875.11 601.382 875.463 601.064C875.816 600.747 876.033 600.307 876.07 599.834C876.083 599.722 876.072 599.609 876.039 599.502C876.006 599.394 875.951 599.295 875.878 599.21C876.094 599.338 876.268 599.527 876.379 599.753C876.49 599.979 876.532 600.232 876.502 600.481C876.506 600.759 876.453 601.034 876.345 601.29C876.238 601.546 876.079 601.777 875.878 601.969V606.216H876.286V607.2H875.542C893.413 618.068 884.058 621.452 885.761 623.587H865.659ZM834.788 661.472V673.613H847.141V661.065C847.141 653.867 830.35 644.029 829.462 644.029C828.575 644.029 811.807 653.819 811.807 661.065V673.613H823.945V661.472C823.945 659.361 829.055 656.362 829.462 656.362C829.87 656.362 834.788 659.361 834.788 661.472ZM834.788 688.513V700.51H823.945V688.513C823.945 686.114 829.055 683.186 829.462 683.186C829.87 683.186 834.788 686.162 834.788 688.513ZM847.141 677.884H811.903V700.438H806.794V635.656H852.13V700.438H847.333L847.141 677.884ZM778.609 664.256H782.879V672.341H778.609V664.256ZM778.609 692.352H782.879V700.438H778.609V692.352ZM876.286 692.352H880.556V700.438H876.286V692.352ZM876.286 664.256H880.556V672.341H876.286V664.256ZM774.795 629.873H778.633V635.632H774.795V629.873ZM881.203 629.873H885.257V635.632H881.203V629.873ZM874.823 629.873H878.661V635.632H874.823V629.873ZM868.226 629.873H872.064V635.632H868.346L868.226 629.873ZM787.988 629.873H791.826V635.632H787.988V629.873ZM781.391 629.873H785.229V635.632H781.391V629.873ZM870.745 677.14H876.694C875.591 677.782 874.525 678.487 873.503 679.251C872.709 679.836 872.037 680.571 871.527 681.415C871.017 682.259 870.677 683.195 870.529 684.17V701.181H886.912V684.17C886.529 682.178 885.385 680.413 883.722 679.251C882.736 678.437 881.667 677.729 880.532 677.14H886.912V675.437H870.745V677.14ZM772.852 648.18H780.048C778.58 649.104 777.163 650.105 775.802 651.179C774.158 652.306 773.014 654.026 772.612 655.978V672.989H788.995V655.978C788.593 654.026 787.449 652.306 785.805 651.179C784.533 649.979 783.095 648.969 781.535 648.18H788.995V646.477H772.828L772.852 648.18ZM772.852 677.14H779.017C777.882 677.729 776.812 678.437 775.826 679.251C774.164 680.413 773.019 682.178 772.636 684.17V701.181H789.019V684.17C788.873 683.169 788.512 682.211 787.961 681.362C787.411 680.513 786.683 679.793 785.829 679.251C784.928 678.428 783.929 677.719 782.855 677.14H789.019V675.437H772.852V677.14ZM870.313 648.18H877.941C876.347 648.911 874.9 649.928 873.671 651.179C872.827 651.704 872.105 652.403 871.554 653.231C871.004 654.059 870.638 654.996 870.481 655.978V672.989H886.864V655.978C886.462 654.026 885.318 652.306 883.674 651.179C882.313 650.105 880.896 649.104 879.428 648.18H886.241V646.477H870.265L870.313 648.18ZM784.342 599.234C784.562 599.357 784.74 599.545 784.852 599.772C784.963 600 785.003 600.255 784.965 600.505C784.976 600.784 784.925 601.061 784.817 601.318C784.71 601.575 784.547 601.805 784.342 601.993V606.24H784.965V607.2H783.07V606.336H783.694V602.401H783.07C782.423 602.401 781.775 601.753 781.343 601.105C781.737 601.345 782.18 601.492 782.639 601.537C783.115 601.551 783.579 601.383 783.936 601.066C784.293 600.75 784.515 600.309 784.558 599.834C784.572 599.72 784.56 599.605 784.523 599.496C784.485 599.388 784.423 599.29 784.342 599.21V599.234ZM783.91 607.104C801.781 617.972 792.641 621.356 794.129 623.491H774.123C775.61 621.092 765.176 618.38 783.91 607.104Z" fill="#F48B4A"/>
<path fill-rule="evenodd" clip-rule="evenodd" d="M1065.79 392.746H1061.98V365.49L1061.54 365.922L1060.9 365.49V374.224L1060.06 373.144L1059.22 374.655L1058.35 376.143L1057.3 374.655L1056.43 373.144L1055.38 374.655L1054.51 376.143L1053.46 374.655L1052.62 373.144L1051.54 374.655L1050.7 376.143L1049.84 374.655L1048.78 373.144L1047.92 374.655L1046.86 376.143L1046 374.655L1044.94 373.144L1044.1 374.655L1043.24 376.143L1042.19 374.655L1041.32 373.144L1040.27 374.655L1039.4 376.143L1038.35 374.655L1037.51 373.144L1036.43 374.655L1035.59 376.143L1034.73 374.655L1033.67 373.144L1032.81 374.655L1031.75 376.143L1030.91 374.655L1029.83 373.144L1028.99 374.655L1028.13 376.143L1027.07 374.655L1026.21 373.144L1025.15 374.655L1024.29 376.143L1023.24 374.655L1022.4 373.144L1021.32 374.655L1020.48 376.143L1019.61 374.655L1018.56 373.144L1017.69 374.655L1016.64 376.143L1015.8 374.655L1014.72 373.144L1013.88 374.655L1013.02 376.143L1011.96 374.655L1011.12 373.144L1010.04 374.655L1009.18 376.143L1008.12 374.655L1007.28 373.144L1006.2 374.655L1005.36 376.143L1004.52 374.655L1003.45 373.144L1002.58 374.655L1001.53 376.143L1000.69 374.655L999.608 373.144L998.768 374.655L997.904 376.143L996.849 374.655L996.009 373.144L995.146 374.439V365.49L994.498 365.922L993.875 365.49V392.746H990.252V382.093L989.821 382.741L989.197 382.093V470.437H1066.87V382.093L1066.22 382.741L1065.79 382.093V392.746ZM1068.19 725.678H985.887V676.491H1068.24L1068.19 725.678ZM1060.1 672.676V626.681H1056.65V672.676H1054.08V626.681H1050.49V672.676H1047.92V626.681H1044.51V672.676H1041.75V626.681H1038.35V672.676H1035.59V626.681H1032.18V672.676H1029.4V626.681H1025.99V672.676H1023.24V626.681H1019.83V672.676H1017.29V626.681H1013.66V672.676H1011.12V626.681H1007.69V672.676H1004.93V626.681H1001.53V672.676H998.768V626.681H995.482V672.676H992.699V577.519H1062.93V672.676H1060.1ZM1056.7 624.138H1060.1V579.63H1056.65L1056.7 624.138ZM995.41 624.138H998.816V579.63H995.482L995.41 624.138ZM1001.57 624.138H1004.98V579.63H1001.57V624.138ZM1007.74 624.138H1011.17V579.63H1007.74V624.138ZM1013.71 624.138H1017.33V579.63H1013.71V624.138ZM1019.88 624.138H1023.28V579.63H1019.88V624.138ZM1026.04 624.138H1029.45V579.63H1026.04V624.138ZM1032.23 624.138H1035.64V579.63H1032.18L1032.23 624.138ZM1038.4 624.138H1041.8V579.63H1038.4V624.138ZM1044.56 624.138H1047.97V579.63H1044.56V624.138ZM1050.53 624.138H1054.13V579.63H1050.53V624.138ZM997.065 363.163L994.498 361.027L992.099 363.163L994.498 365.706L997.065 363.163ZM1063.89 363.163L1061.5 361.027L1059.1 363.163L1061.5 365.706L1063.89 363.163ZM1068.69 379.766L1066.29 377.631L1064.18 379.766L1066.29 382.309L1068.69 379.766ZM992.075 379.766L989.941 377.631L987.542 379.766L989.941 382.309L992.075 379.766ZM993.995 361.243V359.732H995.266V361.243L994.618 360.595L993.995 361.243ZM1061.02 361.243V359.732H1062.09V361.243L1061.66 360.595L1061.02 361.243ZM989.317 377.847V376.143H990.372V377.631L989.941 377.199L989.317 377.847ZM1065.91 377.631V376.143H1066.99V377.847L1066.34 377.199L1065.91 377.631ZM1011.43 348.839L1001.21 374.176L1001.43 374.391L1001.65 374.799L1003.57 372.04L1005.05 374.439L1005.48 374.847L1005.92 374.439L1007.4 372.04L1009.3 375.015L1009.73 374.391L1011.24 371.824L1012.51 374.391L1013.14 375.015L1014.67 372.064L1016.37 374.463L1016.59 374.871L1017.07 374.463L1018.56 372.064L1020.04 374.463L1020.48 374.871L1020.91 374.463L1022.4 372.064L1023.88 374.463L1024.29 375.087L1024.72 374.463L1026.21 371.896L1027.51 374.463L1028.13 375.087L1028.34 374.463L1029.83 372.064L1031.53 374.463L1031.75 374.871L1033.67 372.112L1035.16 374.511L1035.59 374.919L1036.02 374.511L1037.51 372.112L1039.4 375.087L1039.83 374.463L1041.32 371.896L1042.81 374.463L1043.24 375.087L1044.94 372.112L1046.65 374.511L1046.86 374.919L1048.78 372.16L1050.27 374.559L1050.7 374.967L1051.13 374.559L1052.62 372.16L1054.51 374.919L1054.73 374.511L1054.95 374.295L1044.73 348.959L1011.43 348.839ZM1014.84 366.09L1012.73 362.467L1012.08 361.603L1009.3 366.09L1010.16 366.498L1012.08 363.331L1013.78 366.498L1014.84 366.09ZM1030.82 357.572L1028.68 353.733L1028.25 352.893L1025.49 357.692L1026.33 358.124L1028.25 354.909L1029.95 358.124L1030.82 357.572ZM1041.44 357.572L1039.04 353.733L1038.66 352.869L1035.9 357.668L1036.74 358.1L1038.66 354.885L1040.36 358.1L1041.44 357.572ZM1046.77 366.09L1044.37 362.467L1043.94 361.603L1041.37 366.09L1042.02 366.498L1043.94 363.331L1045.83 366.498L1046.77 366.09ZM1035.92 366.09L1033.86 362.467L1033.21 361.603L1030.46 366.09L1031.3 366.498L1033.21 363.331L1035.13 366.498L1035.92 366.09ZM1025.27 366.09L1023.36 362.467L1022.73 361.603L1019.95 366.09L1020.81 366.498L1022.73 363.331L1024.41 366.498L1025.27 366.09ZM1021.12 357.668L1019.18 353.829L1018.56 352.989L1015.8 357.788L1016.64 358.22L1018.56 355.005L1020.26 358.22L1021.12 357.668ZM1004.72 380.03H997.065V390.443H1004.72V380.03ZM1057.92 380.03H1050.49V390.443H1057.85L1057.92 380.03ZM1047.51 380.03H1039.62V390.443H1047.51V380.03ZM1036.86 380.03H1029.06V390.443H1036.93L1036.86 380.03ZM1026.21 380.03H1018.34V390.443H1026.21V380.03ZM1015.37 380.03H1007.69V390.443H1015.37V380.03ZM1031.1 284.441H1024.94V279.954H1031.1V284.441ZM1011.12 318.703L1008.72 316.304L1006.32 318.703L1008.72 321.102L1011.12 318.703ZM1049.62 318.703L1047.22 316.304L1044.82 318.703L1047.22 321.102L1049.62 318.703ZM1046 327.868L1045.16 329.572L1044.32 331.275H1044.1L1043.46 329.572L1042.4 327.868L1041.32 329.572L1040.67 331.275L1039.83 329.572L1038.78 327.868L1037.92 329.572L1037.08 331.275L1036.21 329.572L1035.37 327.868L1034.29 329.572L1033.45 331.275L1032.59 329.572L1031.75 327.868L1030.7 329.572L1030.05 331.275H1029.83L1028.99 329.572L1028.13 327.868L1027.07 329.572L1026.43 331.275H1026.21L1025.37 329.572L1024.51 327.868L1023.45 329.572L1022.8 331.275H1022.61L1021.75 329.572L1020.91 327.868L1019.83 329.572L1019.18 331.275H1018.99L1018.13 329.572L1017.07 327.868L1016.21 329.572L1015.37 331.275L1014.72 329.572L1013.66 327.868L1012.61 329.572L1011.96 331.275H1011.75L1011.12 329.572L1010.04 327.868L1009.39 328.924V321.462L1008.77 321.894L1008.12 321.462V331.275V347.663H1047.92V331.275V321.462L1047.29 321.894L1046.65 321.462V328.876L1046 327.868ZM1028.13 277.482C1028.13 278.13 1027.91 278.754 1027.91 279.402H1028.13V277.482ZM1027.29 285.16C1024.89 299.844 1018.13 312.825 1013.45 326.645V326.453L1015.15 329.428L1015.37 329.836L1017.07 326.453L1018.77 329.428L1018.99 329.836L1019.18 329.428L1020.91 326.453L1022.61 329.836L1022.8 329.428L1024.51 326.453L1026.21 329.836L1026.43 329.428L1028.13 326.453L1029.62 329.428L1029.83 329.836L1030.05 329.428L1031.75 326.453L1033.45 329.836L1033.67 329.428L1035.37 326.453L1037.08 329.836L1037.29 329.428L1039 326.453L1040.27 329.428L1040.67 329.836L1040.89 329.428L1042.4 326.453C1042.81 325.805 1029.4 291.111 1028.56 285.16H1027.29ZM1030.7 305.147L1028.56 301.74L1028.13 300.684L1025.37 305.147L1026.21 305.795L1028.13 302.603L1029.83 305.795L1030.7 305.147ZM1022.61 323.478L1020.69 319.639L1020.04 318.775L1017.29 323.574L1018.13 323.981L1020.04 320.574L1021.75 323.981L1022.61 323.478ZM1030.7 323.478L1028.56 319.639L1028.13 318.775L1025.37 323.574L1026.21 323.981L1028.13 320.574L1029.83 323.981L1030.7 323.478ZM1038.78 323.478L1036.64 319.639L1036.02 318.775L1033.24 323.574L1034.29 323.981L1036.02 320.574L1037.92 323.981L1038.78 323.478ZM1025.99 314.72L1023.88 310.905L1023.24 310.041L1020.69 314.72L1021.53 315.152L1023.24 311.769L1025.15 315.152L1025.99 314.72ZM1035.37 314.72L1033.24 310.905L1032.81 310.041L1030.05 314.72L1030.7 315.152L1032.81 311.769L1034.51 315.152L1035.37 314.72ZM1008.12 316.232V314.72H1009.39V316.232L1008.77 315.584L1008.12 316.232ZM1046.65 316.232V314.72H1047.92V316.232L1047.29 315.584L1046.65 316.232ZM1016.21 334.539H1010.26V345.168H1016.21V334.539ZM1045.78 334.539H1039.83V345.168H1045.86L1045.78 334.539ZM1038.35 334.539H1032.37V345.168H1038.35V334.539ZM1031.15 334.539H1025.2V345.168H1031.15V334.539ZM1023.71 334.539H1017.74V345.168H1023.71V334.539ZM1057.13 572.312H1060.54V523.654H1057.13V572.312ZM995.626 572.312H999.032V523.654H995.482L995.626 572.312ZM1001.79 572.312H1005.08V523.654H1001.67L1001.79 572.312ZM1007.96 572.312H1011.36V523.654H1007.96V572.312ZM1014.14 572.312H1017.53V523.654H1014.14V572.312ZM1020.31 572.312H1023.71V523.654H1020.31V572.312ZM1026.26 572.312H1029.88V523.654H1026.26V572.312ZM1032.42 572.312H1035.85V523.654H1032.42V572.312ZM1038.61 572.312H1042.02V523.654H1038.66L1038.61 572.312ZM1044.78 572.312H1048.25V523.654H1044.85L1044.78 572.312ZM1050.96 572.312H1054.35V523.654H1050.96V572.312ZM1057.13 521.207H1060.54V476.387H1057.13V521.207ZM995.626 521.207H999.032V476.387H995.482L995.626 521.207ZM1001.79 521.207H1005.08V476.387H1001.67L1001.79 521.207ZM1007.96 521.207H1011.36V476.387H1007.96V521.207ZM1014.14 521.207H1017.53V476.387H1014.14V521.207ZM1020.31 521.207H1023.71V476.387H1020.31V521.207ZM1026.26 521.207H1029.88V476.387H1026.26V521.207ZM1032.42 521.207H1035.85V476.387H1032.42V521.207ZM1038.61 521.207H1042.02V476.387H1038.66L1038.61 521.207ZM1044.78 521.207H1048.25V476.387H1044.85L1044.78 521.207ZM1050.96 521.207H1054.35V476.387H1050.96V521.207ZM1063.08 474.612H993.083V574.232H1063.1L1063.08 474.612ZM1002.01 463.959H997.88V468.013H1001.93L1002.01 463.959ZM1057.97 463.959H1053.94V468.013H1057.85L1057.97 463.959ZM1052.86 463.959H1048.83V468.013H1052.86V463.959ZM1047.75 463.959H1043.72V468.013H1047.75V463.959ZM1042.64 463.959H1038.66V468.013H1042.69L1042.64 463.959ZM1037.56 463.959H1033.5V468.013H1037.56V463.959ZM1032.42 463.959H1028.34V468.013H1032.37L1032.42 463.959ZM1027.34 463.959H1023.28V468.013H1027.34V463.959ZM1022.23 463.959H1018.17V468.013H1022.23V463.959ZM1017.12 463.959H1013.28V468.013H1017.07L1017.12 463.959ZM1012.32 463.959H1008.27V468.013H1012.27L1012.32 463.959ZM1007.21 463.959H1003.16V468.013H1007.21V463.959ZM1028.27 434.159C1027.86 434.159 1027.43 433.943 1027 433.943L1025.51 435.43C1025.3 436.294 1025.3 436.918 1024.87 437.35C1024.71 437.456 1024.53 437.513 1024.34 437.513C1024.15 437.513 1023.97 437.456 1023.81 437.35C1023.51 436.885 1023.16 436.458 1022.76 436.078C1022.32 435.862 1022.32 435.43 1022.76 435.023C1023.21 434.597 1023.81 434.365 1024.43 434.375L1026.14 432.887C1025.73 432.671 1025.73 432.023 1025.73 431.592V430.968L1010.4 414.58V414.148H1010.81C1010.81 413.932 1011.03 413.932 1011.03 414.148L1027.22 429.264C1027.53 429.071 1027.91 428.995 1028.27 429.048C1028.79 429.088 1029.3 429.235 1029.76 429.48L1032.33 427.081C1032.21 427.075 1032.11 427.028 1032.03 426.948C1031.95 426.868 1031.9 426.762 1031.89 426.649C1031.8 426.598 1031.72 426.521 1031.66 426.428C1031.61 426.335 1031.58 426.229 1031.58 426.121C1031.58 426.013 1031.61 425.907 1031.66 425.814C1031.72 425.721 1031.8 425.645 1031.89 425.593C1032.65 425.1 1033.54 424.872 1034.44 424.945L1034.87 424.538V423.458H1036.26V424.729H1035.42L1034.77 425.377C1034.77 426.433 1034.77 427.513 1034.34 427.945C1034.15 428.052 1033.93 428.108 1033.71 428.108C1033.48 428.108 1033.26 428.052 1033.07 427.945L1032.85 427.729L1030.31 430.272C1030.55 430.659 1030.69 431.093 1030.74 431.544C1030.74 431.975 1030.53 432.191 1030.53 432.407C1031.28 433.558 1032.41 434.407 1033.72 434.807C1033.75 434.806 1033.78 434.813 1033.81 434.825C1033.83 434.837 1033.86 434.855 1033.88 434.878C1033.9 434.901 1033.92 434.928 1033.92 434.957C1033.93 434.986 1033.94 435.016 1033.93 435.047C1033.93 435.239 1033.93 435.455 1033.72 435.455C1033.5 435.455 1033.29 435.67 1033.29 435.886C1033.29 436.102 1033.07 436.102 1033.07 436.318C1033.05 436.482 1032.97 436.634 1032.85 436.75C1032.42 436.75 1032.23 436.75 1032.23 436.942C1032.12 436.948 1032.01 436.995 1031.93 437.075C1031.85 437.155 1031.8 437.261 1031.8 437.374H1031.46C1031.25 437.59 1031.25 437.374 1031.03 437.374C1030.63 436.02 1029.72 434.875 1028.49 434.183L1028.27 434.159ZM1027.65 409.47H1026.14L1025.95 406.686H1027.65V409.47ZM1024.87 409.686C1024.24 409.878 1023.6 409.878 1022.95 410.094L1022.32 407.334C1023.09 407.059 1023.9 406.913 1024.72 406.902L1024.87 409.686ZM1021.89 410.309C1021.44 410.58 1020.93 410.729 1020.4 410.741L1019.33 408.174L1021.27 407.55L1021.89 410.309ZM1019.49 411.173C1018.89 411.543 1018.23 411.826 1017.55 412.013L1016.06 409.614C1016.8 409.121 1017.61 408.756 1018.46 408.534L1019.49 411.173ZM1016.49 412.661C1016.12 413.014 1015.69 413.298 1015.22 413.501L1013.52 411.101C1014.13 410.82 1014.71 410.457 1015.22 410.022L1016.49 412.661ZM1014.38 414.148C1014.09 414.5 1013.72 414.786 1013.3 414.988L1013.74 415.42L1014.58 414.58H1014.67L1014.89 414.364C1015.54 413.932 1015.94 413.501 1016.59 413.093H1016.81L1021.27 420.963C1020.9 421.136 1020.54 421.345 1020.21 421.586L1020.64 422.018C1022.72 420.274 1025.37 419.367 1028.08 419.475C1031.08 419.443 1033.98 420.501 1036.26 422.45H1037.12C1036.51 421.768 1035.79 421.192 1034.99 420.747L1039.23 412.877H1039.45L1041.85 414.58L1042.07 414.772C1042.51 415.255 1043.01 415.682 1043.55 416.044C1044.05 416.741 1044.62 417.384 1045.26 417.963V418.179L1045.47 418.395C1045.89 418.922 1046.24 419.493 1046.53 420.099L1038.88 424.562C1038.44 423.938 1037.8 423.074 1037.39 422.45V423.506C1039.27 425.7 1040.32 428.485 1040.36 431.376C1040.42 433.823 1039.75 436.232 1038.42 438.29C1037.09 440.347 1035.18 441.957 1032.92 442.91C1030.67 443.863 1028.18 444.114 1025.78 443.632C1023.38 443.15 1021.18 441.955 1019.47 440.205C1018.31 439.071 1017.38 437.712 1016.76 436.21C1016.14 434.709 1015.83 433.097 1015.85 431.472C1015.78 428.841 1016.69 426.279 1018.39 424.274L1017.96 423.842C1017.74 424.058 1017.53 424.49 1017.33 424.681L1009.66 420.219C1010.09 419.333 1010.67 418.523 1011.36 417.819V417.651C1011.58 417.651 1011.58 417.436 1011.79 417.22L1011.36 416.788C1011.17 417.004 1011.17 417.22 1010.93 417.436L1008.53 415.516C1008.9 415.348 1009.2 415.049 1009.37 414.676V413.597L1010.02 413.381C1010.23 412.973 1010.64 412.973 1011.1 412.973C1011.55 412.557 1012.05 412.194 1012.58 411.893L1014.38 414.148ZM1010.74 417.987H1010.55L1008.63 416.26L1010.74 417.771V417.987ZM1010.33 418.395C1009.85 418.88 1009.49 419.461 1009.25 420.099L1007.98 419.259L1006.71 418.611C1007.1 417.948 1007.52 417.307 1007.98 416.692H1008.2L1010.33 418.395ZM1008.63 420.963C1008.37 421.44 1008.15 421.938 1007.98 422.45L1005.22 421.178C1005.44 420.747 1005.87 420.099 1006.06 419.691L1008.63 420.963ZM1007.36 423.506L1006.71 425.425L1004.17 424.586H1003.95C1004.17 423.722 1004.6 423.098 1004.79 422.186L1007.36 423.506ZM1006.49 426.529C1006.32 427.024 1006.18 427.529 1006.06 428.041L1003.3 427.609C1003.52 426.961 1003.52 426.337 1003.73 425.689V425.905L1006.49 426.529ZM1006.06 428.472L1003.52 428.257V428.041L1006.06 428.472ZM1006.06 429.096C1005.9 429.723 1005.84 430.37 1005.87 431.016H1003.09C1003.05 430.21 1003.12 429.402 1003.3 428.616L1006.06 429.096ZM1005.8 432.047C1005.77 432.551 1005.83 433.056 1005.99 433.535L1003.01 433.751V432.047H1005.8ZM1005.99 434.591C1006.2 435.239 1006.2 436.102 1006.42 436.726L1003.66 437.374C1003.41 436.598 1003.26 435.791 1003.23 434.975L1005.99 434.591ZM1006.64 437.782L1007.28 439.077L1004.52 440.133V440.349L1003.88 438.43H1004.09L1006.64 437.782ZM1007.5 439.701L1005.1 440.781V440.565L1007.5 439.701ZM1007.69 440.133C1007.89 440.81 1008.18 441.456 1008.55 442.053L1005.99 443.54C1005.58 442.916 1005.36 442.053 1004.93 441.405L1005.15 441.189L1007.69 440.133ZM1009.18 443.132C1009.35 443.567 1009.65 443.936 1010.04 444.188L1007.5 445.892C1007.17 445.421 1006.88 444.923 1006.64 444.404L1009.18 443.132ZM1010.67 445.028C1011.12 445.676 1011.53 446.107 1011.96 446.731L1010.04 448.867H1009.87C1009.44 448.219 1008.82 447.595 1008.39 446.947L1010.67 445.028ZM1012.82 447.595C1013.23 447.787 1013.45 448.219 1013.88 448.435L1012.18 450.834H1011.96C1011.53 450.402 1011.12 449.97 1010.67 449.563L1012.82 447.595ZM1014.72 449.299C1015.37 449.707 1015.8 449.922 1016.42 450.354L1015.15 452.922H1014.94C1014.25 452.48 1013.61 451.974 1013.02 451.41L1014.72 449.299ZM1017.48 451.002L1018.77 451.626L1017.69 454.193C1017.07 454.034 1016.49 453.739 1015.99 453.329L1017.48 451.002ZM1019.88 452.058L1021.8 452.706L1021.17 455.465C1020.31 455.249 1019.47 455.033 1018.77 454.817L1019.88 452.058ZM1022.28 452.922L1021.84 455.321H1021.63L1022.28 452.922ZM1022.9 453.138C1023.33 453.138 1023.98 453.329 1024.39 453.329L1023.98 456.089C1023.33 456.089 1022.71 455.897 1022.28 455.897L1022.9 453.138ZM1024.82 453.545H1025.03L1024.6 455.945L1024.82 453.545ZM1025.47 453.545C1026.09 453.545 1026.95 453.761 1027.6 453.761V456.521C1026.74 456.556 1025.88 456.484 1025.03 456.305L1025.47 453.545ZM1028.66 453.761C1029.16 453.796 1029.67 453.722 1030.14 453.545L1030.58 456.305V456.521H1028.66V453.761ZM1031.42 453.545C1032.06 453.329 1032.69 453.33 1033.33 453.138L1033.86 456.041C1033.21 456.233 1032.35 456.233 1031.46 456.449L1031.42 453.545ZM1033.98 452.922L1034.61 455.321H1034.39L1033.98 452.922ZM1034.39 452.706C1034.91 452.635 1035.42 452.489 1035.9 452.274L1036.96 454.817V455.033C1036.42 455.277 1035.84 455.423 1035.25 455.465L1034.39 452.706ZM1036.31 452.058H1036.52L1037.39 454.457L1036.31 452.058ZM1036.96 451.842C1037.54 451.605 1038.11 451.325 1038.66 451.002L1040.15 453.401V453.641C1039.4 453.915 1038.68 454.269 1038.01 454.697V454.505L1036.96 451.842ZM1039.71 450.354C1040.18 450.149 1040.61 449.865 1040.99 449.515L1042.69 451.914C1042.28 452.346 1041.63 452.562 1041.2 452.994L1039.71 450.354ZM1041.85 448.867C1042.38 448.49 1042.88 448.065 1043.34 447.595L1045.47 449.515C1044.88 450.135 1044.24 450.705 1043.55 451.218L1041.85 448.867ZM1044.25 446.731C1044.66 446.299 1044.87 445.892 1045.09 445.676L1047.49 447.379C1047.19 447.85 1046.82 448.277 1046.41 448.651L1044.25 446.731ZM1045.93 444.62C1046.4 444.135 1046.77 443.554 1047.01 442.916L1049.55 444.404C1049.18 445.141 1048.76 445.847 1048.28 446.515H1048.06L1045.93 444.62ZM1047.65 442.053C1047.85 441.621 1048.06 441.189 1048.28 440.781L1051.06 441.837C1050.69 442.36 1050.4 442.934 1050.2 443.54H1049.98L1047.65 442.053ZM1048.71 439.653C1049.02 439.05 1049.23 438.402 1049.33 437.734L1052.12 438.382H1052.33C1051.98 439.158 1051.69 439.96 1051.47 440.781L1048.71 439.653ZM1049.77 436.678C1049.77 436.27 1049.98 435.622 1049.98 435.191L1052.96 435.622C1052.76 436.054 1052.76 436.678 1052.55 437.326L1049.77 436.678ZM1050.2 434.543L1052.76 434.975H1052.55L1050.2 434.543ZM1050.2 433.919C1050.38 433.296 1050.45 432.647 1050.41 431.999H1053.05C1053.09 432.805 1053.02 433.613 1052.84 434.399L1050.2 433.919ZM1050.41 430.728C1050.45 430.293 1050.38 429.855 1050.2 429.456L1053.17 429.024V430.728H1050.41ZM1050.2 428.808V428.592L1052.76 428.376V428.592L1050.2 428.808ZM1050.2 428.185C1049.98 427.537 1049.98 426.889 1049.77 426.241L1052.55 425.617V425.401C1052.79 426.237 1052.93 427.099 1052.96 427.969L1050.2 428.185ZM1049.55 425.185C1049.38 424.674 1049.17 424.177 1048.93 423.698L1051.68 422.642C1051.93 423.178 1052.08 423.756 1052.12 424.346L1049.55 425.185ZM1048.71 423.05L1051.11 421.994V422.45L1048.71 423.05ZM1048.49 422.642C1048.3 421.968 1048.02 421.322 1047.65 420.723L1050.05 419.451H1050.27C1050.7 420.075 1050.92 420.939 1051.35 421.562L1048.49 422.642ZM1047.01 419.859L1046.36 418.587L1048.49 416.884C1048.92 417.326 1049.27 417.827 1049.55 418.371L1047.01 419.859ZM1045.52 417.46C1045.04 417.008 1044.61 416.501 1044.25 415.948L1046.36 414.052C1046.81 414.655 1047.31 415.225 1047.85 415.756V415.948L1045.52 417.46ZM1043.38 415.324C1043.14 414.878 1042.78 414.511 1042.33 414.268L1044.03 411.869C1044.46 412.301 1045.09 412.733 1045.52 413.141L1043.38 415.324ZM1041.9 413.837L1043.6 411.917L1042.11 413.837H1041.9ZM1041.47 413.621C1040.82 413.189 1040.41 412.781 1039.76 412.349L1041.25 409.95L1043.17 411.245L1041.47 413.621ZM1038.71 411.917C1038.33 411.569 1037.9 411.285 1037.44 411.077L1038.49 408.51C1039.1 408.71 1039.67 409.001 1040.19 409.374L1038.71 411.917ZM1036.31 410.645L1034.39 409.998L1035.25 407.238C1035.9 407.454 1036.74 407.862 1037.39 408.078L1036.31 410.645ZM1033.33 409.782C1032.9 409.566 1032.28 409.566 1031.85 409.374L1032.28 406.591C1032.9 406.806 1033.55 406.806 1033.98 407.022L1033.33 409.782ZM1031.42 409.374H1031.2L1031.63 406.806L1031.42 409.374ZM1030.79 409.374C1030.09 409.195 1029.37 409.123 1028.66 409.158V406.375H1031.2L1030.79 409.374ZM1017.79 412.349C1018.44 411.917 1018.87 411.701 1019.52 411.293H1019.71L1020.36 411.077C1021 410.861 1021.41 410.645 1022.06 410.429H1022.28L1022.71 410.213H1023.12C1023.76 409.998 1024.39 409.998 1025.03 409.782H1026.09V409.566H1027.6V418.515C1025.75 418.662 1023.94 419.167 1022.28 420.003L1017.79 412.349ZM1028.66 409.566C1029.3 409.53 1029.95 409.603 1030.58 409.782H1031.46C1031.97 409.896 1032.46 410.04 1032.95 410.213H1033.17L1033.81 410.429H1034.03L1035.95 411.077V411.293H1036.26C1036.48 411.293 1036.69 411.485 1036.91 411.485L1037.12 411.701C1037.56 411.701 1037.96 412.133 1038.4 412.349L1033.86 420.195C1032.19 419.385 1030.39 418.882 1028.54 418.707L1028.66 409.566ZM1047.17 421.082C1047.54 421.67 1047.83 422.309 1048.01 422.978L1048.23 423.194C1048.23 423.41 1048.23 423.626 1048.45 423.626V423.842C1048.66 424.465 1048.88 425.329 1049.09 426.241C1049.52 427.804 1049.73 429.419 1049.72 431.04H1040.77C1040.71 429.197 1040.27 427.386 1039.5 425.713L1047.17 421.082ZM1049.72 431.927C1049.75 432.575 1049.68 433.224 1049.5 433.847C1049.46 434.715 1049.32 435.576 1049.09 436.414C1048.67 438.252 1048.02 440.032 1047.17 441.717L1039.28 437.254C1040.11 435.59 1040.62 433.782 1040.77 431.927H1049.72ZM1046.53 442.581C1046.25 443.256 1045.89 443.9 1045.47 444.5L1045.04 444.908L1044.82 445.124C1044.42 445.556 1044.2 445.988 1043.98 446.18L1043.55 446.395L1043.34 446.827L1042.9 447.043H1043.12C1042.59 447.419 1042.09 447.844 1041.63 448.315H1041.42V448.843H1041.06C1040.43 449.275 1040 449.491 1039.35 449.898L1034.89 442.029C1035.66 441.528 1036.37 440.958 1037.03 440.325C1037.7 439.707 1038.28 438.986 1038.73 438.19L1046.38 442.676L1046.53 442.581ZM1038.44 450.45C1037.9 450.782 1037.33 451.063 1036.74 451.29V451.242L1036.31 451.434L1036.12 451.65L1035.68 451.866C1035.23 451.911 1034.78 452.058 1034.39 452.298H1034.2C1033.98 452.298 1033.55 452.514 1033.33 452.514H1033.12C1032.34 452.768 1031.54 452.913 1030.72 452.946H1030.29C1029.74 453.123 1029.16 453.196 1028.58 453.162V444.212C1030.43 444.037 1032.24 443.534 1033.91 442.724L1038.44 450.45ZM1027.6 453.018C1026.95 453.054 1026.3 452.981 1025.68 452.802H1024.6C1024.1 452.684 1023.6 452.54 1023.12 452.37C1022.02 452.104 1020.95 451.743 1019.92 451.29H1019.71C1019.09 451.098 1018.44 450.666 1017.79 450.45L1022.28 442.581C1023.95 443.39 1025.75 443.894 1027.6 444.068V453.018ZM1016.73 449.802C1016.15 449.481 1015.58 449.128 1015.03 448.747H1015.25L1015.03 448.531L1014.41 448.315V448.099H1014.19C1013.98 447.667 1013.54 447.475 1013.11 447.043H1013.33L1013.11 446.827L1012.7 446.395L1012.27 446.443C1011.79 446.005 1011.35 445.514 1010.98 444.98L1010.57 444.332L1010.35 444.116L1009.71 442.844H1009.49L1017.38 438.358C1017.9 439.166 1018.54 439.887 1019.28 440.493C1019.95 441.18 1020.66 441.821 1021.41 442.413L1016.73 450.066V449.802ZM1009.08 441.717C1008.67 441.064 1008.37 440.34 1008.22 439.581H1008C1007.79 438.958 1007.6 438.094 1007.38 437.47C1007.21 437.146 1007.13 436.78 1007.16 436.414C1006.74 434.956 1006.52 433.446 1006.52 431.927H1015.46C1015.52 433.797 1016.03 435.624 1016.95 437.254L1009.08 441.717ZM1006.52 430.872C1006.48 430.153 1006.55 429.433 1006.73 428.736V427.681C1006.95 427.249 1006.95 426.601 1007.16 426.169C1007.16 425.761 1007.16 425.545 1007.38 425.329V425.113C1007.55 424.533 1007.76 423.964 1008 423.41L1008.22 422.978V422.786C1008.22 422.57 1008.43 422.57 1008.43 422.354L1009.08 421.082L1016.95 425.545C1016.03 427.175 1015.52 429.002 1015.46 430.872H1006.52ZM1056.89 402.344H1028.1C1035.75 402.382 1043.07 405.447 1048.47 410.87C1053.86 416.292 1056.89 423.63 1056.89 431.28V402.344ZM1034.32 407.142H1034.53L1033.86 409.974L1034.32 407.142ZM1045.4 413.741H1045.62L1043.91 415.66L1043.7 415.444L1045.4 413.741ZM1045.59 448.843L1045.38 449.059L1043.67 447.139H1043.89L1045.59 448.843ZM1010.67 449.059L1010.47 448.843L1012.18 447.139H1012.39L1010.67 449.059ZM1021.53 407.334H1021.87L1022.3 409.878L1021.53 407.334ZM1047.92 416.476L1045.78 418.179V417.963L1047.92 416.476ZM1018.34 454.385L1018.13 454.169L1019.18 451.77L1018.34 454.385ZM1012.61 450.978V450.762L1014.31 448.843L1012.61 450.978ZM1013.23 411.389V411.197L1014.72 413.309V413.525L1013.23 411.389ZM1018.77 408.198L1019.83 410.597L1019.61 410.813L1018.77 408.198ZM1028.13 402.248H999.2V431.184C999.206 423.511 1002.26 416.155 1007.68 410.73C1013.1 405.305 1020.46 402.254 1028.13 402.248ZM999.2 431.184V460.144H1028.13C1020.46 460.131 1013.1 457.075 1007.68 451.646C1002.26 446.217 999.206 438.858 999.2 431.184ZM1028.13 460.144H1056.91V431.472C1056.92 439.125 1053.89 446.47 1048.5 451.897C1043.11 457.325 1035.78 460.393 1028.13 460.431V460.144ZM1028.13 458.656C1022.71 458.661 1017.42 457.056 1012.91 454.046C1008.41 451.036 1004.9 446.756 1002.83 441.748C1000.76 436.741 1000.23 431.232 1001.29 425.92C1002.36 420.608 1004.98 415.733 1008.82 411.912C1012.66 408.091 1017.55 405.497 1022.86 404.458C1028.18 403.42 1033.69 403.984 1038.68 406.08C1043.68 408.175 1047.94 411.707 1050.92 416.227C1053.91 420.748 1055.48 426.054 1055.45 431.472C1055.44 438.717 1052.57 445.665 1047.47 450.808C1042.37 455.951 1035.44 458.874 1028.2 458.944L1028.13 458.656ZM1052.4 456.952C1052.1 456.963 1051.79 456.906 1051.51 456.785C1051.23 456.664 1050.98 456.483 1050.77 456.254C1050.57 456.025 1050.42 455.754 1050.33 455.46C1050.24 455.166 1050.22 454.856 1050.27 454.553C1050.28 454.286 1050.34 454.024 1050.45 453.782C1050.57 453.54 1050.73 453.324 1050.93 453.146C1051.13 452.969 1051.36 452.834 1051.62 452.75C1051.87 452.666 1052.14 452.635 1052.4 452.658C1052.93 452.649 1053.44 452.84 1053.83 453.192C1054.22 453.543 1054.47 454.029 1054.51 454.553C1054.54 454.852 1054.51 455.153 1054.42 455.438C1054.33 455.724 1054.18 455.987 1053.98 456.212C1053.78 456.437 1053.54 456.619 1053.27 456.747C1053 456.874 1052.7 456.944 1052.4 456.952ZM1052.4 409.278C1051.84 409.272 1051.3 409.045 1050.9 408.645C1050.5 408.246 1050.28 407.707 1050.27 407.142C1050.26 406.858 1050.3 406.575 1050.4 406.309C1050.51 406.044 1050.66 405.803 1050.86 405.602C1051.07 405.401 1051.31 405.244 1051.57 405.142C1051.84 405.039 1052.12 404.993 1052.4 405.007C1052.97 405.013 1053.5 405.241 1053.9 405.641C1054.29 406.041 1054.51 406.58 1054.51 407.142C1054.46 407.685 1054.22 408.193 1053.83 408.581C1053.45 408.969 1052.95 409.215 1052.4 409.278ZM1004.09 409.278C1003.53 409.278 1002.98 409.053 1002.58 408.652C1002.18 408.252 1001.96 407.709 1001.96 407.142C1001.93 406.845 1001.96 406.543 1002.05 406.258C1002.14 405.974 1002.29 405.711 1002.49 405.488C1002.69 405.266 1002.94 405.088 1003.21 404.966C1003.49 404.844 1003.78 404.781 1004.08 404.781C1004.38 404.781 1004.68 404.844 1004.95 404.966C1005.22 405.088 1005.47 405.266 1005.67 405.488C1005.87 405.711 1006.02 405.974 1006.11 406.258C1006.2 406.543 1006.24 406.845 1006.2 407.142C1006.2 407.705 1005.98 408.244 1005.59 408.644C1005.19 409.044 1004.66 409.271 1004.09 409.278ZM1004.09 456.952C1003.79 456.963 1003.48 456.906 1003.2 456.785C1002.92 456.664 1002.67 456.483 1002.46 456.254C1002.26 456.025 1002.11 455.754 1002.02 455.46C1001.93 455.166 1001.91 454.856 1001.96 454.553C1002.01 454.029 1002.26 453.544 1002.65 453.191C1003.05 452.839 1003.55 452.644 1004.08 452.644C1004.61 452.644 1005.12 452.839 1005.51 453.191C1005.9 453.544 1006.15 454.029 1006.2 454.553C1006.25 454.854 1006.23 455.162 1006.14 455.454C1006.06 455.746 1005.91 456.016 1005.71 456.245C1005.51 456.473 1005.26 456.655 1004.98 456.777C1004.7 456.9 1004.4 456.959 1004.09 456.952ZM1057.71 401.384V461.007H998.336V401.672L1057.71 401.384ZM1057.92 395.002H1053.89V399.273H1057.85L1057.92 395.002ZM1001.96 395.002H997.88V399.273H1001.93L1001.96 395.002ZM1007.07 395.002H1003.01V399.273H1007.07V395.002ZM1012.18 395.002H1008.12V399.273H1012.27L1012.18 395.002ZM1016.97 395.002H1013.14V399.273H1017.07L1016.97 395.002ZM1022.08 395.002H1018.03V399.273H1022.08V395.002ZM1027.19 395.002H1023.14V399.273H1027.19V395.002ZM1032.28 395.002H1028.34V399.273H1032.37L1032.28 395.002ZM1037.41 395.002H1033.36V399.273H1037.41V395.002ZM1042.5 395.002H1038.66V399.273H1042.69L1042.5 395.002ZM1047.61 395.002H1043.58V399.273H1047.61V395.002ZM1052.72 395.002H1048.69V399.273H1052.72V395.002ZM995.482 467.462H996.321V395.29H995.482V467.462ZM991.212 467.462H992.291V395.29H991.212V467.462ZM993.347 467.462H994.402V395.29H993.347V467.462ZM1059.53 467.462H1060.8V395.29H1059.53V467.462ZM1063.8 467.462H1065.05V395.29H1063.99L1063.8 467.462ZM1061.66 467.462H1062.72V395.29H1061.66V467.462Z" fill="#F48B4A"/>
<path fill-rule="evenodd" clip-rule="evenodd" d="M1850.47 461.081V458.082L1841.74 453.835V468.519L1850.47 461.081ZM1658.3 381.903H1721.92V400.426H1658.3V381.903ZM1721.92 403.497V431.809H1658.3V403.497H1721.92ZM1721.92 436.296V487.161H1658.3V436.296H1721.92ZM1674.47 387.757H1685.31V390.156H1674.47V387.757ZM1711.72 412.662V425.643H1701.48V412.662C1701.65 411.437 1702.27 410.319 1703.22 409.528C1704.17 408.738 1705.38 408.332 1706.61 408.391C1707.23 408.329 1707.85 408.39 1708.45 408.572C1709.04 408.754 1709.59 409.053 1710.07 409.451C1710.54 409.848 1710.94 410.338 1711.22 410.889C1711.5 411.441 1711.68 412.044 1711.72 412.662ZM1695.53 412.662V425.643H1685.31V412.662C1685.36 412.044 1685.53 411.441 1685.82 410.889C1686.1 410.338 1686.49 409.848 1686.97 409.451C1687.44 409.053 1688 408.754 1688.59 408.572C1689.18 408.39 1689.81 408.329 1690.42 408.391C1691.66 408.303 1692.89 408.699 1693.84 409.496C1694.79 410.292 1695.4 411.427 1695.53 412.662ZM1679.15 412.662V425.643H1668.93V412.662C1668.98 412.044 1669.15 411.441 1669.43 410.889C1669.72 410.338 1670.11 409.848 1670.59 409.451C1671.06 409.053 1671.61 408.754 1672.2 408.572C1672.8 408.39 1673.42 408.329 1674.04 408.391C1675.28 408.303 1676.5 408.699 1677.45 409.496C1678.41 410.292 1679.01 411.427 1679.15 412.662ZM1695.12 450.548H1705.97V452.683H1695.12V450.548ZM1681.69 450.98H1692.56V453.115H1681.69V450.98ZM1689.37 453.739H1700.21V456.138H1689.37V453.739ZM1695.75 457.794H1706.61V460.193H1695.75V457.794ZM1682.99 457.794H1693.83V460.193H1682.99V457.794ZM1674.69 479.508H1685.31V481.907H1674.69V479.508ZM1669.36 476.724H1680.2V479.124H1669.36V476.724ZM1664.04 473.749H1674.9V475.885H1664.04V473.749ZM1705.32 473.101H1716.18V475.501H1705.32V473.101ZM1699.15 385.19H1710V387.589H1699.15V385.19ZM1682.12 393.084H1692.99V395.483H1682.12V393.084ZM1575.07 547.625H1682.77V631.913H1575.07V547.625ZM1682.77 635.536V725.799H1575.07V635.416L1682.77 635.536ZM1654.25 702.166H1672.55V706.005H1654.25V702.166ZM1637 663.632H1655.3V667.471H1637V663.632ZM1614.67 664.496H1632.97V668.311H1614.67V664.496ZM1627.43 669.295H1645.73V673.11H1627.43V669.295ZM1638.08 676.109H1656.38V679.924H1638.08V676.109ZM1616.49 676.109H1634.58V679.924H1616.49V676.109ZM1602.1 712.915H1620.4V716.754H1602.1V712.915ZM1593.39 708.116H1611.7V711.955H1593.39V708.116ZM1584.66 703.005H1602.96V707.06H1584.66V703.005ZM1609.78 599.834V621.596H1592.53V599.666C1592.82 597.585 1593.85 595.68 1595.44 594.301C1597.02 592.923 1599.05 592.163 1601.15 592.163C1603.25 592.163 1605.28 592.923 1606.87 594.301C1608.45 595.68 1609.49 597.585 1609.78 599.666V599.834ZM1665.52 599.834V621.596H1648.3V599.666C1648.36 598.616 1648.64 597.589 1649.1 596.645C1649.56 595.701 1650.21 594.858 1651 594.166C1651.8 593.474 1652.72 592.946 1653.72 592.614C1654.71 592.281 1655.77 592.15 1656.82 592.228C1658.95 592.106 1661.04 592.812 1662.66 594.198C1664.29 595.584 1665.31 597.543 1665.52 599.666V599.834ZM1637.65 599.834V621.596H1620.4V599.666C1620.69 597.585 1621.73 595.68 1623.31 594.301C1624.9 592.923 1626.93 592.163 1629.03 592.163C1631.13 592.163 1633.16 592.923 1634.74 594.301C1636.33 595.68 1637.36 597.585 1637.65 599.666V599.834ZM1601.88 557.51H1620.19V561.325H1601.88V557.51ZM1644.03 553.023H1662.33V556.814H1644.03V553.023ZM1614.86 566.219H1633.19V570.274H1614.86V566.219ZM1575.07 576.441H1682.77V580.28H1575.07V576.441ZM1690.42 338.043L1669.15 355.918H1712.99L1690.42 338.043ZM1708.72 356.566V380.391H1673.61V356.566H1708.72ZM1687.14 365.707H1694.33V358.677H1687.14V365.707ZM1873.14 442.774L1843.22 468.039H1905.37L1873.14 442.774ZM1898.47 469.814V503.645H1917.42V650.748H1828.33V503.645H1849.92V469.814H1898.47ZM1868.67 481.283H1878.68V471.302H1868.67V481.283ZM1850.59 511.947H1865.7V514.922H1850.59V511.947ZM1903.14 546.857V564.732H1888.89V546.857C1888.94 545.986 1889.16 545.134 1889.54 544.35C1889.92 543.565 1890.45 542.865 1891.11 542.29C1891.76 541.716 1892.53 541.278 1893.35 541.003C1894.18 540.728 1895.05 540.622 1895.92 540.691C1897.69 540.595 1899.42 541.183 1900.76 542.331C1902.1 543.48 1902.94 545.101 1903.12 546.857H1903.14ZM1880.16 546.857V564.732H1865.91V546.857C1866.04 545.117 1866.85 543.497 1868.16 542.344C1869.47 541.192 1871.18 540.598 1872.92 540.691C1874.68 540.601 1876.41 541.191 1877.75 542.338C1879.09 543.486 1879.93 545.103 1880.12 546.857H1880.16ZM1857.18 546.857V564.732H1842.91V546.857C1843.14 545.123 1843.98 543.53 1845.3 542.376C1846.61 541.223 1848.3 540.586 1850.05 540.586C1851.8 540.586 1853.48 541.223 1854.8 542.376C1856.11 543.53 1856.96 545.123 1857.18 546.857ZM1879.54 599.45H1894.65V602.641H1879.54V599.45ZM1861.02 600.074H1876.13V603.265H1861.02V600.074ZM1871.65 604.129H1886.98V607.536H1871.74L1871.65 604.129ZM1880.6 609.863H1895.71V613.054H1880.62L1880.6 609.863ZM1862.51 609.863H1877.84V613.054H1862.51V609.863ZM1850.8 640.311H1865.91V643.502H1850.8V640.311ZM1843.61 636.256H1858.72V639.447H1843.61V636.256ZM1836.41 632.225H1851.52V635.416H1836.41V632.225ZM1893.98 631.361H1909.09V634.361H1893.98V631.361ZM1885.42 508.324H1900.53V511.227H1885.42V508.324ZM1861.43 519.193H1876.54V522.384H1861.43V519.193ZM1828.23 527.494H1917.42V531.741H1828.33L1828.23 527.494ZM1828.23 573.465H1917.42V582.415H1828.33L1828.23 573.465ZM1629.13 473.845L1592.77 504.293H1668.09L1629.13 473.845ZM1659.93 505.996V544.505H1600.83V505.996H1659.93ZM1623.76 520.392H1635.95V508.252H1623.81L1623.76 520.392ZM1685.48 606.768L1688.46 605.281V628.05L1693.25 625.939V603.145L1703.47 598.346V621.14L1708.15 618.741V595.971L1718.37 591.173V613.942L1723.17 611.543V588.773L1733.38 583.975V606.744L1738.06 604.345V581.551L1748.28 576.753V599.546L1753.08 597.411V574.329L1763.3 569.531V592.3L1768.09 590.165V567.395L1778.29 562.285V585.054L1783.09 582.943V560.149L1793.09 555.351V578.144L1797.89 575.745V552.975L1808.11 548.176V570.946L1812.78 568.547V545.777L1823 540.978V563.748L1825.14 562.908V639.543L1685.1 706.724L1685.48 606.768ZM1841.69 468.399V473.077L1837.66 471.182V451.579L1828.71 447.333V467.127L1824.68 464.992V445.413L1815.95 441.142V460.961L1811.68 458.825V439.247L1803.16 434.976V454.77L1798.92 452.659V433.057L1790.19 429.026V448.388L1786.16 446.469V427.01L1777.21 422.763V442.342L1773.16 440.422V420.844L1764.45 416.573V436.176L1760.39 434.256V414.678L1751.52 410.455V430.033L1747.46 428.138V408.535L1738.73 404.288V423.867L1734.49 421.948V402.369L1725.97 398.122V417.653L1724.89 417.221V483.227L1825.64 531.525V500.886H1848.21V468.519L1841.69 468.399Z" fill="#F48B4A"/>
<path fill-rule="evenodd" clip-rule="evenodd" d="M688.683 377.632L685.276 409.567L572.271 397.211L575.702 365.276L688.683 377.632ZM598.658 669.055C657.619 669.055 708.472 692.473 729.126 725.679H467.758C488.819 692.473 539.48 669.055 598.634 669.055H598.658ZM548.428 582.847L668.365 596.043L667.742 603.241L547.492 590.045L548.428 582.847ZM594.892 314.818L681.247 324.199L681.87 317.817L595.515 308.436L594.892 314.818ZM573.303 354.431L693.552 367.411L692.713 374.849L572.775 361.653L573.303 354.431ZM568.505 400.018L688.443 413.214L687.819 420.676L567.57 407.48L568.505 400.018ZM563.708 445.797L683.645 458.994L682.806 466.192L562.868 453.211L563.708 445.797ZM558.598 491.385L678.848 504.581L677.792 512.019L557.855 498.822L558.598 491.385ZM553.801 537.14L673.738 550.336L672.899 557.798L552.961 544.578L553.801 537.14ZM670.212 362.804L674.05 326.119L601.488 318.225L597.29 354.839L670.212 362.804ZM620.846 336.412L619.575 349.392L607.005 348.12L608.301 335.116C608.363 334.274 608.593 333.454 608.979 332.703C609.364 331.952 609.895 331.286 610.542 330.744C611.19 330.202 611.939 329.796 612.746 329.549C613.552 329.302 614.401 329.219 615.24 329.306C616.079 329.392 616.893 329.647 617.632 330.053C618.371 330.46 619.022 331.011 619.544 331.674C620.067 332.336 620.452 333.097 620.675 333.911C620.899 334.725 620.957 335.575 620.846 336.412ZM664.024 341.21L662.536 354.191L649.991 352.703L651.478 339.723C651.556 338.883 651.8 338.067 652.195 337.322C652.59 336.578 653.129 335.918 653.78 335.383C654.431 334.847 655.182 334.446 655.989 334.203C656.796 333.959 657.644 333.878 658.482 333.964C659.328 334.052 660.146 334.311 660.888 334.725C661.63 335.139 662.28 335.699 662.799 336.373C663.317 337.046 663.693 337.818 663.904 338.642C664.114 339.465 664.155 340.323 664.024 341.162V341.21ZM642.435 338.811L640.948 351.791L628.402 350.304L629.889 337.323C629.919 336.467 630.13 335.627 630.511 334.859C630.891 334.091 631.43 333.412 632.093 332.87C632.756 332.327 633.527 331.932 634.355 331.711C635.183 331.49 636.048 331.449 636.894 331.589C637.734 331.689 638.545 331.956 639.28 332.374C640.016 332.792 640.66 333.353 641.176 334.023C641.693 334.694 642.07 335.46 642.286 336.278C642.502 337.096 642.552 337.949 642.435 338.787V338.811ZM587.527 372.882L585.129 393.948L577.669 393.084L580.067 372.018C580.247 371.119 580.773 370.326 581.531 369.81C582.289 369.294 583.219 369.096 584.121 369.259C584.587 369.258 585.049 369.352 585.477 369.537C585.905 369.722 586.29 369.992 586.609 370.332C586.929 370.671 587.175 371.073 587.333 371.511C587.491 371.95 587.557 372.416 587.527 372.882ZM660.521 567.659L657.979 588.725L650.782 587.862L653.181 566.796C653.356 565.898 653.876 565.106 654.631 564.59C655.385 564.073 656.312 563.875 657.211 564.036C658.1 564.176 658.918 564.608 659.535 565.264C660.151 565.92 660.532 566.763 660.617 567.659H660.521ZM650.063 566.412L647.664 587.718L640.204 586.854L642.603 565.788C642.783 564.892 643.304 564.102 644.056 563.582C644.808 563.063 645.731 562.856 646.633 563.005C647.534 563.017 648.396 563.379 649.036 564.015C649.676 564.65 650.044 565.51 650.063 566.412ZM639.652 565.572L637.253 586.446L630.057 585.798L632.192 564.516C632.44 563.623 633.021 562.859 633.816 562.382C634.61 561.904 635.557 561.749 636.462 561.949C636.911 561.973 637.35 562.087 637.754 562.283C638.159 562.479 638.52 562.754 638.817 563.091C639.114 563.428 639.341 563.821 639.484 564.247C639.628 564.673 639.685 565.124 639.652 565.572ZM629.434 564.3L627.035 585.366L619.599 584.503L621.997 563.437C622.213 561.733 623.916 560.677 626.051 560.677C628.186 561.109 629.673 562.597 629.458 564.3H629.434ZM618.999 563.005L616.6 584.311L609.404 583.447L611.515 562.381C611.722 561.495 612.252 560.718 613.002 560.203C613.752 559.688 614.668 559.472 615.569 559.598C616.466 559.616 617.322 559.981 617.957 560.616C618.592 561.251 618.957 562.107 618.975 563.005H618.999ZM608.78 562.165L606.382 583.015L598.921 582.391L601.056 561.109C601.294 560.215 601.87 559.447 602.661 558.969C603.453 558.49 604.4 558.337 605.302 558.542C605.768 558.541 606.229 558.636 606.657 558.82C607.085 559.005 607.471 559.275 607.79 559.615C608.11 559.954 608.356 560.356 608.514 560.795C608.672 561.233 608.738 561.7 608.708 562.165H608.78ZM598.346 560.893L595.947 581.959L588.487 581.12L590.886 560.245C591.081 559.35 591.595 558.557 592.332 558.014C593.069 557.471 593.979 557.215 594.892 557.294C597.026 557.726 598.514 559.214 598.298 560.917L598.346 560.893ZM587.935 559.814L585.8 580.904L578.148 580.04L580.547 558.974C580.776 558.058 581.344 557.263 582.137 556.75C582.93 556.238 583.888 556.046 584.817 556.215C585.712 556.282 586.545 556.696 587.141 557.368C587.736 558.039 588.047 558.917 588.007 559.814H587.935ZM577.716 558.758L575.318 579.824L567.882 578.984L570.28 557.894C570.492 557.012 571.025 556.241 571.774 555.731C572.524 555.221 573.437 555.008 574.334 555.135C575.265 555.166 576.146 555.565 576.784 556.244C577.423 556.922 577.766 557.826 577.741 558.758H577.716ZM567.282 557.486L565.147 578.552L557.495 577.713L559.894 556.838C560.053 555.919 560.561 555.096 561.312 554.542C562.063 553.988 562.998 553.744 563.924 553.863C566.059 554.295 567.546 555.783 567.33 557.486H567.282ZM665.391 521.496L663.256 542.586L655.604 541.723L658.003 520.656C658.214 519.779 658.743 519.012 659.488 518.502C660.232 517.993 661.139 517.777 662.033 517.897C664.167 518.305 665.655 519.793 665.439 521.496H665.391ZM655.172 520.44L652.462 541.531L645.265 540.691L647.664 519.601C647.844 518.706 648.366 517.918 649.119 517.403C649.871 516.887 650.795 516.686 651.694 516.841C652.597 516.947 653.434 517.369 654.057 518.032C654.681 518.695 655.05 519.556 655.1 520.465L655.172 520.44ZM644.762 519.361L642.363 540.451L634.903 539.611L637.301 518.305C637.534 517.449 638.08 516.712 638.831 516.24C639.582 515.769 640.484 515.598 641.355 515.762C641.819 515.761 642.278 515.855 642.705 516.038C643.131 516.221 643.515 516.49 643.834 516.827C644.153 517.164 644.4 517.562 644.56 517.998C644.719 518.434 644.788 518.898 644.762 519.361ZM634.543 518.113L631.976 539.179L624.78 538.531L626.891 517.465C627.094 516.546 627.623 515.731 628.381 515.173C629.139 514.615 630.074 514.351 631.012 514.43C631.95 514.509 632.828 514.926 633.481 515.603C634.135 516.281 634.521 517.173 634.567 518.113H634.543ZM624.108 517.033L621.71 538.124L614.273 537.26L616.672 516.194C616.841 515.292 617.36 514.494 618.114 513.972C618.869 513.451 619.799 513.249 620.702 513.41C621.633 513.442 622.514 513.84 623.152 514.519C623.79 515.198 624.134 516.102 624.108 517.033ZM613.674 515.978L611.275 537.044L604.079 536.18L606.214 514.898C606.473 514.064 607.021 513.349 607.76 512.883C608.498 512.417 609.379 512.23 610.244 512.355C610.71 512.354 611.171 512.449 611.599 512.633C612.027 512.818 612.412 513.088 612.732 513.428C613.051 513.767 613.297 514.169 613.455 514.607C613.613 515.046 613.679 515.513 613.65 515.978H613.674ZM603.455 514.706L601.056 535.772L593.596 535.124L595.995 514.058C595.995 512.139 597.914 511.059 600.049 511.059C602.16 511.491 603.647 512.979 603.431 514.706H603.455ZM593.045 513.626L590.646 534.693L583.45 533.853L585.584 512.763C585.674 512.325 585.852 511.909 586.107 511.542C586.362 511.174 586.689 510.862 587.068 510.624C587.447 510.387 587.87 510.228 588.312 510.159C588.753 510.089 589.205 510.11 589.638 510.219C590.092 510.195 590.546 510.267 590.97 510.429C591.394 510.592 591.779 510.842 592.101 511.163C592.422 511.485 592.672 511.87 592.835 512.294C592.997 512.719 593.069 513.173 593.045 513.626ZM582.61 512.571L580.475 533.637L572.823 532.797L575.222 511.491C575.508 510.624 576.097 509.889 576.882 509.422C577.666 508.954 578.593 508.786 579.492 508.948C579.948 508.947 580.4 509.044 580.816 509.232C581.232 509.42 581.604 509.695 581.906 510.038C582.208 510.381 582.433 510.784 582.567 511.221C582.701 511.657 582.74 512.118 582.682 512.571H582.61ZM572.391 511.275L569.993 532.365L562.532 531.717L564.931 510.651C565.117 509.745 565.631 508.939 566.375 508.39C567.119 507.84 568.041 507.586 568.961 507.676C570.88 508.084 572.583 509.595 572.367 511.275H572.391ZM670.5 475.285L668.101 496.351L660.641 495.727L663.04 474.445C663.131 474.009 663.308 473.596 663.561 473.229C663.814 472.862 664.138 472.55 664.513 472.311C664.889 472.072 665.309 471.91 665.748 471.836C666.187 471.761 666.636 471.776 667.07 471.878C668.989 472.094 670.692 473.582 670.476 475.285H670.5ZM660.066 474.229L657.955 495.295L650.063 494.432L652.462 473.342C652.663 472.459 653.19 471.685 653.937 471.173C654.684 470.662 655.596 470.451 656.491 470.582C657.423 470.614 658.303 471.012 658.942 471.691C659.58 472.37 659.924 473.274 659.898 474.205L660.066 474.229ZM649.871 473.15L647.472 494.24L640.012 493.376L642.411 472.31C642.585 471.413 643.106 470.62 643.86 470.104C644.614 469.588 645.541 469.389 646.441 469.551C647.356 469.621 648.212 470.028 648.846 470.692C649.479 471.357 649.844 472.232 649.871 473.15ZM639.436 471.878L637.038 492.968L629.601 492.32L632 471.254C632.068 470.798 632.229 470.36 632.474 469.969C632.718 469.578 633.041 469.241 633.421 468.98C633.802 468.719 634.232 468.539 634.685 468.451C635.138 468.364 635.604 468.37 636.054 468.471C638.189 468.687 639.676 470.175 639.46 471.878H639.436ZM629.218 470.822L626.531 492.032L619.335 491.193L621.47 470.102C621.717 469.203 622.286 468.425 623.069 467.917C623.851 467.408 624.793 467.204 625.715 467.343C626.619 467.449 627.456 467.871 628.079 468.534C628.702 469.196 629.071 470.058 629.122 470.966L629.218 470.822ZM618.783 469.767L616.384 490.833L608.924 489.969L611.323 468.903C611.566 468.034 612.112 467.281 612.861 466.778C613.61 466.275 614.514 466.056 615.41 466.16C616.306 466.264 617.135 466.685 617.749 467.346C618.363 468.007 618.721 468.865 618.759 469.767H618.783ZM608.373 468.687L605.974 489.537L598.778 488.913L600.912 467.847C601.007 467.385 601.191 466.945 601.456 466.555C601.721 466.164 602.061 465.829 602.456 465.571C602.85 465.312 603.292 465.134 603.756 465.047C604.22 464.96 604.697 464.966 605.158 465.064C605.609 465.085 606.051 465.196 606.458 465.391C606.865 465.586 607.229 465.86 607.529 466.198C607.828 466.535 608.057 466.93 608.202 467.357C608.347 467.785 608.405 468.237 608.373 468.687ZM598.154 467.415L595.755 488.481L588.319 487.642L590.718 466.576C590.776 466.121 590.935 465.685 591.181 465.299C591.427 464.913 591.755 464.585 592.142 464.34C592.529 464.095 592.965 463.938 593.42 463.881C593.874 463.824 594.336 463.867 594.772 464.008C595.22 464.005 595.664 464.091 596.079 464.261C596.494 464.431 596.87 464.682 597.187 464.999C597.504 465.316 597.755 465.693 597.925 466.108C598.095 466.522 598.181 466.967 598.178 467.415H598.154ZM587.719 466.336L585.321 487.426L578.124 486.562L580.235 465.496C580.442 464.611 580.974 463.837 581.724 463.326C582.475 462.815 583.391 462.604 584.289 462.737C584.75 462.746 585.205 462.847 585.626 463.033C586.048 463.22 586.428 463.488 586.745 463.823C587.062 464.158 587.309 464.553 587.472 464.984C587.636 465.415 587.711 465.875 587.695 466.336H587.719ZM577.501 465.28L575.102 486.154L567.45 485.506L569.849 464.416C569.946 463.956 570.132 463.519 570.398 463.131C570.664 462.743 571.004 462.411 571.399 462.155C571.793 461.898 572.234 461.723 572.697 461.637C573.16 461.552 573.634 461.558 574.094 461.657C574.56 461.656 575.022 461.751 575.45 461.935C575.878 462.12 576.263 462.39 576.583 462.73C576.902 463.069 577.148 463.471 577.306 463.91C577.464 464.348 577.53 464.815 577.501 465.28ZM675.394 429.29L673.283 450.14L665.823 449.516L668.221 428.234C668.221 426.507 670.116 425.451 672.035 425.667C673.954 425.883 675.873 427.37 675.442 429.29H675.394ZM665.175 428.018L662.776 449.084L655.316 448.221L657.715 427.37C657.874 426.451 658.382 425.628 659.133 425.074C659.884 424.52 660.819 424.276 661.745 424.395C663.664 424.803 665.367 426.291 665.151 428.018H665.175ZM654.74 426.723L652.629 448.005L644.977 447.165L647.52 426.099C647.569 425.662 647.713 425.241 647.942 424.865C648.17 424.49 648.478 424.169 648.843 423.924C649.209 423.68 649.623 423.518 650.057 423.45C650.492 423.382 650.936 423.41 651.358 423.532C651.794 423.502 652.231 423.562 652.642 423.71C653.053 423.857 653.429 424.088 653.747 424.387C654.064 424.687 654.317 425.049 654.488 425.451C654.659 425.853 654.745 426.286 654.74 426.723ZM644.546 425.883L642.147 446.949L634.711 446.109L637.11 424.803C637.342 423.947 637.888 423.21 638.639 422.738C639.39 422.267 640.292 422.096 641.163 422.26C642.08 422.331 642.937 422.742 643.567 423.412C644.197 424.082 644.555 424.963 644.57 425.883H644.546ZM634.111 424.587L631.712 445.677L624.276 444.838L626.675 423.963C626.84 423.042 627.353 422.219 628.107 421.665C628.862 421.111 629.801 420.869 630.729 420.988C632.864 421.396 634.351 422.908 634.135 424.587H634.111ZM623.892 423.532L621.278 444.694L614.082 443.83L616.216 422.764C616.449 421.866 617.023 421.095 617.817 420.615C618.61 420.135 619.56 419.985 620.462 420.196C621.358 420.221 622.21 420.587 622.844 421.221C623.478 421.855 623.844 422.708 623.868 423.603L623.892 423.532ZM613.458 422.476L611.059 443.542L603.599 442.702L605.998 421.612C606.172 420.715 606.693 419.922 607.447 419.406C608.201 418.89 609.128 418.691 610.028 418.853C610.494 418.852 610.955 418.947 611.383 419.131C611.811 419.316 612.197 419.586 612.516 419.926C612.835 420.265 613.081 420.667 613.239 421.106C613.397 421.544 613.463 422.011 613.434 422.476H613.458ZM603.047 421.204L600.649 442.27L593.452 441.406L595.587 420.556C595.837 419.677 596.38 418.91 597.126 418.381C597.873 417.853 598.777 417.596 599.689 417.653C600.571 417.764 601.382 418.194 601.969 418.861C602.557 419.528 602.881 420.387 602.879 421.276L603.047 421.204ZM592.829 420.124L590.43 441.191L582.994 440.351L585.392 419.285C585.671 418.451 586.227 417.738 586.968 417.265C587.708 416.791 588.589 416.587 589.462 416.685C590.336 416.784 591.149 417.179 591.766 417.805C592.383 418.431 592.767 419.25 592.853 420.124H592.829ZM582.394 419.069L579.995 440.135L572.799 439.295L574.91 418.205C575.117 417.32 575.648 416.546 576.399 416.035C577.15 415.524 578.065 415.314 578.964 415.446C579.43 415.445 579.891 415.54 580.319 415.724C580.747 415.909 581.133 416.179 581.452 416.519C581.771 416.858 582.018 417.26 582.175 417.699C582.333 418.137 582.4 418.603 582.37 419.069H582.394ZM680.503 383.079L678.104 404.169L670.668 403.305L673.067 382.023C673.348 381.158 673.933 380.423 674.713 379.956C675.494 379.488 676.417 379.319 677.313 379.48C677.76 379.501 678.199 379.612 678.603 379.805C679.008 379.999 679.369 380.271 679.666 380.607C679.964 380.942 680.191 381.333 680.335 381.758C680.478 382.183 680.535 382.632 680.503 383.079ZM670.068 381.807L667.957 402.897L660.497 402.249L662.896 381.183C662.896 379.264 664.815 378.184 666.71 378.184C668.845 378.616 670.548 380.104 670.116 381.807H670.068ZM659.874 380.751L657.475 401.818L650.015 400.978L652.414 379.912C652.487 379.464 652.655 379.038 652.905 378.66C653.155 378.283 653.483 377.962 653.865 377.719C654.248 377.477 654.678 377.318 655.126 377.254C655.575 377.189 656.032 377.22 656.467 377.344C656.92 377.324 657.372 377.398 657.795 377.562C658.217 377.726 658.601 377.976 658.922 378.297C659.242 378.617 659.492 379.001 659.656 379.424C659.82 379.846 659.894 380.299 659.874 380.751ZM649.439 379.696L647.184 400.858L639.532 399.994L642.075 378.928C642.136 378.49 642.284 378.069 642.513 377.69C642.741 377.312 643.044 376.983 643.403 376.725C643.761 376.467 644.169 376.285 644.601 376.189C645.032 376.093 645.479 376.086 645.913 376.169C648.048 376.385 649.751 377.872 649.319 379.792L649.439 379.696ZM639.22 378.4L636.822 399.49L629.386 398.842L631.784 377.776C631.944 376.85 632.454 376.021 633.209 375.463C633.965 374.904 634.906 374.658 635.838 374.777C636.728 374.917 637.545 375.349 638.162 376.005C638.779 376.661 639.159 377.504 639.244 378.4H639.22ZM628.786 377.344L626.387 398.41L618.927 397.571L621.326 376.481C621.615 375.659 622.174 374.961 622.913 374.499C623.651 374.038 624.524 373.842 625.389 373.942C626.253 374.043 627.058 374.434 627.671 375.052C628.284 375.67 628.669 376.479 628.762 377.344H628.786ZM618.567 376.289L616.168 397.355L608.708 396.515L611.107 375.425C611.282 374.528 611.802 373.735 612.556 373.219C613.311 372.702 614.238 372.504 615.137 372.666C616.054 372.737 616.911 373.148 617.541 373.818C618.171 374.488 618.528 375.369 618.543 376.289H618.567ZM608.157 374.993L605.758 396.083L598.298 395.435L600.697 374.369C600.764 373.913 600.925 373.476 601.17 373.086C601.415 372.696 601.738 372.36 602.119 372.101C602.5 371.842 602.93 371.664 603.383 371.58C603.836 371.495 604.302 371.505 604.75 371.61C606.861 371.802 608.373 373.289 608.157 374.993ZM597.938 373.937L595.371 395.003L588.175 394.164L590.286 373.074C590.523 372.175 591.103 371.405 591.902 370.93C592.7 370.454 593.653 370.311 594.556 370.53C595.451 370.554 596.304 370.921 596.937 371.555C597.571 372.189 597.938 373.041 597.962 373.937H597.938ZM683.909 423.316L680.503 455.035L567.498 442.702L570.904 411.055L683.909 423.316ZM679.112 469.095L675.49 500.814L562.484 488.457L566.107 456.738L679.112 469.095ZM674.002 514.85L670.596 546.569L557.591 534.237L560.997 502.517L674.002 514.85ZM669.205 560.437L665.583 592.372L552.841 580.016L556.248 548.081L669.205 560.437ZM664.096 606.193L656.899 673.374C655.196 672.942 653.517 672.534 651.598 671.886L657.115 622.7C657.547 617.901 653.301 613.559 647.328 612.719C641.355 611.879 636.27 615.478 635.838 620.589L630.729 667.855L625.188 667.208L630.297 619.941C630.729 615.142 626.483 610.583 620.702 609.936C614.921 609.288 609.644 612.719 609.212 617.613L603.887 665.72C602.294 665.549 600.691 665.477 599.089 665.504H598.466L603.767 616.966C604.199 612.167 599.953 607.608 594.172 606.96C588.391 606.313 583.114 609.72 582.466 614.614L576.949 666.56L571.192 667.208L576.949 613.99C577.573 609.192 573.111 604.609 567.354 603.985C561.597 603.361 556.296 606.744 555.864 611.855L549.267 671.239C547.132 671.67 544.806 672.318 542.671 672.942L551.186 593.764L664.096 606.193Z" fill="#F48B4A"/>
<path fill-rule="evenodd" clip-rule="evenodd" d="M1417.67 718.218L1336.11 719.082L1346.98 705.886L1351.01 701.087L1353.57 697.896L1357.6 693.217L1360.17 690.026L1363.98 685.563L1417.83 620.781L1472.12 684.436C1471.66 684.843 1471.04 685.491 1470.61 685.899L1504.89 653.988C1511.7 659.938 1518.49 665.985 1525.3 671.647C1530.1 664.209 1538.08 654.852 1548.3 655.907C1565.96 656.531 1568.52 683.788 1568.52 683.788L1559.15 684.004L1559.36 689.33C1562.79 692.784 1565.34 697.014 1566.8 701.663C1567.01 701.879 1567.01 702.095 1567.23 702.311L1567.88 703.15L1568.09 703.798C1568.47 704.739 1568.89 705.66 1569.36 706.557L1531.7 706.773C1544.25 706.773 1556.79 706.557 1569.36 706.557L1568.79 705.574L1568.38 704.494L1568.16 703.87C1568.54 704.811 1568.96 705.732 1569.44 706.629C1569.87 707.901 1571.35 711.428 1571.57 712.796L1591.36 713.659C1594.55 714.499 1596.16 714.307 1598.36 724.72L1537.1 725.152C1537.29 726.208 1508.15 724.72 1508.15 724.72L1446 724.096C1446.01 722.24 1445.87 720.386 1445.56 718.554L1417.67 718.218ZM1567.28 702.478C1567.06 702.263 1567.06 702.047 1566.85 701.831L1567.28 702.478Z" fill="#F48B4A"/>
<path fill-rule="evenodd" clip-rule="evenodd" d="M1535.2 573.032V579.438H1502.72V613.701H1516.78L1506.99 616.796V725.582H1485.4V617.108L1475.4 613.701H1489.67V579.438H1381.42V613.701H1395.67L1385.88 616.796V725.582H1364.29V617.108L1354.7 613.701H1368.73V579.438H1336.11V573.032H1327.37V568.353H1368.66V549.831H1358.87V542.633C1345.48 540.713 1331.64 538.362 1317.8 535.603V519.839C1312.69 518.999 1307.37 517.943 1302.04 516.648V503.883C1296.09 502.828 1290.05 501.484 1283.98 500.26V488.768C1384.37 505.481 1486.84 505.481 1587.23 488.768V500.26C1581.28 501.532 1575.24 502.828 1569.14 503.883V516.648C1564.03 517.943 1558.71 519.047 1553.41 520.055V535.603C1540 538.578 1526.16 541.145 1512.32 543.04V549.855H1502.72V568.377H1543.79V573.056L1535.2 573.032ZM1391.28 546.232V549.831H1381.49V568.353H1425.96V547.935C1414.47 547.719 1402.98 547.071 1391.28 546.232ZM1489.82 549.831H1480.03V546.424C1468.73 547.503 1457.05 547.935 1445.54 548.127V568.353H1489.82V549.831Z" fill="#F48B4A"/>
</svg>
