<svg width="158" height="48" viewBox="0 0 158 48" fill="none" xmlns="http://www.w3.org/2000/svg">
<path d="M114.547 36.678V39.9287C114.67 40.0203 115.205 40.0509 116.215 40.0509C119.491 40.0509 120.456 39.1616 121.406 36.5551L127.636 18.064H124.865C123.854 18.064 123.227 18.5396 122.982 19.4749L120.242 29.0425L117.104 18.0797H112.603L117.976 33.5195C118.604 35.6045 117.823 36.6933 115.649 36.6933H114.547V36.678ZM104.52 30.6066C106.663 30.6066 107.765 29.0881 107.857 26.0372C107.857 22.8325 106.724 21.2534 104.459 21.2534C102.192 21.2534 101.122 22.8325 101.152 26.0372C101.275 29.0881 102.376 30.6066 104.52 30.6066ZM101.152 38.0732C101.152 39.3918 100.494 40.0509 99.1768 40.0509H97.1721V24.9331C97.3862 20.2106 99.8203 17.8801 104.566 17.8801C109.464 17.8801 111.899 20.5327 111.899 25.8534C111.899 31.2347 109.817 34.0101 105.607 34.1633C103.632 34.1633 102.147 33.3506 101.137 31.71V38.0732H101.152ZM87.9404 30.6066C90.0838 30.6066 91.1861 29.0881 91.278 26.0372C91.278 22.8325 90.1454 21.2534 87.8792 21.2534C85.614 21.2534 84.542 22.8325 84.5726 26.0372C84.6802 29.0881 85.7818 30.6066 87.9404 30.6066ZM84.5726 38.0732C84.5726 39.3918 83.9142 40.0509 82.5978 40.0509H80.5927V24.9331C80.8068 20.2106 83.2409 17.8801 87.9868 17.8801C92.8851 17.8801 95.3195 20.5327 95.3195 25.8534C95.3195 31.2347 93.2375 34.0101 89.0274 34.1633C87.0526 34.1633 85.568 33.3506 84.5577 31.71V38.0732H84.5726ZM72.2186 21.0849C73.8567 21.0849 74.699 21.5295 74.7905 22.4338C74.7905 23.2924 73.918 23.814 72.2186 24.0135C68.2234 24.3965 65.483 25.4241 65.3914 29.2114C65.3914 32.7065 68.0089 34.4697 71.8053 34.1633C76.0763 33.8723 78.6942 31.9248 78.6942 27.555V22.1733C78.6026 19.2447 76.398 17.8035 72.0351 17.8035C68.3915 17.8035 66.3401 19.2447 65.8656 22.1733H69.8309C70.045 21.4376 70.8103 21.0849 72.2186 21.0849ZM71.2848 30.9436C70.0293 30.9436 69.3717 30.3454 69.2797 29.0881C69.2797 27.923 70.091 27.1716 71.6675 26.8806C72.8314 26.6354 73.9027 26.3134 74.8365 25.93V27.3865C74.8365 29.625 73.5047 30.9436 71.2848 30.9436ZM47.0977 15.7335V33.8723H51.307V24.8718H59.6351V33.8723H63.8448V13.5566H59.6351V21.1458H51.307V13.5566H49.1793C48.0161 13.5566 47.0977 14.5685 47.0977 15.7335Z" fill="#1E1D1A"/>
<path fill-rule="evenodd" clip-rule="evenodd" d="M155.59 13.5563H153.539V33.8719H157.504V15.4881C157.504 14.4456 156.631 13.5563 155.59 13.5563ZM144.553 21.0846C146.252 21.0846 147.232 22.1577 147.477 24.2584H141.537C141.843 22.1577 142.853 21.0846 144.553 21.0846ZM151.441 29.0269H148.517C147.982 29.0269 147.538 29.2111 147.17 29.5944C146.39 30.3458 145.532 30.7288 144.599 30.7288C142.654 30.7288 141.614 29.5021 141.46 27.0798H151.656C151.947 20.9004 149.604 17.8189 144.583 17.8189C139.776 17.8495 137.358 20.5327 137.358 25.9144C137.358 31.296 139.746 34.0715 144.522 34.2247C148.441 34.2247 150.584 32.3691 151.441 29.0269ZM136.408 18.4474V18.064H133.454V15.5497C133.454 14.4456 132.55 13.541 131.449 13.541H129.474V30.8054C129.443 32.5687 130.163 33.4882 131.648 33.6421C133.132 33.7953 134.541 33.7953 135.827 33.6724V30.6522H134.602C133.821 30.6522 133.439 30.2999 133.439 29.6404V20.8854H133.852C134.893 20.8854 135.827 20.5477 136.225 19.4902C136.362 19.2298 136.408 18.8001 136.408 18.4474Z" fill="#F06F1E"/>
<path fill-rule="evenodd" clip-rule="evenodd" d="M9.19995 0.000536496C13.1193 0.000536496 19.5182 -0.0151481 23.3913 0.123095C26.499 0.230335 26.0547 0.199695 27.6929 2.3153C30.0656 5.41283 36.0513 12.174 36.0053 14.1061C35.8066 23.7193 35.4389 28.6567 35.4082 38.5924C35.3933 43.652 31.2748 47.8069 26.2079 47.8069H9.19995C4.1484 47.8069 0 43.6673 0 38.5924V9.21508C0 4.13982 4.1484 0.000536496 9.19995 0.000536496Z" fill="#F06F1E"/>
<path fill-rule="evenodd" clip-rule="evenodd" d="M11.4789 16.2988H24.1083C28.1039 16.2988 31.3802 19.5802 31.3802 23.582V35.7252C31.3802 39.7273 28.1039 43.0083 24.1083 43.0083H11.4789C7.48298 43.0083 4.20708 39.7273 4.20708 35.7252V23.582C4.19176 19.5802 7.46803 16.2988 11.4789 16.2988Z" fill="white"/>
<path fill-rule="evenodd" clip-rule="evenodd" d="M28.3659 29.5469C28.1824 35.1587 23.3752 39.6664 17.4665 39.6664C11.5724 39.6664 6.76556 35.174 6.56641 29.5469H28.3659Z" fill="#F06F1E"/>
<path fill-rule="evenodd" clip-rule="evenodd" d="M15.0948 26.0811C15.0339 24.057 13.2889 22.4316 11.1605 22.4316C9.03285 22.4316 7.28748 24.057 7.22656 26.0811H15.0948Z" fill="#F06F1E"/>
<path fill-rule="evenodd" clip-rule="evenodd" d="M28.2006 25.9537C28.1397 23.9297 26.3943 22.3047 24.2663 22.3047C22.1387 22.3047 20.3933 23.9297 20.332 25.9537H28.2006Z" fill="#F06F1E"/>
<path fill-rule="evenodd" clip-rule="evenodd" d="M15.1858 4.16992L9.24609 4.24652L12.7518 14.5043L15.1858 4.16992Z" fill="white"/>
<path fill-rule="evenodd" clip-rule="evenodd" d="M6.79556 7.94141L3.15234 10.3025L10.6073 14.7339L6.79556 7.94141Z" fill="white"/>
<path fill-rule="evenodd" clip-rule="evenodd" d="M18.9683 7.55859L19.305 7.74243L22.5506 9.56696L15.1719 14.3661L18.7998 7.88068L18.9683 7.55859Z" fill="white"/>
</svg>
