<svg width="700" height="442" viewBox="0 0 700 442" fill="none" xmlns="http://www.w3.org/2000/svg">
<g clip-path="url(#clip0_70_2)">
<path d="M668.973 0.841797H30.2378C13.7058 0.841797 0.179688 14.371 0.179688 30.9068V410.477C0.179688 427.013 13.7058 440.542 30.2378 440.542H668.973C685.505 440.542 699.031 427.013 699.031 410.477V30.9068C699.031 14.371 685.505 0.841797 668.973 0.841797ZM451.578 280.822H506.433C510.567 280.822 513.948 284.204 513.948 288.338C513.948 292.472 510.567 295.854 506.433 295.854H451.578C438.352 295.854 427.531 285.031 427.531 271.803V198.444C427.531 191.379 430.236 184.839 435.271 179.804L438.352 176.721L461.872 153.196C466.833 148.236 473.444 145.454 480.509 145.454H506.509C510.642 145.454 514.024 148.837 514.024 152.971C514.024 157.105 510.642 160.487 506.509 160.487H480.359C477.352 160.487 474.497 161.69 472.393 163.794L459.543 176.646L445.791 190.476C443.687 192.581 442.485 195.438 442.485 198.444V271.803C442.56 276.763 446.542 280.822 451.578 280.822ZM636.435 295.854H538.747C534.613 295.854 531.231 292.472 531.231 288.338C531.231 284.204 534.613 280.822 538.747 280.822H636.435C641.394 280.822 645.452 276.763 645.452 271.803C645.452 267.894 648.684 264.662 652.591 264.662H653.343C657.25 264.662 660.482 267.894 660.482 271.803C660.482 285.031 649.661 295.854 636.435 295.854ZM660.482 243.241C660.482 247.375 657.1 250.756 652.967 250.756C648.834 250.756 645.452 247.375 645.452 243.241V198.143C645.452 194.009 648.834 190.627 652.967 190.627C657.1 190.627 660.482 194.009 660.482 198.143V243.241ZM653.343 176.721H652.591C648.684 176.721 645.452 173.49 645.452 169.581C645.452 164.621 641.394 160.562 636.435 160.562H538.747C534.613 160.562 531.231 157.18 531.231 153.046C531.231 148.912 534.613 145.529 538.747 145.529H636.435C649.661 145.529 660.482 156.353 660.482 169.581C660.482 173.49 657.25 176.721 653.343 176.721Z" fill="url(#paint0_linear_70_2)"/>
<mask id="mask0_70_2" style="mask-type:alpha" maskUnits="userSpaceOnUse" x="0" y="0" width="700" height="441">
<path d="M668.973 0.841797H30.2378C13.7058 0.841797 0.179688 14.371 0.179688 30.9068V410.477C0.179688 427.013 13.7058 440.542 30.2378 440.542H668.973C685.505 440.542 699.031 427.013 699.031 410.477V30.9068C699.031 14.371 685.505 0.841797 668.973 0.841797ZM451.578 280.822H506.433C510.567 280.822 513.948 284.204 513.948 288.338C513.948 292.472 510.567 295.854 506.433 295.854H451.578C438.352 295.854 427.531 285.031 427.531 271.803V198.444C427.531 191.379 430.236 184.839 435.271 179.804L438.352 176.721L461.872 153.196C466.833 148.236 473.444 145.454 480.509 145.454H506.509C510.642 145.454 514.024 148.837 514.024 152.971C514.024 157.105 510.642 160.487 506.509 160.487H480.359C477.352 160.487 474.497 161.69 472.393 163.794L459.543 176.646L445.791 190.476C443.687 192.581 442.485 195.438 442.485 198.444V271.803C442.56 276.763 446.542 280.822 451.578 280.822ZM636.435 295.854H538.747C534.613 295.854 531.231 292.472 531.231 288.338C531.231 284.204 534.613 280.822 538.747 280.822H636.435C641.394 280.822 645.452 276.763 645.452 271.803C645.452 267.894 648.684 264.662 652.591 264.662H653.343C657.25 264.662 660.482 267.894 660.482 271.803C660.482 285.031 649.661 295.854 636.435 295.854ZM660.482 243.241C660.482 247.375 657.1 250.756 652.967 250.756C648.834 250.756 645.452 247.375 645.452 243.241V198.143C645.452 194.009 648.834 190.627 652.967 190.627C657.1 190.627 660.482 194.009 660.482 198.143V243.241ZM653.343 176.721H652.591C648.684 176.721 645.452 173.49 645.452 169.581C645.452 164.621 641.394 160.562 636.435 160.562H538.747C534.613 160.562 531.231 157.18 531.231 153.046C531.231 148.912 534.613 145.529 538.747 145.529H636.435C649.661 145.529 660.482 156.353 660.482 169.581C660.482 173.49 657.25 176.721 653.343 176.721Z" fill="url(#paint1_linear_70_2)"/>
</mask>
<g mask="url(#mask0_70_2)">
<path d="M726.836 -30.7246H-50.918V470.609H726.836V-30.7246Z" fill="#FCFCFC"/>
</g>
<mask id="mask1_70_2" style="mask-type:luminance" maskUnits="userSpaceOnUse" x="41" y="56" width="327" height="327">
<path d="M367.638 56.4609H41.5078V382.665H367.638V56.4609Z" fill="white"/>
</mask>
<g mask="url(#mask1_70_2)">
<path d="M744.119 -30.7266H-36.6406V485.639H744.119V-30.7266Z" fill="#C4C4C4"/>
<g filter="url(#filter0_d_70_2)">
<path d="M369.777 55.5234H40.5703V383.223H369.777V55.5234Z" fill="white"/>
</g>
<path d="M184.637 216.495L44.0641 27.5723H12.3711V411.553H195.884V251.008C196.139 238.48 192.049 226.465 184.637 216.495Z" fill="#F06F1E"/>
<path d="M184.637 216.495L44.0641 27.5723H12.3711V411.553H195.884V251.008C196.139 238.48 192.049 226.465 184.637 216.495Z" fill="#F06F1E"/>
<path d="M184.637 216.495L44.0641 27.5723H12.3711V411.553H195.884V251.008C196.139 238.48 192.049 226.465 184.637 216.495Z" fill="#F06F1E"/>
<path fill-rule="evenodd" clip-rule="evenodd" d="M308.349 181.73C307.837 198.603 293.269 212.153 275.633 212.153C257.742 212.153 243.429 198.603 242.918 181.73H308.349Z" fill="#F06F1E"/>
<path fill-rule="evenodd" clip-rule="evenodd" d="M268.218 171.248C267.962 165.113 262.85 160.256 256.46 160.256C250.07 160.256 244.703 165.113 244.703 171.248H268.218Z" fill="#F06F1E"/>
<path fill-rule="evenodd" clip-rule="evenodd" d="M307.835 170.739C307.579 164.603 302.468 159.746 296.078 159.746C289.688 159.746 284.32 164.603 284.32 170.739H307.835Z" fill="#F06F1E"/>
<path fill-rule="evenodd" clip-rule="evenodd" d="M306.302 99.9231C301.446 93.5323 302.724 93.5323 293.267 93.2767C281.51 92.7653 262.341 93.0209 250.584 93.0209C235.249 93.0209 222.98 105.548 222.98 120.631V209.085C222.98 224.424 235.505 236.694 250.584 236.694H301.958C317.292 236.694 329.561 224.167 329.561 209.085C329.561 179.174 330.839 164.346 331.35 135.458C331.35 129.578 313.459 109.127 306.302 99.9231ZM279.977 115.517L280.999 116.029L290.712 121.397L268.475 135.714L279.466 116.285L279.977 115.517ZM268.731 105.548L261.319 136.481L250.84 105.548H268.731ZM243.427 116.796L254.929 137.248L232.437 123.954L243.427 116.796ZM317.292 200.393C317.292 212.408 307.325 222.378 295.312 222.378H257.485C245.472 222.378 235.505 212.408 235.505 200.393V163.835C235.505 151.82 245.472 141.849 257.485 141.849H295.568C307.58 141.849 317.549 151.82 317.549 163.835V200.393H317.292Z" fill="#F06F1E"/>
<path d="M289.174 288.589V291.656C289.174 291.656 289.941 291.656 290.708 291.656C294.03 291.656 294.798 290.89 295.819 288.333L301.954 270.182H299.142C298.12 270.182 297.609 270.694 297.353 271.46L294.541 280.919L291.475 270.182H287.129L292.497 285.265C293.008 287.311 292.241 288.333 290.197 288.333H289.174V288.589ZM279.207 282.709C281.251 282.709 282.273 281.175 282.529 278.107C282.529 275.039 281.506 273.505 279.207 273.505C276.906 273.505 275.884 275.039 275.884 278.107C276.139 281.175 277.162 282.709 279.207 282.709ZM275.884 290.122C275.884 291.401 275.117 292.168 273.839 292.168H271.794V277.34C272.05 272.739 274.35 270.438 278.95 270.438C283.807 270.438 286.107 272.994 286.107 278.363C286.107 283.732 284.063 286.288 279.973 286.543C277.928 286.543 276.65 285.776 275.629 284.242V290.122H275.884ZM263.104 282.709C265.149 282.709 266.172 281.175 266.427 278.107C266.427 275.039 265.405 273.505 263.104 273.505C260.804 273.505 259.781 275.039 259.781 278.107C259.781 281.175 260.804 282.709 263.104 282.709ZM259.781 290.122C259.781 291.401 259.015 292.168 257.737 292.168H255.692V277.34C255.948 272.739 258.248 270.438 262.849 270.438C267.705 270.438 270.005 272.994 270.005 278.363C270.005 283.732 267.96 286.288 263.871 286.543C261.826 286.543 260.549 285.776 259.526 284.242V290.122H259.781ZM247.513 273.505C249.047 273.505 250.069 274.017 250.069 274.784C250.069 275.551 249.302 276.062 247.513 276.318C243.68 276.574 240.868 277.596 240.868 281.431C240.868 284.754 243.424 286.543 247.258 286.288C251.347 286.032 253.903 283.987 253.903 279.897V274.528C253.903 271.716 251.602 270.182 247.258 270.182C243.68 270.182 241.635 271.716 241.124 274.528H244.958C245.468 273.761 246.236 273.505 247.513 273.505ZM246.746 282.964C245.468 282.964 244.958 282.453 244.702 281.175C244.702 280.153 245.468 279.385 247.003 279.13C248.024 278.874 249.302 278.618 250.069 278.107V279.641C250.069 281.686 248.791 282.964 246.746 282.964ZM222.977 268.137V286.032H227.067V277.34H235.245V286.032H239.334V266.092H235.245V273.505H227.067V266.092H225.022C223.744 266.092 222.977 267.115 222.977 268.137Z" fill="#2F2E2D"/>
<path d="M329.555 266.093H327.51V286.034H331.344V268.139C331.344 266.861 330.578 266.093 329.555 266.093ZM318.565 273.507C320.354 273.507 321.121 274.53 321.376 276.575H315.498C316.009 274.53 317.031 273.507 318.565 273.507ZM325.466 281.177H322.654C322.144 281.177 321.632 281.432 321.376 281.688C320.609 282.455 319.843 282.71 318.821 282.71C317.031 282.71 316.009 281.432 315.753 279.131H325.722C325.977 272.996 323.677 269.928 318.821 269.928C314.22 269.928 311.664 272.485 311.664 277.853C311.664 283.222 313.965 285.779 318.821 286.034C322.399 286.289 324.443 284.5 325.466 281.177ZM311.409 271.206V270.44H307.831V267.883C307.831 266.861 307.064 265.838 306.041 265.838H303.996V282.71C303.996 284.5 304.763 285.267 306.041 285.522C307.574 285.779 308.852 285.779 310.131 285.522V282.455H308.852C308.086 282.455 307.831 282.2 307.831 281.432V272.741H308.341C309.109 273.251 311.409 272.485 311.409 271.206Z" fill="#F06F1E"/>
<path d="M230.639 311.339C230.639 311.596 230.639 311.596 230.639 311.339C230.383 311.596 230.383 311.596 230.383 311.596H230.128C229.872 311.596 229.872 311.596 229.872 311.596H229.617V302.137H224.761V311.596C224.761 311.596 224.761 311.596 224.504 311.596H224.249C223.994 311.596 223.994 311.596 223.994 311.596H223.738V301.625C223.738 301.369 223.738 301.369 223.994 301.114L224.249 300.857H230.895C231.15 300.857 231.15 300.857 231.15 301.114C231.15 301.114 231.406 301.369 231.406 301.625V311.339H230.639Z" fill="#F06F1E"/>
<path d="M236.774 311.596L235.752 314.409C235.752 314.409 235.753 314.664 235.496 314.664C235.241 314.664 235.241 314.664 234.985 314.664C234.73 314.664 234.73 314.664 234.73 314.664H234.474C234.474 314.664 234.474 314.664 234.474 314.409C234.474 314.409 234.474 314.409 234.474 314.153L235.496 311.596C235.496 311.596 235.496 311.596 235.241 311.596C235.241 311.596 235.241 311.596 235.241 311.341L232.43 304.183V303.927C232.43 303.927 232.43 303.927 232.43 303.672C232.43 303.672 232.43 303.672 232.685 303.672C232.685 303.672 232.94 303.672 233.196 303.672C233.452 303.672 233.452 303.672 233.708 303.672H233.963C233.963 303.672 233.963 303.672 233.963 303.927L236.008 310.063L238.052 303.927V303.672C238.052 303.672 238.052 303.672 238.308 303.672C238.308 303.672 238.564 303.672 238.819 303.672C239.074 303.672 239.074 303.672 239.331 303.672H239.586C239.586 303.672 239.586 303.672 239.586 303.927C239.586 304.183 239.586 304.183 239.586 304.183L236.774 311.596Z" fill="#F06F1E"/>
<path d="M246.49 304.182V304.437V304.693H244.19V311.083C244.19 311.083 244.19 311.083 243.935 311.083H243.678C243.423 311.083 243.423 311.083 243.423 311.083H243.168V304.693H240.867C240.867 304.693 240.867 304.693 240.867 304.437C240.867 304.182 240.867 304.182 240.867 304.182V303.925V303.67H246.746C246.746 303.67 246.746 303.67 246.746 303.925C246.49 304.182 246.49 304.182 246.49 304.182Z" fill="#F06F1E"/>
<path d="M254.155 307.253C254.155 307.508 254.155 307.508 253.899 307.764L253.643 308.019H248.532C248.532 308.531 248.532 308.786 248.532 309.042C248.532 309.297 248.787 309.553 249.043 309.809C249.298 310.064 249.554 310.32 249.81 310.32C250.065 310.575 250.577 310.575 251.088 310.575C251.343 310.575 251.855 310.575 252.11 310.575C252.365 310.575 252.621 310.575 252.876 310.32C253.133 310.064 253.133 310.064 253.388 310.064C253.643 310.064 253.643 310.064 253.643 310.064C253.643 310.064 253.643 310.064 253.643 310.32V310.575V310.831C253.643 310.831 253.643 310.831 253.643 311.087C253.643 311.087 253.643 311.087 253.388 311.343C253.133 311.598 253.133 311.598 252.876 311.598C252.621 311.598 252.365 311.598 252.11 311.854C251.855 311.854 251.343 311.854 251.088 311.854C250.577 311.854 249.81 311.854 249.554 311.598C249.043 311.343 248.787 311.087 248.276 310.831C248.02 310.575 247.765 310.064 247.509 309.553C247.254 309.042 247.254 308.531 247.254 307.764C247.254 306.996 247.254 306.485 247.509 305.974C247.765 305.463 248.02 304.952 248.276 304.695C248.532 304.44 249.043 304.185 249.299 303.929C249.81 303.674 250.32 303.674 250.832 303.674C251.343 303.674 251.855 303.674 252.365 303.929C252.876 304.185 253.133 304.44 253.388 304.695C253.643 304.952 253.899 305.463 253.899 305.718C253.899 305.974 254.155 306.485 254.155 307.253ZM250.065 301.373C250.065 301.628 250.065 301.884 249.81 301.884C249.554 301.884 249.554 302.139 249.299 302.139C249.043 302.139 248.787 302.139 248.787 301.884C248.787 301.884 248.532 301.628 248.532 301.373C248.532 301.116 248.532 300.861 248.787 300.861C249.043 300.861 249.043 300.605 249.299 300.605C249.554 300.605 249.81 300.605 249.81 300.861C249.81 301.116 250.065 301.116 250.065 301.373ZM252.621 306.996C252.621 306.23 252.365 305.718 252.11 305.207C251.855 304.695 251.343 304.695 250.577 304.695C250.32 304.695 249.81 304.695 249.554 304.952C249.298 305.207 249.043 305.207 248.787 305.463C248.532 305.718 248.532 305.974 248.276 306.23C248.276 306.485 248.02 306.741 248.02 306.996H252.621ZM252.876 301.373C252.876 301.628 252.876 301.884 252.621 301.884C252.365 301.884 252.365 302.139 252.11 302.139C251.855 302.139 251.598 302.139 251.598 301.884C251.598 301.884 251.343 301.628 251.343 301.373C251.343 301.116 251.343 300.861 251.598 300.861C251.855 300.861 251.855 300.605 252.11 300.605C252.365 300.605 252.621 300.605 252.621 300.861C252.621 301.116 252.876 301.116 252.876 301.373Z" fill="#F06F1E"/>
<path d="M262.335 309.294C262.335 309.805 262.335 310.061 262.079 310.317C261.824 310.573 261.824 310.828 261.312 311.083C261.057 311.339 260.545 311.339 260.29 311.595C259.779 311.595 259.267 311.851 258.756 311.851C258.501 311.851 258.501 311.851 258.246 311.851C257.989 311.851 257.989 311.851 257.734 311.851C257.479 311.851 257.479 311.851 257.223 311.851C256.967 311.851 256.967 311.851 256.711 311.851C256.456 311.851 256.201 311.851 256.201 311.595C256.201 311.595 255.945 311.339 255.945 311.083V304.437C255.945 304.182 255.945 303.925 256.201 303.925C256.201 303.925 256.456 303.67 256.711 303.67C256.967 303.67 256.967 303.67 257.223 303.67C257.479 303.67 257.479 303.67 257.734 303.67C257.989 303.67 257.989 303.67 258.246 303.67C258.501 303.67 258.501 303.67 258.756 303.67C259.267 303.67 259.779 303.67 260.29 303.925C260.801 303.925 261.057 304.182 261.312 304.437C261.568 304.693 261.824 304.948 261.824 304.948C261.824 305.204 262.079 305.46 262.079 305.715C262.079 306.226 262.079 306.482 261.824 306.738C261.568 306.994 261.312 307.249 260.801 307.504C261.312 307.504 261.824 307.761 262.079 308.272C262.335 308.272 262.335 308.783 262.335 309.294ZM260.801 305.715C260.801 305.46 260.801 305.46 260.801 305.204C260.801 304.948 260.545 304.948 260.545 304.948C260.29 304.948 260.29 304.693 260.034 304.693C259.779 304.693 259.524 304.693 259.267 304.693C259.012 304.693 258.756 304.693 258.501 304.693C258.246 304.693 257.989 304.693 257.989 304.693V306.994H259.524C260.034 306.994 260.545 306.994 260.801 306.738C260.545 306.482 260.801 306.226 260.801 305.715ZM261.057 309.294C261.057 309.039 261.057 308.783 261.057 308.783C261.057 308.527 260.801 308.527 260.801 308.272C260.545 308.272 260.29 308.016 260.034 308.016C259.779 308.016 259.524 308.016 259.012 308.016H257.734V310.573H257.989H258.246H258.501H258.756C259.012 310.573 259.524 310.573 259.779 310.573C260.034 310.573 260.29 310.317 260.545 310.317C260.801 310.317 260.801 310.061 260.801 309.805C260.801 309.55 261.057 309.55 261.057 309.294Z" fill="#F06F1E"/>
<path d="M270.004 311.343C269.748 311.598 269.493 311.598 269.493 311.598C269.237 311.598 269.237 311.598 269.237 311.598H268.982C268.982 311.598 268.982 311.598 268.982 311.343V310.576C268.726 310.831 268.215 311.087 267.96 311.343C267.448 311.598 267.192 311.598 266.682 311.598C266.17 311.598 265.915 311.598 265.659 311.343C265.404 311.343 265.147 311.087 264.892 310.831C264.637 310.576 264.381 310.32 264.381 310.064C264.381 309.808 264.125 309.553 264.125 309.042C264.125 308.53 264.125 308.275 264.381 308.019C264.637 307.763 264.892 307.508 265.147 307.252C265.404 306.997 265.915 306.997 266.425 306.741C266.937 306.741 267.448 306.485 267.96 306.485H268.982V305.974C268.982 305.718 268.982 305.463 268.982 305.207C268.982 304.951 268.726 304.696 268.726 304.696C268.47 304.44 268.47 304.44 268.215 304.44C267.96 304.44 267.704 304.44 267.448 304.44C267.192 304.44 266.682 304.44 266.425 304.44C266.17 304.44 265.915 304.696 265.659 304.696C265.404 304.696 265.404 304.951 265.147 304.951C264.892 304.951 264.892 304.951 264.892 304.951C264.892 304.951 264.892 304.951 264.892 304.696V304.44C264.892 304.184 264.892 304.184 264.892 304.184C264.892 304.184 264.892 303.928 265.147 303.928C265.147 303.928 265.404 303.673 265.659 303.673C265.915 303.673 266.17 303.418 266.17 303.418C266.425 303.418 266.682 303.162 266.937 303.162C267.192 303.162 267.448 303.162 267.704 303.162C268.215 303.162 268.726 303.162 268.982 303.418C269.237 303.418 269.748 303.673 270.004 303.928C270.26 304.184 270.515 304.44 270.515 304.696C270.515 304.951 270.771 305.463 270.771 305.974V311.343H270.004ZM268.726 308.019H267.448C267.192 308.019 266.682 308.019 266.425 308.019C266.17 308.019 265.915 308.275 265.659 308.275C265.404 308.275 265.404 308.53 265.147 308.786C265.147 309.042 264.892 309.042 264.892 309.298C264.892 309.808 264.892 310.064 265.147 310.32C265.404 310.576 265.659 310.576 266.17 310.576C266.425 310.576 266.937 310.576 267.192 310.32C267.448 310.064 267.704 309.808 268.215 309.553V308.019H268.726Z" fill="#F06F1E"/>
<path d="M278.182 311.34C278.182 311.596 278.182 311.596 278.182 311.34C277.926 311.596 277.926 311.596 277.926 311.596H277.67C277.415 311.596 277.415 311.596 277.415 311.596H277.159V308.529H276.392C276.137 308.529 275.881 308.529 275.626 308.529C275.37 308.529 275.37 308.784 275.114 308.784C274.859 309.04 274.859 309.04 274.604 309.296C274.604 309.551 274.347 309.807 274.347 310.062L273.836 311.596V311.852C273.836 311.852 273.836 311.852 273.581 311.852H273.326H273.069H272.814H272.559C272.559 311.852 272.559 311.852 272.559 311.596C272.559 311.596 272.559 311.34 272.814 311.085L273.326 309.551C273.581 309.296 273.581 308.784 273.836 308.529C274.092 308.273 274.347 308.017 274.604 308.017C274.092 308.017 273.581 307.761 273.326 307.251C273.069 306.995 272.814 306.483 272.814 305.972C272.814 305.717 272.814 305.205 273.069 304.95C273.326 304.694 273.326 304.438 273.836 304.182C274.092 303.927 274.604 303.927 274.859 303.671C275.37 303.671 275.881 303.416 276.392 303.416C276.648 303.416 276.648 303.416 276.904 303.416C277.159 303.416 277.159 303.416 277.415 303.416C277.67 303.416 277.67 303.416 277.926 303.416C278.182 303.416 278.182 303.416 278.437 303.416C278.693 303.416 278.693 303.416 278.693 303.671C278.693 303.671 278.693 303.927 278.693 304.182V311.34H278.182ZM276.648 304.694C276.392 304.694 276.137 304.694 276.137 304.694C275.881 304.694 275.626 304.694 275.626 304.694C275.37 304.694 274.859 304.694 274.604 304.694C274.347 304.694 274.092 304.95 274.092 304.95C273.836 304.95 273.836 305.205 273.836 305.461C273.836 305.717 273.836 305.717 273.836 305.972C273.836 306.228 273.836 306.228 273.836 306.483C273.836 306.739 274.092 306.739 274.092 306.995C274.347 306.995 274.347 307.251 274.604 307.251C274.859 307.251 275.114 307.251 275.626 307.251H276.648V304.694Z" fill="#F06F1E"/>
<path d="M289.941 310.322C289.941 310.577 289.941 310.578 289.941 310.834C289.941 310.834 289.941 310.834 289.686 311.089L289.429 311.345C289.174 311.345 289.174 311.6 288.919 311.6C288.663 311.6 288.408 311.856 288.152 311.856C287.896 311.856 287.641 311.856 287.385 311.856C286.874 311.856 286.363 311.856 285.851 311.6C285.34 311.345 285.085 311.089 284.83 310.834C284.573 310.322 284.318 310.067 284.318 309.555C284.063 309.044 284.062 308.533 284.062 307.766C284.062 306.998 284.063 306.488 284.318 305.976C284.573 305.465 284.83 304.954 285.085 304.698C285.34 304.442 285.851 304.187 286.107 303.931C286.618 303.676 286.874 303.676 287.385 303.676C287.641 303.676 287.896 303.676 288.152 303.676C288.408 303.676 288.663 303.676 288.663 303.931C288.663 304.187 288.919 304.187 289.174 304.187C289.429 304.187 289.429 304.442 289.429 304.442C289.429 304.442 289.429 304.442 289.686 304.698C289.686 304.698 289.686 304.698 289.686 304.954C289.686 304.954 289.686 304.954 289.686 305.209V305.465C289.686 305.72 289.686 305.72 289.686 305.976C289.686 305.976 289.686 306.232 289.429 306.232C289.429 306.232 289.174 306.232 289.174 305.976C289.174 305.976 288.919 305.72 288.663 305.72C288.408 305.72 288.408 305.465 288.152 305.465C287.896 305.465 287.641 305.209 287.385 305.209C286.618 305.209 286.107 305.465 285.851 305.976C285.596 306.488 285.34 307.255 285.34 308.277C285.34 308.788 285.34 309.299 285.596 309.555C285.596 309.811 285.851 310.322 286.107 310.577C286.363 310.834 286.618 311.089 286.874 311.089C287.13 311.089 287.385 311.345 287.641 311.345C287.896 311.345 288.152 311.345 288.408 311.089C288.663 311.089 288.919 310.834 288.919 310.834C289.174 310.834 289.174 310.577 289.429 310.577L289.686 310.322C289.686 310.322 289.686 310.322 289.686 310.577C289.941 310.067 289.941 310.067 289.941 310.322Z" fill="#F06F1E"/>
<path d="M298.628 311.341C298.372 311.596 298.372 311.596 298.628 311.341C298.372 311.596 298.372 311.596 298.372 311.596H298.117C297.862 311.596 297.862 311.596 297.862 311.596H297.605V306.995C297.605 306.739 297.605 306.484 297.605 306.228C297.605 305.973 297.605 305.716 297.605 305.461C297.35 305.716 297.35 305.973 297.094 306.228C296.839 306.484 296.839 306.739 296.584 306.995L293.261 311.341C293.261 311.341 293.261 311.341 293.005 311.341H292.749H292.494H292.238V303.672C292.238 303.672 292.238 303.672 292.494 303.672H292.749C293.005 303.672 293.261 303.672 293.261 303.672C293.261 303.672 293.516 303.672 293.516 303.927V308.273C293.516 308.529 293.516 308.785 293.516 309.04C293.516 309.295 293.516 309.552 293.516 309.807C293.772 309.552 293.772 309.295 294.027 309.295C294.283 309.04 294.283 308.785 294.539 308.785L297.862 304.438C297.862 304.438 297.862 304.438 298.117 304.438C298.117 304.438 298.117 304.438 298.372 304.438H298.628H298.884H299.139V311.341H298.628Z" fill="#F06F1E"/>
<path d="M310.644 311.343V311.598C310.644 311.598 310.389 311.598 310.134 311.598C309.877 311.598 309.878 311.598 309.878 311.598H309.622L309.111 307.253C309.111 306.996 309.111 306.996 309.111 306.741C309.111 306.486 309.111 306.486 309.111 306.23C309.111 305.974 309.111 305.974 309.111 305.718C309.111 305.463 309.111 305.463 309.111 305.207V304.952C309.111 305.207 309.111 305.207 308.856 305.463C308.856 305.718 308.856 305.718 308.599 305.974C308.344 306.23 308.599 306.23 308.344 306.486C308.344 306.741 308.344 306.741 308.089 306.996L306.555 311.343C306.555 311.343 306.555 311.343 306.555 311.598C306.555 311.598 306.555 311.598 306.3 311.598C306.044 311.598 306.044 311.598 306.044 311.598H305.788H305.533C305.533 311.598 305.533 311.598 305.277 311.598C305.021 311.598 305.277 311.598 305.277 311.343L303.743 306.996C303.743 306.741 303.743 306.741 303.488 306.486C303.488 306.23 303.488 306.23 303.232 305.974C303.232 305.718 303.232 305.718 302.977 305.463C302.977 305.207 302.977 305.207 302.722 304.952V305.207C302.722 305.463 302.722 305.463 302.722 305.718C302.722 305.974 302.722 305.974 302.722 306.23C302.722 306.486 302.722 306.486 302.722 306.741C302.722 306.996 302.722 306.996 302.722 307.253L302.21 311.598C302.21 311.598 302.21 311.598 302.21 311.854H301.955H301.699C301.443 311.854 301.443 311.854 301.443 311.854H301.188C301.188 311.854 301.188 311.854 301.188 311.598L301.955 304.44C301.955 304.185 301.955 304.185 302.21 303.929C302.21 303.929 302.465 303.674 302.722 303.674H303.488C303.743 303.674 303.743 303.674 304 303.674C304 303.674 304.255 303.674 304.255 303.929L304.51 304.185C304.51 304.185 304.51 304.44 304.766 304.696L305.788 308.019C305.788 308.275 305.788 308.531 306.044 308.531C306.044 308.786 306.3 309.042 306.3 309.042C306.3 309.297 306.3 309.297 306.555 309.554C306.555 309.809 306.555 309.809 306.811 310.065C306.811 309.809 306.811 309.809 307.066 309.554C307.066 309.297 307.066 309.042 307.321 309.042C307.321 308.786 307.321 308.531 307.578 308.531C307.833 308.531 307.578 308.275 307.833 308.019L308.856 304.952C308.856 304.696 308.856 304.696 309.111 304.696C309.111 304.696 309.111 304.44 309.366 304.44C309.366 304.44 309.622 304.44 309.622 304.185C309.622 304.185 309.877 304.185 310.134 304.185H310.9C311.156 304.185 311.156 304.185 311.411 304.185C311.411 304.185 311.667 304.44 311.667 304.696L310.644 311.343Z" fill="#F06F1E"/>
<path d="M318.822 311.343C318.567 311.599 318.567 311.599 318.567 311.599H318.311C318.055 311.599 318.055 311.599 318.055 311.599H317.8C317.8 311.599 317.8 311.599 317.545 311.599L316.777 309.554C316.777 309.298 316.522 309.043 316.522 308.786C316.522 308.531 316.267 308.531 316.011 308.276C315.755 308.02 315.755 308.02 315.5 308.02C315.244 308.02 314.989 308.02 314.732 308.02H314.222V311.343H313.966H313.711H313.455H313.199V303.674H313.455H313.711H313.966H314.222V306.997H314.732C314.989 306.997 315.244 306.997 315.244 306.997C315.5 306.997 315.5 306.997 315.755 306.742C316.011 306.742 316.01 306.486 316.267 306.23C316.267 305.975 316.522 305.975 316.522 305.719L317.289 303.929H317.545H317.8C318.055 303.929 318.055 303.929 318.055 303.929H318.311C318.311 303.929 318.311 303.929 318.311 304.185C318.311 304.185 318.311 304.185 318.311 304.441L317.545 305.975C317.545 306.23 317.289 306.486 317.289 306.742C317.033 306.997 317.033 306.997 316.777 307.253C316.522 307.253 316.522 307.508 316.267 307.508C316.01 307.508 316.011 307.508 315.755 307.764C316.011 307.764 316.01 308.02 316.267 308.02C316.522 308.02 316.522 308.276 316.777 308.276C317.033 308.531 317.033 308.531 317.289 308.786C317.289 309.043 317.545 309.298 317.545 309.554L318.311 311.343C318.822 311.087 318.822 311.087 318.822 311.343Z" fill="#F06F1E"/>
<path d="M325.976 311.343C325.721 311.598 325.465 311.598 325.465 311.598C325.209 311.598 325.209 311.598 325.209 311.598H324.954C324.954 311.598 324.954 311.598 324.954 311.343V310.576C324.698 310.832 324.187 311.087 323.931 311.343C323.421 311.598 323.164 311.598 322.653 311.598C322.143 311.598 321.886 311.598 321.631 311.343C321.376 311.343 321.12 311.087 320.865 310.832C320.608 310.576 320.353 310.32 320.353 310.065C320.353 309.809 320.098 309.554 320.098 309.042C320.098 308.531 320.098 308.275 320.353 308.019C320.608 307.764 320.864 307.508 321.12 307.253C321.376 306.997 321.886 306.997 322.398 306.741C322.909 306.741 323.421 306.486 323.931 306.486H324.954V305.974C324.954 305.718 324.954 305.463 324.954 305.208C324.954 304.952 324.698 304.696 324.698 304.696C324.442 304.44 324.442 304.44 324.187 304.44C323.931 304.44 323.676 304.44 323.421 304.44C323.164 304.44 322.653 304.44 322.398 304.44C322.143 304.44 321.886 304.696 321.631 304.696C321.376 304.696 321.376 304.952 321.12 304.952C320.864 304.952 320.865 304.952 320.865 304.952C320.865 304.952 320.865 304.952 320.865 304.696V304.44C320.865 304.185 320.865 304.185 320.865 304.185C320.865 304.185 320.864 303.929 321.12 303.929C321.12 303.929 321.376 303.674 321.631 303.674C321.886 303.674 322.143 303.418 322.143 303.418C322.398 303.418 322.653 303.162 322.909 303.162C323.164 303.162 323.421 303.162 323.676 303.162C324.187 303.162 324.698 303.162 324.954 303.418C325.209 303.418 325.721 303.674 325.976 303.929C326.232 304.185 326.487 304.44 326.487 304.696C326.487 304.952 326.742 305.463 326.742 305.974V311.343H325.976ZM324.698 308.019H323.421C323.164 308.019 322.653 308.019 322.398 308.019C322.143 308.019 321.886 308.275 321.631 308.275C321.376 308.275 321.376 308.531 321.12 308.787C321.12 309.042 320.865 309.042 320.865 309.297C320.865 309.809 320.864 310.065 321.12 310.32C321.376 310.576 321.631 310.576 322.143 310.576C322.398 310.576 322.909 310.576 323.164 310.32C323.42 310.065 323.676 309.809 324.187 309.554V308.019H324.698Z" fill="#F06F1E"/>
<path d="M331.345 310.828C331.345 311.083 331.345 311.083 331.345 311.339C331.345 311.339 331.345 311.595 331.089 311.595C331.089 311.595 330.834 311.595 330.834 311.851C330.834 312.106 330.579 311.851 330.322 311.851C330.067 311.851 330.067 311.851 329.812 311.851C329.812 311.851 329.556 311.851 329.556 311.595C329.556 311.595 329.556 311.339 329.301 311.339C329.301 311.339 329.301 311.083 329.301 310.828C329.301 310.572 329.301 310.572 329.301 310.317C329.301 310.317 329.301 310.061 329.556 310.061C329.556 310.061 329.812 310.061 329.812 309.805C329.812 309.805 330.067 309.805 330.322 309.805C330.579 309.805 330.579 309.805 330.834 309.805C330.834 309.805 331.089 309.805 331.089 310.061C331.089 310.061 331.089 310.317 331.345 310.317C331.345 310.317 331.345 310.572 331.345 310.828ZM331.089 308.527C330.834 308.782 330.834 308.782 330.834 308.782H330.579H330.322H330.067L329.812 300.858C329.812 300.858 329.812 300.858 329.812 300.602H330.067H330.322C330.579 300.602 330.579 300.602 330.579 300.602H330.834C330.834 300.602 330.834 300.602 330.834 300.858L331.089 308.527Z" fill="#F06F1E"/>
</g>
<path d="M100.296 275.04H77.8047V265.581L97.4853 234.393H105.408C108.986 234.393 110.776 236.183 110.776 239.762V266.093H117.165V274.785H110.776V286.545H100.552V275.04H100.296ZM100.552 243.596L85.9836 266.604H100.552V243.596Z" fill="white"/>
<path d="M145.533 233.369C151.667 233.369 156.778 234.904 161.124 237.971C165.213 241.295 167.258 245.641 167.768 251.521H161.124C159.334 251.521 157.801 250.498 156.523 248.964C154.478 244.874 150.9 242.573 145.788 242.573C136.842 242.573 132.242 248.197 132.242 259.701C132.242 271.205 136.842 277.341 146.299 277.852C153.455 277.852 157.801 272.995 158.823 266.603H152.433C149.366 266.603 147.066 264.302 147.066 261.235V258.423H168.28V286.544H165.724C163.168 286.544 160.612 284.754 160.612 282.453L160.101 279.897C156.523 284.754 152.689 287.311 145.276 287.311C130.453 287.311 121.251 275.807 121.251 260.468C120.996 244.874 130.197 232.858 145.533 233.369Z" fill="white"/>
<path d="M81.8902 305.711H85.9796V338.945H105.916V346.359H77.8008V310.057C77.8008 307.756 79.5899 305.711 81.8902 305.711Z" fill="white"/>
<path d="M106.686 305.711H135.055V312.869H123.043V346.359H114.608V312.869H102.596V310.057C102.34 307.756 104.385 305.711 106.686 305.711Z" fill="white"/>
<path d="M139.148 310.059C139.148 307.247 140.426 305.713 143.238 305.713H168.541V312.871H147.327V321.563H163.174V324.375C163.174 327.187 161.896 328.465 158.829 328.465H147.327V338.947H168.541V346.361H139.148V310.059Z" fill="white"/>
<path d="M628.851 249.627C628.851 258.797 621.487 266.163 612.32 266.163H538.677C529.509 266.163 522.145 258.797 522.145 249.627V191C522.145 181.83 529.509 174.465 538.677 174.465H612.32C621.487 174.465 628.851 181.83 628.851 191V249.627Z" fill="url(#paint2_linear_70_2)"/>
<path d="M613.071 174.465H537.925C529.209 174.465 522.145 181.53 522.145 190.249V250.379C522.145 259.098 529.209 266.163 537.925 266.163H613.071C621.788 266.163 628.851 259.098 628.851 250.379V190.249C628.851 181.53 621.788 174.465 613.071 174.465ZM588.048 175.968H613.071C618.256 175.968 622.764 178.749 625.244 182.883H588.048V175.968ZM564.226 175.968H586.544V183.409L575.423 199.494L564.151 183.409V175.968H564.226ZM537.925 175.968H562.723V182.883H525.752C528.232 178.749 532.74 175.968 537.925 175.968ZM523.648 190.249C523.648 188.144 524.098 186.19 524.926 184.386H563.099L574.747 201.072V206.108H563.625V205.507H523.573V190.249H523.648ZM523.648 206.935H562.949V219.562H523.648V206.935ZM523.648 221.066H562.949V233.392H523.648V221.066ZM562.723 264.66H537.925C532.74 264.66 528.232 261.879 525.677 257.745H562.723V264.66ZM524.926 256.241C524.098 254.438 523.648 252.484 523.648 250.379V234.895H564.451V207.537H586.619V233.091H574.747V239.631L563.099 256.241H524.926ZM586.544 264.66H564.226V257.219L575.498 241.209L586.619 257.219V264.66H586.544ZM613.071 264.66H588.048V257.745H625.244C622.764 261.879 618.256 264.66 613.071 264.66ZM627.348 250.379C627.348 252.484 626.897 254.438 626.071 256.241H587.747L576.25 239.631V234.595H587.371V235.196H627.423V250.379H627.348ZM627.348 233.692H588.048V221.066H627.348V233.692ZM627.348 219.562H588.048V206.935H627.348V219.562ZM627.348 205.432H587.295V206.033H576.174V200.997L587.672 184.386H625.996C626.822 186.19 627.273 188.144 627.273 190.249V205.432H627.348Z" fill="black"/>
<path d="M480.663 212.349V206.336H481.94C482.241 206.786 482.617 207.237 482.992 207.688C483.368 208.14 483.668 208.515 483.969 208.816C484.345 209.267 484.721 209.492 485.021 209.718C485.322 209.868 485.622 209.943 485.922 209.943C486.298 209.943 486.523 209.868 486.75 209.642C486.975 209.417 487.05 209.116 487.05 208.666C487.05 208.365 486.975 207.99 486.825 207.688C486.675 207.312 486.524 207.012 486.298 206.711V206.561H488.027C488.102 206.786 488.252 207.162 488.327 207.613C488.402 208.065 488.477 208.591 488.477 209.041C488.477 210.018 488.252 210.695 487.876 211.221C487.501 211.747 486.9 211.972 486.148 211.972C485.697 211.972 485.171 211.822 484.796 211.597C484.345 211.371 483.893 210.996 483.443 210.47C483.142 210.169 482.917 209.868 482.616 209.492C482.391 209.192 482.241 208.966 482.091 208.816V212.273H480.663V212.349ZM482.466 219.94V218.887H480.663V217.009H482.466V213.326H483.893L488.327 216.934V218.962H483.818V220.015H482.466V219.94ZM483.818 217.009H486.599L483.818 214.754V217.009ZM482.842 227.306C482.166 227.306 481.639 227.005 481.188 226.404C480.738 225.803 480.512 225.051 480.512 223.999C480.512 223.397 480.587 222.946 480.663 222.571C480.813 222.195 480.963 221.819 481.113 221.594C481.339 221.368 481.564 221.142 481.789 220.992C482.091 220.842 482.316 220.766 482.692 220.766C483.067 220.766 483.443 220.842 483.743 221.067C484.044 221.293 484.269 221.669 484.495 222.195C484.721 221.744 484.946 221.444 485.246 221.218C485.547 220.992 485.922 220.917 486.298 220.917C486.9 220.917 487.426 221.217 487.801 221.744C488.177 222.27 488.402 223.021 488.402 223.924C488.402 224.901 488.252 225.577 487.876 226.179C487.501 226.705 487.05 227.005 486.448 227.005C486.073 227.005 485.772 226.855 485.472 226.629C485.171 226.404 484.946 226.028 484.721 225.577C484.495 226.104 484.269 226.479 483.893 226.78C483.668 227.231 483.293 227.306 482.842 227.306ZM482.692 225.351C482.917 225.351 483.142 225.276 483.217 225.201C483.368 225.051 483.518 224.825 483.668 224.45C483.743 224.299 483.818 224.149 483.893 223.924C483.969 223.698 484.044 223.548 484.119 223.397C483.969 223.247 483.818 223.096 483.668 223.021C483.443 222.871 483.293 222.871 482.992 222.871C482.617 222.871 482.316 223.021 482.166 223.247C481.94 223.472 481.864 223.849 481.864 224.224C481.864 224.299 481.864 224.45 481.94 224.6C481.94 224.75 482.015 224.901 482.091 224.976C482.166 225.126 482.241 225.201 482.391 225.276C482.391 225.351 482.541 225.351 482.692 225.351ZM486.373 225.201C486.599 225.201 486.825 225.126 486.975 224.901C487.125 224.675 487.2 224.45 487.2 224.074C487.2 223.924 487.2 223.849 487.125 223.698C487.125 223.548 487.05 223.472 486.975 223.322C486.9 223.247 486.825 223.172 486.75 223.096C486.675 223.021 486.523 223.021 486.448 223.021C486.223 223.021 486.073 223.096 485.998 223.172C485.847 223.322 485.772 223.472 485.622 223.698C485.547 223.774 485.547 223.924 485.472 224.074C485.397 224.224 485.322 224.45 485.246 224.675C485.397 224.825 485.622 224.976 485.772 225.051C485.922 225.201 486.148 225.201 486.373 225.201ZM484.946 234.596C484.269 234.596 483.743 234.521 483.142 234.371C482.616 234.221 482.091 233.92 481.714 233.619C481.339 233.244 481.038 232.793 480.813 232.266C480.588 231.74 480.512 231.139 480.512 230.388C480.512 230.162 480.512 229.861 480.588 229.561C480.663 229.26 480.663 229.11 480.663 228.959H482.166V229.185C482.091 229.26 482.091 229.41 482.015 229.636C481.94 229.861 481.94 230.086 481.94 230.388C481.94 230.688 481.94 230.914 482.015 231.139C482.091 231.365 482.166 231.59 482.316 231.815C482.466 232.041 482.692 232.191 482.917 232.341C483.142 232.493 483.443 232.568 483.743 232.568C483.593 232.266 483.443 231.966 483.368 231.74C483.293 231.515 483.217 231.139 483.217 230.764C483.217 230.463 483.217 230.238 483.293 229.936C483.368 229.711 483.443 229.41 483.593 229.185C483.818 228.884 484.044 228.659 484.42 228.509C484.721 228.358 485.171 228.283 485.697 228.283C486.523 228.283 487.2 228.584 487.726 229.11C488.252 229.711 488.477 230.463 488.477 231.365C488.477 231.815 488.402 232.266 488.252 232.643C488.102 233.018 487.951 233.319 487.651 233.619C487.351 233.92 486.975 234.145 486.524 234.296C486.148 234.521 485.547 234.596 484.946 234.596ZM485.246 232.643C485.697 232.643 485.998 232.568 486.298 232.493C486.599 232.416 486.75 232.266 486.9 232.191C486.975 232.116 487.125 231.966 487.125 231.815C487.2 231.665 487.2 231.515 487.2 231.44C487.2 231.289 487.2 231.214 487.125 231.064C487.05 230.914 486.975 230.839 486.9 230.688C486.825 230.613 486.675 230.463 486.448 230.463C486.298 230.388 486.073 230.388 485.847 230.388C485.622 230.388 485.397 230.388 485.246 230.463C485.096 230.538 484.946 230.613 484.871 230.764C484.796 230.914 484.721 230.989 484.646 231.214C484.646 231.365 484.57 231.59 484.57 231.74C484.57 231.891 484.57 232.041 484.646 232.266C484.721 232.416 484.721 232.568 484.796 232.718C484.871 232.718 484.871 232.718 484.946 232.718C484.946 232.643 485.096 232.643 485.246 232.643ZM483.293 242.263C482.917 242.263 482.541 242.188 482.166 242.038C481.789 241.888 481.564 241.662 481.264 241.437C481.038 241.135 480.813 240.835 480.663 240.459C480.512 240.084 480.437 239.633 480.437 239.182C480.437 238.73 480.512 238.279 480.588 237.904C480.738 237.528 480.888 237.228 481.188 236.927C481.489 236.626 481.864 236.4 482.316 236.175C482.767 236.025 483.368 235.949 483.969 235.949C484.646 235.949 485.246 236.025 485.772 236.175C486.298 236.325 486.75 236.551 487.125 236.927C487.501 237.228 487.801 237.678 488.027 238.204C488.252 238.73 488.327 239.407 488.327 240.084C488.327 240.309 488.327 240.609 488.252 240.91C488.252 241.211 488.177 241.437 488.177 241.512H486.675V241.286C486.75 241.211 486.75 241.06 486.825 240.835C486.9 240.609 486.9 240.384 486.9 240.084C486.9 239.407 486.75 238.881 486.448 238.58C486.148 238.279 485.697 237.979 485.096 237.904C485.246 238.204 485.397 238.43 485.472 238.73C485.547 239.031 485.622 239.332 485.622 239.708C485.622 240.008 485.622 240.309 485.547 240.534C485.472 240.76 485.397 241.06 485.246 241.211C485.021 241.512 484.796 241.737 484.42 241.888C484.194 242.188 483.743 242.263 483.293 242.263ZM482.091 239.933C482.241 240.008 482.316 240.159 482.541 240.159C482.692 240.234 482.917 240.234 483.217 240.234C483.443 240.234 483.668 240.234 483.818 240.159C483.969 240.084 484.119 240.008 484.194 239.858C484.269 239.708 484.345 239.558 484.42 239.407C484.42 239.257 484.495 239.031 484.495 238.881C484.495 238.73 484.495 238.58 484.42 238.43C484.42 238.279 484.345 238.129 484.269 237.979C484.269 237.979 484.194 237.979 484.119 237.979C484.044 237.979 483.969 237.979 483.818 237.979C483.368 237.979 483.067 238.054 482.767 238.129C482.466 238.204 482.316 238.355 482.166 238.43C482.091 238.505 482.015 238.655 481.94 238.805C481.864 238.956 481.864 239.106 481.864 239.257C481.864 239.407 481.864 239.483 481.94 239.633C481.94 239.708 482.015 239.858 482.091 239.933ZM484.269 249.028C484.119 249.178 483.969 249.328 483.743 249.404C483.518 249.479 483.293 249.554 482.992 249.554C482.617 249.554 482.316 249.479 482.015 249.328C481.714 249.178 481.414 248.953 481.188 248.652C480.963 248.352 480.813 248.05 480.663 247.599C480.512 247.224 480.512 246.773 480.512 246.172C480.512 245.57 480.587 244.969 480.663 244.518C480.738 244.067 480.888 243.692 480.963 243.39H482.616V243.616C482.466 243.917 482.316 244.293 482.166 244.668C482.016 245.044 481.94 245.42 481.94 245.795C481.94 246.022 481.94 246.247 482.015 246.473C482.015 246.698 482.091 246.923 482.241 247.074C482.316 247.224 482.466 247.299 482.541 247.374C482.692 247.449 482.842 247.524 483.067 247.524C483.293 247.524 483.443 247.449 483.593 247.374C483.743 247.299 483.818 247.149 483.818 246.998C483.893 246.848 483.893 246.623 483.893 246.397C483.893 246.172 483.893 245.947 483.893 245.72V245.269H485.246V245.72C485.246 246.022 485.246 246.247 485.246 246.397C485.246 246.623 485.322 246.773 485.397 246.923C485.472 247.074 485.547 247.224 485.622 247.299C485.697 247.374 485.922 247.449 486.073 247.449C486.223 247.449 486.373 247.374 486.448 247.299C486.523 247.224 486.599 247.149 486.675 246.998C486.75 246.848 486.75 246.698 486.825 246.548C486.825 246.397 486.825 246.247 486.825 246.097C486.825 245.795 486.75 245.42 486.675 245.044C486.599 244.668 486.373 244.293 486.223 243.917V243.692H487.876C488.027 243.992 488.102 244.368 488.177 244.819C488.252 245.269 488.327 245.795 488.327 246.322C488.327 246.773 488.252 247.224 488.177 247.599C488.102 247.975 487.951 248.277 487.876 248.502C487.726 248.802 487.501 249.028 487.275 249.103C487.05 249.178 486.75 249.328 486.448 249.328C485.998 249.328 485.622 249.178 485.322 248.953C485.021 248.652 484.796 248.352 484.646 247.9H484.57C484.57 248.05 484.495 248.277 484.42 248.427C484.495 248.652 484.42 248.878 484.269 249.028ZM470.668 212.349C470.292 212.349 469.917 212.274 469.541 212.123C469.165 211.972 468.94 211.747 468.64 211.522C468.413 211.221 468.188 210.921 468.038 210.545C467.888 210.169 467.812 209.718 467.812 209.267C467.812 208.816 467.888 208.365 468.038 207.99C468.188 207.613 468.338 207.312 468.64 207.012C468.94 206.711 469.316 206.486 469.766 206.261C470.217 206.11 470.818 206.035 471.42 206.035C472.096 206.035 472.697 206.11 473.224 206.261C473.749 206.411 474.2 206.636 474.576 207.012C474.951 207.312 475.252 207.763 475.478 208.29C475.703 208.816 475.778 209.492 475.778 210.169C475.778 210.395 475.778 210.695 475.703 210.996C475.703 211.296 475.628 211.522 475.628 211.597H474.125V211.371C474.2 211.296 474.2 211.146 474.275 210.921C474.35 210.695 474.35 210.47 474.35 210.169C474.35 209.492 474.2 208.966 473.9 208.666C473.599 208.365 473.148 208.065 472.547 207.99C472.697 208.29 472.847 208.515 472.922 208.816C472.997 209.116 473.072 209.417 473.072 209.793C473.072 210.094 473.073 210.395 472.997 210.62C472.922 210.845 472.847 211.146 472.697 211.296C472.471 211.597 472.246 211.822 471.871 211.972C471.57 212.273 471.119 212.349 470.668 212.349ZM469.466 210.018C469.616 210.094 469.691 210.244 469.842 210.244C469.992 210.32 470.217 210.32 470.518 210.32C470.743 210.32 470.969 210.32 471.119 210.244C471.27 210.169 471.42 210.094 471.495 209.943C471.57 209.793 471.645 209.642 471.72 209.492C471.72 209.342 471.795 209.116 471.795 208.966C471.795 208.816 471.795 208.666 471.72 208.515C471.72 208.365 471.645 208.215 471.57 208.065C471.57 208.065 471.495 208.065 471.42 208.065C471.345 208.065 471.27 208.065 471.119 208.065C470.668 208.065 470.367 208.14 470.067 208.215C469.766 208.29 469.616 208.44 469.466 208.515C469.391 208.591 469.316 208.741 469.241 208.891C469.166 209.041 469.165 209.192 469.165 209.342C469.165 209.492 469.166 209.567 469.241 209.718C469.316 209.793 469.391 209.868 469.466 210.018ZM470.668 219.639C470.292 219.639 469.917 219.564 469.541 219.414C469.165 219.264 468.94 219.038 468.64 218.737C468.413 218.436 468.188 218.061 468.038 217.685C467.888 217.31 467.812 216.784 467.812 216.257C467.812 215.656 467.888 215.13 467.963 214.679C468.038 214.227 468.188 213.927 468.263 213.626H469.917V213.852C469.766 214.152 469.541 214.529 469.466 214.829C469.316 215.205 469.316 215.581 469.316 215.881C469.316 216.106 469.316 216.332 469.391 216.557C469.466 216.784 469.541 217.009 469.691 217.159C469.766 217.309 469.917 217.385 469.992 217.46C470.067 217.535 470.292 217.535 470.518 217.535C470.668 217.535 470.818 217.46 470.969 217.385C471.119 217.309 471.195 217.234 471.27 217.084C471.42 216.934 471.495 216.708 471.495 216.407C471.495 216.182 471.57 215.881 471.57 215.731C471.57 215.43 471.57 215.13 471.495 214.829C471.42 214.529 471.42 214.302 471.345 214.077V213.852H475.628V219.264H474.2V215.656H472.922C472.922 215.731 472.922 215.881 472.922 216.031C472.922 216.182 472.922 216.332 472.922 216.482C472.922 216.934 472.847 217.31 472.772 217.61C472.697 217.911 472.547 218.211 472.471 218.436C472.246 218.737 472.021 218.962 471.72 219.189C471.495 219.564 471.119 219.639 470.668 219.639ZM474.2 227.155L468.038 223.698V221.519L474.2 225.126V221.218H475.628V227.231H474.2V227.155ZM470.668 234.747C470.292 234.747 469.917 234.671 469.541 234.521C469.165 234.371 468.94 234.145 468.64 233.92C468.413 233.619 468.188 233.319 468.038 232.943C467.888 232.568 467.812 232.116 467.812 231.665C467.812 231.214 467.888 230.764 468.038 230.388C468.188 230.011 468.338 229.711 468.64 229.41C468.94 229.11 469.316 228.884 469.766 228.659C470.217 228.509 470.818 228.434 471.42 228.434C472.096 228.434 472.697 228.509 473.224 228.659C473.749 228.809 474.2 229.035 474.576 229.41C474.951 229.711 475.252 230.162 475.478 230.688C475.703 231.214 475.778 231.891 475.778 232.568C475.778 232.793 475.778 233.094 475.703 233.394C475.703 233.695 475.628 233.92 475.628 233.995H474.125V233.77C474.2 233.695 474.2 233.544 474.275 233.319C474.35 233.094 474.35 232.868 474.35 232.568C474.35 231.891 474.2 231.365 473.9 231.064C473.599 230.764 473.148 230.463 472.547 230.388C472.697 230.688 472.847 230.914 472.922 231.214C472.997 231.515 473.072 231.815 473.072 232.191C473.072 232.493 473.073 232.793 472.997 233.018C472.922 233.244 472.847 233.544 472.697 233.695C472.471 233.995 472.246 234.221 471.871 234.371C471.57 234.672 471.119 234.747 470.668 234.747ZM469.466 232.416C469.616 232.493 469.691 232.643 469.842 232.643C469.992 232.718 470.217 232.718 470.518 232.718C470.743 232.718 470.969 232.718 471.119 232.643C471.27 232.568 471.42 232.493 471.495 232.341C471.57 232.191 471.645 232.041 471.72 231.891C471.72 231.74 471.795 231.515 471.795 231.365C471.795 231.214 471.795 231.064 471.72 230.914C471.72 230.764 471.645 230.613 471.57 230.463C471.57 230.463 471.495 230.463 471.42 230.463C471.345 230.463 471.27 230.463 471.119 230.463C470.668 230.463 470.367 230.538 470.067 230.613C469.766 230.688 469.616 230.839 469.466 230.914C469.391 230.989 469.316 231.139 469.241 231.289C469.166 231.44 469.165 231.59 469.165 231.74C469.165 231.891 469.166 231.966 469.241 232.116C469.316 232.191 469.391 232.341 469.466 232.416ZM470.217 242.263C469.541 242.263 469.015 241.963 468.564 241.361C468.113 240.76 467.888 240.008 467.888 238.956C467.888 238.355 467.963 237.904 468.038 237.528C468.188 237.153 468.338 236.776 468.489 236.551C468.715 236.325 468.94 236.1 469.165 235.949C469.466 235.799 469.691 235.724 470.067 235.724C470.442 235.724 470.819 235.799 471.119 236.025C471.42 236.25 471.645 236.626 471.871 237.153C472.096 236.701 472.321 236.4 472.622 236.175C472.922 235.949 473.299 235.874 473.674 235.874C474.275 235.874 474.801 236.175 475.176 236.701C475.553 237.228 475.778 237.979 475.778 238.881C475.778 239.858 475.628 240.534 475.252 241.135C474.876 241.662 474.425 241.963 473.824 241.963C473.449 241.963 473.148 241.813 472.847 241.587C472.547 241.361 472.321 240.985 472.096 240.534C471.871 241.06 471.645 241.437 471.27 241.737C471.044 242.188 470.668 242.263 470.217 242.263ZM470.067 240.309C470.292 240.309 470.518 240.234 470.593 240.159C470.743 240.008 470.894 239.783 471.044 239.407C471.119 239.257 471.195 239.106 471.27 238.881C471.345 238.655 471.42 238.505 471.495 238.355C471.345 238.204 471.195 238.054 471.044 237.979C470.818 237.829 470.668 237.829 470.367 237.829C469.992 237.829 469.691 237.979 469.541 238.204C469.316 238.43 469.241 238.805 469.241 239.182C469.241 239.257 469.241 239.407 469.316 239.558C469.316 239.708 469.391 239.858 469.466 239.933C469.541 240.084 469.616 240.159 469.766 240.234C469.766 240.309 469.917 240.309 470.067 240.309ZM473.749 240.159C473.975 240.159 474.2 240.084 474.35 239.858C474.5 239.633 474.576 239.407 474.576 239.031C474.576 238.881 474.576 238.805 474.5 238.655C474.5 238.505 474.425 238.43 474.35 238.279C474.275 238.204 474.2 238.129 474.125 238.054C474.05 237.979 473.9 237.979 473.824 237.979C473.599 237.979 473.449 238.054 473.374 238.129C473.224 238.279 473.148 238.43 472.997 238.655C472.922 238.73 472.922 238.881 472.847 239.031C472.772 239.181 472.697 239.407 472.622 239.633C472.772 239.783 472.997 239.933 473.148 240.008C473.299 240.159 473.524 240.159 473.749 240.159ZM472.321 249.554C471.645 249.554 471.119 249.479 470.518 249.328C469.992 249.178 469.466 248.878 469.09 248.577C468.715 248.201 468.413 247.75 468.188 247.224C467.963 246.698 467.888 246.097 467.888 245.345C467.888 245.119 467.888 244.819 467.963 244.518C468.038 244.218 468.038 244.067 468.038 243.917H469.541V244.143C469.466 244.218 469.466 244.368 469.391 244.593C469.316 244.819 469.316 245.044 469.316 245.345C469.316 245.645 469.316 245.871 469.391 246.097C469.466 246.322 469.541 246.548 469.691 246.773C469.842 246.998 470.067 247.149 470.292 247.299C470.518 247.449 470.819 247.524 471.119 247.524C470.969 247.224 470.819 246.923 470.743 246.698C470.668 246.473 470.593 246.097 470.593 245.72C470.593 245.42 470.593 245.194 470.668 244.894C470.743 244.668 470.818 244.368 470.969 244.143C471.195 243.842 471.42 243.616 471.795 243.465C472.096 243.315 472.547 243.24 473.072 243.24C473.9 243.24 474.576 243.541 475.101 244.067C475.628 244.668 475.853 245.42 475.853 246.322C475.853 246.773 475.778 247.224 475.628 247.599C475.478 247.975 475.328 248.277 475.026 248.577C474.726 248.878 474.35 249.103 473.9 249.253C473.524 249.479 472.922 249.554 472.321 249.554ZM472.622 247.599C473.073 247.599 473.374 247.524 473.674 247.449C473.975 247.374 474.125 247.224 474.275 247.149C474.35 247.074 474.5 246.923 474.5 246.773C474.576 246.623 474.576 246.473 474.576 246.397C474.576 246.247 474.576 246.172 474.5 246.022C474.425 245.871 474.35 245.795 474.275 245.645C474.2 245.57 474.05 245.42 473.824 245.42C473.674 245.345 473.449 245.345 473.224 245.345C472.997 245.345 472.772 245.345 472.622 245.42C472.471 245.495 472.321 245.57 472.246 245.72C472.171 245.871 472.096 245.947 472.021 246.172C472.021 246.322 471.946 246.548 471.946 246.698C471.946 246.848 471.946 246.998 472.021 247.224C472.096 247.374 472.096 247.524 472.171 247.675C472.246 247.675 472.246 247.675 472.321 247.675C472.321 247.599 472.471 247.599 472.622 247.599Z" fill="black"/>
</g>
<defs>
<filter id="filter0_d_70_2" x="25.5703" y="55.5234" width="359.207" height="357.699" filterUnits="userSpaceOnUse" color-interpolation-filters="sRGB">
<feFlood flood-opacity="0" result="BackgroundImageFix"/>
<feColorMatrix in="SourceAlpha" type="matrix" values="0 0 0 0 0 0 0 0 0 0 0 0 0 0 0 0 0 0 127 0" result="hardAlpha"/>
<feOffset dy="15"/>
<feGaussianBlur stdDeviation="7.5"/>
<feColorMatrix type="matrix" values="0 0 0 0 0 0 0 0 0 0 0 0 0 0 0 0 0 0 0.25 0"/>
<feBlend mode="normal" in2="BackgroundImageFix" result="effect1_dropShadow_70_2"/>
<feBlend mode="normal" in="SourceGraphic" in2="effect1_dropShadow_70_2" result="shape"/>
</filter>
<linearGradient id="paint0_linear_70_2" x1="73.8221" y1="-55.1542" x2="625.514" y2="496.412" gradientUnits="userSpaceOnUse">
<stop stop-color="#F2F2F2"/>
<stop offset="1" stop-color="#E8E6E8"/>
</linearGradient>
<linearGradient id="paint1_linear_70_2" x1="73.8221" y1="-55.1542" x2="625.514" y2="496.412" gradientUnits="userSpaceOnUse">
<stop stop-color="#F2F2F2"/>
<stop offset="1" stop-color="#E8E6E8"/>
</linearGradient>
<linearGradient id="paint2_linear_70_2" x1="530.732" y1="175.55" x2="620.26" y2="265.057" gradientUnits="userSpaceOnUse">
<stop stop-color="white"/>
<stop offset="1" stop-color="white"/>
</linearGradient>
<clipPath id="clip0_70_2">
<rect width="699.498" height="441.394" fill="white"/>
</clipPath>
</defs>
</svg>
