<svg width="107" height="147" viewBox="0 0 107 147" fill="none" xmlns="http://www.w3.org/2000/svg">
<path fill-rule="evenodd" clip-rule="evenodd" d="M31.5161 45.9043H79.3197C94.4434 45.9043 106.844 58.3236 106.844 73.471V119.434C106.844 134.582 94.4434 147.001 79.3197 147.001H31.5161C16.3924 147.001 3.99239 134.582 3.99239 119.434V73.471C3.93444 58.3236 16.3345 45.9043 31.5161 45.9043Z" fill="#EBEBEB" fill-opacity="0.71"/>
<path fill-rule="evenodd" clip-rule="evenodd" d="M95.4344 96.0469C94.7393 117.288 76.5448 134.35 54.1784 134.35C31.8698 134.35 13.6751 117.345 12.9219 96.0469H95.4344Z" fill="white"/>
<path fill-rule="evenodd" clip-rule="evenodd" d="M45.1936 82.9273C44.9619 75.2669 38.356 69.1152 30.3016 69.1152C22.2476 69.1152 15.6419 75.2669 15.4102 82.9273H45.1936Z" fill="white"/>
<path fill-rule="evenodd" clip-rule="evenodd" d="M94.8065 82.4472C94.5748 74.7868 87.9693 68.6348 79.915 68.6348C71.8606 68.6348 65.2551 74.7868 65.0234 82.4472H94.8065Z" fill="white"/>
<path fill-rule="evenodd" clip-rule="evenodd" d="M45.5407 0L23.0586 0.290192L36.3279 39.1156L45.5407 0Z" fill="#EBEBEB" fill-opacity="0.71"/>
<path fill-rule="evenodd" clip-rule="evenodd" d="M13.7907 14.2715L0 23.2089L28.2188 39.9808L13.7907 14.2715Z" fill="#EBEBEB" fill-opacity="0.71"/>
<path fill-rule="evenodd" clip-rule="evenodd" d="M59.8582 12.8203L61.1332 13.5168L73.4173 20.4229L45.4883 38.5876L59.2209 14.0391L59.8582 12.8203Z" fill="#EBEBEB" fill-opacity="0.71"/>
</svg>
