<svg width="37" height="48" viewBox="0 0 37 48" fill="none" xmlns="http://www.w3.org/2000/svg">
<circle cx="17.5707" cy="25.6039" r="17.0707" fill="white" stroke="#C0C0C0"/>
<path fill-rule="evenodd" clip-rule="evenodd" d="M9.2371 0.000538662C13.1723 0.000538662 19.5971 -0.0152093 23.4857 0.123593C26.606 0.231265 26.1599 0.200501 27.8047 2.32465C30.187 5.43469 36.1969 12.2232 36.1508 14.1631C35.9512 23.8151 35.582 28.7725 35.5512 38.7482C35.5362 43.8282 31.4011 48 26.3138 48H9.2371C4.16516 48 0 43.8436 0 38.7482V9.25229C0 4.15654 4.16516 0.000538662 9.2371 0.000538662Z" fill="#F06F1E"/>
<path fill-rule="evenodd" clip-rule="evenodd" d="M11.5239 16.3652H24.2043C28.216 16.3652 31.5055 19.6599 31.5055 23.6778V35.87C31.5055 39.8883 28.216 43.1826 24.2043 43.1826H11.5239C7.51184 43.1826 4.22271 39.8883 4.22271 35.87V23.6778C4.20733 19.6599 7.49682 16.3652 11.5239 16.3652Z" fill="white"/>
<path fill-rule="evenodd" clip-rule="evenodd" d="M28.4812 29.666C28.297 35.3005 23.4705 39.8264 17.5379 39.8264C11.6199 39.8264 6.79371 35.3159 6.59375 29.666H28.4812Z" fill="#F06F1E"/>
<path fill-rule="evenodd" clip-rule="evenodd" d="M15.1539 26.1856C15.0927 24.1534 13.3407 22.5215 11.2037 22.5215C9.06749 22.5215 7.31507 24.1534 7.25391 26.1856H15.1539Z" fill="#F06F1E"/>
<path fill-rule="evenodd" clip-rule="evenodd" d="M28.3144 26.0583C28.2533 24.0261 26.5008 22.3945 24.3642 22.3945C22.228 22.3945 20.4756 24.0261 20.4141 26.0583H28.3144Z" fill="#F06F1E"/>
<path fill-rule="evenodd" clip-rule="evenodd" d="M15.2489 4.18945L9.28516 4.26636L12.805 14.5655L15.2489 4.18945Z" fill="white"/>
<path fill-rule="evenodd" clip-rule="evenodd" d="M6.82199 7.97266L3.16406 10.3433L10.6491 14.7926L6.82199 7.97266Z" fill="white"/>
<path fill-rule="evenodd" clip-rule="evenodd" d="M19.0461 7.58984L19.3841 7.77443L22.6429 9.60632L15.2344 14.4248L18.8769 7.91323L19.0461 7.58984Z" fill="white"/>
</svg>
