<svg width="203" height="279" viewBox="0 0 203 279" fill="none" xmlns="http://www.w3.org/2000/svg">
<path fill-rule="evenodd" clip-rule="evenodd" d="M59.6849 86.9277H150.211C178.851 86.9277 202.333 110.446 202.333 139.131V226.172C202.333 254.857 178.851 278.376 150.211 278.376H59.6849C31.045 278.376 7.56288 254.857 7.56288 226.172V139.131C7.45315 110.446 30.9353 86.9277 59.6849 86.9277Z" fill="#F5F5F5" fill-opacity="0.71"/>
<path fill-rule="evenodd" clip-rule="evenodd" d="M180.72 181.887C179.404 222.111 144.948 254.421 102.593 254.421C60.3468 254.421 25.8913 222.22 24.4648 181.887H180.72Z" fill="white"/>
<path fill-rule="evenodd" clip-rule="evenodd" d="M85.581 157.041C85.1422 142.534 72.6325 130.885 57.3799 130.885C42.1278 130.885 29.6186 142.534 29.1797 157.041H85.581Z" fill="white"/>
<path fill-rule="evenodd" clip-rule="evenodd" d="M179.533 156.131C179.095 141.625 166.586 129.975 151.333 129.975C136.08 129.975 123.572 141.625 123.133 156.131H179.533Z" fill="white"/>
<path fill-rule="evenodd" clip-rule="evenodd" d="M86.2388 0L43.6641 0.54954L68.7922 74.0738L86.2388 0Z" fill="#F5F5F5" fill-opacity="0.71"/>
<path fill-rule="evenodd" clip-rule="evenodd" d="M26.1156 27.0234L0 43.9483L53.4383 75.7095L26.1156 27.0234Z" fill="#F5F5F5" fill-opacity="0.71"/>
<path fill-rule="evenodd" clip-rule="evenodd" d="M113.349 24.2793L115.764 25.5982L139.026 38.6764L86.1367 73.0752L112.142 26.5873L113.349 24.2793Z" fill="#F5F5F5" fill-opacity="0.71"/>
</svg>
