<svg xmlns="http://www.w3.org/2000/svg" width="237" height="42" fill="none" viewBox="0 0 237 42"><path fill="#0B1725" fill-rule="evenodd" d="M68.301.09c4.45 0 11.044 0 14.51 2.225 4.7 2.987 5.379 8.37 5.379 13.497 0 5.126-.679 10.51-5.38 13.5-3.465 2.203-10.064 2.224-14.509 2.208-4.444-.017-11.047 0-14.51-2.208-4.7-2.99-5.381-8.375-5.381-13.5 0-5.126.681-10.527 5.382-13.511C57.254.098 63.857.076 68.302.09m132.724.342 13.684 23.682L228.37.432h8.141L218.77 31.164c-2.665 4.642-5.065 8.941-10.616 9.857a28 28 0 0 1-4.299.335l-.517-.003a70 70 0 0 1-4.369-.15l.001-6.437c2.462.325 6.43.6 8.622-.473 1.371-.673 2.269-1.86 3.034-3.118L192.882.432zm-97.595 0 13.673 23.682L130.775.432h8.144l-17.745 30.732h-8.14L95.29.432zM165.907.09c4.45 0 11.047 0 14.51 2.225 4.7 2.97 5.367 8.357 5.367 13.483 0 1.029-.027 2.069-.108 3.098h-32.54c.223 2.247.932 4.406 3.182 5.426 2.161.979 6.908 1.01 9.575 1.01s7.429-.023 9.601-1.01a4.8 4.8 0 0 0 1.221-.782l6.928 2.523a10.15 10.15 0 0 1-3.215 3.234c-3.463 2.203-10.065 2.225-14.51 2.209-4.444-.017-11.046 0-14.509-2.209-4.711-2.989-5.395-8.373-5.395-13.499s.684-10.513 5.384-13.497C154.86.098 161.463.076 165.907.09m12.757 12.61c-.222-2.248-.931-4.405-3.181-5.427-2.161-.976-6.909-1.006-9.576-1.006s-7.415.03-9.575 1.006c-2.25 1.022-2.96 3.18-3.182 5.427zM68.301 25.332c2.667 0 7.415-.031 9.576-1.01 3.298-1.496 3.282-5.44 3.282-8.524s.016-7.028-3.282-8.525c-2.161-.979-6.909-1.006-9.576-1.006s-7.417.027-9.578 1.006c-3.296 1.497-3.282 5.44-3.282 8.525s-.014 7.028 3.282 8.524c2.16.987 6.914 1.01 9.578 1.01" clip-rule="evenodd"/><path fill="#0B1725" d="M0 .365v30.798h7.231V7.045s6.17-.37 12.552-.37c5.526 0 8.118.556 9.28 1.947.904 1.032 1.225 2.28 1.225 7.23v15.311h7.23V13.981c0-5.601-.67-8.232-2.667-10.443C32.371.859 28.831 0 20.267 0z"/></svg>