<svg xmlns="http://www.w3.org/2000/svg" width="41" height="42" fill="none" viewBox="0 0 41 42"><path fill="#fff" fill-rule="evenodd" d="M10.25 8a2.5 2.5 0 0 0-2.5 2.5v21a2.5 2.5 0 0 0 2.5 2.5h21a2.5 2.5 0 0 0 2.5-2.5v-21a2.5 2.5 0 0 0-2.5-2.5zm-4.5 2.5a4.5 4.5 0 0 1 4.5-4.5h21a4.5 4.5 0 0 1 4.5 4.5v21a4.5 4.5 0 0 1-4.5 4.5h-21a4.5 4.5 0 0 1-4.5-4.5z" clip-rule="evenodd"/><path fill="#fff" fill-rule="evenodd" d="M14.5 15.75a1 1 0 0 1 1-1H26a1 1 0 0 1 1 1v10.5a1 1 0 0 1-1 1H15.5a1 1 0 0 1-1-1zm2 1v8.5H25v-8.5zm-1-16a1 1 0 0 1 1 1V7a1 1 0 1 1-2 0V1.75a1 1 0 0 1 1-1m10.5 0a1 1 0 0 1 1 1V7a1 1 0 1 1-2 0V1.75a1 1 0 0 1 1-1M15.5 34a1 1 0 0 1 1 1v5.25a1 1 0 1 1-2 0V35a1 1 0 0 1 1-1M26 34a1 1 0 0 1 1 1v5.25a1 1 0 1 1-2 0V35a1 1 0 0 1 1-1m7.75-18.25a1 1 0 0 1 1-1H40a1 1 0 1 1 0 2h-5.25a1 1 0 0 1-1-1m0 8.75a1 1 0 0 1 1-1H40a1 1 0 1 1 0 2h-5.25a1 1 0 0 1-1-1M.5 15.75a1 1 0 0 1 1-1h5.25a1 1 0 1 1 0 2H1.5a1 1 0 0 1-1-1m0 8.75a1 1 0 0 1 1-1h5.25a1 1 0 1 1 0 2H1.5a1 1 0 0 1-1-1" clip-rule="evenodd"/></svg>