<svg xmlns="http://www.w3.org/2000/svg" width="36" height="38" fill="none" viewBox="0 0 36 38"><path fill="#fff" d="M8.182 14.87H4.909v11.565h3.273zm9.818 0h-3.273v11.565H18zm14.727-6.61L16.364 0 0 8.26v3.305h32.727zm-25.412 0 9.049-4.56 9.049 4.56zM0 29.74v3.304h20.29c-.343-1.058-.523-2.165-.588-3.305zm27.818-11.136V14.87h-3.273v5.386zm1.637 2.874-6.546 3.305v4.213c0 4.163 2.798 8.062 6.546 9.004C33.201 37.058 36 33.16 36 28.996v-4.213zm-1.179 11.566-3.322-3.354 1.735-1.752 1.587 1.603 3.944-3.932 1.735 1.751z"/></svg>