<svg width="247" height="266" viewBox="0 0 247 266" fill="none" xmlns="http://www.w3.org/2000/svg">
<g clip-path="url(#clip0_1156_27532)">
<path d="M156.678 150.92L49.909 178.438C46.2873 179.367 42.4452 178.82 39.2257 176.917C36.0063 175.015 33.6723 171.912 32.7358 168.289L0.446013 42.7891C-0.482264 39.1642 0.0639745 35.3189 1.9649 32.0966C3.86582 28.8743 6.96619 26.5383 10.5858 25.601L109.917 0L135.341 11.3914L166.818 133.732C167.746 137.356 167.2 141.202 165.299 144.424C163.398 147.646 160.298 149.982 156.678 150.92Z" fill="#F2F2F2"/>
<path d="M11.5981 29.5358C9.02049 30.2032 6.81265 31.8668 5.45896 34.1614C4.10527 36.4561 3.71629 39.1944 4.37734 41.7758L36.6671 167.276C37.334 169.856 38.9961 172.065 41.2887 173.42C43.5814 174.775 46.3174 175.164 48.8965 174.503L155.666 146.985C158.243 146.317 160.451 144.654 161.805 142.359C163.158 140.064 163.547 137.326 162.886 134.745L131.897 14.3002L109.554 4.28918L11.5981 29.5358Z" fill="white"/>
<path d="M135.071 12.0388L118.547 16.2976C117.341 16.6085 116.061 16.427 114.988 15.7931C113.916 15.1593 113.138 14.1249 112.828 12.9175L109.685 0.702633C109.671 0.649156 109.673 0.59288 109.69 0.54026C109.706 0.48764 109.738 0.440806 109.78 0.405128C109.822 0.369449 109.873 0.346371 109.928 0.33854C109.982 0.33071 110.038 0.338443 110.088 0.360854L135.117 11.4857C135.173 11.5105 135.22 11.552 135.251 11.6045C135.282 11.657 135.296 11.7178 135.291 11.7786C135.286 11.8394 135.262 11.8971 135.223 11.9437C135.183 11.9903 135.13 12.0236 135.071 12.0388Z" fill="#F2F2F2"/>
<path d="M126.377 119.213L77.766 131.742C77.4674 131.819 77.1565 131.836 76.8512 131.793C76.5458 131.749 76.252 131.646 75.9864 131.489C75.7209 131.333 75.4888 131.125 75.3034 130.878C75.1181 130.631 74.9831 130.351 74.9062 130.052C74.8293 129.753 74.812 129.442 74.8552 129.136C74.8985 128.83 75.0014 128.536 75.1582 128.271C75.315 128.005 75.5226 127.772 75.7691 127.587C76.0156 127.401 76.2961 127.266 76.5948 127.189L125.205 114.661C125.504 114.584 125.815 114.566 126.12 114.61C126.425 114.653 126.719 114.756 126.985 114.913C127.25 115.07 127.483 115.278 127.668 115.524C127.853 115.771 127.988 116.052 128.065 116.351C128.142 116.65 128.159 116.961 128.116 117.266C128.073 117.572 127.97 117.866 127.813 118.132C127.656 118.398 127.449 118.63 127.202 118.816C126.956 119.001 126.675 119.136 126.377 119.213Z" fill="#CCCCCC"/>
<path d="M137.734 124.477L79.7426 139.424C79.1394 139.579 78.4993 139.488 77.963 139.171C77.4267 138.854 77.0381 138.337 76.8828 137.734C76.7275 137.13 76.8181 136.489 77.1348 135.952C77.4515 135.416 77.9682 135.027 78.5713 134.871L136.563 119.925C137.166 119.77 137.805 119.861 138.341 120.178C138.877 120.495 139.265 121.012 139.421 121.615C139.576 122.219 139.485 122.859 139.169 123.396C138.853 123.932 138.337 124.321 137.734 124.477Z" fill="#CCCCCC"/>
<path d="M57.9291 146.831C62.5132 146.831 66.2293 143.112 66.2293 138.524C66.2293 133.936 62.5132 130.216 57.9291 130.216C53.345 130.216 49.6289 133.936 49.6289 138.524C49.6289 143.112 53.345 146.831 57.9291 146.831Z" fill="#E6E6E6"/>
<path d="M121.21 97.4721L56.6501 114.105C54.7843 114.584 52.8051 114.302 51.1467 113.322C49.4882 112.341 48.286 110.743 47.8038 108.876L34.2745 56.2728C33.7964 54.4054 34.078 52.4244 35.0574 50.7646C36.0368 49.1047 37.6341 47.9014 39.4988 47.4188L104.058 30.7858C105.924 30.3073 107.903 30.5891 109.562 31.5694C111.22 32.5497 112.423 34.1483 112.905 36.0146L126.434 88.6181C126.912 90.4855 126.63 92.4665 125.651 94.1263C124.672 95.7862 123.074 96.9895 121.21 97.4721Z" fill="white"/>
<path d="M121.21 97.4721L56.6501 114.105C54.7843 114.584 52.8051 114.302 51.1467 113.322C49.4882 112.341 48.286 110.743 47.8038 108.876L34.2745 56.2728C33.7964 54.4054 34.078 52.4244 35.0574 50.7646C36.0368 49.1047 37.6341 47.9014 39.4988 47.4188L104.058 30.7858C105.924 30.3073 107.903 30.5891 109.562 31.5694C111.22 32.5497 112.423 34.1483 112.905 36.0146L126.434 88.6181C126.912 90.4855 126.63 92.4665 125.651 94.1263C124.672 95.7862 123.074 96.9895 121.21 97.4721ZM39.7119 48.2472C38.0666 48.6731 36.6572 49.7348 35.793 51.1994C34.9288 52.664 34.6804 54.4118 35.1022 56.0595L48.6315 108.663C49.057 110.31 50.1178 111.72 51.5811 112.585C53.0444 113.45 54.7908 113.699 56.4371 113.277L120.997 96.6437C122.642 96.2178 124.051 95.1561 124.916 93.6916C125.78 92.227 126.028 90.4791 125.606 88.8314L112.077 36.2279C111.652 34.5811 110.591 33.1705 109.127 32.3056C107.664 31.4407 105.918 31.192 104.271 31.6142L39.7119 48.2472Z" fill="#E6E6E6"/>
<path d="M100.783 48.4732L68.2003 56.8677C67.9155 56.9473 67.611 56.9157 67.3486 56.7792C67.0861 56.6428 66.8852 56.4117 66.7865 56.1327C66.7405 55.9869 66.7247 55.8333 66.74 55.6813C66.7554 55.5292 66.8015 55.3818 66.8756 55.2482C66.9497 55.1145 67.0502 54.9974 67.171 54.9039C67.2918 54.8104 67.4304 54.7426 67.5783 54.7045L100.745 46.1594C102.085 46.8389 101.733 48.2285 100.783 48.4732Z" fill="#F2F2F2"/>
<path d="M102.255 54.1933L69.673 62.5878C69.3881 62.6674 69.0837 62.6358 68.8212 62.4993C68.5588 62.3629 68.3579 62.1318 68.2591 61.8528C68.2132 61.707 68.1974 61.5534 68.2127 61.4013C68.228 61.2493 68.2741 61.1019 68.3482 60.9683C68.4223 60.8346 68.5228 60.7175 68.6436 60.624C68.7645 60.5305 68.903 60.4627 69.0509 60.4246L102.218 51.8795C103.558 52.559 103.205 53.9486 102.255 54.1933Z" fill="#F2F2F2"/>
<path d="M63.4658 67.6593L53.522 70.2212C53.1972 70.3046 52.8527 70.2555 52.564 70.0849C52.2753 69.9143 52.0661 69.636 51.9822 69.3111L48.9615 57.5665C48.8783 57.2414 48.9273 56.8966 49.0978 56.6077C49.2682 56.3187 49.5463 56.1093 49.8709 56.0253L59.8147 53.4634C60.1394 53.3802 60.4839 53.4293 60.7726 53.5999C61.0612 53.7705 61.2705 54.0487 61.3545 54.3736L64.3751 66.1182C64.4584 66.4433 64.4094 66.7881 64.2389 67.077C64.0684 67.3659 63.7904 67.5753 63.4658 67.6593Z" fill="#E6E6E6"/>
<path d="M105.173 65.9297L55.4464 78.7412C55.1615 78.8207 54.8571 78.7891 54.5947 78.6527C54.3322 78.5162 54.1313 78.2851 54.0326 78.0061C53.9866 77.8604 53.9708 77.7068 53.9861 77.5547C54.0014 77.4026 54.0476 77.2553 54.1216 77.1216C54.1957 76.988 54.2963 76.8708 54.4171 76.7774C54.5379 76.6839 54.6765 76.616 54.8244 76.5779L105.136 63.6157C106.476 64.2952 106.123 65.6849 105.173 65.9297Z" fill="#F2F2F2"/>
<path d="M106.642 71.6514L56.9152 84.4629C56.6303 84.5425 56.3259 84.5109 56.0634 84.3745C55.801 84.238 55.6001 84.0069 55.5013 83.7279C55.4554 83.5822 55.4396 83.4286 55.4549 83.2765C55.4702 83.1244 55.5163 82.9771 55.5904 82.8434C55.6645 82.7098 55.765 82.5926 55.8858 82.4991C56.0066 82.4057 56.1452 82.3378 56.2931 82.2997L106.605 69.3375C107.944 70.017 107.592 71.4067 106.642 71.6514Z" fill="#F2F2F2"/>
<path d="M108.114 77.3695L58.3878 90.181C58.103 90.2606 57.7985 90.2289 57.5361 90.0925C57.2736 89.956 57.0727 89.725 56.974 89.4459C56.928 89.3002 56.9122 89.1466 56.9275 88.9945C56.9429 88.8424 56.989 88.6951 57.0631 88.5614C57.1371 88.4278 57.2377 88.3107 57.3585 88.2172C57.4793 88.1237 57.6179 88.0558 57.7658 88.0177L108.077 75.0555C109.417 75.735 109.065 77.1247 108.114 77.3695Z" fill="#F2F2F2"/>
<path d="M109.583 83.0908L59.8566 95.9023C59.5717 95.9819 59.2673 95.9502 59.0048 95.8138C58.7424 95.6773 58.5415 95.4463 58.4427 95.1672C58.3968 95.0215 58.381 94.8679 58.3963 94.7158C58.4116 94.5637 58.4577 94.4164 58.5318 94.2827C58.6059 94.1491 58.7064 94.032 58.8272 93.9385C58.9481 93.845 59.0866 93.7771 59.2345 93.739L109.546 80.7769C110.886 81.4563 110.533 82.846 109.583 83.0908Z" fill="#F2F2F2"/>
<path d="M111.056 88.8093L61.3292 101.621C61.0444 101.7 60.7399 101.669 60.4775 101.532C60.215 101.396 60.0141 101.165 59.9154 100.886C59.8694 100.74 59.8536 100.586 59.8689 100.434C59.8843 100.282 59.9304 100.135 60.0045 100.001C60.0786 99.8676 60.1791 99.7505 60.2999 99.657C60.4207 99.5635 60.5593 99.4956 60.7072 99.4575L111.019 86.4954C112.359 87.1748 112.006 88.5645 111.056 88.8093Z" fill="#F2F2F2"/>
<path d="M58.5406 141.436C58.3598 141.483 58.1687 141.47 57.9961 141.398L57.9854 141.394L55.7243 140.434C55.6193 140.39 55.5242 140.325 55.4442 140.244C55.3643 140.163 55.3012 140.066 55.2585 139.961C55.2158 139.855 55.1943 139.742 55.1953 139.628C55.1964 139.514 55.2198 139.401 55.2644 139.296C55.309 139.191 55.3738 139.096 55.4552 139.016C55.5366 138.936 55.6328 138.873 55.7386 138.831C55.8443 138.788 55.9574 138.767 56.0713 138.768C56.1852 138.769 56.2978 138.793 56.4026 138.838L57.8678 139.461L59.7878 134.941C59.8323 134.836 59.897 134.741 59.9783 134.661C60.0595 134.581 60.1556 134.518 60.2611 134.476C60.3666 134.433 60.4795 134.412 60.5933 134.413C60.7071 134.414 60.8195 134.437 60.9243 134.482L60.913 134.512L60.925 134.482C61.1364 134.572 61.3033 134.743 61.3892 134.956C61.4751 135.169 61.473 135.408 61.3833 135.62L59.1244 140.935C59.0721 141.057 58.9922 141.166 58.891 141.253C58.7898 141.34 58.6701 141.402 58.541 141.435L58.5406 141.436Z" fill="white"/>
<path d="M197.632 198.744H87.3794C83.6406 198.74 80.0561 197.252 77.4124 194.606C74.7687 191.96 73.2816 188.372 73.2773 184.63V55.0359C73.2816 51.2938 74.7687 47.7063 77.4124 45.0603C80.0561 42.4142 83.6406 40.9259 87.3794 40.9216H189.951L211.734 58.2988V184.63C211.73 188.372 210.242 191.96 207.599 194.606C204.955 197.252 201.371 198.74 197.632 198.744Z" fill="#E6E6E6"/>
<path d="M87.3783 44.9849C84.7158 44.9879 82.1633 46.0478 80.2806 47.9321C78.3979 49.8163 77.3389 52.3711 77.3359 55.0359V184.63C77.3389 187.295 78.3979 189.85 80.2806 191.734C82.1633 193.618 84.7158 194.678 87.3783 194.681H197.631C200.293 194.678 202.846 193.618 204.728 191.734C206.611 189.85 207.67 187.295 207.673 184.63V60.2563L188.53 44.9849H87.3783Z" fill="white"/>
<path d="M176.189 82.6673H125.993C125.37 82.6673 124.773 82.4197 124.332 81.9789C123.892 81.5381 123.645 80.9403 123.645 80.3169C123.645 79.6936 123.892 79.0958 124.332 78.655C124.773 78.2142 125.37 77.9666 125.993 77.9666H176.189C176.812 77.9666 177.409 78.2142 177.85 78.655C178.29 79.0958 178.538 79.6936 178.538 80.3169C178.538 80.9403 178.29 81.5381 177.85 81.9789C177.409 82.4197 176.812 82.6673 176.189 82.6673Z" fill="#018780"/>
<path d="M185.873 90.6H125.99C125.367 90.5991 124.771 90.3511 124.331 89.9104C123.892 89.4697 123.645 88.8724 123.645 88.2496C123.645 87.6267 123.892 87.0294 124.331 86.5887C124.771 86.148 125.367 85.9 125.99 85.8992H185.873C186.182 85.8988 186.487 85.9592 186.773 86.0772C187.058 86.1951 187.317 86.3682 187.536 86.5865C187.754 86.8048 187.927 87.064 188.046 87.3494C188.164 87.6347 188.225 87.9406 188.225 88.2496C188.225 88.5585 188.164 88.8644 188.046 89.1498C187.927 89.4351 187.754 89.6944 187.536 89.9127C187.317 90.131 187.058 90.304 186.773 90.422C186.487 90.5399 186.182 90.6004 185.873 90.6Z" fill="#018780"/>
<path d="M176.187 113.515H125.993C125.37 113.515 124.773 113.763 124.332 114.203C123.892 114.644 123.645 115.242 123.645 115.865C123.645 116.489 123.892 117.086 124.332 117.527C124.773 117.968 125.37 118.215 125.993 118.215H176.187C176.81 118.215 177.408 117.968 177.848 117.527C178.288 117.086 178.536 116.489 178.536 115.865C178.536 115.242 178.288 114.644 177.848 114.203C177.408 113.763 176.81 113.515 176.187 113.515Z" fill="#CCCCCC"/>
<path d="M185.875 121.449H125.993C125.37 121.449 124.773 121.696 124.332 122.137C123.892 122.578 123.645 123.176 123.645 123.799C123.645 124.422 123.892 125.02 124.332 125.461C124.773 125.902 125.37 126.149 125.993 126.149H185.875C186.498 126.149 187.095 125.902 187.536 125.461C187.976 125.02 188.223 124.422 188.223 123.799C188.223 123.176 187.976 122.578 187.536 122.137C187.095 121.696 186.498 121.449 185.875 121.449Z" fill="#CCCCCC"/>
<path d="M176.189 153.767H125.993C125.37 153.767 124.773 153.519 124.332 153.078C123.892 152.638 123.645 152.04 123.645 151.416C123.645 150.793 123.892 150.195 124.332 149.754C124.773 149.314 125.37 149.066 125.993 149.066H176.189C176.812 149.066 177.409 149.314 177.85 149.754C178.29 150.195 178.538 150.793 178.538 151.416C178.538 152.04 178.29 152.638 177.85 153.078C177.409 153.519 176.812 153.767 176.189 153.767Z" fill="#CCCCCC"/>
<path d="M185.873 161.699H125.99C125.367 161.699 124.771 161.451 124.331 161.01C123.892 160.569 123.645 159.972 123.645 159.349C123.645 158.726 123.892 158.129 124.331 157.688C124.771 157.248 125.367 156.999 125.99 156.999H185.873C186.182 156.998 186.487 157.059 186.773 157.177C187.058 157.295 187.317 157.468 187.536 157.686C187.754 157.904 187.927 158.163 188.046 158.449C188.164 158.734 188.225 159.04 188.225 159.349C188.225 159.658 188.164 159.964 188.046 160.249C187.927 160.535 187.754 160.794 187.536 161.012C187.317 161.23 187.058 161.404 186.773 161.521C186.487 161.639 186.182 161.7 185.873 161.699Z" fill="#CCCCCC"/>
<path d="M105.089 92.5907C109.673 92.5907 113.389 88.8713 113.389 84.2833C113.389 79.6953 109.673 75.976 105.089 75.976C100.505 75.976 96.7891 79.6953 96.7891 84.2833C96.7891 88.8713 100.505 92.5907 105.089 92.5907Z" fill="#018780"/>
<path d="M104.264 87.4523C104.077 87.4526 103.896 87.3921 103.746 87.28L103.737 87.2731L101.786 85.7796C101.696 85.7104 101.62 85.624 101.562 85.5253C101.505 85.4266 101.468 85.3176 101.453 85.2045C101.438 85.0914 101.445 84.9764 101.475 84.8662C101.504 84.7559 101.555 84.6526 101.624 84.562C101.694 84.4715 101.78 84.3955 101.879 84.3385C101.978 84.2815 102.087 84.2445 102.2 84.2297C102.313 84.2148 102.427 84.2225 102.538 84.2521C102.648 84.2818 102.751 84.3329 102.841 84.4025L104.105 85.3722L107.09 81.4737C107.159 81.3834 107.246 81.3075 107.344 81.2505C107.443 81.1935 107.552 81.1565 107.664 81.1416C107.777 81.1267 107.892 81.1342 108.002 81.1636C108.112 81.193 108.215 81.2439 108.305 81.3131L108.287 81.3391L108.306 81.3133C108.488 81.4535 108.607 81.6602 108.637 81.8882C108.667 82.1162 108.606 82.3469 108.466 82.5295L104.954 87.1129C104.873 87.2185 104.769 87.304 104.649 87.3627C104.529 87.4213 104.398 87.4517 104.265 87.4513L104.264 87.4523Z" fill="white"/>
<path d="M114.24 119.832C114.24 120.923 114.026 122.004 113.609 123.012C113.192 124.02 112.581 124.936 111.811 125.708C111.04 126.48 110.125 127.092 109.118 127.51C108.111 127.927 107.031 128.142 105.941 128.143C105.87 128.144 105.799 128.141 105.728 128.134C104.096 128.092 102.512 127.569 101.175 126.631C99.8387 125.693 98.8081 124.381 98.2125 122.86C97.617 121.339 97.483 119.675 97.8273 118.078C98.1716 116.481 98.9789 115.021 100.148 113.88C101.317 112.74 102.797 111.97 104.401 111.667C106.005 111.364 107.663 111.541 109.167 112.177C110.671 112.812 111.955 113.877 112.857 115.239C113.759 116.6 114.24 118.198 114.24 119.832Z" fill="#CCCCCC"/>
<path d="M105.089 163.69C109.673 163.69 113.389 159.971 113.389 155.383C113.389 150.795 109.673 147.075 105.089 147.075C100.505 147.075 96.7891 150.795 96.7891 155.383C96.7891 159.971 100.505 163.69 105.089 163.69Z" fill="#CCCCCC"/>
<path d="M211.311 58.858H194.248C193.002 58.858 191.807 58.3628 190.926 57.4812C190.046 56.5996 189.551 55.4039 189.551 54.1572V41.5438C189.551 41.4886 189.566 41.4345 189.596 41.3877C189.625 41.3409 189.667 41.3033 189.717 41.2793C189.766 41.2553 189.822 41.2457 189.876 41.2518C189.931 41.2578 189.983 41.2792 190.027 41.3135L211.493 58.3339C211.541 58.3718 211.575 58.4236 211.592 58.4822C211.609 58.5408 211.608 58.6032 211.588 58.6608C211.568 58.7184 211.53 58.7684 211.481 58.8037C211.431 58.839 211.372 58.858 211.311 58.858Z" fill="#CCCCCC"/>
<path d="M114.241 119.832C114.241 120.923 114.027 122.004 113.61 123.012C113.193 124.02 112.582 124.936 111.811 125.708C111.04 126.48 110.125 127.092 109.118 127.509C108.111 127.927 107.032 128.142 105.942 128.142C105.87 128.144 105.799 128.141 105.728 128.134C104.656 125.457 104.242 122.561 104.523 119.691C104.803 116.821 105.769 114.06 107.339 111.642C109.27 111.973 111.021 112.977 112.284 114.475C113.547 115.974 114.24 117.872 114.241 119.832Z" fill="#018780"/>
<path d="M123.645 115.867C123.646 115.244 123.894 114.646 124.334 114.205C124.775 113.764 125.372 113.516 125.995 113.515H138.503C139.234 115.002 139.753 116.584 140.046 118.215H125.995C125.372 118.215 124.775 117.968 124.335 117.528C123.894 117.088 123.646 116.49 123.645 115.867Z" fill="#018780"/>
<path d="M140.334 121.449C140.335 123.036 140.125 124.617 139.71 126.149H125.993C125.37 126.149 124.773 125.902 124.332 125.461C123.892 125.02 123.645 124.422 123.645 123.799C123.645 123.176 123.892 122.578 124.332 122.137C124.773 121.696 125.37 121.449 125.993 121.449H140.334Z" fill="#018780"/>
<path d="M171.282 150.438C170.928 151.019 170.357 151.435 169.697 151.595C169.036 151.756 168.338 151.647 167.758 151.292L137.842 133.029C137.555 132.854 137.305 132.623 137.106 132.351C136.908 132.079 136.765 131.77 136.685 131.442C136.606 131.115 136.592 130.775 136.644 130.442C136.696 130.109 136.813 129.79 136.988 129.502C137.164 129.214 137.394 128.964 137.666 128.765C137.938 128.567 138.246 128.423 138.574 128.344C138.901 128.265 139.24 128.251 139.573 128.303C139.906 128.355 140.225 128.472 140.512 128.647L170.428 146.91C171.009 147.265 171.425 147.836 171.585 148.497C171.745 149.159 171.636 149.857 171.282 150.438Z" fill="#3F3D56"/>
<path d="M141.367 132.174C139.255 135.641 136.163 138.403 132.482 140.11C128.801 141.818 124.697 142.394 120.689 141.768C116.681 141.141 112.948 139.338 109.963 136.588C106.979 133.838 104.876 130.264 103.92 126.318C102.965 122.371 103.201 118.23 104.597 114.418C105.993 110.606 108.488 107.293 111.765 104.9C115.042 102.506 118.955 101.139 123.008 100.972C127.062 100.804 131.074 101.843 134.537 103.957C139.177 106.797 142.501 111.362 143.782 116.652C145.062 121.942 144.194 127.525 141.367 132.174ZM110.722 113.466C109.138 116.066 108.359 119.077 108.485 122.12C108.611 125.163 109.635 128.1 111.429 130.56C113.222 133.02 115.704 134.892 118.561 135.941C121.418 136.989 124.521 137.165 127.478 136.448C130.435 135.731 133.113 134.153 135.174 131.912C137.235 129.672 138.586 126.87 139.055 123.861C139.525 120.852 139.093 117.772 137.813 115.009C136.534 112.246 134.464 109.925 131.867 108.339C128.382 106.217 124.199 105.565 120.235 106.526C116.271 107.488 112.85 109.983 110.722 113.466Z" fill="#3F3D56"/>
<path d="M207.09 124.776C212.886 124.776 217.585 120.072 217.585 114.271C217.585 108.469 212.886 103.766 207.09 103.766C201.293 103.766 196.594 108.469 196.594 114.271C196.594 120.072 201.293 124.776 207.09 124.776Z" fill="#A0616A"/>
<path d="M206.409 173.162C206.206 172.531 206.139 171.864 206.212 171.205C206.285 170.546 206.497 169.91 206.832 169.338C207.168 168.767 207.621 168.273 208.161 167.889C208.701 167.505 209.315 167.239 209.965 167.109C210.171 167.069 210.379 167.043 210.589 167.032L221.644 149.273L211.545 139.664C211.16 139.296 210.85 138.856 210.635 138.369C210.42 137.881 210.304 137.356 210.293 136.823C210.282 136.291 210.376 135.761 210.571 135.265C210.765 134.769 211.056 134.317 211.427 133.934C211.797 133.551 212.239 133.245 212.728 133.035C213.217 132.824 213.743 132.712 214.276 132.706C214.808 132.7 215.336 132.799 215.83 132.998C216.324 133.198 216.773 133.493 217.152 133.867L231.096 147.628L231.124 147.662C231.555 148.319 231.764 149.098 231.718 149.882C231.672 150.667 231.375 151.416 230.87 152.018L215.379 170.355C215.425 170.502 215.464 170.651 215.495 170.802C215.624 171.453 215.615 172.123 215.468 172.769C215.32 173.416 215.038 174.024 214.64 174.553C214.241 175.083 213.736 175.522 213.156 175.843C212.576 176.163 211.935 176.357 211.275 176.412C211.141 176.424 211.008 176.43 210.876 176.43C209.883 176.426 208.916 176.107 208.113 175.521C207.311 174.934 206.714 174.108 206.409 173.162Z" fill="#A0616A"/>
<path d="M189.802 260.472L184.563 260.472L182.07 240.246L189.803 240.247L189.802 260.472Z" fill="#A0616A"/>
<path d="M191.139 265.555L174.246 265.554V265.34C174.246 264.476 174.416 263.62 174.747 262.822C175.077 262.024 175.561 261.298 176.172 260.687C176.782 260.076 177.507 259.591 178.305 259.261C179.103 258.93 179.958 258.76 180.821 258.76L191.139 258.76L191.139 265.555Z" fill="#2F2E41"/>
<path d="M241.872 253.222L237.371 255.905L224.891 239.803L231.534 235.844L241.872 253.222Z" fill="#A0616A"/>
<path d="M245.62 256.905L231.105 265.555L230.996 265.371C230.554 264.629 230.263 263.806 230.139 262.951C230.014 262.096 230.06 261.224 230.272 260.387C230.484 259.549 230.859 258.761 231.376 258.069C231.892 257.376 232.54 256.792 233.282 256.35L242.147 251.067L245.62 256.905Z" fill="#2F2E41"/>
<path d="M181.409 251.565C177.899 210.203 175.811 171.779 188.641 156.104L188.74 155.983L210.331 164.627L210.367 164.704C210.44 164.863 217.621 180.672 215.946 191.305L221.271 215.824L238.636 244.926C238.776 245.16 238.865 245.421 238.896 245.693C238.927 245.964 238.9 246.238 238.817 246.498C238.735 246.758 238.597 246.998 238.415 247.2C238.233 247.403 238.009 247.565 237.76 247.675L230.214 250.998C229.788 251.184 229.309 251.209 228.866 251.071C228.423 250.932 228.044 250.638 227.8 250.243L208.91 219.414L198.24 195.768C198.182 195.64 198.084 195.534 197.96 195.467C197.836 195.4 197.693 195.376 197.554 195.399C197.415 195.421 197.288 195.488 197.191 195.591C197.094 195.693 197.033 195.824 197.019 195.964L191.104 251.607C191.055 252.08 190.832 252.518 190.479 252.836C190.125 253.154 189.667 253.329 189.192 253.328H183.325C182.844 253.326 182.381 253.143 182.027 252.817C181.672 252.491 181.452 252.045 181.409 251.565Z" fill="#2F2E41"/>
<path d="M188.713 156.432L188.61 156.383L188.594 156.27C187.787 150.62 188.742 144.342 191.431 137.611C192.757 134.317 195.221 131.609 198.374 129.98C201.527 128.352 205.16 127.911 208.611 128.739C210.599 129.229 212.463 130.127 214.086 131.376C215.708 132.625 217.054 134.198 218.038 135.995C219.009 137.773 219.601 139.734 219.775 141.753C219.95 143.772 219.704 145.805 219.052 147.724C215.662 157.647 211.264 166.931 211.22 167.024L211.127 167.218L188.713 156.432Z" fill="#018780"/>
<path d="M165.157 142.359C165.677 141.948 166.277 141.652 166.919 141.49C167.562 141.328 168.231 141.303 168.883 141.418C169.536 141.532 170.157 141.784 170.705 142.155C171.254 142.527 171.718 143.01 172.067 143.574C172.176 143.753 172.273 143.939 172.357 144.132L192.849 148.277L198.306 135.444C198.514 134.954 198.818 134.51 199.198 134.138C199.579 133.765 200.03 133.472 200.525 133.275C201.02 133.078 201.548 132.981 202.081 132.99C202.613 132.999 203.138 133.113 203.626 133.326C204.114 133.539 204.555 133.847 204.924 134.232C205.292 134.616 205.581 135.07 205.773 135.567C205.965 136.064 206.057 136.594 206.044 137.127C206.03 137.66 205.911 138.184 205.694 138.671L197.698 156.562L197.676 156.6C197.213 157.234 196.557 157.702 195.807 157.934C195.056 158.166 194.251 158.15 193.511 157.887L170.925 149.786C170.804 149.881 170.677 149.969 170.547 150.051C169.984 150.4 169.353 150.626 168.697 150.715C168.04 150.803 167.372 150.751 166.737 150.563C166.102 150.375 165.514 150.055 165.011 149.623C164.508 149.192 164.102 148.659 163.819 148.059C163.761 147.938 163.709 147.816 163.663 147.692C163.319 146.759 163.278 145.741 163.546 144.783C163.814 143.826 164.378 142.977 165.157 142.359Z" fill="#A0616A"/>
<path d="M245.006 125.52C243.995 123.728 242.522 122.086 240.575 121.423C238.06 120.567 235.337 121.478 232.751 122.087C230.759 122.555 228.678 122.842 226.67 122.447C224.663 122.051 222.726 120.882 221.812 119.049C220.468 116.353 221.6 113.138 221.519 110.126C221.477 108.486 221.063 106.878 220.31 105.421C219.556 103.965 218.482 102.699 217.169 101.718C215.855 100.738 214.336 100.068 212.727 99.7606C211.117 99.453 209.459 99.515 207.877 99.9421C205.401 99.227 203.159 99.1609 201.628 101.066C199.701 101.066 197.853 101.832 196.491 103.195C195.129 104.559 194.363 106.408 194.363 108.337H201.31C200.98 110.11 201.357 111.941 202.358 113.44C203.585 115.243 205.717 116.547 206.128 118.689C206.525 120.765 205.116 122.735 203.637 124.244C202.158 125.753 200.442 127.248 199.98 129.311C199.697 130.876 200.019 132.491 200.879 133.829C201.738 135.151 202.804 136.326 204.036 137.309C209.585 142.067 216.18 145.444 223.282 147.163C228.283 148.368 233.754 148.681 238.397 146.464C240.254 145.577 241.91 144.317 243.26 142.763C244.611 141.209 245.627 139.393 246.247 137.429C246.867 135.465 247.076 133.394 246.863 131.346C246.649 129.297 246.017 127.314 245.006 125.52Z" fill="#2F2E41"/>
<path d="M246.574 266H165.38C165.267 266 165.158 265.955 165.078 265.875C164.998 265.794 164.953 265.686 164.953 265.572C164.953 265.459 164.998 265.35 165.078 265.27C165.158 265.19 165.267 265.145 165.38 265.145H246.574C246.687 265.145 246.796 265.19 246.876 265.27C246.956 265.35 247.001 265.459 247.001 265.572C247.001 265.686 246.956 265.794 246.876 265.875C246.796 265.955 246.687 266 246.574 266Z" fill="#CCCCCC"/>
</g>
<defs>
<clipPath id="clip0_1156_27532">
<rect width="247" height="266" fill="white"/>
</clipPath>
</defs>
</svg>
