<svg width="337" height="379" viewBox="0 0 337 379" fill="none" xmlns="http://www.w3.org/2000/svg">
<g clip-path="url(#clip0_614_5640)">
<path d="M191.046 292.026C271.654 292.026 336.999 226.654 336.999 146.013C336.999 65.3722 271.654 0 191.046 0C110.439 0 45.0938 65.3722 45.0938 146.013C45.0938 226.654 110.439 292.026 191.046 292.026Z" fill="#F2F2F2"/>
<path d="M286.424 65.2968H19.0591C18.4858 65.2845 18.0309 64.8096 18.0432 64.236C18.0551 63.6798 18.5031 63.2316 19.0591 63.2197H286.424C286.997 63.232 287.452 63.7069 287.44 64.2805C287.428 64.8367 286.98 65.2849 286.424 65.2968Z" fill="#CACACA"/>
<path d="M195.31 100.296H121.4C115.848 100.296 111.348 104.799 111.348 110.352V110.352C111.348 115.906 115.848 120.408 121.4 120.408H195.31C200.861 120.408 205.361 115.906 205.361 110.352C205.361 104.799 200.861 100.296 195.31 100.296Z" fill="white"/>
<path d="M73.6495 140.52H243.052C248.604 140.52 253.104 145.023 253.104 150.576C253.104 156.13 248.604 160.632 243.052 160.632H73.6495C68.098 160.632 63.5977 156.13 63.5977 150.576C63.5977 145.023 68.098 140.52 73.6495 140.52Z" fill="white"/>
<path d="M73.6495 180.745H243.052C248.604 180.745 253.104 185.247 253.104 190.801C253.104 196.354 248.604 200.857 243.052 200.857H73.6495C68.098 200.857 63.5977 196.354 63.5977 190.801C63.5977 185.247 68.098 180.745 73.6495 180.745Z" fill="white"/>
<path d="M52.6594 378.116L52.2607 378.077C38.7339 376.68 26.5057 369.402 18.8247 358.176C16.7208 355.048 15.019 351.667 13.7595 348.114L13.6384 347.775L13.9968 347.746C18.276 347.401 22.672 346.675 24.6248 346.329L12.0323 342.061L11.9544 341.687C11.2079 338.178 12.6705 334.568 15.6484 332.569C18.6343 330.474 22.5939 330.407 25.649 332.4C27.02 333.276 28.4541 334.143 29.8408 334.983C34.6062 337.866 39.5338 340.848 43.2283 344.928C48.8306 351.239 51.2862 359.742 49.9111 368.069L52.6594 378.116Z" fill="#F2F2F2"/>
<path d="M98.4314 371.851L104.637 371.85L107.59 347.9L98.4297 347.901L98.4314 371.851Z" fill="#F2BAC7"/>
<path d="M98.2113 378.328L117.297 378.327V378.086C117.296 373.981 113.971 370.654 109.868 370.654L106.381 368.008L99.877 370.654L98.2109 370.654L98.2113 378.328Z" fill="#2F2E41"/>
<path d="M48.6953 354.653L53.6594 358.379L70.3882 340.995L63.0607 335.496L48.6953 354.653Z" fill="#F2BAC7"/>
<path d="M44.6328 359.703L59.8998 371.161L60.0446 370.968C62.5065 367.685 61.842 363.027 58.5605 360.564L57.3588 356.354L50.5683 354.565L49.2356 353.565L44.6328 359.703Z" fill="#2F2E41"/>
<path d="M69.3245 259.462C69.3245 259.462 69.6671 268.812 70.0992 276.309C70.1701 277.539 67.2904 278.875 67.365 280.213C67.4144 281.1 67.9557 281.963 68.006 282.889C68.0591 283.865 67.3118 284.73 67.365 285.74C67.417 286.727 68.2695 287.858 68.321 288.868C68.8744 299.738 70.8807 312.751 68.8717 316.389C67.8816 318.182 55.2617 343.019 55.2617 343.019C55.2617 343.019 62.2931 353.57 64.3021 350.053C66.9555 345.408 87.4052 323.675 87.4052 319.524C87.4052 315.379 92.1362 284.313 92.1362 284.313L95.4351 302.698L96.9477 306.34L96.4725 308.479L97.45 311.365L97.5028 314.221L98.4545 319.524C98.4545 319.524 95.5917 360.846 97.2039 361.996C98.8211 363.152 106.651 365.227 107.575 363.152C108.494 361.077 114.477 320.027 114.477 320.027C114.477 320.027 115.441 301.215 116.486 283.73C116.546 282.715 117.259 281.489 117.314 280.489C117.38 279.328 116.928 277.821 116.988 276.696C117.053 275.404 117.626 274.495 117.681 273.259C118.108 263.707 115.711 252.076 114.948 250.93C112.643 247.474 110.569 244.71 110.569 244.71C110.569 244.71 79.5188 234.504 71.2218 244.875L69.3245 259.462Z" fill="#2F2E41"/>
<path d="M100.292 163.318L87.9829 160.855L82.2388 168.654C71.5208 179.197 71.3593 188.503 73.2727 203.418V224.351L71.8878 238.385C71.8878 238.385 66.9855 248.643 72.0418 251.032C77.0981 253.42 110.31 253.216 113.481 252.263C116.652 251.31 113.904 250.139 113.071 245.696C111.507 237.349 112.553 241.375 112.661 238.718C114.204 200.597 110.609 184.947 110.244 180.833L103.984 169.475L100.292 163.318Z" fill="#54C1C1"/>
<path d="M165.168 194.054C163.885 196.486 160.874 197.417 158.444 196.133C158.185 195.996 157.938 195.837 157.707 195.657L131.125 212.542L131.202 203.349L157.024 188.357C158.863 186.294 162.026 186.114 164.088 187.954C165.814 189.493 166.26 192.015 165.168 194.054Z" fill="#F2BAC7"/>
<path d="M90.5736 173.965L87.5473 173.644C84.751 173.354 82.0075 174.552 80.319 176.8C79.6722 177.653 79.2077 178.63 78.9543 179.67L78.9525 179.678C78.1934 182.808 79.384 186.089 81.9738 188.003L92.4263 195.712C99.7615 205.628 113.547 212.206 129.718 217.551L154.853 201.934L145.963 191.162L128.722 200.406L103.095 180.559L103.081 180.547L93.327 174.261L90.5736 173.965Z" fill="#54C1C1"/>
<path d="M96.135 157.271C104.062 157.271 110.489 150.842 110.489 142.912C110.489 134.981 104.062 128.552 96.135 128.552C88.2077 128.552 81.7812 134.981 81.7812 142.912C81.7812 150.842 88.2077 157.271 96.135 157.271Z" fill="#F2BAC7"/>
<path d="M96.4655 157.275C96.3498 157.278 96.2338 157.281 96.1179 157.284C96.0683 157.413 96.0149 157.54 95.9531 157.666L96.4655 157.275Z" fill="#2F2E41"/>
<path d="M100.402 143.31C100.425 143.452 100.459 143.591 100.505 143.727C100.486 143.584 100.452 143.445 100.402 143.31Z" fill="#2F2E41"/>
<path d="M110.669 129.166C110.078 131.002 109.551 128.674 107.607 129.092C105.269 129.596 102.548 129.423 100.634 127.989C97.7809 125.895 94.0839 125.332 90.737 126.48C87.4608 127.64 81.9721 128.457 81.1184 131.828C80.8217 132.999 80.7039 134.27 79.9846 135.241C79.3558 136.09 78.3632 136.574 77.5332 137.227C74.7307 139.433 76.8727 145.7 78.1991 149.012C79.5255 152.324 82.5682 154.736 85.9135 155.972C89.1502 157.167 92.6631 157.378 96.116 157.284C96.7165 155.726 96.4571 153.926 95.9615 152.311C95.4251 150.562 94.6308 148.874 94.4067 147.059C94.1826 145.244 94.6747 143.181 96.1963 142.167C97.5948 141.235 99.8707 141.803 100.403 143.31C100.092 141.426 102.001 139.602 103.968 139.281C106.081 138.937 108.193 139.7 110.3 140.08C112.406 140.459 111.659 131.587 110.669 129.166Z" fill="#2F2E41"/>
<path d="M190.948 166.666C192.286 150.491 180.264 136.294 164.097 134.955C147.929 133.617 133.737 145.644 132.399 161.818C131.061 177.993 143.083 192.19 159.251 193.528C175.419 194.867 189.61 182.84 190.948 166.666Z" fill="#F9B42B"/>
<path d="M169.388 151.997L161.672 159.717L153.956 151.997C152.707 150.748 150.682 150.748 149.433 151.997C148.184 153.247 148.184 155.273 149.433 156.523L157.149 164.242L149.433 171.961C148.185 173.212 148.187 175.238 149.437 176.486C150.686 177.733 152.708 177.733 153.956 176.486L161.672 168.767L169.388 176.486C170.639 177.735 172.664 177.733 173.912 176.482C175.158 175.233 175.158 173.21 173.912 171.961L166.195 164.242L173.912 156.523C175.161 155.273 175.161 153.247 173.912 151.997C172.663 150.748 170.637 150.748 169.388 151.997Z" fill="white"/>
<path d="M150.1 139.542C150.965 142.152 149.553 144.969 146.944 145.836C146.666 145.928 146.381 145.996 146.091 146.038L139.867 176.917L133.289 170.497L140.353 141.477C140.138 138.721 142.197 136.313 144.952 136.098C147.257 135.918 149.385 137.342 150.1 139.542Z" fill="#F2BAC7"/>
<path d="M83.9673 179.484L81.6408 181.446C79.4956 183.264 78.4604 186.074 78.9134 188.85C79.0807 189.907 79.4637 190.919 80.0384 191.821L80.0431 191.829C81.7755 194.544 84.966 195.955 88.1393 195.411L100.936 193.202C113.167 194.771 127.456 189.374 142.506 181.4L148.643 152.443L134.718 151.404L129.45 170.249L97.393 175.01L97.3742 175.012L86.087 177.701L83.9673 179.484Z" fill="#54C1C1"/>
<path d="M156.834 378.823L0.681975 379C0.304114 378.999 -0.00122027 378.691 3.66678e-06 378.313C0.00121611 377.937 0.305832 377.632 0.681975 377.631L156.834 377.454C157.212 377.456 157.517 377.763 157.516 378.141C157.515 378.517 157.21 378.822 156.834 378.823Z" fill="#CACACA"/>
<path d="M32.6249 52.1412C35.3086 52.1412 37.4842 49.9162 37.4842 47.1716C37.4842 44.4269 35.3086 42.2019 32.6249 42.2019C29.9412 42.2019 27.7656 44.4269 27.7656 47.1716C27.7656 49.9162 29.9412 52.1412 32.6249 52.1412Z" fill="#3F3D56"/>
<path d="M49.4101 52.1412C52.0938 52.1412 54.2694 49.9162 54.2694 47.1716C54.2694 44.4269 52.0938 42.2019 49.4101 42.2019C46.7264 42.2019 44.5508 44.4269 44.5508 47.1716C44.5508 49.9162 46.7264 52.1412 49.4101 52.1412Z" fill="#3F3D56"/>
<path d="M66.1991 52.1412C68.8829 52.1412 71.0584 49.9162 71.0584 47.1716C71.0584 44.4269 68.8829 42.2019 66.1991 42.2019C63.5154 42.2019 61.3398 44.4269 61.3398 47.1716C61.3398 49.9162 63.5154 52.1412 66.1991 52.1412Z" fill="#3F3D56"/>
<path d="M85.3379 51.0994C85.1886 51.0994 85.0396 51.0416 84.9271 50.9265L81.6483 47.5734C81.4297 47.35 81.4297 46.9929 81.6483 46.7695L84.9271 43.4166C85.1496 43.1898 85.5138 43.1862 85.7396 43.4077C85.9666 43.6297 85.9705 43.9937 85.7486 44.2205L82.8629 47.1714L85.7486 50.1226C85.9705 50.3494 85.9666 50.7135 85.7396 50.9355C85.628 51.045 85.4829 51.0994 85.3379 51.0994Z" fill="#3F3D56"/>
<path d="M90.8481 51.0994C90.703 51.0994 90.558 51.0449 90.4463 50.9354C90.2193 50.7134 90.2154 50.3496 90.4373 50.1226L93.3228 47.1714L90.4373 44.2205C90.2154 43.9937 90.2193 43.6296 90.4463 43.4076C90.6727 43.1853 91.0369 43.1895 91.2588 43.4166L94.5374 46.7694C94.7559 46.9929 94.7559 47.3499 94.5374 47.5733L91.2588 50.9264C91.1463 51.0415 90.9974 51.0994 90.8481 51.0994Z" fill="#3F3D56"/>
<path d="M262.379 42.7772H256.282C255.587 42.7772 255.023 43.3406 255.023 44.0361V50.1411C255.023 50.8367 255.587 51.4 256.282 51.4H262.379C263.074 51.4 263.643 50.8367 263.643 50.1411V44.0361C263.643 43.3406 263.074 42.7772 262.379 42.7772Z" fill="#3F3D56"/>
<path d="M247.437 42.7772H241.34C240.645 42.7772 240.082 43.3406 240.082 44.0361V50.1411C240.082 50.8367 240.645 51.4 241.34 51.4H247.437C248.132 51.4 248.701 50.8367 248.701 50.1411V44.0361C248.701 43.3406 248.132 42.7772 247.437 42.7772Z" fill="#3F3D56"/>
<path d="M276.457 43.0647H270.36C269.665 43.0647 269.102 43.628 269.102 44.3236V50.4286C269.102 51.1242 269.665 51.6875 270.36 51.6875H276.457C277.152 51.6875 277.721 51.1242 277.721 50.4286V44.3236C277.721 43.628 277.152 43.0647 276.457 43.0647Z" fill="#3F3D56"/>
<path d="M184.56 45.3871H135.827C134.977 45.3871 134.293 46.0769 134.293 46.922C134.293 47.767 134.977 48.4568 135.827 48.4568H184.56C185.405 48.4568 186.095 47.767 186.095 46.922C186.095 46.077 185.405 45.3871 184.56 45.3871Z" fill="#3F3D56"/>
</g>
<defs>
<clipPath id="clip0_614_5640">
<rect width="337" height="379" fill="white"/>
</clipPath>
</defs>
</svg>
