<svg width="304" height="277" viewBox="0 0 304 277" fill="none" xmlns="http://www.w3.org/2000/svg">
<g clip-path="url(#clip0_659_33213)">
<path d="M282.136 213.821C295.968 204.563 305.9 188.113 303.613 171.64C291.221 184.826 274.558 193.208 256.574 195.304C249.635 196.087 241.836 196.237 236.965 201.235C233.934 204.345 232.687 208.849 232.676 213.189C232.664 217.529 233.763 221.786 234.854 225.987L234.613 227.044C251.242 226.217 268.304 223.078 282.136 213.821Z" fill="#F0F0F0"/>
<path d="M303.263 171.641C298.208 184.448 289.242 195.338 277.639 202.765C275.169 204.408 272.456 205.652 269.598 206.451C266.79 207.139 263.848 207.064 261.078 206.233C258.48 205.51 255.906 204.47 253.177 204.39C251.78 204.37 250.394 204.645 249.11 205.198C247.827 205.75 246.675 206.567 245.73 207.595C243.308 210.097 241.93 213.318 240.693 216.515C239.319 220.064 237.948 223.772 235.091 226.425C234.745 226.746 235.264 227.264 235.61 226.943C240.581 222.328 241.041 215.02 244.926 209.691C246.739 207.204 249.313 205.248 252.49 205.126C255.267 205.019 257.922 206.089 260.547 206.844C263.237 207.695 266.094 207.874 268.87 207.367C271.759 206.716 274.516 205.579 277.022 204.003C282.723 200.547 287.844 196.217 292.197 191.172C297.198 185.442 301.181 178.899 303.973 171.827C304.145 171.389 303.434 171.206 303.263 171.641Z" fill="white"/>
<path d="M281.517 200.593C283.029 202.368 285.124 203.549 287.427 203.924C289.73 204.3 292.091 203.845 294.09 202.642C294.493 202.397 294.131 201.759 293.727 202.004C291.868 203.128 289.668 203.551 287.525 203.197C285.381 202.844 283.434 201.736 282.036 200.074C281.732 199.714 281.215 200.234 281.517 200.593Z" fill="white"/>
<path d="M262.348 206.773C262.69 202.021 264.812 197.572 268.292 194.313C268.637 193.99 268.117 193.472 267.773 193.795C264.158 197.193 261.959 201.827 261.614 206.773C261.582 207.245 262.316 207.242 262.348 206.773Z" fill="white"/>
<path d="M296.272 185.147C295.544 184.581 294.968 183.844 294.595 183.002C294.223 182.159 294.065 181.237 294.138 180.319C294.176 179.848 293.442 179.851 293.404 180.319C293.329 181.334 293.503 182.352 293.913 183.284C294.323 184.216 294.955 185.033 295.753 185.665C295.824 185.731 295.917 185.768 296.013 185.768C296.109 185.768 296.202 185.731 296.272 185.665C296.341 185.596 296.379 185.503 296.379 185.406C296.379 185.309 296.341 185.216 296.272 185.147Z" fill="white"/>
<path d="M255.648 142.055C255.616 142.348 255.583 142.642 255.546 142.938C255.09 146.879 254.314 150.776 253.226 154.592C253.147 154.888 253.062 155.187 252.974 155.481C250.255 164.645 245.856 173.226 240.001 180.786C237.668 183.793 235.11 186.617 232.348 189.236C228.534 192.852 224.111 196.47 221.784 201.001C221.536 201.47 221.317 201.955 221.129 202.452L233.341 226.667C233.397 226.709 233.447 226.753 233.502 226.794L233.946 227.783C234.097 227.658 234.252 227.525 234.404 227.4C234.493 227.328 234.578 227.25 234.667 227.178C234.725 227.128 234.783 227.078 234.838 227.036C234.857 227.02 234.877 227.003 234.89 226.989C234.946 226.948 234.993 226.903 235.042 226.864C235.91 226.123 236.774 225.374 237.634 224.618C237.639 224.616 237.639 224.616 237.642 224.607C244.181 218.83 250.294 212.458 255.245 205.361C255.393 205.147 255.548 204.931 255.691 204.706C257.905 201.495 259.852 198.108 261.514 194.58C262.417 192.645 263.222 190.666 263.925 188.649C265.731 183.436 266.706 177.972 266.813 172.457C267.023 161.461 263.711 150.521 256.226 142.651C256.034 142.449 255.845 142.253 255.648 142.055Z" fill="#F0F0F0"/>
<path d="M255.367 142.264C259.05 155.529 258.456 169.616 253.668 182.524C252.686 185.321 251.27 187.946 249.47 190.302C247.642 192.541 245.248 194.25 242.536 195.252C240.025 196.237 237.343 196.955 235.116 198.532C233.988 199.356 233.048 200.409 232.356 201.622C231.664 202.835 231.237 204.181 231.102 205.57C230.676 209.024 231.518 212.424 232.456 215.721C233.499 219.381 234.64 223.166 233.957 227.002C233.874 227.467 234.601 227.568 234.684 227.104C235.871 220.43 231.834 214.318 231.723 207.726C231.672 204.65 232.548 201.54 235.011 199.533C237.164 197.777 239.929 197.035 242.48 196.06C245.14 195.121 247.53 193.546 249.441 191.472C251.355 189.215 252.87 186.649 253.922 183.883C256.39 177.696 257.869 171.159 258.304 164.513C258.843 156.93 258.079 149.311 256.046 141.986C255.92 141.532 255.242 141.814 255.367 142.264Z" fill="white"/>
<path d="M255.454 178.458C257.731 178.966 260.115 178.65 262.18 177.565C264.245 176.479 265.857 174.696 266.727 172.534C266.902 172.096 266.228 171.804 266.053 172.243C265.247 174.258 263.745 175.919 261.82 176.925C259.895 177.932 257.673 178.218 255.555 177.732C255.095 177.627 254.996 178.354 255.454 178.458Z" fill="white"/>
<path d="M243.877 194.92C241.285 190.921 240.297 186.092 241.111 181.397C241.192 180.932 240.466 180.831 240.385 181.296C239.547 186.183 240.584 191.205 243.291 195.362C243.549 195.758 244.133 195.314 243.877 194.92Z" fill="white"/>
<path d="M257.926 157.252C257.004 157.239 256.099 156.997 255.294 156.548C254.489 156.099 253.807 155.458 253.311 154.681C253.058 154.282 252.474 154.726 252.726 155.123C253.277 155.978 254.031 156.686 254.919 157.183C255.808 157.681 256.806 157.954 257.824 157.978C257.92 157.988 258.016 157.962 258.093 157.904C258.17 157.846 258.222 157.761 258.238 157.666C258.251 157.57 258.226 157.472 258.167 157.395C258.109 157.317 258.022 157.266 257.926 157.252Z" fill="white"/>
<path d="M0.179914 244.929C1.2009 234.23 7.51366 223.537 17.5929 219.776C13.8939 230.864 14.2406 242.901 18.5717 253.758C20.2573 257.939 22.5679 262.414 21.219 266.716C20.3798 269.392 18.1986 271.484 15.7319 272.823C13.265 274.163 10.5042 274.847 7.77777 275.518L7.25069 275.979C2.61333 266.281 -0.841074 255.628 0.179914 244.929Z" fill="#F0F0F0"/>
<path d="M17.6992 219.975C11.9622 226.779 8.51731 235.215 7.85398 244.086C7.67724 245.994 7.80256 247.917 8.22535 249.785C8.69608 251.591 9.64257 253.239 10.9665 254.557C12.1761 255.81 13.5588 256.952 14.4424 258.477C14.8831 259.265 15.1522 260.136 15.2319 261.035C15.3117 261.934 15.2005 262.839 14.9054 263.691C14.2256 265.835 12.8152 267.607 11.3756 269.291C9.77729 271.162 8.08745 273.08 7.45523 275.517C7.37862 275.812 6.92434 275.676 7.00083 275.381C8.1008 271.141 12.1193 268.635 13.9596 264.791C14.8183 262.998 15.1411 260.935 14.2348 259.094C13.4424 257.484 12.0175 256.305 10.7817 255.046C9.47137 253.78 8.49142 252.212 7.92748 250.48C7.41082 248.639 7.21152 246.724 7.33812 244.817C7.55456 240.518 8.44635 236.28 9.98083 232.258C11.7066 227.658 14.2076 223.386 17.3754 219.629C17.5715 219.396 17.8941 219.744 17.6992 219.975Z" fill="white"/>
<path d="M7.89851 241.217C6.42354 240.904 5.10807 240.077 4.18701 238.885C3.26595 237.692 2.79928 236.212 2.87035 234.707C2.87381 234.646 2.90097 234.588 2.94611 234.546C2.99125 234.505 3.05084 234.482 3.11233 234.483C3.17381 234.485 3.23239 234.51 3.27571 234.553C3.31904 234.597 3.34373 234.656 3.34458 234.717C3.27581 236.118 3.71066 237.497 4.57062 238.606C5.43059 239.715 6.65904 240.48 8.03424 240.764C8.33301 240.826 8.19557 241.279 7.89851 241.217Z" fill="white"/>
<path d="M10.2699 254.002C12.8701 252.348 14.7508 249.776 15.5369 246.799C15.6146 246.504 16.0689 246.64 15.9913 246.935C15.1674 250.031 13.2049 252.704 10.4952 254.419C10.2369 254.582 10.0129 254.164 10.2699 254.002Z" fill="white"/>
<path d="M12.1586 228.094C12.704 228.334 13.3006 228.435 13.8947 228.387C14.4888 228.34 15.0619 228.146 15.5624 227.823C15.8186 227.657 16.0423 228.075 15.7878 228.24C15.2331 228.594 14.5999 228.808 13.9437 228.861C13.2874 228.915 12.6279 228.807 12.0229 228.548C11.9639 228.528 11.9145 228.486 11.8849 228.432C11.8553 228.377 11.8477 228.313 11.8636 228.253C11.8819 228.193 11.9231 228.142 11.9784 228.113C12.0336 228.083 12.0984 228.076 12.1586 228.094Z" fill="white"/>
<path d="M47.1284 237.928C46.9714 238.036 46.8144 238.145 46.6573 238.257C44.5534 239.725 44.6135 241.366 42.7751 243.154C42.6308 243.29 42.4866 243.43 42.3465 243.57C37.9651 247.929 34.432 253.063 31.9268 258.711C30.932 260.959 30.1099 263.279 29.4676 265.652C28.5807 268.929 27.8801 272.552 26.0161 275.265C25.8248 275.55 25.616 275.824 25.3909 276.083L7.85592 276.586C7.81549 276.567 7.77498 276.552 7.73436 276.533L7.03516 276.585C7.05973 276.461 7.0879 276.332 7.11247 276.207C7.12642 276.135 7.14427 276.062 7.15822 275.99C7.16876 275.942 7.1795 275.893 7.18627 275.849C7.18971 275.833 7.19336 275.817 7.19692 275.805C7.20367 275.761 7.21463 275.72 7.22149 275.68C7.37694 274.96 7.53774 274.239 7.70387 273.519C7.70376 273.515 7.70375 273.515 7.70754 273.51C8.92086 268.007 10.7835 262.667 13.2564 257.602C13.3322 257.452 13.4078 257.298 13.4916 257.147C14.6397 254.904 15.9694 252.758 17.4674 250.73C18.2913 249.623 19.1708 248.558 20.1025 247.539C22.5149 244.912 25.326 242.68 28.4328 240.926C34.6267 237.429 39.8323 235.949 46.6118 237.783C46.7852 237.83 46.9549 237.877 47.1284 237.928Z" fill="#F0F0F0"/>
<path d="M47.093 238.151C38.5017 240.11 32.5204 244.824 26.7373 251.482C25.4466 252.899 24.3875 254.51 23.599 256.256C22.8859 257.981 22.6484 259.866 22.9113 261.714C23.1217 263.442 23.5372 265.186 23.3234 266.935C23.2006 267.829 22.8901 268.686 22.4121 269.452C21.9342 270.217 21.2997 270.873 20.5502 271.377C18.7153 272.679 16.5212 273.246 14.3563 273.725C11.9526 274.258 9.44745 274.772 7.47352 276.338C7.23435 276.528 6.95361 276.146 7.19242 275.957C10.6267 273.233 15.3457 273.648 19.1319 271.686C20.8986 270.77 22.3998 269.317 22.7861 267.302C23.1239 265.54 22.6969 263.742 22.4687 261.994C22.1858 260.195 22.3484 258.354 22.9421 256.632C23.639 254.851 24.6343 253.202 25.8851 251.756C28.6491 248.453 31.9157 245.606 35.5654 243.317C39.7124 240.685 42.253 238.772 47.043 237.68C47.3398 237.613 47.3878 238.084 47.093 238.151Z" fill="white"/>
<path d="M28.5032 249.219C27.5143 248.082 26.9623 246.631 26.9457 245.124C26.9291 243.618 27.4491 242.155 28.4127 240.997C28.6085 240.763 28.9813 241.056 28.7853 241.29C27.886 242.367 27.4018 243.73 27.4201 245.133C27.4384 246.535 27.958 247.885 28.8851 248.938C29.0863 249.167 28.7032 249.447 28.5032 249.219Z" fill="white"/>
<path d="M22.6925 260.852C25.7654 261.095 28.8172 260.173 31.2394 258.268C31.4793 258.08 31.7601 258.461 31.5205 258.65C28.9962 260.627 25.8184 261.58 22.6212 261.32C22.3165 261.295 22.3895 260.827 22.6925 260.852Z" fill="white"/>
<path d="M39.8157 241.302C40.1065 241.822 40.522 242.261 41.0248 242.581C41.5277 242.9 42.1021 243.09 42.6965 243.133C43.0014 243.154 42.9281 243.622 42.6252 243.601C41.9687 243.551 41.3346 243.34 40.7782 242.989C40.2219 242.637 39.7603 242.154 39.4338 241.583C39.3985 241.532 39.384 241.469 39.3934 241.408C39.4028 241.346 39.4352 241.29 39.4842 241.252C39.5349 241.215 39.5982 241.2 39.6603 241.209C39.7224 241.218 39.7782 241.252 39.8157 241.302Z" fill="white"/>
<path d="M218.926 1.01833H206.931C207.483 2.3691 207.693 3.83464 207.544 5.28584C207.395 6.73705 206.891 8.12937 206.077 9.34016C205.262 10.551 204.162 11.5431 202.873 12.2291C201.584 12.9151 200.146 13.274 198.685 13.2741H146.043C144.582 13.274 143.144 12.9151 141.855 12.2291C140.566 11.5431 139.466 10.551 138.652 9.34017C137.837 8.12937 137.333 6.73704 137.184 5.28584C137.035 3.83463 137.245 2.36909 137.797 1.01831H126.594C121.622 1.01831 116.854 2.99106 113.338 6.50258C109.823 10.0141 107.848 14.7767 107.848 19.7428V257.06C107.848 259.519 108.333 261.954 109.275 264.225C110.217 266.497 111.598 268.561 113.338 270.3C115.079 272.039 117.146 273.418 119.42 274.359C121.694 275.3 124.132 275.784 126.594 275.784H218.926C221.388 275.784 223.825 275.3 226.1 274.359C228.374 273.418 230.441 272.039 232.182 270.3C233.922 268.561 235.303 266.497 236.245 264.225C237.187 261.954 237.672 259.519 237.672 257.06V19.7428C237.672 17.2839 237.187 14.849 236.245 12.5773C235.303 10.3055 233.922 8.24132 232.182 6.50259C230.441 4.76386 228.374 3.38463 226.1 2.44364C223.825 1.50264 221.388 1.01832 218.926 1.01833Z" fill="white"/>
<path d="M218.926 276.803H126.594C121.354 276.797 116.33 274.715 112.624 271.013C108.918 267.312 106.834 262.294 106.828 257.06V19.7428C106.834 14.5086 108.918 9.49036 112.624 5.78915C116.33 2.08794 121.354 0.00598052 126.594 0H139.314L138.741 1.4029C138.252 2.59905 138.066 3.89684 138.198 5.18193C138.33 6.46702 138.776 7.69998 139.498 8.77218C140.219 9.84438 141.193 10.7229 142.335 11.3304C143.476 11.9379 144.75 12.2556 146.043 12.2557H198.685C199.979 12.2555 201.252 11.9377 202.393 11.3302C203.535 10.7227 204.509 9.84419 205.23 8.77202C205.952 7.69985 206.398 6.46694 206.53 5.18188C206.662 3.89683 206.476 2.59907 205.987 1.4029L205.415 0H218.926C224.166 0.00593749 229.19 2.08789 232.896 5.7891C236.601 9.49032 238.686 14.5085 238.692 19.7428V257.06C238.686 262.294 236.601 267.312 232.896 271.014C229.19 274.715 224.166 276.797 218.926 276.803ZM126.594 2.03661C121.894 2.04197 117.388 3.90916 114.065 7.22856C110.742 10.548 108.872 15.0485 108.867 19.7428V257.06C108.872 261.754 110.742 266.255 114.065 269.574C117.388 272.893 121.894 274.761 126.594 274.766H218.926C223.626 274.761 228.132 272.894 231.455 269.574C234.778 266.255 236.647 261.754 236.653 257.06V19.7429C236.647 15.0485 234.778 10.548 231.455 7.22855C228.132 3.90913 223.626 2.04195 218.926 2.03663H208.331C208.685 3.49534 208.704 5.01549 208.385 6.48241C208.066 7.94934 207.417 9.32475 206.489 10.5049C205.56 11.6851 204.375 12.6392 203.023 13.2953C201.671 13.9513 200.188 14.2923 198.685 14.2923H146.043C144.54 14.2917 143.057 13.9505 141.706 13.2942C140.354 12.638 139.17 11.6839 138.241 10.5038C137.312 9.32382 136.664 7.94864 136.345 6.48194C136.025 5.01524 136.044 3.49529 136.398 2.03663L126.594 2.03661Z" fill="#E4E4E4"/>
<path d="M219.618 37.4905H191.775C191.461 37.4905 191.161 37.3663 190.94 37.1451C190.718 36.9239 190.594 36.6239 190.594 36.3111C190.594 35.9982 190.718 35.6982 190.94 35.4771C191.161 35.2559 191.461 35.1316 191.775 35.1316H219.618C219.773 35.1313 219.927 35.1615 220.07 35.2207C220.214 35.2798 220.344 35.3666 220.454 35.4762C220.564 35.5857 220.651 35.7159 220.711 35.8591C220.77 36.0024 220.801 36.156 220.801 36.3111C220.801 36.4662 220.77 36.6197 220.711 36.763C220.651 36.9063 220.564 37.0364 220.454 37.1459C220.344 37.2555 220.214 37.3423 220.07 37.4015C219.927 37.4606 219.773 37.4909 219.618 37.4905Z" fill="#F9B42B"/>
<path d="M219.618 42.7828H191.775C191.461 42.7828 191.161 42.6585 190.94 42.4373C190.718 42.2161 190.594 41.9161 190.594 41.6033C190.594 41.2905 190.718 40.9905 190.94 40.7693C191.161 40.5481 191.461 40.4238 191.775 40.4238H219.618C219.773 40.4235 219.927 40.4538 220.07 40.5129C220.214 40.572 220.344 40.6589 220.454 40.7684C220.564 40.878 220.651 41.0081 220.711 41.1514C220.77 41.2946 220.801 41.4482 220.801 41.6033C220.801 41.7584 220.77 41.912 220.711 42.0552C220.651 42.1985 220.564 42.3286 220.454 42.4382C220.344 42.5477 220.214 42.6346 220.07 42.6937C219.927 42.7528 219.773 42.7831 219.618 42.7828Z" fill="#F9B42B"/>
<path d="M219.618 48.075H191.775C191.461 48.075 191.161 47.9507 190.94 47.7295C190.718 47.5083 190.594 47.2083 190.594 46.8955C190.594 46.5827 190.718 46.2827 190.94 46.0615C191.161 45.8403 191.461 45.7161 191.775 45.7161H219.618C219.773 45.7157 219.927 45.746 220.07 45.8051C220.214 45.8643 220.344 45.9511 220.454 46.0607C220.564 46.1702 220.651 46.3003 220.711 46.4436C220.77 46.5869 220.801 46.7404 220.801 46.8955C220.801 47.0506 220.77 47.2042 220.711 47.3475C220.651 47.4907 220.564 47.6209 220.454 47.7304C220.344 47.84 220.214 47.9268 220.07 47.9859C219.927 48.0451 219.773 48.0753 219.618 48.075Z" fill="#F9B42B"/>
<path d="M78.7935 271.65L83.4587 271.65L85.6781 253.676H78.793L78.7935 271.65Z" fill="#FFB6B6"/>
<path d="M77.6016 270.129L86.7892 270.128C88.342 270.129 89.8316 270.745 90.9296 271.841C92.0276 272.938 92.6445 274.426 92.6446 275.977V276.167L77.6019 276.167L77.6016 270.129Z" fill="#2F2E41"/>
<path d="M60.5508 267.313L64.9514 268.86L73.0191 252.642L66.524 250.359L60.5508 267.313Z" fill="#FFB6B6"/>
<path d="M59.9365 265.483L68.6031 268.53C70.0678 269.045 71.2681 270.12 71.9393 271.518C72.6105 272.917 72.6981 274.525 72.1826 275.988L72.1195 276.167L57.9297 271.179L59.9365 265.483Z" fill="#2F2E41"/>
<path d="M57.7776 167.178L54.9531 170.251L66.3699 217.72L78.0996 264.011H87.4774L82.0838 219.836V174.404L57.7776 167.178Z" fill="#2F2E41"/>
<path d="M86.9614 170.985L88.1975 175.582L81.5917 216.58L72.2114 260.022H61.5898L69.5643 206.756L79.3086 167.548L86.9614 170.985Z" fill="#2F2E41"/>
<path d="M92.7995 102.873L88.6705 95.4694L78.876 93.8682C73.9938 95.1578 69.6234 97.9084 66.3516 101.751C63.0798 105.593 61.0632 110.343 60.5724 115.364L55.2617 169.692C55.2617 169.692 82.4354 182.184 88.1974 175.151L96.2104 113.484C96.5273 111.572 96.3832 109.612 95.79 107.767C95.1968 105.921 94.1716 104.244 92.7995 102.873Z" fill="#54C1C1"/>
<path d="M85.8384 91.4667C91.5784 91.4667 96.2316 86.8189 96.2316 81.0856C96.2316 75.3523 91.5784 70.7046 85.8384 70.7046C80.0985 70.7046 75.4453 75.3523 75.4453 81.0856C75.4453 86.8189 80.0985 91.4667 85.8384 91.4667Z" fill="#FFB6B6"/>
<path d="M99.493 75.4266C98.853 75.2477 98.3072 74.8285 97.9698 74.2567C97.7407 73.8741 97.6187 73.4371 97.6166 72.9914C97.6146 72.5456 97.7325 72.1075 97.958 71.7229C97.4799 71.4751 96.954 71.3327 96.4161 71.3054C95.8781 71.278 95.3405 71.3664 94.8397 71.5645C95.2629 71.1955 95.5924 70.7316 95.8011 70.2107C96.0099 69.6899 96.092 69.127 96.0406 68.5683C94.7934 68.9899 93.5463 69.4115 92.2991 69.833C92.7514 69.4874 93.0852 69.01 93.2543 68.4668C93.4234 67.9235 93.4194 67.3413 93.2429 66.8004C92.2192 68.257 90.0991 68.4526 88.3712 68.0181C86.6433 67.5837 85.047 66.6722 83.2865 66.3979C82.3098 66.2457 81.3122 66.2956 80.3556 66.5443C79.399 66.793 78.5038 67.2354 77.7253 67.8439C76.9469 68.4524 76.3019 69.2142 75.8303 70.0819C75.3587 70.9496 75.0705 71.9049 74.9837 72.8884C74.5296 72.9459 74.0976 73.1178 73.7282 73.388C73.3589 73.6581 73.0644 74.0176 72.8724 74.4327C72.4981 75.2685 72.3276 76.181 72.3749 77.0954C72.406 79.2774 72.9381 81.4232 73.9302 83.3675C74.9222 85.3118 76.3478 87.0028 78.0971 88.3102L78.6714 88.1128C78.6054 86.9329 78.9972 85.7729 79.7654 84.874C80.5335 83.9751 81.6189 83.4065 82.796 83.2863C84.3204 83.1908 86.1205 83.8006 87.2085 82.7297C88.2038 81.7501 87.8477 79.9963 88.6601 78.8606C89.3667 77.8728 90.7723 77.6424 91.9644 77.8791C93.1566 78.1157 94.2413 78.7187 95.399 79.0882C96.5569 79.4576 97.913 79.5616 98.9084 78.8649C99.3193 78.5352 99.6516 78.1183 99.8814 77.6445C100.111 77.1707 100.233 76.6518 100.237 76.1253C100.248 75.9125 100.247 75.6991 100.232 75.4864C99.9838 75.4997 99.7354 75.4796 99.493 75.4266Z" fill="#2F2E41"/>
<path d="M137.136 172.36H30.1094V203.317H137.136V172.36Z" fill="white"/>
<path d="M138.11 204.289H29.1367V171.388H138.11V204.289ZM31.0827 202.345H136.164V173.332H31.0827L31.0827 202.345Z" fill="#E4E4E4"/>
<path d="M116.346 183.005H50.8993C50.5313 183.005 50.1784 182.859 49.9181 182.599C49.6579 182.339 49.5117 181.987 49.5117 181.619C49.5117 181.252 49.6579 180.899 49.9181 180.639C50.1784 180.379 50.5313 180.233 50.8993 180.233H116.346C116.714 180.233 117.067 180.379 117.327 180.639C117.587 180.899 117.734 181.252 117.734 181.619C117.734 181.987 117.587 182.339 117.327 182.599C117.067 182.859 116.714 183.005 116.346 183.005Z" fill="#F9B42B"/>
<path d="M116.343 189.225H50.8969C50.5293 189.224 50.1769 189.078 49.9173 188.818C49.6576 188.558 49.5117 188.206 49.5117 187.839C49.5117 187.471 49.6576 187.119 49.9173 186.859C50.1769 186.599 50.5293 186.453 50.8969 186.452H116.343C116.711 186.453 117.063 186.599 117.323 186.859C117.583 187.119 117.729 187.471 117.729 187.839C117.729 188.206 117.583 188.558 117.323 188.818C117.063 189.078 116.711 189.224 116.343 189.225Z" fill="#F9B42B"/>
<path d="M89.8552 195.444H50.8993C50.5313 195.444 50.1784 195.298 49.9181 195.038C49.6579 194.778 49.5117 194.425 49.5117 194.058C49.5117 193.69 49.6579 193.338 49.9181 193.078C50.1784 192.818 50.5313 192.672 50.8993 192.672H89.8552C90.2232 192.672 90.5761 192.818 90.8364 193.078C91.0966 193.338 91.2428 193.69 91.2428 194.058C91.2428 194.425 91.0966 194.778 90.8364 195.038C90.5761 195.298 90.2232 195.444 89.8552 195.444Z" fill="#F9B42B"/>
<path d="M93.9051 176.229C93.4891 175.855 93.1601 175.395 92.9414 174.881C92.7227 174.366 92.6195 173.81 92.6391 173.252C92.6588 172.693 92.8008 172.146 93.0551 171.648C93.3095 171.151 93.6699 170.715 94.1112 170.371L89.7305 157.513L96.5684 159.293L99.6801 171.231C100.209 172.01 100.433 172.955 100.31 173.888C100.188 174.82 99.7268 175.676 99.015 176.292C98.3031 176.908 97.3898 177.242 96.448 177.23C95.5062 177.218 94.6014 176.862 93.9051 176.229Z" fill="#FFB6B6"/>
<path d="M90.8757 167.657L83.7865 141.481L83.1658 109.589C83.1344 108.283 83.5282 107.003 84.288 105.941C85.0478 104.878 86.1326 104.091 87.379 103.697C88.3117 103.398 89.3032 103.329 90.2686 103.495C91.234 103.662 92.1448 104.059 92.9231 104.653C93.7014 105.248 94.3242 106.021 94.7382 106.908C95.1523 107.795 95.3453 108.769 95.3008 109.746L94.1588 134.841L99.7833 164.795L90.8757 167.657Z" fill="#54C1C1"/>
<path d="M68.2957 176.989C67.8797 176.615 67.5507 176.155 67.332 175.641C67.1133 175.126 67.0101 174.57 67.0298 174.012C67.0494 173.453 67.1914 172.906 67.4457 172.408C67.7001 171.911 68.0606 171.475 68.5018 171.131L64.1211 158.273L70.959 160.053L74.0707 171.991C74.5992 172.77 74.8235 173.715 74.7009 174.648C74.5783 175.58 74.1174 176.436 73.4056 177.052C72.6937 177.668 71.7804 178.002 70.8386 177.99C69.8968 177.978 68.9921 177.622 68.2957 176.989Z" fill="#FFB6B6"/>
<path d="M64.189 166.437L61.1562 139.522L65.3947 107.872C65.5026 107.066 65.7715 106.291 66.1856 105.591C66.5997 104.891 67.1504 104.281 67.805 103.798C68.4597 103.315 69.2048 102.969 69.9963 102.779C70.7877 102.589 71.6092 102.561 72.412 102.695C73.2147 102.828 73.9823 103.122 74.6692 103.558C75.356 103.994 75.9481 104.564 76.4102 105.233C76.8722 105.902 77.1949 106.657 77.3589 107.454C77.523 108.25 77.5251 109.071 77.3651 109.868L72.4221 134.498L73.4284 164.959L64.189 166.437Z" fill="#54C1C1"/>
<path d="M295.65 260.454H131.809V222.792H295.65V260.454Z" fill="white"/>
<path d="M155.452 235.245C155.028 235.245 154.622 235.413 154.323 235.712C154.024 236.011 153.855 236.417 153.855 236.839C153.855 237.262 154.024 237.668 154.323 237.967C154.622 238.266 155.028 238.434 155.452 238.434H272.008C272.431 238.433 272.836 238.265 273.135 237.966C273.434 237.667 273.602 237.262 273.602 236.839C273.602 236.417 273.434 236.012 273.135 235.713C272.836 235.414 272.431 235.246 272.008 235.245H155.452Z" fill="#E6E6E6"/>
<path d="M155.455 244.812C155.032 244.811 154.625 244.979 154.325 245.277C154.025 245.575 153.856 245.981 153.855 246.403C153.855 246.826 154.022 247.232 154.321 247.532C154.619 247.832 155.025 248 155.449 248.001H229.137C229.346 248.002 229.554 247.961 229.748 247.881C229.942 247.801 230.119 247.683 230.267 247.535C230.416 247.387 230.534 247.211 230.614 247.018C230.694 246.824 230.736 246.616 230.736 246.407C230.736 246.197 230.694 245.99 230.614 245.796C230.534 245.602 230.416 245.426 230.267 245.278C230.119 245.13 229.942 245.013 229.748 244.933C229.554 244.853 229.346 244.812 229.137 244.812H155.455Z" fill="#E6E6E6"/>
<path d="M295.65 260.454H131.809V222.792H295.65V260.454ZM134.502 257.764H292.957V225.482H134.502V257.764Z" fill="#E5E5E5"/>
<path d="M37.4741 152.134C36.1211 152.134 34.7984 151.733 33.6733 150.982C32.5483 150.231 31.6714 149.164 31.1536 147.915C30.6358 146.667 30.5003 145.293 30.7643 143.967C31.0282 142.642 31.6798 141.424 32.6366 140.468C33.5934 139.513 34.8124 138.862 36.1395 138.598C37.4666 138.335 38.8421 138.47 40.0922 138.987C41.3423 139.504 42.4108 140.38 43.1625 141.504C43.9142 142.628 44.3155 143.949 44.3155 145.3C44.3155 147.113 43.5947 148.851 42.3117 150.132C41.0287 151.414 39.2886 152.134 37.4741 152.134Z" fill="#F0F0F0"/>
<path d="M68.6871 55.2997C67.1938 55.2997 65.734 54.8574 64.4923 54.0287C63.2507 53.2 62.2829 52.0222 61.7115 50.6441C61.14 49.2661 60.9905 47.7497 61.2818 46.2868C61.5731 44.8239 62.2922 43.4801 63.3482 42.4254C64.4041 41.3707 65.7494 40.6525 67.2141 40.3615C68.6787 40.0705 70.1968 40.2198 71.5765 40.7906C72.9561 41.3614 74.1353 42.328 74.9649 43.5682C75.7946 44.8085 76.2374 46.2665 76.2374 47.7581C76.2374 48.7485 76.0421 49.7292 75.6627 50.6441C75.2832 51.5591 74.7271 52.3905 74.026 53.0908C73.3248 53.7911 72.4925 54.3466 71.5765 54.7256C70.6604 55.1046 69.6786 55.2997 68.6871 55.2997Z" fill="#F0F0F0"/>
<path d="M263.439 109.201C262.154 109.201 260.899 108.821 259.831 108.108C258.763 107.396 257.931 106.383 257.44 105.198C256.948 104.013 256.82 102.708 257.07 101.45C257.321 100.192 257.939 99.0365 258.847 98.1294C259.755 97.2224 260.912 96.6046 262.172 96.3544C263.432 96.1041 264.737 96.2325 265.924 96.7234C267.11 97.2143 268.124 98.0457 268.838 99.1123C269.551 100.179 269.932 101.433 269.932 102.716C269.932 104.436 269.248 106.085 268.03 107.302C266.813 108.518 265.161 109.201 263.439 109.201Z" fill="#F0F0F0"/>
<path d="M222.327 67.8584H122.797V142.931H222.327V67.8584Z" fill="white"/>
<path d="M223.629 144.233H121.492V66.5566H223.629V144.233ZM124.099 141.629H221.022V69.1603H124.099V141.629Z" fill="#E4E4E4"/>
<path d="M221.197 69.3918H124.492L221.197 142.201V69.3918Z" fill="#F0F0F0"/>
<path d="M277.167 276.195C274.27 276.195 271.438 275.337 269.029 273.729C266.621 272.122 264.743 269.837 263.635 267.163C262.526 264.49 262.236 261.548 262.801 258.71C263.366 255.872 264.761 253.265 266.81 251.219C268.858 249.173 271.468 247.779 274.31 247.215C277.151 246.65 280.096 246.94 282.773 248.047C285.449 249.155 287.737 251.03 289.346 253.436C290.956 255.842 291.815 258.671 291.815 261.564C291.815 263.486 291.436 265.388 290.7 267.163C289.964 268.938 288.885 270.551 287.525 271.91C286.165 273.268 284.55 274.346 282.773 275.081C280.996 275.817 279.091 276.195 277.167 276.195Z" fill="#F9B42B"/>
<path d="M282.947 260.121H278.612V255.791C278.612 255.409 278.46 255.042 278.189 254.771C277.918 254.5 277.55 254.348 277.167 254.348C276.784 254.348 276.416 254.5 276.145 254.771C275.874 255.042 275.722 255.409 275.722 255.791V260.121H271.387C271.005 260.122 270.638 260.274 270.368 260.545C270.097 260.815 269.945 261.182 269.945 261.564C269.945 261.947 270.097 262.313 270.368 262.584C270.638 262.854 271.005 263.007 271.387 263.008H275.722V267.337C275.722 267.72 275.874 268.087 276.145 268.358C276.416 268.628 276.784 268.781 277.167 268.781C277.55 268.781 277.918 268.628 278.189 268.358C278.46 268.087 278.612 267.72 278.612 267.337V263.008H282.947C283.137 263.008 283.325 262.971 283.501 262.898C283.676 262.826 283.836 262.72 283.97 262.586C284.105 262.452 284.211 262.293 284.284 262.117C284.357 261.942 284.394 261.754 284.394 261.564C284.394 261.375 284.357 261.187 284.284 261.011C284.211 260.836 284.105 260.677 283.97 260.543C283.836 260.409 283.676 260.303 283.501 260.23C283.325 260.158 283.137 260.121 282.947 260.121Z" fill="white"/>
<path d="M295.042 277H0.76926C0.608593 277 0.454661 276.936 0.341216 276.822C0.227772 276.708 0.164062 276.554 0.164062 276.394C0.164062 276.233 0.227772 276.079 0.341216 275.966C0.454661 275.852 0.608593 275.788 0.76926 275.788H295.042C295.202 275.788 295.356 275.852 295.47 275.966C295.583 276.079 295.647 276.233 295.647 276.394C295.647 276.554 295.583 276.708 295.47 276.822C295.356 276.936 295.202 277 295.042 277Z" fill="#CACACA"/>
</g>
<defs>
<clipPath id="clip0_659_33213">
<rect width="304" height="277" fill="white"/>
</clipPath>
</defs>
</svg>
