<svg width="293" height="181" viewBox="0 0 293 181" fill="none" xmlns="http://www.w3.org/2000/svg">
<g clip-path="url(#clip0_1092_22913)">
<path d="M254.615 141.928C254.549 141.846 254.485 141.763 254.42 141.68C254.356 141.598 254.292 141.515 254.228 141.431C254.165 141.348 254.102 141.265 254.038 141.181C253.975 141.097 253.913 141.013 253.85 140.929C253.745 138.503 253.744 136.099 253.846 133.716C253.945 131.351 254.146 129.013 254.448 126.705C254.747 124.413 255.142 122.157 255.635 119.936C256.124 117.732 256.706 115.57 257.383 113.449C257.46 113.205 257.538 112.961 257.618 112.719C257.698 112.476 257.779 112.235 257.862 111.996C257.945 111.755 258.028 111.516 258.114 111.277C258.199 111.039 258.286 110.802 258.373 110.565C259.025 108.794 259.742 107.067 260.524 105.383C261.301 103.711 262.141 102.084 263.042 100.505C263.937 98.9359 264.891 97.4155 265.904 95.9435C266.909 94.4824 267.971 93.0723 269.089 91.7134L269.265 91.5002L269.442 91.2882L269.619 91.0773L269.797 90.8675L269.925 90.717L270.054 90.567C270.098 90.5172 270.141 90.4676 270.185 90.4182C270.229 90.3687 270.273 90.3199 270.318 90.2715L270.424 90.2136L270.53 90.1561L270.635 90.0989L270.74 90.0418L270.746 90.0396L270.753 90.0365L270.759 90.0334L270.766 90.0309L270.808 90.0079L270.85 89.9846L270.891 89.9614L270.931 89.938L271.113 89.8404L271.295 89.7443L271.477 89.6485L271.657 89.5518L271.52 89.483L271.174 89.3115L271.176 89.3101C271.206 89.3227 271.236 89.3361 271.265 89.3501C271.294 89.3642 271.323 89.3778 271.353 89.3908C271.383 89.4047 271.412 89.4184 271.441 89.4321C271.47 89.4458 271.499 89.4598 271.528 89.4743L271.562 89.4885L271.595 89.5029L271.63 89.5175C271.641 89.522 271.652 89.5274 271.663 89.5337C271.672 89.5388 271.682 89.543 271.693 89.5464L271.722 89.559L271.752 89.5717L271.782 89.5844C273.042 90.1598 274.305 90.7441 275.551 91.3567C276.798 91.9694 278.025 92.6079 279.219 93.2951C280.41 93.977 281.564 94.7208 282.677 95.5235C283.787 96.3222 284.837 97.1998 285.819 98.1496C286.856 99.1594 287.783 100.275 288.586 101.478C289.38 102.66 290.032 103.931 290.531 105.264C291.01 106.532 291.296 107.866 291.379 109.219C291.458 110.521 291.274 111.825 290.838 113.055C290.78 113.215 290.716 113.373 290.648 113.529C290.58 113.685 290.507 113.838 290.43 113.99C290.352 114.141 290.271 114.289 290.184 114.435C290.098 114.581 290.007 114.724 289.912 114.864C289.873 114.923 289.832 114.981 289.791 115.039C289.749 115.096 289.708 115.153 289.665 115.21C289.623 115.266 289.58 115.322 289.536 115.378C289.493 115.434 289.449 115.49 289.404 115.545C288.579 116.579 287.531 117.414 286.337 117.987C285.137 118.559 283.833 118.881 282.504 118.935C281.107 118.993 279.711 118.791 278.389 118.34C276.97 117.857 275.652 117.12 274.499 116.165C274.101 115.836 273.723 115.484 273.369 115.109C273.017 114.738 272.69 114.345 272.387 113.933C272.087 113.524 271.814 113.098 271.568 112.655C271.324 112.215 271.108 111.761 270.923 111.293C270.837 112.745 271.063 114.198 271.586 115.555C272.139 116.981 272.89 118.323 273.817 119.541C274.797 120.838 275.884 122.051 277.067 123.167C278.258 124.305 279.523 125.372 280.773 126.355C282.022 127.338 283.316 128.343 284.569 129.391C285.82 130.422 287.011 131.523 288.136 132.689C289.227 133.815 290.193 135.057 291.015 136.391C291.823 137.708 292.407 139.15 292.743 140.657C293.103 142.298 293.085 144 292.69 145.633C292.498 146.428 292.224 147.201 291.873 147.94C291.519 148.684 291.095 149.394 290.607 150.059L290.561 150.12L290.515 150.18L290.468 150.241L290.421 150.301C289.229 151.854 287.733 153.149 286.023 154.107C285.163 154.589 284.256 154.984 283.316 155.286C282.354 155.594 281.363 155.807 280.359 155.92C278.449 156.095 276.522 155.985 274.644 155.594C272.711 155.19 270.831 154.563 269.043 153.725C267.194 152.863 265.427 151.836 263.762 150.658C262.083 149.474 260.494 148.168 259.006 146.752C258.611 146.376 258.223 145.994 257.842 145.605C257.461 145.216 257.087 144.82 256.721 144.418C256.354 144.015 255.995 143.607 255.645 143.192C255.294 142.777 254.951 142.356 254.615 141.928Z" fill="#F2F2F2"/>
<path d="M285.331 113.826C284.15 113.215 283.014 112.52 281.933 111.748C279.774 110.204 277.844 108.364 276.203 106.281C275.389 105.248 274.652 104.156 273.997 103.016C273.451 102.052 272.966 101.056 272.545 100.031C272.134 99.0323 271.789 98.0076 271.511 96.9639C271.24 95.9445 271.038 94.908 270.906 93.8615C270.777 92.8364 270.721 91.8036 270.737 90.7706C270.738 90.7124 270.74 90.6545 270.741 90.597C270.742 90.5395 270.743 90.4817 270.745 90.4234C270.746 90.3651 270.749 90.3076 270.752 90.2509L270.76 90.0792C270.711 90.1182 270.661 90.1576 270.612 90.1973L270.464 90.3171L270.317 90.4378L270.17 90.5588L270.076 90.6366L269.982 90.7149L269.888 90.7937L269.795 90.8727L269.923 90.7224L270.055 90.5674C270.098 90.5176 270.141 90.468 270.185 90.4185C270.229 90.3691 270.273 90.3202 270.318 90.2719L270.424 90.214L270.53 90.1565L270.633 90.0994L270.738 90.0423L270.744 90.0401L270.751 90.037L270.757 90.0339L270.764 90.0314L270.806 90.0084L270.848 89.9852L270.889 89.962L270.929 89.9387L271.112 89.8411L271.294 89.745L271.475 89.6492L271.657 89.5531L271.515 89.4827L271.169 89.3109L271.172 89.3094C271.201 89.3221 271.231 89.3355 271.26 89.3495C271.289 89.3636 271.319 89.3772 271.348 89.3902C271.378 89.404 271.407 89.4178 271.436 89.4315C271.465 89.4452 271.494 89.4592 271.524 89.4737L271.557 89.4878L271.591 89.5023L271.625 89.5169C271.636 89.5213 271.647 89.5267 271.658 89.533L271.655 89.5877L271.651 89.639L271.648 89.69L271.645 89.7418C271.517 91.4817 271.608 93.2307 271.916 94.9482C272.232 96.7161 272.75 98.442 273.462 100.092C274.197 101.8 275.115 103.423 276.202 104.933C277.324 106.495 278.61 107.934 280.038 109.224C281.475 110.506 283.043 111.633 284.716 112.589C285.542 113.061 286.393 113.489 287.264 113.871C288.128 114.249 289.013 114.581 289.913 114.863C289.873 114.922 289.833 114.98 289.792 115.037C289.75 115.095 289.708 115.152 289.666 115.208C289.624 115.265 289.581 115.321 289.537 115.377C289.494 115.433 289.45 115.489 289.405 115.544C289.058 115.429 288.713 115.307 288.369 115.178C288.026 115.049 287.684 114.913 287.344 114.769C287.004 114.626 286.666 114.475 286.331 114.318C285.995 114.16 285.662 113.996 285.331 113.826Z" fill="white"/>
<path d="M261.958 126.83C261.571 126.254 261.206 125.668 260.863 125.072C260.52 124.475 260.199 123.87 259.901 123.256C259.603 122.643 259.327 122.021 259.075 121.392C258.822 120.763 258.593 120.129 258.388 119.489C258.283 119.15 258.187 118.809 258.098 118.467C258.01 118.125 257.929 117.783 257.858 117.44C257.786 117.097 257.722 116.753 257.666 116.409C257.611 116.064 257.564 115.72 257.525 115.376C257.506 115.216 257.488 115.055 257.473 114.895C257.457 114.734 257.444 114.573 257.432 114.412C257.42 114.251 257.409 114.091 257.401 113.93C257.393 113.77 257.386 113.61 257.381 113.45C257.458 113.205 257.536 112.962 257.616 112.719C257.696 112.477 257.777 112.235 257.86 111.995C257.942 111.754 258.026 111.515 258.111 111.276C258.197 111.038 258.283 110.8 258.372 110.564C258.352 110.762 258.336 110.961 258.322 111.16C258.309 111.359 258.298 111.559 258.29 111.759C258.282 111.96 258.276 112.161 258.274 112.362C258.272 112.564 258.272 112.766 258.275 112.968C258.275 113.078 258.276 113.188 258.278 113.298C258.28 113.408 258.283 113.519 258.287 113.629C258.291 113.739 258.296 113.849 258.302 113.959C258.307 114.07 258.314 114.18 258.321 114.29C258.406 115.527 258.601 116.753 258.903 117.956C259.209 119.172 259.607 120.364 260.096 121.52C260.594 122.699 261.168 123.843 261.814 124.948C262.472 126.071 263.191 127.158 263.969 128.202C264.805 129.33 265.69 130.428 266.622 131.497C267.554 132.565 268.521 133.604 269.524 134.614C270.528 135.623 271.561 136.601 272.624 137.548C273.686 138.494 274.767 139.408 275.865 140.289C276.99 141.194 278.137 142.064 279.307 142.9C280.477 143.736 281.666 144.535 282.874 145.298C284.082 146.06 285.308 146.786 286.552 147.474C287.796 148.162 289.054 148.811 290.326 149.42C290.385 149.449 290.437 149.488 290.482 149.535C290.525 149.581 290.56 149.635 290.586 149.693C290.611 149.75 290.626 149.812 290.63 149.874C290.634 149.937 290.625 150 290.605 150.06C290.599 150.086 290.59 150.111 290.578 150.135C290.567 150.159 290.553 150.181 290.537 150.201C290.522 150.222 290.504 150.241 290.484 150.257C290.465 150.274 290.444 150.288 290.421 150.3C290.397 150.311 290.372 150.319 290.346 150.324C290.32 150.328 290.294 150.33 290.268 150.328C290.241 150.326 290.215 150.321 290.189 150.313C290.162 150.305 290.137 150.294 290.113 150.281C289.955 150.206 289.798 150.13 289.641 150.054C289.484 149.979 289.328 149.902 289.171 149.826C289.015 149.749 288.858 149.671 288.702 149.593C288.546 149.515 288.39 149.436 288.235 149.356C286.938 148.692 285.659 147.988 284.397 147.244C283.135 146.501 281.892 145.719 280.668 144.897C279.444 144.077 278.242 143.219 277.063 142.324C275.883 141.429 274.729 140.499 273.599 139.533C272.508 138.604 271.431 137.642 270.379 136.648C269.328 135.655 268.303 134.629 267.316 133.57C266.329 132.512 265.381 131.421 264.483 130.297C263.586 129.174 262.741 128.018 261.958 126.83Z" fill="white"/>
<path d="M286.385 34.4675L285.456 34.5878L291.683 11.2892C292.142 9.73351 292.217 8.09024 291.901 6.49951C291.627 5.19974 290.949 4.01899 289.964 3.12479C288.932 2.23072 287.668 1.64572 286.317 1.43728C284.671 1.18324 282.991 1.25822 281.375 1.65785L239.052 11.2657C237.575 11.623 236.161 12.2028 234.859 12.9852C233.443 13.8244 232.127 14.8196 230.934 15.9519C229.707 17.1066 228.605 18.3872 227.647 19.7723C226.712 21.113 225.949 22.5657 225.378 24.0961L181.095 145.508C180.359 147.504 179.881 149.586 179.672 151.703C179.478 153.582 179.57 155.48 179.943 157.332C180.255 158.941 180.907 160.466 181.855 161.805C182.724 163.022 183.949 163.943 185.362 164.442L230.079 179.787C232.065 180.462 234.198 180.588 236.25 180.154C238.445 179.677 240.508 178.73 242.298 177.377C244.308 175.872 246.036 174.026 247.404 171.923C248.918 169.613 250.05 167.075 250.755 164.406L280.735 52.2466L281.675 52.1715L286.385 34.4675Z" fill="#2F2E41"/>
<path d="M283.149 33.1776L282.221 33.2979L288.448 9.99933C288.907 8.44359 288.981 6.80032 288.666 5.20959C288.392 3.90983 287.714 2.72907 286.729 1.83488C285.697 0.940804 284.432 0.3558 283.081 0.147362C281.436 -0.106676 279.756 -0.0316982 278.14 0.367932L235.817 9.97579C234.34 10.3331 232.926 10.9129 231.624 11.6952C230.208 12.5345 228.891 13.5296 227.699 14.662C226.471 15.8167 225.37 17.0973 224.412 18.4824C223.477 19.8231 222.714 21.2757 222.142 22.8062L177.86 144.218C177.124 146.215 176.646 148.296 176.437 150.413C176.243 152.292 176.334 154.19 176.708 156.042C177.02 157.651 177.672 159.176 178.619 160.515C179.489 161.732 180.713 162.653 182.127 163.152L226.844 178.497C228.83 179.172 230.962 179.298 233.015 178.864C235.209 178.387 237.273 177.44 239.063 176.087C241.072 174.582 242.801 172.736 244.168 170.633C245.683 168.323 246.815 165.785 247.52 163.117L277.499 50.9567L278.44 50.8816L283.149 33.1776Z" fill="#3F3D56"/>
<path d="M277.765 3.40797L271.544 4.76656C271.612 5.30312 271.558 5.84804 271.387 6.36121C271.193 6.96146 270.912 7.53012 270.553 8.04905C269.744 9.22714 268.664 10.1955 267.404 10.8736C267.253 10.9536 267.102 11.0274 266.952 11.0952C266.802 11.1629 266.653 11.2244 266.503 11.2796C266.353 11.3349 266.205 11.3837 266.058 11.426C265.911 11.4684 265.765 11.5041 265.621 11.5331L241.297 16.4428C240.846 16.5473 240.376 16.542 239.927 16.4273C239.566 16.3306 239.247 16.1166 239.021 15.8191C238.794 15.4997 238.665 15.1207 238.652 14.7291C238.633 14.2297 238.713 13.7314 238.885 13.2622C238.928 13.1356 238.978 13.0081 239.033 12.8797C239.088 12.7514 239.148 12.6231 239.213 12.4947C239.278 12.3657 239.349 12.2374 239.425 12.1097C239.502 11.982 239.582 11.8544 239.667 11.7269L235.062 12.7327C233.953 12.992 232.89 13.4206 231.912 14.0033C230.844 14.6308 229.85 15.3772 228.95 16.2283C228.023 17.0979 227.191 18.0634 226.469 19.1087C225.765 20.1187 225.193 21.214 224.766 22.368L180.567 144.835C180.017 146.34 179.664 147.909 179.517 149.504C179.38 150.912 179.461 152.332 179.755 153.715C180 154.911 180.501 156.04 181.223 157.026C181.884 157.92 182.807 158.589 183.865 158.94L228.91 173.528C230.397 174.003 231.983 174.074 233.506 173.733C235.128 173.363 236.651 172.651 237.974 171.644C239.453 170.528 240.726 169.164 241.737 167.613C242.855 165.91 243.694 164.04 244.223 162.074L285.381 10.6769C285.726 9.52122 285.79 8.3001 285.568 7.11483C285.374 6.14352 284.881 5.25662 284.158 4.57792C283.4 3.89936 282.464 3.44964 281.459 3.28124C280.232 3.07578 278.975 3.11889 277.765 3.40797Z" fill="white"/>
<path d="M253.608 61.4098H164V31.1404H253.608V61.4098Z" fill="white"/>
<path d="M227.411 72.0931H139.589V114.53H227.411V72.0931Z" fill="white"/>
<path d="M153.855 92.4712C157.364 92.4712 160.208 89.6361 160.208 86.1388C160.208 82.6415 157.364 79.8064 153.855 79.8064C150.347 79.8064 147.503 82.6415 147.503 86.1388C147.503 89.6361 150.347 92.4712 153.855 92.4712Z" fill="#018780"/>
<path d="M168.527 81.9172C168.246 81.9172 167.976 82.0284 167.778 82.2264C167.579 82.4243 167.468 82.6927 167.468 82.9726C167.468 83.2525 167.579 83.521 167.778 83.7189C167.976 83.9168 168.246 84.028 168.527 84.028H218.439C218.719 84.0273 218.988 83.9158 219.186 83.718C219.384 83.5201 219.495 83.2521 219.495 82.9726C219.495 82.6932 219.384 82.4251 219.186 82.2273C218.988 82.0294 218.719 81.9179 218.439 81.9172H168.527Z" fill="#E6E6E6"/>
<path d="M168.527 88.2496C168.388 88.2492 168.25 88.276 168.121 88.3287C167.993 88.3814 167.876 88.4589 167.777 88.5567C167.678 88.6545 167.6 88.7708 167.546 88.8988C167.493 89.0268 167.465 89.1641 167.465 89.3028C167.465 89.4415 167.492 89.5789 167.545 89.7072C167.598 89.8354 167.676 89.952 167.774 90.0502C167.872 90.1484 167.989 90.2264 168.117 90.2796C168.246 90.3329 168.384 90.3603 168.523 90.3604H190.005C190.144 90.3604 190.281 90.3331 190.41 90.2801C190.538 90.2271 190.655 90.1493 190.753 90.0513C190.852 89.9533 190.93 89.837 190.983 89.7089C191.036 89.5809 191.063 89.4436 191.063 89.305C191.063 89.1664 191.036 89.0292 190.983 88.9012C190.93 88.7731 190.852 88.6568 190.753 88.5588C190.655 88.4607 190.538 88.383 190.41 88.33C190.281 88.2769 190.144 88.2496 190.005 88.2496H168.527Z" fill="#E6E6E6"/>
<path d="M148.983 98.3733C148.178 98.3733 147.522 98.8468 147.522 99.4287C147.522 100.011 148.178 100.484 148.983 100.484H217.847C218.652 100.484 219.308 100.011 219.308 99.4287C219.308 98.8468 218.652 98.3733 217.847 98.3733H148.983Z" fill="#E6E6E6"/>
<path d="M148.983 104.706C148.178 104.706 147.522 105.179 147.522 105.761C147.522 106.343 148.178 106.816 148.983 106.816H201.995C202.801 106.816 203.456 106.343 203.456 105.761C203.456 105.179 202.801 104.706 201.995 104.706H148.983Z" fill="#E6E6E6"/>
<path d="M228.303 115.42H138.695V71.2029H228.303V115.42ZM140.482 113.639H226.517V72.9834H140.482V113.639Z" fill="#E6E6E6"/>
<path d="M179.16 52.4087C182.668 52.4087 185.513 49.5736 185.513 46.0763C185.513 42.579 182.668 39.7439 179.16 39.7439C175.652 39.7439 172.808 42.579 172.808 46.0763C172.808 49.5736 175.652 52.4087 179.16 52.4087Z" fill="#018780"/>
<path d="M193.831 41.8547C193.55 41.8547 193.281 41.9659 193.083 42.1639C192.884 42.3618 192.772 42.6302 192.772 42.9101C192.772 43.19 192.884 43.4585 193.083 43.6564C193.281 43.8543 193.55 43.9655 193.831 43.9655H243.744C244.024 43.9648 244.293 43.8533 244.491 43.6555C244.689 43.4576 244.8 43.1896 244.8 42.9101C244.8 42.6307 244.689 42.3626 244.491 42.1648C244.293 41.9669 244.024 41.8554 243.744 41.8547H193.831Z" fill="#E6E6E6"/>
<path d="M193.832 48.1871C193.693 48.1867 193.555 48.2135 193.426 48.2662C193.297 48.3189 193.18 48.3964 193.082 48.4942C192.983 48.592 192.905 48.7083 192.851 48.8363C192.798 48.9643 192.77 49.1016 192.77 49.2403C192.769 49.379 192.796 49.5164 192.849 49.6447C192.902 49.7729 192.98 49.8895 193.079 49.9877C193.177 50.086 193.293 50.1639 193.422 50.2171C193.55 50.2704 193.688 50.2978 193.827 50.2979H233.102C233.383 50.2979 233.652 50.1867 233.85 49.9888C234.049 49.7909 234.161 49.5224 234.161 49.2425C234.161 48.9626 234.049 48.6942 233.85 48.4963C233.652 48.2983 233.383 48.1871 233.102 48.1871H193.832Z" fill="#E6E6E6"/>
<path d="M253.608 61.4098H164V31.1404H253.608V61.4098ZM165.786 59.6293H251.822V32.9209H165.786V59.6293Z" fill="#E6E6E6"/>
<path d="M77.5381 176.713H82.0551L84.2041 159.345L77.5371 159.345L77.5381 176.713Z" fill="#FFB6B6"/>
<path d="M90.7666 180.894L76.57 180.894L76.5697 175.427L85.9505 175.426C87.2277 175.426 88.4527 175.932 89.3559 176.832C90.2591 177.733 90.7665 178.954 90.7666 180.227L90.7666 180.894Z" fill="#2F2E41"/>
<path d="M32.3691 170.878L36.3275 173.047L46.6051 158.859L40.763 155.658L32.3691 170.878Z" fill="#FFB6B6"/>
<path d="M41.9404 180.894L29.5 174.077L32.1425 169.285L40.3628 173.79C41.4821 174.404 42.311 175.435 42.6673 176.658C43.0237 177.88 42.8781 179.194 42.2628 180.31L41.9404 180.894Z" fill="#2F2E41"/>
<path d="M77.3273 167.073C76.9248 167.073 76.5361 166.926 76.2339 166.661C75.9316 166.396 75.7364 166.031 75.6846 165.633L70.0355 122.239C70.0105 122.047 69.9253 121.868 69.7921 121.727C69.6589 121.586 69.4845 121.491 69.2937 121.455C69.1029 121.419 68.9056 121.444 68.7299 121.526C68.5542 121.609 68.4092 121.744 68.3154 121.914L44.772 164.493C44.5777 164.841 44.2647 165.107 43.89 165.244C43.5152 165.382 43.1035 165.38 42.7298 165.24L37.598 163.291C37.3916 163.213 37.203 163.094 37.0433 162.942C36.8835 162.79 36.7558 162.608 36.6678 162.406C36.5797 162.204 36.533 161.986 36.5304 161.766C36.5278 161.546 36.5693 161.328 36.6526 161.124L52.9617 121.186C53.003 121.085 53.031 120.978 53.045 120.87C55.254 103.827 60.8743 95.1597 62.5442 92.9094C62.6662 92.744 62.7465 92.5518 62.7783 92.349C62.8101 92.1461 62.7925 91.9387 62.7269 91.7441L62.4974 91.0575C62.4057 90.7851 62.3869 90.4935 62.4428 90.2115C62.4988 89.9296 62.6276 89.6671 62.8164 89.45C68.8337 82.6179 79.3215 86.346 79.4268 86.3844L79.4793 86.4037L79.5122 86.4486C91.2722 102.525 86.9241 154.743 85.9331 165.047C85.8961 165.434 85.7229 165.796 85.4442 166.068C85.1654 166.341 84.7991 166.506 84.4099 166.535L77.456 167.068C77.4128 167.072 77.3699 167.073 77.3273 167.073Z" fill="#2F2E41"/>
<path d="M74.1387 46.4972C79.6906 46.4972 84.1914 42.0106 84.1914 36.4762C84.1914 30.9418 79.6906 26.4553 74.1387 26.4553C68.5867 26.4553 64.0859 30.9418 64.0859 36.4762C64.0859 42.0106 68.5867 46.4972 74.1387 46.4972Z" fill="#FFB8B8"/>
<path d="M58.5967 100.241L88.1774 102.925C85.5985 93.9861 83.2356 85.0783 85.1616 76.2028C87.6073 68.2791 87.8347 63.8895 81.3829 60.1578L77.0267 50.4709L69.1428 50.1851L65.2985 49.1348C62.1927 54.1126 60.9222 60.013 61.7052 65.8229C63.3764 78.457 62.9251 90.1807 58.5967 100.241Z" fill="#018780"/>
<path d="M63.0868 55.5244L60.1113 41.9112C59.4905 38.6887 59.6463 35.3654 60.5658 32.2147C60.666 31.8918 60.7866 31.5756 60.9272 31.268C61.7508 29.4787 63.0457 27.9456 64.6741 26.8318C66.3026 25.7179 68.2035 25.0651 70.1746 24.9429C76.9367 24.4773 77.9294 25.1879 78.1739 25.5384C81.995 25.3846 84.958 26.8562 86.3099 29.5794C86.4423 29.8497 86.5136 30.1457 86.5189 30.4464C86.5241 30.7472 86.4632 31.0455 86.3403 31.3202C86.2174 31.5949 86.0356 31.8395 85.8076 32.0366C85.5797 32.2337 85.3112 32.3786 85.021 32.4611C83.1325 33.0038 80.4781 33.6067 78.4875 33.4294C74.4972 38.2005 76.1284 46.9418 80.1767 52.1501L80.3358 52.3548L76.3249 53.1742L71.6638 46.7037C71.5715 46.5757 71.438 46.4831 71.2855 46.4414C71.133 46.3997 70.9708 46.4115 70.8259 46.4748C70.6811 46.538 70.5624 46.6489 70.4898 46.7889C70.4171 46.9289 70.3949 47.0896 70.4267 47.2439L71.8419 54.0969L63.0868 55.5244Z" fill="#2F2E41"/>
<path d="M280.5 181H0V180.297H280.628L280.5 181Z" fill="#CACACA"/>
<path d="M120.546 92.1809L47.383 143.755L29.8506 119.041L103.014 67.4666L120.546 92.1809Z" fill="white"/>
<path d="M54.5476 127.68C57.4121 125.661 58.0922 121.709 56.0665 118.854C54.0408 115.998 50.0766 115.32 47.212 117.34C44.3475 119.359 43.6675 123.311 45.6932 126.166C47.7188 129.022 51.6831 129.699 54.5476 127.68Z" fill="#018780"/>
<path d="M60.4133 110.619C60.184 110.781 60.0285 111.027 59.9811 111.302C59.9336 111.578 59.998 111.862 60.1601 112.09C60.3223 112.319 60.5688 112.474 60.8456 112.521C61.1223 112.568 61.4066 112.504 61.6359 112.343L102.388 83.6154C102.617 83.4535 102.771 83.2078 102.818 82.9324C102.865 82.6569 102.801 82.374 102.639 82.1459C102.477 81.9177 102.231 81.7628 101.955 81.7153C101.679 81.6677 101.395 81.7312 101.166 81.892L60.4133 110.619Z" fill="#E6E6E6"/>
<path d="M64.0812 115.789C63.8519 115.951 63.6962 116.196 63.6483 116.472C63.6005 116.747 63.6643 117.031 63.8258 117.259C63.9874 117.488 64.2334 117.643 64.5098 117.691C64.7863 117.739 65.0705 117.676 65.3001 117.515L65.3038 117.513L97.3668 94.9109C97.596 94.7493 97.7515 94.5035 97.799 94.2276C97.8465 93.9517 97.782 93.6684 97.6199 93.4398C97.5396 93.3267 97.4378 93.2304 97.3202 93.1564C97.2026 93.0825 97.0715 93.0324 96.9345 93.009C96.6577 92.9616 96.3734 93.0259 96.1442 93.1875L64.0812 115.789Z" fill="#E6E6E6"/>
<path d="M120.546 92.1809L47.383 143.755L29.8506 119.041L103.014 67.4666L120.546 92.1809ZM47.8101 141.273L118.056 91.7551L102.586 69.9484L32.3403 119.466L47.8101 141.273Z" fill="#E6E6E6"/>
<path d="M287.606 83.0242C287.865 83.0142 288.124 83.0582 288.366 83.1532C288.595 83.2447 288.803 83.3825 288.976 83.5579C289.15 83.7344 289.286 83.9446 289.375 84.1755C289.469 84.4202 289.512 84.6816 289.501 84.9436C289.491 85.2123 289.428 85.4765 289.317 85.7214C289.208 85.9616 289.056 86.1801 288.869 86.3664C288.683 86.5516 288.465 86.7016 288.225 86.8088C287.982 86.9177 287.719 86.9776 287.452 86.9849C287.193 86.9927 286.934 86.9464 286.693 86.8491C286.465 86.7562 286.259 86.6173 286.087 86.4412C285.914 86.2642 285.78 86.0539 285.692 85.8233C285.6 85.5794 285.558 85.3193 285.569 85.0587C285.58 84.7913 285.643 84.5285 285.753 84.2848C285.862 84.0469 286.012 83.8304 286.197 83.6456C286.382 83.4607 286.598 83.3107 286.836 83.2029C287.079 83.0935 287.34 83.0328 287.606 83.0242Z" fill="#F2F2F2"/>
<path d="M81.9121 108.165L77.1544 82.2385L77.4895 66.205L66.7666 65.871L68.7772 83.9086L75.7104 108.921C75.1349 109.618 74.7823 110.471 74.698 111.37C74.6137 112.269 74.8016 113.173 75.2375 113.964C75.6734 114.756 76.3372 115.399 77.1433 115.811C77.9494 116.223 78.8608 116.384 79.7599 116.274C80.6589 116.165 81.5044 115.789 82.1872 115.196C82.87 114.603 83.3588 113.819 83.5904 112.946C83.8221 112.073 83.786 111.151 83.4869 110.299C83.1877 109.447 82.6392 108.703 81.9121 108.165Z" fill="#FFB8B8"/>
<path d="M66.0967 67.5412C69.9816 66.0661 74.275 66.0661 78.1599 67.5412L77.4898 54.1799C77.4898 53.4781 77.3511 52.7831 77.0817 52.1347C76.8122 51.4863 76.4173 50.8971 75.9194 50.4008C75.4216 49.9045 74.8305 49.5108 74.1801 49.2423C73.5296 48.9737 72.8324 48.8354 72.1283 48.8354C71.4242 48.8354 70.7271 48.9737 70.0766 49.2423C69.4261 49.5108 68.8351 49.9045 68.3372 50.4008C67.8393 50.8971 67.4444 51.4863 67.175 52.1347C66.9055 52.7831 66.7669 53.4781 66.7669 54.1799L66.0967 67.5412Z" fill="#018780"/>
</g>
<defs>
<clipPath id="clip0_1092_22913">
<rect width="293" height="181" fill="white"/>
</clipPath>
</defs>
</svg>
