<svg width="241" height="233" viewBox="0 0 241 233" fill="none" xmlns="http://www.w3.org/2000/svg">
<g clip-path="url(#clip0_1156_27639)">
<path d="M56.4902 157.41C56.0452 158.152 55.3442 158.705 54.5202 158.963C53.6962 159.221 52.8066 159.166 52.0203 158.809C51.2339 158.451 50.6056 157.817 50.2545 157.025C49.9033 156.234 49.8539 155.34 50.1156 154.514L36.5039 126.438L43.0195 122.472L54.7748 152.294C54.8197 152.311 54.864 152.33 54.9076 152.349C54.9512 152.369 54.9946 152.389 55.0378 152.409L55.1681 152.475C55.2117 152.497 55.2541 152.521 55.295 152.548C56.0956 153.033 56.6715 153.817 56.896 154.729C57.1206 155.64 56.9754 156.604 56.4925 157.408L56.4902 157.41Z" fill="#FEB8B8"/>
<path d="M39.1007 137.264L48.7701 134.776C48.7701 134.776 48.4543 134.059 47.9412 132.872C47.4281 131.685 46.7112 130.028 45.9048 128.15C45.0983 126.272 44.2037 124.171 43.3295 122.095C42.4554 120.019 41.604 117.968 40.8897 116.19C40.1754 114.413 39.3596 113.347 38.5434 112.751C37.8668 112.235 37.0148 112.008 36.1722 112.119C35.5174 112.216 34.8916 112.456 34.3377 112.82C34.0754 112.983 33.8289 113.171 33.6012 113.381L31.3594 117.474L39.1007 137.264Z" fill="#CCCCCC"/>
<path d="M29.4922 212.885L35.4097 212.861L33.5016 228.386L29.4922 228.406V212.885Z" fill="#FEB8B8"/>
<path d="M28.4701 232.312L41.3909 232.243V232.08C41.3907 231.747 41.358 231.415 41.2932 231.088C41.1662 230.444 40.913 229.831 40.5483 229.286C40.1779 228.733 39.7032 228.259 39.151 227.89C38.606 227.526 37.9946 227.275 37.3522 227.15C37.0265 227.087 36.6954 227.056 36.3638 227.058L28.4688 227.097L28.4701 232.312Z" fill="#2F2E41"/>
<path d="M48.4375 212.811L54.3381 212.788L52.4361 228.291L48.4378 228.312L48.4375 212.811Z" fill="#FEB8B8"/>
<path d="M47.4186 232.211L60.3056 232.143V231.98C60.3053 231.647 60.2726 231.316 60.2079 230.99C60.0812 230.346 59.8287 229.735 59.465 229.19C59.0957 228.638 58.622 228.164 58.0709 227.795C57.5275 227.432 56.9178 227.181 56.277 227.057C55.9522 226.994 55.622 226.963 55.2912 226.966L47.418 227.004L47.4186 232.211Z" fill="#2F2E41"/>
<path d="M48.6906 149.359L58.613 186.536L54.9809 222.174L46.9394 222.397L48.6903 190.218L38.6579 174.159L36.4822 222.615L29.1865 222.098L25.1296 180.435C23.7513 177.182 22.7405 173.784 22.1161 170.305C21.6254 167.574 21.3867 164.803 21.4031 162.028C21.4114 160.16 21.5544 158.295 21.8309 156.447C21.9297 155.759 22.0635 155.076 22.2317 154.401L25.1901 151.39L48.6906 149.359Z" fill="#2F2E41"/>
<path d="M35.542 155.577C37.2105 155.577 38.7765 155.524 40.1976 155.417C41.6479 155.317 43.0906 155.127 44.5173 154.847C45.7319 154.619 46.9147 154.245 48.0402 153.733C48.9463 153.34 49.7342 152.716 50.3254 151.922L50.3931 151.824L47.6811 134.103L44.7566 114.178C44.5644 112.859 43.8958 111.658 42.8782 110.802C41.8606 109.946 40.5651 109.496 39.2382 109.537L30.0787 109.818C28.7178 109.86 27.4292 110.443 26.4964 111.439C25.5636 112.435 25.063 113.762 25.1047 115.128C25.1063 115.18 25.1086 115.232 25.1118 115.283L26.3141 135.099L21.8789 154.646L22.1931 154.69C22.3194 154.707 22.8061 154.771 23.5686 154.857C24.5652 154.97 25.5829 155.071 26.5931 155.159C28.0224 155.282 29.4213 155.38 30.7503 155.448C32.4345 155.534 34.0499 155.576 35.542 155.577Z" fill="#CCCCCC"/>
<path d="M40.6263 106.016H40.6335C41.0216 106.015 41.3936 105.86 41.6678 105.584C41.9419 105.309 42.0959 104.935 42.0959 104.545V96.347C42.0974 94.8781 41.8047 93.4239 41.2351 92.0709C40.1196 89.4302 38.032 87.3237 35.4075 86.1904C33.7479 85.4757 31.9376 85.1855 30.1389 85.3456C28.3401 85.5057 26.609 86.1112 25.1005 87.1078C23.592 88.1045 22.3532 89.4612 21.4951 91.0565C20.637 92.6518 20.1864 94.4359 20.1836 96.2489V104.46C20.1833 104.658 20.2228 104.854 20.2995 105.036C20.4498 105.391 20.7309 105.673 21.0841 105.825C21.2654 105.903 21.4603 105.943 21.6574 105.944L40.6263 106.016Z" fill="#2F2E41"/>
<path d="M26.1922 93.5353C25.4281 94.9364 25.0947 96.5335 25.2341 98.1247C25.3735 99.716 25.9794 101.23 26.9754 102.476C27.9714 103.722 29.3127 104.643 30.83 105.124C32.3472 105.605 33.9724 105.623 35.5002 105.177C36.512 104.885 37.4561 104.395 38.2777 103.734C39.0993 103.073 39.7822 102.255 40.2867 101.328C41.0489 99.927 41.381 98.3313 41.2412 96.7415C41.1014 95.1517 40.4959 93.639 39.5011 92.3942C38.5062 91.1495 37.1665 90.2283 35.651 89.7468C34.1354 89.2654 32.5118 89.2453 30.9849 89.689C29.9723 89.9798 29.0273 90.4695 28.2047 91.1299C27.3821 91.7902 26.6982 92.6079 26.1928 93.5356L26.1922 93.5353Z" fill="#FEB8B8"/>
<path d="M44.6857 97.0145C44.6867 95.8528 44.4551 94.7028 44.0046 93.6327C43.1227 91.5448 41.4722 89.8793 39.3972 88.9833C38.3325 88.5253 37.1871 88.287 36.0288 88.2825L34.3945 88.2743H34.3395C32.0538 88.2758 29.8623 89.1888 28.247 90.8125C26.6318 92.4362 25.7252 94.6376 25.7266 96.9325V97.0959L29.1841 97.11L30.363 93.803L30.5987 97.1165L32.3844 97.1243L32.9789 95.4573L33.0981 97.1279L44.6841 97.1799L44.6857 97.0145Z" fill="#2F2E41"/>
<path d="M58.6079 114.262C59.1401 114.393 59.6377 114.639 60.0664 114.981C60.4014 115.248 60.6878 115.57 60.9129 115.935C61.3571 116.656 61.5528 117.505 61.47 118.349C61.4281 118.775 61.3129 119.191 61.1294 119.578C60.9033 120.06 60.5778 120.489 60.1746 120.835C59.7713 121.182 59.2994 121.439 58.7899 121.589C58.2805 121.739 57.7452 121.779 57.2194 121.706C56.6935 121.633 56.189 121.449 55.7393 121.165C55.7061 121.144 55.6735 121.122 55.6416 121.1C55.6097 121.078 55.5778 121.056 55.5459 121.032C55.5144 121.009 55.4834 120.986 55.4528 120.962C55.4222 120.938 55.3919 120.914 55.362 120.889L36.2837 127.707C35.6966 127.917 35.0576 127.929 34.4629 127.743C33.8682 127.556 33.3499 127.181 32.986 126.673L28.4609 120.385L33.9305 116.688L36.7994 119.96L54.2602 116.472C54.2794 116.427 54.2991 116.382 54.3195 116.337C54.3399 116.292 54.3616 116.247 54.3846 116.202C54.4063 116.159 54.4295 116.115 54.4543 116.07C54.479 116.025 54.5043 115.981 54.5301 115.939C54.9468 115.263 55.5657 114.737 56.2983 114.436C57.0308 114.135 57.8395 114.074 58.6085 114.263L58.6079 114.262Z" fill="#FEB8B8"/>
<path d="M36.4914 117.895C35.9206 117.18 35.124 116.252 34.312 115.33C33.5 114.409 32.6786 113.497 32.0578 112.814C31.4369 112.13 31.0195 111.678 31.0195 111.678C30.4466 110.809 29.5916 110.165 28.5996 109.857C27.6076 109.548 26.5398 109.594 25.5777 109.986C24.6155 110.379 23.8183 111.093 23.3215 112.009C22.8246 112.924 22.6587 113.984 22.852 115.009C22.9624 115.599 23.1906 116.16 23.5227 116.659C23.5227 116.659 24.1452 117.476 25.0854 118.697C26.0256 119.918 27.282 121.543 28.5501 123.158C29.8182 124.774 31.0986 126.381 32.0858 127.567C33.0729 128.753 33.768 129.52 33.8656 129.454L37.3092 119.177C37.4065 119.111 37.0621 118.61 36.4914 117.895Z" fill="#CCCCCC"/>
<path d="M34.4455 105.758C34.4997 106.023 34.4787 106.298 34.3849 106.551C34.3378 106.681 34.2728 106.804 34.1919 106.915C34.1226 107.011 34.0424 107.097 33.9529 107.174C33.6876 107.399 33.351 107.522 33.0035 107.52C32.9818 107.52 32.9601 107.519 32.9384 107.518C32.9167 107.517 32.895 107.515 32.8733 107.514C32.8516 107.512 32.8299 107.509 32.8082 107.506C32.7865 107.503 32.7648 107.5 32.7431 107.496L31.516 107.272L29.8257 103.646V106.967L24.2461 105.959V91.8656L33.5997 91.9107L33.3685 92.1804C32.601 93.0852 32.0969 94.185 31.9119 95.3589C31.7305 96.5478 31.7532 97.7592 31.9793 98.9404C32.199 100.136 32.5325 101.307 32.9752 102.438C33.3622 103.44 33.8063 104.419 34.3055 105.37C34.37 105.492 34.4171 105.622 34.4455 105.758Z" fill="#2F2E41"/>
<path d="M240.645 233H0V232.312H241L240.645 233Z" fill="#CACACA"/>
<path d="M176.859 55.206H175.59V20.2383C175.59 14.8707 173.466 9.72306 169.686 5.92765C165.905 2.13224 160.778 2.63997e-09 155.432 2.63997e-09H81.6422C78.9951 -4.29231e-05 76.3739 0.523393 73.9283 1.54042C71.4826 2.55745 69.2604 4.04815 67.3886 5.92742C65.5168 7.80668 64.032 10.0377 63.0189 12.4931C62.0058 14.9485 61.4844 17.5802 61.4844 20.2379V212.074C61.4844 214.731 62.0058 217.363 63.0188 219.819C64.0318 222.274 65.5166 224.505 67.3884 226.384C69.2602 228.264 71.4823 229.754 73.928 230.771C76.3736 231.788 78.9948 232.312 81.6419 232.312H155.431C160.777 232.312 165.905 230.18 169.685 226.384C173.465 222.589 175.589 217.441 175.589 212.074V80.0966H176.858L176.859 55.206Z" fill="#3F3D56"/>
<path d="M171.481 18.8827V213.429C171.481 217.498 169.87 221.401 167.004 224.279C164.139 227.157 160.252 228.774 156.198 228.776H80.8945C76.8395 228.776 72.9504 227.16 70.0825 224.282C67.2146 221.404 65.6028 217.5 65.6016 213.429V18.8827C65.6028 14.8117 67.2145 10.9079 70.0823 8.02982C72.9501 5.15178 76.839 3.53525 80.8938 3.53577H90.0286C89.5801 4.6432 89.4094 5.84431 89.5315 7.0335C89.6535 8.2227 90.0647 9.36357 90.7288 10.3559C91.3929 11.3481 92.2897 12.1614 93.3402 12.7243C94.3907 13.2871 95.5628 13.5823 96.7535 13.5838H139.686C140.876 13.5823 142.048 13.2871 143.099 12.7243C144.149 12.1614 145.046 11.3481 145.71 10.3559C146.374 9.36357 146.786 8.2227 146.908 7.0335C147.03 5.84431 146.859 4.6432 146.41 3.53577H156.195C160.249 3.53646 164.136 5.15319 167.002 8.03051C169.869 10.9078 171.48 14.8102 171.481 18.8798V18.8827Z" fill="white"/>
<path d="M119.345 96.7129C110.771 96.7161 102.547 93.2999 96.4824 87.2156C90.4173 81.1314 87.0079 72.8775 87.0039 64.2696V64.2408C87.0039 64.1728 87.0039 64.1012 87.0078 64.0332C87.1055 46.2514 101.614 31.771 119.345 31.771C127.922 31.7705 136.148 35.191 142.214 41.2801C148.279 47.3692 151.687 55.628 151.688 64.2397C151.688 72.8514 148.281 81.1105 142.216 87.2003C136.152 93.29 127.926 96.7114 119.348 96.7119H119.345V96.7129ZM119.345 32.4542C110.986 32.4729 102.973 35.8026 97.0452 41.7197C91.1178 47.6368 87.7555 55.6633 87.6889 64.0551C87.6853 64.1277 87.6853 64.1859 87.6853 64.2411C87.6846 70.5288 89.5409 76.6754 93.0195 81.9039C96.4982 87.1323 101.443 91.2076 107.228 93.6145C113.014 96.0214 119.381 96.6517 125.523 95.4258C131.665 94.1999 137.308 91.1729 141.737 86.7274C146.165 82.2819 149.182 76.6177 150.404 70.451C151.627 64.2843 151.001 57.8921 148.605 52.0828C146.209 46.2735 142.151 41.3079 136.944 37.8141C131.738 34.3202 125.616 32.4549 119.353 32.4542H119.345Z" fill="#CCCCCC"/>
<path d="M152.788 130.852H85.8719C85.5434 130.852 85.2284 130.721 84.9961 130.488C84.7638 130.254 84.6332 129.938 84.6328 129.608V112.943C84.6332 112.613 84.7639 112.297 84.9962 112.064C85.2285 111.831 85.5434 111.699 85.8719 111.699H152.788C153.117 111.699 153.432 111.831 153.664 112.064C153.896 112.297 154.027 112.613 154.027 112.943V129.609C154.027 129.938 153.896 130.255 153.664 130.488C153.432 130.721 153.117 130.852 152.788 130.853V130.852ZM85.8719 112.196C85.6748 112.197 85.4857 112.275 85.3463 112.415C85.2069 112.555 85.1285 112.745 85.1283 112.943V129.609C85.1285 129.807 85.2069 129.996 85.3463 130.136C85.4857 130.276 85.6748 130.355 85.8719 130.355H152.788C152.985 130.355 153.174 130.276 153.314 130.136C153.453 129.996 153.532 129.807 153.532 129.609V112.943C153.532 112.745 153.453 112.555 153.314 112.415C153.174 112.275 152.985 112.197 152.788 112.196H85.8719Z" fill="#E6E6E6"/>
<path d="M94.5483 126.501C97.4227 126.501 99.7528 124.161 99.7528 121.275C99.7528 118.389 97.4227 116.05 94.5483 116.05C91.6739 116.05 89.3438 118.389 89.3438 121.275C89.3438 124.161 91.6739 126.501 94.5483 126.501Z" fill="#CCCCCC"/>
<path d="M106.567 117.792C106.337 117.792 106.116 117.884 105.953 118.047C105.791 118.21 105.699 118.432 105.699 118.663C105.699 118.894 105.791 119.115 105.953 119.279C106.116 119.442 106.337 119.534 106.567 119.534H147.46C147.69 119.542 147.914 119.459 148.082 119.302C148.251 119.145 148.351 118.927 148.36 118.697C148.369 118.466 148.286 118.241 148.129 118.071C147.973 117.902 147.756 117.802 147.526 117.793C147.513 117.792 147.501 117.792 147.488 117.792H106.567V117.792Z" fill="#E6E6E6"/>
<path d="M106.567 123.017C106.337 123.017 106.116 123.109 105.953 123.272C105.791 123.435 105.699 123.657 105.699 123.888C105.699 124.119 105.791 124.34 105.953 124.504C106.116 124.667 106.337 124.759 106.567 124.759H147.46C147.69 124.768 147.914 124.684 148.082 124.527C148.251 124.37 148.351 124.152 148.36 123.922C148.369 123.691 148.286 123.466 148.129 123.296C147.973 123.127 147.756 123.027 147.526 123.018C147.513 123.017 147.501 123.017 147.488 123.017L106.567 123.017Z" fill="#E6E6E6"/>
<path d="M152.788 158.721H85.8719C85.5434 158.721 85.2284 158.589 84.9961 158.356C84.7638 158.123 84.6332 157.807 84.6328 157.477V140.812C84.6332 140.482 84.7639 140.166 84.9962 139.932C85.2285 139.699 85.5434 139.568 85.8719 139.568H152.788C153.117 139.568 153.432 139.699 153.664 139.932C153.896 140.166 154.027 140.482 154.027 140.812V157.477C154.027 157.807 153.896 158.123 153.664 158.356C153.431 158.589 153.117 158.721 152.788 158.721ZM85.8719 140.065C85.6748 140.065 85.4857 140.144 85.3463 140.284C85.2069 140.424 85.1285 140.614 85.1283 140.812V157.477C85.1285 157.675 85.2069 157.865 85.3463 158.005C85.4857 158.145 85.6748 158.224 85.8719 158.224H152.788C152.985 158.224 153.174 158.145 153.314 158.005C153.453 157.865 153.532 157.675 153.532 157.477V140.812C153.532 140.614 153.453 140.424 153.314 140.284C153.174 140.144 152.985 140.065 152.788 140.065H85.8719Z" fill="#E6E6E6"/>
<path d="M94.5483 154.37C97.4227 154.37 99.7528 152.03 99.7528 149.144C99.7528 146.258 97.4227 143.919 94.5483 143.919C91.6739 143.919 89.3438 146.258 89.3438 149.144C89.3438 152.03 91.6739 154.37 94.5483 154.37Z" fill="#CCCCCC"/>
<path d="M106.567 145.66C106.337 145.66 106.116 145.751 105.953 145.915C105.791 146.078 105.699 146.3 105.699 146.53C105.699 146.761 105.791 146.983 105.953 147.146C106.116 147.31 106.337 147.401 106.567 147.401H147.46C147.686 147.4 147.904 147.31 148.065 147.15C148.226 146.989 148.319 146.772 148.322 146.545C148.326 146.317 148.241 146.097 148.085 145.931C147.929 145.766 147.715 145.669 147.488 145.66L106.567 145.66Z" fill="#E6E6E6"/>
<path d="M106.567 150.886C106.337 150.886 106.116 150.978 105.953 151.141C105.791 151.304 105.699 151.526 105.699 151.757C105.699 151.988 105.791 152.209 105.953 152.373C106.116 152.536 106.337 152.628 106.567 152.628H147.46C147.686 152.627 147.904 152.536 148.065 152.376C148.226 152.216 148.319 151.999 148.322 151.771C148.326 151.543 148.241 151.323 148.085 151.158C147.929 150.993 147.715 150.895 147.488 150.886L106.567 150.886Z" fill="#E6E6E6"/>
<path d="M152.788 186.589H85.8719C85.5434 186.589 85.2284 186.458 84.9961 186.225C84.7638 185.991 84.6332 185.675 84.6328 185.345V168.68C84.6332 168.35 84.7639 168.034 84.9962 167.801C85.2285 167.568 85.5434 167.436 85.8719 167.436H152.788C153.117 167.436 153.432 167.568 153.664 167.801C153.896 168.034 154.027 168.35 154.027 168.68V185.346C154.027 185.675 153.896 185.992 153.664 186.225C153.432 186.458 153.117 186.589 152.788 186.59V186.589ZM85.8719 167.934C85.6748 167.934 85.4857 168.012 85.3463 168.152C85.2069 168.292 85.1285 168.482 85.1283 168.68V185.346C85.1285 185.544 85.2069 185.733 85.3463 185.873C85.4857 186.013 85.6748 186.092 85.8719 186.092H152.788C152.985 186.092 153.174 186.013 153.314 185.873C153.453 185.733 153.532 185.544 153.532 185.346V168.68C153.532 168.482 153.453 168.292 153.314 168.152C153.174 168.012 152.985 167.934 152.788 167.934H85.8719Z" fill="#E6E6E6"/>
<path d="M94.5483 182.238C97.4227 182.238 99.7528 179.899 99.7528 177.013C99.7528 174.127 97.4227 171.788 94.5483 171.788C91.6739 171.788 89.3438 174.127 89.3438 177.013C89.3438 179.899 91.6739 182.238 94.5483 182.238Z" fill="#CCCCCC"/>
<path d="M106.567 173.529C106.337 173.529 106.116 173.621 105.953 173.784C105.791 173.947 105.699 174.169 105.699 174.4C105.699 174.631 105.791 174.852 105.953 175.016C106.116 175.179 106.337 175.271 106.567 175.271H147.46C147.69 175.28 147.914 175.196 148.082 175.039C148.251 174.882 148.351 174.665 148.36 174.434C148.369 174.203 148.286 173.978 148.129 173.808C147.973 173.639 147.756 173.539 147.526 173.53C147.513 173.529 147.501 173.529 147.488 173.529L106.567 173.529Z" fill="#E6E6E6"/>
<path d="M106.567 178.755C106.337 178.755 106.116 178.846 105.953 179.01C105.791 179.173 105.699 179.395 105.699 179.626C105.699 179.857 105.791 180.078 105.953 180.241C106.116 180.405 106.337 180.497 106.567 180.497H147.46C147.573 180.501 147.687 180.483 147.794 180.443C147.901 180.403 147.999 180.343 148.082 180.265C148.166 180.187 148.234 180.094 148.281 179.99C148.329 179.886 148.356 179.774 148.36 179.659C148.364 179.545 148.346 179.431 148.307 179.324C148.267 179.216 148.207 179.118 148.129 179.034C148.052 178.95 147.959 178.882 147.855 178.835C147.752 178.787 147.64 178.76 147.526 178.756C147.513 178.755 147.501 178.755 147.488 178.755L106.567 178.755Z" fill="#E6E6E6"/>
<path d="M79.2341 141.364H91.5709C92.3425 135.647 90.6401 130.311 91.5709 126.5H79.2341C76.9115 131.455 76.9115 136.41 79.2341 141.364Z" fill="#018780"/>
<path d="M159.325 170.046H146.988C147.451 164.331 148.942 158.994 146.988 155.182H159.325C161.648 160.137 161.648 165.091 159.325 170.046Z" fill="#018780"/>
<path d="M136.505 198.843H124.168C124.631 193.128 126.121 187.792 124.168 183.98H136.505C138.828 188.934 138.828 193.889 136.505 198.843Z" fill="#018780"/>
<path d="M135.876 92.2484C130.804 95.3372 124.949 96.8828 119.02 96.6978C113.092 96.5128 107.343 94.6051 102.473 91.206C103.494 89.0486 105.104 87.2258 107.115 85.9491C109.126 84.6724 111.456 83.9939 113.835 83.9923H124.077C126.649 83.9921 129.159 84.7836 131.269 86.2601C133.378 87.7365 134.987 89.8271 135.877 92.2497L135.876 92.2484Z" fill="#018780"/>
<path d="M105.376 62.4387C106.925 57.4823 110.448 52.9365 115.319 51.2597C120.191 49.5828 128.69 51.1501 130.987 55.8012C134.298 62.5044 132.81 70.7131 131.055 77.9909C130.14 77.9422 129.216 77.9039 128.288 77.8693L126.977 73.483V77.8261C119.744 77.6016 112.215 77.7421 104.681 77.8876C104.007 72.7361 103.827 67.395 105.376 62.4387Z" fill="#2F2E41"/>
<path d="M115.99 78.3933C122.115 78.3933 127.081 73.4077 127.081 67.2577C127.081 61.1077 122.115 56.1222 115.99 56.1222C109.864 56.1222 104.898 61.1077 104.898 67.2577C104.898 73.4077 109.864 78.3933 115.99 78.3933Z" fill="#FEB8B8"/>
<path d="M108.756 53.8412C110.763 52.6124 113.063 51.9477 115.414 51.9166C117.765 51.8854 120.081 52.489 122.12 53.6643C124.159 54.8395 125.846 56.5432 127.005 58.5972C128.164 60.6512 128.752 62.98 128.707 65.3403C122.867 65.6099 116.732 65.6802 110.511 65.6923L109.04 62.0794L108.174 65.6946C106.278 65.6946 104.379 65.6921 102.476 65.6871C102.399 63.3335 102.938 61.0007 104.04 58.9219C105.142 56.8432 106.768 55.0912 108.756 53.8412Z" fill="#2F2E41"/>
<path d="M219.526 222.486C219.439 225.75 218.894 228.985 217.908 232.096C217.886 232.168 217.862 232.239 217.839 232.311H211.802C211.808 232.246 211.815 232.174 211.821 232.096C212.223 227.45 214.544 199.175 211.77 194.339C212.012 194.732 219.993 207.724 219.526 222.486Z" fill="#F0F0F0"/>
<path d="M218.556 231.861C218.45 232.012 218.34 232.163 218.228 232.312H208.758C208.83 232.183 208.913 232.032 209.009 231.861C210.574 229.026 215.204 220.551 219.503 211.763C224.123 202.32 228.361 192.519 228.004 188.971C228.113 189.771 231.309 214.161 218.556 231.861Z" fill="#F0F0F0"/>
</g>
<defs>
<clipPath id="clip0_1156_27639">
<rect width="241" height="233" fill="white"/>
</clipPath>
</defs>
</svg>
