<svg width="233" height="232" viewBox="0 0 233 232" fill="none" xmlns="http://www.w3.org/2000/svg">
<g clip-path="url(#clip0_1092_22974)">
<path d="M153.688 61.4654H115.445C114.608 61.4679 113.781 61.2794 113.028 60.914C112.274 60.5487 111.614 60.0163 111.097 59.3572C110.571 58.6919 110.204 57.9153 110.023 57.0865C109.842 56.2577 109.853 55.3985 110.054 54.5743C113.578 39.8035 113.578 24.41 110.053 9.63927C109.852 8.81513 109.842 7.956 110.023 7.12723C110.204 6.29846 110.571 5.5219 111.097 4.85662C111.614 4.19752 112.274 3.66506 113.028 3.29973C113.781 2.93441 114.608 2.74586 115.445 2.74844H153.688C155.009 2.75224 156.285 3.22484 157.289 4.08207C158.294 4.9393 158.962 6.12551 159.174 7.4294C161.691 23.7847 161.691 40.4291 159.174 56.7844C158.962 58.0883 158.294 59.2745 157.289 60.1318C156.285 60.989 155.009 61.4616 153.688 61.4654Z" fill="#E6E6E6"/>
<path d="M115.445 5.62746C115.043 5.6261 114.646 5.71652 114.284 5.89184C113.922 6.06715 113.605 6.32273 113.357 6.63914C113.101 6.96333 112.923 7.34159 112.835 7.74515C112.748 8.14871 112.753 8.56694 112.852 8.96802C116.482 24.1802 116.482 40.0336 112.852 55.2458C112.753 55.6468 112.748 56.0649 112.835 56.4684C112.923 56.8719 113.101 57.2501 113.357 57.5742C113.605 57.8907 113.922 58.1466 114.284 58.3219C114.646 58.4973 115.043 58.5877 115.445 58.5864H153.688C154.322 58.5866 154.936 58.3616 155.42 57.9515C155.904 57.5414 156.226 56.9728 156.33 56.347C158.802 40.2816 158.802 23.9322 156.33 7.86683C156.226 7.24099 155.904 6.6724 155.42 6.26231C154.936 5.85221 154.322 5.62723 153.688 5.62745L115.445 5.62746Z" fill="white"/>
<path d="M145.342 19.4711H125.274C124.511 19.4703 123.78 19.1667 123.24 18.627C122.701 18.0872 122.397 17.3555 122.396 16.5922V15.4672C122.397 14.7039 122.701 13.9721 123.24 13.4324C123.78 12.8927 124.511 12.5891 125.274 12.5883H145.342C146.105 12.5891 146.837 12.8927 147.376 13.4324C147.915 13.9721 148.219 14.7039 148.22 15.4672V16.5922C148.219 17.3555 147.915 18.0873 147.376 18.627C146.837 19.1667 146.105 19.4703 145.342 19.4711Z" fill="#E6E6E6"/>
<path d="M145.342 33.6865H125.274C124.511 33.6857 123.78 33.3821 123.24 32.8424C122.701 32.3027 122.397 31.5709 122.396 30.8076V29.6826C122.397 28.9193 122.701 28.1875 123.24 27.6478C123.78 27.1081 124.511 26.8045 125.274 26.8037H145.342C146.105 26.8045 146.837 27.1081 147.376 27.6478C147.915 28.1875 148.219 28.9193 148.22 29.6826V30.8076C148.219 31.5709 147.915 32.3027 147.376 32.8424C146.837 33.3821 146.105 33.6857 145.342 33.6865Z" fill="#E6E6E6"/>
<path d="M145.342 47.902H125.274C124.511 47.9011 123.78 47.5976 123.24 47.0578C122.701 46.5181 122.397 45.7864 122.396 45.0231V43.8981C122.397 43.1348 122.701 42.403 123.24 41.8633C123.78 41.3236 124.511 41.02 125.274 41.0192H145.342C146.105 41.02 146.837 41.3236 147.376 41.8633C147.915 42.403 148.219 43.1348 148.22 43.8981V45.0231C148.219 45.7864 147.915 46.5181 147.376 47.0578C146.837 47.5976 146.105 47.9011 145.342 47.902Z" fill="#E6E6E6"/>
<path d="M225.626 97.9329H187.383C186.545 97.9355 185.719 97.7469 184.965 97.3816C184.212 97.0163 183.552 96.4838 183.035 95.8247C182.509 95.1595 182.141 94.3829 181.96 93.554C181.779 92.7252 181.79 91.866 181.991 91.0419C185.516 76.2711 185.516 60.8776 181.991 46.1068C181.79 45.2827 181.779 44.4235 181.96 43.5948C182.141 42.766 182.509 41.9894 183.035 41.3241C183.552 40.6651 184.212 40.1326 184.965 39.7673C185.719 39.4019 186.545 39.2134 187.383 39.216H225.626C226.946 39.2198 228.222 39.6924 229.227 40.5496C230.232 41.4068 230.9 42.593 231.112 43.8969C233.629 60.2522 233.629 76.8966 231.112 93.2519C230.9 94.5558 230.232 95.7421 229.227 96.5993C228.222 97.4565 226.946 97.9291 225.626 97.9329Z" fill="#E6E6E6"/>
<path d="M187.383 42.095C186.981 42.0936 186.584 42.184 186.222 42.3594C185.86 42.5347 185.543 42.7903 185.294 43.1067C185.039 43.4309 184.86 43.8091 184.773 44.2127C184.685 44.6162 184.691 45.0345 184.789 45.4356C188.419 60.6477 188.419 76.5012 184.789 91.7133C184.691 92.1143 184.685 92.5325 184.773 92.936C184.86 93.3395 185.039 93.7176 185.294 94.0418C185.542 94.3582 185.86 94.6141 186.222 94.7895C186.584 94.9648 186.981 95.0553 187.383 95.0539H225.626C226.26 95.0541 226.873 94.8292 227.357 94.4191C227.841 94.009 228.164 93.4404 228.268 92.8145C230.74 76.7491 230.74 60.3998 228.268 44.3344C228.164 43.7085 227.841 43.1399 227.357 42.7298C226.873 42.3197 226.26 42.0948 225.626 42.095L187.383 42.095Z" fill="white"/>
<path d="M149.372 139.439H111.128C110.255 139.441 109.392 139.244 108.606 138.863C107.82 138.482 107.132 137.927 106.592 137.239C106.044 136.545 105.66 135.735 105.472 134.871C105.283 134.007 105.294 133.111 105.504 132.252C109.02 117.518 109.019 102.162 105.503 87.4285C105.294 86.5691 105.283 85.6732 105.472 84.809C105.66 83.9448 106.044 83.135 106.592 82.4413C107.131 81.7537 107.82 81.1981 108.606 80.817C109.392 80.4358 110.255 80.2391 111.128 80.2417H149.372C150.749 80.2458 152.08 80.7391 153.129 81.6335C154.177 82.528 154.873 83.7657 155.094 85.1261C157.615 101.506 157.615 118.175 155.094 134.554C154.873 135.915 154.177 137.152 153.129 138.047C152.08 138.941 150.749 139.434 149.372 139.439Z" fill="#F2F2F2"/>
<path d="M217.282 63.136H197.213C196.45 63.1352 195.719 62.8316 195.18 62.2919C194.64 61.7522 194.337 61.0204 194.336 60.2571V59.1321C194.337 58.3688 194.64 57.637 195.18 57.0973C195.719 56.5576 196.45 56.254 197.213 56.2532H217.282C218.045 56.254 218.776 56.5576 219.315 57.0973C219.855 57.637 220.158 58.3688 220.159 59.1321V60.2571C220.158 61.0204 219.855 61.7522 219.315 62.2919C218.776 62.8316 218.045 63.1352 217.282 63.136Z" fill="#E6E6E6"/>
<path d="M217.282 77.3514H197.213C196.45 77.3506 195.719 77.047 195.18 76.5073C194.64 75.9676 194.337 75.2358 194.336 74.4726V73.3475C194.337 72.5842 194.64 71.8525 195.18 71.3127C195.719 70.773 196.45 70.4695 197.213 70.4686H217.282C218.045 70.4695 218.776 70.773 219.315 71.3127C219.855 71.8525 220.158 72.5842 220.159 73.3475V74.4726C220.158 75.2358 219.855 75.9676 219.315 76.5073C218.776 77.047 218.045 77.3506 217.282 77.3514Z" fill="#E6E6E6"/>
<path d="M130.357 120.678C136.449 120.678 141.387 115.737 141.387 109.642C141.387 103.547 136.449 98.606 130.357 98.606C124.265 98.606 119.326 103.547 119.326 109.642C119.326 115.737 124.265 120.678 130.357 120.678Z" fill="white"/>
<path d="M135.632 108.203H131.796V104.364C131.796 103.982 131.644 103.616 131.374 103.346C131.104 103.076 130.738 102.925 130.357 102.925C129.975 102.925 129.609 103.076 129.339 103.346C129.07 103.616 128.918 103.982 128.918 104.364V108.203H125.081C124.7 108.203 124.334 108.354 124.064 108.624C123.794 108.894 123.643 109.26 123.643 109.642C123.643 110.024 123.794 110.39 124.064 110.66C124.334 110.93 124.7 111.082 125.081 111.082H128.918V114.92C128.918 115.302 129.07 115.668 129.339 115.938C129.609 116.208 129.975 116.36 130.357 116.36C130.738 116.36 131.104 116.208 131.374 115.938C131.644 115.668 131.796 115.302 131.796 114.92V111.082H135.632C136.014 111.082 136.38 110.93 136.65 110.66C136.919 110.39 137.071 110.024 137.071 109.642C137.071 109.26 136.919 108.894 136.65 108.624C136.38 108.354 136.014 108.203 135.632 108.203Z" fill="#E6E6E6"/>
<path d="M144.266 8.15719H124.123C123.551 8.15654 123.002 7.92884 122.598 7.52404C122.193 7.11924 121.965 6.5704 121.965 5.99793V2.15926C121.965 1.58678 122.193 1.03794 122.598 0.633143C123.002 0.228344 123.551 0.000645166 124.123 0H144.266C144.838 0.000645166 145.386 0.228344 145.791 0.633143C146.196 1.03794 146.423 1.58678 146.424 2.15926V5.99793C146.423 6.5704 146.196 7.11924 145.791 7.52404C145.386 7.92884 144.838 8.15654 144.266 8.15719Z" fill="#CCCCCC"/>
<path d="M217.162 45.1045H197.019C196.447 45.1038 195.899 44.8761 195.494 44.4713C195.09 44.0665 194.862 43.5177 194.861 42.9452V39.1065C194.862 38.534 195.09 37.9852 195.494 37.5804C195.899 37.1756 196.447 36.9479 197.019 36.9473H217.162C217.734 36.9479 218.283 37.1756 218.687 37.5804C219.092 37.9852 219.32 38.534 219.32 39.1065V42.9452C219.32 43.5177 219.092 44.0665 218.687 44.4713C218.283 44.8761 217.734 45.1038 217.162 45.1045Z" fill="#CCCCCC"/>
<path d="M42.4892 226.031H48.369L50.2072 203.341H42.4883L42.4892 226.031Z" fill="#FFB8B8"/>
<path d="M40.9902 224.111L52.5693 224.11H52.5698C53.5388 224.11 54.4984 224.301 55.3937 224.672C56.289 225.043 57.1024 225.587 57.7877 226.273C58.4729 226.958 59.0164 227.772 59.3873 228.668C59.7581 229.564 59.949 230.524 59.949 231.493V231.733L40.9906 231.734L40.9902 224.111Z" fill="#2F2E41"/>
<path d="M10.8369 226.031H16.7166L19.5141 203.341H10.8359L10.8369 226.031Z" fill="#FFB8B8"/>
<path d="M9.33789 224.111L20.917 224.11H20.9174C21.8865 224.11 22.846 224.301 23.7413 224.672C24.6366 225.043 25.4501 225.587 26.1353 226.273C26.8205 226.958 27.3641 227.772 27.7349 228.668C28.1058 229.564 28.2966 230.524 28.2966 231.493V231.733L9.33826 231.734L9.33789 224.111Z" fill="#2F2E41"/>
<path d="M11.8804 218.863C11.2806 218.863 10.7028 218.637 10.2618 218.231C10.025 218.015 9.83433 217.753 9.70117 217.461C9.56802 217.17 9.49513 216.854 9.48688 216.533L7.12891 131.98L40.6095 140.354L50.9396 171.36C52.2717 175.349 52.8484 179.551 52.6399 183.752L51.3573 213.807C51.328 214.422 51.0628 215.003 50.6168 215.428C50.1707 215.854 49.5781 216.091 48.962 216.09H43.3465C42.7669 216.088 42.2076 215.876 41.7711 215.495C41.3346 215.113 41.0503 214.587 40.9702 214.013L36.9566 180.836C36.6059 178.248 35.701 175.766 34.3037 173.56L26.4051 161.048C26.3523 160.964 26.275 160.899 26.1837 160.861C26.0924 160.823 25.9917 160.814 25.8952 160.836C25.7988 160.857 25.7113 160.908 25.6448 160.981C25.5784 161.054 25.5361 161.146 25.5238 161.245L19.3253 216.468C19.2588 217.028 18.9968 217.547 18.5857 217.933C18.1745 218.318 17.6404 218.547 17.0775 218.577L12.0169 218.859C11.9713 218.862 11.9259 218.863 11.8804 218.863Z" fill="#2F2E41"/>
<path d="M35.037 77.2376C41.5424 77.2376 46.8162 71.9612 46.8162 65.4523C46.8162 58.9435 41.5424 53.6671 35.037 53.6671C28.5315 53.6671 23.2578 58.9435 23.2578 65.4523C23.2578 71.9612 28.5315 77.2376 35.037 77.2376Z" fill="#FFB8B8"/>
<path d="M40.4483 143.793C40.2456 143.793 40.0437 143.767 39.8474 143.717L6.62872 135.195C6.03481 135.043 5.52174 134.669 5.19501 134.15C4.86827 133.631 4.75269 133.006 4.87205 132.405L12.5009 91.2871C12.9762 88.9104 14.021 86.6845 15.5454 84.8007C17.0699 82.9169 19.0286 81.4315 21.2533 80.4719C23.421 79.512 25.7915 79.1007 28.1556 79.2744C30.5197 79.448 32.8048 80.2013 34.8091 81.4676C35.2742 81.7579 35.7427 82.0744 36.2012 82.4085C38.0471 83.7709 39.5524 85.5426 40.599 87.5847C41.6457 89.6268 42.2053 91.8838 42.2338 94.1785L42.8405 141.36C42.8445 141.677 42.7858 141.992 42.6675 142.287C42.5492 142.581 42.3738 142.849 42.1513 143.076C41.9289 143.302 41.6639 143.482 41.3716 143.605C41.0793 143.728 40.7655 143.792 40.4483 143.793Z" fill="#018780"/>
<path d="M10.0467 144.277C9.65043 143.693 9.38684 143.03 9.2745 142.334C9.16216 141.637 9.20381 140.925 9.39649 140.246C9.58917 139.568 9.92821 138.94 10.3897 138.406C10.8512 137.873 11.424 137.447 12.0677 137.16L10.5902 120.077L18.4199 124.322L18.6226 139.894C19.0342 141.008 19.0232 142.234 18.5915 143.34C18.1598 144.447 17.3375 145.356 16.2804 145.896C15.2233 146.437 14.0049 146.57 12.856 146.272C11.707 145.973 10.7075 145.263 10.0467 144.277Z" fill="#FFB8B8"/>
<path d="M12.8434 134.9C12.6225 134.9 12.4025 134.872 12.1884 134.817C11.7281 134.7 11.308 134.46 10.9727 134.123C10.6374 133.787 10.3993 133.366 10.2835 132.905L6.43571 117.606C5.091 112.262 5.73203 106.612 8.23955 101.706L16.3009 85.9285C16.8105 84.0395 18.0417 82.4265 19.7291 81.4374C21.4165 80.4484 23.4249 80.1625 25.321 80.6414C26.2661 80.8802 27.1544 81.3043 27.9344 81.8892C28.7145 82.474 29.3707 83.208 29.865 84.0485C30.3696 84.9011 30.6995 85.8456 30.8357 86.8269C30.9719 87.8083 30.9116 88.807 30.6583 89.7648L19.183 115.439L19.3193 130.811C19.3228 131.353 19.1598 131.883 18.8524 132.33C18.5449 132.776 18.1078 133.118 17.6002 133.308L13.76 134.735C13.4667 134.844 13.1563 134.9 12.8434 134.9Z" fill="#018780"/>
<path d="M67.7749 137.993C67.0744 137.913 66.4 137.68 65.7992 137.311C65.1984 136.942 64.6857 136.446 64.2974 135.857C63.9091 135.268 63.6545 134.601 63.5516 133.903C63.4487 133.206 63.4999 132.494 63.7018 131.818L49.7969 121.794L58.1209 118.627L70.049 128.631C71.1614 129.045 72.0831 129.853 72.6396 130.903C73.1961 131.952 73.3486 133.168 73.0683 134.322C72.788 135.476 72.0943 136.488 71.1187 137.164C70.1431 137.841 68.9534 138.135 67.7749 137.993Z" fill="#FFB8B8"/>
<path d="M60.4943 130.674C60.0844 130.673 59.6801 130.578 59.3133 130.395L45.2138 123.333C40.2891 120.866 36.4271 116.695 34.346 111.593L27.6523 95.1876C26.5538 93.5687 26.1352 91.5828 26.4866 89.6579C26.8381 87.7331 27.9315 86.0236 29.5312 84.8979C30.3304 84.3356 31.2335 83.9381 32.1878 83.7286C33.1422 83.519 34.1286 83.5017 35.0898 83.6774C36.0622 83.8524 36.9902 84.2186 37.8201 84.755C38.65 85.2914 39.3652 85.9873 39.9244 86.8022L51.8877 112.252L63.6212 122.177C64.0344 122.528 64.3299 122.997 64.4677 123.522C64.6055 124.046 64.579 124.6 64.3918 125.109L62.9675 128.952C62.7816 129.456 62.4457 129.891 62.0051 130.198C61.5621 130.507 61.0348 130.674 60.4943 130.674Z" fill="#018780"/>
<path d="M32.5634 77.418C33.1892 77.692 34.4709 72.7026 33.8968 71.7046C33.043 70.2205 33.0934 70.2312 32.5267 69.2493C31.9599 68.2674 31.8331 66.9235 32.567 66.0596C33.301 65.1956 34.9995 65.3102 35.3344 66.3934C35.119 64.336 37.153 62.6821 39.1678 62.2174C41.1826 61.7526 43.3078 62.0412 45.3337 61.6276C47.6848 61.1476 50.1311 59.1757 49.193 56.589C49.0321 56.1583 48.791 55.762 48.4827 55.421C47.3989 54.2018 45.8828 53.6812 44.4005 53.1778C41.3167 52.1306 38.1486 51.0702 34.894 51.1858C32.2125 51.3261 29.6299 52.2454 27.4625 53.8313C25.295 55.4173 23.6366 57.6009 22.6903 60.1152C22.466 60.7441 22.2922 61.39 22.1707 62.0467C21.0536 68.0562 24.5416 73.9839 30.2068 76.2724L32.5634 77.418Z" fill="#2F2E41"/>
<path opacity="0.2" d="M18.6562 131.159L18.9234 115.359L27.2888 98.5306L20.5746 115.805L18.6562 131.159Z" fill="black"/>
<path d="M94.5162 170.813L59.2002 156.132C58.426 155.813 57.7348 155.321 57.1792 154.695C56.6235 154.068 56.218 153.323 55.9936 152.516C55.7628 151.7 55.7213 150.841 55.8721 150.007C56.0229 149.172 56.3621 148.382 56.8638 147.698C65.7831 135.411 71.6862 121.196 74.0956 106.202C74.2261 105.364 74.5459 104.567 75.0308 103.871C75.5157 103.175 76.1528 102.599 76.8937 102.187C77.6237 101.776 78.4376 101.538 79.2735 101.49C80.1093 101.442 80.9451 101.585 81.7173 101.909L117.033 116.59C118.251 117.1 119.249 118.026 119.848 119.204C120.447 120.381 120.609 121.733 120.304 123.018C116.357 139.088 109.974 154.459 101.377 168.596C100.681 169.719 99.6098 170.558 98.3533 170.964C97.0968 171.37 95.737 171.316 94.5162 170.813Z" fill="#E6E6E6"/>
<path d="M80.6131 104.568C80.2423 104.412 79.8409 104.343 79.4395 104.366C79.0381 104.389 78.6472 104.503 78.2966 104.7C77.9361 104.901 77.6263 105.182 77.3907 105.521C77.1551 105.86 76.9999 106.249 76.9368 106.657C74.4554 122.098 68.3759 136.738 59.1901 149.393C58.9455 149.725 58.7799 150.109 58.706 150.515C58.6321 150.922 58.6517 151.339 58.7635 151.737C58.8714 152.124 59.0663 152.482 59.3333 152.783C59.6002 153.084 59.9322 153.32 60.304 153.473L95.6201 168.154C96.2056 168.398 96.8585 168.425 97.4626 168.232C98.0666 168.039 98.5826 167.638 98.9186 167.1C107.362 153.213 113.632 138.115 117.51 122.331C117.654 121.713 117.574 121.064 117.285 120.499C116.995 119.935 116.515 119.492 115.929 119.248L80.6131 104.568Z" fill="white"/>
<path d="M99.4181 137.248L80.8857 129.544C80.1815 129.25 79.6225 128.689 79.3314 127.984C79.0402 127.278 79.0406 126.486 79.3325 125.781L79.764 124.742C80.0574 124.037 80.6183 123.478 81.3234 123.187C82.0285 122.895 82.8204 122.896 83.5252 123.188L102.058 130.892C102.762 131.185 103.321 131.746 103.612 132.452C103.903 133.157 103.903 133.95 103.611 134.655L103.179 135.694C102.886 136.398 102.325 136.958 101.62 137.249C100.915 137.54 100.123 137.54 99.4181 137.248Z" fill="#018780"/>
<path d="M93.965 150.375L75.4326 142.671C74.7284 142.378 74.1694 141.817 73.8782 141.111C73.5871 140.406 73.5875 139.613 73.8794 138.908L74.3109 137.869C74.6043 137.165 75.1651 136.605 75.8703 136.314C76.5754 136.023 77.3673 136.023 78.0721 136.315L96.6045 144.019C97.3087 144.313 97.8677 144.874 98.1588 145.579C98.45 146.285 98.4496 147.077 98.1577 147.782L97.7262 148.821C97.4328 149.526 96.872 150.085 96.1668 150.376C95.4617 150.668 94.6698 150.667 93.965 150.375Z" fill="#018780"/>
<path d="M106.844 118.798C106.566 118.798 106.291 118.744 106.034 118.64L87.3602 111.086C86.83 110.871 86.4068 110.454 86.1833 109.927C85.9599 109.4 85.9544 108.806 86.1683 108.275L87.6064 104.716C87.821 104.185 88.2376 103.761 88.7645 103.538C89.2914 103.314 89.8855 103.309 90.4162 103.524L109.09 111.077C109.621 111.293 110.044 111.709 110.267 112.236C110.491 112.763 110.496 113.358 110.282 113.889L108.844 117.447C108.683 117.846 108.406 118.187 108.05 118.428C107.693 118.669 107.273 118.798 106.844 118.798Z" fill="#CCCCCC"/>
<path d="M67.6219 232H0.479588C0.352393 232 0.230415 231.949 0.140475 231.859C0.0505348 231.769 0 231.647 0 231.52C0 231.393 0.0505348 231.271 0.140475 231.181C0.230415 231.091 0.352393 231.04 0.479588 231.04H67.6219C67.7491 231.04 67.8711 231.091 67.961 231.181C68.051 231.271 68.1015 231.393 68.1015 231.52C68.1015 231.647 68.051 231.769 67.961 231.859C67.8711 231.949 67.7491 232 67.6219 232Z" fill="#CCCCCC"/>
</g>
<defs>
<clipPath id="clip0_1092_22974">
<rect width="233" height="232" fill="white"/>
</clipPath>
</defs>
</svg>
