<svg width="313" height="226" viewBox="0 0 313 226" fill="none" xmlns="http://www.w3.org/2000/svg">
<g clip-path="url(#clip0_1092_21949)">
<path d="M305.694 225.745H117.897C115.96 225.743 114.104 224.969 112.734 223.593C111.364 222.218 110.594 220.353 110.592 218.407V7.33779C110.594 5.39236 111.364 3.52724 112.734 2.15161C114.104 0.775979 115.96 0.00219006 117.897 0H305.694C307.631 0.00219006 309.488 0.775979 310.857 2.15161C312.227 3.52724 312.997 5.39236 313 7.33779V218.407C312.997 220.353 312.227 222.218 310.857 223.593C309.488 224.969 307.631 225.743 305.694 225.745ZM117.897 0.86327C116.188 0.865212 114.55 1.54797 113.341 2.76176C112.133 3.97554 111.453 5.62124 111.451 7.33779V218.407C111.453 220.124 112.133 221.77 113.341 222.983C114.55 224.197 116.188 224.88 117.897 224.882H305.694C307.403 224.88 309.041 224.197 310.25 222.983C311.458 221.77 312.138 220.124 312.14 218.407V7.33779C312.138 5.62124 311.458 3.97554 310.25 2.76176C309.041 1.54797 307.403 0.865212 305.694 0.86327H117.897Z" fill="#3F3D56"/>
<path d="M312.57 17.9518H111.021V18.8151H312.57V17.9518Z" fill="#3F3D56"/>
<path d="M120.906 12.949C122.804 12.949 124.344 11.403 124.344 9.49593C124.344 7.58884 122.804 6.04285 120.906 6.04285C119.007 6.04285 117.468 7.58884 117.468 9.49593C117.468 11.403 119.007 12.949 120.906 12.949Z" fill="#018780"/>
<path d="M131.65 12.949C133.549 12.949 135.088 11.403 135.088 9.49593C135.088 7.58884 133.549 6.04285 131.65 6.04285C129.751 6.04285 128.212 7.58884 128.212 9.49593C128.212 11.403 129.751 12.949 131.65 12.949Z" fill="#018780"/>
<path d="M142.393 12.949C144.292 12.949 145.831 11.403 145.831 9.49593C145.831 7.58884 144.292 6.04285 142.393 6.04285C140.494 6.04285 138.955 7.58884 138.955 9.49593C138.955 11.403 140.494 12.949 142.393 12.949Z" fill="#018780"/>
<path d="M278.836 49.638H144.757C143.275 49.638 141.854 49.0469 140.806 47.9945C139.759 46.9422 139.17 45.515 139.17 44.0268C139.17 42.5386 139.759 41.1113 140.806 40.059C141.854 39.0067 143.275 38.4155 144.757 38.4155H278.836C280.317 38.4155 281.738 39.0067 282.786 40.059C283.834 41.1113 284.422 42.5386 284.422 44.0268C284.422 45.515 283.834 46.9422 282.786 47.9945C281.738 49.0469 280.317 49.638 278.836 49.638ZM144.757 39.2788C143.503 39.2788 142.3 39.779 141.414 40.6695C140.527 41.5599 140.029 42.7675 140.029 44.0268C140.029 45.286 140.527 46.4937 141.414 47.3841C142.3 48.2745 143.503 48.7748 144.757 48.7748H278.836C280.089 48.7748 281.292 48.2745 282.178 47.3841C283.065 46.4937 283.563 45.286 283.563 44.0268C283.563 42.7675 283.065 41.5599 282.178 40.6695C281.292 39.779 280.089 39.2788 278.836 39.2788H144.757Z" fill="#3F3D56"/>
<path d="M245.683 93.9197H184.66C183.748 93.9197 182.873 93.5559 182.229 92.9083C181.584 92.2608 181.222 91.3824 181.222 90.4666C181.222 89.5508 181.584 88.6725 182.229 88.0249C182.873 87.3774 183.748 87.0135 184.66 87.0135H245.683C246.595 87.0135 247.469 87.3774 248.114 88.0249C248.758 88.6725 249.121 89.5508 249.121 90.4666C249.121 91.3824 248.758 92.2608 248.114 92.9083C247.469 93.5559 246.595 93.9197 245.683 93.9197Z" fill="#CCCCCC"/>
<path d="M280.921 105.574H184.66C183.748 105.574 182.873 105.21 182.229 104.563C181.584 103.915 181.222 103.037 181.222 102.121C181.222 101.205 181.584 100.327 182.229 99.6791C182.873 99.0315 183.748 98.6677 184.66 98.6677H280.921C281.833 98.6677 282.708 99.0315 283.352 99.6791C283.997 100.327 284.359 101.205 284.359 102.121C284.359 103.037 283.997 103.915 283.352 104.563C282.708 105.21 281.833 105.574 280.921 105.574Z" fill="#CCCCCC"/>
<path d="M161.794 106.221H143.315C142.233 106.22 141.195 105.788 140.43 105.019C139.664 104.25 139.234 103.208 139.232 102.121V90.4666C139.234 89.3795 139.664 88.3372 140.43 87.5685C141.195 86.7997 142.233 86.3673 143.315 86.3661H161.794C162.876 86.3673 163.914 86.7997 164.679 87.5685C165.445 88.3372 165.875 89.3795 165.876 90.4666V102.121C165.875 103.208 165.445 104.25 164.679 105.019C163.914 105.788 162.876 106.22 161.794 106.221ZM143.315 87.2294C142.46 87.2303 141.641 87.5717 141.037 88.1786C140.433 88.7855 140.093 89.6083 140.092 90.4666V102.121C140.093 102.979 140.433 103.802 141.037 104.409C141.641 105.016 142.46 105.357 143.315 105.358H161.794C162.648 105.357 163.468 105.016 164.072 104.409C164.676 103.802 165.016 102.979 165.017 102.121V90.4666C165.016 89.6083 164.676 88.7855 164.072 88.1786C163.468 87.5717 162.648 87.2303 161.794 87.2294H143.315Z" fill="#CCCCCC"/>
<path d="M245.683 134.925H184.66C183.748 134.925 182.873 134.561 182.229 133.914C181.584 133.266 181.222 132.388 181.222 131.472C181.222 130.556 181.584 129.678 182.229 129.03C182.873 128.383 183.748 128.019 184.66 128.019H245.683C246.595 128.019 247.469 128.383 248.114 129.03C248.758 129.678 249.121 130.556 249.121 131.472C249.121 132.388 248.758 133.266 248.114 133.914C247.469 134.561 246.595 134.925 245.683 134.925Z" fill="#CCCCCC"/>
<path d="M280.921 146.579H184.66C183.748 146.579 182.873 146.215 182.229 145.568C181.584 144.92 181.222 144.042 181.222 143.126C181.222 142.21 181.584 141.332 182.229 140.684C182.873 140.037 183.748 139.673 184.66 139.673H280.921C281.833 139.673 282.708 140.037 283.352 140.684C283.997 141.332 284.359 142.21 284.359 143.126C284.359 144.042 283.997 144.92 283.352 145.568C282.708 146.215 281.833 146.579 280.921 146.579Z" fill="#CCCCCC"/>
<path d="M161.794 147.227H143.315C142.233 147.225 141.195 146.793 140.43 146.024C139.664 145.256 139.234 144.213 139.232 143.126V131.472C139.234 130.385 139.664 129.343 140.43 128.574C141.195 127.805 142.233 127.373 143.315 127.371H161.794C162.876 127.373 163.914 127.805 164.679 128.574C165.445 129.343 165.875 130.385 165.876 131.472V143.126C165.875 144.213 165.445 145.256 164.679 146.024C163.914 146.793 162.876 147.225 161.794 147.227ZM143.315 128.235C142.46 128.236 141.641 128.577 141.037 129.184C140.433 129.791 140.093 130.614 140.092 131.472V143.126C140.093 143.984 140.433 144.807 141.037 145.414C141.641 146.021 142.46 146.362 143.315 146.363H161.794C162.648 146.362 163.468 146.021 164.072 145.414C164.676 144.807 165.016 143.984 165.017 143.126V131.472C165.016 130.614 164.676 129.791 164.072 129.184C163.468 128.577 162.648 128.236 161.794 128.235H143.315Z" fill="#CCCCCC"/>
<path d="M245.683 175.93H184.66C183.748 175.93 182.873 175.567 182.229 174.919C181.584 174.271 181.222 173.393 181.222 172.477C181.222 171.561 181.584 170.683 182.229 170.036C182.873 169.388 183.748 169.024 184.66 169.024H245.683C246.595 169.024 247.469 169.388 248.114 170.036C248.758 170.683 249.121 171.561 249.121 172.477C249.121 173.393 248.758 174.271 248.114 174.919C247.469 175.567 246.595 175.93 245.683 175.93Z" fill="#F2F2F2"/>
<path d="M280.921 187.585H184.66C183.748 187.585 182.873 187.221 182.229 186.573C181.584 185.926 181.222 185.047 181.222 184.131C181.222 183.216 181.584 182.337 182.229 181.69C182.873 181.042 183.748 180.678 184.66 180.678H280.921C281.833 180.678 282.708 181.042 283.352 181.69C283.997 182.337 284.359 183.216 284.359 184.131C284.359 185.047 283.997 185.926 283.352 186.573C282.708 187.221 281.833 187.585 280.921 187.585Z" fill="#F2F2F2"/>
<path d="M161.794 188.232H143.315C142.233 188.231 141.195 187.798 140.43 187.03C139.664 186.261 139.234 185.219 139.232 184.131V172.477C139.234 171.39 139.664 170.348 140.43 169.579C141.195 168.81 142.233 168.378 143.315 168.377H161.794C162.876 168.378 163.914 168.81 164.679 169.579C165.445 170.348 165.875 171.39 165.876 172.477V184.131C165.875 185.219 165.445 186.261 164.679 187.03C163.914 187.798 162.876 188.231 161.794 188.232Z" fill="#F2F2F2"/>
<path d="M152.554 102.655L151.559 101.754C148.026 98.4952 145.693 96.3802 145.693 93.7456C145.684 93.2443 145.776 92.7464 145.962 92.2813C146.148 91.8161 146.425 91.3933 146.777 91.0377C147.129 90.6821 147.549 90.4011 148.01 90.2112C148.472 90.0213 148.968 89.9264 149.467 89.9321C150.056 89.9353 150.637 90.0672 151.17 90.3186C151.703 90.5701 152.176 90.935 152.554 91.3882C152.933 90.935 153.405 90.57 153.939 90.3186C154.472 90.0672 155.053 89.9353 155.642 89.9321C156.141 89.9264 156.636 90.0213 157.098 90.2112C157.56 90.4011 157.98 90.6821 158.332 91.0377C158.683 91.3933 158.961 91.8161 159.147 92.2813C159.333 92.7464 159.425 93.2443 159.416 93.7456C159.416 96.3802 157.083 98.4952 153.549 101.754L152.554 102.655Z" fill="#018780"/>
<path d="M152.554 143.661L151.559 142.759C148.026 139.5 145.693 137.385 145.693 134.751C145.684 134.25 145.776 133.752 145.962 133.287C146.148 132.821 146.425 132.399 146.777 132.043C147.129 131.687 147.549 131.406 148.01 131.216C148.472 131.027 148.968 130.932 149.467 130.937C150.056 130.941 150.637 131.072 151.17 131.324C151.703 131.575 152.176 131.94 152.554 132.393C152.933 131.94 153.405 131.575 153.939 131.324C154.472 131.072 155.053 130.941 155.642 130.937C156.141 130.932 156.636 131.027 157.098 131.216C157.56 131.406 157.98 131.687 158.332 132.043C158.683 132.399 158.961 132.821 159.147 133.287C159.333 133.752 159.425 134.25 159.416 134.751C159.416 137.385 157.083 139.5 153.549 142.759L152.554 143.661Z" fill="#018780"/>
<path d="M74.4872 136.762H56.0083C54.9259 136.761 53.8882 136.329 53.1229 135.56C52.3575 134.791 51.927 133.749 51.9258 132.662V121.008C51.927 119.921 52.3575 118.878 53.1229 118.11C53.8882 117.341 54.9259 116.908 56.0083 116.907H74.4872C75.5695 116.908 76.6072 117.341 77.3726 118.11C78.1379 118.878 78.5685 119.921 78.5697 121.008V132.662C78.5685 133.749 78.1379 134.791 77.3726 135.56C76.6072 136.329 75.5695 136.761 74.4872 136.762ZM56.0083 117.77C55.1538 117.771 54.3346 118.113 53.7303 118.72C53.1261 119.327 52.7862 120.149 52.7853 121.008V132.662C52.7862 133.52 53.1261 134.343 53.7303 134.95C54.3346 135.557 55.1538 135.898 56.0083 135.899H74.4872C75.3417 135.898 76.1609 135.557 76.7652 134.95C77.3694 134.343 77.7093 133.52 77.7102 132.662V121.008C77.7093 120.149 77.3694 119.327 76.7652 118.72C76.1609 118.113 75.3417 117.771 74.4872 117.77H56.0083Z" fill="#3F3D56"/>
<path d="M65.2478 133.196L64.2527 132.295C60.7192 129.036 58.3863 126.921 58.3863 124.287C58.3776 123.785 58.469 123.288 58.6553 122.822C58.8415 122.357 59.1188 121.934 59.4707 121.579C59.8226 121.223 60.2419 120.942 60.7039 120.752C61.1658 120.562 61.661 120.468 62.1601 120.473C62.7492 120.476 63.3304 120.608 63.8636 120.86C64.3968 121.111 64.8692 121.476 65.2478 121.929C65.6264 121.476 66.0988 121.111 66.632 120.86C67.1651 120.608 67.7464 120.476 68.3355 120.473C68.8346 120.468 69.3298 120.562 69.7917 120.752C70.2537 120.942 70.673 121.223 71.0249 121.579C71.3768 121.934 71.654 122.357 71.8403 122.822C72.0266 123.288 72.118 123.785 72.1093 124.287C72.1093 126.921 69.7764 129.036 66.2429 132.295L65.2478 133.196Z" fill="#018780"/>
<path d="M54.5623 221.043L59.3418 219.901L57.2309 200.841L50.1768 202.526L54.5623 221.043Z" fill="#FFB8B8"/>
<path d="M69.6143 222.156L54.5929 225.745L53.2124 219.916L62.43 217.713C63.1922 217.531 63.9826 217.502 64.7561 217.627C65.5296 217.751 66.2711 218.028 66.9382 218.44C67.6053 218.853 68.185 219.393 68.6442 220.031C69.1033 220.668 69.433 221.391 69.6143 222.156Z" fill="#2F2E41"/>
<path d="M49.8707 208.77L39.4902 173.036L52.462 169.805L60.0718 207.649C60.1276 207.926 60.1224 208.212 60.0567 208.487C59.9909 208.762 59.8661 209.019 59.6911 209.241C59.516 209.463 59.2949 209.643 59.0432 209.77C58.7915 209.897 58.5152 209.967 58.2338 209.975L51.7846 210.167C51.7652 210.168 51.7459 210.168 51.7266 210.168C51.3083 210.168 50.9013 210.032 50.5667 209.78C50.2321 209.527 49.9879 209.173 49.8707 208.77Z" fill="#2F2E41"/>
<path d="M24.9636 221.163L29.8764 221.162L32.2129 202.129L24.9619 202.13L24.9636 221.163Z" fill="#FFB8B8"/>
<path d="M39.3516 225.744L23.9111 225.745L23.9106 219.753L33.3854 219.752C34.9676 219.752 36.485 220.383 37.6039 221.507C38.7228 222.63 39.3514 224.154 39.3516 225.744Z" fill="#2F2E41"/>
<path d="M24.1006 213.768C23.9201 213.592 23.7761 213.382 23.6769 213.15C23.5777 212.919 23.5253 212.669 23.5229 212.417L19.0469 176.77C19.0451 176.256 19.246 175.762 19.6057 175.396C19.9655 175.031 20.4548 174.823 20.9667 174.818L30.9574 174.745H30.9717C31.479 174.747 31.9656 174.948 32.327 175.305C32.6884 175.663 32.896 176.149 32.9051 176.658L33.4362 211.774C33.4441 212.286 33.2499 212.781 32.8961 213.15C32.5422 213.519 32.0573 213.733 31.5471 213.744L25.4823 214.323C25.4729 214.324 25.4636 214.324 25.4543 214.324C24.9477 214.325 24.4612 214.125 24.1006 213.768Z" fill="#2F2E41"/>
<path d="M26.2424 95.7836C32.0717 95.7836 36.7972 91.0372 36.7972 85.1822C36.7972 79.3272 32.0717 74.5808 26.2424 74.5808C20.4131 74.5808 15.6875 79.3272 15.6875 85.1822C15.6875 91.0372 20.4131 95.7836 26.2424 95.7836Z" fill="#FFB8B8"/>
<path d="M12.3367 174.908C5.46924 169.519 5.54193 163.231 7.88524 154.833C8.54538 152.467 9.25787 150.069 10.0121 147.531C13.5167 135.736 17.4887 122.368 15.9807 111.33C15.5677 108.307 16.6205 105.127 18.8691 102.606C21.1178 100.085 24.1445 98.6875 27.1869 98.7663C30.2241 98.8477 33.1774 100.407 35.2894 103.045C37.3911 105.67 38.3942 114.9 38.6915 116.223C40.0566 122.295 40.8805 125.96 41.4714 131.806C42.1703 138.718 50.54 159.384 53.2071 162.849C53.9149 163.764 54.4217 164.819 54.6941 165.945C54.9664 167.071 54.9981 168.242 54.7872 169.381C54.5906 170.465 54.1644 171.493 53.5375 172.397C52.9106 173.301 52.0976 174.059 51.1536 174.619C46.8253 177.277 42.0691 179.157 37.0985 180.175C34.9423 180.595 32.7511 180.806 30.5548 180.807C23.7404 180.807 17.2293 178.748 12.3367 174.908Z" fill="#018780"/>
<path d="M56.2294 134.968C55.9561 134.444 55.5716 133.986 55.1032 133.627C54.6347 133.269 54.0936 133.017 53.5181 132.891C52.9425 132.765 52.3464 132.767 51.7717 132.898C51.1971 133.028 50.6579 133.284 50.1922 133.646L42.1942 129.062L38.2354 133.264L49.6206 139.578C50.2785 140.324 51.1858 140.801 52.1706 140.92C53.1554 141.038 54.1492 140.79 54.9639 140.221C55.7785 139.653 56.3572 138.804 56.5905 137.836C56.8237 136.868 56.6952 135.847 56.2294 134.968Z" fill="#FFB8B8"/>
<path d="M44.0375 138.075L29.7025 133.552C27.7779 132.94 26.0864 131.75 24.8562 130.142C23.6259 128.535 22.9162 126.587 22.8227 124.562L22.2059 110.572C22.1712 109.785 22.295 108.999 22.5697 108.261C22.8444 107.523 23.2644 106.849 23.8047 106.278C24.345 105.707 24.9944 105.251 25.714 104.938C26.4337 104.625 27.2089 104.46 27.9932 104.455C28.7774 104.45 29.5547 104.603 30.2785 104.907C31.0023 105.21 31.6578 105.657 32.2056 106.221C32.7535 106.784 33.1826 107.453 33.4672 108.187C33.7517 108.921 33.886 109.706 33.8619 110.493L33.4676 123.364L48.7241 129.614C48.9935 129.724 49.2346 129.894 49.4295 130.111C49.6244 130.328 49.7681 130.586 49.8498 130.867C49.9315 131.147 49.9491 131.443 49.9014 131.731C49.8537 132.019 49.7418 132.293 49.5741 132.532L46.1976 137.341C45.9619 137.678 45.6255 137.931 45.237 138.063C44.8486 138.195 44.4284 138.199 44.0375 138.075Z" fill="#2F2E41"/>
<path d="M9.23143 98.3743C9.71373 95.469 9.696 92.4577 9.67879 89.5454C9.67418 88.7548 9.66945 87.9645 9.67428 87.1756C9.69673 83.5095 9.92325 79.6237 11.4155 76.0465C13.0396 72.1533 16.0472 69.342 19.4607 68.5264C23.3093 67.6058 27.4853 69.6409 28.7425 72.9917C29.5736 72.5202 30.4986 72.2399 31.4506 72.171C32.4026 72.1021 33.358 72.2463 34.2478 72.5932C35.1377 72.9402 35.9397 73.4811 36.5961 74.1771C37.2525 74.8731 37.747 75.7068 38.0437 76.618C38.3404 77.5292 38.4321 78.4952 38.3121 79.4463C38.1921 80.3974 37.8634 81.3099 37.3497 82.1179C36.836 82.9259 36.1501 83.6094 35.3416 84.1189C34.533 84.6284 33.622 84.9513 32.6741 85.0642L32.5128 85.0786L31.2552 81.7958C31.2481 81.8533 31.2413 81.9115 31.2343 81.9701C31.1543 82.6508 31.0715 83.3546 30.512 83.7611C29.8134 84.2686 28.9435 85.9389 29.1977 87.6311C29.3562 88.4969 29.5924 89.3466 29.9034 90.1697C30.249 91.0733 30.4999 92.0106 30.652 92.9664C30.8119 94.1917 30.4927 95.4316 29.7615 96.4254C29.5448 96.7155 29.2715 96.9581 28.9583 97.1386C28.6452 97.3191 28.2987 97.4336 27.94 97.4752L13.7638 98.9476L13.13 94.1916L9.09766 99.1798L9.23143 98.3743Z" fill="#2F2E41"/>
<path d="M82.9399 226H0.429741C0.315766 226 0.20646 225.955 0.125868 225.874C0.0452758 225.793 0 225.683 0 225.568C0 225.454 0.0452758 225.344 0.125868 225.263C0.20646 225.182 0.315766 225.137 0.429741 225.137H82.9399C83.0539 225.137 83.1632 225.182 83.2438 225.263C83.3244 225.344 83.3697 225.454 83.3697 225.568C83.3697 225.683 83.3244 225.793 83.2438 225.874C83.1632 225.955 83.0539 226 82.9399 226Z" fill="#CCCCCC"/>
</g>
<defs>
<clipPath id="clip0_1092_21949">
<rect width="313" height="226" fill="white"/>
</clipPath>
</defs>
</svg>
