<svg width="22" height="25" viewBox="0 0 22 25" fill="none" xmlns="http://www.w3.org/2000/svg">
  <path
    d="M4.03333 6.61765C4.32507 6.61765 4.60486 6.50144 4.81115 6.2946C5.01744 6.08776 5.13333 5.80722 5.13333 5.51471C5.13333 5.22219 5.01744 4.94165 4.81115 4.73481C4.60486 4.52797 4.32507 4.41176 4.03333 4.41176C3.7416 4.41176 3.46181 4.52797 3.25552 4.73481C3.04923 4.94165 2.93333 5.22219 2.93333 5.51471C2.93333 5.80722 3.04923 6.08776 3.25552 6.2946C3.46181 6.50144 3.7416 6.61765 4.03333 6.61765ZM5.13333 9.92647C5.13333 10.219 5.01744 10.4995 4.81115 10.7064C4.60486 10.9132 4.32507 11.0294 4.03333 11.0294C3.7416 11.0294 3.46181 10.9132 3.25552 10.7064C3.04923 10.4995 2.93333 10.219 2.93333 9.92647C2.93333 9.63395 3.04923 9.35342 3.25552 9.14657C3.46181 8.93973 3.7416 8.82353 4.03333 8.82353C4.32507 8.82353 4.60486 8.93973 4.81115 9.14657C5.01744 9.35342 5.13333 9.63395 5.13333 9.92647ZM4.03333 15.4412C4.17779 15.4412 4.32083 15.4126 4.45429 15.3572C4.58774 15.3018 4.70901 15.2205 4.81115 15.1181C4.9133 15.0157 4.99432 14.8941 5.0496 14.7603C5.10488 14.6265 5.13333 14.4831 5.13333 14.3382C5.13333 14.1934 5.10488 14.05 5.0496 13.9162C4.99432 13.7823 4.9133 13.6608 4.81115 13.5583C4.70901 13.4559 4.58774 13.3747 4.45429 13.3193C4.32083 13.2638 4.17779 13.2353 4.03333 13.2353C3.7416 13.2353 3.46181 13.3515 3.25552 13.5583C3.04923 13.7652 2.93333 14.0457 2.93333 14.3382C2.93333 14.6308 3.04923 14.9113 3.25552 15.1181C3.46181 15.325 3.7416 15.4412 4.03333 15.4412ZM9.53333 5.51471C9.53333 5.80722 9.41744 6.08776 9.21115 6.2946C9.00486 6.50144 8.72507 6.61765 8.43333 6.61765C8.1416 6.61765 7.86181 6.50144 7.65552 6.2946C7.44923 6.08776 7.33333 5.80722 7.33333 5.51471C7.33333 5.22219 7.44923 4.94165 7.65552 4.73481C7.86181 4.52797 8.1416 4.41176 8.43333 4.41176C8.72507 4.41176 9.00486 4.52797 9.21115 4.73481C9.41744 4.94165 9.53333 5.22219 9.53333 5.51471ZM8.43333 11.0294C8.72507 11.0294 9.00486 10.9132 9.21115 10.7064C9.41744 10.4995 9.53333 10.219 9.53333 9.92647C9.53333 9.63395 9.41744 9.35342 9.21115 9.14657C9.00486 8.93973 8.72507 8.82353 8.43333 8.82353C8.1416 8.82353 7.86181 8.93973 7.65552 9.14657C7.44923 9.35342 7.33333 9.63395 7.33333 9.92647C7.33333 10.219 7.44923 10.4995 7.65552 10.7064C7.86181 10.9132 8.1416 11.0294 8.43333 11.0294ZM7.34213 22.0588H1.46667V2.20588C1.46667 2.01087 1.54393 1.82385 1.68146 1.68595C1.81898 1.54806 2.00551 1.47059 2.2 1.47059H11C11.1945 1.47059 11.381 1.54806 11.5185 1.68595C11.6561 1.82385 11.7333 2.01087 11.7333 2.20588V9.55882C11.7333 9.75384 11.8106 9.94086 11.9481 10.0788C12.0856 10.2166 12.2722 10.2941 12.4667 10.2941H15.4C15.5945 10.2941 15.781 10.3716 15.9185 10.5095C16.0561 10.6474 16.1333 10.8344 16.1333 11.0294V13.4824C16.2668 13.6735 16.3856 13.8779 16.4853 14.0912C16.8065 13.8 17.1835 13.5706 17.6 13.4235V11.0294C17.6 10.4444 17.3682 9.8833 16.9556 9.46962C16.5431 9.05593 15.9835 8.82353 15.4 8.82353H13.2V2.20588C13.2 1.62085 12.9682 1.05977 12.5556 0.646088C12.1431 0.232405 11.5835 0 11 0H2.2C1.61652 0 1.05694 0.232405 0.644365 0.646088C0.231785 1.05977 0 1.62085 0 2.20588V22.7941C0 22.9891 0.0772618 23.1762 0.214789 23.314C0.352315 23.4519 0.538841 23.5294 0.733333 23.5294H7.6912C7.49037 23.0633 7.37224 22.5657 7.34213 22.0588ZM15.4 15.8088C15.4 16.1468 15.3336 16.4814 15.2046 16.7937C15.0756 17.1059 14.8866 17.3896 14.6482 17.6286C14.4099 17.8676 14.127 18.0571 13.8156 18.1865C13.5042 18.3158 13.1704 18.3824 12.8333 18.3824C12.4963 18.3824 12.1625 18.3158 11.8511 18.1865C11.5397 18.0571 11.2568 17.8676 11.0184 17.6286C10.7801 17.3896 10.591 17.1059 10.462 16.7937C10.3331 16.4814 10.2667 16.1468 10.2667 15.8088C10.2667 15.1263 10.5371 14.4717 11.0184 13.9891C11.4998 13.5064 12.1526 13.2353 12.8333 13.2353C13.5141 13.2353 14.1669 13.5064 14.6482 13.9891C15.1296 14.4717 15.4 15.1263 15.4 15.8088ZM17.6 21.7838C17.6 23.3868 16.3431 25 13.2 25C10.0569 25 8.8 23.3912 8.8 21.7824C8.8 20.7176 9.6448 19.8529 10.6861 19.8529H15.7139C16.7552 19.8529 17.6 20.7176 17.6 21.7838ZM18.2996 24.2647H18.3333C20.9528 24.2647 22 22.8809 22 21.5074C22 20.5941 21.296 19.8529 20.4292 19.8529H18.4741C18.8496 20.4044 19.0667 21.0721 19.0667 21.7838C19.0667 22.6397 18.8232 23.5088 18.2996 24.2647ZM20.5333 16.5441C20.5333 17.0316 20.3402 17.4992 19.9964 17.8439C19.6525 18.1887 19.1862 18.3824 18.7 18.3824C18.2138 18.3824 17.7475 18.1887 17.4036 17.8439C17.0598 17.4992 16.8667 17.0316 16.8667 16.5441C16.8667 16.0566 17.0598 15.589 17.4036 15.2443C17.7475 14.8996 18.2138 14.7059 18.7 14.7059C19.1862 14.7059 19.6525 14.8996 19.9964 15.2443C20.3402 15.589 20.5333 16.0566 20.5333 16.5441Z"
    fill="currentColor" />
</svg>