<svg width="30" height="28" viewBox="0 0 30 28" fill="none" xmlns="http://www.w3.org/2000/svg">
  <path
    d="M21.9777 16.3336C22.7484 16.3336 23.3731 15.7366 23.3731 15.0002C23.3731 14.2638 22.7484 13.6669 21.9777 13.6669C21.2071 13.6669 20.5824 14.2638 20.5824 15.0002C20.5824 15.7366 21.2071 16.3336 21.9777 16.3336Z"
    fill="currentColor" />
  <path
    d="M21.9777 21.6665C22.7484 21.6665 23.3731 21.0696 23.3731 20.3332C23.3731 19.5968 22.7484 18.9999 21.9777 18.9999C21.2071 18.9999 20.5824 19.5968 20.5824 20.3332C20.5824 21.0696 21.2071 21.6665 21.9777 21.6665Z"
    fill="currentColor" />
  <path
    d="M16.3948 15.0002C16.3948 15.7366 15.7701 16.3336 14.9994 16.3336C14.2288 16.3336 13.6041 15.7366 13.6041 15.0002C13.6041 14.2638 14.2288 13.6669 14.9994 13.6669C15.7701 13.6669 16.3948 14.2638 16.3948 15.0002Z"
    fill="currentColor" />
  <path
    d="M16.3948 20.3332C16.3948 21.0696 15.7701 21.6665 14.9994 21.6665C14.2288 21.6665 13.6041 21.0696 13.6041 20.3332C13.6041 19.5968 14.2288 18.9999 14.9994 18.9999C15.7701 18.9999 16.3948 19.5968 16.3948 20.3332Z"
    fill="currentColor" />
  <path
    d="M8.02394 16.3337C8.79458 16.3337 9.41929 15.7367 9.41929 15.0003C9.41929 14.2639 8.79458 13.667 8.02394 13.667C7.25331 13.667 6.62859 14.2639 6.62859 15.0003C6.62859 15.7367 7.25331 16.3337 8.02394 16.3337Z"
    fill="currentColor" />
  <path
    d="M8.02394 21.6667C8.79458 21.6667 9.41929 21.0697 9.41929 20.3333C9.41929 19.5969 8.79458 19 8.02394 19C7.25331 19 6.62859 19.5969 6.62859 20.3333C6.62859 21.0697 7.25331 21.6667 8.02394 21.6667Z"
    fill="currentColor" />
  <path fill-rule="evenodd" clip-rule="evenodd"
    d="M8.02326 0C8.60123 0 9.06977 0.44772 9.06977 1V2.01696C9.99349 1.99999 11.0112 1.99999 12.1304 2H17.8694C18.9887 1.99999 20.0065 1.99999 20.9302 2.01696V1C20.9302 0.44772 21.3988 0 21.9767 0C22.5547 0 23.0233 0.44772 23.0233 1V2.10279C23.3859 2.12921 23.7294 2.16243 24.0544 2.20417C25.6903 2.41435 27.0145 2.85717 28.0588 3.85499C29.1029 4.85281 29.5663 6.11807 29.7864 7.68131C30 9.20024 30 11.1411 30 13.5913V16.4085C30 18.8588 30 20.7997 29.7864 22.3187C29.5663 23.8819 29.1029 25.1472 28.0588 26.1451C27.0145 27.1428 25.6903 27.5856 24.0544 27.7959C22.4648 28 20.4338 28 17.8695 28H12.1306C9.5663 28 7.53514 28 5.94556 27.7959C4.30962 27.5856 2.9855 27.1428 1.94127 26.1451C0.897043 25.1472 0.433619 23.8819 0.213684 22.3187C-4.13209e-05 20.7997 -2.72746e-05 18.8589 6.32381e-07 16.4085V13.5915C-2.72746e-05 11.1411 -4.13209e-05 9.20025 0.213684 7.68131C0.433619 6.11807 0.897043 4.85281 1.94127 3.85499C2.9855 2.85717 4.30962 2.41435 5.94556 2.20417C6.27056 2.16243 6.61404 2.12921 6.97675 2.10279V1C6.97675 0.44772 7.44529 0 8.02326 0ZM6.22444 4.18635C4.8206 4.36669 4.01178 4.70492 3.42126 5.2692C2.83073 5.83348 2.47677 6.60635 2.28804 7.9478C2.25607 8.17497 2.22935 8.41415 2.207 8.66667H27.793C27.7707 8.41415 27.7439 8.17499 27.7119 7.9478C27.5233 6.60635 27.1693 5.83348 26.5787 5.2692C25.9882 4.70492 25.1794 4.36669 23.7756 4.18635C22.3416 4.00212 20.4514 4 17.7907 4H12.2093C9.54862 4 7.65839 4.00212 6.22444 4.18635ZM2.09302 13.6667C2.09302 12.528 2.09347 11.5369 2.11129 10.6667H27.8887C27.9066 11.5369 27.907 12.528 27.907 13.6667V16.3333C27.907 18.8757 27.9047 20.682 27.7119 22.0523C27.5233 23.3936 27.1693 24.1665 26.5787 24.7308C25.9882 25.2951 25.1794 25.6333 23.7756 25.8136C22.3416 25.9979 20.4514 26 17.7907 26H12.2093C9.54862 26 7.65839 25.9979 6.22444 25.8136C4.8206 25.6333 4.01178 25.2951 3.42126 24.7308C2.83073 24.1665 2.47677 23.3936 2.28804 22.0523C2.09524 20.682 2.09302 18.8757 2.09302 16.3333V13.6667Z"
    fill="currentColor" />
</svg>