<svg width="20" height="25" viewBox="0 0 20 25" fill="none" xmlns="http://www.w3.org/2000/svg">
  <path
    d="M1.97999 7.25124C1.61268 4.88249 3.32294 2.74947 5.93556 1.9668C6.39944 1.82793 6.90001 1.86739 7.33517 2.07714C7.77032 2.28689 8.10727 2.65113 8.27728 3.09555L9.11505 5.28325C9.24975 5.63516 9.2739 6.0184 9.18441 6.38383C9.09492 6.74926 8.89586 7.0802 8.61277 7.33422L6.12066 9.57002C5.99775 9.68047 5.90617 9.82015 5.85481 9.97548C5.80345 10.1308 5.79407 10.2965 5.82758 10.4564L5.84976 10.5545L5.91146 10.8006C5.96641 11.0081 6.04932 11.3004 6.16597 11.6493C6.39735 12.3424 6.76659 13.274 7.3161 14.2048C7.86562 15.1355 8.50576 15.9144 9.00322 16.4566C9.26231 16.7389 9.53312 17.0107 9.81497 17.2713L9.89209 17.3411C10.0167 17.4491 10.1679 17.5236 10.3307 17.5575C10.4936 17.5914 10.6627 17.5834 10.8215 17.5344L14.0472 16.5414C14.4137 16.4288 14.8063 16.4257 15.1746 16.5328C15.5428 16.6398 15.87 16.852 16.1142 17.1421L17.6403 18.9545C18.2766 19.7089 18.2014 20.8178 17.4697 21.4845C15.4702 23.3073 12.7207 23.6817 10.808 22.1767C8.46349 20.3271 6.48701 18.0714 4.97728 15.5221C3.45507 12.9745 2.43817 10.1678 1.97999 7.25124ZM7.8473 10.5799L9.91619 8.72417C10.4824 8.21613 10.8805 7.55423 11.0595 6.82338C11.2384 6.09253 11.1901 5.32604 10.9208 4.62222L10.082 2.43452C9.73984 1.5407 9.06204 0.808164 8.18679 0.386244C7.31153 -0.0356762 6.30472 -0.115218 5.37158 0.163832C2.12749 1.1351 -0.477417 3.98006 0.0740296 7.53414C0.568594 10.6856 1.66659 13.7175 3.3104 16.4707C4.93878 19.2198 7.07048 21.6524 9.59902 23.6468C12.4671 25.9005 16.2983 25.132 18.7846 22.8641C19.4961 22.2155 19.9278 21.326 19.9917 20.3768C20.0557 19.4276 19.7471 18.4903 19.1288 17.756L17.6027 15.9436C17.1143 15.3631 16.4598 14.9386 15.723 14.7246C14.9863 14.5105 14.201 14.5167 13.4678 14.7422L10.7906 15.5664C10.6708 15.4459 10.5534 15.3229 10.4387 15.1977C9.88851 14.6023 9.40171 13.9536 8.98587 13.2618C8.58105 12.5635 8.24995 11.8267 7.9977 11.0628C7.94421 10.9028 7.89407 10.7419 7.8473 10.5799Z"
    fill="currentColor" />
</svg>