<svg width="27" height="25" viewBox="0 0 27 25" fill="none" xmlns="http://www.w3.org/2000/svg">
  <path
    d="M25.9692 3.6643L9.4332 0.0292026C8.73359 -0.124547 8.04015 0.34431 7.89214 1.07104L7.57798 3.16818L26.6577 7.36223L26.9719 5.26509C27.1199 4.53863 26.6688 3.8181 25.9692 3.6643Z"
    fill="currentColor" />
  <path
    d="M19.015 7.80699C18.8218 7.08448 18.095 6.65741 17.3996 6.85773L14.2605 7.76295L6.86017 6.13609L6.04629 10.1306L0.961151 11.5967C0.265861 11.7971 -0.145268 12.5521 0.0475687 13.2744L2.91334 24.0015C3.10649 24.7237 3.83341 25.1511 4.5287 24.9505L20.9672 20.2118C21.6625 20.0112 22.0736 19.2564 21.8808 18.5339L21.3888 16.6924L23.2325 17.0972C23.9321 17.2513 24.6255 16.7824 24.7735 16.0557L25.9399 10.3302L19.2991 8.87045L19.015 7.80699ZM20.9134 13.2589L21.3199 11.2631C21.381 10.9642 21.6663 10.7715 21.9539 10.8346L23.8753 11.2572C24.1633 11.3206 24.3488 11.6166 24.2881 11.9157L23.8815 13.9116C23.8205 14.2104 23.5352 14.4034 23.2476 14.3401L21.3262 13.9178C21.0379 13.8541 20.8523 13.5578 20.9134 13.2589ZM1.24721 12.6672L17.6851 7.9288C17.7062 7.92288 17.7272 7.92009 17.7478 7.92009C17.8404 7.92009 17.9512 7.98324 17.9836 8.10418L18.5441 10.2019L1.63888 15.0749L1.07837 12.9775C1.04325 12.8459 1.12055 12.7037 1.24721 12.6672ZM20.8499 18.8307C20.8715 18.9121 20.8489 18.9794 20.8259 19.0215C20.8032 19.0636 20.7594 19.1186 20.6811 19.141L4.24291 23.8797C4.22213 23.8856 4.20077 23.8887 4.18022 23.8887C4.08757 23.8887 3.97679 23.8253 3.94441 23.7043L2.27289 17.4474L19.1781 12.574L20.8499 18.8307Z"
    fill="currentColor" />
  <path
    d="M6.89869 19.2589C6.81981 18.9642 6.52373 18.7903 6.2401 18.8719L4.32034 19.4255C4.03697 19.5072 3.86924 19.815 3.94812 20.1097L4.48079 22.1036C4.55967 22.3982 4.85575 22.5722 5.13938 22.4902L7.05914 21.9369C7.34277 21.8552 7.51024 21.5474 7.43162 21.2528L6.89869 19.2589Z"
    fill="currentColor" />
</svg>