<svg width="35" height="25" viewBox="0 0 35 25" fill="none" xmlns="http://www.w3.org/2000/svg">
  <path
    d="M2.22905 22.0061H4.37437C4.64922 22.8758 5.18783 23.6342 5.91269 24.1721C6.63754 24.7101 7.51126 25 8.4081 25C9.30494 25 10.1787 24.7101 10.9035 24.1721C11.6284 23.6342 12.167 22.8758 12.4418 22.0061H23.9709C24.2458 22.8758 24.7844 23.6342 25.5093 24.1721C26.2341 24.7101 27.1078 25 28.0047 25C28.9015 25 29.7752 24.7101 30.5001 24.1721C31.2249 23.6342 31.7635 22.8758 32.0384 22.0061H33.9061C34.0513 22.0061 34.195 21.9767 34.3289 21.9196C34.4628 21.8624 34.5842 21.7787 34.686 21.6733C34.7878 21.5678 34.868 21.4428 34.9219 21.3055C34.9758 21.1681 35.0023 21.0213 34.9998 20.8734L34.9097 15.3658C34.9066 15.1776 34.8568 14.9934 34.765 14.8301L30.3134 6.92105C30.2176 6.7509 30.0794 6.60952 29.9128 6.5112C29.7462 6.41287 29.5571 6.3611 29.3645 6.3611H23.5325V2.27053C23.5318 1.66854 23.2967 1.09142 22.8789 0.665762C22.461 0.24011 21.8944 0.000681849 21.3035 0H2.22905C1.63811 0.000681849 1.07156 0.24011 0.653686 0.665762C0.235809 1.09142 0.000723702 1.66854 0 2.27053L0 19.7352C0.000633256 20.3373 0.235678 20.9145 0.653566 21.3402C1.07145 21.766 1.63805 22.0054 2.22905 22.0061ZM28.0047 22.7714C27.5991 22.7714 27.2026 22.6489 26.8653 22.4193C26.5281 22.1898 26.2652 21.8635 26.11 21.4818C25.9548 21.1 25.9142 20.68 25.9933 20.2747C26.0724 19.8695 26.2677 19.4972 26.5545 19.2051C26.8414 18.9129 27.2068 18.7139 27.6046 18.6333C28.0024 18.5527 28.4147 18.5941 28.7895 18.7522C29.1642 18.9103 29.4845 19.1781 29.7098 19.5216C29.9352 19.8652 30.0554 20.2691 30.0554 20.6823C30.0548 21.2362 29.8386 21.7672 29.4541 22.1588C29.0696 22.5505 28.5484 22.7708 28.0047 22.7714ZM23.5325 8.58949H28.7309L32.727 15.6897L32.7939 19.7774H32.1485C31.9453 18.8114 31.4231 17.9457 30.669 17.3246C29.9148 16.7035 28.9744 16.3647 28.0047 16.3647C27.0349 16.3647 26.0945 16.7035 25.3404 17.3246C24.5862 17.9457 24.064 18.8114 23.8608 19.7774H23.5327L23.5325 8.58949ZM8.40817 22.7714C8.00256 22.7714 7.60607 22.6489 7.26882 22.4193C6.93157 22.1898 6.66872 21.8635 6.5135 21.4818C6.35828 21.1 6.31767 20.68 6.3968 20.2747C6.47593 19.8695 6.67125 19.4972 6.95805 19.2051C7.24486 18.9129 7.61027 18.7139 8.00808 18.6333C8.40589 18.5527 8.81823 18.5941 9.19296 18.7522C9.56769 18.9103 9.88798 19.1781 10.1133 19.5216C10.3387 19.8652 10.4589 20.2691 10.4589 20.6823C10.4583 21.2362 10.2421 21.7672 9.8576 22.1588C9.47314 22.5505 8.95188 22.7708 8.40817 22.7714ZM2.18749 2.27018C2.18804 2.25913 2.19259 2.24868 2.20027 2.24086C2.20795 2.23303 2.21821 2.22839 2.22905 2.22784H21.3035C21.3143 2.22839 21.3246 2.23303 21.3323 2.24086C21.34 2.24868 21.3445 2.25913 21.3451 2.27018V19.777H12.552C12.3488 18.8111 11.8265 17.9453 11.0724 17.3242C10.3183 16.7032 9.37785 16.3644 8.4081 16.3644C7.43835 16.3644 6.49793 16.7032 5.74379 17.3242C4.98966 17.9453 4.46742 18.8111 4.26424 19.777H2.22905C2.2183 19.7765 2.20811 19.7719 2.20044 19.7642C2.19278 19.7565 2.18817 19.7462 2.18749 19.7352V2.27018ZM6.11814 5.15317C6.11814 4.85766 6.23337 4.57426 6.43849 4.36531C6.64361 4.15636 6.9218 4.03897 7.21188 4.03897H16.9189C17.209 4.03897 17.4872 4.15636 17.6923 4.36531C17.8974 4.57426 18.0126 4.85766 18.0126 5.15317C18.0126 5.44867 17.8974 5.73207 17.6923 5.94102C17.4872 6.14998 17.209 6.26736 16.9189 6.26736H7.21188C6.9218 6.26736 6.64361 6.14998 6.43849 5.94102C6.23337 5.73207 6.11814 5.44867 6.11814 5.15317ZM18.0126 8.77431C18.0126 9.06981 17.8974 9.35322 17.6923 9.56217C17.4872 9.77112 17.209 9.88851 16.9189 9.88851H13.2275C12.9374 9.88851 12.6592 9.77112 12.4541 9.56217C12.249 9.35322 12.1337 9.06981 12.1337 8.77431C12.1337 8.47881 12.249 8.19541 12.4541 7.98645C12.6592 7.7775 12.9374 7.66011 13.2275 7.66011H16.9189C17.0625 7.66011 17.2048 7.68894 17.3375 7.74496C17.4702 7.80097 17.5908 7.88308 17.6924 7.98658C17.794 8.09008 17.8745 8.21295 17.9295 8.34817C17.9844 8.48339 18.0127 8.62831 18.0126 8.77466V8.77431Z"
    fill="currentColor" />
</svg>