<svg width="20" height="15" viewBox="0 0 20 15" fill="none" xmlns="http://www.w3.org/2000/svg">
  <path
    d="M9.99954 0C14.9836 0 19.1302 3.23333 20 7.5C19.1311 11.7667 14.9836 15 9.99954 15C5.01548 15 0.868882 11.7667 0 7.5C0.868882 3.23333 5.01548 0 9.99954 0ZM9.99954 13.3333C11.8849 13.3332 13.7143 12.756 15.1883 11.6962C16.6623 10.6365 17.6936 9.15703 18.1134 7.5C17.6925 5.84401 16.6608 4.3658 15.1869 3.30712C13.7131 2.24844 11.8844 1.67196 10 1.67196C8.11555 1.67196 6.28688 2.24844 4.81305 3.30712C3.33923 4.3658 2.30749 5.84401 1.88658 7.5C2.30632 9.15689 3.3375 10.6363 4.81134 11.696C6.28517 12.7557 8.11437 13.333 9.99954 13.3333ZM9.99954 11.25C8.89636 11.25 7.83836 10.8549 7.0583 10.1516C6.27823 9.44839 5.84 8.49456 5.84 7.5C5.84 6.50544 6.27823 5.55161 7.0583 4.84835C7.83836 4.14509 8.89636 3.75 9.99954 3.75C11.1027 3.75 12.1607 4.14509 12.9408 4.84835C13.7208 5.55161 14.1591 6.50544 14.1591 7.5C14.1591 8.49456 13.7208 9.44839 12.9408 10.1516C12.1607 10.8549 11.1027 11.25 9.99954 11.25ZM9.99954 9.58333C10.6124 9.58333 11.2002 9.36384 11.6336 8.97314C12.0669 8.58244 12.3104 8.05253 12.3104 7.5C12.3104 6.94747 12.0669 6.41756 11.6336 6.02686C11.2002 5.63616 10.6124 5.41667 9.99954 5.41667C9.38666 5.41667 8.79888 5.63616 8.36551 6.02686C7.93215 6.41756 7.68868 6.94747 7.68868 7.5C7.68868 8.05253 7.93215 8.58244 8.36551 8.97314C8.79888 9.36384 9.38666 9.58333 9.99954 9.58333Z"
    fill="currentColor" />
</svg>