<svg width="25" height="25" viewBox="0 0 25 25" fill="none" xmlns="http://www.w3.org/2000/svg">
  <path
    d="M14.8613 7.85793H3.91086C3.70342 7.85793 3.50447 7.77515 3.35778 7.62778C3.2111 7.48042 3.12869 7.28055 3.12869 7.07214V3.92897C3.12869 3.72056 3.2111 3.52069 3.35778 3.37333C3.50447 3.22596 3.70342 3.14317 3.91086 3.14317H14.8613C15.0687 3.14317 15.2677 3.22596 15.4144 3.37333C15.561 3.52069 15.6434 3.72056 15.6434 3.92897V7.07214C15.6434 7.28055 15.561 7.48042 15.4144 7.62778C15.2677 7.77515 15.0687 7.85793 14.8613 7.85793ZM4.69303 6.28635H14.0791V4.66761H4.69303V6.28635Z"
    fill="currentColor" />
  <path
    d="M14.8613 9.49238H3.91086C3.70342 9.49238 3.50447 9.57517 3.35778 9.72254C3.2111 9.8699 3.12869 10.0698 3.12869 10.2782V13.3585C3.12869 13.5669 3.2111 13.7668 3.35778 13.9141C3.50447 14.0615 3.70342 14.1443 3.91086 14.1443H12.7963L15.6434 11.2368V10.2782C15.6434 10.0698 15.561 9.8699 15.4144 9.72254C15.2677 9.57517 15.0687 9.49238 14.8613 9.49238ZM14.0791 12.5727H4.69303V11.0011H14.0791V12.5727Z"
    fill="currentColor" />
  <path
    d="M7.08648 23.1888V23.1416L7.33678 22.0494H1.56434V1.57159H17.2078V9.62597L18.7721 8.14082V0.785793C18.7721 0.577388 18.6897 0.377518 18.543 0.230154C18.3964 0.0827887 18.1974 0 17.99 0H0.782172C0.574727 0 0.375779 0.0827887 0.229093 0.230154C0.0824072 0.377518 0 0.577388 0 0.785793V22.788C0 22.9964 0.0824072 23.1963 0.229093 23.3437C0.375779 23.491 0.574727 23.5738 0.782172 23.5738H7.03955C7.046 23.4445 7.06168 23.3158 7.08648 23.1888Z"
    fill="currentColor" />
  <path
    d="M15.6434 13.4921L15.0333 14.1128C15.1847 14.0815 15.3234 14.0058 15.432 13.8953C15.5406 13.7848 15.6142 13.6445 15.6434 13.4921Z"
    fill="currentColor" />
  <path
    d="M3.12869 19.5977C3.12869 19.8061 3.2111 20.006 3.35778 20.1533C3.50447 20.3007 3.70342 20.3835 3.91086 20.3835H7.69658L7.93123 19.3619L8.03291 18.9298V18.8905H4.69303V17.2875H9.65201L11.2164 15.7159H3.91086C3.70342 15.7159 3.50447 15.7987 3.35778 15.946C3.2111 16.0934 3.12869 16.2933 3.12869 16.5017V19.5977Z"
    fill="currentColor" />
  <path
    d="M24.6306 11.5276L21.9947 8.87947C21.8777 8.76162 21.7387 8.66812 21.5857 8.60433C21.4327 8.54053 21.2687 8.50769 21.103 8.50769C20.9373 8.50769 20.7733 8.54053 20.6203 8.60433C20.4673 8.66812 20.3283 8.76162 20.2113 8.87947L9.48775 19.7156L8.6039 23.4952C8.5708 23.6583 8.57006 23.8263 8.60171 23.9896C8.63335 24.153 8.69676 24.3085 8.78831 24.4472C8.87986 24.5858 8.99775 24.705 9.13522 24.7979C9.27269 24.8907 9.42704 24.9554 9.58943 24.9882C9.67005 24.9964 9.75128 24.9964 9.83191 24.9882C9.92774 25.0039 10.0255 25.0039 10.1213 24.9882L13.9148 24.1474L24.6306 13.3585C24.7477 13.2416 24.8406 13.1027 24.904 12.9496C24.9674 12.7965 25 12.6324 25 12.4666C25 12.3008 24.9674 12.1367 24.904 11.9836C24.8406 11.8305 24.7477 11.6916 24.6306 11.5747V11.5276ZM13.117 22.7173L10.2543 23.3538L10.9504 20.5014L18.9911 12.337L21.1969 14.5529L13.117 22.7173ZM22.0807 13.6649L19.875 11.449L21.1187 10.2153L23.34 12.447L22.0807 13.6649Z"
    fill="currentColor" />
</svg>