<svg width="25" height="25" viewBox="0 0 25 25" fill="none" xmlns="http://www.w3.org/2000/svg">
  <path fill-rule="evenodd" clip-rule="evenodd"
    d="M13.3921 0.0319909C13.2626 -0.000782649 13.1269 -0.00876238 12.9928 0.00984586C12.8289 0.00338733 12.6646 0.000140344 12.5 0.000140344C12.3354 0.000140344 12.171 0.0033887 12.0071 0.00984983C11.873 -0.00876598 11.7372 -0.000782898 11.6077 0.0320039C8.61862 0.245803 5.79415 1.5283 3.66116 3.66126C1.31696 6.00544 6.20882e-08 9.18483 0 12.5C0 14.1415 0.323322 15.7669 0.951506 17.2835C1.57969 18.8 2.50043 20.178 3.66116 21.3387C4.8219 22.4995 6.19989 23.4202 7.71646 24.0484C8.95752 24.5624 10.2715 24.8723 11.6075 24.968C11.7372 25.0008 11.873 25.0088 12.0072 24.9901C12.1712 24.9966 12.3355 24.9999 12.5 24.9999C12.6644 24.9999 12.8287 24.9966 12.9927 24.9901C13.1269 25.0088 13.2627 25.0008 13.3923 24.968C14.7284 24.8724 16.0424 24.5625 17.2835 24.0484C18.8001 23.4202 20.1781 22.4995 21.3388 21.3387C22.4996 20.178 23.4203 18.8 24.0485 17.2835C24.6767 15.7669 25 14.1415 25 12.5C25 9.18483 23.683 6.00544 21.3388 3.66126C19.2058 1.52826 16.3813 0.245751 13.3921 0.0319909ZM12.4505 2.08357C12.467 2.08349 12.4835 2.08345 12.5 2.08345C12.5165 2.08345 12.5329 2.08349 12.5494 2.08357C13.5686 3.82265 14.323 5.69502 14.795 7.63894H10.2048C10.6768 5.69502 11.4313 3.82265 12.4505 2.08357ZM9.90659 2.41142C8.11592 2.87178 6.4639 3.80481 5.1343 5.13439C4.38979 5.8789 3.76961 6.7245 3.28714 7.63894H8.06673C8.46336 5.83107 9.0805 4.07512 9.90659 2.41142ZM7.71048 9.72225H2.46051C2.2123 10.6192 2.08333 11.553 2.08333 12.5C2.08333 13.4406 2.21073 14.3749 2.46053 15.2777H7.71048C7.59716 14.3593 7.53978 13.4317 7.53978 12.5C7.53978 11.5683 7.59716 10.6407 7.71048 9.72225ZM8.06673 17.3611H3.28715C3.77313 18.2821 4.39536 19.1267 5.1343 19.8656C6.10158 20.8329 7.24991 21.6002 8.51371 22.1236C8.9675 22.3116 9.43297 22.4668 9.90657 22.5885C9.08048 20.9248 8.46335 19.1689 8.06673 17.3611ZM12.4505 22.9164C11.4313 21.1773 10.6768 19.305 10.2048 17.3611H14.795C14.323 19.305 13.5686 21.1774 12.5494 22.9164C12.5329 22.9165 12.5165 22.9165 12.5 22.9165C12.4835 22.9165 12.467 22.9165 12.4505 22.9164ZM15.0933 22.5886C15.5669 22.4668 16.0325 22.3116 16.4863 22.1236C17.7501 21.6002 18.8984 20.8329 19.8657 19.8656C20.6046 19.1267 21.2269 18.2821 21.7128 17.3611H16.9331C16.5365 19.1689 15.9194 20.9249 15.0933 22.5886ZM17.2894 15.2777H22.5395C22.7893 14.3749 22.9167 13.4406 22.9167 12.5C22.9167 11.553 22.7877 10.6192 22.5395 9.72225H17.2894C17.4027 10.6407 17.4601 11.5683 17.4601 12.5C17.4601 13.4317 17.4027 14.3593 17.2894 15.2777ZM15.1886 9.72225H9.81123C9.6864 10.6396 9.62311 11.5675 9.62311 12.5C9.62311 13.4325 9.6864 14.3604 9.81123 15.2777H15.1886C15.3135 14.3604 15.3768 13.4325 15.3768 12.5C15.3768 11.5675 15.3135 10.6396 15.1886 9.72225ZM16.9331 7.63894C16.5365 5.83106 15.9194 4.0751 15.0933 2.41138C16.884 2.87173 18.5361 3.80477 19.8657 5.13439C20.6102 5.8789 21.2304 6.7245 21.7129 7.63894H16.9331Z"
    fill="currentColor" />
</svg>