<svg width="27" height="25" viewBox="0 0 27 25" fill="none" xmlns="http://www.w3.org/2000/svg">
  <path fill-rule="evenodd" clip-rule="evenodd"
    d="M14.7251 0.472817L18.0481 3.62925V1.75411C18.0481 1.27934 18.436 0.894473 18.9144 0.894473H21.6217C22.1001 0.894473 22.488 1.27934 22.488 1.75411V7.84653L26.7327 11.8785C27.0784 12.2068 27.0903 12.751 26.7595 13.0939C26.4286 13.4369 25.8803 13.4488 25.5346 13.1205L24.2928 11.9409V23.2449C24.2928 23.7104 24.1064 24.1568 23.7747 24.4859C23.443 24.8151 22.9932 25 22.5241 25H17.1096C16.6312 25 16.2433 24.6151 16.2433 24.1404V16.529C16.2433 16.4008 16.192 16.2778 16.1006 16.1871C16.0092 16.0964 15.8853 16.0455 15.756 16.0455H11.244C11.1147 16.0455 10.9908 16.0964 10.8994 16.1871C10.808 16.2778 10.7567 16.4008 10.7567 16.529V24.1404C10.7567 24.6151 10.3688 25 9.89037 25H4.47594C4.00684 25 3.55696 24.8151 3.22527 24.4859C2.89357 24.1568 2.70722 23.7104 2.70722 23.2449V11.9409L1.46536 13.1205C1.11974 13.4488 0.571355 13.4369 0.240508 13.0939C-0.0903394 12.751 -0.0783622 12.2068 0.26726 11.8785L12.2756 0.472107C12.6348 0.110526 13.1259 -0.000668608 13.5035 3.02054e-06C13.8795 0.000671917 14.3688 0.112785 14.7251 0.472817ZM4.43984 10.2951V23.2449C4.43984 23.2544 4.44364 23.2635 4.45041 23.2702C4.45718 23.277 4.46636 23.2807 4.47594 23.2807H9.02406V16.529C9.02406 15.9448 9.25795 15.3845 9.67426 14.9714C10.0906 14.5583 10.6552 14.3262 11.244 14.3262H15.756C16.3448 14.3262 16.9094 14.5583 17.3257 14.9714C17.742 15.3845 17.9759 15.9448 17.9759 16.529V23.2807H22.5241C22.5336 23.2807 22.5428 23.277 22.5496 23.2702C22.5564 23.2635 22.5602 23.2544 22.5602 23.2449V10.2951L13.5343 1.72173C13.5244 1.72024 13.5129 1.71929 13.5004 1.71927C13.4875 1.71924 13.4757 1.7202 13.4657 1.72171L4.43984 10.2951ZM20.7553 6.20076V2.61374H19.7807V5.27502L20.7553 6.20076Z"
    fill="currentColor" />
</svg>