<svg width="30" height="25" viewBox="0 0 30 25" fill="none" xmlns="http://www.w3.org/2000/svg">
  <path fill-rule="evenodd" clip-rule="evenodd"
    d="M19.3202 2.68235C16.4749 2.13618 13.5251 2.13618 10.6798 2.68235L10.0183 2.80934C8.13709 3.17046 6.49198 3.99008 5.22842 5.11001L12.8192 9.80811C14.1157 10.6106 15.8843 10.6106 17.1808 9.80811L24.7716 5.11001C23.508 3.99007 21.8629 3.17046 19.9817 2.80934L19.3202 2.68235ZM26.2787 6.86147L18.4087 11.7324C16.3616 12.9994 13.6384 12.9994 11.5913 11.7324L3.72127 6.86147C3.32731 7.47653 3.02446 8.13747 2.826 8.82987C2.13492 11.2409 2.13492 13.7591 2.826 16.1701C3.67137 19.1194 6.41065 21.4981 10.0183 22.1907L10.6798 22.3176C13.5251 22.8638 16.4749 22.8638 19.3202 22.3176L19.9817 22.1907C23.5893 21.4981 26.3286 19.1194 27.174 16.1701C27.8651 13.7591 27.8651 11.2409 27.174 8.82987C26.9755 8.13748 26.6727 7.47653 26.2787 6.86147ZM10.2383 0.451606C13.3752 -0.150536 16.6249 -0.150535 19.7617 0.451606L20.4232 0.578588C24.7575 1.4106 28.2795 4.32103 29.3949 8.21243C30.2017 11.0272 30.2017 13.9728 29.3949 16.7876C28.2795 20.679 24.7575 23.5894 20.4232 24.4214L19.7617 24.5484C16.6249 25.1505 13.3752 25.1505 10.2383 24.5484L9.57682 24.4214C5.24251 23.5894 1.72051 20.679 0.605103 16.7876C-0.201701 13.9728 -0.201701 11.0272 0.605103 8.21242C1.72051 4.32102 5.24251 1.4106 9.57683 0.578589L10.2383 0.451606Z"
    fill="currentColor" />
</svg>