<svg width="34" height="25" viewBox="0 0 34 25" fill="none" xmlns="http://www.w3.org/2000/svg">
  <path
    d="M32.4062 1.0634H6.375C5.49631 1.0634 4.78125 1.77937 4.78125 2.65918V4.25016L0.916937 0.166047C0.767656 0.00806576 0.537094 -0.0424669 0.334687 0.0373218C0.132812 0.118174 0 0.313922 0 0.531479V11.7019C0 11.8615 0.0717188 12.0125 0.194969 12.1136L4.78125 15.8706V21.8085C4.78125 22.6883 5.49631 23.4042 6.375 23.4042H8.28006L9.40684 24.5324C9.70753 24.834 10.1081 25 10.5336 25H18.5937C18.6421 25 18.6894 24.9936 18.734 24.9814C18.8094 24.9936 18.8875 25 18.9656 25H20.145C20.7336 25 21.2404 24.6617 21.4652 24.1165C21.5624 23.8824 21.5916 23.6388 21.565 23.4042H32.4062C33.2849 23.4042 34 22.6883 34 21.8085V2.65918C34 1.77937 33.2849 1.0634 32.4062 1.0634ZM14.875 2.12725H17V5.92041L16.2323 5.40816C16.0538 5.28901 15.8217 5.28901 15.6432 5.40816L14.875 5.92041V2.12725ZM5.84375 2.65918C5.84375 2.36609 6.08175 2.12725 6.375 2.12725H13.8125V6.91457C13.8125 7.11085 13.9203 7.29117 14.093 7.38373C14.2651 7.47575 14.4755 7.46565 14.6381 7.35713L15.9375 6.4901L17.2364 7.35713C17.3251 7.41671 17.4282 7.4465 17.5312 7.4465C17.6173 7.4465 17.7034 7.42575 17.782 7.38373C17.9547 7.29117 18.0625 7.11085 18.0625 6.91457V2.12725H26.0312V22.3404H20.9387L16.9421 18.3382L16.4804 16.7206L17.3846 17.6259C18.0466 18.2887 19.1091 18.3632 19.8555 17.802C20.2773 17.4855 20.5498 17.0025 20.6024 16.477C20.655 15.952 20.4845 15.4243 20.1338 15.0296L17.3639 11.9093C16.9623 11.4567 16.4124 11.1529 15.8153 11.0529L10.3567 10.1423L5.84375 5.37305V2.65918ZM5.84375 21.8085V16.9078C5.916 17.044 5.97284 17.1882 6.00366 17.3408L6.79044 21.2808C6.86747 21.667 7.02737 22.0271 7.259 22.3404H6.375C6.08175 22.3404 5.84375 22.1015 5.84375 21.8085ZM20.4839 23.7096C20.4558 23.7776 20.366 23.9362 20.145 23.9362H18.9656C18.8673 23.9362 18.776 23.8979 18.7064 23.8287L15.2506 20.3685C15.147 20.2648 15.011 20.2127 14.875 20.2127C14.739 20.2127 14.603 20.2648 14.4994 20.3685C14.2917 20.5765 14.2917 20.9127 14.4994 21.1207L17.3113 23.9362H16.0878L13.056 20.9005C12.8483 20.6925 12.5125 20.6925 12.3048 20.9005C12.0971 21.1084 12.0971 21.4446 12.3048 21.6526L14.5855 23.9362H13.4316L10.3998 20.9005C10.192 20.6925 9.85628 20.6925 9.64856 20.9005C9.44084 21.1084 9.44084 21.4446 9.64856 21.6526L11.9292 23.9362H10.5336C10.3939 23.9362 10.2568 23.8792 10.158 23.7803L8.26784 21.8877C8.04419 21.6638 7.89384 21.3819 7.83222 21.0723L7.04544 17.1318C6.92484 16.5296 6.59706 15.9839 6.12266 15.595L1.0625 11.4498V1.86661L9.70806 11.004C9.78722 11.088 9.89241 11.1439 10.0066 11.1631L15.6405 12.1035C15.9991 12.1631 16.329 12.3461 16.5702 12.6173L19.3402 15.7376C19.4958 15.9131 19.5686 16.1376 19.5452 16.3711C19.5218 16.6046 19.4055 16.811 19.218 16.9515C18.8918 17.1972 18.4264 17.1642 18.1358 16.8743L16.9904 15.727C16.6717 15.4083 16.1967 15.3472 15.8073 15.5764C15.419 15.8052 15.2416 16.2509 15.3648 16.6844L15.9577 18.7632C15.9827 18.8499 16.0294 18.9291 16.0932 18.993L20.4042 23.3095C20.5604 23.4659 20.5116 23.6415 20.4839 23.7096ZM32.9375 21.8085C32.9375 22.1015 32.6995 22.3404 32.4062 22.3404H27.0937V2.12725H32.4062C32.6995 2.12725 32.9375 2.36609 32.9375 2.65918V21.8085Z"
    fill="currentColor" />
</svg>