<svg width="22" height="25" viewBox="0 0 22 25" fill="none" xmlns="http://www.w3.org/2000/svg">
  <path fill-rule="evenodd" clip-rule="evenodd"
    d="M2.75 2.17391C2.44624 2.17391 2.2 2.41723 2.2 2.71739V22.2826C2.2 22.5828 2.44623 22.8261 2.75 22.8261H19.25C19.5538 22.8261 19.8 22.5828 19.8 22.2826V8.05893L13.8444 2.17391H2.75ZM0 2.71739C0 1.21662 1.2312 0 2.75 0H14.7556L22 7.15846V22.2826C22 23.7834 20.7688 25 19.25 25H2.75C1.23122 25 0 23.7834 0 22.2826V2.71739ZM9.9 10.3261H5.225V8.15217H12.1V19.837H9.9V10.3261ZM16.775 10.3261H13.475V8.15217H16.775V10.3261ZM8.525 15.2174H5.225V13.0435H8.525V15.2174ZM16.775 15.2174H13.475V13.0435H16.775V15.2174ZM8.525 20.1087H5.225V17.9348H8.525V20.1087ZM16.775 20.1087H13.475V17.9348H16.775V20.1087Z"
    fill="currentColor" />
</svg>