<svg width="20" height="25" viewBox="0 0 20 25" fill="none" xmlns="http://www.w3.org/2000/svg">
  <path fill-rule="evenodd" clip-rule="evenodd"
    d="M10 2.5C7.82819 2.5 6.14586 4.18641 6.14586 6.17188C6.14586 8.15734 7.82819 9.84375 10 9.84375C12.1719 9.84375 13.8542 8.15734 13.8542 6.17188C13.8542 4.18641 12.1719 2.5 10 2.5ZM3.64586 6.17188C3.64586 2.72078 6.53395 0 10 0C13.4661 0 16.3542 2.72078 16.3542 6.17188C16.3542 9.62297 13.4661 12.3438 10 12.3438C6.53395 12.3438 3.64586 9.62297 3.64586 6.17188ZM13.2819 16.5188C11.1077 16.1604 8.89234 16.1604 6.71811 16.5188L6.4584 16.5617L6.25505 15.3283L6.45839 16.5617C4.20747 16.9328 2.5 18.9552 2.5 21.3893C2.5 22.0414 3.00145 22.5 3.53516 22.5H16.4648C16.9986 22.5 17.5 22.0413 17.5 21.3893C17.5 18.9552 15.7925 16.9328 13.5416 16.5617L13.2819 16.5188ZM6.31144 14.0521C8.75496 13.6493 11.245 13.6493 13.6886 14.0521L13.9483 14.095C17.4642 14.6746 20 17.7907 20 21.3893C20 23.3448 18.4552 25 16.4648 25H3.53516C1.54476 25 0 23.3448 0 21.3893C0 17.7907 2.53584 14.6746 6.05171 14.095L6.31143 14.0521L6.51477 15.2855L6.31144 14.0521Z"
    fill="currentColor" />
</svg>