<svg width="33" height="25" viewBox="0 0 33 25" fill="none" xmlns="http://www.w3.org/2000/svg">
  <path
    d="M21.5918 14.4553C21.5918 15.6833 22.7978 16.6822 24.2801 16.6822H32.9994V12.2284H24.2801C22.7978 12.2285 21.5918 13.2275 21.5918 14.4553ZM25.7502 14.5208C25.7502 15.0165 25.265 15.4185 24.6665 15.4185C24.068 15.4185 23.5828 15.0165 23.5828 14.5208C23.5828 14.025 24.068 13.6231 24.6665 13.6231C25.265 13.6231 25.7502 14.025 25.7502 14.5208Z"
    fill="currentColor" />
  <path
    d="M24.2807 18.4066C21.6504 18.4066 19.5105 16.634 19.5105 14.4553C19.5105 12.2765 21.6505 10.5039 24.2807 10.5039H32.9999V7.4948C32.9999 5.45933 31.0008 3.80335 28.5435 3.80335H4.45641C1.99914 3.80335 0 5.45933 0 7.4948V21.3085C0 23.344 1.99914 25 4.45641 25H28.5436C31.0009 25 33 23.344 33 21.3085V18.4066H24.2807Z"
    fill="currentColor" />
  <path
    d="M4.45451 2.07896C30.6371 2.07896 28.7606 2.06107 29.3355 2.11895C28.6213 0.867842 27.0833 0 25.3048 0H4.45451C2.06178 0 0.104278 1.5703 0.00304921 3.53199C1.17108 2.63106 2.73629 2.07896 4.45451 2.07896Z"
    fill="currentColor" />
</svg>